<svg xmlns="http://www.w3.org/2000/svg" width="1024" height="1024"><path fill="none" d="M0 0h1024v1024H0zm456.324 80.305A936 936 0 0 0 454 84l-1.15 1.81c-26.052 41.554-31.254 100.632-20.56 147.697 3.171 13.438 7.025 26.51 11.71 39.493l1.492 4.281a154 154 0 0 0 8.633 19.844c10.942 21.03 12.418 48.15 5.875 70.875-4.83 14.817-12.836 27.81-21.375 40.75C414.755 445.047 401.072 487.244 410 531c2.728 12.64 5.764 25.142 11 37l.933 2.183c4.337 10.152 9.093 19.91 14.535 29.515C442.863 611.003 447.626 622.474 451 635l.569 2.078c1.545 6.185 1.832 12.19 1.868 18.547l.1 2.965c.097 13.534-5.599 25.249-11.755 36.993-5.255 10.05-10.187 20.187-14.532 30.667l-1.192 2.861C420 744.011 420 744.011 420 751c-2-1-2-1-2.727-3l-.683-2.645-.797-2.961-.856-3.207C411.688 727.54 407.383 716.814 402 706l-.954-1.94c-3.945-7.951-8.695-14.998-14.046-22.06l-2-3h-2l-.621-1.598c-1.975-3.44-4.686-6.007-7.442-8.84-12.805-13.51-21.284-26.67-21.085-45.765.649-16.61 5.222-32.551 11.601-47.793 3.243-8.085 5.382-16.58 7.547-25.004l.552-2.096c4.925-19.301 3.521-39.81-1.552-58.904l-.875-3.34c-2.414-8.03-6.273-15.41-10.155-22.81a497 497 0 0 1-2.54-4.928c-3.504-6.7-7.492-13.172-12.43-18.922h-2l-.773-1.73c-4.624-8.555-13.345-15.26-20.398-21.782C310.531 404.062 310.531 404.062 308 399h-2l-.75-2.562C304 393 304 393 302.063 389.875c-7.13-12.204-6.201-27.176-3.043-40.43 2.152-7.564 5.141-14.712 8.48-21.82 8.38-18.158 11.675-37.1 11.688-57l.037-3.172c.013-7.345-.798-14.254-2.225-21.453l-.41-2.183c-2.143-10.898-6.196-20.165-11.59-29.817l-1.64-2.945c-3.029-5.212-6.247-10.62-10.36-15.055h-2l-.73-1.707C283.323 181.746 266.23 171.41 253 167c-6.983-.788-6.983-.788-11.062 2.375-2.415 3.548-2.37 6.446-1.715 10.598 1.96 7.636 5.068 14.947 8.109 22.207 10.993 26.872 13.677 56.54 2.668 83.82-3.596 8.503-7.848 16.701-12.01 24.936-3.625 7.229-6.842 14.617-9.99 22.064l-1.184 2.77c-6.86 16.525-10.352 32.939-10.129 50.793l-.01 3.92c.19 34.29 14.202 62.378 36.912 87.258 13.145 14.437 20.282 28.053 19.712 48.001-.83 15.394-10.045 30.304-17.25 43.6C240.672 599.644 237.02 632.787 246 666l.766 2.875c7.09 23.722 23.377 42.354 40.57 59.441l1.448 1.44q3.591 3.572 7.211 7.115c18.444 18.2 30.382 37.926 38.67 62.266 1.037 3.04 2.167 6.02 3.397 8.988 1.573 3.798 2.793 7.634 4 11.563C348.243 838.906 358.076 855.63 371 871c-3.273 1.372-6.466 2.454-9.913 3.293l-2.892.711-3.11.754-6.642 1.633-3.5.858c-18.294 4.492-36.54 9.001-54.513 14.672a1545 1545 0 0 1-10.105 3.133q-4.795 1.476-9.586 2.963l-4.654 1.44c-29.287 9.054-29.287 9.054-37.194 22.418-2.82 6.383-3.345 14.152-.942 20.719 3.336 6.313 7.301 11.021 14.033 13.787 3.636 1.115 7.228 1.032 11.004 1.002l2.686.015c2.973.013 5.946.005 8.92-.004q3.228.007 6.456.019c5.916.016 11.833.014 17.75.008 6.38-.002 12.759.012 19.139.025 12.5.02 25 .025 37.5.023a34970 34970 0 0 1 34.855.013l2.196.002 2.2.002 2.202.001q30.675.024 61.348.018h2.336l11.722-.003h2.352l4.708-.002q36.625-.008 73.252.042a55032 55032 0 0 0 91.077.05l2.183-.001q16.308 0 32.616.03 18.549.032 37.098.005c6.31-.01 12.62-.01 18.93.01q8.665.028 17.33-.008 3.135-.006 6.269.013c21.795.132 21.795.132 30.264-7.891 4.248-7.19 6.913-13.252 5.625-21.75-2.671-9.67-7.475-15.407-16.04-20.448-5.255-2.755-10.793-4.633-16.398-6.552l-3.755-1.31c-15.232-5.28-30.546-9.986-46.095-14.243-5.974-1.642-11.853-3.431-17.712-5.447 11.785-10.96 24.838-18.462 38.925-26.035C742.639 844.354 758.884 830.948 771 812l1.645-2.484c10.875-17.103 16.498-36.97 19.718-56.801 2.711-15.817 10.459-25.528 23.386-34.787l2.376-1.678c8.34-6.023 16.26-12.335 23.875-19.25l2.508-2.254C853.714 686.037 860.88 675.04 867 664l1.297-2.309c16.182-30.416 14.29-64.974 4.56-97.052-1.227-3.9-2.533-7.771-3.857-11.639-2.378-6.986-4.734-13.977-7-21l-1.11-3.406c-4.445-15.936-2.953-33.142 2.418-48.6a205 205 0 0 0 1.856-5.69c2.573-7.825 6.061-14.865 10.066-22.027 2.776-5.14 4.284-8.557 3.387-14.343-1.017-3.187-3.07-4.884-5.617-6.934-3.564-1.782-7.162-1.588-11-1-12.014 4.732-21.687 14.347-31 23l-2.09 1.89c-5.999 5.655-10.436 12.245-14.91 19.11l-1.691 2.531C801.694 493.16 796.357 514.384 796 534l-.082 2.7c-.082 5.085.192 10.108.57 15.179.551 7.893.765 15.77.824 23.683l.088 3.92c.127 19.501-7.107 32.793-20.4 46.518l-1.556 1.636c-4.198 4.328-8.662 7.976-13.506 11.552C744.802 652.093 728.5 665.688 717 684l-1.93 2.922c-10.361 16.454-12.266 35.099-13.1 54.105C700.68 769.605 688.364 786.89 668 806c-3.54 3.157-7.272 6.07-11 9-11.974 9.702-23.866 19.737-32 33l-1.032 1.682C620.16 855.951 616.79 861.847 615 869c-.683-.182-1.366-.364-2.07-.55-10.85-2.706-21.849-4.058-32.93-5.45l1-2c.277-1.698.512-3.402.727-5.11 4.04-30.226 13.676-56.48 32.273-80.89l1.668-2.234c8.935-11.443 19.737-21.285 30.058-31.45C664.775 722.527 664.775 722.527 672 713q1.35-1.649 2.715-3.285c6.915-8.642 12.207-17.9 17.285-27.715l1.036-1.961c5.006-9.556 8.05-19.264 10.444-29.768.472-2.06.98-4.108 1.493-6.158 5.633-25.074 1.83-52.413-4.887-76.898-5.3-19.802-2.222-40.188 7.707-57.956 8.896-15.159 21.192-27.246 34.41-38.676 2.265-1.995 4.383-4.106 6.485-6.27 2.255-2.29 4.407-4.388 6.937-6.375 3.592-2.93 6.433-6.368 9.375-9.938l2.355-2.848C773.958 436.98 779.193 428.328 784 419l1.185-2.292c5.583-10.932 9.992-21.754 12.815-33.708l.965-3.867c8.173-36.992-.088-74.765-18.007-107.382a459 459 0 0 1-2.56-4.763c-2.907-5.45-6.065-10.656-9.41-15.847C753.748 227.066 741.87 200.976 741 172l-.062-2.058c-.335-13.1.504-25.94 2.062-38.942l.276-2.435c1.395-11.953 4.033-23.367 7.387-34.927C752.676 86.43 753.94 79.502 753 72c-2.118-3.007-3.406-3.613-6.914-4.465-8.105-.84-14.61 3.934-20.713 8.749C694.729 101.679 671.788 145.504 668 185c-.12 2.67-.209 5.317-.238 7.988l-.03 2.231c-.328 30.619-.328 30.619 4.268 44.781l.96 2.971c2.54 7.728 5.265 15.383 8.04 23.029 11.475 31.703 22.83 68.153 9 101-6.867 13.877-17.087 24.968-28.707 34.992-3.294 2.885-6.51 5.853-9.727 8.822a512 512 0 0 1-9.629 8.623c-31.85 28.753-52.807 68.848-55.11 111.804-.86 19.844 1.361 38.072 5.509 57.427 2.848 14.287 2.682 28.327-1.336 42.332l-.24-1.99c-2.733-21.79-7.863-42.33-17.76-62.01q-1.197-2.542-2.383-5.09c-3.793-8.13-7.549-16.136-12.316-23.75-11.907-19.773-13.14-43.001-7.84-65.09 4.29-16.473 11.057-32.45 18.164-47.882 5.252-11.422 9.735-22.708 13.188-34.813l.878-3.03c3.715-13.49 4.721-26.992 4.684-40.908v-2.234c-.037-12.731-1.155-24.841-4.375-37.203l-.551-2.14c-8.489-31.8-25.307-58.67-45.926-83.942C535 219 535 219 533 216h-2l-.812-1.758c-1.21-2.285-2.563-4.11-4.188-6.117-28.495-36.105-41.152-68.539-41.456-114.662-.022-2.763-.061-5.525-.103-8.287v-2.529c-.084-4.94-.699-8.373-3.441-12.647-2.784-2.3-4.912-3.749-8.437-4.562-7.995 1.754-12.042 8.4-16.239 14.867" id="svg-layer-0" style="pointer-events: all; fill: none;"/><path fill="#00293E" d="M477 67c4.016 2.499 5.645 4.519 7 9 .303 3.025.325 6.04.344 9.078l.044 2.681c.046 2.83.08 5.66.112 8.491.379 33.389.379 33.389 4.75 47.938l.655 2.248c3.667 12.181 9.121 22.926 16.095 33.564l1.973 3.059c6.614 10.111 13.878 19.686 21.593 28.98C531 214 531 214 531 216l3 1c1.762 2.152 1.762 2.152 3.688 4.938 2.67 3.784 5.388 7.47 8.312 11.062 5.921 7.332 11.421 14.753 16 23l1.03 1.812c6.581 11.63 11.536 23.595 15.97 36.188l1.246 3.45c1.062 3.162 1.941 6.314 2.754 9.55l.547 2.135c3.054 12.413 3.83 24.579 3.828 37.303l.005 2.155c-.004 14.22-1.538 27.89-5.505 41.594l-.922 3.23c-3.724 12.687-8.614 24.797-14.328 36.708-13.086 27.526-25.54 60.606-16.031 91.207a179.6 179.6 0 0 0 12.352 25.832C569.57 558.704 575.553 570.447 580 583l.863 2.367C586.252 600.33 589.02 615.245 591 631c5.357-18.637 3.235-37.113-1.09-55.773-9.435-41.928-.423-84.597 22.303-120.558 5.316-8.195 11.14-15.305 18.54-21.677 4.203-3.725 8.15-7.71 12.122-11.68l2.586-2.548 2.469-2.463 2.226-2.214c1.748-1.979 2.732-3.718 3.844-6.087 2.031-2.043 2.031-2.043 4.5-4.187l2.715-2.395q2.668-2.317 5.351-4.617c15.586-13.586 27.795-31.21 29.34-52.38L696 342l.156-3.11c.496-18.922-3.38-36.975-9.156-54.89l-.813-2.524c-2.368-7.287-4.832-14.542-7.327-21.787-1.211-3.518-2.41-7.041-3.61-10.564l-1.142-3.274c-4.59-13.522-6.617-26.24-6.5-40.43.017-2.288 0-4.574-.018-6.862-.021-13.934 2.016-27.352 6.16-40.684l.774-2.528c2.478-7.82 5.785-15.038 9.476-22.347l1.578-3.402C692.141 115.692 700.941 102.62 711 91l2.477-2.95c6.808-7.91 16.961-18.733 27.707-20.386 3.724-.064 6.397.165 9.879 1.586 3.304 4.69 2.685 9.214 1.937 14.75-1.19 5.36-2.816 10.605-4.38 15.865-13.038 44.93-11.098 94.931 11.154 136.357 3.506 6.368 7.159 12.543 11.558 18.344 2.505 3.656 4.56 7.54 6.668 11.434l1.241 2.281c13.804 25.513 22.211 49.857 22.134 79.157v2.248c-.037 12.773-1.142 24.912-4.375 37.314l-.957 3.79C791.077 407.564 782.662 425.105 772 439l-1.95 2.574c-6.366 8.169-13.091 15.964-21.019 22.649-2.284 1.998-4.402 4.115-6.531 6.277-2.688 2.724-5.398 5.333-8.312 7.813-18.218 15.785-33.88 36.06-36.411 60.874-1.007 14.728 2.008 28.735 5.848 42.875 7.663 30.065 5.201 66.1-8.625 93.938l-1.094 2.238c-11.832 24.024-28.448 43.505-47.383 62.23l-2.25 2.228q-4.603 4.551-9.224 9.084c-9.107 8.935-17.69 17.769-25.049 28.22l-1.488 2.091c-15.948 23.028-23.97 49.067-27.174 76.724C581 861 581 861 580 863l1.813.228C593.016 864.65 604.07 866.092 615 869l.938-3.562c6.843-20.466 23.892-37.437 40.68-50.201 6.644-5.099 12.672-10.817 18.697-16.624a316 316 0 0 1 4.572-4.27c15.748-14.855 20.939-31.76 21.89-52.69 1.552-32.886 1.552-32.886 9.223-46.653l1.938-3.7c9.679-18.165 23.69-32.924 40.062-45.3 8.282-6.38 16.363-12.846 24-20l1.852-1.621c3.872-3.545 6.904-7.603 9.836-11.942l2.199-3.253c5.883-10.549 6.69-21.8 6.426-33.621l-.03-3.909c-.09-7.827-.481-15.603-1.057-23.407-1.555-22.338 2.212-45.393 12.774-65.247l1.844-3.52c10.511-19.518 29.92-41.206 51.156-49.48 4.87-.985 7.98-.5 12.438 1.688 2.757 2.488 3.806 3.699 4.562 7.312-.412 5.704-2.09 9.704-4.75 14.625-5.724 11.026-9.874 22.419-13.25 34.375l-1.082 3.727c-4.945 20.291 1.37 41.395 8.824 60.208 3.555 9.109 5.897 18.591 8.258 28.065l.552 2.123c4.673 18.32 3.867 38.584-.552 56.877l-.621 2.727c-8.184 31.212-31.998 55.298-57.136 73.84-6.081 4.501-11.82 9.142-17.243 14.433l-1.625 1.54c-7.45 7.915-8.699 21.962-10.266 32.269-1.018 6.213-2.715 12.047-4.734 18.004l-1.066 3.16c-2.977 8.558-6.584 16.312-11.309 24.027l-1.895 3.152C760.898 828.306 747.136 840.1 731 850l-2.418 1.516c-3.978 2.45-8.022 4.728-12.152 6.91C704.568 864.727 693.488 871.36 684 881l1.902.547c13.76 3.968 27.48 8.02 41.098 12.453l3.203 1.04c44.826 14.606 44.826 14.606 50.797 26.21 3.19 7.134 4.538 13.321 1.906 20.898-3.496 7.532-6.694 11.205-14.074 14.953-3.858 1.225-7.572 1.176-11.577 1.156l-2.681.01c-2.98.01-5.959.005-8.939 0l-6.455.014c-5.925.012-11.85.012-17.774.01-6.386 0-12.771.01-19.156.02-12.515.017-25.029.022-37.543.023a56937 56937 0 0 0-39.287.017l-2.205.001q-30.696.02-61.392.02h-2.339l-11.734-.001h-7.067q-36.666-.002-73.332.04a69425 69425 0 0 1-93.332.046c-11.603 0-23.206.013-34.81.03q-17.49.026-34.98.006c-6.317-.007-12.635-.007-18.953.01q-8.672.023-17.344-.004-3.14-.005-6.28.012c-2.844.014-5.686.003-8.53-.013l-2.47.03c-6.5-.08-11.68-1.97-16.64-6.239-6.12-7.69-7.916-13.385-7.012-23.289 1.347-8.167 7.55-14.782 14.074-19.5 13.235-7.223 29.206-10.629 43.61-14.824q3.477-1.016 6.953-2.039c25.955-7.623 52.03-14.451 78.363-20.637 0-2.966-1.594-4.073-3.5-6.312-13.527-16.708-21.833-36.37-27.984-56.79-1.46-4.825-3.24-9.433-5.274-14.046-1.216-2.792-2.324-5.614-3.419-8.455C325.334 774.83 319.661 764.774 312 755l-2.266-2.89c-8.057-9.92-17.268-18.774-26.394-27.696C264.197 705.62 250.635 684.054 244 658c-.235-.874-.47-1.748-.71-2.648-8.587-34.47 3.568-67.881 19.718-97.87 8.552-15.91 14.395-32.051 9.867-50.294A102 102 0 0 0 271 502l-1.078-2.809c-3.864-8.764-9.896-15.344-16.257-22.354C225.538 445.8 216.015 412.197 218 371c.652-6.522 2.119-12.733 4-19l.666-2.289c3.166-10.706 7.35-20.737 12.334-30.711l2.012-4.066a1054 1054 0 0 1 7.652-15.153C251.74 285.992 257.257 271.612 258 256l.195-3.477c.568-18.88-4.437-38.126-11.89-55.37-1.505-3.637-2.843-7.305-4.118-11.028l-1.269-3.68c-.901-3.381-1.247-5.97-.918-9.445 2-3.375 2-3.375 5-6 9.926-1.682 18.327 3.84 26.165 9.36 5.283 3.843 10.117 8.124 14.835 12.64l1.727 1.605c1.138 1.085 2.216 2.232 3.273 3.395v2h2a90 90 0 0 1 4.625 6l1.342 1.892c18.11 26.235 24.244 58.545 18.717 89.881L317 297l-.777 3.727c-2.863 12.817-7.321 25.36-12.973 37.21-2.604 5.492-3.993 11.135-5.25 17.063l-.562 2.441c-2.31 13.511.432 25.757 7.355 37.38C306 397 306 397 306 399h2c1.086 1.328 1.086 1.328 2.375 3.25 5.52 7.618 12.581 14.25 19.75 20.313 5.07 4.32 9.686 9.261 13.875 14.437v2h2a120 120 0 0 1 5.125 7l1.485 2.174c18.305 27.41 28.1 60.993 22.21 93.848-.824 4.025-1.78 8.004-2.82 11.978l-.567 2.216c-2.11 8.082-4.784 15.802-7.933 23.534-2.701 6.658-4.719 13.32-6.375 20.313l-.615 2.594c-3.797 16.838-4.57 33.6 4.553 48.905 4.332 6.392 9.635 11.857 14.937 17.438a435 435 0 0 1 4.188 4.625l1.667 1.852C383 677 383 677 383 679h2c15.492 17.82 25.578 42.577 31.301 65.173.51 1.958 1.098 3.895 1.699 5.827l2 1 .406-2.652c3.122-17.599 11.872-34.112 19.91-49.885 11.719-23.063 17.27-43.498 9.223-69.022A364 364 0 0 0 448 625l-.763-2.157c-4.042-11.08-9.524-21.393-15.115-31.754-2.493-4.64-4.847-9.339-7.122-14.089l-1.672-3.406C405.223 535.414 403.24 491.993 416 452l1.012-3.238c5.57-15.964 15.046-30.61 24.324-44.628 13.705-20.752 21.867-40.195 21.976-65.384l.017-3.262c-.132-14.773-3.506-27.187-10.267-40.3-3.668-7.179-6.391-14.601-9.062-22.188l-.946-2.642c-18.804-52.772-22.66-113.515.259-166.045Q444.63 101.643 446 99l1.96-3.98C463.789 63.46 463.789 63.46 477 67m-15 76c-2.493 4.493-3.684 8.51-4.562 13.563l-.692 3.878c-.115.706-.23 1.412-.35 2.139q-.44 2.674-.917 5.342c-6.052 35.653 2.184 70.512 15.495 103.507C483.907 303.84 494.328 337.012 485 372l-.538 2.154c-4.337 17.06-12.661 32.27-22.84 46.548-21.44 30.364-33.661 66.95-27.59 104.19 4.374 22.6 14.95 43.212 25.23 63.587C473.493 616.7 484.239 649.474 474 681l-.586 2.355c-2.759 10.696-8.043 20.876-12.914 30.739-15.187 30.832-23.614 64.544-16.5 98.906l.59 2.875c1.388 6.045 3.218 11.968 5.098 17.875l.627 2.054c2.725 8.287 6.667 15.16 10.685 23.196l55-1c-2-11-2-11-3.062-15.625-8.553-37.988 2.807-73.904 21.375-106.562 22.151-38.967 39.506-79.882 27.337-125.515-1.943-6.867-4.124-13.623-6.65-20.298l-1.269-3.373c-3.22-8.395-6.997-16.322-11.253-24.237-18.327-34.229-23.715-67.813-12.665-105.515 2.598-8.505 5.744-16.679 9.187-24.875q1.51-3.715 3-7.437l.743-1.854c2.623-6.568 5.1-13.19 7.554-19.823q.719-1.926 1.455-3.846c1.802-4.712 3.378-9.454 4.81-14.29l.631-2.043c3.304-11.122 4.196-22.076 4.182-33.644v-2.043c-.041-16.292-2.45-31.782-8.375-47.02l-1.27-3.457c-8.688-22.858-22.226-41.961-37.783-60.616-23-27.64-41.155-56.092-47.947-91.927zm356.352 479.883c-2.522 3.183-4.893 6.447-7.188 9.797-6.765 9.747-15.253 16.914-24.52 24.21-4.707 3.756-9.282 7.67-13.858 11.583q-1.841 1.574-3.685 3.144C746.63 690.766 734.451 708.129 731 738a147 147 0 0 0-.437 10.375l-.031 2.284c.106 6.677 1.602 12.209 6.093 17.341 4.348 2.577 7.445 2.913 12.375 2 6.413-2.713 8.422-7.9 11-14 1.302-4.062 2.338-8.176 3.375-12.312 5.86-21.933 16.699-33.873 34.625-47.187 8.05-6.041 15.62-12.665 23-19.501l1.934-1.734c10.51-9.832 18.93-25.73 20.351-40.16.209-6.785-.748-10.252-5.285-15.356-2.722-2.381-4.733-2.725-8.312-3.062-5.213.441-7.901 2.271-11.336 6.195M435 888l-2.597.303c-4.46.526-8.9 1.137-13.34 1.822l-1.965.3C389.278 894.727 361.797 901.422 335 910l-5.223 1.621C308.74 918.261 308.74 918.261 303 924c.25 3.563.25 3.563 1 7 2.587 1.293 4.44 1.126 7.339 1.127l3.462.009 3.844-.007q2.034.002 4.067.006 5.636.005 11.27 0c3.249-.003 6.497 0 9.745.001 10.847.006 21.694 0 32.542-.009l11.377-.007q35.718-.023 71.435-.086 17.888-.03 35.777-.053c28.315-.035 56.63-.084 84.946-.168 12.69-.038 25.38-.069 38.07-.083q16.34-.019 32.68-.084c5.613-.023 11.225-.039 16.837-.038q7.751 0 15.501-.05 2.82-.013 5.642-.004c2.551.007 5.101-.011 7.652-.035l2.246.023c3.442-.057 5.265-.312 8.04-2.422C708 927 708 927 708.25 924.562c-2.754-5.644-9.97-8.08-15.636-10.083l-2.364-.792c-.858-.29-1.716-.582-2.6-.883-53.24-17.756-110.397-27.856-166.556-28.007l-2.215-.009q-5.82-.022-11.642-.028-4.695-.007-9.388-.041c-21.16-.152-41.827.743-62.849 3.281" id="svg-layer-1" style="pointer-events: all;"/><path fill="#F5E4C3" d="M462 143c2.063.438 2.063.438 4 1l.594 3.2c6.284 31.856 22.276 57.548 42.594 82.425 20.545 25.2 39.12 50.552 47.812 82.375l.637 2.33c5.327 20.527 6.08 45.17.363 65.67l-.65 2.391c-2.503 9.114-5.264 18.04-9.073 26.703-1.483 3.376-2.855 6.792-4.215 10.219l-1.523 3.828-.768 1.931q-1.147 2.865-2.31 5.725A1087 1087 0 0 0 535 442l-1.312 3.316C523.37 472.622 520.4 501.627 528 530l.875 3.336c3.151 10.494 8.68 20.163 13.879 29.758 5.438 10.085 10.19 19.942 13.61 30.888.64 2.032 1.316 4.048 2 6.065 9.796 29.31 9.761 60.996-1.364 89.953l-.717 1.925c-6.464 17.246-15.487 33.336-24.658 49.263-13.88 24.15-20.803 46.775-20.937 74.75l-.018 3.335c.09 10.154 1.512 20.005 3.955 29.852.77 3.117 1.375 5.663 1.375 8.875l-55 1c-6.754-13.508-6.754-13.508-8.625-18.562l-1.219-3.29L450 834l-1.094-2.773c-13.442-34.726-7.61-74.105 6.839-107.435 2.87-6.384 5.93-12.682 9.042-18.953 3.198-6.488 5.865-13 8.213-19.839l1.125-3c2.562-8.785 3.235-17.447 3.188-26.562l-.015-3.443c-.388-28.1-11.274-52.347-24.485-76.745C445.423 561.56 439.7 547.12 436 532l-.902-3.242C426.674 494.52 437.632 460.44 455 431c2.25-3.636 4.584-7.214 6.949-10.776 4.384-6.622 8.274-13.48 12.066-20.455.973-1.748 2.01-3.46 3.048-5.171 14.172-24.773 14.147-59.09 7.107-85.87-3.464-12.603-8.275-24.626-13.17-36.728-15.711-39.112-26.491-87.245-10-128z" id="svg-layer-2" style="pointer-events: all;"/><path fill="#6F7E88" d="M498.892 884.613q3.507.018 7.014.025c22.483.066 44.767.492 67.094 3.362l4.264.52c97.3 11.955 97.3 11.955 128.736 32.48 2 3 2 3 1.813 5.563C707 929 707 929 704 931c-2.6.201-5.093.285-7.694.278l-2.407.018c-2.68.017-5.36.02-8.04.023l-5.786.03c-5.298.028-10.596.043-15.894.056-5.666.016-11.331.043-16.997.068q-16.515.07-33.032.117-13.332.04-26.664.089-42.508.153-85.015.262-23.376.06-46.752.135a35218 35218 0 0 1-65.161.154l-2.856.004q-9.942.018-19.885.05-11.997.039-23.996.04c-4.033 0-8.066.005-12.099.024q-5.48.023-10.96.01c-1.946-.002-3.891.012-5.836.026-1.144-.005-2.288-.01-3.467-.017l-2.998.005C306 932 306 932 304.19 930.629 303 929 303 929 302.5 926.562c.722-3.7 2.424-4.43 5.5-6.562 32.81-17.16 74.805-24.32 111.063-29.875l3.513-.542c4.136-.592 8.275-1.1 12.424-1.583l3.155-.376c20.289-2.366 40.324-3.122 60.737-3.01" id="svg-layer-3" style="pointer-events: all;"/><path fill="#F0983E" d="M833 617c3.669 1.706 6.34 3.96 9 7 3.65 10.95-.826 22.112-5.422 32.086-8.158 15.66-20.923 26.996-34.758 37.526-5.326 4.062-10.586 8.208-15.82 12.388l-2.633 2.082c-13.23 11.011-18.153 26.816-22.049 43.001-1.752 6.94-4.115 13.07-9.568 17.917-4.01 1.458-7.542 1.772-11.75 1-5.404-3.202-7.382-7.11-9-13-.42-2.89-.476-5.707-.437-8.625l.02-2.452c.634-24.94 7.902-46.465 26.077-63.853 3.764-3.51 7.705-6.772 11.738-9.968 2.566-2.073 4.99-4.242 7.414-6.477 3.902-3.56 7.951-6.835 12.125-10.062 10.124-7.897 18.582-15.728 25.84-26.34 5.342-7.745 9.17-13.105 19.223-12.223" id="svg-layer-4" style="pointer-events: all;"/><path fill="#00121B" d="m651 411 2 1-26 26c0-3.602.569-3.979 2.965-6.512l1.914-2.037 2.058-2.139 2.065-2.173c4.778-4.987 9.664-9.744 14.998-14.139" id="svg-layer-5" style="pointer-events: all;"/></svg>