<svg xmlns="http://www.w3.org/2000/svg" width="1024" height="1024"><path fill="none" d="M0 0h1024v1024H0zm448.335 191.458c-8.13 9.39-14.423 19.764-20.302 30.658-2.14 3.901-4.443 7.707-6.72 11.529C420 236 420 236 419 239c-5.403.275-9.826-.11-15.062-1.5-13.776-3.387-27.316-2.36-39.665 4.941-30.646 21.01-51.584 60.53-64.363 94.317l-1.008 2.661C298 342 298 342 297.334 344.571c-1.581 5.984-1.581 5.984-5.564 8.34q-1.966.622-3.957 1.151-2.175.7-4.34 1.422l-2.246.733c-28.172 9.907-50.13 33.456-63.165 59.67C208.902 435.32 203.177 461.594 204 483l-3.527.34c-4.222.533-8.076 1.688-12.036 3.223l-2.081.802c-28.157 11.171-50.2 31.805-62.504 59.59-9.912 23.793-9.172 48.91-5.852 74.045l-2.168 1.145C107.286 626.865 100.227 632.483 93 639l-2.059 1.805c-17.16 15.931-24.801 39.141-26.164 61.918C64.356 720.145 68.723 736.672 77 752l-2.09 1.688A1385 1385 0 0 0 66 761l-2.383 1.922C52.847 771.956 42.581 784.92 40 799c-.977 14.25 1.898 24.53 10.453 35.938C66.538 853.134 98.778 853.468 121 856l2.544.291C179.21 862.631 235.066 866.087 291 869l3.353.176 3.075.16 2.578.134c68.957 3.4 138.062 3.917 207.09 3.845q5.662-.005 11.323-.006c59.963-.023 119.838-.68 179.755-3.192q5.796-.239 11.59-.469c55.916-2.238 111.725-5.256 167.456-10.4q2.96-.27 5.92-.535c14.108-1.28 28.105-2.91 42.079-5.22 1.23-.203 2.46-.405 3.728-.612C942.46 850.558 955.754 847.203 967 839l1.941-1.36c5.141-3.952 8.098-8.943 11.059-14.64l1.04-1.824c3.974-8.266 3.24-20.58.335-29.114A96 96 0 0 0 979 787l-1.215-2.434c-6.162-11.162-15.01-20.4-24.863-28.347C951 754 951 754 951.05 751.719L952 749l1.121-3.75.644-2.072c9.353-30.294 6.094-60.692-8.39-88.803C932.169 629.705 912.858 611.23 889 597l.484-3.59c3.191-28.96.243-58.086-18.023-81.797C860.27 497.705 846.363 485.443 830 478h-2l.105-2.14c.646-24.472-5.618-49.725-21.73-68.61C794.977 395.418 778.483 384.355 762 382l.427-3.09c1.398-10.628 1.94-21.071 1.885-31.785l-.007-2.389c-.058-11.84-.544-23.179-3.305-34.736l-.668-2.924C753.225 276.378 741.572 247.22 730 218c-4.265.534-7.372 1.483-11.09 3.625l-2.855 1.629-2.992 1.746-3.097 1.78c-8.049 4.64-16.03 9.389-23.966 14.22a4459 4459 0 0 1-5.937 3.563l-2.403 1.44L676 247l-1.285-3.113C667.797 227.41 659.078 211.682 642 204c-9.14-3.404-18.18-6.193-28-6l-.773-1.703c-10.715-20.064-33.112-33.545-54.02-40.473-40.88-10.506-82.941 4.804-110.872 35.634" id="svg-layer-0" style="pointer-events: all; fill: none;"/><path fill="#00283C" d="M588 170c9.79 7.45 19.146 15.676 26 26v2l3.02-.102c16.135.412 30.906 7.584 41.98 19.102 7.911 8.417 12.804 19.34 17 30l2.36-1.386 3.316-1.946 1.796-1.055a7734 7734 0 0 1 13.833-8.101l2.005-1.173a222578461943834.47 222578461943834.47 0 0 1 14.232-8.42q2.33-1.379 4.645-2.782l2.09-1.23c.58-.348 1.16-.696 1.758-1.053 2.6-1.13 5.17-1.47 7.965-1.854 34.475 87.632 34.475 87.632 34.26 126.503-.01 2.297 0 4.593.013 6.89.009 10.33-.85 20.38-2.273 30.607l3.5.5c11.947 2.676 23.102 9.933 32.5 17.5l2.168 1.672c18.294 14.862 24.923 38.52 27.602 60.959.498 5.125.483 10.227.23 15.369.88.264 1.76.529 2.668.8 22.038 7.932 41.171 29.72 51.382 50.165 6.636 14.21 8.285 28.662 8.138 44.222l-.002 3.944c-.031 6.702-.279 13.227-1.186 19.869 1.004.594 2.008 1.189 3.043 1.8 33.12 19.94 55.535 50.23 64.977 87.755 4.777 20.551 2.228 41.815-5.13 61.37-1.274 4.4-1.274 4.4.11 7.075a88 88 0 0 0 5.438 5c11.944 10.618 24.594 24.947 25.835 41.688.42 12.59-1.972 22.392-10.273 32.285-22.24 22.543-64.08 22.335-93.437 25.027l-4.136.385c-56.108 5.213-112.31 8.13-168.606 10.38q-5.72.23-11.439.47c-59.94 2.51-119.847 3.054-179.83 3.075q-5.606.002-11.208.008c-42.032.044-84.038-.248-126.059-1.255l-2.663-.064c-74.69-1.79-149.685-4.967-224.018-12.728q-4.195-.436-8.391-.865c-78.38-8.08-78.38-8.08-93.615-24.36C41.18 823.264 38.843 812.457 40 799c3.533-17.243 15.966-30.448 29.457-40.93 2.702-2.2 5.118-4.571 7.543-7.07l-1.39-2.535c-11.691-22.178-13.947-46.978-6.782-71.164C76.838 652.207 94.982 633.325 118 621l-.437-3.312c-4.026-32.583-1.98-65.09 18.414-92.21C152.61 504.174 173.947 490.069 200 483h4l.043-2.297c1.591-38.021 12.81-74.691 40.676-101.672C259.573 365.805 276.182 357.273 295 351c.84-1.632.84-1.632 1.508-3.77l.786-2.412.831-2.63C309.579 307.884 328.827 276.928 354 251l2.234-2.312c10.488-10.106 22.402-13.089 36.551-12.922 4.94.175 9.52 1.3 14.285 2.566 4.083.93 7.761.88 11.93.668l.832-1.678c17.957-35.696 40.593-66.451 79.902-79.568C530.11 148.7 561.844 151.152 588 170m117.875 89.75-2.701 1.496c-40.515 22.865-67.104 55.69-81.299 99.754q-.755 2.31-1.512 4.617-1.476 4.508-2.938 9.02-1.427 4.387-2.904 8.758l-.709 2.098q-.96 2.833-1.925 5.663C611 394 611 394 611 396h-2l-.777-2.54c-1.33-3.764-2.983-7.282-4.785-10.835l-1.061-2.094A837 837 0 0 0 599 374l-1.108-2.125c-4.794-9.088-9.906-17.262-16.892-24.875l-1.371-1.516c-7.351-8.048-15.659-16.138-26.629-18.734-3 .25-3 .25-5.059 2.414-12.108 17.687-10.617 47.166-6.914 67.238 5.308 26.252 19.244 48.984 33.484 71.259a706 706 0 0 1 11.064 17.975 327 327 0 0 0 3.037 4.935 445 445 0 0 1 4.826 7.929l1.562 2.426c1.958 3.363 3.228 5.686 2.583 9.614-2.114 5.7-5.414 10.578-9.145 15.335l-1.6 2.082c-4.47 5.738-9.234 11.121-14.259 16.383a802 802 0 0 0-5.462 5.816 3919 3919 0 0 1-7.832 8.375l-1.728 1.843a125 125 0 0 1-3.971 3.93C552 566 552 566 551.562 568.626L552 571c3.478 2.318 6.66 2.9 10.688 3.625l2.068.406c2.077.385 4.149.697 6.244.969l2.112.29c4.071.314 5.632-.07 8.76-2.747q1.317-1.651 2.566-3.356l1.418-1.8A393 393 0 0 0 590 563c7.505-9.486 15.584-18.322 24-27l2.625-2.742c15.968-15.59 38.066-19.05 59.299-21.502 40.28-4.67 76.96-19.504 103.076-51.756 8.188-11.153 8.188-11.153 7.707-15.883L786 442q-3.592-1.224-7.187-2.437l-2.042-.698c-26.434-8.897-53.825-.113-78.771 9.135 1.453-3.049 2.8-4.922 5.313-7.187 24.116-23.634 38.464-56.977 38.98-90.672.168-32.36-10.362-59.986-22.297-89.611A110 110 0 0 1 718 255c-4.685 0-8.09 2.512-12.125 4.75m-294.17 47.784C398 324.257 398 324.257 398 334c1.563 2.938 1.563 2.938 4 5 3.196.799 5.013.563 7.883-1.074 4.478-3.205 8.294-7.001 12.137-10.926 11.322-11.434 24.484-19.314 38.98-26l3.156-1.469c6.73-2.967 13.444-4.825 20.594-6.441 3.504-1.175 5.163-2.042 7.25-5.09.035-2.582.035-2.582-1-5-26.894-20.289-61.481 3.436-79.295 24.534m-91.486 120.4c-1.982 1.845-4.015 3.582-6.094 5.316-8.449 7.414-15.663 15.909-22.312 24.938C279.53 474.856 264.553 490.505 248 503l-3.695 2.848c-10.878 8.324-22.007 16.201-33.93 22.964-9.919 5.716-15.767 13.925-19.027 24.829-.414 2.81-.29 4.674.652 7.359 4.428 3.213 9.815 2.674 15 2 5.534-1.543 10.737-3.728 16-6l2.694-1.138c16.863-7.176 32.625-15.878 47.767-26.21C276 528 276 528 279 527c-7.277 14.484-17.529 24.958-31.684 32.68-4.49 2.523-7.455 4.985-10.316 9.32-.607 3.585-.464 5.222 1.398 8.344 5.686 6.202 11.63 11.68 20.102 13.343 10.91-2.143 19.178-9.777 27.5-16.687l1.766-1.466A992 992 0 0 0 299 563l2.344-1.965c4.699-3.985 8.694-8.325 12.656-13.035l1.77-1.992 1.668-1.883 1.496-1.68C320 541 320 541 320 539l1.66-.687c3.045-1.708 5.253-3.902 7.777-6.313 4.608-4.323 9.367-8.286 14.424-12.086 3.773-2.842 7.446-5.78 11.09-8.787 25.688-21.178 56.292-36.998 87.783-47.744 6.156-2.149 11.81-4.568 15.346-10.393 2.166-4.684 3.39-9.71 4.733-14.678l.982-3.455c2.335-8.466 2.335-8.466 1.205-11.857-15.65-5.216-35.581.212-51 4l-2.43.583c-33.148 8.147-61.427 29.307-87.312 50.737L321 481l-2.258 1.867C317 484 317 484 314 484l2-1.875c2-2.125 2-2.125 2-4.125l1.774-.784c2.395-1.308 3.937-2.713 5.835-4.665l2.04-2.072 2.101-2.166c4.65-4.77 9.346-9.368 14.397-13.712 2.617-2.261 5.134-4.618 7.666-6.976 5.543-5.114 11.271-9.944 17.187-14.625l1.55-1.23c5.793-4.58 11.62-8.944 17.825-12.957 5.993-3.925 11.754-8.048 14.625-14.813.375-3.062.375-3.062 0-6-3.511-3.771-7.523-3.893-12.437-4.25-25.776.483-52.039 17.096-70.344 34.184m127.656 101.753c-3.962 5.122-7.104 10.645-10.21 16.31-3.233 5.833-3.233 5.833-6.099 6.96l-3.003.856C415.243 558.046 401.815 566.298 395 579c-.945 2.937-1.053 4.829-1 8 1.438 2.5 1.438 2.5 3 4 5.298-.562 9.257-2.395 13.938-4.75 11.597-5.612 22.814-9.575 35.722-10.598 4.92-.96 8.06-3.046 11.176-6.957l1.539-2.57 1.781-2.926a430 430 0 0 0 4.727-8.465C471.997 543.668 478.44 534.702 491 531q6.511-1.469 13.095-2.57c7.78-1.349 7.78-1.349 10.905-4.43 0-3.08-.326-5.227-2.39-7.594-8.071-6.646-18.464-9.133-28.766-8.726-15.109 1.701-26.424 10.651-35.969 22.007M732 553c-2.468 3.702-2.257 5.267-1.668 9.523 1.813 6.723 6.774 12.843 12.668 16.477 5.43 2.88 11.102 5.057 16.875 7.13 12.841 4.635 24.116 11.096 33.984 20.675 3.795 3.638 6.771 5.2 12.11 5.41C808 612 808 612 810.687 610.687c2.19-4.482.795-8.084-.687-12.687-2.965-8.112-6.202-15.537-12-22-.55-.64-1.098-1.281-1.664-1.941-12.193-13.257-31.715-22.339-49.746-23.227l-3.653-.02-3.66-.042c-3.112.218-4.747.471-7.277 2.23m-103 77c-.75 2.25-.75 2.25-1 4 3.917 1.362 7.777 2.47 11.832 3.332l3.382.723 3.598.758 3.74.798a875 875 0 0 0 18.358 3.717c12.928 2.457 24.64 5.307 36.684 10.73l2.432 1.095q2.345 1.066 4.673 2.169c5.32 2.465 10.39 4.607 16.239 2.74L731 659c.374-6.239-.458-10.198-3.375-15.687l-1.078-2.084c-7.577-14.148-19.033-29.337-34.875-34.264C666.992 601.12 645.409 611.16 629 630m-336.566-1.96c-2.278 1.835-4.56 3.625-6.934 5.335l-1.906 1.398c-6.225 2.944-13.284 3.387-20.075 3.858C232.755 640.795 207.175 656.04 187 679c-6.029 7.28-11.244 15.141-16.187 23.188l-1.173 1.89c-1.992 3.347-2.64 4.916-2.64 8.922 4.367-.554 7.704-1.621 11.613-3.625l3.244-1.629 3.456-1.746c30.3-15.012 65.185-26.888 99.332-27.238l2.422-.03C320.73 678.405 356.58 680.997 387 697v2c-7.634-.576-15.086-1.627-22.625-2.937-71.722-11.942-144.01 4.763-203.863 45.636L159 743v2l-2.125.758c-9.194 3.972-16.938 10.941-24.117 17.783-4.305 4.1-8.802 7.794-13.516 11.424-2.402 2.18-3.84 4.114-5.242 7.035.845 4.859 3.507 9.498 7 13 1.926.887 1.926.887 4 1 1.895-1.187 1.895-1.187 3.813-3l2.113-1.969a529 529 0 0 0 7.293-7.281c2.5-2.456 5.158-4.713 7.812-7 2.509-2.23 4.84-4.608 7.188-7.004 1.858-1.822 3.796-3.5 5.781-5.183 3.525-3.031 6.557-6.316 9.555-9.864C170 753 170 753 172 751c20.116-1.12 40.889 6.804 58.451 15.708C262.99 783.183 305.701 802.19 343 791l3-2c-1.46-5.833-4.57-9.853-8.125-14.562-4.044-5.482-8.029-10.962-11.625-16.75l-1.86-2.989c-1.365-2.651-2.103-4.737-2.39-7.699 1.813-2.538 2.985-2.995 6-4 8.03-.59 15.736.55 23.625 1.938 32.022 5.472 62.475 1.607 94.25-3.563l3.871-.624 3.559-.603 3.124-.525C459 739 459 739 462 737c-1.27-7.485-3.901-13.232-7.625-19.812l-1.638-2.941c-3.932-6.99-8.036-13.742-12.737-20.247l-2.102-2.96c-5.473-7.524-11.484-14.326-17.898-21.04l-2.57-2.73c-5.373-5.567-10.872-10.168-17.43-14.27l-3.285-2.066c-9.506-5.808-18.566-9.752-29.774-10.274-16.851-.932-16.851-.932-20.855-4.242-2.957-3.81-4.685-8.079-6.339-12.578-1.93-4.755-6.235-9.443-10.747-11.84-14.282-.877-26.036 7.464-36.566 16.04M485 642c-.784.76-1.567 1.519-2.375 2.3-3.184 3.307-4.503 4.943-5.25 9.575L478 657c3.542 2.362 5.236 2.253 9.438 2.375 17.548 1.128 34.478 10.673 48.022 21.577 2.593 2.016 4.344 3.021 7.626 3.47 3.093-.448 5.028-1.249 7.726-2.797 10.948-5.768 21.747-5.466 33.668-3.078 3.303.594 6.176.738 9.52.453 2-2 2-2 2.122-3.865-.638-5.948-2.327-10.443-5.247-15.635l-1.228-2.244c-3.08-5.513-6.491-10.492-10.647-15.256l-1.531-1.96C568.754 629.23 555.705 619.967 542 617c-24.17-2.34-40.379 8.58-57 25m296.484 57.012c-2.364 3.166-2.793 5.045-2.484 8.988 1.063 1.875 1.063 1.875 3 3 4.133.882 7.796.981 12 .75 23.467-.099 48.997 10.307 68.188 23.43 3.38 2.187 5.808 2.672 9.812 2.82 2.21-.992 2.21-.992 4-2-.061-13.848-4.92-28.498-14-39l-2.375-2.75c-10.535-9.03-21.381-12.694-35.234-12.523-14.08 1.135-32.706 7.104-42.907 17.285M601 746l-2.375 3.063c-7.235 8.096-15.575 10.673-26.098 11.924C551.3 763.534 538.111 773.592 523 788l-2.426 2.266c-4.69 4.493-8.24 8.252-8.886 14.984C512 808 512 808 514 810c3.918.851 7.8 1.177 11.797 1.395 25.27 1.5 49.315 5.59 73.895 11.431 12.751 3.004 26.126 6.152 39.308 5.174l3.36-.242c8.102-.797 15.744-2.41 23.577-4.633l2.617-.74c14.299-4.238 14.299-4.238 18.446-8.385l1.285-3.2c1.72-4.154 4.202-7.255 7.153-10.612l1.595-1.833c10.779-12.095 23.24-20.084 38.158-26.058C738 771 738 771 739 769c-1.313-3.45-3.15-6.677-4.875-9.937l-1.531-2.898C728.72 749 724.632 742.919 719 737c-.755-.844-1.51-1.689-2.29-2.559-11.965-12.804-27.775-21.699-45.523-22.644C642.32 711.257 619.99 724.996 601 746" id="svg-layer-1" style="pointer-events: all;"/><path fill="#F3E7CE" d="M718 255c4.445 11.676 4.445 11.676 6.584 17.338l.762 2.015 1.52 4.025q2.092 5.532 4.247 11.04c14.545 37.555 15.08 76.722-1.247 113.71-7.165 15.487-18.245 29.863-30.628 41.532C698 446 698 446 698 448l2.24-.779c26.798-9.261 56.815-18.78 84.15-5.584L787 443c-1.56 14.286-16.992 27.865-27.293 36.852-24.845 19.718-54.863 28.574-85.894 32.148-16.044 1.86-30.379 4.375-44.516 12.497-3.222 1.794-5.024 2.525-8.75 2.23L618 526c-.898-3.467-1.32-5.323.238-8.616l1.852-2.591c3.62-5.32 6.623-10.717 9.472-16.48l1.528-3.08C684.578 385.96 684.578 385.96 682 346c-2.81 4.328-4.7 8.851-6.625 13.613l-2.123 5.184-1.113 2.729c-12.576 30.78-26.525 60.8-42.264 90.099-4.007 7.49-7.693 15.127-11.309 22.811q-.924 1.966-1.855 3.927c-3.458 7.306-6.543 14.574-8.874 22.329C607 509 607 509 605 511c-2.93-.064-2.93-.064-6-1-1.728-2.135-1.728-2.135-3.121-4.977l-1.621-3.186-1.696-3.462a726 726 0 0 0-3.714-7.187l-.959-1.841c-3.107-5.896-6.676-11.44-10.389-16.972C560.59 447.029 545.433 421.32 540 391l-.402-2.242c-2.735-19.252-.468-40.906 7.402-58.758 1.473-1.898 1.473-1.898 3-3 8.805-.375 16.562 5.676 22.793 11.344C589.061 353.826 600.397 373.364 609 394v2h2l.474-1.592C622.895 356.18 633.64 321.379 662 292l1.619-1.692c4.132-4.238 8.483-7.979 13.193-11.558l2.208-1.682c7.963-5.96 16.372-11.101 24.98-16.068l1.81-1.053C714.355 255 714.355 255 718 255M332.313 614.125c5.761 5.364 11.409 13.736 13.718 21.215C348 638 348 638 350.333 638.668c3.14.431 6.255.684 9.417.894 30.037 2.833 52.07 18.84 71.078 41.766 2.507 3.142 4.858 6.386 7.172 9.672l1.196 1.667c5.646 7.921 10.576 16.21 15.304 24.708l1.566 2.773c3.052 5.598 4.858 10.561 5.934 16.852-2.815 1.877-3.902 2.334-7.078 2.838l-2.483.405-2.689.413-2.81.448q-2.96.47-5.921.928c-2.953.458-5.904.929-8.855 1.402-31.359 4.967-31.359 4.967-47.039 4.941l-2.798.002c-13.674-.206-27.64-2.204-41.034-4.927-2.634-.517-5.11-.619-7.793-.638l-2.781-.042c-2.975.252-5.082.833-7.719 2.23-1.432 4.297.064 7.118 2 11 2.466 3.95 5.156 7.722 7.875 11.5 10.41 14.62 10.41 14.62 13.125 19.5l-1 3c-32.627 11.746-72.265-3.207-101.701-16.972a495 495 0 0 1-14.736-7.34c-14.764-7.626-30.422-12.193-46.887-14.426l-2.839-.386q-2.775-.368-5.555-.699c-4.997-.642-8.867-1.563-13.282-4.177 3.944-12.058 24.817-19.85 35.574-25.39 54.562-27.228 115.925-33.986 175.5-23.287l3.656.654 3.232.596c3.055.43 5.957.503 9.038.427v-2c-25.067-11.104-52.348-18.044-79.89-18.203l-2.48-.022c-34.015-.226-34.015-.226-49.63 3.225l-2.755.586c-25.79 5.603-50.6 14.67-74.01 26.853l-2.673 1.39-2.37 1.262C171 713 171 713 167 713c.407-6.031 3.177-10.124 6.375-15.062l1.633-2.545C179.8 688.057 185.05 681.422 191 675l2.64-2.887c20.356-21.337 45.304-31.842 74.389-33.863 9.507-.772 17.438-3.1 24.284-10.062 8.875-8.252 27.77-21.908 40-14.063" id="svg-layer-2" style="pointer-events: all;"/><path fill="#D47D1A" d="M401 396c2 2 2 2 2.375 4.75-.736 6.375-4.98 10.187-9.66 14.152-4.24 3.277-8.668 6.28-13.071 9.332-6.781 4.752-13.028 9.989-19.209 15.49-1.88 1.672-3.783 3.316-5.685 4.964-4.62 4.062-9.19 8.18-13.75 12.312-.975.88-1.95 1.76-2.953 2.668-5.888 5.344-11.574 10.796-17.086 16.531C320 478 320 478 318 478l-.875 1.875C316 482 316 482 314 484c4.43-.882 7.172-3.348 10.563-6.187C344.156 461.812 364.838 446.418 388 436l3.48-1.605c18.395-7.942 39.48-12.803 59.52-12.645l3.059-.023c.485 0 .485 0 2.941.007l2.625.007c2.54.277 4.182.981 6.375 2.259q-1.028 4.18-2.082 8.355a812 812 0 0 0-1.867 7.57l-.988 3.95-.903 3.68C457.67 454.953 453.8 458.609 447 462c-3.576 1.502-7.215 2.784-10.875 4.063-25.949 9.435-51.758 21.2-73.125 38.937a2242 2242 0 0 1-3.887 3.16c-2.057 1.67-4.114 3.34-6.164 5.019a403 403 0 0 1-12.699 9.946c-5.114 3.882-9.847 8.028-14.47 12.473C322.202 539 322.202 539 320 539l-.742 1.672C312.612 552.973 300.728 562.43 290 571a2436 2436 0 0 0-3.687 3.027c-18.509 15.144-18.509 15.144-27.375 16.41-8.747-.971-14.796-6.827-20.54-13.093-1.862-3.122-2.005-4.759-1.398-8.344 3.38-5.145 7.425-7.788 12.688-10.812C262.686 550.35 272.374 540.84 279 527c-5.99 2.862-11.5 6.136-17.062 9.75-41.29 26.306-41.29 26.306-60.438 26.438l-2.844.042c-2.82-.244-4.396-.52-6.656-2.23-1.882-5.41-.092-9.906 2-15 4.015-8.009 8.285-12.642 16-17a869 869 0 0 0 8.563-5.125c.776-.47 1.552-.938 2.353-1.421 8.102-4.962 15.629-10.577 23.084-16.454l3.02-2.371c6.94-5.57 13.538-11.494 19.98-17.629l1.995-1.892c8.944-8.538 16.938-17.214 24.165-27.245 9.616-13.29 20.973-24.732 33.84-34.863l2.809-2.254C347.915 405.62 377.387 387.5 401 396M707.25 725.813c14.646 12.481 23.13 26.25 31.75 43.187-2.72 2.892-5.275 4.17-8.937 5.75-16.825 7.63-34.278 19.31-42.313 36.75-2.769 5.538-7.287 6.847-12.879 8.745l-2.308.755-2.407.792c-15.95 5.128-32.046 7.61-48.718 5.27l-2.62-.365c-8.988-1.376-17.797-3.467-26.646-5.527-21.883-5.094-43.778-9.348-66.331-9.844-10.792-.277-10.792-.277-13.841-3.326-.199-6.255.796-9.32 5-14a377 377 0 0 1 5-5l2.14-2.281c15.288-16.08 31.2-23.902 53.235-26.657 11.399-1.577 18.585-7.208 25.938-15.875 26.227-30.657 69.25-45.19 103.937-18.375M553 621l2.426 1.215C573.993 632.43 589.429 650.747 596 671c.375 3.438.375 3.438 0 6-2 2-2 2-4.937 2.25-3.191-.08-6.187-.624-9.313-1.25-10.971-2.08-22.849-1.863-32.625 4.188-3.63 2.104-4.999 2.342-9.125 1.812a78 78 0 0 1-7.187-4.875c-6.012-4.341-12.13-8.163-18.688-11.625l-2.302-1.238c-7.798-4.044-15.43-6.52-24.26-6.824-6.246-.227-6.246-.227-9.563-2.438-.757-3.028-.902-4.102 0-7 2.596-3.74 5.746-6.83 9-10l2.813-2.805C496.573 630.62 503.634 625.44 512 621l2.598-1.379C526.213 614.47 541.82 615.182 553 621" id="svg-layer-3" style="pointer-events: all;"/><path fill="#99A9AB" d="M510.75 514.875c2.718 2.239 3.206 2.975 4.25 6.5V524c-3.829 3.775-8.423 3.982-13.5 4.813-13.267 2.448-22.1 6.366-30.5 17.187-2.246 3.47-4.233 7.048-6.187 10.688-8.917 16.427-8.917 16.427-14.813 18.312-2.263.329-4.536.592-6.812.813-12.938 1.536-24.28 6.38-35.755 12.328-5.715 2.872-5.715 2.872-9.363 2.804C396 590 396 590 394 587c0-7.09 2.387-10.787 7-16l1.46-1.777c6.688-7.486 16.236-12.578 25.915-14.848 4.584-1.357 6.518-3.044 8.944-7.19.992-1.869 1.948-3.75 2.888-5.646 2.385-4.708 5.385-8.54 8.793-12.539l1.934-2.336c15.118-17.74 38.912-25.974 59.816-11.789" id="svg-layer-4" style="pointer-events: all;"/><path fill="#D47D1A" d="M700.25 610.563c13.714 9.165 25.486 24.749 30.75 40.437.4 2.888.343 5.086 0 8-6.504 2.687-10.534 1.344-17-1-4.088-1.724-8.075-3.65-12.06-5.596-11.624-5.455-24.158-7.804-36.724-10.042-3.478-.621-6.952-1.268-10.427-1.913l-2.048-.379c-5.571-1.032-11.134-2.092-16.678-3.258-.364-.07-.364-.07-2.2-.431-1.953-.424-1.953-.424-4.863-1.381l-1-3c3.93-6.34 10.319-10.919 16.25-15.25l2.371-1.812c15.484-11.418 36.39-13.914 53.629-4.375" id="svg-layer-5" style="pointer-events: all;"/><path fill="#98A8AA" d="M853.926 689.473c2.693 1.983 4.889 3.987 7.074 6.527l1.64 1.75c8.428 9.673 14.018 25.427 13.36 38.25-3.966 2.334-6.149 2.052-10.492.941-2.717-1.02-4.797-2.31-7.196-3.941-12.249-8.241-26.968-14.529-41.312-18l-3.52-.895c-7.75-1.777-14.833-2.4-22.758-1.995-4.505.17-7.11-.384-10.722-3.11-1-1-1-1-1.125-4.062.817-4.649 3.534-7.044 7.086-9.954 19.562-12.772 47.444-19.027 67.965-5.511" id="svg-layer-6" style="pointer-events: all;"/><path fill="#002335" d="m681 345 2 1c-.64 8.069-2.454 15.73-4.437 23.563l-.53 2.1C665.54 421.07 645.77 467.543 623 513c-11.656-.656-11.656-.656-15-4-.656-6.046.96-10.07 3.5-15.375l1.178-2.535A1063 1063 0 0 1 617 482l1.835-3.85c12.662-26.532 12.662-26.532 19.415-39.212l1.177-2.214 1.175-2.208c13.933-26.201 25.469-53.416 36.192-81.074 1.198-3.07 2.369-5.686 4.206-8.442" id="svg-layer-7" style="pointer-events: all;"/><path fill="#99A9AA" d="m765 555 1.928.633c9.568 3.23 17.368 7.751 25.072 14.367l2.46 2.016c8.637 7.722 16.016 21.373 17.54 32.984-.254 2.645-.254 2.645-1 5-3.66 2.44-5.259 2.436-9.496 1.852-4.089-1.39-6.593-4.266-9.64-7.239-10.124-9.239-22.155-15.179-34.923-19.834-10.977-4.018-18.512-7.632-24.941-17.779-1.75-3.869-2.546-6.726-2-11 8.216-10.133 24.466-4.479 35-1" id="svg-layer-8" style="pointer-events: all;"/><path fill="#9AAAAB" d="M489.813 282.25 492 284c-.334 2.475-.625 4.45-2.047 6.535-2.962 2.221-6.35 2.752-9.89 3.59-20.575 5.326-38.69 15.254-54.063 29.875a471 471 0 0 1-4.125 3.625 862 862 0 0 0-6.078 5.328l-2.172 1.922-1.96 1.742c-2.29 1.902-3.547 2.368-6.54 2.758C402 339 402 339 399.563 336.938c-2.088-3.926-1.72-5.671-.563-9.938 2.57-6.968 7.227-12.414 12-18l2.168-2.543c18.195-20.771 49.018-42.365 76.645-24.207" id="svg-layer-9" style="pointer-events: all;"/><path fill="#95A6A8" d="m607 506 1.113 1.89c2.484 2.778 4.467 3.084 8.074 3.86l3.293.734L622 513l-2 3.125c-1.973 3.41-2.388 5.895-2 9.875l5 1a781 781 0 0 1-8.016 7.945c-6.004 5.886-11.639 11.838-16.87 18.438-2.832 3.507-5.867 6.804-8.927 10.113-2.934 3.359-5.47 6.979-7.972 10.668-2.71 2.246-4.594 2.272-8.05 2.075-3.529-.39-6.994-.93-10.477-1.614l-2.127-.383c-3.425-.653-5.622-1.283-8.561-3.242-.566-2.23-.566-2.23 0-5 1.772-2.369 3.893-4.31 6.063-6.312q1.805-1.73 3.605-3.465l1.755-1.68c2.469-2.416 4.691-5.015 6.915-7.654 1.58-1.795 3.226-3.446 4.947-5.104 3.768-3.746 7.058-7.75 10.278-11.972l1.707-2.23c4.403-5.877 7.868-11.8 10.73-18.583l7 1z" id="svg-layer-10" style="pointer-events: all;"/><path fill="#97A8AA" d="m160 742 .184 1.89c.816 2.11.816 2.11 3.101 3.157l2.778.703 2.785.734L171 749c0 3 0 3-1.285 4.543l-1.778 1.644a98 98 0 0 0-7.375 7.813c-2.956 3.433-6.143 6.359-9.593 9.285-1.914 1.667-3.694 3.403-5.469 5.215-3.032 3.087-6.23 5.913-9.516 8.727-2.6 2.323-4.978 4.83-7.343 7.39-1.894 1.597-3.188 2.108-5.641 2.383-3.941-2.924-7.029-7.52-9-12 1.445-10.353 20.837-23.349 28.938-29.562C155.562 745 155.562 745 159 745z" id="svg-layer-11" style="pointer-events: all;"/></svg>