<svg xmlns="http://www.w3.org/2000/svg" width="1024" height="1024"><path fill="none" d="M0 0h1024v1024H0zm587.475 133.275c-18.923 22.13-27.841 50.1-26.35 79.1 1.116 12.55 4.96 23.552 10.191 34.871 5.262 11.548 6.387 20.542 2.087 32.898-4.73 12.5-12.131 23.445-20.403 33.856q-1.297 1.678-2.59 3.36c-5.193 6.724-10.578 13.248-16.14 19.67A287 287 0 0 0 526 347c-3.71 4.698-7.599 9.226-11.508 13.758A479 479 0 0 0 505.5 371.5c-3.432 4.228-6.946 8.375-10.5 12.5a680 680 0 0 0-12.723 15.223c-3.021 3.685-6.107 7.313-9.194 10.944a619 619 0 0 0-8.52 10.27c-3.474 4.27-7.031 8.458-10.625 12.625-3.386 3.926-6.724 7.87-9.938 11.938-3.71 4.698-7.599 9.226-11.508 13.758A479 479 0 0 0 423.5 469.5c-3.934 4.847-7.986 9.583-12.06 14.31a467 467 0 0 0-8.877 10.627c-4.143 5.105-8.444 10.06-12.764 15.014-3.922 4.509-7.73 9.096-11.49 13.74-2.722 3.312-5.51 6.562-8.309 9.809-3.555 4.125-7.068 8.272-10.5 12.5-4.874 5.999-9.911 11.851-14.956 17.706-2.005 2.33-4.002 4.665-6 7a2553 2553 0 0 1-15.673 18.162 479 479 0 0 0-8.148 9.585l-1.61 1.932a323 323 0 0 0-2.98 3.636c-3.604 4.314-7.042 7.04-12.695 7.842l-2.438-.05-2.437-.012c-3.048-.358-5.658-1.316-8.563-2.301-3.205-.665-6.416-1.247-9.639-1.814-4.35-.78-8.58-1.761-12.861-2.874-25.427-5.51-52.086.623-73.765 14.527-22.538 15.08-39.122 37.31-44.735 64.161-4.18 23.433-.787 49.342 12.805 69.238 14.986 20.939 37.556 38.325 63.539 42.793 7.434 1.191 14.897 1.65 22.406 2.094l4.172.262q5.038.315 10.078.613l-.063 1.734c-.953 30.21 7.383 55.406 27.66 78.184 17.119 17.874 40.026 29.452 65.032 30.285 27.11.432 51.113-7.99 71.371-26.203l2.328-2.043c19.202-17.893 28.687-44.999 29.77-70.783.417-27.824-10.753-50.715-24.856-73.994-2.942-5.163-2.996-10.398-2.242-16.18 4.488-12.31 14.915-22.844 23.393-32.626 8.345-9.65 16.161-19.732 23.912-29.862 3.81-4.975 7.669-9.912 11.52-14.855q5.151-6.615 10.238-13.282c4.248-5.537 8.63-10.957 13.048-16.36a690 690 0 0 0 10.452-13.14c5.582-7.16 11.478-14.027 17.437-20.875l8.206-9.456c7.556-8.716 14.998-17.52 22.282-26.466 3.768-4.617 7.562-9.212 11.352-13.81q4.942-5.995 9.847-12.018a589 589 0 0 1 8.29-9.925c4.27-5.003 8.428-10.066 12.46-15.262 4.256-5.481 8.684-10.78 13.225-16.026a414 414 0 0 0 8.775-10.474c4.103-5.052 8.35-9.966 12.623-14.873 3.987-4.581 7.928-9.197 11.841-13.841 3.891-4.615 7.826-9.19 11.766-13.764 2.95-3.436 5.82-6.92 8.645-10.46 23.689-29.105 23.689-29.105 33.227-32.54 3.115-.108 4.224.64 6.711 2.478l2.379 1.69L719 385c19.558 14.294 42.913 18.542 66.616 15.224C804.18 397.187 820.82 388.158 835 376l1.852-1.45c5.566-4.435 9.818-9.938 14.148-15.55l1.848-2.371c15.64-21.126 21.79-46.686 17.945-72.617-4.748-25.693-16.876-50.877-38.758-66.07C810.145 203.904 784.813 197.836 759 201l1-2c2.548-21.134-6.268-43.693-18.867-60.34A182 182 0 0 0 730 126l-1.937-2.016c-17.139-16.468-42.167-26.492-65.984-26.095-29.05 1.555-55.064 13.781-74.604 35.386" id="svg-layer-0" style="pointer-events: all; fill: none;"/><path fill="#F5E5C6" d="M692.344 144.418c1.964 1.453 3.813 2.979 5.656 4.582l2.016 1.621c12.389 10.238 20.107 24.94 21.824 41.016.65 9.602.206 18.226-2.84 27.363-.698 7.182-.395 12.18 4 18 4.385 4.27 8.556 5.831 14.625 6.25 4.356-.323 6.323-1.198 9.375-4.25 15.78-5.271 40.073-3.552 54.957 3.848 10.108 5.7 17.626 12.209 23.48 22.277l1.038 1.775c4.038 7.297 3.638 12.43 1.525 20.163l-.688 2.542C823.949 301.362 818.01 310.796 810 320l-2.191 2.629C798.575 333.404 787.846 338.97 774 342c-13.876.585-27.177-.553-40.828-3.059l-3.09-.561q-3.012-.554-6.015-1.147c-15.247-2.848-27.51 3.56-40.067 11.767-6.752 4.935-12.892 10.608-18.942 16.37-2.008 1.889-3.783 3.498-6.28 4.696-2.347 1.233-2.659 2.566-3.778 4.934a96 96 0 0 1-4.187 4.25c-4.171 4.085-8.029 8.31-11.813 12.75l-2.785 3.227A922 922 0 0 0 618 417l-3.059 3.746c-5.25 6.434-10.463 12.89-15.566 19.442-4.054 5.203-8.252 10.261-12.536 15.276-3.06 3.59-5.989 7.25-8.859 10.993-2.635 3.385-5.336 6.714-8.043 10.043l-1.684 2.073q-4.364 5.362-8.784 10.677c-5.687 6.84-11.258 13.71-16.532 20.875-4.451 6.045-9.182 11.743-14.15 17.37a255 255 0 0 0-10.35 12.567c-4.228 5.47-8.64 10.742-13.166 15.967-3.513 4.064-6.895 8.211-10.224 12.428-2.398 2.979-4.876 5.886-7.36 8.793-5.28 6.195-10.318 12.558-15.312 18.984-2.281 2.93-4.579 5.847-6.875 8.766q-4.111 5.229-8.215 10.465a2242 2242 0 0 1-15.806 19.931 1321 1321 0 0 0-9.916 12.542 739 739 0 0 1-10.3 12.873c-20.633 25.22-20.633 25.22-27.58 38.138C392 702 392 702 389.864 705.18 384.94 712.635 384.9 722.358 386 731c.741 2.592 1.511 4.973 2.492 7.465l.798 2.075c3.46 8.713 7.986 16.893 12.475 25.108C408.224 777.522 413.088 789.321 414 803l.227 2.57c.591 11.184-4.962 19.335-12.227 27.43-13.578 14.232-31.347 23.714-51.086 25.238-12.633.285-23.832-2.977-35.601-7.176l-1.998-.691C305.014 847.249 300.747 840.68 297 833c-5.59-14.327-7.592-32.422-1.5-46.937L297 783c2.437-5.001 3.009-9.842 1.313-15.152-2.142-4.791-4.472-7.52-9.313-9.848-4.766-1.13-8.206-1.064-12.977-.082-24.67 4.678-50.331 5.707-72.308-7.98-11.086-7.912-18.503-19.07-22.715-31.938l-.684-2.062c-4.156-15.135-.91-31.14 5.871-44.938 3.382-5.898 7.202-9.303 12.813-13a281 281 0 0 0 4.938-3.625l2.214-1.602C208 651 208 651 208.938 648.457c1.418-3.28 2.877-3.77 6.125-5.144l2.722-1.2c19.727-6.831 40.164-2.532 59.664 2.959 15.263 4.267 26.946 4.038 41.176-3.385 12.03-7.072 20.652-17.096 29.191-27.972 2.592-3.222 5.288-6.341 7.997-9.465a341 341 0 0 0 11.875-14.5c3.851-4.973 7.875-9.696 12.136-14.328 2.295-2.555 4.458-5.187 6.613-7.86A228 228 0 0 1 396 556.5c4.895-5.326 9.467-10.866 14-16.5a830 830 0 0 1 16.551-19.8 473 473 0 0 0 9.137-10.95c3.554-4.38 7.277-8.564 11.074-12.734 3.043-3.42 5.909-6.973 8.789-10.532 2.767-3.372 5.6-6.68 8.449-9.984a679 679 0 0 0 12.723-15.223c3.021-3.685 6.107-7.313 9.194-10.944a619 619 0 0 0 8.52-10.27c3.408-4.191 6.904-8.292 10.438-12.375a336 336 0 0 0 11.75-14.375c4.093-5.291 8.423-10.26 12.973-15.168 3.99-4.393 7.683-9.022 11.402-13.645a791 791 0 0 1 14.875-17.875l1.54-1.792 3.08-3.582c7.614-8.856 15.032-17.818 22.182-27.054a440 440 0 0 1 3.815-4.802C596.54 316.23 606.43 302.992 610 287q.547-1.99 1.11-3.977c4.905-17.948 3.835-32.692-4.61-49.336-7.813-16.106-10.505-33.888-5.652-51.44 6.606-18.61 17.804-30.597 35.707-39.52 2.456-1.044 4.903-1.917 7.445-2.727l2.727-.902c15.248-4.46 31.892-2.984 45.617 5.32" id="svg-layer-1" style="pointer-events: all;"/><path fill="#002641" d="M662.414 97.777c26.026-1.155 50.113 12.38 68.758 29.18 5.389 5.128 9.653 10.907 13.828 17.043l1.59 2.188c5.788 8.597 8.482 18.961 11.41 28.812l.64 2.134c1.34 4.837 1.636 9.273 1.548 14.241l-.002 2.152c-.045 5.19-.045 5.19-1.186 7.473l3.2-.324c26.716-2.321 54.775 4.222 75.675 21.637 19.846 17.308 31.762 43.657 33.854 69.811 1.657 27.636-7.37 50.88-24.729 71.876l-1.805 2.27C840.478 371.992 834.86 376.49 829 381l-2.332 1.844c-19.469 14.593-45.257 21.09-69.34 17.79-15.75-2.765-29.904-8.428-42.328-18.634-4.187-3.019-4.187-3.019-7.21-2.95-4.123 1.404-6.64 4.076-9.727 7.075l-1.978 1.886c-9.533 9.19-18.546 18.846-26.82 29.188-2.652 3.28-5.387 6.48-8.14 9.676A1828 1828 0 0 0 649.5 440.5q-5.012 5.94-10.082 11.832a767 767 0 0 0-14.137 16.887c-2.58 3.145-5.207 6.246-7.843 9.344a521 521 0 0 0-11.157 13.59c-7.682 9.59-15.554 19.028-23.519 28.385-3.309 3.899-6.506 7.875-9.68 11.884-2.867 3.55-5.84 7.009-8.805 10.478-3.372 3.971-6.593 8.04-9.777 12.163-3.949 5.101-8.11 9.901-12.516 14.611-3.75 4.022-7.232 8.21-10.68 12.49-2.512 3.092-5.09 6.12-7.679 9.149-4.249 4.988-8.34 10.08-12.363 15.251-3.483 4.47-7.047 8.866-10.637 13.249-5.09 6.226-10.02 12.559-14.884 18.963a1025 1025 0 0 1-11.784 15.19 973 973 0 0 0-9.082 11.721c-5.376 7.013-10.869 13.923-16.719 20.547-5.447 6.19-10.544 12.466-15.219 19.266l-1.372 1.995c-5.01 7.436-8.141 13.359-6.565 22.505 1.892 4.92 4.382 9.44 7 14l3.408 5.971c15.799 27.754 20.359 55.928 12.104 86.97-7.455 25.99-24.926 46.977-48.512 60.059-22.162 11.408-47.968 15.095-72.037 7.637L325 904l-1.955-.633c-25.293-8.518-45.287-27.737-57.514-51.183-3.26-6.829-5.568-13.885-7.531-21.184l-.691-2.496c-2.269-9.915-1.483-20.397-1.309-30.504l-2.5-.136c-35.686-1.999-64.649-8.316-89.973-35.52-14.716-17.165-21.968-37.494-21.84-60.094l.018-3.181c.396-25.506 11.39-48.402 28.889-66.796 22.559-21.43 49.987-30.177 80.584-29.414 5.82.29 11.197 1.657 16.822 3.141 3.39.74 6.788 1.431 10.188 2.125q2.428.501 4.855 1.008l2.094.434C287 610 287 610 290 611c1.6.143 3.206.22 4.813.25l2.519.078c6.006-.739 9.609-3.91 13.48-8.328l2.61-2.965c3.177-3.74 6.281-7.533 9.363-11.351 2.88-3.49 5.922-6.814 8.969-10.157 2.308-2.597 4.502-5.261 6.683-7.965A228 228 0 0 1 348 559.5c4.057-4.413 7.887-8.955 11.652-13.617 2.576-3.163 5.205-6.276 7.848-9.383a690 690 0 0 0 9.938-11.937c3.958-4.865 8.028-9.624 12.123-14.374a467 467 0 0 0 8.877-10.627c4.142-5.104 8.443-10.058 12.763-15.013 3.922-4.509 7.73-9.096 11.49-13.74 2.722-3.312 5.51-6.562 8.309-9.809a680 680 0 0 0 12.723-15.223 685 685 0 0 1 7.777-9.277 737 737 0 0 0 10-12c5.542-6.804 11.233-13.48 16.916-20.166 4.72-5.555 9.425-11.115 14.022-16.772 3.956-4.862 8.026-9.619 12.118-14.368 3.799-4.418 7.503-8.904 11.174-13.428 2.511-3.06 5.075-6.07 7.645-9.079 4.385-5.14 8.577-10.41 12.717-15.748 2.465-3.16 4.987-6.19 7.72-9.127 14.8-16.383 33.8-40.482 32.672-63.925-.9-5.364-3.148-10.013-5.484-14.887-11.61-25.339-13.188-52.484-3.785-78.903 10.129-27.07 29.212-48.512 55.347-60.972 12.949-5.865 25.86-8.057 39.852-9.348m-50.496 62.657c-11.637 15.44-15.015 33.877-12.646 52.734 1.607 9.572 5.434 17.694 9.888 26.234 9.113 17.593 4.54 36.285-.994 54.315-2.315 6.916-5.59 12.616-9.729 18.596l-1.876 2.757c-7.672 11.169-16.154 21.56-24.948 31.852a453 453 0 0 0-7.05 8.515c-3.372 4.144-6.822 8.208-10.313 12.25a581 581 0 0 0-12.687 15.25c-4.864 6.036-9.864 11.93-14.965 17.765-3.881 4.448-7.646 8.977-11.364 13.564-4.797 5.871-9.74 11.623-14.65 17.4-5.487 6.458-10.922 12.949-16.272 19.522-3.036 3.693-6.132 7.335-9.228 10.978a618 618 0 0 0-8.522 10.272c-3.955 4.86-8.022 9.616-12.114 14.362a474 474 0 0 0-9.135 10.95A237 237 0 0 1 436.5 508c-3.862 4.243-7.508 8.623-11.117 13.082a614 614 0 0 1-7.883 9.418 691 691 0 0 0-9.937 11.938c-4.897 6.012-9.95 11.885-15.01 17.76-10.54 12.235-21.062 24.483-31.256 37.009-2.934 3.567-5.926 7.083-8.925 10.595a358 358 0 0 0-7.645 9.3C333.847 630.8 321.033 644.446 303 648c-10.065.988-18.425-.926-28.012-3.621-17.642-4.951-38.334-9.584-55.988-2.379l-2.809 1.137c-6.899 3.102-6.899 3.102-8.105 6.242-1.5 3.62-3.727 4.935-6.899 7.183L195 661l-2.629 1.809c-3.102 2.866-4.686 5.914-6.496 9.691l-1.047 2.164C177.194 690.923 176.955 707.21 183 724c5.875 14.32 17.35 25.37 31.441 31.496 14.455 5.701 28.079 5.92 43.434 4.692l3.13-.25a156 156 0 0 0 17.594-2.554c5.06-.809 8.995-.06 13.651 2.178 3.966 3.516 6.139 7.22 7.133 12.454.273 4.633-.974 7.874-3.313 11.832-6.308 12.685-4.941 30.41-1.066 43.558C297.55 834.6 300.87 841.277 306 847h2l.238 1.734c2.733 8.13 13.839 13.695 21.106 17.536 15.43 7.62 29.296 6.592 45.453 1.921 13.499-4.836 24.718-15.375 31.598-27.765 8.887-18.964 9.69-38.665 2.992-58.469-3.038-8.106-7.306-15.649-11.394-23.26-8.224-15.366-15.295-29.895-11.055-47.76 2.212-6.312 6.21-11.766 9.944-17.26 1.577-2.365 3.024-4.806 4.493-7.24 3.446-5.43 7.542-10.21 11.738-15.058 2.88-3.339 5.616-6.776 8.325-10.254 3.82-4.903 7.671-9.778 11.562-14.625a2212 2212 0 0 0 15.641-19.766q4.114-5.248 8.239-10.489 3.406-4.332 6.8-8.675c6.995-8.948 14.134-17.775 21.32-26.57.77-.944 1.54-1.887 2.332-2.86 5.64-6.905 11.31-13.784 16.98-20.663q3.66-4.442 7.313-8.891c5.31-6.464 10.632-12.911 16.063-19.274 5.636-6.616 10.981-13.448 16.312-20.312 5.914-7.615 11.898-15.132 18.16-22.464a271 271 0 0 0 8.856-10.99c2.655-3.408 5.38-6.758 8.109-10.108l1.69-2.077q3.432-4.214 6.869-8.424 2.472-3.03 4.941-6.062l1.635-2.007a823 823 0 0 0 10.365-13.055c4.447-5.703 9.066-11.236 13.762-16.735a453 453 0 0 0 7.05-8.515c19.834-24.316 19.834-24.316 30.403-34.301C657 373 657 373 657 371c.59-.26 1.18-.518 1.79-.785 2.377-1.307 3.754-2.66 5.585-4.652C676.431 353.238 693.872 339.426 711 336c6.536 0 10.351 2.736 15 7a119 119 0 0 1 5.262 6.07c9.796 10.875 24.38 14.737 38.379 16.207 15.202.63 30.263-4.694 41.734-14.59 14.059-13.69 22.264-29.834 22.975-49.65.208-16.856-4.72-32.837-15.85-45.662-11.653-11.912-25.489-17.911-42.227-18.508-22.861.046-22.861.046-32.156 3.485-5.121 1.568-10.078 1.5-14.867-.977-4.74-3.152-7.738-6.488-9.25-12.062-.256-3.431.437-6.082 1.473-9.344 1.692-5.994 2.027-11.577 1.965-17.781l-.021-3.179c-.333-16.158-5.862-29.79-16.417-42.009l-1.734-2.059c-9.605-10.528-23.454-16.677-37.473-18.316-21.816-.86-41.951 9.534-55.875 25.809" id="svg-layer-2" style="pointer-events: all;"/><path fill="#C77834" d="M830 277c6.068 9.102 5.194 23.524 3.383 34.02-3.77 18.335-13.284 34.482-28.946 45.043-15.188 8.803-31.41 10.786-48.421 7.101C744.36 360.053 734.86 354.117 727 345l-2.812-2.812L718 336c15.657 1.806 15.657 1.806 20.75 3.063 5.382 1.28 10.733 1.67 16.25 1.937l2.136.12c15.414.773 30.32-1.23 42.864-11.12 14.685-13.49 23.904-29.47 28.238-48.86C829 278 829 278 830 277M412 817c2.455 6.069-1.663 14.25-4 20-6.87 14.585-18.44 25.443-33.437 31.313-15.467 5.133-29.557 4.991-44.551-1.633-8.167-4.228-15.805-9.865-22.012-16.68v-2c4.685 1.385 9.362 2.79 14.016 4.277l2.117.673q2.08.663 4.156 1.336c16.313 5.184 33.709 3.254 49.086-4.036 5.936-3.235 11.341-7.045 16.625-11.25l2.629-2.055c6.914-5.763 11.054-12.143 15.371-19.945" id="svg-layer-3" style="pointer-events: all;"/><path fill="#F5EEDE" d="m695 145-3 1a91 91 0 0 1-4-3c-2.621-1.168-2.621-1.168-5.437-2.187l-2.81-1.043c-2.73-.764-4.935-.918-7.753-.77v-2q-3.908.21-7.812.438l-2.237.119c-3.182.187-5.913.43-8.951 1.443l-2-1-1 2c-1.793.352-1.793.352-4.187.625C633.437 142.923 623.662 151.373 615 160c0-3.494.341-3.796 2.688-6.187C638.305 134.19 671.184 127.633 695 145M721 188h2c.088 3.77.14 7.541.188 11.313l.076 3.189c.06 6.46-.625 11.963-2.608 18.123-1.1 3.986-.791 6.368.344 10.375 2.955 4.768 6.588 8.327 12 10 4.346.228 8.653.174 13 0-2.673 2.673-4.513 2.963-8.25 3.25-6.444-.43-11.726-3.278-16.75-7.25-1.312-2.625-1.312-2.625-2-5l-1-2a85 85 0 0 1-.187-5.312l-.043-2.864c.245-3.008 1.098-5.043 2.23-7.824 1.102-5.663 1.12-11.196 1.063-16.937l-.014-2.65q-.02-3.207-.049-6.413" id="svg-layer-4" style="pointer-events: all;"/><path fill="#F5EEDE" d="M695 145c14.21 8.38 22.798 22.316 27 38 .129 2.914.129 2.914 0 5-2.689-2.689-3.097-5.235-4.187-8.875-3.468-10.882-8.633-20.95-17.813-28.125h-2c-3-3.462-3-3.462-3-6" id="svg-layer-5" style="pointer-events: all;"/></svg>