<svg xmlns="http://www.w3.org/2000/svg" width="1024" height="1024"><path fill="none" d="M0 0h1024v1024H0zm221 147-1.82 1.418c-19.24 15.4-28.905 41.957-31.72 65.757-.512 4.781-.603 9.509-.596 14.314l-.008 2.777q-.009 4.596-.007 9.191l-.013 6.666q-.016 9.15-.022 18.3-.009 8.858-.025 17.714-.03 18.12-.05 36.238-.028 24.752-.069 49.503l-.036 23.075-.004 2.334q-.041 27.48-.078 54.963l-.003 2.43-.101 75.548-.004 2.426q-.036 27.423-.078 54.845l-.004 2.33-.036 23.03q-.04 24.72-.068 49.44-.02 18.023-.05 36.047-.016 9.76-.025 19.52-.006 8.94-.026 17.88a3972 3972 0 0 0-.006 6.458c-.003 19.488-.003 19.488-.914 29.178-2.732 30.213 4.403 56.37 23.076 80.368 12.476 14.723 29.78 24.416 48.062 30l1.922.602c12.177 3.511 24.889 3.958 37.473 4.055l4.575.057q6.204.074 12.41.125 3.975.036 7.95.079c43.611.463 87.224.514 130.838.532l19.992.012a119732 119732 0 0 0 59.31.026h3.55l10.683.003c19.256.004 38.511.022 57.767.045q29.914.035 59.829.037 16.695-.001 33.391.025 14.128.023 28.256.012 7.188-.008 14.376.011 6.586.019 13.173 0 2.37-.004 4.74.01c25.728.133 25.728.133 34.773-7.631 5.197-5.624 7.718-11.035 7.806-18.696l.051-3.764.041-4.137.055-4.351q.06-4.687.11-9.375.082-7.413.177-14.825.195-15.738.377-31.477.196-16.98.409-33.96.091-7.367.172-14.735.052-4.586.111-9.172.026-2.126.048-4.25.03-2.905.07-5.808l.039-3.282c.142-2.748.6-5.23 1.151-7.918q.125-2.444.12-4.891l.004-2.902-.01-3.148v-3.342c0-3.641-.009-7.283-.016-10.924l-.005-7.58q-.005-8.95-.021-17.901-.016-10.194-.022-20.387-.016-20.963-.05-41.925l1.868-.598 2.454-.799 2.43-.786c4.654-1.692 8.353-4.836 12.248-7.817l3.188-2.312c8.46-8.086 14.432-18.994 14.949-30.82l.017-3.59.013-2.009q.018-3.32.026-6.64l.025-4.772c.026-5.217.041-10.433.055-15.65l.017-5.398q.033-11.23.051-22.46.023-16.067.107-32.134.056-11.312.063-22.625c.004-4.5.016-8.999.048-13.499q.044-6.354.025-12.708 0-2.323.025-4.646c.122-11.3-1.548-19.232-9.047-27.925-6.377-5.954-14.789-10.092-23.29-11.902l-2.432-.523L803 368l-.007-3.262q-.089-39.324-.229-78.65-.07-19.016-.11-38.034a16059 16059 0 0 0-.103-33.159q-.037-8.775-.049-17.55-.01-8.269-.056-16.537a1159 1159 0 0 1-.011-6.051c.01-15.418-.436-29.674-11.251-41.792-10.591-10.077-22.485-9.538-36.216-9.466q-3.083-.006-6.164-.017c-5.635-.015-11.268-.005-16.902.01-6.082.01-12.163-.001-18.244-.01a13811 13811 0 0 0-33.667.006 20653 20653 0 0 1-33.203.015l-8.387-.002c-26.221-.007-52.442.009-78.662.035a48726 48726 0 0 1-69.81.018l-17.866-.008h-2.222a61733 61733 0 0 0-68.862.015q-15.537.007-31.074 0-17.685-.01-35.37.02-9.016.017-18.033.008-8.267-.01-16.535.017-2.978.006-5.955-.003c-27.287-.083-51.71 5.474-73.012 23.397" id="svg-layer-0" style="pointer-events: all; fill: none;"/><path fill="#F8ECD0" d="m301 156 2.414.214c10.028.811 19.979.928 30.034.917l5.5.007q5.946.006 11.89.005 9.675-.002 19.351.01 14.045.01 28.088.016c14.798.005 29.596.022 44.394.041l15.202.019 3.837.005q21.588.027 43.177.049l3.984.004q32.005.031 64.01.04 32.877.013 65.754.068 20.273.034 40.544.026 13.88-.004 27.76.03c5.34.013 10.679.02 16.018.008q7.332-.014 14.663.021 2.652.007 5.304-.006c16.805-.08 16.805-.08 23.076 4.526 2.363 3.862 2.275 7.47 2.24 11.884l.006 2.423c.003 2.683-.008 5.365-.019 8.047v5.766c.002 5.22-.01 10.441-.024 15.662-.013 5.454-.014 10.909-.016 16.364q-.011 15.495-.043 30.992c-.022 11.76-.033 23.52-.043 35.281q-.033 36.29-.101 72.581l-2.24.004q-27.005.056-54.01.18c-8.707.04-17.414.072-26.12.087q-11.387.019-22.773.084c-4.018.022-8.035.038-12.052.037q-5.68 0-11.359.05-2.077.012-4.154.004c-9.283-.033-16.796.586-23.952 6.902L609 371a338 338 0 0 1-3.059 3.059l-1.648 1.648-20.234 20.234-1.566 1.568a1837 1837 0 0 1-4.287 4.264 59.5 59.5 0 0 0-5.394 6.227l-1.48 1.938c-3.104 4.805-3.648 9.19-3.714 14.815l-.05 2.318c-.051 2.522-.088 5.044-.123 7.566l-.087 5.287q-.088 5.542-.156 11.084c-.06 4.713-.148 9.425-.243 14.138-.069 3.641-.12 7.283-.164 10.925a661 661 0 0 1-.094 5.209c-.217 10.27-.392 19.665 6.194 28.165.632.555 1.265 1.109 1.918 1.68 2.717 2.501 5.235 4.995 7.625 7.813 3.272 3.809 6.793 7.31 10.367 10.835 2.633 2.67 5.068 5.475 7.508 8.32 2.244 2.536 4.647 4.884 7.07 7.247 1.506 1.546 2.805 3.137 4.117 4.847 3.698 4.161 7.958 6.774 13.5 7.813 1.98.1 3.965.146 5.948.158l3.688.03 4.037.017 4.258.03q5.775.04 11.552.068 6.038.035 12.076.076 11.432.074 22.864.138 13.015.076 26.031.16 26.773.17 53.546.323.035 25.986.052 51.971.007 12.066.023 24.13.015 10.512.02 21.024 0 5.568.01 11.138c.009 4.138.009 8.276.009 12.414l.01 3.758-.004 3.396.003 2.969C769 692 769 692 768 693a170 170 0 0 1-7.4.123l-2.388.004q-4.013.002-8.023-.007l-5.77.003q-7.965.002-15.932-.007-8.575-.005-17.152-.002-14.871 0-29.742-.008-21.501-.011-43.003-.012-34.881-.004-69.762-.019-33.892-.014-67.786-.02h-2.11l-20.97-.004Q389.98 693.035 302 693c-.811-63.766-1.144-127.521-1.104-191.292q.011-18.044.01-36.086.004-32.14.019-64.28a254476 254476 0 0 0 .025-85.573q.015-79.884.05-159.769" id="svg-layer-1" style="pointer-events: all;"/><path fill="#05253A" d="m284.75 123.866 2.571-.007q4.26-.009 8.518-.006l6.174-.011q8.478-.014 16.956-.017 9.146-.007 18.29-.022 21.036-.027 42.07-.037l20.794-.015a161784 161784 0 0 1 75.667-.042h2.238l11.222-.004h2.25q36.119-.014 72.237-.065a62749 62749 0 0 1 86.873-.059c11.074-.002 22.147-.018 33.221-.038q16.695-.03 33.389-.017c6.028.005 12.057.003 18.085-.016q8.28-.026 16.558-.001 2.994.004 5.988-.014c13.384-.075 23.917.419 34.106 10.103 7.924 9.318 10.35 20.59 10.321 32.495l.018 2.634c.017 2.888.02 5.776.023 8.664l.03 6.24c.028 5.63.043 11.26.056 16.889.015 5.89.042 11.779.068 17.669q.068 16.718.116 33.435c.039 12.692.088 25.383.138 38.075q.154 39.15.273 78.301l2.287.61 3.002.81 2.974.798c10.053 2.873 19.161 8.47 24.783 17.454 3.848 7.406 3.518 14.98 3.472 23.106q.008 2.38.02 4.759c.019 4.287.012 8.574 0 12.862-.01 4.503-.001 9.007.005 13.51q.01 11.348-.022 22.697c-.021 8.719-.014 17.437.008 26.156q.026 11.264.01 22.529c-.006 4.474-.007 8.948.006 13.423q.017 6.318-.02 12.637-.007 2.304.006 4.608C839.6 557.47 837.549 569.2 829 580l-2.3 2.96c-2.63 3.126-5.586 5.4-8.95 7.727l-3.203 2.262c-2.66 1.688-5.271 2.718-8.269 3.68l-2.434.787L802 598l.003 1.75q.033 21.096.049 42.191.007 10.202.023 20.403.016 9.843.02 19.685.003 3.757.01 7.515.01 5.257.009 10.515l.01 3.148-.004 2.902.003 2.511c-.123 2.38-.123 2.38-.62 4.801-.577 2.959-.645 5.717-.666 8.732l-.033 3.75-.022 4.092-.035 4.328q-.039 4.654-.07 9.309a5148 5148 0 0 1-.13 14.741l-.026 2.516-.05 5.094c-.113 11.435-.218 22.87-.294 34.305q-.077 11.579-.21 23.158c-.045 4.08-.083 8.16-.099 12.24q-.024 5.764-.108 11.527a338 338 0 0 0-.023 4.21c.003 9.426-.991 17.203-7.416 24.478-7.513 7.347-18.339 8.223-28.36 8.225l-2.048.004c-2.258.004-4.517 0-6.775-.003l-4.918.005q-6.754.005-13.508-.001-7.292-.003-14.585.004-14.316.005-28.632 0-11.7-.003-23.4-.001h-3.374l-6.791.001q-31.91.004-63.819-.006-27.107-.005-54.214.001a157839 157839 0 0 1-70.09.004h-3.393q-11.567-.001-23.133.002c-42.428.012-84.853-.038-127.278-.492q-3.918-.04-7.835-.073a2878 2878 0 0 1-12.16-.134q-2.19-.027-4.383-.044c-27.529-.227-53.11-6.637-74.625-24.393l-3.187-2.375c-17.93-16.734-29.525-41.079-30.988-65.55-.28-8.547-.12-17.042.681-25.557.761-9.791.638-19.594.632-29.41l.009-6.66q.01-9.116.01-18.232.003-8.834.014-17.667.017-16.96.027-33.92c.01-17.957.03-35.914.052-53.87l.025-20.757.002-2.33q.033-27.42.06-54.84a154232.328 154232.328 0 0 0 .05-58.357 1320626.468 1320626.468 0 0 0 .014-21.813 99397 99397 0 0 1 .101-91.345l.003-2.249q.023-17.87.023-35.739.003-17.979.037-35.958c.012-6.486.02-12.971.013-19.457q-.007-8.922.023-17.845.007-3.21-.002-6.422C186.522 209.06 191.152 180.164 211 157l1.418-1.816c14.6-18.28 38.696-28.2 61.372-30.972 3.654-.35 7.291-.353 10.96-.346M301 156a705732 705732 0 0 0-.056 187.062q-.007 31.054-.021 62.108-.014 32.077-.017 64.154 0 17.927-.012 35.855c-.038 62.613.31 125.212 1.106 187.821a859280 859280 0 0 0 199.042.055h2.11q33.893.007 67.785.021 35.8.015 71.6.018 21.459.002 42.918.014 14.692.007 29.387.006 8.49-.002 16.982.005 7.76.007 15.52.002 2.82-.001 5.64.004 3.808.005 7.615-.002l2.258.008c5.029-.017 5.029-.017 6.143-1.131.096-1.72.122-3.446.12-5.17l.004-3.395-.01-3.758v-3.93q-.001-5.353-.013-10.705c-.006-3.725-.006-7.45-.008-11.175q-.005-10.587-.021-21.175-.016-12.05-.022-24.101-.016-24.795-.05-49.591l-2.227-.007q-26.843-.089-53.684-.229-12.981-.07-25.962-.11-11.318-.034-22.634-.103-5.99-.037-11.979-.049a1735 1735 0 0 1-11.287-.056 818 818 0 0 0-6.093-.01C624.622 558.33 617.5 556.587 610 549a242 242 0 0 1-5.25-5.996c-1.68-1.924-3.427-3.717-5.25-5.504a117 117 0 0 1-6.875-7.375c-2.591-3.01-5.298-5.836-8.125-8.625-17.252-17.105-17.252-17.105-17.616-27.95q0-2.095.015-4.19l.005-2.317q.012-3.791.041-7.582l.018-2.626q.047-6.884.114-13.767c.044-4.72.06-9.441.07-14.162.012-3.646.047-7.292.087-10.938q.024-2.61.022-5.217C567.254 414.6 567.254 414.6 573 407a55 55 0 0 1 5.21-4.542c1.85-1.506 3.265-3.076 4.79-4.907 4.91-5.704 10.285-10.943 15.625-16.238l3.102-3.088q2.85-2.839 5.705-5.673a109 109 0 0 0 4.898-5.192c7.234-6.393 15.748-5.804 24.889-5.792l4.289-.031c3.86-.028 7.722-.037 11.583-.043 4.042-.01 8.085-.036 12.128-.06 7.646-.044 15.292-.072 22.938-.095 8.708-.028 17.417-.071 26.125-.117q26.859-.136 53.718-.222.106-38.008.155-76.015.022-17.647.071-35.295.046-15.379.056-30.758.004-8.145.035-16.29.03-7.665.022-15.328.001-2.815.019-5.63c.015-2.56.011-5.12.003-7.68l.026-2.255c-.038-4.428-.434-7.377-3.387-10.749-5.007-2.575-9.096-3.436-14.74-3.382l-2.279-.015c-2.516-.012-5.03-.004-7.547.005q-2.734-.007-5.47-.018c-5.008-.016-10.016-.014-15.024-.008-5.402.003-10.805-.012-16.207-.025q-14.043-.027-28.087-.029c-13.552-.002-27.103-.021-40.655-.045a68466 68466 0 0 0-82.014-.094l-2.003-.002q-23.016-.019-46.032-.05c-1.314 0-2.627-.002-3.98-.004q-21.522-.027-43.043-.058l-3.824-.006-15.14-.022q-22.14-.034-44.28-.05-13.898-.01-27.796-.028-8.013-.011-16.027-.013-7.346-.001-14.692-.014-2.647-.004-5.295-.002c-10.008.006-19.888-.256-29.865-1.14m301.828 256.625c-7.998 13.87-7.433 31.063-7.328 46.625l.013 2.316c.04 4.493.169 8.973.407 13.46q.11 2.08.186 4.162c.444 10.556 3.467 16.385 10.894 23.812l1.55 1.65c1.158 1.213 2.364 2.378 3.575 3.538 3.558 3.475 6.91 7.021 10.11 10.828L624 521l2.249 3.079c3.99 3.926 8.183 3.643 13.552 3.698l3.981-.052q2.113.006 4.225.018 4.543.017 9.085-.015c4.807-.033 9.614-.024 14.421-.009 7.624.02 15.247.01 22.87-.011q20.398-.056 40.795-.015 7.138.01 14.276-.022c26.502-.105 26.502-.105 37.672 1.598l2.166.328c7.14 1.314 13.133 4.847 18.708 9.403l2 3c.947-3.21 1.14-6.122 1.17-9.463l.035-3.364.023-3.677.034-3.884c.098-11.815.11-23.63.103-35.446-.005-8.725.032-17.448.123-26.173.06-6.145.07-12.288.045-18.433-.014-3.666-.006-7.329.057-10.994.389-24.072.389-24.072-4.516-29.6-3.089-2.703-6.294-4.405-10.074-5.966l-2-1a260 260 0 0 0-9.005-.205l-2.846-.03q-3.082-.031-6.164-.055-4.947-.042-9.893-.094c-12.042-.12-24.084-.194-36.126-.239q-7.286-.031-14.571-.068l-3.64-.017c-13.678-.072-27.287-.334-40.934-1.295-25.785-1.811-52.92-3.485-68.993 20.628M255.813 735.688l-2.061 1.059C239.905 744.12 230.919 756.204 226 771c-4.323 14.824-2.242 30.775 5.063 44.313 9.565 15.011 24.428 25.385 41.76 29.33 12.125 1.93 24.296 1.63 36.54 1.6q3.859.001 7.718.006 9.417.005 18.836-.01c7.45-.01 14.9-.01 22.35-.01q21.599.001 43.196-.024 18.693-.02 37.386-.028c89.728-.04 179.455-.243 328.151-1.177l-.703-1.904a5569 5569 0 0 1-3.173-8.642l-1.107-2.996c-4.66-12.74-6.52-24.485-6.408-38.016.016-2.308 0-4.614-.02-6.922-.023-14.48 2.176-27.618 7.536-41.145q1.074-2.766 2.133-5.54l.942-2.388c.913-2.792 1.342-5.549 1.8-8.447-46.736-.051-93.473-.1-140.21-.127l-2.096-.001a499868 499868 0 0 0-67.24-.037l-2.224-.001q-35.668-.02-71.337-.063a80614 80614 0 0 0-83.68-.056h-2.06q-16.4-.008-32.798-.035a16613 16613 0 0 0-32.989-.02c-5.955.001-11.911-.002-17.867-.018q-8.183-.02-16.367-.005-2.955.003-5.912-.012c-13.382-.06-25.3.774-37.408 7.063" id="svg-layer-2" style="pointer-events: all;"/><path fill="#F8ECD0" d="m296.121 728.64 6.12-.009c5.582-.006 11.164.006 16.747.02 6.028.014 12.057.01 18.085.007q15.657-.001 31.312.025 16.414.028 32.827.032l2.064.001 10.38.003q36.728.01 73.454.055 35.673.041 71.344.061l2.223.001 22.099.012 45.015.025 2.09.001c46.04.028 92.08.075 138.119.126a2325 2325 0 0 1-.949 4.343l-.533 2.443a44 44 0 0 1-2.14 6.687c-.295.756-.59 1.512-.896 2.29a596 596 0 0 1-1.828 4.516c-4.95 12.748-6.177 25.82-6.1 39.375.008 2.28-.02 4.557-.052 6.836-.076 14.463 3.08 27.059 8.149 40.545l.978 2.629q1.182 3.17 2.371 6.336c-90.235.65-180.47 1.045-330.641 1.178q-18.69.009-37.378.03-21.5.024-42.998.022-11.121-.003-22.242.012-10.29.014-20.577.002-3.737 0-7.473.008c-24.864.057-46.422-1.431-65.441-19.44-10.668-11.2-16.1-24.37-16.75-39.812.688-16.844 7.264-31.418 19.5-43 15.953-13.243 33.174-15.456 53.121-15.36" id="svg-layer-3" style="pointer-events: all;"/><path fill="#D96F11" d="M671.85 392.018c14.773 1.049 29.494 1.139 44.298 1.115h7.214c17.427 0 17.427 0 25.462-.015 6.984-.013 13.968.002 20.953.059q3.234.019 6.468.004c2.986-.012 5.97.013 8.955.046l2.62-.037c6.883.14 10.829 2.668 16.18 6.81l1.867 1.054c1.645 1.013 1.645 1.013 4.133 3.946.898 4.304.837 8.545.805 12.928l.042 3.983c.037 3.597.036 7.193.03 10.79-.003 3.765.028 7.529.054 11.293q.058 9.475.059 18.952c.003 8.114.042 16.229.094 24.343.044 6.973.07 13.946.095 20.92l.03 6.73c.02 4.174.022 8.347.021 12.52l.022 3.78-.01 3.429.005 2.992C811 540 811 540 809 542l-.691-1.777c-3.407-5.786-10.748-8.533-16.982-10.212-14.552-2.732-29.27-2.307-44.008-2.147-4.78.051-9.561.068-14.342.078l-4.948.012-2.498.006c-11.098.03-22.195.088-33.291.208q-11.303.122-22.605.108c-3.97-.004-7.938.015-11.908.086-27.26.474-27.26.474-34.041-5.553-2.207-2.426-3.968-5.02-5.686-7.809a120 120 0 0 0-3.5-3.937l-1.57-1.848c-3.218-3.693-6.581-7.253-9.932-10.824-10.783-11.573-7.421-39.606-6.951-54.96.61-14.939 2.554-28.242 13.703-39.181 17.525-15.977 39.991-13.802 62.1-12.232M645 419c-1.57 2.383-2.762 4.489-3.945 7.047l-1.022 2.089a608 608 0 0 0-3.158 6.614 2535 2535 0 0 1-3.18 6.571q-.986 2.038-1.956 4.084c-1.532 3.212-3.135 6.243-5.031 9.256-1.925 3.764-1.81 4.449-.708 8.339a68 68 0 0 0 1.886 4.284l1.174 2.457 1.272 2.61 1.312 2.715q1.374 2.834 2.757 5.663a1538 1538 0 0 1 4.187 8.677l2.682 5.508 1.253 2.623 1.203 2.438 1.04 2.141c1.504 2.296 2.868 3.49 5.234 4.884 2.346.415 2.346.415 4.965.468l2.983.077 3.204.03 3.31.044q3.464.036 6.927.047c3.533.021 7.062.102 10.593.184q3.367.024 6.733.037l3.198.096c7.117-.065 7.117-.065 9.76-2.565 1.333-2.082 2.343-4.152 3.327-6.418a324 324 0 0 1 1.989-3.659 729 729 0 0 0 1.894-3.693l1.033-2.007q1.608-3.131 3.209-6.266l2.168-4.219Q718.158 473.584 721 468l1.789-3.005c2.056-5.085.742-8.732-1.324-13.648a275 275 0 0 0-1.957-3.855l-1.05-2.086c-1.102-2.182-2.217-4.356-3.333-6.531q-1.113-2.2-2.223-4.402C705.14 419.14 705.14 419.14 702 416c-2.136-.26-2.136-.26-4.813-.275l-3.035-.029-3.293.003-3.378-.013q-3.546-.009-7.092-.002c-3.61.003-7.22-.02-10.83-.045q-3.444-.004-6.887-.002l-3.268-.028c-10.034.061-10.034.061-14.404 3.391" id="svg-layer-4" style="pointer-events: all;"/><path fill="#06283D" d="m656.186 415.71 3.054-.04 3.264-.006 3.38-.02q3.532-.015 7.063-.015c3.606-.004 7.21-.04 10.817-.078q3.432-.009 6.865-.012l3.27-.043 3.045.018 2.672-.008c3.166.656 4.34 2.05 6.384 4.494 1.353 2.327 1.353 2.327 2.55 4.895l1.36 2.875 1.403 3.043 2.91 6.238 1.426 3.076c1.182 2.515 2.404 5 3.66 7.478.332.67.665 1.338 1.008 2.027.87 1.741 1.752 3.477 2.636 5.212 1.697 5.115.972 8.165-1.23 12.904-1.701 3.287-3.478 6.522-5.285 9.752l-3.829 6.965-1.877 3.39a731 731 0 0 0-6.544 12.207c-3.071 5.821-3.071 5.821-4.188 6.938-1.538.12-3.082.17-4.624.193l-2.984.049c-4.519.044-9.037.085-13.555.108q-3.576.025-7.152.082c-3.432.055-6.862.077-10.294.091l-3.227.07c-7.314-.022-7.314-.022-11.07-2.546-2.718-3.955-4.9-8.014-6.992-12.328l-1.331-2.7q-1.381-2.816-2.748-5.639a992 992 0 0 0-4.246-8.61q-1.34-2.744-2.675-5.489l-1.294-2.592c-2.825-5.911-2.825-5.911-2.749-9.394a96 96 0 0 1 3.89-8.303l1.822-3.492q.96-1.812 1.917-3.625l1.857-3.555q1.83-3.49 3.683-6.97a309 309 0 0 0 3.392-6.599l1.525-2.993 1.311-2.644c2.906-3.978 7.048-4.364 11.73-4.405M658 445c-3.161 5.413-6.222 11.677-6 18 3.44 10.44 3.44 10.44 7 14q2.491 1.021 5 2l3 2c2.943.447 5.901.37 8.875.375l2.434.074c3.968.02 6.154-.125 9.617-2.215 4.293-4.624 6.286-9.873 6.574-16.171-.37-8.225-3.727-15.29-9.5-21.063-4.247-2.537-8.108-2.403-12.937-2.437l-2.42-.1c-5.619-.051-8.118.834-11.643 5.537" id="svg-layer-5" style="pointer-events: all;"/><path fill="#4F6B6F" d="m671.75 439.688 2.422-.088c5.443-.059 8.547.731 12.828 4.4 5.189 6.221 7.545 13.277 7.387 21.332-.79 5.452-3.29 10.374-6.996 14.43-3.71 1.92-7.278 1.672-11.391 1.613l-2.445.035c-4.562-.022-7.08-.23-10.555-3.41l-2.578-.895c-4.492-2.05-5.681-6.726-7.422-11.105-2.354-7.062.844-12.67 4-19 3.874-6.937 7.035-7.22 14.75-7.312" id="svg-layer-6" style="pointer-events: all;"/></svg>