<svg xmlns="http://www.w3.org/2000/svg" width="1024" height="1024"><path fill="none" d="M0 0h1024v1024H0zm394 59c-3.392 5.612-5.086 11.361-5.205 17.899l-.06 2.984-.051 3.277-.063 3.537q-.066 3.78-.124 7.56c-.056 3.573-.122 7.147-.19 10.722-.306 17.724-.328 35.446-.316 53.173q.008 11.181.008 22.362v2.33c.004 16.532-.013 33.064-.037 49.595l-.003 2.123-.04 26.458-.037 24.264-.067 44.779-.135 90.08-.005 2.907-.102 68.114-.005 3-.14 93.281-.005 2.997-.103 68.005-.004 2.904-.135 89.888-.11 73.133-.015 8.856a19715 19715 0 0 0-.028 29.67l-.002 2.08a5039 5039 0 0 1-.093 27.092q-.059 9.76-.095 19.519a2815 2815 0 0 1-.09 13.884c-.021 2.856-.03 5.712-.036 8.569-.008 1.937-.03 3.874-.054 5.81 0 10.674 1.314 19.924 8.397 28.207 5.664 5.653 11.935 8.478 19.945 8.941 8.688-.331 16.214-2.363 23-8v-2h2c7.08-8.907 7.375-18.119 7.16-29.16q-.012-2.037-.017-4.074c-.015-5.723-.05-11.445-.16-17.168a463 463 0 0 1-.067-10.554 215 215 0 0 0-.124-5.916c.07-8.804.07-8.804 3.411-12.69 2.514-2.018 5.058-3.744 7.797-5.438a232 232 0 0 0 4.875-4.437c5.416-4.934 11.22-9.235 17.125-13.563a3142 3142 0 0 0 5.563-4.187 2228 2228 0 0 1 15.5-11.5l2.453-1.808q6.14-4.523 12.296-9.025C570.07 797.767 570.07 797.767 587 776v-2h2a128 128 0 0 0 5.125-6.312l1.498-1.947q1.502-1.959 2.995-3.925a409 409 0 0 1 3.534-4.562c6.239-8.177 11.081-17.166 15.848-26.254l1.477-2.793c3.675-7.12 6.617-14.296 9.148-21.894l1.17-3.506c3.751-11.726 5.83-23.591 7.205-35.807l.264-2.226c.654-5.874.82-11.604.693-17.508l-.064-5.426c-.038-2.807-.081-5.613-.14-8.42-.054-2.739-.083-5.477-.108-8.217l-.073-2.529c-.024-5.488 1.064-8.17 4.428-12.674.19-7.23-3.023-12.427-6.562-18.562l-3.278-5.829-1.628-2.873c-2.476-4.423-4.812-8.919-7.12-13.432-2.194-4.195-2.194-4.195-4.412-5.304-2.212-10.634-1.127-22.477-1.098-33.297l.005-6.136q.006-8.02.024-16.039.014-8.205.02-16.41.016-16.06.049-32.118l3-1c1.407-2.079 1.407-2.079 2.855-4.82l1.626-3.042 1.707-3.263 1.749-3.298q1.735-3.274 3.46-6.554a462 462 0 0 1 4.2-7.742l1.123-2.038q1.441-2.612 2.89-5.22c1.432-3.114 2.17-5.605 2.39-9.023-1.875-3.062-1.875-3.062-4-6-1.266-4.344-1.08-8.696-.992-13.176q.03-2.456.058-4.912l.032-2.585c.617-59.456-18.72-107.929-60.184-150.538-7.632-7.775-15.292-15.117-23.914-21.789q-1.706-1.37-3.406-2.746c-13.562-10.97-27.453-21.488-41.549-31.76A4469 4469 0 0 1 488 165l-1.722-1.272c-8.757-6.485-17.434-13.106-25.923-19.94C458 142 458 142 455.637 140.606c-3.73-2.352-6.219-4.118-7.443-8.472-.283-3.548-.284-6.998-.186-10.556l-.012-5.941c.005-2.764.052-5.527.097-8.29.073-4.818.087-9.637.092-14.456q.01-3.839.077-7.676c.088-11.25-1.533-21.58-9.262-30.215-6.712-5.792-13.9-8.585-22.875-8.234C406.603 47.816 400.26 51.733 394 59" id="svg-layer-0" style="pointer-events: all; fill: none;"/><path fill="none" d="M406 172c3 1.437 5.066 2.836 7.39 5.23l1.889 1.924 1.971 2.034c5.084 5.166 10.212 10.132 15.75 14.812q2.76 2.394 5.5 4.813l2.594 2.269C443 205 443 205 443 207l1.637.672c3.137 1.763 5.583 4.118 8.176 6.578l1.693 1.584A2222 2222 0 0 1 460 221a4860 4860 0 0 0 5.928 5.554q1.894 1.77 3.782 3.549c2.92 2.737 5.868 5.413 8.923 7.999 2.941 2.497 5.668 5.138 8.367 7.898q1.445 1.416 2.895 2.824l2.918 2.863 1.521 1.471c1.26 1.243 2.468 2.539 3.666 3.842v2h2c1.34 1.293 1.34 1.293 2.938 3.188l1.882 2.222L507 267l2.555 2.934C539.475 304.404 555.307 344.018 553 390c-.433 5.153-.936 8.663-4.187 12.75-1.522 1.217-3.058 2.42-4.66 3.527-4.871 3.61-4.871 3.61-5.68 6.806l-.16 2.362-.187 2.682c-.22 5.022-.35 10.033-.376 15.06l-.062 3.155c-.038 7.454.525 12.426 5.539 18.24l2.398 2.23c5.32 5.001 5.32 5.001 5.563 10.171q.049 2.649.084 5.297l.05 2.917c.14 8.889.218 17.778.278 26.668.041 5.973.102 11.944.21 17.917.103 5.773.158 11.545.178 17.319q.024 3.298.1 6.595c.382 17.276.382 17.276-3.31 22.369-2.508 1.995-4.96 3.435-7.778 4.935-4.122 6.007-3.458 12.857-3.391 19.96.016 2.035 0 4.068-.02 6.102.044 14.523.044 14.523 5.602 20.16l2.371 1.84c5.535 4.71 6.327 8.311 7.063 15.375C555.691 679.702 538.895 718.802 510 753a520 520 0 0 1-6.629 7.383c-1.267 1.399-2.53 2.804-3.752 4.243-5.295 6.21-11.039 11.945-16.816 17.701a2175 2175 0 0 0-5.2 5.206c-5.196 5.2-10.403 10.309-16 15.082-2.147 1.855-4.128 3.849-6.103 5.885-3.379 3.425-6.872 6.614-10.523 9.742-2.85 2.534-5.49 5.26-8.164 7.977-2.143 2.105-4.45 3.93-6.813 5.781-2.382 2.337-4.719 4.714-7.059 7.093q-3.56 3.614-7.128 7.22c-.82.835-1.639 1.671-2.483 2.533l-2.373 2.392-2.157 2.189C407 855 407 855 405 855q-.027-86.508-.042-173.017v-2.6l-.013-83.404v-2.759q-.007-44.03-.021-88.06a366611 366611 0 0 1-.019-103.616v-2.564q-.002-20.187-.012-40.374-.009-20.442-.007-40.882.002-11.016-.005-22.032c-.03-41.24.405-82.46 1.119-123.692" id="svg-layer-1" style="pointer-events: all; fill: none;"/><path fill="#022842" d="M434.46 51.441c7.603 5.443 11.155 11.718 13.122 20.797.829 5.478.59 10.993.516 16.52q-.005 2.985-.006 5.97c0 4.868-.016 9.736-.088 14.604a448 448 0 0 0-.046 8.235q.016 3.862-.079 7.723c.094 8.503.094 8.503 3.07 12.002 2.274 1.779 4.563 3.25 7.051 4.708 1.181.917 2.35 1.852 3.492 2.816 9.24 7.508 18.752 14.592 28.365 21.612a831 831 0 0 1 8.643 6.447 702 702 0 0 0 10.75 7.938c12.006 8.708 23.776 17.714 35.46 26.847 2.701 2.109 5.412 4.202 8.142 6.274l1.784 1.357q2.33 1.766 4.665 3.525c2.771 2.242 5.191 4.652 7.699 7.184q2.564 2.516 5.133 5.027c10.32 10.138 20.48 20.129 28.867 31.973l2.363 3.242C620.821 290.497 631.992 318.372 636 348l.517 3.358c1.568 10.951 1.659 21.658 1.483 32.704q-.079 5.143-.125 10.286l-.05 2.323c-.05 5.433.115 11.048 3.925 15.267 1.25 2.062 1.25 2.062.61 5.636-1.311 4.791-3.482 8.962-5.86 13.301l-1.324 2.457q-1.377 2.545-2.766 5.084a911 911 0 0 0-4.187 7.787l-2.66 4.922-1.25 2.351c-2.969 5.41-2.969 5.41-6.313 6.524a33577 33577 0 0 0-.052 35.364q-.007 8.213-.023 16.424-.016 7.937-.02 15.873-.003 3.015-.01 6.032c-.076 29.023-.076 29.023 3.04 32.41.681.627 1.363 1.252 2.065 1.897a123 123 0 0 1 3.625 7.125c2.225 4.635 4.514 9.192 7.082 13.648l1.375 2.39a361 361 0 0 0 2.68 4.545c2.805 4.855 4.29 8.627 4.238 14.292l-1.984 2.698c-2.595 4.25-2.488 7.12-2.301 11.978l.042 2.528q.045 2.672.114 5.344c.404 16.726.078 32.937-2.871 49.452l-.39 2.27C630.79 705.54 622.1 725.592 611 744l-1.867 3.188c-4.37 7.193-9.6 13.735-14.892 20.264a205 205 0 0 0-3.448 4.462L589 774h-2l-.687 1.688c-1.68 2.958-3.894 4.917-6.313 7.312a725 725 0 0 0-3.942 4.35c-4.035 4.491-8.08 8.8-12.714 12.685a296 296 0 0 0-5.75 4.961c-7.069 6.227-14.217 12.195-21.846 17.733-3.596 2.614-7.17 5.259-10.748 7.896l-2.442 1.796c-8.441 6.215-16.823 12.508-25.2 18.808q-3.356 2.52-6.717 5.033-4.917 3.675-9.821 7.368-1.8 1.356-3.605 2.709c-6.497 4.882-12.778 9.883-18.703 15.458C456 884 456 884 454.035 885.044c-2.495 1.44-4.187 2.733-6.035 4.956-1.149 4.582-.976 9.06-.86 13.762q.005 2.033-.004 4.065c-.005 3.562.033 7.123.084 10.685.078 5.68.102 11.361.1 17.043.008 1.967.044 3.933.08 5.9.047 9.294-1.036 18.295-7.4 25.545h-2v2c-7.477 6.211-16.13 8.229-25.7 7.91-8.084-1.13-15.148-5.836-20.238-12.16-5.324-8.796-5.48-18.635-5.358-28.624q.008-2.032.012-4.066.014-4.355.052-8.708a2740 2740 0 0 0 .08-14.017q.033-8.582.085-17.164c.06-9.88.089-19.759.095-29.638l.001-2.143.005-8.586q.007-11.073.026-22.147l.014-9.213.007-4.703.037-25.1.067-46.306.135-93.027.005-3.002.102-70.285.005-3.095.14-96.424.005-3.102.103-70.307.004-2.995.202-138.88.076-51.943.003-2.14c.03-21.68.044-43.36.033-65.04-.007-14.422.004-28.843.21-43.264q.043-3.438.063-6.877c.021-3.475.068-6.948.12-10.423l.003-3.055c.205-9.92 2.785-18.561 9.75-25.824 10.363-9.228 24.511-10.125 36.317-3.21M407 72c-1.034 3.103-1.12 5.229-1.114 8.481v3.397l.016 3.665.005 3.754q.007 4.935.024 9.868.014 5.038.02 10.075.017 9.88.049 19.76h24q.075-11.825.11-23.651.014-4.023.04-8.046c.025-3.855.036-7.71.045-11.565l.032-3.633v-3.397l.014-2.98c-.257-2.913-1.025-5.083-2.241-7.728h-2v-2c-3.108-2.072-6.185-2.534-9.898-2.457-3.881.844-6.598 3.474-9.102 6.457m8 79c4.1 4.886 8.348 9.508 12.875 14l1.877 1.87c3.594 3.561 7.262 6.961 11.127 10.228 3.552 3.185 6.87 6.61 10.203 10.021 3.493 3.55 7.13 6.857 10.896 10.113 3.272 2.861 6.425 5.846 9.584 8.83l4.247 4 2.136 2.012q2.813 2.634 5.653 5.238c7.937 7.302 15.643 14.822 23.277 22.438l1.505 1.498q2.122 2.115 4.237 4.236l2.488 2.492C517 250 517 250 518 252h2l.688 1.633c1.716 3.096 3.985 5.6 6.312 8.242 26.056 30.332 44.38 69.287 44.098 109.879l-.005 2.383c-.005 2.475-.018 4.95-.03 7.426q-.009 2.54-.014 5.08-.017 6.178-.049 12.357c10.323.905 20.523 1.125 30.875 1.063q2.217-.009 4.434-.014 5.345-.017 10.691-.049c1.639-4.32 2.256-7.903 2.266-12.516l.012-3.765-.028-3.969-.01-2.035c-.09-16.54-1.68-31.82-6.24-47.715l-.542-1.959c-9.18-32.919-28.4-57.887-52.083-81.853l-2.12-2.16-1.982-1.985-1.768-1.78C553 239 553 239 551 239v-2a101 101 0 0 0-5.062-4.25c-3.397-2.71-6.751-5.428-10-8.312C533 222 533 222 531 222v-2c-1.984-1.629-1.984-1.629-4.75-3.562-3.956-2.807-7.88-5.639-11.75-8.563-6.8-5.115-13.653-10.158-20.508-15.2q-4.875-3.585-9.734-7.195c-8.945-6.636-17.935-13.194-27.131-19.48-3.734-2.561-7.352-5.116-10.76-8.102-8.71-7.437-15.93-7.932-27.265-7.25q-2.053.163-4.102.352m-9 21c-.726 41.929-1.15 83.843-1.118 125.78q.007 11.132.004 22.266-.001 20.52.008 41.04.01 20.227.011 40.458v2.57l.001 12.925q.004 45.423.019 90.847.014 44.047.02 88.093v2.757l.013 83.247v2.59q.016 85.214.042 170.427c3.36-1.59 5.544-3.32 8.152-5.992l2.354-2.387 2.432-2.496q2.385-2.437 4.777-4.867l2.129-2.183c2.275-2.19 4.679-4.12 7.156-6.075a266 266 0 0 0 5-5q1.414-1.435 2.832-2.867l1.468-1.483c4.458-4.493 8.951-8.839 13.774-12.943 2.962-2.625 5.702-5.461 8.457-8.3a119 119 0 0 1 5.934-5.38c5.543-4.812 10.684-10.027 15.862-15.224q2.6-2.604 5.206-5.2c5.7-5.695 11.302-11.41 16.467-17.603l1.459-1.725C531.742 727.485 552.336 693.353 553 656l.058-2.033c.679-25.448.679-25.448-4.245-31.78-.465-.36-.465-.36-2.813-2.187a141 141 0 0 1-3.75-4.062l-1.797-1.973c-3.866-5.228-2.676-12.514-2.693-18.7-.01-2.06-.041-4.12-.072-6.181-.052-13.218-.052-13.218 3.312-18.084l2.35-1.261c3.892-2.203 6.99-4.359 8.237-8.855.964-6.71.737-13.5.636-20.259q-.002-3.317.007-6.634c.001-4.628-.032-9.253-.091-13.88-.074-5.918-.072-11.834-.046-17.753.014-4.565-.007-9.128-.04-13.692a740 740 0 0 1-.007-6.545c.003-3.055-.038-6.106-.093-9.16l.029-2.708c-.203-7.093-2.992-10.435-7.982-15.253-4.663-5.107-6.124-8.378-6.133-15.29l-.004-3.105.012-3.23-.012-3.16c.022-17.725.022-17.725 3.098-21.836l2.414-1.817 2.398-1.87L548 403c4.195-3.612 4.449-7.656 5-13 2.516-46.462-14.104-86.667-44.758-121.121a495 495 0 0 0-4.535-4.961C502 262 502 262 500 259h-2l-.73-1.723c-1.52-2.725-3.344-4.544-5.582-6.714l-2.301-2.247L487 246l-2.367-2.387c-3.088-3.064-6.254-6.032-9.445-8.988l-1.88-1.745c-3.186-2.949-6.393-5.86-9.683-8.692-2.683-2.312-5.2-4.73-7.687-7.25C448.786 209.7 448.786 209.7 445 207h-2l-.775-1.797c-1.346-2.421-2.692-3.698-4.819-5.457-4.438-3.758-8.679-7.69-12.906-11.684l-2.145-2.013a355 355 0 0 1-12.709-12.582C408 172 408 172 406 172m149 249c-.446 3.125-.324 6.284-.312 9.438l-.05 2.642-.001 2.541-.01 2.326c.482 2.653 1.275 3.388 3.373 5.053 2.192.468 2.192.468 4.772.594l2.935.156c4.444.148 8.886.278 13.332.355q3.506.082 7.01.267c18.83.988 18.83.988 23.981-2.907 3.3-3.722 5.394-7.888 7.195-12.497.775-1.968.775-1.968 2.5-5.362C621 421 621 421 621 419q-12.465-.07-24.93-.104-5.788-.014-11.575-.047-5.583-.032-11.166-.039-2.132-.005-4.265-.021a833 833 0 0 0-5.962-.016l-3.432-.014C557 419 557 419 555 421m15 40c-1.94 1.94-1.127 4.876-1.136 7.46l.007 2.817-.006 2.952q-.004 4.854.002 9.709l-.003 6.714q-.002 7.046.006 14.093.006 9.055-.004 18.11-.005 6.935 0 13.87 0 3.34-.002 6.68-.003 4.659.007 9.318l-.007 2.818c.022 6.345.022 6.345 1.136 7.459h30V461zm-15 122a75 75 0 0 0-.133 4.656l-.004 2.848.012 2.996-.012 2.996.004 2.848.004 2.63C555 604 555 604 556 605c1.963.124 3.93.178 5.897.205l3.822.06q2.08.027 4.16.051l4.233.063q5.58.082 11.161.153 5.691.077 11.381.161 11.173.162 22.346.307c1-3 1-3 .12-5.16l-1.393-2.473-1.5-2.691-1.602-2.801-1.578-2.824c-3.852-6.856-3.852-6.856-5.047-8.051a81 81 0 0 0-4.871-.13l-3.145-.009-3.422.006-3.486-.003q-3.656 0-7.313.006-5.62.005-11.24-.007-3.543 0-7.086.004l-3.421-.006-3.145.01-2.783.002C556 582 556 582 555 583m16 42c.01.905.02 1.81.032 2.744.584 58.213-16.15 102.412-55.032 146.256l-1.663 1.558C513 777 513 777 513 779l-1.799.776c-2.418 1.345-3.674 2.683-5.424 4.814-3.857 4.554-7.985 8.766-12.214 12.972l-2.159 2.17a236 236 0 0 1-12.674 11.756c-2.005 1.752-3.88 3.597-5.73 5.512-3.218 3.268-6.577 6.287-10.055 9.273-2.568 2.28-4.95 4.72-7.355 7.168-2.066 2.025-4.321 3.768-6.59 5.559a559 559 0 0 0-5 5l-3.138 3.138-1.698 1.698L416 872c5.83 3.13 12.58 3.493 19 2 4.222-2.335 7.657-5.324 11.24-8.507 3.147-2.669 6.555-4.963 9.947-7.306a3304 3304 0 0 0 6.585-4.616C475.992 844.25 489.007 834.634 502 825l2.526-1.869a801 801 0 0 0 43.677-34.748q2.56-2.184 5.156-4.328A137 137 0 0 0 558 780v-2l1.797-.804c3.746-2.034 6.327-5.221 9.203-8.321l2.004-2.154c31.303-34.177 47.97-76.229 48.246-122.408l.029-3.657-.013-3.48-.007-3.097c-.303-3.605-1.171-6.634-2.259-10.079q-9.104-.037-18.207-.055-3.097-.008-6.195-.02c-2.966-.013-5.933-.018-8.899-.023l-2.803-.015h-2.608l-2.295-.007C574 624 574 624 571 625M405 894c-.069 7.742-.129 15.482-.165 23.224q-.022 3.95-.061 7.9c-.037 3.786-.054 7.57-.067 11.356-.015 1.178-.03 2.355-.047 3.568v3.336l-.02 2.927c.432 3.225 1.451 5.073 3.36 7.689 4.376 2.884 7.801 3.65 13 3 3.704-2.027 5.654-3.48 8-7 .24-2.487.24-2.487.227-5.481v-3.397l-.032-3.665-.008-3.754q-.016-4.935-.05-9.868c-.02-3.359-.03-6.717-.04-10.075q-.034-9.88-.097-19.76z" id="svg-layer-2" style="pointer-events: all;"/><path fill="#FDE6C7" d="M415 151c20.483-1.483 20.483-1.483 26.563 3.125l2.468 2.215c3.922 3.514 8.193 6.376 12.531 9.347C471.598 176.164 486.379 186.958 501 198q4.06 3.066 8.125 6.125l1.981 1.494c3.303 2.48 6.63 4.916 10.011 7.287l1.98 1.39a443 443 0 0 0 3.74 2.583c1.422.992 2.798 2.05 4.163 3.121v2l1.66.727c2.9 1.578 5.244 3.532 7.778 5.648 5.543 4.61 5.543 4.61 8.41 6.79L551 237v2l1.692.709c2.887 1.615 4.887 3.61 7.23 5.947l1.405 1.4q1.47 1.468 2.935 2.945a781 781 0 0 0 4.41 4.397c15.26 15.235 27.515 32.92 36.328 52.602l.834 1.845c10.016 22.494 13.341 46.082 13.354 70.53l.037 4.02.018 7.36c-.253 3.377-1.039 6.093-2.243 9.245q-6.45.037-12.903.055-2.184.008-4.369.02c-9.633.057-19.124-.233-28.728-1.075l.048-2.987c.539-37.144.539-37.144-3.048-53.013l-.504-2.332C562.353 317.423 552.521 294.945 538 276l-1.254-1.64c-4.988-6.495-10.026-12.9-15.601-18.907C520 254 520 254 520 252h-2c-1.29-1.308-1.29-1.308-2.848-3.215-4.69-5.514-9.797-10.58-14.922-15.685q-2.495-2.49-4.982-4.989c-5.06-5.063-10.124-10.054-15.598-14.675-1.804-1.57-3.474-3.23-5.15-4.936a119 119 0 0 0-7.227-6.762c-4.134-3.595-8.156-7.298-12.148-11.05l-2.107-1.977c-4.722-4.445-9.322-8.986-13.877-13.602a107 107 0 0 0-5.891-5.359c-4.109-3.515-7.923-7.31-11.75-11.125l-1.929-1.915-1.79-1.796-1.623-1.626C415 152 415 152 415 151" id="svg-layer-3" style="pointer-events: all;"/><path fill="#FCE6C7" d="M578.288 623.886h2.608l2.803.016 2.88.005c3.036.005 6.072.018 9.109.03q3.086.009 6.173.014 7.57.017 15.139.049c1.429 4.527 2.255 8.355 2.266 13.14l.013 3.465-.029 3.645-.025 3.787C618.762 686.712 605.697 722.451 582 753l-1.863 2.457c-4.236 5.47-8.823 10.587-13.512 15.668l-1.878 2.05-1.77 1.895-1.592 1.712C560 778 560 778 558 778l-.793 1.809c-1.286 2.334-2.486 3.55-4.52 5.254l-2.18 1.84L548 789l-2.82 2.441c-8.137 7.028-16.608 13.564-25.184 20.044a552 552 0 0 0-5.336 4.105c-6.757 5.258-13.632 10.318-20.586 15.312A1508 1508 0 0 0 477.5 843a2390 2390 0 0 1-37.35 27.019c-4.043 2.874-4.043 2.874-5.15 3.981-2.45.127-4.861.185-7.312.188l-2.053.037c-3.817.01-6.324-.384-9.635-2.225l28.397-28.396q2.209-2.212 4.414-4.426c2.088-2.077 4.232-4.042 6.439-5.99 6.209-5.555 12.253-11.28 18.309-17q4.285-4.049 8.601-8.063c6.643-6.18 13.223-12.41 19.652-18.812l1.761-1.747c2.24-2.248 4.305-4.4 6.189-6.96L511 779h2l.719-1.691c1.579-2.845 3.54-4.888 5.781-7.246 33.516-36.082 51.848-80.19 51.563-129.375q-.009-2.297-.014-4.592-.017-5.548-.049-11.096c2.78-.927 4.42-1.122 7.288-1.114" id="svg-layer-4" style="pointer-events: all;"/><path fill="#E27D06" d="M570 461h30v102h-30c-1.94-1.94-1.127-4.876-1.136-7.46l.007-2.817-.006-2.952q-.004-4.854.002-9.708 0-3.358-.003-6.715-.002-7.047.006-14.093.006-9.055-.004-18.11-.005-6.935 0-13.87 0-3.34-.002-6.68-.003-4.659.007-9.318l-.007-2.818c.022-6.345.022-6.345 1.136-7.459M422 66c2.5 1 2.5 1 4 2v2h2c1.714 3.727 2.246 6.617 2.227 10.708v3.397l-.032 3.633-.008 3.745q-.015 4.91-.05 9.82c-.02 3.345-.03 6.69-.04 10.035q-.034 9.831-.097 19.662h-24q-.111-11.825-.165-23.651-.02-4.023-.061-8.046c-.037-3.855-.054-7.71-.067-11.565l-.047-3.633v-3.397l-.02-2.98c.57-4.316 2.609-6.934 5.548-10.04 3.96-2.376 6.223-2.125 10.812-1.688M405 894h24q.147 11.826.22 23.651.027 4.023.082 8.046c.048 3.855.071 7.71.089 11.565l.062 3.633c.002 8.34.002 8.34-2.364 12.32-3.266 2.792-5.075 3.67-9.401 4.16-4.704-.478-6.834-1.654-10.688-4.375-2.092-3.172-2.244-5.75-2.227-9.503v-3.336l.032-3.583.008-3.682c.011-3.882.037-7.764.062-11.646q.016-3.947.027-7.895c.02-6.452.06-12.903.098-19.355M559.67 418.76l3.432.013h3.882l4.211.032 4.296.008c3.772.008 7.543.028 11.314.05 3.848.02 7.695.03 11.543.04 7.55.02 15.101.055 22.652.097-1.19 3.663-2.373 6.958-4.348 10.27l-1.334 2.251-1.38 2.291-1.393 2.35c-3.38 5.673-3.38 5.673-4.545 6.838a75 75 0 0 1-4.656.161l-3.004.03-3.27.012-3.337.017q-3.502.014-7.006.02c-3.58.01-7.159.04-10.739.072q-3.396.01-6.793.016l-3.257.038-3.023-.01-2.663.011c-2.725-.444-3.604-1.19-5.252-3.367-.372-2.053-.372-2.053-.363-4.379l.002-2.54.048-2.644-.01-2.654c.073-8.58.073-8.58 4.993-9.024M577.688 580.88q3.663-.129 7.32-.368c19.723-1.267 19.723-1.267 25.205 3.353 4.987 6.167 7.99 13.455 9.787 21.135-3.383 1.034-6.42 1.094-9.946 1.038l-3.63-.052-3.904-.072-4.012-.064q-4.194-.069-8.39-.147-5.386-.097-10.774-.178-4.137-.065-8.274-.139-2.955-.05-5.911-.095l-3.601-.07-3.187-.056C556 605 556 605 555 604a75 75 0 0 1-.133-4.656l-.004-2.848.012-2.996-.012-2.996.004-2.848.004-2.63c.39-6.12 18.03-4.01 22.817-4.145" id="svg-layer-5" style="pointer-events: all;"/></svg>