<svg xmlns="http://www.w3.org/2000/svg" viewBox="0 0 2048 2048" shape-rendering="geometricPrecision">
<rect width="2048" height="2048" fill="none"/>
<path fill="#012036" d="M 987 767 L 980 776 L 946 839 L 945 850 L 969 893 L 985 916 L 999 920 L 1047 921 L 1058 919 L 1063 914 L 1081 880 L 1101 848 L 1099 841 L 1071 783 L 1058 764 L 1019 763 Z M 1007 797 L 1016 795 L 1027 795 L 1036 797 L 1045 807 L 1068 842 L 1068 846 L 1058 863 L 1046 878 L 1038 884 L 1019 885 L 1006 882 L 992 872 L 989 868 L 990 869 L 988 870 L 985 867 L 987 865 L 981 859 L 977 851 L 979 841 L 992 817 L 991 818 L 989 817 L 993 815 L 1001 802 Z M 168 319 L 160 458 L 306 892 L 519 982 L 336 1155 L 476 1483 L 337 1741 L 749 1397 L 883 1067 L 939 1453 L 1042 1579 L 1121 1394 L 1162 1062 L 1298 1396 L 1713 1738 L 1570 1495 L 1710 1155 L 1530 981 L 1741 894 L 1887 458 L 1872 312 L 1730 299 L 1548 376 L 1156 718 L 1091 598 L 1286 298 L 1063 575 L 982 574 L 877 393 L 754 304 L 955 599 L 891 717 L 498 374 L 312 298 Z M 1057 1456 L 1060 1458 L 1056 1465 L 1054 1473 L 1052 1476 L 1046 1493 L 1032 1521 L 1028 1527 L 1025 1529 L 1019 1522 L 1010 1508 L 1003 1494 L 997 1476 L 995 1473 L 995 1470 L 990 1459 L 992 1457 L 1016 1456 L 1017 1455 Z M 1394 1401 L 1404 1395 L 1410 1395 L 1432 1416 L 1516 1512 L 1548 1552 L 1558 1570 L 1557 1579 L 1549 1577 L 1518 1552 L 1437 1471 L 1386 1413 L 1385 1410 Z M 643 1395 L 656 1408 L 658 1415 L 642 1435 L 574 1509 L 521 1558 L 513 1568 L 512 1566 L 496 1578 L 490 1579 L 488 1576 L 489 1567 L 494 1557 L 563 1475 L 561 1474 L 578 1458 L 576 1459 L 576 1456 L 579 1456 L 635 1395 Z M 961 1336 L 969 1334 L 1081 1337 L 1082 1348 L 1078 1375 L 1067 1419 L 1027 1420 L 1018 1422 L 983 1422 L 977 1414 L 973 1400 L 963 1350 L 963 1340 L 961 1339 Z M 1330 1307 L 1345 1300 L 1363 1300 L 1372 1303 L 1382 1311 L 1384 1314 L 1384 1316 L 1386 1318 L 1388 1330 L 1389 1331 L 1388 1342 L 1386 1349 L 1382 1355 L 1382 1357 L 1377 1362 L 1373 1364 L 1374 1365 L 1373 1366 L 1370 1365 L 1365 1368 L 1358 1368 L 1357 1369 L 1354 1368 L 1345 1368 L 1334 1364 L 1325 1355 L 1319 1342 L 1319 1324 L 1324 1313 Z M 677 1303 L 687 1300 L 704 1300 L 712 1303 L 722 1312 L 726 1321 L 726 1328 L 727 1329 L 726 1348 L 722 1357 L 712 1366 L 709 1366 L 705 1368 L 697 1368 L 696 1369 L 683 1368 L 675 1365 L 665 1356 L 660 1346 L 659 1339 L 658 1338 L 659 1323 L 664 1314 L 671 1307 Z M 1097 1232 L 1090 1283 L 1088 1286 L 1088 1297 L 1084 1303 L 960 1300 L 957 1298 L 949 1235 L 951 1230 L 1038 1232 L 1095 1229 Z M 1107 1105 L 1108 1124 L 1100 1185 L 1096 1192 L 1023 1196 L 949 1194 L 946 1192 L 935 1106 L 948 1088 L 963 1073 L 1045 1074 L 1079 1072 Z M 868 1020 L 707 1268 L 672 1272 L 643 1284 L 620 1315 L 598 1369 L 533 1440 L 523 1442 L 427 1295 L 510 1217 L 647 1121 L 762 1061 Z M 1176 1017 L 1287 1061 L 1398 1119 L 1504 1192 L 1608 1282 L 1617 1296 L 1520 1443 L 1503 1431 L 1445 1364 L 1425 1311 L 1404 1284 L 1371 1271 L 1339 1268 Z M 871 992 L 733 1050 L 637 1102 L 503 1196 L 415 1273 L 388 1190 L 389 1154 L 421 1112 L 488 1063 L 518 1047 L 615 1015 L 735 987 Z M 1179 991 L 1310 985 L 1475 1027 L 1569 1069 L 1634 1119 L 1659 1159 L 1654 1212 L 1635 1270 L 1628 1272 L 1528 1184 L 1404 1098 L 1310 1048 Z M 1085 696 L 1108 727 L 1146 764 L 1154 890 L 1151 933 L 1096 991 L 1085 996 L 1028 1002 L 960 996 L 896 930 L 895 838 L 900 767 L 963 698 Z M 220 480 L 397 530 L 564 624 L 839 855 L 842 927 L 464 925 L 422 916 L 380 894 L 337 838 Z M 1827 478 L 1712 835 L 1692 871 L 1666 895 L 1598 923 L 1205 926 L 1211 852 L 1489 619 L 1651 529 Z M 1838 362 L 1845 436 L 1837 448 L 1694 490 L 1554 553 L 1450 622 L 1271 766 L 1373 636 L 1480 483 L 1578 421 L 1706 355 L 1799 345 L 1821 348 Z M 210 361 L 239 345 L 336 354 L 456 413 L 566 481 L 664 623 L 776 765 L 588 616 L 494 554 L 347 488 L 211 448 L 203 434 Z" fill-rule="evenodd"/>
<path fill="#EFDFBE" d="M 1293 1170 L 1291 1172 L 1288 1170 L 1286 1170 L 1285 1171 L 1285 1173 L 1286 1171 L 1288 1172 L 1287 1176 L 1289 1179 L 1289 1177 L 1288 1176 L 1294 1173 Z M 845 1034 L 645 1128 L 521 1215 L 513 1230 L 480 1249 L 478 1264 L 469 1262 L 473 1255 L 436 1290 L 490 1384 L 495 1375 L 504 1380 L 495 1391 L 504 1391 L 509 1415 L 518 1408 L 511 1419 L 519 1429 L 532 1415 L 536 1430 L 548 1416 L 543 1410 L 549 1405 L 552 1412 L 596 1363 L 608 1319 L 628 1293 L 624 1285 L 630 1290 L 648 1267 L 652 1274 L 703 1264 L 736 1213 L 733 1197 L 749 1194 L 755 1179 L 742 1196 L 741 1186 L 768 1166 L 767 1151 L 778 1151 L 836 1064 L 829 1053 L 840 1057 Z M 526 1409 L 530 1412 L 530 1415 L 529 1416 L 527 1416 L 525 1414 L 527 1413 L 525 1411 Z M 534 1405 L 538 1408 L 538 1411 L 537 1412 L 535 1411 L 535 1409 L 533 1407 Z M 523 1399 L 524 1401 L 527 1401 L 530 1405 L 528 1406 L 527 1408 L 525 1408 L 524 1409 L 524 1415 L 523 1416 L 518 1417 L 517 1416 L 517 1412 L 519 1411 L 519 1408 L 523 1406 L 523 1404 L 521 1403 L 521 1400 Z M 519 1397 L 520 1399 L 518 1400 L 518 1403 L 516 1404 L 515 1403 L 515 1398 L 516 1397 Z M 508 1401 L 510 1397 L 513 1397 L 514 1398 L 511 1402 L 509 1402 Z M 517 1386 L 521 1384 L 522 1385 L 525 1385 L 526 1387 L 525 1388 L 522 1388 L 522 1389 L 520 1390 Z M 509 1380 L 510 1379 L 513 1379 L 514 1380 L 514 1383 L 513 1384 L 511 1384 L 509 1382 Z M 559 1378 L 560 1377 L 562 1377 L 565 1379 L 566 1381 L 565 1382 L 563 1382 L 560 1380 Z M 513 1379 L 515 1377 L 519 1377 L 520 1375 L 522 1375 L 523 1376 L 522 1379 L 523 1379 L 524 1381 L 523 1382 L 521 1382 L 519 1380 L 514 1380 Z M 542 1372 L 544 1373 L 544 1379 L 543 1380 L 541 1379 L 541 1373 Z M 499 1372 L 501 1371 L 502 1373 L 503 1373 L 504 1375 L 508 1378 L 508 1379 L 506 1380 L 504 1378 L 502 1378 L 501 1376 L 499 1375 Z M 559 1368 L 561 1367 L 562 1369 L 567 1369 L 572 1375 L 571 1376 L 569 1376 L 566 1374 L 565 1372 L 562 1372 L 560 1374 L 559 1373 Z M 543 1363 L 546 1361 L 548 1364 L 551 1364 L 552 1365 L 548 1368 L 546 1366 L 544 1366 L 543 1365 Z M 572 1357 L 574 1358 L 574 1361 L 575 1362 L 574 1364 L 572 1364 L 571 1363 L 571 1358 Z M 487 1358 L 488 1357 L 490 1359 L 495 1359 L 496 1360 L 496 1363 L 495 1364 L 493 1362 L 489 1362 L 487 1360 Z M 468 1339 L 474 1342 L 472 1344 L 470 1344 L 470 1349 L 469 1350 L 467 1348 L 467 1340 Z M 489 1328 L 493 1325 L 495 1329 L 494 1330 L 490 1330 Z M 486 1324 L 485 1326 L 483 1326 L 482 1327 L 482 1333 L 481 1334 L 479 1332 L 476 1332 L 475 1331 L 473 1332 L 473 1333 L 476 1333 L 478 1335 L 478 1338 L 480 1340 L 479 1342 L 476 1342 L 475 1341 L 475 1338 L 472 1340 L 471 1339 L 471 1336 L 469 1336 L 467 1334 L 468 1332 L 467 1334 L 466 1334 L 465 1332 L 466 1334 L 464 1336 L 464 1339 L 462 1340 L 460 1338 L 461 1337 L 460 1332 L 459 1331 L 457 1332 L 456 1331 L 457 1329 L 462 1329 L 463 1328 L 464 1329 L 469 1329 L 471 1330 L 471 1328 L 473 1327 L 474 1325 L 475 1325 L 476 1327 L 479 1329 L 479 1326 L 482 1323 L 485 1323 Z M 560 1321 L 561 1321 L 564 1325 L 562 1326 L 562 1331 L 561 1332 L 559 1330 L 559 1322 Z M 550 1311 L 551 1311 L 554 1315 L 554 1317 L 553 1318 L 549 1315 L 549 1312 Z M 452 1313 L 455 1313 L 457 1311 L 458 1312 L 458 1315 L 460 1317 L 460 1321 L 462 1323 L 462 1325 L 461 1326 L 459 1324 L 455 1324 L 454 1323 L 454 1320 L 457 1318 L 454 1318 L 453 1316 L 451 1315 Z M 476 1306 L 476 1307 L 474 1308 L 474 1309 L 476 1310 L 472 1314 L 470 1314 L 469 1316 L 463 1316 L 461 1314 L 462 1313 L 467 1313 L 468 1311 L 470 1311 L 470 1308 L 472 1304 Z M 521 1304 L 522 1303 L 528 1303 L 530 1305 L 529 1306 L 526 1306 L 525 1308 Z M 494 1303 L 496 1304 L 496 1311 L 495 1312 L 492 1312 L 491 1310 L 493 1308 L 493 1304 Z M 492 1306 L 492 1309 L 491 1310 L 488 1308 L 488 1311 L 487 1312 L 484 1312 L 483 1311 L 483 1310 L 485 1309 L 485 1306 L 487 1305 L 488 1303 Z M 465 1303 L 467 1303 L 468 1305 L 470 1306 L 466 1310 L 465 1308 L 462 1308 L 461 1307 Z M 483 1303 L 486 1299 L 489 1299 L 490 1300 L 487 1304 L 484 1304 Z M 458 1299 L 460 1300 L 460 1302 L 458 1305 L 462 1308 L 462 1311 L 461 1312 L 458 1312 L 457 1311 L 457 1308 L 456 1308 L 455 1306 L 452 1306 L 451 1305 L 454 1301 L 457 1301 Z M 446 1302 L 449 1299 L 451 1299 L 452 1300 L 452 1303 L 451 1304 L 447 1304 Z M 491 1298 L 492 1297 L 494 1297 L 497 1299 L 500 1303 L 499 1304 L 496 1304 L 495 1302 L 494 1302 L 493 1304 L 491 1302 Z M 538 1293 L 541 1293 L 542 1294 L 542 1299 L 541 1300 L 539 1299 L 539 1296 L 537 1295 Z M 500 1287 L 502 1288 L 502 1297 L 501 1298 L 499 1297 L 499 1288 Z M 473 1288 L 474 1287 L 477 1287 L 480 1291 L 479 1292 L 476 1292 Z M 507 1284 L 508 1283 L 510 1283 L 514 1288 L 513 1289 L 510 1288 Z M 482 1281 L 483 1282 L 482 1287 L 480 1288 L 479 1287 L 479 1283 Z M 447 1281 L 450 1285 L 452 1286 L 452 1287 L 457 1287 L 458 1288 L 458 1293 L 457 1294 L 455 1292 L 455 1290 L 452 1290 L 452 1291 L 450 1292 L 450 1295 L 452 1295 L 454 1297 L 454 1299 L 453 1300 L 452 1300 L 451 1298 L 444 1297 L 442 1294 L 439 1294 L 437 1292 L 439 1288 L 441 1288 L 442 1289 L 441 1291 L 443 1290 L 441 1287 L 443 1285 L 444 1286 L 444 1283 Z M 453 1275 L 454 1274 L 456 1274 L 458 1276 L 458 1278 L 459 1279 L 457 1281 L 455 1281 L 453 1279 Z M 463 1272 L 465 1275 L 462 1277 L 461 1279 L 462 1280 L 462 1285 L 461 1286 L 456 1286 L 455 1285 L 457 1283 L 459 1283 L 459 1277 L 461 1275 L 461 1273 Z M 656 1259 L 656 1256 L 657 1255 L 661 1255 L 662 1256 L 659 1260 L 657 1260 Z M 513 1255 L 514 1257 L 512 1258 L 512 1260 L 510 1261 L 509 1260 L 509 1257 L 511 1255 Z M 700 1253 L 702 1254 L 702 1257 L 704 1257 L 705 1258 L 705 1260 L 704 1261 L 699 1259 L 698 1256 Z M 515 1251 L 517 1251 L 518 1252 L 518 1257 L 517 1258 L 515 1257 L 515 1254 L 514 1253 Z M 495 1237 L 497 1239 L 496 1240 L 496 1246 L 494 1248 L 491 1248 L 490 1246 L 491 1245 L 493 1245 L 491 1241 L 493 1240 L 493 1238 Z M 538 1204 L 541 1204 L 542 1203 L 544 1204 L 544 1211 L 543 1212 L 540 1212 L 538 1210 L 539 1209 L 541 1209 L 541 1208 L 538 1209 L 536 1207 Z M 701 1189 L 702 1191 L 700 1192 L 700 1194 L 698 1195 L 697 1194 L 697 1191 L 699 1189 Z M 692 1184 L 696 1187 L 696 1189 L 695 1190 L 694 1190 L 693 1188 L 691 1188 L 690 1187 Z M 739 1181 L 740 1182 L 740 1187 L 738 1188 L 737 1190 L 735 1187 L 737 1182 Z M 757 1151 L 758 1153 L 754 1157 L 754 1159 L 752 1160 L 751 1159 L 751 1153 L 752 1152 Z M 655 1126 L 656 1127 L 656 1131 L 653 1134 L 651 1129 Z M 687 1106 L 688 1108 L 686 1110 L 686 1112 L 685 1113 L 684 1111 L 681 1109 Z M 804 1089 L 805 1088 L 809 1088 L 810 1089 L 810 1092 L 807 1094 L 804 1091 Z M 837 1041 L 839 1041 L 841 1043 L 841 1045 L 840 1046 L 843 1048 L 843 1051 L 842 1052 L 838 1049 L 838 1047 L 835 1044 Z M 1201 1033 L 1203 1051 L 1207 1041 L 1200 1041 L 1208 1036 L 1212 1049 L 1218 1044 L 1217 1054 L 1209 1052 L 1217 1056 L 1216 1071 L 1243 1110 L 1249 1104 L 1247 1117 L 1283 1170 L 1300 1169 L 1295 1188 L 1312 1188 L 1312 1202 L 1303 1200 L 1316 1208 L 1317 1222 L 1315 1212 L 1328 1216 L 1334 1227 L 1321 1226 L 1325 1235 L 1341 1229 L 1348 1238 L 1335 1245 L 1327 1236 L 1343 1264 L 1389 1270 L 1417 1290 L 1423 1282 L 1419 1293 L 1453 1366 L 1512 1424 L 1511 1432 L 1524 1432 L 1517 1424 L 1530 1424 L 1552 1389 L 1547 1375 L 1560 1377 L 1569 1364 L 1555 1364 L 1572 1359 L 1611 1296 L 1601 1281 L 1400 1126 Z M 1498 1414 L 1499 1413 L 1505 1414 L 1506 1415 L 1506 1417 L 1509 1417 L 1510 1418 L 1510 1420 L 1508 1421 L 1504 1419 L 1501 1419 L 1498 1416 Z M 1514 1406 L 1514 1413 L 1513 1414 L 1510 1414 L 1509 1416 L 1507 1415 L 1507 1412 L 1504 1412 L 1503 1411 L 1502 1412 L 1497 1412 L 1495 1413 L 1493 1410 L 1498 1406 L 1501 1406 L 1502 1407 L 1505 1407 L 1506 1405 L 1513 1405 Z M 1502 1394 L 1503 1393 L 1509 1393 L 1510 1395 L 1509 1396 L 1503 1396 Z M 1538 1391 L 1541 1393 L 1539 1395 L 1542 1397 L 1541 1399 L 1538 1398 L 1535 1395 L 1537 1394 L 1537 1392 Z M 1479 1390 L 1481 1389 L 1482 1390 L 1482 1393 L 1485 1395 L 1484 1396 L 1481 1396 L 1479 1394 Z M 1549 1388 L 1550 1390 L 1549 1392 L 1546 1394 L 1546 1397 L 1544 1399 L 1543 1398 L 1543 1396 L 1542 1396 L 1541 1394 Z M 1516 1385 L 1520 1388 L 1520 1389 L 1518 1390 L 1518 1395 L 1520 1396 L 1519 1398 L 1516 1398 L 1515 1397 L 1515 1394 L 1513 1393 L 1516 1390 L 1515 1388 L 1515 1386 Z M 1483 1385 L 1485 1384 L 1486 1385 L 1488 1385 L 1489 1387 L 1487 1389 L 1485 1389 L 1483 1387 Z M 1503 1371 L 1505 1371 L 1506 1373 L 1508 1374 L 1508 1379 L 1507 1380 L 1505 1379 L 1505 1376 L 1502 1373 Z M 1543 1369 L 1544 1370 L 1544 1379 L 1542 1380 L 1542 1385 L 1540 1386 L 1539 1385 L 1539 1382 L 1538 1382 L 1537 1380 L 1541 1377 L 1540 1374 L 1541 1373 L 1541 1370 Z M 1551 1368 L 1553 1367 L 1554 1369 L 1556 1369 L 1557 1371 L 1554 1374 L 1551 1371 Z M 1515 1368 L 1516 1367 L 1518 1370 L 1520 1370 L 1521 1369 L 1522 1371 L 1518 1374 L 1515 1371 Z M 1494 1367 L 1496 1368 L 1496 1373 L 1495 1374 L 1491 1371 Z M 1473 1364 L 1474 1363 L 1477 1363 L 1478 1364 L 1478 1368 L 1476 1369 L 1475 1368 L 1475 1366 Z M 1469 1357 L 1470 1359 L 1469 1361 L 1466 1363 L 1464 1360 L 1466 1358 Z M 1499 1353 L 1503 1353 L 1504 1354 L 1504 1355 L 1502 1356 L 1502 1360 L 1501 1361 L 1497 1358 L 1499 1357 L 1498 1355 Z M 1523 1352 L 1525 1351 L 1528 1353 L 1531 1351 L 1532 1352 L 1532 1355 L 1531 1356 L 1528 1356 L 1528 1357 L 1526 1358 Z M 1552 1350 L 1552 1352 L 1550 1354 L 1548 1354 L 1546 1356 L 1542 1356 L 1541 1358 L 1539 1357 L 1539 1354 L 1541 1353 L 1542 1351 L 1545 1352 L 1545 1348 L 1546 1347 L 1548 1351 L 1551 1349 Z M 1534 1348 L 1535 1347 L 1539 1347 L 1540 1348 L 1540 1353 L 1538 1354 L 1537 1353 L 1537 1350 L 1535 1350 Z M 1575 1343 L 1576 1344 L 1576 1346 L 1575 1347 L 1576 1350 L 1575 1351 L 1572 1349 L 1570 1353 L 1569 1352 L 1569 1348 L 1568 1348 L 1567 1346 L 1568 1345 L 1573 1345 Z M 1555 1344 L 1557 1343 L 1558 1341 L 1560 1341 L 1564 1343 L 1564 1345 L 1563 1346 L 1562 1346 L 1561 1344 L 1559 1346 L 1556 1346 Z M 1539 1338 L 1540 1337 L 1547 1337 L 1548 1339 L 1547 1340 L 1544 1340 L 1544 1341 L 1549 1341 L 1550 1343 L 1548 1344 L 1545 1348 L 1543 1346 L 1543 1344 L 1541 1343 L 1541 1341 Z M 1560 1335 L 1562 1337 L 1560 1338 L 1557 1342 L 1556 1342 L 1555 1341 L 1555 1339 L 1558 1335 Z M 1541 1326 L 1542 1325 L 1545 1325 L 1546 1326 L 1546 1330 L 1544 1331 L 1543 1330 L 1543 1328 Z M 1555 1323 L 1556 1324 L 1553 1327 L 1553 1329 L 1552 1330 L 1549 1326 L 1551 1325 L 1552 1323 Z M 1480 1323 L 1482 1325 L 1482 1329 L 1481 1330 L 1478 1330 L 1477 1328 L 1479 1327 L 1479 1324 Z M 1561 1319 L 1563 1317 L 1564 1319 L 1567 1319 L 1568 1321 L 1567 1322 L 1562 1322 L 1561 1321 Z M 1473 1315 L 1474 1316 L 1474 1322 L 1472 1324 L 1471 1322 L 1469 1321 L 1472 1318 L 1472 1316 Z M 1436 1311 L 1440 1315 L 1440 1317 L 1441 1318 L 1440 1319 L 1434 1315 Z M 1546 1310 L 1547 1310 L 1550 1314 L 1550 1317 L 1548 1318 L 1548 1322 L 1547 1323 L 1546 1323 L 1545 1322 L 1545 1320 L 1543 1319 L 1543 1318 L 1547 1315 L 1545 1316 L 1543 1315 Z M 1541 1309 L 1542 1311 L 1541 1312 L 1539 1312 L 1540 1315 L 1538 1316 L 1535 1312 L 1538 1309 Z M 1560 1307 L 1563 1309 L 1564 1311 L 1562 1312 L 1561 1314 L 1558 1314 L 1557 1312 L 1559 1311 L 1559 1308 Z M 1522 1305 L 1526 1308 L 1523 1312 L 1521 1312 L 1520 1311 L 1521 1306 Z M 1553 1309 L 1553 1303 L 1554 1302 L 1557 1303 L 1558 1305 L 1560 1303 L 1562 1304 L 1559 1308 L 1556 1308 L 1555 1310 Z M 1535 1302 L 1537 1301 L 1538 1303 L 1539 1303 L 1539 1302 L 1541 1301 L 1542 1302 L 1542 1304 L 1540 1307 L 1538 1308 L 1535 1304 Z M 1560 1301 L 1559 1302 L 1557 1302 L 1555 1300 L 1550 1300 L 1548 1301 L 1547 1300 L 1547 1298 L 1548 1297 L 1555 1297 L 1557 1295 L 1558 1296 L 1558 1299 L 1559 1299 Z M 1531 1296 L 1532 1295 L 1535 1295 L 1538 1299 L 1537 1300 L 1534 1300 Z M 1600 1289 L 1601 1289 L 1607 1296 L 1607 1297 L 1606 1298 L 1604 1298 L 1603 1300 L 1602 1300 L 1599 1296 L 1599 1290 Z M 1551 1289 L 1552 1290 L 1552 1293 L 1548 1296 L 1547 1295 L 1547 1292 Z M 1492 1289 L 1496 1292 L 1493 1296 L 1491 1294 L 1491 1290 Z M 1573 1287 L 1576 1291 L 1572 1294 L 1571 1293 L 1571 1289 Z M 1564 1285 L 1566 1287 L 1564 1288 L 1564 1291 L 1562 1292 L 1561 1294 L 1558 1294 L 1557 1293 L 1559 1290 L 1561 1289 L 1561 1286 L 1562 1285 Z M 1556 1283 L 1558 1284 L 1558 1287 L 1560 1288 L 1559 1290 L 1557 1290 L 1555 1288 L 1555 1284 Z M 1566 1278 L 1569 1280 L 1567 1284 L 1565 1284 L 1563 1282 L 1563 1280 Z M 1577 1265 L 1577 1267 L 1576 1268 L 1570 1268 L 1569 1267 L 1570 1265 L 1575 1265 L 1576 1264 Z M 1557 1263 L 1558 1265 L 1560 1266 L 1554 1270 L 1551 1266 L 1552 1265 L 1555 1265 Z M 1369 1247 L 1371 1245 L 1376 1245 L 1378 1247 L 1377 1248 L 1370 1248 Z M 1444 1244 L 1445 1243 L 1449 1243 L 1450 1244 L 1450 1247 L 1448 1248 L 1447 1246 L 1445 1246 Z M 1345 1243 L 1346 1244 L 1341 1249 L 1340 1249 L 1339 1247 L 1342 1243 Z M 1464 1239 L 1466 1241 L 1466 1247 L 1465 1248 L 1463 1246 L 1463 1244 L 1461 1243 Z M 1427 1229 L 1431 1229 L 1432 1230 L 1430 1232 L 1430 1237 L 1429 1238 L 1427 1237 L 1427 1232 L 1426 1231 Z M 1399 1230 L 1403 1227 L 1406 1231 L 1405 1232 L 1401 1232 Z M 1433 1221 L 1434 1223 L 1436 1223 L 1437 1225 L 1436 1226 L 1434 1226 L 1432 1228 L 1431 1227 L 1431 1223 Z M 1443 1198 L 1444 1197 L 1448 1201 L 1449 1201 L 1450 1203 L 1449 1204 L 1444 1204 L 1443 1203 Z M 1303 1165 L 1306 1167 L 1306 1169 L 1305 1170 L 1302 1170 L 1301 1169 L 1301 1167 Z M 1281 1152 L 1279 1154 L 1274 1154 L 1273 1153 L 1274 1151 L 1278 1151 L 1279 1150 Z M 1261 1135 L 1263 1134 L 1267 1137 L 1270 1136 L 1271 1138 L 1269 1140 L 1266 1141 Z M 1265 1125 L 1266 1127 L 1264 1128 L 1264 1130 L 1263 1131 L 1261 1129 L 1261 1126 L 1262 1125 Z M 1249 1107 L 1254 1105 L 1258 1111 L 1254 1113 L 1251 1110 L 1251 1108 Z M 1255 1101 L 1257 1100 L 1262 1102 L 1258 1105 Z M 1241 1095 L 1242 1096 L 1242 1098 L 1241 1099 L 1241 1101 L 1239 1102 L 1237 1100 L 1239 1098 L 1239 1096 Z M 1232 1092 L 1233 1091 L 1235 1091 L 1236 1092 L 1236 1094 L 1237 1094 L 1239 1097 L 1237 1099 Z M 1218 1063 L 1220 1065 L 1220 1069 L 1222 1070 L 1221 1071 L 1219 1071 L 1216 1067 Z M 1269 1060 L 1270 1061 L 1270 1066 L 1269 1067 L 1264 1068 L 1263 1066 L 1267 1063 L 1267 1061 Z M 1248 1051 L 1250 1052 L 1250 1057 L 1249 1058 L 1247 1058 L 1246 1057 L 1246 1055 Z M 1236 1053 L 1236 1051 L 1238 1048 L 1240 1048 L 1242 1050 L 1245 1050 L 1246 1051 L 1243 1053 L 1240 1053 L 1240 1055 L 1239 1056 L 1238 1056 Z M 854 994 L 733 993 L 623 1019 L 631 1026 L 607 1023 L 498 1063 L 510 1068 L 477 1077 L 481 1083 L 469 1082 L 443 1108 L 435 1107 L 430 1120 L 419 1121 L 416 1134 L 414 1127 L 407 1133 L 398 1162 L 395 1153 L 394 1190 L 415 1265 L 436 1246 L 432 1240 L 438 1244 L 461 1224 L 461 1215 L 472 1215 L 496 1196 L 492 1192 L 498 1195 L 544 1160 L 546 1151 L 549 1156 L 577 1130 L 642 1094 L 639 1089 L 644 1093 L 727 1048 L 722 1045 L 757 1034 L 750 1034 L 751 1023 L 758 1021 L 762 1032 L 771 1028 L 764 1029 L 765 1023 L 776 1026 Z M 435 1230 L 437 1235 L 436 1237 L 432 1235 Z M 414 1215 L 416 1216 L 416 1219 L 418 1220 L 417 1222 L 414 1222 L 412 1219 L 412 1217 Z M 402 1209 L 408 1209 L 409 1210 L 409 1212 L 410 1213 L 409 1218 L 412 1221 L 412 1223 L 415 1223 L 416 1224 L 414 1226 L 414 1229 L 413 1230 L 411 1230 L 410 1231 L 408 1230 L 408 1229 L 411 1227 L 409 1224 L 409 1222 L 404 1222 L 403 1224 L 402 1223 L 402 1217 L 407 1213 L 407 1212 L 406 1212 L 406 1213 L 404 1214 L 401 1211 Z M 472 1199 L 475 1199 L 476 1200 L 476 1206 L 475 1207 L 472 1205 L 473 1202 L 471 1201 Z M 467 1199 L 469 1199 L 470 1200 L 470 1204 L 468 1206 L 467 1204 L 465 1203 L 465 1201 Z M 399 1199 L 403 1202 L 403 1203 L 399 1206 L 397 1201 Z M 417 1192 L 418 1191 L 424 1191 L 425 1193 L 424 1194 L 419 1194 Z M 398 1185 L 400 1187 L 400 1189 L 398 1190 L 398 1193 L 397 1194 L 396 1193 L 396 1186 Z M 498 1187 L 498 1185 L 502 1182 L 506 1184 L 506 1186 L 504 1188 L 502 1188 L 501 1187 L 499 1188 Z M 529 1154 L 530 1153 L 535 1153 L 536 1154 L 536 1156 L 534 1158 L 532 1158 Z M 416 1143 L 417 1145 L 414 1147 L 414 1150 L 412 1151 L 411 1150 L 411 1146 L 414 1143 Z M 410 1133 L 411 1132 L 413 1132 L 415 1133 L 416 1135 L 413 1137 L 410 1135 Z M 727 1043 L 727 1042 L 732 1038 L 734 1040 L 735 1040 L 736 1038 L 738 1038 L 740 1040 L 739 1041 L 737 1041 L 735 1043 L 730 1043 L 729 1044 Z M 578 1035 L 579 1034 L 583 1034 L 584 1035 L 584 1039 L 582 1040 L 581 1039 L 581 1036 L 580 1036 L 579 1038 L 578 1037 Z M 588 1031 L 589 1031 L 592 1035 L 592 1038 L 590 1040 L 586 1040 L 585 1039 L 588 1037 L 588 1035 L 587 1034 L 587 1032 Z M 643 1016 L 645 1018 L 643 1019 L 644 1020 L 644 1023 L 642 1024 L 641 1023 L 641 1020 L 637 1025 L 635 1023 L 635 1019 L 637 1017 L 641 1017 Z M 650 1018 L 651 1017 L 657 1017 L 658 1015 L 663 1016 L 664 1017 L 664 1022 L 662 1023 L 661 1021 L 659 1022 L 657 1020 L 654 1021 L 653 1020 L 651 1020 Z M 794 1006 L 795 1005 L 801 1005 L 802 1006 L 802 1009 L 800 1010 L 798 1008 L 795 1008 Z M 785 1004 L 786 1003 L 788 1003 L 793 1006 L 791 1008 L 789 1008 Z M 704 1002 L 705 1003 L 704 1004 L 704 1006 L 702 1008 L 699 1008 L 697 1006 L 698 1004 L 701 1005 L 701 1004 Z M 720 1002 L 721 1001 L 722 1002 L 722 1004 L 725 1003 L 727 1005 L 730 1005 L 732 1007 L 728 1009 L 726 1009 L 724 1007 L 722 1008 L 720 1006 Z M 807 998 L 809 998 L 810 999 L 810 1003 L 809 1004 L 807 1004 L 805 1002 L 805 1000 Z M 832 996 L 834 996 L 836 998 L 834 1001 L 832 1001 L 830 999 Z M 1197 994 L 1213 1001 L 1214 995 L 1215 1002 L 1272 1026 L 1281 1023 L 1282 1030 L 1313 1044 L 1317 1039 L 1317 1046 L 1372 1069 L 1441 1112 L 1497 1156 L 1507 1152 L 1503 1160 L 1559 1203 L 1567 1199 L 1565 1208 L 1578 1218 L 1583 1214 L 1591 1230 L 1605 1227 L 1603 1235 L 1593 1232 L 1615 1252 L 1614 1242 L 1607 1243 L 1621 1231 L 1625 1245 L 1626 1233 L 1630 1246 L 1617 1254 L 1632 1265 L 1629 1254 L 1636 1256 L 1655 1182 L 1650 1149 L 1632 1124 L 1619 1121 L 1622 1115 L 1574 1078 L 1480 1034 L 1482 1042 L 1471 1039 L 1473 1032 L 1313 991 Z M 1629 1250 L 1630 1251 L 1630 1253 L 1628 1255 L 1628 1257 L 1627 1258 L 1625 1256 L 1625 1254 L 1627 1251 Z M 1627 1236 L 1628 1235 L 1635 1235 L 1636 1236 L 1636 1238 L 1635 1239 L 1633 1238 L 1629 1238 Z M 1605 1236 L 1609 1233 L 1610 1231 L 1614 1234 L 1614 1237 L 1613 1238 L 1610 1236 L 1606 1238 Z M 1636 1227 L 1638 1229 L 1638 1232 L 1636 1234 L 1631 1234 L 1630 1233 L 1631 1232 L 1635 1231 L 1635 1228 Z M 1595 1222 L 1596 1223 L 1596 1225 L 1591 1229 L 1589 1226 L 1590 1225 L 1592 1225 L 1593 1223 Z M 1608 1219 L 1609 1219 L 1610 1221 L 1614 1224 L 1614 1227 L 1613 1228 L 1610 1226 L 1610 1231 L 1609 1232 L 1607 1231 L 1607 1226 L 1605 1225 L 1605 1224 L 1607 1223 L 1607 1220 Z M 1621 1218 L 1622 1220 L 1616 1224 L 1615 1223 L 1615 1220 L 1616 1219 Z M 1579 1207 L 1580 1207 L 1584 1211 L 1584 1213 L 1583 1214 L 1581 1212 L 1578 1212 L 1577 1211 L 1577 1209 Z M 1619 1201 L 1621 1201 L 1622 1202 L 1622 1204 L 1620 1206 L 1618 1206 L 1617 1205 L 1617 1203 Z M 1632 1183 L 1634 1185 L 1634 1187 L 1636 1188 L 1636 1190 L 1633 1196 L 1631 1195 L 1631 1192 L 1633 1190 L 1631 1189 L 1631 1184 Z M 1554 1160 L 1555 1159 L 1558 1159 L 1560 1161 L 1558 1162 L 1558 1164 L 1556 1165 Z M 1553 1131 L 1554 1130 L 1559 1131 L 1560 1133 L 1559 1134 L 1554 1135 L 1553 1134 Z M 1631 1130 L 1633 1129 L 1636 1131 L 1638 1134 L 1636 1136 L 1633 1135 L 1631 1133 Z M 1449 1120 L 1451 1118 L 1454 1117 L 1455 1118 L 1453 1120 L 1454 1121 L 1460 1121 L 1461 1123 L 1460 1124 L 1455 1124 L 1454 1123 L 1452 1123 L 1451 1121 Z M 1583 1089 L 1585 1088 L 1588 1091 L 1587 1092 L 1587 1093 L 1589 1094 L 1588 1097 L 1590 1098 L 1594 1095 L 1595 1097 L 1592 1100 L 1584 1100 L 1583 1099 Z M 1284 1024 L 1285 1023 L 1292 1023 L 1294 1026 L 1293 1027 L 1290 1027 L 1289 1026 L 1286 1027 Z M 1401 1018 L 1406 1016 L 1410 1016 L 1411 1017 L 1406 1020 L 1403 1020 Z M 1350 1006 L 1353 1004 L 1354 1006 L 1357 1005 L 1358 1006 L 1361 1006 L 1362 1008 L 1359 1010 L 1357 1008 L 1352 1008 Z M 1343 1004 L 1348 1002 L 1350 1006 L 1348 1008 L 1346 1008 Z M 1311 1007 L 1311 1003 L 1312 1002 L 1314 1002 L 1315 1001 L 1321 1001 L 1322 1002 L 1321 1004 L 1314 1004 L 1315 1006 L 1314 1008 L 1312 1008 Z M 1327 999 L 1329 997 L 1330 998 L 1334 998 L 1335 1000 L 1334 1001 L 1333 1000 L 1331 1002 L 1329 1002 Z M 1278 920 L 1277 919 L 1277 917 L 1272 918 L 1270 920 L 1268 919 L 1264 920 L 1262 918 L 1260 918 L 1260 919 L 1262 919 L 1263 920 L 1262 922 L 1260 922 L 1267 922 L 1269 920 L 1271 921 L 1277 921 Z M 1260 817 L 1255 818 L 1249 825 L 1247 825 L 1248 827 L 1250 827 L 1252 824 L 1256 827 L 1255 828 L 1257 827 L 1257 824 L 1259 822 L 1259 818 Z M 226 485 L 309 737 L 320 718 L 311 743 L 339 828 L 389 894 L 465 919 L 519 908 L 542 916 L 506 918 L 837 922 L 834 857 L 771 799 L 760 808 L 763 793 L 550 620 L 383 530 Z M 605 918 L 606 917 L 609 917 L 610 915 L 611 916 L 613 916 L 615 918 L 613 920 L 611 919 L 606 919 Z M 623 914 L 624 913 L 629 913 L 630 914 L 630 918 L 629 919 L 624 919 L 623 918 L 624 917 L 627 917 L 627 916 L 624 916 Z M 620 911 L 622 912 L 622 918 L 621 919 L 619 918 L 619 912 Z M 591 914 L 593 911 L 597 911 L 598 912 L 597 914 L 594 914 L 593 915 Z M 832 910 L 834 910 L 836 914 L 835 915 L 836 920 L 834 922 L 829 921 L 828 920 L 830 917 L 832 917 L 832 916 L 830 916 L 829 915 L 830 912 Z M 672 917 L 670 919 L 653 919 L 652 918 L 651 919 L 633 919 L 632 918 L 633 916 L 631 914 L 636 912 L 642 913 L 644 911 L 646 913 L 648 913 L 651 911 L 652 912 L 656 912 L 657 914 L 658 914 L 660 912 L 660 910 L 661 909 L 663 909 L 666 913 L 665 915 L 662 917 L 664 917 L 666 915 L 671 915 Z M 571 908 L 572 909 L 572 914 L 570 916 L 565 916 L 562 913 L 563 911 L 565 911 L 567 913 L 569 913 L 569 909 Z M 731 909 L 732 908 L 735 909 L 739 907 L 740 908 L 738 910 L 741 916 L 747 918 L 748 917 L 746 914 L 743 913 L 746 909 L 763 911 L 765 909 L 767 911 L 776 911 L 779 913 L 782 911 L 789 911 L 791 909 L 794 913 L 799 914 L 805 911 L 808 911 L 809 910 L 808 908 L 810 907 L 814 911 L 815 915 L 818 912 L 821 913 L 822 915 L 825 913 L 826 919 L 828 920 L 822 921 L 821 918 L 818 918 L 819 920 L 816 921 L 814 918 L 813 921 L 809 921 L 808 920 L 811 918 L 808 918 L 807 921 L 799 921 L 798 920 L 799 918 L 795 921 L 786 921 L 781 919 L 778 922 L 774 921 L 771 918 L 768 921 L 766 917 L 767 915 L 764 915 L 759 918 L 762 920 L 760 922 L 758 921 L 739 922 L 733 917 L 734 915 L 736 915 L 732 913 Z M 730 912 L 730 913 L 728 914 L 728 916 L 730 918 L 729 919 L 726 919 L 725 918 L 725 915 L 723 917 L 721 917 L 719 919 L 716 919 L 715 920 L 698 920 L 697 919 L 695 920 L 689 920 L 687 918 L 688 916 L 686 916 L 685 917 L 683 916 L 683 914 L 684 913 L 686 913 L 693 909 L 694 910 L 693 913 L 697 913 L 700 909 L 701 910 L 701 913 L 706 913 L 708 911 L 713 911 L 716 907 L 718 908 L 718 911 L 717 912 L 721 910 L 729 911 Z M 731 906 L 729 910 L 722 910 L 721 909 L 722 907 L 727 907 L 728 905 L 730 905 Z M 538 905 L 541 905 L 542 906 L 542 912 L 540 914 L 538 914 L 537 913 L 538 910 L 536 910 L 535 909 Z M 427 899 L 428 900 L 429 906 L 428 907 L 426 907 L 425 909 L 423 909 L 422 908 L 425 904 L 425 900 Z M 529 896 L 530 895 L 532 896 L 535 895 L 536 896 L 536 898 L 534 900 L 532 900 Z M 734 893 L 736 895 L 736 898 L 734 900 L 732 900 L 731 899 L 731 896 L 733 895 Z M 400 898 L 403 895 L 406 895 L 409 893 L 411 895 L 415 895 L 417 899 L 415 901 L 413 900 L 411 900 L 410 901 L 408 900 L 406 902 L 404 902 Z M 833 891 L 834 892 L 834 896 L 831 898 L 829 896 L 830 895 L 830 893 Z M 821 891 L 822 893 L 824 894 L 824 897 L 823 898 L 822 898 L 819 894 Z M 763 894 L 765 893 L 766 891 L 770 891 L 771 892 L 770 894 L 768 894 L 766 896 Z M 506 892 L 507 891 L 509 891 L 512 895 L 511 896 L 507 896 L 506 895 Z M 662 890 L 664 891 L 664 895 L 663 896 L 661 896 L 659 894 L 661 893 L 661 891 Z M 829 889 L 830 890 L 828 892 L 828 895 L 826 896 L 825 895 L 825 891 L 827 889 Z M 703 890 L 704 889 L 709 889 L 710 890 L 710 893 L 711 893 L 712 895 L 711 896 L 708 896 Z M 444 888 L 446 889 L 446 891 L 447 892 L 445 895 L 443 894 L 443 889 Z M 781 891 L 781 888 L 782 887 L 786 887 L 787 888 L 787 889 L 786 890 L 784 890 L 783 892 Z M 538 889 L 536 892 L 531 892 L 530 891 L 530 889 L 531 888 L 532 889 L 535 889 L 536 887 Z M 762 884 L 763 883 L 767 883 L 768 884 L 768 887 L 766 888 L 765 886 L 763 886 Z M 512 883 L 514 884 L 512 887 L 514 888 L 514 891 L 513 892 L 512 892 L 510 889 L 510 885 Z M 817 882 L 818 881 L 823 881 L 824 883 L 820 886 Z M 720 880 L 722 881 L 722 887 L 726 887 L 727 888 L 726 890 L 718 890 L 717 889 L 717 888 L 719 887 L 719 884 L 717 883 Z M 704 879 L 706 880 L 706 884 L 710 887 L 709 888 L 706 888 L 703 885 L 703 880 Z M 765 878 L 766 877 L 773 877 L 774 878 L 774 883 L 770 885 L 769 884 L 769 882 L 771 881 L 771 880 L 768 882 Z M 732 878 L 731 880 L 728 880 L 727 882 L 725 881 L 725 879 L 728 876 Z M 695 878 L 696 877 L 699 877 L 699 876 L 701 875 L 704 879 L 703 880 L 697 880 Z M 834 873 L 835 874 L 835 886 L 832 888 L 827 888 L 825 886 L 827 885 L 828 883 L 831 883 L 832 885 L 833 884 L 831 881 L 831 878 L 830 878 L 829 876 L 830 875 L 832 875 Z M 823 874 L 825 873 L 826 874 L 826 877 L 829 877 L 830 879 L 829 880 L 826 880 L 826 881 L 824 882 L 823 881 Z M 675 873 L 677 873 L 678 874 L 678 877 L 677 878 L 675 878 L 673 876 Z M 811 871 L 812 873 L 810 874 L 810 881 L 808 882 L 807 880 L 805 879 L 805 876 L 804 876 L 803 874 L 804 873 L 807 873 L 809 871 Z M 788 871 L 791 871 L 792 872 L 792 874 L 794 876 L 794 879 L 793 880 L 791 879 L 791 877 L 790 877 L 790 879 L 789 880 L 786 880 L 785 879 L 785 878 L 787 877 L 785 874 L 787 873 Z M 758 871 L 760 873 L 760 875 L 758 876 L 757 878 L 755 876 L 755 874 L 757 873 Z M 765 870 L 766 869 L 769 869 L 771 873 L 771 870 L 773 869 L 774 870 L 774 873 L 775 873 L 776 875 L 775 876 L 770 876 Z M 718 869 L 720 870 L 720 873 L 721 873 L 722 871 L 724 872 L 724 875 L 722 876 L 721 878 L 715 873 Z M 799 867 L 800 869 L 798 870 L 798 871 L 800 872 L 798 874 L 798 878 L 796 879 L 795 878 L 795 872 L 793 871 L 796 867 Z M 659 868 L 660 867 L 664 867 L 666 869 L 666 871 L 665 872 Z M 780 865 L 782 867 L 778 871 L 780 872 L 780 874 L 782 876 L 782 878 L 781 879 L 778 878 L 778 880 L 776 882 L 775 881 L 775 876 L 776 875 L 775 873 L 775 868 L 777 867 L 778 865 Z M 680 866 L 676 870 L 671 870 L 669 868 L 670 867 L 673 867 L 675 865 L 679 865 Z M 787 863 L 788 864 L 788 867 L 789 867 L 790 869 L 789 870 L 786 870 L 786 873 L 784 874 L 783 872 L 781 871 L 781 868 L 782 867 L 785 867 L 785 864 Z M 757 860 L 758 859 L 765 859 L 766 860 L 766 863 L 765 864 L 763 863 L 760 864 Z M 723 859 L 725 859 L 726 860 L 726 863 L 725 864 L 722 864 L 721 863 L 721 861 Z M 557 862 L 556 864 L 550 864 L 548 866 L 546 866 L 545 865 L 546 863 L 549 861 L 551 861 L 552 859 L 554 861 L 556 861 Z M 707 860 L 711 857 L 714 861 L 713 862 L 709 862 Z M 699 861 L 699 858 L 700 857 L 701 857 L 702 859 L 703 859 L 704 857 L 706 857 L 708 859 L 704 862 L 700 862 Z M 773 855 L 774 856 L 774 859 L 776 860 L 775 862 L 772 862 L 771 861 L 771 857 Z M 755 855 L 756 856 L 756 862 L 754 864 L 753 863 L 753 856 Z M 728 855 L 730 856 L 730 859 L 732 861 L 731 862 L 728 862 L 727 861 L 727 856 Z M 791 856 L 793 855 L 794 853 L 796 855 L 799 853 L 800 854 L 800 859 L 798 860 L 797 858 L 794 858 L 794 861 L 792 862 L 791 861 Z M 816 854 L 819 852 L 820 853 L 823 853 L 824 855 L 823 856 L 817 856 Z M 677 852 L 678 853 L 678 858 L 676 860 L 673 856 L 675 855 L 675 853 Z M 691 851 L 692 852 L 692 854 L 688 858 L 686 854 L 687 853 L 689 853 Z M 755 851 L 756 850 L 758 851 L 761 850 L 763 852 L 763 854 L 766 857 L 765 858 L 762 858 L 761 857 L 761 854 L 760 854 L 759 856 L 756 856 L 755 855 Z M 721 850 L 722 849 L 728 849 L 730 851 L 729 852 L 722 852 Z M 360 849 L 362 851 L 362 855 L 361 856 L 358 856 L 357 855 L 359 853 L 359 850 Z M 784 847 L 786 848 L 786 854 L 785 855 L 783 854 L 783 848 Z M 583 848 L 584 847 L 587 847 L 590 851 L 589 852 L 586 852 Z M 572 847 L 573 848 L 572 850 L 572 854 L 570 856 L 569 855 L 569 848 L 570 847 Z M 776 847 L 776 849 L 775 850 L 769 850 L 767 848 L 768 847 L 773 847 L 774 846 Z M 787 848 L 788 847 L 791 847 L 792 845 L 796 845 L 797 846 L 796 848 L 794 848 L 796 851 L 795 852 L 790 852 Z M 716 845 L 719 845 L 720 846 L 720 851 L 719 852 L 716 852 L 715 851 L 715 846 Z M 713 845 L 714 846 L 714 851 L 710 854 L 708 850 L 709 848 Z M 804 844 L 806 843 L 808 845 L 812 845 L 813 847 L 812 848 L 806 848 Z M 738 841 L 739 841 L 742 845 L 740 846 L 740 850 L 739 851 L 735 849 L 735 848 L 737 847 L 737 842 Z M 698 847 L 698 845 L 700 841 L 705 841 L 706 842 L 701 848 L 699 848 Z M 692 840 L 693 840 L 694 841 L 694 843 L 696 844 L 696 846 L 694 848 L 693 846 L 691 845 L 691 841 Z M 807 842 L 809 839 L 813 839 L 814 840 L 813 842 L 810 842 L 809 843 Z M 535 840 L 536 839 L 539 841 L 541 841 L 542 843 L 541 844 L 538 844 Z M 665 839 L 667 838 L 672 842 L 667 844 L 665 842 Z M 686 837 L 688 837 L 690 839 L 690 843 L 689 844 L 687 844 L 685 842 L 685 838 Z M 714 833 L 717 833 L 718 834 L 718 836 L 720 838 L 720 841 L 719 842 L 718 842 L 717 840 L 715 840 L 714 839 L 715 836 L 713 835 Z M 711 833 L 712 835 L 714 836 L 712 838 L 710 838 L 710 843 L 709 844 L 707 842 L 707 838 L 706 838 L 705 836 L 706 835 L 709 835 L 709 834 Z M 348 833 L 350 836 L 352 837 L 352 841 L 351 842 L 350 842 L 347 838 L 347 834 Z M 800 834 L 802 832 L 803 834 L 807 837 L 806 838 L 803 838 Z M 498 832 L 503 830 L 504 831 L 504 834 L 502 835 L 501 834 L 499 834 Z M 695 830 L 696 829 L 705 829 L 708 833 L 704 836 L 703 835 L 703 832 L 702 832 L 702 835 L 700 836 L 699 835 L 699 832 L 697 832 Z M 772 833 L 773 829 L 775 827 L 777 827 L 778 829 L 781 829 L 782 828 L 784 829 L 783 831 L 776 832 L 775 834 L 773 834 Z M 731 827 L 732 826 L 737 827 L 738 829 L 734 832 L 733 830 L 731 829 Z M 742 825 L 744 827 L 744 829 L 742 830 L 742 835 L 741 836 L 739 834 L 739 828 Z M 748 824 L 749 823 L 754 823 L 756 825 L 755 826 L 749 826 Z M 658 823 L 661 823 L 662 824 L 662 825 L 660 826 L 662 828 L 661 830 L 657 827 L 657 824 Z M 786 821 L 790 824 L 790 827 L 789 828 L 788 828 L 787 826 L 785 827 L 783 826 Z M 743 821 L 743 818 L 744 817 L 749 817 L 750 818 L 748 820 L 746 820 L 745 822 Z M 718 817 L 720 818 L 721 823 L 719 826 L 717 826 L 716 827 L 717 827 L 722 833 L 725 832 L 726 833 L 726 835 L 725 836 L 720 836 L 719 834 L 718 834 L 713 829 L 713 828 L 711 827 L 711 824 L 712 823 L 716 823 L 717 822 L 717 818 Z M 781 818 L 785 814 L 789 817 L 789 819 L 788 820 L 782 820 Z M 734 813 L 738 819 L 736 820 L 735 822 L 733 820 L 733 814 Z M 685 811 L 688 815 L 686 816 L 686 818 L 684 820 L 681 816 L 683 815 L 683 812 Z M 692 812 L 695 809 L 698 811 L 698 813 L 697 814 L 695 814 Z M 722 808 L 724 809 L 724 811 L 726 813 L 726 815 L 725 816 L 721 813 L 721 809 Z M 598 805 L 602 808 L 602 810 L 600 812 L 597 812 L 596 811 L 597 806 Z M 752 804 L 753 803 L 754 805 L 757 805 L 758 806 L 758 809 L 756 810 L 755 808 L 753 808 L 752 807 Z M 595 801 L 596 802 L 596 807 L 592 810 L 591 809 L 591 806 L 593 804 L 593 802 Z M 723 799 L 724 800 L 724 804 L 720 808 L 719 808 L 718 806 L 721 803 L 721 800 Z M 536 797 L 538 799 L 538 801 L 534 804 L 533 803 L 533 800 L 535 799 Z M 731 793 L 732 795 L 730 796 L 729 798 L 728 798 L 727 796 L 728 799 L 730 800 L 727 804 L 725 802 L 725 799 L 724 798 L 722 798 L 721 796 L 722 795 L 724 795 L 726 793 Z M 645 795 L 647 793 L 652 793 L 653 794 L 652 796 L 650 796 L 649 797 Z M 615 794 L 616 793 L 621 793 L 622 795 L 620 796 L 619 798 Z M 739 792 L 740 791 L 743 791 L 744 792 L 744 795 L 743 796 L 741 796 L 739 794 Z M 679 791 L 680 793 L 678 794 L 678 797 L 677 798 L 675 796 L 675 793 L 677 791 Z M 750 789 L 751 789 L 752 791 L 754 790 L 758 795 L 757 796 L 754 796 L 755 797 L 757 797 L 758 799 L 757 800 L 755 800 L 753 802 L 752 801 L 751 796 L 748 796 L 747 795 L 747 794 L 749 793 L 749 790 Z M 698 787 L 700 788 L 700 791 L 702 792 L 701 794 L 698 794 L 697 793 L 697 788 Z M 613 786 L 614 785 L 621 785 L 622 787 L 621 788 L 615 788 Z M 591 787 L 591 785 L 592 784 L 594 785 L 599 785 L 600 786 L 596 790 L 595 788 L 592 788 Z M 727 783 L 728 784 L 728 787 L 730 788 L 729 790 L 727 790 L 724 787 Z M 695 783 L 697 783 L 698 784 L 698 787 L 697 788 L 695 788 L 693 786 Z M 638 783 L 642 783 L 645 785 L 644 786 L 644 792 L 642 794 L 646 796 L 644 798 L 640 798 L 639 797 L 639 792 L 641 791 L 641 790 L 639 789 L 639 786 L 637 784 Z M 605 784 L 607 783 L 609 785 L 611 785 L 612 787 L 611 788 L 608 788 Z M 742 781 L 744 782 L 746 785 L 746 787 L 748 788 L 745 792 L 743 791 L 743 786 L 741 785 L 741 782 Z M 731 782 L 733 781 L 734 783 L 738 786 L 737 787 L 732 786 L 731 785 Z M 700 779 L 702 780 L 702 787 L 701 788 L 699 787 L 699 780 Z M 326 780 L 327 779 L 328 780 L 331 779 L 334 783 L 334 787 L 333 788 L 331 787 L 331 785 L 332 784 L 331 783 L 327 784 L 326 783 Z M 542 771 L 546 774 L 543 778 L 541 777 L 541 772 Z M 327 768 L 330 770 L 328 772 L 328 774 L 325 778 L 323 774 L 325 773 L 325 769 Z M 477 765 L 478 766 L 478 773 L 476 774 L 475 773 L 475 767 Z M 647 762 L 648 761 L 651 761 L 652 762 L 652 764 L 649 766 L 647 764 Z M 505 741 L 506 742 L 506 745 L 508 746 L 506 748 L 504 748 L 503 747 L 503 743 Z M 319 741 L 322 747 L 320 748 L 320 751 L 317 753 L 316 752 L 316 750 L 317 749 L 317 742 Z M 551 729 L 553 730 L 552 733 L 554 734 L 554 736 L 553 737 L 549 735 L 549 731 Z M 582 726 L 584 729 L 584 733 L 583 734 L 581 733 L 581 730 L 580 729 Z M 311 719 L 312 720 L 307 726 L 306 725 L 307 720 L 308 719 Z M 370 705 L 371 707 L 367 711 L 366 711 L 365 710 L 365 708 Z M 585 703 L 587 701 L 591 701 L 592 702 L 589 706 Z M 551 703 L 553 701 L 556 705 L 559 705 L 560 707 L 559 708 L 554 708 L 553 706 L 551 705 Z M 298 702 L 298 699 L 299 698 L 303 698 L 304 699 L 301 703 L 299 703 Z M 494 697 L 495 699 L 494 700 L 492 700 L 492 701 L 490 702 L 489 701 L 489 699 L 491 697 Z M 513 691 L 515 689 L 521 689 L 522 690 L 519 694 L 516 694 L 515 692 Z M 514 674 L 516 673 L 520 677 L 520 679 L 518 680 Z M 279 638 L 283 640 L 283 645 L 281 647 L 278 641 L 278 639 Z M 271 590 L 273 594 L 268 596 L 267 594 L 269 591 Z M 268 576 L 269 575 L 271 575 L 273 577 L 275 577 L 276 578 L 270 582 L 269 581 Z M 244 538 L 245 537 L 249 537 L 252 535 L 254 537 L 254 542 L 252 543 L 250 539 L 245 540 Z M 267 503 L 269 503 L 270 504 L 270 509 L 269 510 L 267 508 L 267 506 L 266 505 Z M 278 500 L 283 500 L 284 501 L 284 507 L 282 508 L 281 510 L 278 507 L 281 505 L 281 502 L 278 502 L 277 501 Z M 1821 482 L 1655 533 L 1493 622 L 1419 680 L 1417 694 L 1415 684 L 1391 716 L 1379 713 L 1375 735 L 1372 719 L 1327 757 L 1327 772 L 1317 765 L 1301 778 L 1310 785 L 1267 807 L 1264 831 L 1245 836 L 1258 836 L 1255 848 L 1237 847 L 1240 831 L 1225 845 L 1235 856 L 1217 853 L 1210 922 L 1256 922 L 1249 913 L 1262 907 L 1283 922 L 1552 907 L 1595 916 L 1485 918 L 1594 918 L 1653 898 L 1704 841 Z M 1439 915 L 1440 914 L 1445 915 L 1448 918 L 1447 919 L 1440 919 L 1439 918 Z M 1395 913 L 1396 914 L 1392 919 L 1390 919 L 1389 918 L 1391 916 L 1391 914 L 1392 913 Z M 1367 915 L 1370 911 L 1373 911 L 1374 913 L 1377 911 L 1379 913 L 1378 914 L 1378 917 L 1379 918 L 1378 919 L 1374 919 L 1373 918 L 1373 916 L 1368 916 Z M 1362 910 L 1365 910 L 1366 911 L 1366 918 L 1365 919 L 1362 919 L 1361 918 L 1363 916 L 1360 914 L 1360 912 Z M 1345 913 L 1347 911 L 1349 911 L 1350 910 L 1354 912 L 1354 914 L 1353 915 L 1348 914 L 1347 916 Z M 1248 917 L 1247 918 L 1245 918 L 1243 916 L 1238 916 L 1234 918 L 1232 916 L 1231 912 L 1233 911 L 1234 912 L 1234 914 L 1236 914 L 1238 911 L 1241 911 L 1242 913 L 1243 913 L 1243 912 L 1246 910 L 1248 913 Z M 1401 910 L 1402 911 L 1402 915 L 1401 916 L 1398 916 L 1398 917 L 1396 918 L 1395 917 L 1396 915 L 1395 911 L 1397 909 L 1398 911 Z M 1379 910 L 1380 909 L 1382 911 L 1385 911 L 1387 913 L 1387 915 L 1383 918 L 1380 918 L 1379 917 Z M 1343 912 L 1342 915 L 1339 918 L 1337 917 L 1338 914 L 1336 914 L 1336 916 L 1334 918 L 1331 918 L 1328 916 L 1324 916 L 1322 914 L 1324 912 L 1325 913 L 1331 912 L 1332 913 L 1331 915 L 1332 913 L 1335 911 L 1339 911 L 1340 909 L 1341 909 Z M 1301 909 L 1303 909 L 1304 910 L 1302 912 L 1306 915 L 1305 916 L 1302 916 L 1299 913 L 1299 911 Z M 1232 910 L 1232 911 L 1229 913 L 1229 916 L 1230 917 L 1230 919 L 1233 919 L 1234 920 L 1233 921 L 1213 921 L 1212 920 L 1215 915 L 1216 916 L 1216 919 L 1218 919 L 1219 918 L 1220 919 L 1227 918 L 1224 918 L 1222 916 L 1220 916 L 1219 914 L 1220 913 L 1225 913 L 1229 909 L 1231 909 Z M 1219 910 L 1223 907 L 1226 911 L 1225 912 L 1220 912 Z M 1442 906 L 1443 905 L 1446 905 L 1448 907 L 1446 908 L 1446 910 L 1444 911 Z M 1404 905 L 1406 907 L 1406 911 L 1408 912 L 1408 914 L 1406 916 L 1403 914 L 1403 906 Z M 1562 904 L 1563 903 L 1565 903 L 1566 905 L 1568 906 L 1568 908 L 1566 910 Z M 1543 903 L 1544 904 L 1544 906 L 1541 910 L 1539 908 L 1539 905 L 1541 903 Z M 1595 901 L 1597 900 L 1600 903 L 1600 905 L 1599 906 L 1596 906 L 1595 905 Z M 1243 900 L 1244 899 L 1247 899 L 1250 903 L 1249 904 L 1246 904 Z M 1566 899 L 1561 903 L 1558 903 L 1557 902 L 1559 901 L 1562 897 L 1564 897 Z M 1241 897 L 1242 898 L 1242 901 L 1241 902 L 1238 902 L 1238 903 L 1236 904 L 1235 903 L 1235 901 L 1239 897 Z M 1396 896 L 1401 894 L 1403 895 L 1404 897 L 1409 897 L 1410 898 L 1410 901 L 1409 902 L 1407 900 L 1402 900 L 1400 898 L 1397 898 Z M 1454 892 L 1451 896 L 1448 896 L 1447 895 L 1448 893 L 1450 893 L 1452 891 Z M 1375 891 L 1376 893 L 1374 894 L 1374 896 L 1371 900 L 1369 898 L 1369 896 L 1371 895 L 1371 892 L 1372 891 Z M 1313 892 L 1315 891 L 1316 893 L 1321 893 L 1322 894 L 1320 896 L 1315 896 L 1313 894 Z M 1439 891 L 1441 889 L 1442 891 L 1444 891 L 1446 893 L 1445 894 L 1440 894 L 1439 893 Z M 1241 891 L 1242 889 L 1249 889 L 1250 890 L 1246 894 L 1245 892 L 1242 892 Z M 1530 885 L 1534 888 L 1534 891 L 1533 892 L 1529 888 L 1529 886 Z M 1263 883 L 1265 881 L 1269 881 L 1272 885 L 1271 886 L 1269 886 L 1267 884 L 1264 884 Z M 1243 883 L 1245 881 L 1250 881 L 1251 882 L 1251 883 L 1250 884 L 1248 884 L 1247 886 Z M 1446 880 L 1447 879 L 1452 879 L 1454 881 L 1454 883 L 1453 884 L 1450 881 L 1447 881 Z M 1347 879 L 1349 879 L 1350 880 L 1350 885 L 1349 886 L 1347 884 L 1347 882 L 1345 881 Z M 1282 879 L 1286 882 L 1283 886 L 1279 883 Z M 1227 879 L 1228 880 L 1228 883 L 1226 885 L 1226 887 L 1225 888 L 1222 888 L 1222 889 L 1220 890 L 1219 889 L 1219 885 L 1221 883 L 1222 885 L 1225 882 L 1224 880 L 1225 879 Z M 1338 873 L 1341 873 L 1342 874 L 1342 879 L 1344 880 L 1343 882 L 1341 882 L 1339 880 L 1339 876 L 1337 875 Z M 1303 871 L 1304 872 L 1304 875 L 1305 875 L 1306 877 L 1305 878 L 1302 878 L 1302 881 L 1301 882 L 1298 882 L 1297 881 L 1299 879 L 1299 872 L 1300 871 Z M 1255 875 L 1258 871 L 1260 873 L 1263 871 L 1264 872 L 1264 874 L 1262 876 L 1256 876 Z M 1364 869 L 1367 869 L 1368 870 L 1368 875 L 1370 876 L 1370 878 L 1369 879 L 1365 877 L 1365 873 L 1363 871 Z M 1679 864 L 1681 863 L 1683 865 L 1685 865 L 1686 867 L 1680 870 L 1679 869 Z M 1370 864 L 1370 867 L 1369 868 L 1362 868 L 1361 867 L 1364 864 L 1367 865 L 1368 863 Z M 1331 863 L 1333 863 L 1334 864 L 1334 867 L 1333 868 L 1331 868 L 1329 866 Z M 1336 859 L 1338 860 L 1338 865 L 1337 866 L 1333 863 Z M 1433 858 L 1434 860 L 1430 864 L 1429 864 L 1427 861 L 1429 859 Z M 1217 859 L 1218 858 L 1223 859 L 1224 861 L 1223 862 L 1220 862 L 1219 864 Z M 1399 857 L 1401 857 L 1402 858 L 1402 861 L 1400 863 L 1398 863 L 1397 862 Z M 1382 858 L 1383 857 L 1387 857 L 1388 859 L 1384 862 Z M 1255 859 L 1257 857 L 1259 857 L 1262 861 L 1258 863 L 1255 861 Z M 1299 859 L 1300 857 L 1303 857 L 1304 855 L 1309 855 L 1310 856 L 1309 858 L 1306 858 L 1305 860 L 1300 860 Z M 1236 855 L 1241 855 L 1242 856 L 1241 858 L 1238 858 L 1240 860 L 1239 862 L 1238 862 L 1235 858 L 1235 856 Z M 1390 853 L 1392 854 L 1392 861 L 1391 862 L 1389 861 L 1389 858 L 1387 857 Z M 1381 853 L 1382 855 L 1380 856 L 1380 858 L 1378 859 L 1377 858 L 1377 855 L 1379 853 Z M 1363 854 L 1364 853 L 1367 853 L 1368 855 L 1371 855 L 1372 857 L 1374 857 L 1376 859 L 1376 861 L 1374 862 L 1373 860 L 1370 860 L 1369 862 L 1367 860 L 1367 858 L 1366 858 Z M 1274 853 L 1276 854 L 1276 859 L 1277 860 L 1275 863 L 1273 862 L 1273 854 Z M 1316 851 L 1320 854 L 1320 858 L 1317 861 L 1315 860 L 1315 858 L 1317 857 L 1314 858 L 1313 860 L 1311 858 L 1311 856 L 1312 855 L 1314 855 Z M 1276 851 L 1278 851 L 1282 854 L 1282 857 L 1284 855 L 1286 856 L 1286 859 L 1284 860 L 1284 861 L 1286 862 L 1282 866 L 1279 864 L 1281 863 L 1281 860 L 1278 860 L 1277 859 L 1279 856 L 1275 853 Z M 1327 849 L 1328 851 L 1330 852 L 1328 854 L 1328 860 L 1325 863 L 1318 864 L 1317 863 L 1321 859 L 1321 856 L 1325 853 L 1325 850 Z M 1298 850 L 1298 852 L 1296 854 L 1291 854 L 1289 852 L 1290 851 L 1295 851 L 1297 849 Z M 1419 846 L 1420 845 L 1423 847 L 1423 844 L 1425 843 L 1426 844 L 1426 847 L 1428 848 L 1426 850 L 1421 850 L 1419 848 Z M 1314 842 L 1314 847 L 1313 848 L 1306 848 L 1305 847 L 1305 844 L 1306 843 L 1307 843 L 1308 845 L 1311 845 L 1311 842 L 1312 841 Z M 1390 840 L 1395 841 L 1396 842 L 1396 845 L 1395 846 L 1392 844 L 1392 845 L 1394 846 L 1393 848 L 1388 848 L 1386 845 L 1386 844 Z M 1373 839 L 1374 840 L 1374 842 L 1372 844 L 1372 847 L 1370 848 L 1369 847 L 1369 844 L 1368 844 L 1367 842 Z M 1285 844 L 1287 843 L 1287 840 L 1289 839 L 1290 841 L 1292 842 L 1292 843 L 1290 844 L 1294 843 L 1296 845 L 1296 847 L 1294 849 L 1292 849 L 1288 846 L 1286 846 Z M 1233 839 L 1236 841 L 1234 843 L 1234 845 L 1235 845 L 1236 847 L 1235 848 L 1233 847 L 1230 848 L 1227 844 Z M 1283 833 L 1284 834 L 1284 837 L 1280 840 L 1279 839 L 1279 837 Z M 1304 834 L 1304 836 L 1302 838 L 1299 836 L 1294 836 L 1293 835 L 1294 833 L 1299 833 L 1299 831 L 1301 829 L 1302 830 L 1302 833 Z M 1291 830 L 1291 831 L 1290 832 L 1288 832 L 1287 834 L 1284 834 L 1283 833 L 1283 832 L 1287 829 L 1290 829 Z M 1303 828 L 1305 827 L 1306 829 L 1309 829 L 1310 830 L 1308 832 L 1304 832 L 1303 831 Z M 1328 827 L 1326 828 L 1326 829 L 1328 830 L 1327 832 L 1320 832 L 1319 831 L 1320 829 L 1323 829 L 1323 827 L 1325 825 Z M 1323 821 L 1324 822 L 1321 825 L 1320 829 L 1318 830 L 1317 829 L 1317 826 L 1321 821 Z M 1269 822 L 1271 821 L 1272 823 L 1274 823 L 1276 825 L 1276 827 L 1274 828 L 1273 826 L 1272 826 L 1272 827 L 1270 828 L 1269 827 Z M 1313 819 L 1314 820 L 1314 822 L 1310 825 L 1307 822 L 1308 821 L 1311 821 L 1311 820 Z M 1316 811 L 1319 811 L 1320 812 L 1320 813 L 1318 814 L 1318 817 L 1319 818 L 1318 820 L 1316 820 L 1315 819 L 1315 816 L 1313 814 L 1315 813 Z M 1401 809 L 1402 810 L 1402 813 L 1398 816 L 1397 815 L 1397 812 Z M 1390 809 L 1392 809 L 1394 811 L 1394 815 L 1393 816 L 1391 814 L 1391 812 L 1389 811 Z M 1329 812 L 1331 811 L 1332 809 L 1333 809 L 1334 811 L 1333 809 L 1334 807 L 1340 811 L 1342 811 L 1343 813 L 1342 814 L 1340 814 L 1339 816 L 1338 816 L 1337 815 L 1337 813 L 1336 813 L 1336 815 L 1334 816 L 1333 814 L 1331 814 Z M 1278 807 L 1279 809 L 1277 810 L 1277 811 L 1278 811 L 1279 813 L 1277 816 L 1273 816 L 1274 820 L 1272 822 L 1271 821 L 1271 819 L 1269 817 L 1270 814 L 1267 812 L 1269 811 L 1268 809 L 1271 807 Z M 1380 805 L 1382 807 L 1382 809 L 1380 810 L 1380 813 L 1381 813 L 1381 810 L 1382 809 L 1386 812 L 1382 816 L 1379 816 L 1377 814 L 1377 812 L 1375 811 Z M 1389 806 L 1393 804 L 1396 806 L 1396 808 L 1395 809 L 1390 808 Z M 1344 803 L 1343 804 L 1341 804 L 1339 806 L 1337 806 L 1336 805 L 1336 804 L 1340 801 L 1342 801 Z M 1283 800 L 1284 799 L 1290 799 L 1292 801 L 1291 802 L 1285 803 Z M 1300 798 L 1301 796 L 1303 795 L 1306 799 L 1305 800 L 1301 800 Z M 1428 793 L 1430 798 L 1428 800 L 1426 800 L 1425 799 L 1425 796 L 1427 795 Z M 1423 793 L 1424 794 L 1424 801 L 1422 802 L 1421 801 L 1421 795 Z M 1320 793 L 1321 793 L 1324 797 L 1322 798 L 1321 800 L 1316 799 L 1315 797 L 1316 796 L 1319 797 L 1319 794 Z M 1717 791 L 1718 792 L 1718 794 L 1715 797 L 1714 801 L 1712 802 L 1710 799 L 1712 796 L 1711 795 L 1711 793 L 1713 791 Z M 1321 790 L 1322 789 L 1325 789 L 1326 791 L 1328 792 L 1328 794 L 1326 796 L 1324 796 L 1323 795 L 1323 792 L 1322 792 Z M 1359 794 L 1360 792 L 1360 788 L 1361 787 L 1363 787 L 1364 789 L 1362 790 L 1362 791 L 1365 789 L 1366 790 L 1366 792 L 1364 794 L 1362 794 L 1361 795 Z M 1333 790 L 1337 787 L 1338 789 L 1342 789 L 1344 791 L 1344 793 L 1342 794 L 1341 792 L 1338 792 L 1338 795 L 1336 796 L 1335 795 L 1335 792 L 1334 792 Z M 1292 787 L 1294 787 L 1296 790 L 1296 792 L 1294 794 L 1292 794 L 1291 793 L 1291 788 Z M 1465 787 L 1467 785 L 1472 785 L 1473 786 L 1470 790 L 1468 790 L 1467 788 Z M 1455 789 L 1455 787 L 1457 785 L 1461 785 L 1462 786 L 1460 788 L 1458 788 L 1457 790 Z M 1399 782 L 1400 781 L 1405 781 L 1408 785 L 1407 786 L 1405 786 L 1402 784 L 1402 785 L 1400 786 L 1399 785 Z M 1382 781 L 1384 781 L 1385 782 L 1384 784 L 1386 787 L 1385 788 L 1380 788 L 1379 787 L 1379 786 L 1381 785 L 1381 782 Z M 1446 779 L 1448 781 L 1448 783 L 1449 784 L 1448 786 L 1443 783 Z M 1364 779 L 1366 780 L 1366 787 L 1365 788 L 1361 785 L 1361 783 Z M 1373 778 L 1374 777 L 1379 777 L 1380 779 L 1376 782 Z M 1367 778 L 1369 777 L 1370 779 L 1373 779 L 1374 781 L 1373 782 L 1370 782 L 1370 783 L 1368 784 L 1367 783 Z M 1343 777 L 1344 778 L 1344 780 L 1342 782 L 1340 782 L 1339 784 L 1337 782 L 1337 780 L 1338 779 L 1341 779 L 1341 778 Z M 1520 776 L 1520 779 L 1519 780 L 1514 780 L 1513 779 L 1514 777 L 1517 777 L 1519 775 Z M 1418 775 L 1420 777 L 1414 784 L 1411 784 L 1410 782 L 1411 781 L 1413 781 L 1415 777 Z M 1360 776 L 1360 779 L 1358 780 L 1359 782 L 1358 784 L 1355 782 L 1355 780 L 1350 780 L 1349 779 L 1350 777 L 1357 777 L 1358 775 Z M 1327 775 L 1328 776 L 1328 779 L 1324 782 L 1323 781 L 1323 778 L 1321 777 L 1324 775 Z M 1382 773 L 1384 773 L 1385 774 L 1384 779 L 1383 780 L 1381 779 L 1381 774 Z M 1362 772 L 1363 771 L 1365 771 L 1366 773 L 1369 773 L 1370 775 L 1366 778 L 1365 776 L 1363 775 Z M 1370 769 L 1374 772 L 1374 777 L 1373 778 L 1370 778 L 1369 777 L 1369 776 L 1371 775 L 1371 773 L 1369 771 Z M 1397 768 L 1399 767 L 1400 769 L 1403 769 L 1404 771 L 1400 774 L 1399 772 L 1397 771 Z M 1726 767 L 1724 770 L 1721 770 L 1719 772 L 1717 772 L 1715 770 L 1717 767 L 1723 767 L 1724 765 Z M 1343 766 L 1345 765 L 1346 763 L 1348 765 L 1351 763 L 1354 765 L 1348 770 L 1347 768 L 1345 768 Z M 1397 761 L 1398 763 L 1396 764 L 1396 767 L 1394 768 L 1393 767 L 1393 762 L 1394 761 Z M 1334 761 L 1338 764 L 1338 767 L 1337 768 L 1335 768 L 1333 766 L 1333 762 Z M 1337 761 L 1339 759 L 1340 761 L 1343 761 L 1344 763 L 1343 764 L 1338 764 L 1337 763 Z M 1453 759 L 1456 755 L 1459 755 L 1460 756 L 1460 757 L 1456 760 L 1454 760 Z M 1345 754 L 1347 753 L 1348 755 L 1351 755 L 1352 757 L 1351 758 L 1346 758 L 1345 757 Z M 1340 751 L 1344 754 L 1342 757 L 1344 758 L 1343 760 L 1340 760 L 1339 759 L 1339 756 L 1340 755 L 1339 752 Z M 1359 745 L 1360 746 L 1361 751 L 1358 753 L 1356 753 L 1353 748 L 1354 747 L 1357 748 L 1357 746 Z M 1589 743 L 1590 745 L 1591 745 L 1592 743 L 1594 745 L 1594 749 L 1593 750 L 1587 746 Z M 1730 738 L 1731 739 L 1731 743 L 1733 744 L 1732 745 L 1729 745 L 1727 743 L 1727 741 Z M 1438 737 L 1439 736 L 1445 735 L 1447 739 L 1442 741 Z M 1357 735 L 1360 737 L 1358 739 L 1358 741 L 1356 742 L 1355 741 L 1355 737 Z M 1437 722 L 1439 721 L 1442 725 L 1438 727 L 1437 726 Z M 1745 701 L 1747 704 L 1747 707 L 1746 708 L 1743 706 L 1743 703 Z M 1397 705 L 1397 701 L 1400 698 L 1402 699 L 1407 699 L 1410 702 L 1409 704 L 1404 704 L 1403 702 L 1401 702 L 1400 703 L 1402 706 L 1401 708 Z M 1545 699 L 1545 696 L 1546 695 L 1551 695 L 1552 696 L 1550 698 L 1548 698 L 1547 700 Z M 1540 691 L 1542 692 L 1542 696 L 1544 698 L 1543 700 L 1541 699 L 1538 700 L 1537 699 L 1537 697 L 1539 695 L 1539 692 Z M 1515 673 L 1515 670 L 1516 669 L 1521 669 L 1522 670 L 1521 672 L 1518 672 L 1517 674 Z M 1564 667 L 1566 668 L 1566 675 L 1565 676 L 1563 675 L 1563 668 Z M 1544 655 L 1545 655 L 1548 659 L 1548 664 L 1547 665 L 1545 664 L 1545 660 L 1543 658 L 1543 656 Z M 1762 651 L 1763 652 L 1763 657 L 1762 658 L 1762 660 L 1760 662 L 1759 661 L 1759 658 L 1757 657 L 1759 655 L 1761 655 L 1760 652 Z M 1765 639 L 1766 641 L 1762 644 L 1763 649 L 1762 650 L 1760 650 L 1759 649 L 1759 642 L 1761 640 Z M 1550 589 L 1551 591 L 1548 593 L 1548 595 L 1550 596 L 1550 598 L 1548 599 L 1544 595 L 1544 593 Z M 1605 559 L 1607 557 L 1609 557 L 1612 561 L 1611 562 L 1609 562 Z M 1717 518 L 1717 516 L 1718 515 L 1723 515 L 1724 516 L 1723 518 L 1720 518 L 1719 519 Z M 1832 363 L 1809 351 L 1713 358 L 1483 487 L 1427 567 L 1435 571 L 1417 582 L 1424 589 L 1416 594 L 1415 585 L 1408 607 L 1401 605 L 1358 672 L 1343 681 L 1348 689 L 1338 687 L 1315 721 L 1381 670 L 1374 667 L 1429 632 L 1422 632 L 1428 623 L 1433 630 L 1479 589 L 1557 546 L 1548 543 L 1681 488 L 1802 454 L 1796 448 L 1835 443 Z M 1361 670 L 1365 667 L 1366 669 L 1367 669 L 1368 667 L 1370 669 L 1370 672 L 1369 673 L 1366 673 L 1365 672 L 1362 672 Z M 1379 658 L 1383 661 L 1380 665 L 1378 664 L 1378 662 L 1377 661 Z M 1373 656 L 1375 661 L 1374 662 L 1372 662 L 1372 663 L 1370 664 L 1369 662 L 1367 661 L 1372 656 Z M 1383 659 L 1383 654 L 1385 653 L 1386 651 L 1387 651 L 1390 655 L 1395 655 L 1396 656 L 1395 657 L 1392 657 L 1390 659 L 1388 658 L 1386 660 L 1384 660 Z M 1404 628 L 1403 629 L 1400 629 L 1401 630 L 1400 632 L 1395 632 L 1393 630 L 1393 628 L 1394 627 L 1397 629 L 1397 627 L 1399 625 L 1401 625 Z M 1403 619 L 1402 621 L 1398 620 L 1399 622 L 1398 624 L 1396 624 L 1395 622 L 1393 623 L 1392 622 L 1392 621 L 1397 617 L 1401 617 Z M 1462 591 L 1464 593 L 1458 598 L 1457 597 L 1457 594 L 1459 593 L 1460 591 Z M 1469 591 L 1470 590 L 1474 590 L 1475 591 L 1475 593 L 1474 594 L 1470 594 L 1469 593 Z M 1423 579 L 1426 583 L 1424 584 L 1423 586 L 1420 583 Z M 1499 576 L 1496 580 L 1493 580 L 1491 582 L 1487 579 L 1488 577 L 1492 577 L 1495 575 L 1498 575 Z M 1520 547 L 1522 547 L 1523 548 L 1522 550 L 1522 554 L 1521 555 L 1519 552 L 1519 548 Z M 1541 543 L 1542 544 L 1542 549 L 1539 551 L 1538 550 L 1539 548 L 1539 544 Z M 1599 519 L 1599 518 L 1602 516 L 1605 516 L 1606 517 L 1604 518 L 1605 520 L 1604 521 Z M 1784 448 L 1785 447 L 1791 447 L 1792 449 L 1791 450 L 1789 450 L 1788 449 L 1785 450 Z M 1559 445 L 1562 443 L 1565 447 L 1564 448 L 1560 448 L 1559 447 Z M 1558 443 L 1554 446 L 1552 449 L 1550 450 L 1548 449 L 1554 443 L 1556 442 Z M 1560 441 L 1563 437 L 1565 437 L 1566 439 L 1569 439 L 1570 440 L 1566 444 Z M 1777 430 L 1777 428 L 1780 426 L 1783 428 L 1782 430 L 1780 430 L 1779 431 Z M 1599 420 L 1600 421 L 1598 424 L 1599 427 L 1598 428 L 1596 428 L 1595 427 L 1595 423 Z M 1784 407 L 1787 407 L 1788 409 L 1790 410 L 1790 412 L 1786 416 L 1785 415 L 1785 412 L 1784 412 L 1783 414 L 1779 414 L 1778 413 L 1778 412 L 1779 411 L 1781 411 Z M 1629 402 L 1631 407 L 1627 410 L 1625 410 L 1624 408 L 1626 407 L 1626 404 Z M 1743 403 L 1745 401 L 1750 401 L 1751 402 L 1750 404 L 1748 404 L 1747 405 Z M 1780 397 L 1784 400 L 1784 401 L 1782 402 L 1782 405 L 1781 406 L 1779 404 L 1779 398 Z M 1796 395 L 1798 397 L 1798 401 L 1800 403 L 1799 404 L 1797 404 L 1795 402 L 1795 396 Z M 1654 394 L 1655 393 L 1661 393 L 1662 394 L 1662 399 L 1661 400 L 1659 400 L 1658 399 L 1658 397 L 1657 396 L 1655 396 Z M 1743 366 L 1744 365 L 1747 365 L 1747 362 L 1748 361 L 1752 364 L 1752 366 L 1750 368 L 1744 367 Z M 1709 361 L 1711 361 L 1712 362 L 1712 364 L 1711 365 L 1712 366 L 1711 367 L 1708 367 L 1707 366 L 1707 363 Z M 215 362 L 213 443 L 305 465 L 495 542 L 492 548 L 551 584 L 561 579 L 560 590 L 652 660 L 657 649 L 658 659 L 667 655 L 669 666 L 663 658 L 657 664 L 693 693 L 695 686 L 731 724 L 668 636 L 659 638 L 664 630 L 561 484 L 540 471 L 528 478 L 523 463 L 533 467 L 500 446 L 509 455 L 496 460 L 498 445 L 488 438 L 482 444 L 482 435 L 456 419 L 448 430 L 449 415 L 333 359 L 229 352 L 220 370 Z M 702 681 L 703 682 L 703 692 L 701 693 L 699 691 L 701 688 L 699 686 L 699 684 Z M 686 677 L 688 679 L 689 683 L 685 685 L 684 683 L 685 682 L 685 678 Z M 677 673 L 678 671 L 681 671 L 682 669 L 684 669 L 686 671 L 688 670 L 689 671 L 688 674 L 686 676 L 683 676 L 681 673 L 679 674 Z M 649 642 L 651 641 L 652 639 L 655 639 L 656 641 L 654 642 L 657 641 L 658 642 L 658 645 L 654 647 L 653 645 Z M 657 630 L 658 631 L 658 638 L 656 640 L 655 639 L 655 635 L 656 634 L 655 631 Z M 585 600 L 586 599 L 588 599 L 590 600 L 592 603 L 590 604 L 588 602 L 586 602 Z M 569 590 L 571 589 L 573 591 L 575 591 L 576 593 L 575 594 L 573 594 L 572 593 L 570 594 L 569 593 Z M 537 566 L 538 565 L 541 565 L 544 570 L 542 571 Z M 591 531 L 593 530 L 597 536 L 596 537 L 595 536 L 592 536 L 591 535 Z M 549 494 L 551 493 L 552 491 L 553 491 L 554 493 L 557 491 L 558 493 L 560 493 L 562 495 L 562 499 L 561 500 L 559 498 L 559 496 L 550 496 Z M 349 480 L 351 479 L 353 481 L 359 481 L 361 479 L 362 480 L 362 482 L 360 484 L 351 484 L 349 482 Z M 543 475 L 546 477 L 544 478 L 542 481 L 542 483 L 540 484 L 539 483 L 539 481 L 537 482 L 536 480 L 540 475 Z M 511 478 L 515 475 L 518 479 L 517 480 L 512 480 Z M 293 464 L 295 463 L 296 465 L 297 465 L 297 464 L 299 463 L 300 464 L 300 466 L 299 467 L 295 467 Z M 515 466 L 517 462 L 518 464 L 521 464 L 522 465 L 519 468 L 517 468 Z M 255 456 L 260 451 L 262 451 L 265 453 L 268 457 L 271 456 L 274 458 L 272 460 L 270 459 L 265 459 L 264 458 L 264 456 L 262 456 L 261 454 L 262 456 L 261 457 L 256 457 Z M 252 447 L 254 447 L 256 449 L 256 452 L 254 454 L 252 453 L 252 450 L 251 449 Z M 226 446 L 227 445 L 229 445 L 232 441 L 234 443 L 234 448 L 236 446 L 239 446 L 242 450 L 244 447 L 246 447 L 247 446 L 247 444 L 248 443 L 250 446 L 250 448 L 247 450 L 248 453 L 252 453 L 253 454 L 252 455 L 247 455 L 245 453 L 239 453 L 238 451 L 232 451 L 231 449 L 228 450 Z M 472 439 L 474 441 L 474 445 L 473 446 L 471 446 L 470 445 L 471 440 Z M 251 440 L 252 439 L 255 439 L 256 440 L 256 442 L 254 444 L 252 444 L 251 443 Z M 220 437 L 222 438 L 224 437 L 225 438 L 225 443 L 223 445 L 220 445 L 219 444 L 220 443 L 219 444 L 217 444 L 216 443 L 216 442 L 219 440 L 219 438 Z M 211 424 L 213 427 L 212 428 L 212 434 L 211 435 L 210 434 L 210 425 Z M 226 423 L 228 425 L 228 429 L 230 430 L 228 433 L 231 433 L 232 434 L 231 436 L 228 436 L 227 437 L 225 436 L 225 424 Z M 247 406 L 248 405 L 251 405 L 252 406 L 252 409 L 254 409 L 256 411 L 255 412 L 251 412 Z M 210 400 L 211 399 L 213 401 L 217 400 L 218 401 L 218 403 L 216 404 L 215 406 L 210 402 Z M 257 387 L 261 383 L 264 383 L 267 385 L 264 388 L 258 388 Z M 236 362 L 239 365 L 235 368 L 233 365 Z M 230 355 L 231 354 L 237 354 L 238 355 L 236 356 L 236 359 L 235 360 L 233 358 L 233 356 L 231 356 Z" fill-rule="evenodd"/>
<path fill="#ECE2C6" d="M 1499 1414 L 1499 1416 L 1501 1418 L 1504 1418 L 1509 1420 L 1509 1418 L 1506 1418 L 1505 1417 L 1505 1415 Z M 1523 1390 L 1520 1390 L 1519 1388 L 1518 1388 L 1517 1386 L 1514 1384 L 1516 1386 L 1517 1390 L 1513 1394 L 1511 1393 L 1512 1390 L 1511 1392 L 1508 1390 L 1510 1393 L 1509 1394 L 1503 1394 L 1503 1395 L 1509 1395 L 1509 1394 L 1511 1393 L 1512 1394 L 1512 1397 L 1510 1398 L 1510 1399 L 1511 1399 L 1511 1398 L 1513 1397 L 1513 1394 L 1514 1393 L 1516 1394 L 1516 1397 L 1519 1397 L 1519 1396 L 1517 1395 L 1517 1390 L 1518 1389 L 1519 1389 L 1520 1391 L 1522 1391 Z M 527 1380 L 524 1382 L 523 1380 L 521 1379 L 522 1376 L 520 1376 L 519 1378 L 515 1378 L 513 1380 L 510 1380 L 510 1382 L 511 1383 L 513 1383 L 514 1385 L 513 1386 L 509 1386 L 508 1387 L 513 1387 L 514 1388 L 514 1391 L 515 1391 L 515 1388 L 513 1387 L 513 1386 L 515 1385 L 515 1384 L 513 1383 L 513 1380 L 514 1379 L 519 1379 L 521 1381 L 523 1381 L 524 1383 L 525 1383 Z M 1543 1370 L 1542 1370 L 1542 1373 L 1541 1374 L 1542 1377 L 1540 1378 L 1540 1379 L 1538 1380 L 1535 1384 L 1536 1387 L 1539 1388 L 1539 1386 L 1540 1385 L 1543 1387 L 1543 1386 L 1541 1385 L 1541 1380 L 1543 1379 Z M 560 1368 L 560 1373 L 562 1371 L 565 1371 L 566 1372 L 565 1374 L 567 1373 L 569 1375 L 571 1375 L 569 1372 L 567 1371 L 567 1370 L 562 1370 L 561 1368 Z M 504 1354 L 504 1355 L 506 1356 L 504 1359 L 504 1361 L 503 1362 L 498 1362 L 498 1363 L 503 1363 L 504 1364 L 504 1366 L 507 1369 L 508 1367 L 511 1367 L 512 1369 L 513 1369 L 513 1368 L 509 1365 L 508 1365 L 508 1367 L 507 1368 L 505 1367 L 505 1364 L 506 1363 L 505 1358 L 507 1356 L 507 1353 Z M 1547 1338 L 1540 1338 L 1542 1341 L 1542 1343 L 1540 1344 L 1540 1347 L 1539 1348 L 1535 1348 L 1535 1349 L 1537 1349 L 1538 1350 L 1538 1353 L 1537 1354 L 1536 1354 L 1535 1352 L 1534 1353 L 1536 1354 L 1536 1356 L 1537 1357 L 1537 1354 L 1538 1353 L 1540 1354 L 1540 1357 L 1541 1357 L 1542 1355 L 1546 1355 L 1548 1353 L 1550 1353 L 1551 1352 L 1551 1350 L 1548 1352 L 1546 1350 L 1545 1346 L 1546 1345 L 1549 1346 L 1550 1345 L 1553 1345 L 1553 1344 L 1550 1344 L 1549 1342 L 1544 1342 L 1543 1341 L 1544 1339 L 1547 1339 Z M 1543 1343 L 1544 1344 L 1544 1346 L 1546 1348 L 1546 1352 L 1545 1353 L 1542 1352 L 1542 1353 L 1540 1354 L 1539 1353 L 1539 1348 L 1541 1346 L 1541 1344 Z M 1558 1336 L 1556 1339 L 1556 1341 L 1557 1341 L 1558 1343 L 1556 1344 L 1556 1345 L 1559 1345 L 1561 1343 L 1562 1345 L 1563 1345 L 1563 1343 L 1561 1343 L 1557 1341 L 1560 1337 L 1563 1338 L 1560 1336 Z M 487 1321 L 486 1320 L 486 1323 L 485 1324 L 482 1324 L 480 1326 L 480 1329 L 479 1330 L 478 1330 L 475 1326 L 474 1326 L 473 1328 L 470 1326 L 470 1327 L 472 1328 L 472 1330 L 471 1331 L 469 1330 L 464 1330 L 463 1329 L 462 1330 L 457 1330 L 457 1331 L 459 1330 L 461 1332 L 461 1335 L 462 1336 L 461 1338 L 462 1339 L 463 1339 L 463 1336 L 467 1333 L 469 1335 L 471 1335 L 472 1336 L 472 1339 L 475 1337 L 476 1338 L 476 1341 L 479 1341 L 477 1338 L 477 1335 L 476 1334 L 473 1334 L 472 1332 L 475 1330 L 476 1331 L 479 1331 L 481 1333 L 481 1327 L 483 1325 L 485 1325 L 485 1324 L 487 1323 Z M 1546 1311 L 1544 1314 L 1546 1317 L 1544 1318 L 1544 1319 L 1546 1320 L 1546 1322 L 1547 1322 L 1547 1318 L 1548 1317 L 1552 1320 L 1551 1322 L 1552 1325 L 1550 1326 L 1552 1329 L 1552 1327 L 1556 1323 L 1558 1323 L 1559 1322 L 1556 1320 L 1556 1323 L 1555 1324 L 1552 1324 L 1551 1322 L 1553 1321 L 1553 1320 L 1549 1317 L 1549 1314 L 1547 1311 Z M 479 1309 L 475 1307 L 476 1305 L 475 1306 L 472 1305 L 471 1311 L 470 1312 L 468 1312 L 467 1314 L 462 1314 L 463 1315 L 469 1315 L 470 1313 L 472 1313 L 476 1309 L 479 1310 Z M 1554 1303 L 1554 1309 L 1552 1310 L 1552 1313 L 1553 1313 L 1554 1315 L 1557 1315 L 1558 1313 L 1561 1313 L 1563 1310 L 1559 1307 L 1561 1304 L 1558 1306 L 1557 1304 Z M 1532 1296 L 1534 1299 L 1537 1299 L 1538 1300 L 1538 1301 L 1536 1302 L 1536 1304 L 1538 1307 L 1539 1307 L 1541 1304 L 1541 1302 L 1543 1300 L 1540 1302 L 1539 1300 L 1535 1297 L 1535 1296 Z M 490 1292 L 488 1292 L 489 1293 L 491 1293 L 492 1295 L 488 1297 L 491 1297 L 492 1298 L 492 1302 L 494 1304 L 494 1308 L 492 1310 L 491 1309 L 491 1306 L 487 1303 L 489 1300 L 486 1300 L 485 1299 L 483 1300 L 478 1300 L 480 1302 L 483 1301 L 484 1303 L 487 1303 L 488 1304 L 488 1305 L 486 1306 L 486 1309 L 484 1310 L 482 1313 L 482 1315 L 483 1315 L 484 1317 L 485 1317 L 485 1316 L 483 1315 L 483 1312 L 484 1311 L 487 1311 L 488 1313 L 491 1314 L 487 1311 L 487 1308 L 488 1307 L 489 1307 L 492 1311 L 495 1311 L 495 1304 L 496 1303 L 499 1303 L 497 1300 L 491 1297 L 493 1294 Z M 1600 1290 L 1600 1296 L 1602 1299 L 1603 1299 L 1603 1298 L 1604 1297 L 1606 1297 L 1606 1296 L 1603 1292 Z M 1556 1284 L 1556 1288 L 1560 1290 L 1558 1293 L 1561 1293 L 1562 1295 L 1565 1295 L 1565 1294 L 1562 1294 L 1561 1292 L 1563 1291 L 1563 1288 L 1564 1287 L 1567 1289 L 1564 1286 L 1562 1286 L 1562 1289 L 1560 1290 L 1559 1288 L 1557 1287 L 1557 1284 Z M 482 1282 L 480 1283 L 480 1287 L 482 1288 L 482 1291 L 480 1292 L 477 1288 L 474 1288 L 476 1291 L 475 1292 L 472 1292 L 472 1295 L 474 1293 L 478 1295 L 478 1294 L 476 1294 L 475 1293 L 476 1291 L 481 1292 L 485 1289 L 481 1287 Z M 1609 1216 L 1606 1218 L 1605 1220 L 1604 1220 L 1604 1223 L 1608 1226 L 1608 1231 L 1610 1232 L 1610 1233 L 1608 1234 L 1606 1237 L 1609 1235 L 1613 1237 L 1614 1232 L 1614 1233 L 1612 1234 L 1611 1232 L 1609 1231 L 1609 1226 L 1611 1225 L 1612 1227 L 1613 1227 L 1613 1224 L 1612 1224 L 1611 1222 L 1607 1219 Z M 402 1210 L 404 1213 L 405 1213 L 406 1211 L 408 1212 L 408 1213 L 403 1217 L 403 1223 L 404 1221 L 409 1221 L 410 1222 L 410 1224 L 412 1226 L 409 1230 L 413 1229 L 413 1226 L 415 1224 L 412 1224 L 411 1223 L 411 1221 L 408 1218 L 408 1215 L 409 1214 L 408 1210 Z M 543 1204 L 538 1205 L 537 1207 L 538 1208 L 540 1207 L 542 1208 L 541 1210 L 539 1210 L 540 1211 L 543 1211 Z M 467 1200 L 466 1201 L 466 1203 L 464 1205 L 468 1208 L 468 1211 L 469 1211 L 469 1209 L 467 1207 L 469 1204 L 469 1200 Z M 1584 1089 L 1584 1099 L 1592 1099 L 1594 1096 L 1590 1099 L 1587 1097 L 1588 1094 L 1586 1093 L 1587 1091 Z M 837 1042 L 836 1044 L 839 1047 L 839 1049 L 842 1051 L 842 1048 L 839 1046 L 840 1045 L 840 1043 L 839 1042 Z M 864 1027 L 764 1063 L 655 1119 L 514 1217 L 430 1293 L 526 1441 L 600 1362 L 613 1321 L 638 1285 L 668 1269 L 706 1265 Z M 514 1411 L 517 1411 L 518 1412 L 518 1416 L 520 1415 L 523 1415 L 524 1416 L 524 1421 L 526 1422 L 526 1424 L 525 1425 L 521 1424 L 521 1425 L 526 1428 L 525 1430 L 522 1430 L 521 1429 L 519 1430 L 518 1428 L 514 1425 L 512 1422 L 512 1420 L 510 1419 L 510 1417 L 511 1416 L 513 1416 L 513 1412 Z M 494 1389 L 497 1387 L 500 1391 L 499 1392 L 495 1392 L 494 1391 Z M 687 1266 L 688 1265 L 704 1265 L 705 1266 L 704 1267 L 688 1267 Z M 754 1177 L 756 1179 L 757 1183 L 744 1202 L 743 1200 L 740 1200 L 739 1199 L 739 1196 L 740 1195 L 742 1195 L 744 1193 L 747 1193 L 748 1192 L 748 1190 L 754 1182 L 752 1180 Z M 846 1038 L 840 1058 L 831 1048 L 837 1064 L 779 1151 L 768 1151 L 769 1166 L 734 1197 L 737 1213 L 706 1261 L 700 1254 L 704 1264 L 652 1275 L 646 1265 L 644 1279 L 624 1286 L 599 1360 L 554 1411 L 544 1410 L 539 1428 L 527 1410 L 525 1421 L 527 1402 L 509 1410 L 499 1398 L 503 1380 L 489 1384 L 435 1290 L 445 1283 L 438 1292 L 452 1298 L 451 1318 L 461 1325 L 457 1312 L 469 1306 L 451 1303 L 449 1292 L 459 1294 L 445 1279 L 473 1254 L 468 1265 L 478 1263 L 493 1237 L 494 1247 L 496 1234 L 571 1176 L 697 1097 Z M 857 1031 L 857 1034 L 856 1035 L 855 1033 L 854 1033 L 854 1035 L 853 1036 L 851 1036 L 849 1034 L 847 1034 L 846 1033 L 853 1029 Z M 1179 1020 L 1340 1265 L 1377 1269 L 1407 1283 L 1426 1306 L 1449 1365 L 1520 1440 L 1614 1296 L 1608 1286 L 1510 1200 L 1403 1125 L 1289 1065 Z M 1557 1379 L 1558 1380 L 1557 1381 L 1557 1383 L 1554 1387 L 1553 1386 L 1553 1384 L 1554 1383 L 1552 1382 L 1551 1380 L 1552 1379 Z M 1320 1217 L 1324 1221 L 1324 1223 L 1323 1224 L 1319 1221 L 1319 1218 Z M 1293 1169 L 1295 1173 L 1291 1176 L 1289 1176 L 1290 1177 L 1290 1179 L 1289 1180 L 1286 1176 L 1287 1172 L 1286 1172 L 1285 1174 L 1284 1173 L 1284 1171 L 1286 1169 L 1288 1169 L 1290 1171 Z M 1205 1051 L 1207 1052 L 1207 1054 L 1210 1057 L 1210 1059 L 1209 1060 L 1204 1054 L 1204 1052 Z M 1199 1034 L 1279 1062 L 1400 1125 L 1602 1281 L 1612 1296 L 1573 1359 L 1553 1363 L 1567 1368 L 1557 1379 L 1552 1368 L 1553 1389 L 1542 1394 L 1549 1393 L 1533 1422 L 1518 1424 L 1524 1433 L 1514 1435 L 1494 1414 L 1513 1406 L 1493 1413 L 1452 1366 L 1421 1298 L 1423 1283 L 1417 1291 L 1389 1271 L 1342 1264 L 1326 1236 L 1335 1244 L 1349 1236 L 1320 1228 L 1336 1229 L 1339 1218 L 1330 1226 L 1315 1213 L 1316 1222 L 1315 1208 L 1303 1202 L 1311 1202 L 1311 1188 L 1294 1188 L 1299 1169 L 1282 1170 L 1260 1135 L 1270 1137 L 1246 1117 L 1248 1104 L 1243 1111 L 1215 1071 L 1223 1069 L 1217 1044 L 1212 1050 L 1208 1037 L 1201 1049 Z M 1190 1027 L 1194 1029 L 1192 1030 L 1195 1035 L 1194 1037 L 1193 1037 L 1192 1036 L 1192 1034 L 1190 1033 L 1190 1031 L 1189 1030 L 1189 1028 Z M 644 1018 L 643 1017 L 641 1018 L 637 1018 L 636 1019 L 636 1023 L 637 1024 L 641 1019 L 642 1020 L 642 1023 L 643 1023 L 643 1020 L 642 1019 Z M 651 1018 L 651 1019 L 653 1019 L 654 1020 L 656 1019 L 659 1021 L 661 1020 L 662 1022 L 663 1022 L 663 1017 L 658 1016 L 657 1018 Z M 858 992 L 729 991 L 615 1018 L 493 1063 L 417 1119 L 391 1156 L 391 1191 L 414 1269 L 501 1193 L 597 1123 L 698 1063 Z M 855 994 L 776 1027 L 765 1024 L 772 1028 L 762 1033 L 757 1020 L 751 1024 L 757 1035 L 732 1039 L 740 1042 L 644 1094 L 639 1090 L 549 1157 L 546 1152 L 472 1216 L 461 1216 L 462 1224 L 438 1245 L 432 1241 L 437 1246 L 414 1265 L 393 1190 L 394 1153 L 398 1161 L 406 1133 L 414 1126 L 415 1135 L 416 1123 L 430 1119 L 441 1102 L 443 1111 L 451 1094 L 474 1078 L 481 1082 L 476 1077 L 495 1064 L 510 1067 L 498 1062 L 578 1032 L 583 1039 L 585 1030 L 607 1022 L 632 1026 L 622 1019 L 733 992 Z M 1185 992 L 1313 1045 L 1406 1095 L 1540 1189 L 1630 1270 L 1635 1265 L 1657 1183 L 1653 1149 L 1625 1114 L 1569 1072 L 1479 1031 L 1317 989 Z M 1618 1241 L 1621 1241 L 1622 1242 L 1622 1247 L 1620 1249 L 1618 1249 L 1617 1248 L 1619 1245 L 1617 1246 L 1615 1245 Z M 1614 1241 L 1615 1243 L 1614 1244 L 1612 1244 L 1613 1248 L 1611 1249 L 1608 1245 L 1612 1241 Z M 1199 995 L 1313 990 L 1473 1031 L 1472 1039 L 1482 1041 L 1480 1033 L 1574 1077 L 1613 1106 L 1619 1120 L 1632 1123 L 1651 1149 L 1656 1182 L 1637 1256 L 1626 1254 L 1635 1258 L 1633 1265 L 1616 1254 L 1629 1246 L 1627 1235 L 1635 1236 L 1626 1234 L 1624 1246 L 1619 1232 L 1607 1245 L 1592 1232 L 1605 1228 L 1591 1231 L 1595 1223 L 1589 1229 L 1583 1215 L 1578 1219 L 1564 1208 L 1567 1200 L 1559 1204 L 1509 1165 L 1507 1153 L 1497 1157 L 1452 1125 L 1460 1123 L 1454 1118 L 1449 1123 L 1405 1089 L 1317 1047 L 1317 1040 L 1313 1045 L 1281 1024 L 1272 1027 Z M 1368 915 L 1373 915 L 1374 916 L 1374 918 L 1378 918 L 1377 917 L 1377 914 L 1378 913 L 1377 912 L 1374 914 L 1373 912 L 1370 912 Z M 1362 911 L 1361 912 L 1361 914 L 1364 916 L 1362 918 L 1365 918 L 1365 911 Z M 832 911 L 828 917 L 830 918 L 829 920 L 834 921 L 835 920 L 834 918 L 834 915 L 835 914 L 834 913 L 834 911 Z M 1401 911 L 1398 912 L 1397 910 L 1396 911 L 1396 913 L 1395 914 L 1392 914 L 1392 916 L 1390 918 L 1392 918 L 1392 917 L 1396 913 L 1397 914 L 1396 917 L 1397 917 L 1398 915 L 1401 915 Z M 1342 912 L 1341 910 L 1340 910 L 1339 912 L 1335 912 L 1333 914 L 1331 913 L 1328 913 L 1327 914 L 1325 914 L 1324 913 L 1323 914 L 1324 915 L 1328 915 L 1331 917 L 1334 917 L 1335 916 L 1335 914 L 1336 913 L 1338 913 L 1339 914 L 1338 917 L 1339 917 L 1341 915 Z M 1213 920 L 1233 920 L 1230 920 L 1229 919 L 1228 913 L 1230 911 L 1232 912 L 1232 914 L 1234 917 L 1238 915 L 1243 915 L 1245 917 L 1247 917 L 1247 913 L 1246 911 L 1244 912 L 1243 914 L 1242 914 L 1241 912 L 1238 912 L 1236 915 L 1234 915 L 1233 914 L 1233 912 L 1232 912 L 1231 910 L 1229 910 L 1225 914 L 1220 914 L 1220 915 L 1222 915 L 1224 917 L 1227 917 L 1228 918 L 1227 919 L 1223 919 L 1222 920 L 1220 920 L 1219 919 L 1218 920 L 1216 920 L 1215 919 L 1215 916 Z M 671 917 L 671 916 L 666 916 L 664 918 L 662 918 L 661 917 L 663 916 L 665 913 L 663 910 L 661 910 L 661 912 L 658 915 L 657 915 L 656 913 L 652 913 L 651 912 L 648 914 L 646 914 L 643 911 L 642 911 L 644 912 L 642 914 L 639 914 L 638 913 L 632 914 L 634 916 L 633 918 L 651 918 L 652 917 L 653 918 L 670 918 Z M 1379 909 L 1380 910 L 1380 917 L 1383 917 L 1386 915 L 1386 913 L 1385 912 L 1382 912 Z M 732 909 L 733 913 L 737 915 L 734 917 L 739 921 L 741 920 L 760 921 L 761 920 L 759 920 L 758 918 L 764 914 L 768 915 L 767 916 L 768 920 L 771 917 L 774 920 L 778 921 L 781 918 L 786 920 L 795 920 L 798 917 L 800 918 L 799 920 L 807 920 L 808 917 L 812 918 L 809 920 L 813 920 L 814 917 L 816 918 L 816 920 L 818 920 L 817 919 L 818 917 L 821 917 L 822 920 L 827 920 L 825 919 L 825 914 L 823 913 L 824 910 L 821 914 L 818 913 L 815 916 L 810 908 L 808 912 L 799 915 L 794 914 L 791 910 L 789 912 L 782 912 L 781 910 L 783 908 L 780 911 L 782 912 L 780 914 L 776 912 L 767 912 L 765 910 L 763 912 L 751 911 L 748 909 L 744 912 L 749 917 L 747 919 L 742 918 L 737 910 L 739 908 L 735 910 Z M 729 912 L 725 912 L 724 911 L 718 912 L 717 911 L 717 908 L 719 907 L 719 904 L 721 903 L 722 905 L 723 904 L 723 902 L 725 901 L 725 900 L 724 900 L 723 902 L 720 902 L 720 903 L 718 904 L 718 907 L 716 908 L 713 912 L 708 912 L 706 914 L 701 914 L 700 913 L 700 910 L 697 914 L 693 914 L 692 913 L 693 910 L 686 914 L 684 914 L 684 916 L 688 915 L 689 916 L 688 918 L 689 919 L 695 919 L 696 918 L 698 919 L 715 919 L 716 918 L 719 918 L 725 914 L 726 915 L 726 918 L 729 918 L 727 916 L 727 914 L 729 913 Z M 1562 898 L 1562 899 L 1558 902 L 1561 902 L 1565 899 L 1566 900 L 1566 903 L 1565 904 L 1563 904 L 1563 905 L 1566 909 L 1567 908 L 1567 906 L 1566 906 L 1565 904 L 1567 902 L 1567 900 L 1564 898 Z M 1236 901 L 1236 903 L 1237 903 L 1238 901 L 1241 901 L 1243 903 L 1243 902 L 1245 901 L 1246 903 L 1249 903 L 1247 900 L 1244 900 L 1244 901 L 1242 902 L 1241 901 L 1241 898 L 1239 898 Z M 1397 896 L 1397 897 L 1400 897 L 1402 899 L 1407 899 L 1409 901 L 1409 898 L 1404 898 L 1403 896 L 1401 895 Z M 1229 878 L 1228 878 L 1227 880 L 1225 880 L 1226 882 L 1222 886 L 1221 884 L 1220 885 L 1220 889 L 1221 889 L 1222 887 L 1225 887 L 1226 889 L 1227 889 L 1227 888 L 1225 887 L 1225 885 L 1227 883 L 1227 880 L 1229 879 Z M 696 878 L 697 879 L 703 879 L 704 880 L 704 885 L 706 887 L 709 887 L 705 884 L 705 880 L 704 880 L 701 876 L 700 876 L 699 878 Z M 818 882 L 820 885 L 823 883 L 824 885 L 827 887 L 832 887 L 834 886 L 834 874 L 832 876 L 830 876 L 829 878 L 826 878 L 825 877 L 825 874 L 824 874 L 824 881 L 823 882 Z M 823 882 L 825 881 L 826 879 L 829 879 L 829 878 L 831 877 L 832 878 L 832 881 L 834 884 L 832 886 L 831 884 L 828 884 L 828 885 L 826 886 Z M 1303 872 L 1300 872 L 1300 879 L 1298 881 L 1301 881 L 1301 878 L 1302 877 L 1305 877 L 1305 876 L 1303 875 Z M 811 872 L 809 872 L 807 874 L 804 874 L 804 875 L 806 876 L 806 879 L 807 879 L 808 881 L 809 881 L 809 874 L 811 873 Z M 756 874 L 756 876 L 757 877 L 758 875 L 759 875 L 760 877 L 763 875 L 764 877 L 765 877 L 766 879 L 770 882 L 770 884 L 773 883 L 774 884 L 773 886 L 775 885 L 775 884 L 773 883 L 773 878 L 766 878 L 765 876 L 763 875 L 763 872 L 761 876 L 759 875 L 759 873 L 758 872 L 758 873 Z M 1364 870 L 1366 873 L 1366 877 L 1369 878 L 1369 876 L 1371 875 L 1372 877 L 1374 878 L 1372 874 L 1370 874 L 1370 875 L 1368 876 L 1367 875 L 1367 870 Z M 793 879 L 793 876 L 791 874 L 791 872 L 788 872 L 787 874 L 785 873 L 785 870 L 786 869 L 789 869 L 789 868 L 787 867 L 787 864 L 789 863 L 789 860 L 788 861 L 788 863 L 786 864 L 786 867 L 785 868 L 782 868 L 780 866 L 778 866 L 778 867 L 776 868 L 775 866 L 772 866 L 772 867 L 775 867 L 776 868 L 776 873 L 775 874 L 773 873 L 773 870 L 772 870 L 772 873 L 771 874 L 769 872 L 769 870 L 766 870 L 770 875 L 775 875 L 776 876 L 776 881 L 778 877 L 781 878 L 781 876 L 779 874 L 779 872 L 777 871 L 781 867 L 782 868 L 782 871 L 786 874 L 784 877 L 785 877 L 786 879 L 789 879 L 789 877 L 791 876 L 792 877 L 792 879 Z M 1339 858 L 1338 858 L 1335 862 L 1334 862 L 1333 860 L 1332 861 L 1333 861 L 1334 863 L 1333 864 L 1331 864 L 1330 866 L 1331 867 L 1333 867 L 1333 864 L 1335 863 L 1336 865 L 1338 866 L 1338 869 L 1339 868 L 1339 866 L 1337 865 L 1337 860 L 1339 859 Z M 1391 854 L 1390 854 L 1389 856 L 1388 856 L 1387 854 L 1384 854 L 1384 855 L 1387 855 L 1388 856 L 1387 858 L 1383 858 L 1384 861 L 1386 862 L 1387 867 L 1387 862 L 1386 862 L 1385 860 L 1389 857 L 1390 858 L 1390 861 L 1391 861 Z M 1364 854 L 1363 856 L 1361 856 L 1360 857 L 1363 859 L 1363 856 L 1365 855 L 1366 857 L 1368 858 L 1368 860 L 1370 863 L 1369 864 L 1367 863 L 1368 864 L 1367 866 L 1364 865 L 1362 867 L 1369 867 L 1369 864 L 1370 863 L 1373 863 L 1373 862 L 1375 861 L 1375 859 L 1374 858 L 1372 858 L 1371 856 L 1368 856 L 1367 854 Z M 794 854 L 794 855 L 792 856 L 792 861 L 793 861 L 793 858 L 794 857 L 797 857 L 798 858 L 796 861 L 796 863 L 797 863 L 797 860 L 799 859 L 799 854 L 798 854 L 797 856 Z M 1276 852 L 1276 853 L 1274 854 L 1274 862 L 1276 861 L 1275 859 L 1275 854 L 1277 853 L 1278 855 L 1280 856 L 1278 859 L 1281 859 L 1282 860 L 1282 863 L 1280 864 L 1282 865 L 1289 858 L 1289 857 L 1288 857 L 1288 859 L 1286 860 L 1285 859 L 1285 856 L 1282 858 L 1281 857 L 1281 854 L 1278 852 Z M 752 854 L 752 855 L 754 856 L 754 863 L 755 862 L 755 856 L 756 855 L 759 855 L 760 853 L 762 854 L 762 857 L 765 857 L 766 858 L 765 860 L 758 860 L 760 863 L 756 865 L 759 865 L 759 864 L 762 862 L 765 863 L 765 860 L 766 859 L 767 859 L 770 863 L 771 863 L 772 861 L 775 861 L 775 860 L 773 859 L 773 856 L 772 857 L 772 861 L 770 862 L 769 860 L 767 859 L 768 857 L 767 854 L 768 857 L 766 858 L 762 854 L 762 852 L 761 851 L 759 852 L 756 851 L 756 855 L 755 856 Z M 1331 850 L 1330 850 L 1329 852 L 1326 850 L 1326 853 L 1322 856 L 1322 859 L 1318 863 L 1325 862 L 1327 860 L 1327 854 L 1331 851 Z M 716 846 L 716 851 L 719 851 L 720 852 L 722 851 L 729 851 L 728 850 L 722 850 L 722 851 L 720 852 L 719 851 L 719 846 L 720 845 L 723 845 L 722 844 L 720 844 L 719 846 Z M 1390 841 L 1387 845 L 1388 847 L 1393 847 L 1393 846 L 1395 845 L 1395 842 Z M 1306 840 L 1306 841 L 1308 842 L 1308 843 L 1306 844 L 1306 847 L 1313 847 L 1314 848 L 1314 851 L 1316 852 L 1316 854 L 1314 856 L 1312 856 L 1312 858 L 1313 859 L 1313 858 L 1315 857 L 1316 858 L 1316 860 L 1317 860 L 1319 858 L 1319 854 L 1315 851 L 1315 848 L 1313 847 L 1313 842 L 1315 841 L 1312 842 L 1312 845 L 1311 846 L 1308 846 L 1307 844 L 1309 843 L 1309 842 Z M 1288 840 L 1288 843 L 1286 844 L 1286 845 L 1288 845 L 1290 847 L 1294 848 L 1295 847 L 1295 845 L 1294 844 L 1292 844 L 1291 842 L 1292 841 L 1295 841 L 1295 840 L 1292 840 L 1291 842 Z M 1235 841 L 1233 840 L 1230 842 L 1228 845 L 1230 847 L 1232 846 L 1235 847 L 1235 846 L 1233 845 L 1233 843 Z M 705 842 L 700 842 L 699 841 L 699 838 L 698 838 L 698 841 L 695 844 L 694 844 L 693 843 L 693 841 L 692 841 L 692 845 L 693 845 L 694 847 L 695 846 L 695 844 L 699 841 L 700 842 L 699 847 L 701 847 Z M 1321 822 L 1318 826 L 1318 829 L 1319 829 L 1320 831 L 1327 831 L 1327 830 L 1325 829 L 1325 828 L 1327 827 L 1326 826 L 1324 827 L 1324 829 L 1323 830 L 1320 830 L 1319 829 L 1320 825 L 1323 822 Z M 719 818 L 718 818 L 718 822 L 716 824 L 712 824 L 712 827 L 713 827 L 714 829 L 712 830 L 712 833 L 710 834 L 709 836 L 706 836 L 705 835 L 705 834 L 707 833 L 709 830 L 708 830 L 707 832 L 705 830 L 696 830 L 700 832 L 700 835 L 701 835 L 701 832 L 703 831 L 704 832 L 704 835 L 708 838 L 708 842 L 710 845 L 712 846 L 709 850 L 710 852 L 709 855 L 709 854 L 713 851 L 713 846 L 709 843 L 709 838 L 715 835 L 716 836 L 715 839 L 717 839 L 718 841 L 719 841 L 719 838 L 717 836 L 717 834 L 718 833 L 719 833 L 720 835 L 725 835 L 726 837 L 727 837 L 727 836 L 725 835 L 725 833 L 722 834 L 719 830 L 715 827 L 717 825 L 719 825 L 720 823 Z M 1330 809 L 1332 810 L 1332 811 L 1330 812 L 1331 813 L 1333 813 L 1334 815 L 1335 815 L 1335 813 L 1336 812 L 1338 813 L 1338 815 L 1339 815 L 1340 813 L 1342 813 L 1342 812 L 1340 812 L 1334 808 L 1333 810 Z M 1380 806 L 1380 807 L 1378 808 L 1376 811 L 1378 812 L 1378 814 L 1379 815 L 1382 815 L 1385 812 L 1381 809 L 1381 807 Z M 1717 792 L 1713 792 L 1712 793 L 1712 795 L 1713 796 L 1711 798 L 1712 801 L 1713 801 L 1714 797 L 1717 794 Z M 734 792 L 732 792 L 731 794 L 726 794 L 725 793 L 726 794 L 724 796 L 722 796 L 722 797 L 724 797 L 726 799 L 726 802 L 727 803 L 727 802 L 731 799 L 729 796 L 731 795 L 732 793 L 734 793 Z M 1320 788 L 1320 789 L 1324 792 L 1324 795 L 1322 796 L 1321 794 L 1320 794 L 1320 797 L 1319 798 L 1316 797 L 1316 798 L 1321 799 L 1322 801 L 1323 801 L 1321 798 L 1323 797 L 1324 795 L 1326 795 L 1327 794 L 1327 792 L 1326 792 L 1325 790 L 1322 790 L 1321 788 Z M 638 784 L 640 786 L 640 789 L 641 789 L 642 791 L 640 792 L 640 797 L 639 798 L 636 798 L 644 797 L 646 795 L 648 796 L 652 795 L 652 794 L 647 794 L 645 796 L 643 796 L 641 794 L 643 792 L 643 786 L 644 785 L 642 784 Z M 1322 777 L 1324 778 L 1324 781 L 1323 782 L 1321 780 L 1320 780 L 1320 781 L 1321 782 L 1325 781 L 1326 783 L 1327 783 L 1328 785 L 1329 785 L 1330 787 L 1334 790 L 1332 793 L 1335 791 L 1336 792 L 1336 795 L 1337 795 L 1337 792 L 1338 791 L 1341 791 L 1342 792 L 1342 793 L 1340 794 L 1340 797 L 1341 797 L 1342 799 L 1341 794 L 1343 793 L 1343 791 L 1342 790 L 1338 790 L 1337 788 L 1335 787 L 1332 788 L 1331 786 L 1330 786 L 1329 784 L 1325 781 L 1325 780 L 1327 779 L 1327 776 Z M 1359 776 L 1358 776 L 1357 774 L 1354 774 L 1354 775 L 1357 775 L 1358 777 L 1357 778 L 1350 778 L 1350 779 L 1348 780 L 1345 776 L 1344 776 L 1343 778 L 1340 776 L 1342 779 L 1341 780 L 1338 780 L 1337 779 L 1337 778 L 1339 783 L 1340 781 L 1342 781 L 1343 780 L 1343 778 L 1344 777 L 1345 777 L 1346 779 L 1350 782 L 1351 782 L 1349 781 L 1350 779 L 1355 779 L 1356 780 L 1356 782 L 1358 783 L 1357 780 L 1359 779 Z M 694 772 L 694 773 L 692 774 L 689 778 L 693 775 L 694 776 L 694 779 L 692 780 L 692 781 L 694 779 L 697 781 L 698 779 L 700 780 L 700 787 L 698 788 L 697 787 L 697 784 L 695 784 L 694 786 L 698 788 L 698 793 L 703 794 L 699 791 L 699 788 L 701 787 L 701 780 L 699 779 L 699 777 L 698 777 L 698 779 L 697 780 L 695 779 L 695 777 L 693 774 L 694 773 L 696 773 L 696 772 Z M 1369 766 L 1368 766 L 1368 769 L 1370 770 L 1372 773 L 1372 775 L 1370 776 L 1369 774 L 1366 774 L 1365 772 L 1363 772 L 1364 775 L 1362 776 L 1362 779 L 1363 779 L 1364 781 L 1362 783 L 1362 785 L 1363 785 L 1364 787 L 1363 788 L 1361 788 L 1361 792 L 1360 794 L 1365 792 L 1365 790 L 1363 789 L 1363 788 L 1365 787 L 1365 780 L 1363 779 L 1363 776 L 1364 775 L 1368 778 L 1368 783 L 1369 783 L 1370 781 L 1373 781 L 1374 779 L 1375 779 L 1376 781 L 1379 779 L 1379 778 L 1374 778 L 1373 777 L 1373 772 L 1369 769 Z M 1388 762 L 1388 765 L 1389 765 L 1390 767 L 1394 770 L 1394 773 L 1397 773 L 1398 771 L 1401 773 L 1401 772 L 1403 771 L 1406 775 L 1405 772 L 1403 771 L 1405 768 L 1404 768 L 1403 770 L 1400 770 L 1399 768 L 1398 768 L 1398 771 L 1397 772 L 1393 769 L 1393 768 L 1395 767 L 1395 764 L 1397 763 L 1397 762 L 1394 762 L 1394 767 L 1393 768 L 1389 765 L 1389 762 Z M 1448 748 L 1447 750 L 1448 753 L 1449 753 L 1452 757 L 1454 758 L 1454 759 L 1456 759 L 1459 757 L 1459 756 L 1456 756 L 1455 755 L 1457 752 L 1455 752 L 1454 753 L 1454 755 L 1452 756 L 1451 754 L 1447 751 L 1447 750 L 1449 749 L 1449 748 Z M 1398 701 L 1398 705 L 1400 707 L 1401 707 L 1401 706 L 1399 703 L 1401 701 L 1403 701 L 1404 703 L 1409 703 L 1407 700 L 1402 700 L 1400 699 Z M 677 670 L 678 673 L 681 672 L 683 675 L 686 675 L 688 672 L 688 671 L 686 672 L 684 670 L 682 670 L 681 672 L 678 672 Z M 1565 668 L 1564 668 L 1564 675 L 1560 678 L 1560 681 L 1563 681 L 1564 683 L 1563 684 L 1560 684 L 1560 685 L 1563 685 L 1564 683 L 1563 680 L 1565 679 L 1565 678 L 1564 678 L 1563 676 L 1565 675 Z M 1362 670 L 1362 671 L 1369 672 L 1369 669 L 1367 666 L 1366 666 L 1366 667 Z M 1384 651 L 1386 652 L 1386 653 L 1384 654 L 1384 659 L 1386 659 L 1388 657 L 1390 658 L 1392 656 L 1395 656 L 1390 656 L 1389 654 L 1385 651 L 1385 650 Z M 657 631 L 656 631 L 657 633 L 656 635 L 656 639 L 655 640 L 652 640 L 652 641 L 650 642 L 652 643 L 654 646 L 657 645 L 657 642 L 655 641 L 657 638 Z M 1498 576 L 1495 576 L 1492 578 L 1488 578 L 1488 579 L 1491 581 L 1493 579 L 1496 579 Z M 549 496 L 550 495 L 559 495 L 561 499 L 561 495 L 560 494 L 558 494 L 557 492 L 556 492 L 555 494 L 552 492 Z M 223 483 L 336 828 L 383 893 L 464 922 L 835 923 L 465 920 L 389 895 L 338 828 L 319 718 L 309 738 L 227 483 L 383 529 L 550 619 L 835 857 L 840 925 L 832 851 L 557 622 L 390 530 Z M 748 787 L 750 787 L 752 789 L 750 790 L 750 793 L 749 794 L 745 791 Z M 1824 481 L 1658 529 L 1489 622 L 1215 851 L 1208 925 L 1265 925 L 1209 922 L 1216 853 L 1276 832 L 1267 806 L 1493 621 L 1655 532 L 1821 481 L 1672 885 L 1594 919 L 1233 923 L 1592 921 L 1542 920 L 1662 895 L 1708 838 Z M 1279 920 L 1277 922 L 1271 922 L 1270 921 L 1267 923 L 1260 923 L 1259 922 L 1260 921 L 1262 921 L 1262 920 L 1260 920 L 1259 919 L 1260 917 L 1262 917 L 1264 919 L 1266 918 L 1270 919 L 1272 917 L 1277 916 Z M 1242 830 L 1244 832 L 1244 834 L 1242 835 L 1240 838 L 1237 839 L 1237 840 L 1240 842 L 1240 845 L 1238 846 L 1240 849 L 1239 850 L 1236 850 L 1233 854 L 1231 854 L 1229 852 L 1229 849 L 1227 849 L 1224 845 L 1226 844 L 1226 843 L 1230 840 L 1231 838 L 1234 837 L 1240 830 Z M 1250 829 L 1252 829 L 1253 830 L 1250 834 L 1252 833 L 1257 833 L 1258 834 L 1257 836 L 1253 836 L 1252 837 L 1255 837 L 1256 838 L 1256 839 L 1254 840 L 1254 843 L 1253 844 L 1249 844 L 1248 843 L 1249 840 L 1246 840 L 1244 837 Z M 1261 817 L 1260 818 L 1260 822 L 1258 824 L 1258 827 L 1257 828 L 1253 825 L 1252 825 L 1250 828 L 1248 828 L 1246 825 L 1247 824 L 1249 824 L 1255 817 L 1257 816 L 1260 816 Z M 1264 810 L 1267 811 L 1271 814 L 1270 817 L 1272 819 L 1272 821 L 1270 822 L 1270 827 L 1265 832 L 1263 831 L 1265 827 L 1262 825 L 1264 821 L 1267 821 L 1267 820 L 1265 820 L 1264 819 L 1264 816 L 1265 815 L 1263 812 Z M 540 476 L 540 477 L 538 478 L 537 481 L 539 480 L 540 481 L 540 483 L 539 484 L 540 483 L 542 484 L 541 483 L 541 481 L 543 478 L 545 477 Z M 256 456 L 261 456 L 262 455 L 264 455 L 265 456 L 265 458 L 270 458 L 271 459 L 273 458 L 271 457 L 268 458 L 267 456 L 262 452 L 260 452 Z M 223 436 L 220 438 L 220 440 L 217 442 L 217 443 L 219 443 L 220 444 L 223 444 L 224 443 L 224 438 Z M 226 424 L 226 436 L 231 435 L 234 438 L 234 440 L 235 439 L 235 436 L 232 436 L 231 435 L 233 432 L 232 432 L 231 434 L 228 434 L 227 433 L 229 430 L 227 429 L 227 425 Z M 1791 408 L 1790 408 L 1789 410 L 1788 410 L 1787 408 L 1784 408 L 1784 409 L 1782 410 L 1781 412 L 1779 412 L 1779 413 L 1783 413 L 1783 412 L 1785 411 L 1786 412 L 1786 415 L 1789 412 L 1789 410 L 1791 409 Z M 1834 361 L 1799 348 L 1708 357 L 1484 483 L 1293 744 L 1557 547 L 1764 467 L 1548 544 L 1384 668 L 1372 657 L 1382 670 L 1315 722 L 1483 486 L 1693 366 L 1767 350 L 1829 358 L 1841 433 L 1764 465 L 1833 447 Z M 215 358 L 205 414 L 211 445 L 355 487 L 485 545 L 601 621 L 756 750 L 566 484 L 456 416 L 336 357 L 239 348 L 256 349 Z M 732 726 L 735 722 L 739 725 L 738 727 L 736 725 L 734 728 Z M 231 451 L 232 450 L 238 450 L 239 452 L 238 453 L 232 453 Z M 214 362 L 220 369 L 229 351 L 333 358 L 449 414 L 448 429 L 456 418 L 482 443 L 488 437 L 499 445 L 496 459 L 508 455 L 500 445 L 533 466 L 524 463 L 528 477 L 543 472 L 561 483 L 597 532 L 590 537 L 599 535 L 665 630 L 660 638 L 669 636 L 703 679 L 700 691 L 704 681 L 735 719 L 725 721 L 695 687 L 693 694 L 656 664 L 669 665 L 667 656 L 658 660 L 657 650 L 652 661 L 560 591 L 561 580 L 551 585 L 495 543 L 303 465 L 239 455 L 255 452 L 248 444 L 213 444 Z" fill-rule="evenodd"/>
<path fill="#CE791D" d="M 1392 1409 L 1391 1412 L 1450 1479 L 1512 1541 L 1552 1573 L 1553 1571 L 1547 1559 L 1521 1525 L 1427 1417 L 1408 1399 Z M 640 1399 L 636 1400 L 561 1485 L 558 1486 L 501 1555 L 502 1559 L 498 1559 L 493 1574 L 541 1535 L 620 1455 L 653 1413 Z M 1332 1310 L 1326 1318 L 1324 1326 L 1323 1327 L 1322 1326 L 1322 1322 L 1322 1325 L 1321 1326 L 1321 1328 L 1323 1331 L 1322 1336 L 1324 1339 L 1325 1345 L 1326 1346 L 1326 1349 L 1325 1350 L 1327 1349 L 1329 1351 L 1330 1354 L 1338 1361 L 1345 1362 L 1348 1364 L 1352 1364 L 1353 1365 L 1357 1365 L 1360 1363 L 1366 1363 L 1368 1361 L 1371 1361 L 1372 1359 L 1374 1359 L 1381 1350 L 1381 1346 L 1383 1345 L 1383 1340 L 1384 1339 L 1384 1334 L 1385 1333 L 1382 1326 L 1382 1321 L 1381 1318 L 1379 1316 L 1379 1314 L 1377 1313 L 1375 1310 L 1372 1308 L 1370 1308 L 1369 1306 L 1364 1306 L 1359 1304 L 1346 1304 L 1344 1306 L 1340 1306 L 1338 1308 Z M 677 1308 L 667 1317 L 666 1320 L 664 1322 L 664 1325 L 662 1329 L 663 1332 L 662 1333 L 663 1340 L 666 1349 L 668 1351 L 668 1353 L 670 1356 L 673 1358 L 672 1360 L 675 1359 L 677 1361 L 679 1361 L 682 1363 L 687 1363 L 688 1364 L 699 1364 L 703 1366 L 704 1365 L 707 1365 L 704 1365 L 703 1364 L 704 1363 L 708 1363 L 710 1361 L 712 1361 L 715 1359 L 715 1358 L 719 1355 L 719 1353 L 721 1350 L 721 1345 L 722 1344 L 722 1327 L 721 1326 L 721 1320 L 719 1318 L 719 1315 L 717 1312 L 709 1306 L 703 1304 L 687 1304 L 684 1306 Z M 1012 800 L 1006 803 L 999 813 L 997 812 L 996 814 L 997 812 L 998 815 L 996 816 L 996 819 L 984 840 L 984 843 L 982 845 L 982 851 L 992 866 L 999 872 L 1008 877 L 1006 879 L 1008 880 L 1011 878 L 1022 881 L 1038 879 L 1047 871 L 1059 854 L 1060 855 L 1061 853 L 1060 855 L 1059 854 L 1059 851 L 1063 845 L 1063 841 L 1059 837 L 1051 823 L 1047 819 L 1039 806 L 1033 800 Z M 1087 701 L 1028 698 L 1052 699 L 964 702 L 904 768 L 900 927 L 959 991 L 1003 997 L 1080 993 L 1107 975 L 1147 931 L 1149 883 L 1143 769 L 1098 722 Z M 997 760 L 1012 762 L 1006 761 L 1009 759 L 1058 759 L 1066 767 L 1065 770 L 1070 772 L 1069 776 L 1067 773 L 1072 776 L 1090 812 L 1090 818 L 1089 816 L 1092 816 L 1092 823 L 1093 820 L 1105 846 L 1104 852 L 1102 850 L 1102 856 L 1086 876 L 1089 875 L 1070 911 L 1059 924 L 1002 925 L 992 924 L 993 921 L 986 922 L 974 909 L 971 899 L 970 901 L 960 885 L 962 884 L 959 884 L 959 879 L 958 882 L 941 853 L 941 840 L 950 823 L 951 826 L 951 821 L 953 822 L 953 817 L 970 788 L 971 790 L 977 773 L 988 765 L 982 769 L 981 766 Z" fill-rule="evenodd"/>
</svg>