<svg xmlns="http://www.w3.org/2000/svg" width="1024" height="1024"><path fill="none" d="M0 0h1024v1024H0zm299.188 62.813c-5.634 8.208-7.646 18.906-10.297 28.386q-.562 1.995-1.127 3.989-1.463 5.19-2.92 10.381-1.494 5.322-2.996 10.64Q278.918 126.603 276 137l-1.2-1.803q-2.73-4.103-5.464-8.205l-1.887-2.835a1416 1416 0 0 0-14.868-21.875q-2.79-4.031-5.573-8.067l-4.258-6.153-2.005-2.907C228.01 66.803 228.01 66.803 222 63c-4.156-.726-6.349-.947-9.996 1.145C207.91 67.37 206.4 69.925 205 75c-1.139 15.68.576 31.712 1.39 47.394q.435 8.36.853 16.723.148 2.88.3 5.759c.34 6.715.548 13.4.457 20.124l-2.746 1.25c-16.32 7.64-24.991 17.777-31.309 34.805C173 204 173 204 172.895 206.468 172 209 172 209 168.9 210.802q-2.072.855-4.169 1.651l-2.252.913a487 487 0 0 1-4.794 1.906 682 682 0 0 0-7.512 3.003q-3.719 1.508-7.441 3.005c-8.13 3.264-16.107 6.81-24.053 10.498a560 560 0 0 1-7.953 3.54 1082 1082 0 0 0-7.643 3.401 545 545 0 0 1-5.531 2.414C90.564 244.293 85.21 247.436 81 254c-2.339 7.016-1.664 13.425 1.5 20.063 2.031 3.932 4.496 7.173 7.316 10.554 5.132 6.308 8.561 13.297 12.163 20.549 4.665 9.025 10.702 17.517 20.605 21.114 8.668 2.584 17.926 1.66 26.83 1.197l4.147-.2c3.62-.173 7.24-.356 10.861-.54q4.374-.22 8.748-.43c13.95-.672 27.893-1.41 41.83-2.307q.477 5.343.938 10.688l.263 2.935c1.658 19.347 1.963 38.657 1.924 58.065l-.002 3.736c-.011 22.14-.334 44.267-.855 66.401-.844 37.965 4.729 72.238 26.138 104.484 3.599 6.077 4.335 12.66 5.328 19.535l.481 3.229q.773 5.212 1.535 10.427 1.071 7.23 2.148 14.46l.54 3.637a1901 1901 0 0 0 3.351 21.692l.415 2.584q.935 5.818 1.893 11.633c2.65 16.263 4.29 32.383 4.216 48.869l-.004 2.475c-.073 27.074-1.756 54.128-3.309 81.15l-.204 3.567q-.65 11.25-1.358 22.495l-.176 2.863c-1.82 29.338-1.82 29.338-7.262 35.075-5.708 2.943-10.688 3.442-17.04 3.527-10.744.353-18.17 6.519-25.355 13.95-7.825 9.038-14.96 19.545-14.085 31.964.868 4.623 2.646 7.157 6.351 9.989 6.843 4.58 12.838 4.736 20.879 4.695l2.965-.012c3.429-.025 6.857-.066 10.285-.113l2.045-.026q6.596-.087 13.193-.238 2.182-.048 4.366-.082c17.41-.283 17.41-.283 22.97-4.985 4.82-5.108 7.834-11.556 11.051-17.731q1.672-3.177 3.352-6.348l1.47-2.817C295 883 295 883 296.942 880.277c6.818-10.85 8.591-25.523 11.098-37.945l1.1-5.35q1.457-7.111 2.891-14.227.9-4.445 1.803-8.889c8.773-43.188 16.84-86.458 23.73-129.991l.5-3.147c2.032-12.88 3.71-25.746 4.937-38.728l3.637.988c3.457.862 6.597 1.248 10.176 1.207l3.066-.02 3.121-.05 3.215-.027q3.892-.036 7.785-.098c1.088 2.176 1.26 3.645 1.493 6.057l.255 2.59.268 2.865.29 3.033c.321 3.38.633 6.761.944 10.143.11 1.18.218 2.362.33 3.578 4.072 44.349 6.869 88.809 9.6 133.257q.197 3.213.397 6.426.368 5.969.724 11.938l.217 3.503c.315 5.37.557 10.738.65 16.117l.052 2.84c-.245 2.95-.864 5.025-2.22 7.653-3.386 2.257-5.193 2.357-9.187 2.75-6.51.932-10.114 2.76-14.813 7.25l-1.758 1.492c-8.475 7.64-16.311 20.086-17.582 31.582-.173 5.632-.072 10.22 3.34 14.926 4.597 4.252 7.886 5.122 14.041 5.177l3.775.039q2.045.013 4.09.022l2.09.013q5.485.03 10.97.044c3.75.011 7.501.046 11.252.085 2.905.027 5.81.035 8.716.038q2.07.008 4.142.035c9.175.117 18.545-.113 26.002-6.13 7.18-7.524 9.475-17.348 11.22-27.314l.619-3.447c3.42-19.64 6.042-39.417 8.817-59.156q1.274-9.033 2.557-18.066 2.415-17.047 4.82-34.095 3.538-25.082 7.092-50.162l.527-3.72 1.04-7.341a41198 41198 0 0 0 3.032-21.46q.938-6.648 1.878-13.295l.87-6.167q.591-4.202 1.187-8.404l.346-2.47c1.226-8.633 1.226-8.633 1.917-11.226 1.931-1.213 1.931-1.213 4.497-2.049l2.906-.981 3.175-1.001 3.265-1.086c3.463-1.148 6.934-2.266 10.407-3.383 3.421-1.12 6.84-2.248 10.259-3.375a3027 3027 0 0 1 6.592-2.164c7.398-2.428 14.693-5.006 21.899-7.961l.227 3.2c3.404 40.663 27.896 68.85 57.98 94.628a331 331 0 0 0 5.066 4.024c3.652 2.877 7.154 5.914 10.664 8.96l1.94 1.674c1.718 1.492 3.422 3 5.123 4.514l2.379 2.074c2.033 2.416 2.272 3.788 2.621 6.926-2.139 15.349-8.287 30.247-13.312 44.813q-1.26 3.676-2.514 7.353a3436 3436 0 0 1-4.9 14.227 803 803 0 0 0-4.264 12.648l-.93 2.789a361 361 0 0 0-1.645 5.054c-1.622 4.813-3.419 7.79-7.435 11.116-5.775 2.695-12.208 2.65-18.48 3.035-11.038.888-17.345 5.757-24.52 13.965-5.804 7.084-11.72 15.798-11 25.375 1.075 3.897 2.072 5.86 5 8.625 4.035 2.028 7.527 2.3 12.012 2.414l2.053.06c2.207.06 4.415.106 6.622.151l4.59.11c4.574.107 9.148.189 13.723.265l3.979.07c3.507.056 7.014.092 10.521.117l3.1.04c11.22.013 20.762-1.603 29.4-9.227 6.571-9.21 10.713-19.97 15.121-30.316 3.22-7.531 6.606-14.983 10.004-22.434l1.92-4.215a7179 7179 0 0 1 10.018-21.875c33.629-73.17 33.629-73.17 30.41-85.117-2.2-5.374-6.34-9.323-10.262-13.484-15.895-16.915-23.732-37.88-23.426-60.868.278-8.71 2.665-15.003 8.215-21.691l2-1 .764 1.694c5.19 9.68 14.272 17.63 22.011 25.287 1.794 1.775 3.58 3.559 5.364 5.343 5.788 5.77 11.637 11.374 17.861 16.676q2.664 2.43 5.313 4.875c4.485 4.09 9.093 7.973 13.816 11.785 3.1 2.527 6.143 5.116 9.183 7.715 4.985 4.246 10.074 8.331 15.24 12.354a843 843 0 0 1 13.635 10.896l2.036 1.655c3.042 2.478 6.077 4.964 9.093 7.474l2.934 2.433 2.516 2.106C795 743 795 743 797.05 743.599 799 745 799 745 799.861 748.51q.299 2.307.557 4.619a254 254 0 0 0 4.07 22.46l.685 3.02q.704 3.086 1.413 6.17 1.111 4.837 2.204 9.676 1.444 6.38 2.895 12.76l.678 2.983 1.208 5.31q1.579 6.96 3.116 13.93l.738 3.216c1.358 6.208 1.865 11.995 1.575 18.346l-2.168.364a942 942 0 0 0-9.832 1.761l-3.41.57c-7.26 1.359-12.191 3.224-17.59 8.305l-2.32 2.133C776.952 871.56 770.822 880.65 771 891c1.647 4.758 3.863 7.204 8 10 2.785.488 2.785.488 5.853.47l3.502.009 3.766-.053 3.914-.01q4.104-.012 8.208-.06c3.466-.039 6.931-.057 10.397-.067 3.348-.01 6.696-.03 10.044-.05l3.71-.023c29.172-.316 29.172-.316 35.227-5.642 7.345-8.385 5.544-22.129 5.768-32.64l.089-3.781q.119-5.085.23-10.168.118-5.379.243-10.758.207-9.05.406-18.1.23-10.355.469-20.708.232-10.065.456-20.131l.193-8.46c.178-7.724.337-15.448.464-23.173q.062-3.686.135-7.372c.067-3.552.113-7.105.152-10.658l.07-3.168c.05-7.745-.77-15.593-6.421-21.394L864 703.074 862 701q-2.07-2.307-4.125-4.625c-4.393-4.877-8.863-9.682-13.358-14.465-2.99-3.2-5.832-6.444-8.517-9.91 5.842 1.204 11.47 2.706 17.154 4.513 25.245 8.02 49.988 10.853 75.846 3.487l2-.551c13.227-3.73 31.662-10.014 39.227-22.469 1.298-3.323.723-5.596-.227-8.98-5.556-6.307-14.017-8.58-21.738-11.332-20.35-7.26-36.59-17.818-52.262-32.668l-2.676-2.516C886.123 594.517 879.98 587.02 874 579l-1.277-1.699c-14.833-19.837-26.315-41.794-37.602-63.775-12.594-24.483-26.164-48.18-45.58-67.95a400 400 0 0 1-4.803-5.025c-41.97-43.87-96.464-53.796-153.926-62.363-23.571-3.517-47.11-7.116-70.558-11.387l-2.706-.492c-33.643-6.134-67.234-13.502-99.61-24.622l-3.715-1.274c-13.822-4.868-13.822-4.868-17.5-11.768l-1.783-3.287c-.305-.577-.61-1.154-.926-1.748-1.302-2.458-2.633-4.9-3.963-7.343q-1.028-1.887-2.051-3.777c-3.178-5.855-6.5-11.621-9.875-17.365l-1.72-2.93q-1.77-3.012-3.542-6.024a3200 3200 0 0 1-5.922-10.132c-7.886-13.525-15.875-26.979-24.057-40.327a633 633 0 0 1-11.117-18.905c-1.675-2.95-3.387-5.837-5.298-8.639-4.99-7.554-6.001-13.646-5.574-22.55 1.484-36.333-21.623-72.57-37.168-104.1a612 612 0 0 1-3.579-7.415l-1.836-3.81-1.636-3.44c-1.66-2.827-2.88-4.206-5.676-5.853-4.47-.96-7.962-.669-11.812 1.813" id="svg-layer-0" style="pointer-events: all; fill: none;"/><path fill="#002742" d="m306.375 60.563 2.273-.122c3.543.842 4.955 2.858 7.352 5.559a99 99 0 0 1 3.8 7.273l1.026 2.12a936 936 0 0 1 2.12 4.41 674 674 0 0 0 4.087 8.324c35.345 71.255 35.345 71.255 33.764 97.158-.642 10.683 1.728 17.278 7.567 26.185 3.056 4.727 5.929 9.568 8.84 14.386q1.666 2.75 3.345 5.496a857 857 0 0 1 14.422 24.56c2.716 4.8 5.48 9.56 8.341 14.275 10.097 16.675 19.684 33.662 29.12 50.717 1.505 2.709 3.03 5.405 4.568 8.096l1.062 1.928c3.81 6.428 11.262 7.782 17.938 10.072l2.438.866c62.755 22.134 130.308 30.32 195.867 39.954 17.143 2.526 34.053 5.194 50.695 10.18l2.558.751C728.525 399.056 747.75 409.588 765 423l1.69 1.305C782.946 437.033 797.102 452.172 809 469l1.309 1.812c10.288 14.302 18.078 30.195 26.164 45.8C852.303 547.148 869.16 576.011 893 601l2.457 2.617c17.088 17.723 38.126 28.272 61.14 36.255 5.25 1.875 9.778 4.136 13.34 8.503 1.44 3.557 1.349 4.983.063 8.625-9.733 15.335-32.221 21.233-49 25-25.664 5.627-49.011.47-73.459-7.357l-3.229-1.034-2.886-.938C839 672 839 672 836 672l2.16 2.344c8.7 9.456 8.7 9.456 12.153 13.468 2.301 2.674 4.685 5.25 7.12 7.801l1.896 1.995a585 585 0 0 0 3.786 3.938c6.19 6.51 9.018 12.484 9.004 21.54v3.02l-.018 3.27-.01 3.469c-.065 13.353-.355 26.701-.664 40.05q-.099 4.288-.193 8.576-.227 10.113-.46 20.228-.24 10.366-.468 20.733-.198 8.993-.405 17.984-.122 5.333-.24 10.664-.13 5.927-.272 11.853l-.074 3.486c-.583 23.849-.583 23.849-6.565 29.831-13.324 8.48-34.891 5.034-50.111 5.1q-4.16.022-8.32.082c-4.034.059-8.067.077-12.1.091l-3.75.07c-9.543-.024-9.543-.024-13.201-2.919-2.781-3.28-3.69-5.408-4.268-9.674 1.423-9.647 6.02-17.32 12.5-24.437l1.402-1.54c5.993-6.328 11.323-7.721 19.66-9.148q2.815-.503 5.63-1.008l2.506-.434c2.127-.4 4.209-.884 6.302-1.433.344-7.527-.633-14.24-2.312-21.562l-.775-3.508c-.957-4.313-1.933-8.622-2.913-12.93l-1.315-5.785-.704-3.095q-1.469-6.469-2.931-12.937c-.72-3.17-1.449-6.34-2.178-9.507q-.694-3.043-1.384-6.086l-.674-2.968a208 208 0 0 1-3.666-21.91c-.288-2.202-.288-2.202-1.148-5.712-1.904-1.356-1.904-1.356-4-2a231 231 0 0 1-6.375-5.437c-4.74-4.129-9.536-8.144-14.5-12a903 903 0 0 1-31.543-25.682 457 457 0 0 0-10.082-8.318c-5.224-4.251-10.154-8.774-15.066-13.375-2.688-2.516-5.427-4.967-8.176-7.415-5.44-4.886-10.649-9.98-15.82-15.148l-2.67-2.633C675.13 637.39 675.13 637.39 673 631c-5.904 5.084-9.47 12.133-10.177 19.96-.707 23.755 6.555 44.998 22.927 62.587 6.91 7.534 11.725 13.375 11.482 23.896-.353 3.89-1.47 7.2-2.92 10.807l-.934 2.419c-8.278 21.064-17.825 41.607-27.35 62.128a3299 3299 0 0 0-16.653 36.515l-1.108 2.466-3.181 7.085-1.024 2.28q-2.652 5.915-5.252 11.851l-1.086 2.473q-1.02 2.325-2.031 4.656c-3.917 8.911-8.29 15.289-17.63 19.064-7.134 1.893-14.035 1.971-21.375 1.938l-3.353-.012q-5.668-.04-11.335-.113l-2.183-.026q-6.897-.085-13.793-.238a721 721 0 0 0-4.523-.082 581 581 0 0 1-6.392-.142l-3.72-.08c-4.484-.572-7.883-2.03-11.202-5.12-2.25-4.383-2.653-8.148-1.632-12.89 3.724-11.535 12.334-23.594 23.066-29.578 4.72-2.264 9.272-2.614 14.442-2.907 7.37-.447 13.678-.869 19.332-6.192 4.03-5.036 5.533-11.43 7.476-17.48q.673-2.04 1.348-4.082c1.182-3.58 2.347-7.164 3.51-10.75 1.164-3.586 2.344-7.168 3.523-10.75q2.698-8.202 5.37-16.415c2.17-6.652 4.374-13.293 6.645-19.912 4.959-14.646 4.959-14.646 2.604-19.852-2.208-2.955-4.629-5.286-7.371-7.754-.531-.48-1.062-.96-1.61-1.453-3.364-3.013-6.811-5.9-10.327-8.735-6.469-5.237-12.557-10.808-18.563-16.562l-2.32-2.218C559.648 682.755 543.895 659.562 541 623l-2.015.728C518.728 631.03 498.38 638.048 478 645c-4.73 31.333-9.255 62.693-13.672 94.072l-1.618 11.48c-2.369 16.802-4.737 33.604-7.091 50.408q-1.866 13.315-3.748 26.628-.986 6.964-1.957 13.93c-4.571 32.812-4.571 32.812-7.456 47.354l-.53 2.79c-1.761 8.325-5.154 15.832-12.018 21.134-7.87 4.96-16.568 4.648-25.578 4.602q-2.112.003-4.223.01-4.401.005-8.802-.017c-3.75-.017-7.498-.007-11.247.01-2.9.012-5.8.008-8.702 0q-2.073-.004-4.146.008c-1.933.008-3.866-.006-5.799-.02l-3.322-.008c-4.854-.598-8.098-2.308-11.404-5.881-3.64-5.394-3.324-11.216-2.687-17.5 3.717-13.496 12.977-26.561 24.36-34.684 4.046-2.017 8.132-2.197 12.581-2.691 3.226-.66 4.764-1.292 7.059-3.625 3.828-11.628.405-27.31-.355-39.344l-.43-6.93q-.575-9.214-1.161-18.43-.363-5.697-.721-11.396c-2.34-37.007-4.846-73.982-8.333-110.9l-.271-2.925q-.395-4.236-.803-8.47l-.238-2.558c-.572-5.816-.572-5.816-1.688-8.047l-1.984.032c-3.006.042-6.01.067-9.016.093l-3.121.05-3.067.02-2.792.032c-3.852-.29-7.294-1.215-11.02-2.227l-.289 2.54c-2.28 19.862-4.968 39.593-8.306 59.31q-.527 3.119-1.049 6.237c-5.39 32.094-11.546 64.033-17.96 95.937l-1.184 5.911a5436 5436 0 0 1-4.513 22.332q-.685 3.356-1.365 6.713c-6.701 33.044-6.701 33.044-13.584 43.457a592 592 0 0 0-2.352 3.68l-1.2 1.89c-1.277 2.125-2.415 4.288-3.534 6.5l-1.163 2.3a280 280 0 0 0-2.143 4.384c-3.014 5.99-6.845 10.375-13.146 12.947-3.5.94-6.586 1.182-10.208 1.276l-2.007.06c-2.145.06-4.29.106-6.435.151l-4.455.108q-5.53.129-11.06.227c-1.899.037-3.797.082-5.696.127-3.117.072-6.233.123-9.351.163l-2.705.065c-7.204.037-13.954-1.208-19.732-5.753-3.771-3.77-4.9-6.618-5.125-11.937.287-13.139 9.449-24.793 18.562-33.625 6.93-5.878 11.554-8.955 20.636-9.24 6.955-.24 12.544-.651 18.364-4.76 6.03-8.511 5.407-20.606 6-30.66l.244-3.9q.323-5.18.629-10.36.192-3.238.39-6.474c.597-9.867 1.173-19.736 1.737-29.606l.197-3.41c2.168-37.794 3.64-75.053-2.197-112.59l-.536-3.467a6136 6136 0 0 0-7.75-48.894c-.9-5.535-1.788-11.07-2.6-16.618l-.398-2.68a462 462 0 0 1-.676-4.75c-.733-4.942-2.094-8.192-5.173-12.068-22.564-30.495-25.372-68.844-24.514-105.279.147-6.402.265-12.806.381-19.209l.037-1.997c.707-39.13.807-78.044-2.771-117.038l-2.058.107q-9.81.51-19.621 1.015-5.038.259-10.077.52c-7.8.407-15.6.792-23.4 1.163-3.813.193-7.622.422-11.431.656q-3.587.195-7.175.387l-3.257.228c-9.217.45-17.04-1.436-24.293-7.326-6.465-5.869-10.631-13.196-14.438-20.937-3.083-6.092-6.32-11.632-10.625-16.938-6.113-7.613-9.38-13.426-8.937-23.367.732-5.881 3.47-9.092 7.926-12.824 5.242-3.7 11.2-6.2 17.011-8.871l2.17-1.011c17.547-8.174 35.402-15.653 53.264-23.11l2.609-1.09 2.4-.998 2.092-.87c1.592-.635 3.214-1.192 4.84-1.734.957-2.52.957-2.52 1.813-5.812 4.237-14.56 11.15-26.33 24.632-33.934 3.14-1.541 6.33-2.901 9.555-4.254q-.176-6.75-.375-13.5l-.062-2.119c-.267-8.931-.614-17.856-1.075-26.78l-.136-2.642a3220 3220 0 0 0-.691-12.773c-.438-7.977-.785-15.956-.907-23.944l-.066-2.2c-.045-6.621 1.504-11.066 6-15.98 3.23-2.011 5.408-2.954 9.25-2.648C229.238 65.056 234.872 76.46 240 84q1.346 1.953 2.695 3.902 2.775 4.017 5.532 8.047 2.7 3.949 5.421 7.883c5.31 7.68 10.535 15.414 15.707 23.188l1.946 2.921L276 137l.694-2.496a9823 9823 0 0 1 6.53-23.348q1.687-6 3.357-12.002 1.612-5.8 3.248-11.594.62-2.204 1.23-4.412c6.17-22.32 6.17-22.32 15.316-22.585M310 109l-.559 2.516c-2.194 9.323-4.961 18.381-7.941 27.484-10.51 32.224-10.51 32.224-7.285 39.887C308.662 202.376 308.662 202.376 317 208c2.007-.204 2.007-.204 4-1 2.77-5.678 3.51-10.759 3.688-17.012l.097-2.55c.092-2.709.158-5.416.215-8.125l.064-2.807c.255-12.762.055-24.592-4.13-36.78-1.157-3.378-2.214-6.785-3.274-10.195A1133 1133 0 0 0 311 109zm-83.493 84.117q-2.006.195-4.014.375c-1.947.174-3.892.366-5.837.559l-3.506.333c-3.342.654-5.416 1.61-8.15 3.616-1.145 2.262-1.145 2.262-1.812 4.688l-.708 2.449L202 207c1.739 1.739 4.2 1.418 6.574 1.648l3.463.36q3.621.365 7.242.71c5.842.617 10.628 1.123 15.721 4.282l3 1c1.995 3.676 2.603 6.862 2 11-2.173 2.573-3.98 4.49-7 6a207 207 0 0 1-7.965.027l-4.861-.037a2303 2303 0 0 1-7.677-.086c-2.466-.03-4.933-.048-7.4-.064l-2.32-.04c-3.814-.019-5.522.03-8.777 2.2.19 7.391 5.224 12.229 10.195 17.191 11.064 10.206 23.325 18.98 35.535 27.739A611 611 0 0 1 256 291l3.07 2.34 2.993 2.348 2.66 2.074c3.916 3.85 5.462 7.41 5.773 12.851-.259 9.06-3.118 17.868-5.433 26.575q-1.062 4.043-2.11 8.09-.648 2.502-1.315 5c-1.284 4.905-2.112 9.677-2.638 14.722 15.832-.316 28.078-1.505 41-11l3.18-2.242c2.997-2.188 5.91-4.456 8.82-6.758q2.372-1.818 4.748-3.631c5.748-4.393 11.48-8.813 17.129-13.333 2.77-2.218 5.547-4.354 8.486-6.345 7.221-5.147 7.221-5.147 8.266-9.027-.156-3.067-.812-5.699-1.629-8.664q-.529-2.25-1.047-4.504c-3.87-16.22-9.036-33.278-22.957-43.66-5.4-3.31-11.218-5.627-17.062-8.033-16.656-6.915-27.216-18.352-37.747-32.615-15.434-20.775-15.434-20.775-24.117-22.954-6.512-.737-13.077.24-19.563.883m150.74 128.386c-4.43 3.815-8.93 7.534-13.47 11.22a688 688 0 0 0-9.277 7.777c-11.444 9.71-23.005 19.3-35.328 27.883l-2.5 1.755a414 414 0 0 1-4.932 3.396l-2.26 1.583-2.034 1.394C306 378 306 378 306 382a111 111 0 0 0 2.73 4.047c2.857 4.395 4.972 9.25 7.27 13.953q1.434 2.876 2.875 5.75L321 410c3.748-.578 6.452-1.617 9.703-3.555l2.695-1.596 2.852-1.724 2.968-1.777C366.915 384.668 395.27 366.168 418 343c-6.562-12.39-13.27-24.7-20-37-6.675 0-15.622 11.079-20.753 15.503m43.71 51.91c-11.931 9.827-24.637 18.54-37.582 26.962l-2.1 1.371c-21.38 13.958-42.906 27.69-66.077 38.53-7.044 3.384-11.491 7.677-15.76 14.161-8.005 12.085-8.005 12.085-12.438 13.563-11.966.798-23.83-2.859-35.365-5.73-3.353-.818-6.156-1.27-9.635-1.27-.583 39.693 3.219 78.214 31 109l2.14 2.535c19.946 23.21 53.748 43.027 83.86 48.465-4.173-13.636-12.764-25.522-20.798-37.132-2.957-4.596-3.914-8.36-3.202-13.868 1.25-2.875 2.255-4.441 4.75-6.312 4.514-1.38 7.983-1.295 12.25.75 7.335 6.265 12.026 14.652 16.795 22.924 1.734 3.005 3.492 5.996 5.252 8.986l1.04 1.767c2.7 4.569 5.51 9.046 8.476 13.447l1.187 1.764a194 194 0 0 0 5.305 7.404c6.635 8.88 8.199 18.485 9.699 29.29l.443 3.09q.46 3.222.91 6.446c.45 3.212.911 6.42 1.375 9.63q.45 3.165.897 6.334l.404 2.799c2.364 17.12 3.482 34.353 4.263 51.608q.215 4.713.444 9.426.643 13.372 1.257 26.748.382 8.257.785 16.513.148 3.093.286 6.187c.497 11.187 1.293 22.28 2.64 33.4l.366 3.096.37 2.879c.108.837.214 1.673.324 2.535.499 2.368 1.305 4.184 2.482 6.289 4.094-2.103 5.924-3.908 8-8 .718-2.917.718-2.917 1.208-6.193.19-1.243.382-2.487.58-3.768l.595-4.098q.325-2.156.653-4.31c.587-3.88 1.16-7.76 1.73-11.641.603-4.078 1.217-8.153 1.829-12.228 1.486-9.918 2.948-19.84 4.405-29.762l.653-4.446c2.294-15.61 4.558-31.223 6.803-46.84a9763 9763 0 0 1 3.552-24.464l.484-3.308q.901-6.162 1.806-12.323.6-4.075 1.194-8.15l.38-2.593a926 926 0 0 0 1.918-13.888l.397-3.017q.373-2.857.73-5.716c.608-4.655 1.48-8.819 3.083-13.255.99-8.902-4.01-15.212-8.633-22.41-10.762-20.386 1.287-51.868 5.669-72.9 2.63-12.667 5.048-25.331 6.964-38.128l.592-3.921c4.73-32.801 4.605-69.952-14.283-98.684-4.832-6.189-10.533-11.653-16.309-16.957-2.952 0-7.687 5.447-10.043 7.412M244 390v43a337 337 0 0 0 19.688 6.688l3.087.97 2.987.916 2.686.831c2.656.62 4.837.857 7.552.595 2.105-2.133 2.105-2.133 4.188-5.125q1.152-1.654 2.308-3.309l1.214-1.765c1.334-1.862 2.748-3.628 4.2-5.399 7.027-8.75 7.027-8.75 7.192-13.078-.77-2.46-1.656-4.19-3.102-6.324l-1.855-2.86c-2.19-3.205-4.484-6.3-6.832-9.39-4.203-5.53-4.203-5.53-5.313-7.75-3.896-.06-7.791-.094-11.687-.125-1.084-.017-2.167-.034-3.284-.05l-3.29-.02-2.968-.032c-5.63.339-11.197 1.37-16.771 2.227m428 97-1.766 1.738c-9.133 9.664-10.872 21.59-10.632 34.325C661.278 558.627 678.67 600.099 702 627l1.934 2.266c4.83 5.516 9.958 10.726 15.129 15.922l2.001 2.016c4.483 4.467 9.129 8.682 13.936 12.796l1.732 1.495a1729 1729 0 0 0 4.956 4.255l1.805 1.546q6.087 5.209 12.194 10.391l1.633 1.385c3.311 2.8 6.67 5.53 10.055 8.24 5.998 4.874 11.573 10.173 17.195 15.47 3.727 3.508 7.54 6.893 11.43 10.218l3.063 2.66a694 694 0 0 0 19.062 15.965l1.9 1.542c6.827 5.457 6.827 5.457 11.475 6.27 2.5-.437 2.5-.437 4.625-2.375 3.687-6.022 6.193-12.933 4.875-20.062-2.772-9.615-10.646-16.408-17.415-23.367-4.813-4.957-9.138-10.176-13.21-15.758l-2.164-2.945c-6.771-10.99-8.939-24.514-11.399-36.992-.186-.928-.372-1.856-.565-2.811-2.686-13.457-4.888-26.966-6.84-40.545l-.33-2.284a2573 2573 0 0 1-3.159-22.676C779.716 523.561 779.716 523.561 770 503c-.51-1.1-1.02-2.202-1.547-3.336-7.076-14.185-16.81-25.511-31.765-31.539-23.465-7.159-48.105 1.762-64.688 18.875m-41.937 57.633-1.863.57q-2.026.62-4.05 1.252c-2.187.682-4.378 1.354-6.568 2.025a3043 3043 0 0 0-22.281 6.945C555.62 567.935 516.01 577.82 475 585c.842 5.578 3.297 10.337 5.625 15.43 2.494 6.474 2.48 12.749 2.375 19.57 6.463-1.841 12.714-3.944 18.934-6.484l2.492-1.007a2860 2860 0 0 0 8.012-3.259l2.803-1.139a2108 2108 0 0 0 41.902-17.578 2687 2687 0 0 1 31.17-13.22l2.254-.94c12.037-5.011 24.121-9.9 36.247-14.694l3.499-1.386 3.05-1.202A83 83 0 0 0 640 556c-.28-1.98-.575-3.96-.875-5.937l-.492-3.34L638 544c-3.002-1.501-4.766-.348-7.937.633" id="svg-layer-1" style="pointer-events: all;"/><path fill="none" d="M430 366c21.182 17.652 30.836 40.085 33.535 67.306 3.266 38.988-6.623 78.53-14.602 116.427l-.569 2.714q-.524 2.493-1.057 4.985c-3.556 16.892-4.119 31.635 5.38 46.568l1.825 2.688c2.573 3.998 2.987 7.675 2.488 12.312a142 142 0 0 1-1.36 4.555c-2.085 7.475-2.88 15.063-3.8 22.75-2.875 23.847-6.464 47.578-10.086 71.32q-.9 5.896-1.797 11.793l-.364 2.39a4442 4442 0 0 0-5.264 35.606l-1.133 7.851a8365 8365 0 0 0-3.24 22.599q-.66 4.624-1.33 9.246a998 998 0 0 0-.606 4.27c-2.713 19.42-2.713 19.42-7.707 24.183L418 837l-2-1c-2.625-8.898-3.314-18.34-3.977-27.55l-.254-3.486c-.728-10.467-1.23-20.94-1.699-31.421l-.117-2.607c-.36-8.03-.716-16.06-1.052-24.091-1.316-31.318-3.512-62.544-8.601-93.508-.381-2.325-.74-4.653-1.099-6.982q-.366-2.299-.736-4.597l-.313-2.033c-1.353-8.066-4.058-14.13-9.09-20.475-4.378-5.747-8.263-11.655-11.937-17.875l-1.49-2.517a4264 4264 0 0 1-3.05-5.169q-4.158-7.056-8.397-14.064l-1.56-2.647c-3.534-5.807-7.426-10.877-13.628-13.978-4.97-.375-8.052-.159-12 3-2.206 2.836-2.608 6.058-2.496 9.621 1.533 7.353 7.052 13.74 11.212 19.862l1.284 1.892 1.284 1.888C359 615.266 359 615.266 359 621c-7.4-1.865-14.45-4.144-21.5-7.062l-2.863-1.184c-35.762-15.078-66.8-39.251-82.403-75.742-9.922-24.606-10.62-49.79-10.234-76.012 6.598.586 12.732 1.797 19.125 3.5 7.116 1.878 14.096 3.588 21.5 3.75l2.164.078c3.934-.584 6.463-2.412 8.95-5.457l1.574-2.433 1.835-2.688a383 383 0 0 0 3.516-5.312c5.83-8.22 13.522-12.052 22.336-16.438l2.019-1.006q3.957-1.966 7.922-3.918C363.419 415.93 393.758 395.697 420 374a2783 2783 0 0 1 5.875-4.687zM749 475c.614.43 1.227.859 1.86 1.3 28.095 21.846 31.262 65.579 35.69 97.938 2.865 20.875 5.938 41.646 10.013 62.324l.538 2.8c4.383 22.625 11.884 38.396 27.79 55.195 15.387 16.251 15.387 16.251 16.547 26.193-.229 5.826-2.227 12.485-5.887 17.063C834 739 834 739 831 739.188c-13.897-2.809-28.42-20.677-38.586-29.989-2.764-2.518-5.574-4.979-8.398-7.43-2.302-2.02-4.564-4.082-6.828-6.144-4.272-3.856-8.678-7.5-13.149-11.121-4.156-3.425-8.216-6.955-12.276-10.493a1154 1154 0 0 0-11.14-9.587A523 523 0 0 1 719 645l-1.817-1.714c-32.067-30.421-56.058-77.616-57.72-122.371-.148-14.815 4.5-25.585 14.537-36.477 19.651-18.956 51.948-25.76 75-9.438" id="svg-layer-2" style="pointer-events: all; fill: none;"/><path fill="none" d="M255 197c6.027 5.727 11.027 12.261 15.938 18.938 10.154 13.78 20.218 24.963 36.359 31.53 16.664 6.787 26.797 14.23 34.328 31.032 2.986 7.583 5.04 15.424 6.86 23.356.438 1.824.964 3.626 1.507 5.421.709 3.048.936 4.725.008 7.723-3.32 3.824-7.046 6.727-11.15 9.668a156 156 0 0 0-5.155 3.894 466 466 0 0 1-6.457 4.977 605 605 0 0 0-7.961 6.159 370 370 0 0 1-16.402 12.052l-1.88 1.32A193 193 0 0 1 295 357l-2.477 1.614c-7.194 4.353-13.385 5.42-21.71 5.761l-3.463.207q-4.173.244-8.35.418c.968-7.005 2.383-13.824 4.164-20.66l.6-2.31q1.234-4.743 2.5-9.478c6.137-22.985 6.137-22.985 1.658-30.88-2.74-3.777-5.966-6.624-9.672-9.422l-1.96-1.525c-6.286-4.838-12.781-9.384-19.286-13.92-9.586-6.693-18.684-13.876-27.517-21.527a312 312 0 0 0-4.132-3.473C200.652 247.827 196.35 243.82 194 238c.063-2.937.063-2.937 1-5 3.127-1.564 6.434-1.037 9.86-.957q2.41.034 4.82.064c2.532.037 5.064.08 7.596.14 2.445.055 4.888.083 7.333.108l2.274.073c5.204.025 8.124-1.12 12.117-4.428 1.775-3.549 1.271-7.006.25-10.75-1.493-2.687-2.406-3.194-5.25-4.25l-2.253-1.002c-3.02-1.097-5.691-1.47-8.888-1.78l-3.492-.363q-3.64-.357-7.281-.71l-3.477-.364-3.188-.31L203 208c-1-2-1-2-.617-3.84l.742-2.097.695-2.09c1.627-2.72 3.36-3.54 6.18-4.973 3.071-.632 3.071-.632 6.48-.984l3.78-.395 3.928-.371 3.869-.418c19.638-1.959 19.638-1.959 26.943 4.168" id="svg-layer-3" style="pointer-events: all; fill: none;"/><path fill="#E48B34" d="M396 306c3.623 1.208 3.752 1.872 5.418 5.164l1.352 2.632 1.418 2.829q1.467 2.87 2.937 5.738l1.465 2.882c1.986 3.88 4.035 7.726 6.098 11.567l1.949 3.645L418 343c-24.18 24.35-53.608 43.467-83.062 60.813l-3.157 1.87-2.941 1.712-2.614 1.526C324 410 324 410 321 410l-1.54-3.113c-3.617-7.292-7.278-14.537-11.233-21.653A153 153 0 0 1 305 379l6-5 2 1v5h4l.805-1.898 1.07-2.477 1.055-2.46c1.078-2.182 2.368-3.463 4.07-5.165h-2v-2c1.513-1.21 3.09-2.341 4.688-3.437a175 175 0 0 0 12.875-10.063c3.744-3.212 7.5-6.382 11.375-9.437 4.713-3.735 9.264-7.641 13.817-11.568 4.418-3.804 8.904-7.514 13.433-11.186 3.902-3.204 7.743-6.479 11.574-9.768 4.023-3.433 4.023-3.433 6.238-4.541" id="svg-layer-4" style="pointer-events: all;"/><path fill="none" d="M638 544c.633 2.723.633 2.723 1.125 6.063l.508 3.347L640 556c-11.236 4.911-22.528 9.63-33.937 14.125-14.762 5.834-29.346 12.069-43.938 18.313-18.6 7.956-37.215 15.84-56.01 23.32q-4.488 1.793-8.967 3.61-2.51 1.005-5.023 2.007l-2.185.889c-1.624.638-3.28 1.197-4.94 1.736l-2-1 .125-3.375c-.065-9.278-2.762-16.569-6.883-24.84C475 588 475 588 475 585l3.44-.607c47.162-8.37 92.222-21.112 137.869-35.48l3.064-.963q2.862-.9 5.724-1.805l2.582-.813 2.247-.71L632 544l2.145-.646C636 543 636 543 638 544" id="svg-layer-5" style="pointer-events: all; fill: none;"/><path fill="none" d="M310 109c2.17 3.254 3.103 6.073 4.277 9.8l.643 2.04q.673 2.144 1.339 4.29c.665 2.14 1.342 4.275 2.02 6.411A480 480 0 0 1 322 144l.99 3.432c2.42 9.585 2.301 18.896 1.974 28.702a623 623 0 0 0-.198 8.272 2377 2377 0 0 1-.149 5.336l-.048 2.46c-.208 5.49-1.132 9.837-3.569 14.798-1.972.809-1.972.809-4 1-10.106-6.83-19.129-20.94-24-32-.393-5.276.487-9.944 1.875-15l.638-2.388c2.658-9.66 5.835-19.172 9.008-28.673 2.294-6.917 4.316-13.734 5.479-20.939" id="svg-layer-6" style="pointer-events: all; fill: none;"/><path fill="#DD7013" d="M265 388h14l1 5h2a140 140 0 0 1 5 6.813c.226.32.226.32 1.367 1.947q2.864 4.087 5.633 8.24l2-2c2.028 2.97 2.951 5.383 3 9-2.338 4.5-5.34 8.29-8.544 12.203-1.864 2.301-3.625 4.672-5.385 7.054-1.672 2.261-3.372 4.502-5.071 6.743-7.62-.609-14.644-2.79-21.937-5l-3.768-1.117C245.14 434.14 245.14 434.14 244 433c-.254-4.286-.185-8.583-.187-12.875l-.038-3.668-.005-3.512-.013-3.234C244 407 244 407 246 404h1l1-12 4.563-.437c4.167-.415 8.297-.933 12.437-1.563zm-10.312 17.563c-2.93 4.231-3.334 8.417-2.688 13.437 1.393 4.164 3.572 7.039 7.25 9.438 4.088 2.03 7.228 2.064 11.75 1.562 4.655-1.844 7.693-3.73 10.188-8.062 1.424-5.152 1.892-10.248-.133-15.293-1.768-3.052-3.359-5.18-6.305-7.145-8.663-1.575-13.902-.764-20.062 6.063" id="svg-layer-7" style="pointer-events: all;"/><path fill="#374550" d="M274 403c2.9 2.562 4.716 5.183 6 8.875 0 5.266-1.68 9.408-4.875 13.563-2.529 1.859-3.988 2.413-7.125 2.562-3.062-.875-3.062-.875-6-2l-2.187-.437c-2.305-.716-3.306-1.698-4.813-3.563-1.552-4.657-2.066-9.4-.164-14.04 2.567-4.048 5.518-6.32 10.113-7.714 3.736-.448 5.93.811 9.051 2.754" id="svg-layer-8" style="pointer-events: all;"/><path fill="#092E47" d="M274.75 399.5c3.642 2.428 5.62 5.462 7.25 9.5.975 5.92.469 10.977-3 16-4.336 4.01-7.83 5.432-13.805 5.344-4.072-.638-7.125-2.67-10.195-5.344-2.73-3.84-3.55-7.242-3.352-11.98.837-4.804 3.384-8.144 6.977-11.395 5.113-3.498 10.134-3.214 16.125-2.125m-14.727 3.14c-3.118 2.096-4.526 3.91-6.023 7.36-.669 4.401-.511 7.856 1.313 11.938C257 424 257 424 260 426h2l3.313 1.125c3.687.875 3.687.875 6.375.313 4.104-2.552 5.907-5.425 7.687-9.875.904-5.15-.336-7.909-3.062-12.25-5.429-5.429-9.677-6.148-16.29-2.672" id="svg-layer-9" style="pointer-events: all;"/><path fill="#E58B34" d="M265 388v2c-2.765 1.843-4.887 2.115-8.125 2.063C253 392 253 392 251 393l-3-1 .07 2.992.055 3.883.07 3.867C248 406 248 406 246 408l-2-1v-17c7.099-1.183 13.806-2.282 21-2" id="svg-layer-10" style="pointer-events: all;"/><path fill="#DF791D" d="m326 365 2 1-2.375 1.75c-2.573 2.205-3.335 3.241-4.625 6.25-3.572 6.786-3.572 6.786-6 8v-2h-2l-2-4c4.31-4.564 9.085-8.676 15-11" id="svg-layer-11" style="pointer-events: all;"/><path fill="#E48931" d="M279 388h3a110 110 0 0 1 4 6 903 903 0 0 0 7.172 9c2.04 3.35 2.217 5.152 1.828 9a285 285 0 0 1-8.187-10.625l-2.106-2.852C283 396 283 396 282 393h-2l-2-4z" id="svg-layer-12" style="pointer-events: all;"/></svg>