<svg xmlns="http://www.w3.org/2000/svg" width="1024" height="1024"><path fill="none" d="M0 0h1024v1024H0zm555 75v2l-1.687.75C548.537 80.331 545.238 83.682 542 88c-3.97-.54-5.722-2.407-8.437-5.25l-2.395-2.473L529 78a282 282 0 0 0-5-5l-1.574-1.633c-3.083-2.979-4.976-4.264-9.239-5.242C506.165 66.633 500.7 73.275 496 78a290 290 0 0 1-3.937 3.563l-2.028 1.816c-1.942 1.547-3.778 2.606-6.035 3.621-13.437-11.143-13.437-11.143-19.316-17.441-3.018-2.794-5.128-3.53-9.247-3.746C449.044 66.83 444.62 71.81 440 76q-1.556 1.377-3.113 2.75C429.21 85.58 429.21 85.58 428 88l-3 1v-2c-1.293-1.305-1.293-1.305-3.187-2.875-4.607-3.904-9.017-7.994-13.42-12.125-4.277-3.984-6.326-5.368-12.303-5.281-5.613.755-9.336 5.433-13.09 9.281q-1.644 1.359-3.312 2.688L377 81v2l-1.875.75c-2.5 1.47-2.958 2.664-4.125 5.25a196 196 0 0 1-13.125-12.125l-2.57-2.562a150 150 0 0 1-3.922-4.063c-2.833-2.817-5.326-3.679-9.195-4-9.51.567-15.892 9.223-22.027 15.749-1.955 2.04-3.707 3.78-6.263 5.024-5.87-.072-11.312-7.388-15.212-11.354a443 443 0 0 1-4.108-4.314c-3.58-3.271-6.316-4.197-11.078-4.793-4.458.558-5.711 2.012-8.5 5.438-2.637 3.955-2.273 7.346-2.243 11.934l-.006 2.77c-.003 3.03.007 6.06.019 9.089v6.32q.003 6.63.024 13.262.024 8.483.02 16.964.001 6.531.013 13.062.005 3.125.006 6.251.004 4.383.022 8.767l-.002 2.59c.04 7.478.293 14.164 3.96 20.866 2.293 4.363 4.347 8.66 6.052 13.284C284 200 284 200 285.481 202.936c5.634 11.905 5.358 23.319 5.274 36.293q.01 3.675.026 7.349.027 7.959.002 15.919c-.026 7.89-.016 15.781 0 23.672.028 14.096.021 28.192 0 42.288q-.027 18.503-.019 37.004v2.482l.005 9.977c.013 31.174-.008 62.348-.045 93.523a43864 43864 0 0 0-.017 83.043l.016 23.916a53123 53123 0 0 1-.013 76.923l-.004 4.958q-.01 18.49.006 36.98c.01 14.018.004 28.035-.027 42.053q-.027 11.76-.004 23.52c.011 5.86-.004 11.718-.03 17.577a949 949 0 0 0 .007 7.1c.055 12.202.046 22.438-5.658 33.487a496 496 0 0 0-2.098 4.82q-.978 2.154-1.964 4.305c-5.489 12.206-9.092 22.769-9.083 36.244l-.01 2.408q-.013 3.904-.013 7.809l-.01 5.476q-.009 5.727-.007 11.454c0 4.87-.014 9.74-.031 14.612a3643 3643 0 0 0-.013 11.304q0 2.692-.013 5.384c-.091 23.252-.091 23.252 4.68 29.246 3.023 2.286 4.846 2.909 8.625 3.063 5.903-.978 9.834-6.14 13.937-10.125 1.986-1.828 3.994-3.632 6-5.437 4.738-4.301 4.738-4.301 7-6.563 3.92 3.363 7.788 6.717 11.375 10.438C326 948 326 948 328 948l.688 1.75c1.946 3.337 4.545 5.67 8.253 6.887 5.039.889 8.795-.762 12.848-3.567 4.993-3.997 9.256-8.069 13.211-13.07 1.63-1.377 3.287-2.727 5-4 3.508 1.52 5.953 3.6 8.75 6.188.88.801 1.758 1.603 2.664 2.43a918 918 0 0 1 4.734 4.39c4.144 3.783 8.358 7.419 13.852 8.992 2.938-.562 2.938-.562 5-2l1-3c1.875-1.062 1.875-1.062 4-2l3-2v-2c.556-.235 1.111-.47 1.684-.71 3.86-2.15 6.794-5.358 9.976-8.392C425 936 425 936 428 936c1.622 1.19 1.622 1.19 3.363 2.852l1.94 1.832 2.01 1.941 1.974 1.871c5.089 4.84 5.089 4.84 7.36 7.258 3.878 4.121 6.28 5.44 11.845 5.664 4.754-.792 7.298-4.051 10.508-7.418a482 482 0 0 1 5.188-4.687l2.417-2.2a97 97 0 0 1 5.196-4.258L482 937v-2c3.816 1.296 6.032 2.731 8.75 5.688 3.478 3.629 7.137 6.682 11.172 9.671C504 952 504 952 506.078 954.141 508 956 508 956 511 957c7.751-1.904 12.394-6.517 18-12l2.414-2.297c4.086-3.956 4.086-3.956 5.586-5.703v-2c3.032-.298 4.495-.388 6.957 1.504l1.856 2.058a125 125 0 0 0 10.25 9.766 99 99 0 0 1 3.75 3.406C563.71 955.388 566.423 957 572 957c3.016-1.223 5.12-2.845 7.46-5.082l1.93-1.826 1.985-1.904c4.43-4.222 8.875-8.328 13.625-12.188 3.903 1.32 6.203 2.865 9.031 5.844l2.207 2.277 4.524 4.758 2.207 2.277 1.982 2.088c2.763 2.368 5.465 3.672 9.12 3.865 6.7-1.172 10.42-4.842 15.202-9.496 3.165-3.032 6.53-5.634 10.047-8.238C653 938 653 938 654 936c3.327 1.44 5.413 3.222 7.898 5.844l2.204 2.277q2.267 2.373 4.523 4.758c7.177 7.392 7.177 7.392 12.375 8.121 6.382-.043 9.182-2.317 13.438-6.625l3.394-3.281 1.64-1.61c1.994-1.936 4.058-3.782 6.153-5.609l1.79-1.57C709 937 709 937 712 935c4.14 3.523 8.15 7.098 11.938 11 10.354 10.416 10.354 10.416 16.25 11.688 3.697-.904 5.901-2.23 8.812-4.688 2.636-4.357 3.37-7.544 3.328-12.605l-.004-1.978c-.009-2.202-.04-4.403-.074-6.605l-.042-4.743c-.034-3.593-.08-7.186-.13-10.78-.079-5.854-.114-11.708-.147-17.563q-.046-6.991-.121-13.982-.053-4.98-.08-9.957c-.021-3.768-.068-7.535-.12-11.303l-.004-3.414c-.129-6.93-1.305-11.982-4.606-18.07l-1.344-2.934-1.156-2.504c-1.932-4.253-3.81-8.511-5.463-12.882a88 88 0 0 0-2.083-4.96c-4.41-10.762-3.519-22.17-3.482-33.6q-.01-3.672-.025-7.344-.027-7.97-.018-15.939c.008-7.9-.006-15.801-.025-23.702a18657 18657 0 0 1-.04-44.802 34505 34505 0 0 0-.02-39.582l-.003-2.495-.002-2.5-.002-2.503c-.021-23.234-.033-46.468-.028-69.702v-2.653l.003-13.311.001-2.67.001-5.346q.009-41.581-.062-83.164a50803 50803 0 0 1-.072-103.465v-2.481c.002-12.341-.016-24.683-.042-37.024-.03-14.042-.037-28.084-.01-42.126.013-7.851.008-15.701-.025-23.552-.023-5.874-.009-11.747.02-17.62q.009-3.552-.02-7.103c-.108-14.353 1.398-25.193 7.897-38.036.71-1.72 1.404-3.447 2.063-5.187 1.008-2.631 2.071-5.062 3.412-7.545 5.647-11.11 5.385-21.789 5.287-34.045q.002-3.274.01-6.549.005-6.821-.045-13.643c-.04-5.82-.03-11.638-.005-17.457.014-4.497.004-8.993-.014-13.489q-.01-3.219.004-6.438a658 658 0 0 0-.05-8.987c.01-.878.018-1.757.027-2.662-.117-6.202-1.597-9.312-5.689-13.998-3.228-1.614-5.406-1.4-9-1-9.547 4.012-16.957 13.685-24 21q-1.909-1.402-3.812-2.812l-2.145-1.583C705 82 705 82 703.363 80.301 702 79 702 79 700 79l-.703-1.707c-1.629-2.88-3.61-4.746-6.047-6.98l-2.547-2.387c-3.036-2.163-5.01-2.703-8.703-2.926-8.375 2.792-14.932 10.59-20.395 17.238C660 84 660 84 657.801 85.605L656 87v2c-3.906-3.245-7.65-6.601-11.18-10.254l-1.69-1.741a300 300 0 0 1-3.297-3.473c-4.469-4.623-8.605-7.293-15.208-7.782-4.69 1.617-6.949 4.245-10.285 7.832-2.868 2.964-5.985 5.37-9.297 7.813-2.207 1.734-4.162 3.521-6.043 5.605v2l-1.645-1.496-2.168-1.942-2.144-1.933C591 82 591 82 588 81l-.793-1.672c-1.83-3.53-4.627-5.894-7.52-8.578l-1.724-1.68c-4.235-3.947-4.235-3.947-7.701-4.53-5.714 1.164-11.246 6.3-15.262 10.46" id="svg-layer-0" style="pointer-events: all; fill: none;"/><path fill="#F7E9CA" d="m371.928 181.873 3.829-.009 4.224.007 4.43-.006q6.024-.005 12.048 0c4.196.003 8.391 0 12.587 0q10.569-.004 21.137.005 12.236.007 24.471-.002 10.49-.007 20.978-.003 6.273.003 12.544-.001 5.894-.004 11.787.005 2.169 0 4.338-.002 2.949-.001 5.898.006l3.34.001C516 182 516 182 517 183c2.02.049 4.042.036 6.063 0a183 183 0 0 1 15.35.493c8.644.588 17.256.641 25.917.62l5.002.001q6.708-.001 13.416-.013c4.694-.006 9.388-.006 14.082-.008q13.296-.005 26.592-.021 15.153-.015 30.305-.022 31.137-.016 62.273-.05v4h-2v3h-2l1 4h-2l-.367 1.688-.508 2.312-.492 2.25c-.486 2.11-1.053 4.2-1.656 6.278-1.229 4.936-1.259 9.706-1.24 14.77l-.012 3.08c-.012 3.41-.009 6.819-.006 10.228q-.007 3.701-.018 7.402-.02 9.11-.02 18.22c-.002 7.275-.016 14.551-.03 21.827-.031 17.586-.043 35.172-.053 52.758q-.007 12.486-.02 24.972a129878 129878 0 0 0-.058 107.068l-.001 2.703c-.007 28.908-.04 57.815-.086 86.723a59878 59878 0 0 0-.08 101.826v2.507a19743 19743 0 0 1-.054 39.865q-.043 20.055-.019 40.111.015 11.898-.03 23.796c-.022 5.94-.013 11.88.009 17.82q.007 3.585-.02 7.17c-.111 16.284.878 32.463 9.761 46.626v2l3 1v4H303v-3l1.873-.247C307 840 307 840 308.14 838.238l.894-2.281 1.014-2.506 1.014-2.639q1.014-2.553 2.035-5.105l.89-2.298C315 821 315 821 316.583 818.532c1.992-4.962 1.492-9.195 1.113-14.46q-.184-3.257-.358-6.514l-.185-3.329c-.228-4.839-.272-9.671-.278-14.515l-.005-2.857q-.003-4.5.004-9l-.005-6.665q-.005-9.045.001-18.09.002-8.789-.003-17.576-.007-19.048-.002-38.097.004-16.656.002-33.312v-2.239l-.001-9q-.004-42.112.005-84.225.007-37.395 0-74.791a279508 279508 0 0 1-.004-93.12v-2.23q.002-16.66-.002-33.32-.005-18.927.003-37.853.005-9.656 0-19.313-.004-8.835.004-17.67.001-3.198-.002-6.397-.004-4.344.005-8.686l-.007-2.517c.016-5.006.435-9.798 1.133-14.756.093-1.415.164-2.832.193-4.25l.049-2.218c.045-3.325.085-6.65.108-9.974q.025-2.603.082-5.203c.328-14.957-1.925-27.153-9.432-40.355l-2-2 2.15-.031q10.022-.147 20.042-.308 5.153-.084 10.304-.158c3.947-.057 7.893-.122 11.84-.187l3.747-.05 3.458-.06 3.055-.048c3.63-.239 6.501-1.284 10.332-1.285m204.322 83.002c-8.911 12.376-6.005 35.682-4.5 50.313l.187 2.067c.61 5.133 2.335 8.47 5.063 12.745h2v2c6.29 5.58 13.144 7.073 21.375 7.29 7.5-.599 12.49-3.754 17.563-9.165 6.474-8.12 7.24-16.843 7.25-26.937l.037-2.311c.005-1.96-.102-3.92-.225-5.877-2-2-2-2-4.43-2.227l-3.015.032-3.262.02-3.418.05-3.441.027q-4.218.036-8.434.098c-.917 2.75-1.109 4.36-1.062 7.188L598 304c6.75 2 6.75 2 9 2 .34 5.427-.047 10.283-3 15-3.141 1.707-5.145 2.02-8.687 1.938-3.292-1.335-3.837-2.709-5.313-5.938-.444-3.107-.444-6.182-.434-9.316l-.015-2.708q-.01-2.825.003-5.65c.008-2.883-.02-5.763-.052-8.644q-.003-2.75.002-5.498l-.034-2.608c.07-5.948.07-5.948 2.374-9.087 2.824-1.95 4.721-2.489 8.156-2.489 2.77 2 3.817 3.438 4.875 6.688C606 280 606 280 608.5 280.875c4.55.162 9.008-.114 13.5-.875l1-1c-.124-6.938-2.426-11.758-7-17h-2v-2a914 914 0 0 0-4.25-1.937l-2.39-1.09c-11.391-4.696-22.852-.732-31.11 7.902M392 258a90 90 0 0 0-.221 5.076l-.07 3.292-.06 3.6-.07 3.708q-.09 4.913-.17 9.825c-.056 3.264-.124 6.528-.19 9.792-.22 11.917-.355 23.744.55 35.635C392 332 392 332 392 336c4.77 2.385 10.68.38 16 0v-37c3 1 3 1 4.281 3.258l1.219 2.867 1.219 2.82q1.343 3.202 2.683 6.407c1.767 4.033 3.683 7.965 5.66 11.898l1.065 2.14c1.498 2.99 3.016 5.824 4.873 8.61 2.934.398 2.934.398 6.438.375l3.496.023C442 337 442 337 443.675 335.931c2.002-2.918 1.68-5.824 1.59-9.232l-.024-2.243c-.029-2.447-.08-4.892-.132-7.339q-.038-2.545-.073-5.092-.077-5.333-.182-10.667c-.089-4.568-.16-9.136-.225-13.704-.063-4.346-.135-8.691-.207-13.037l-.04-2.528q-.057-3.524-.13-7.047l-.03-2.128c-.107-4.8-.107-4.8-1.222-5.914a93 93 0 0 0-5.875-.25l-3.242-.078C431 257 431 257 429.352 258.024c-2.103 3.073-1.833 6.324-1.864 9.925l-.054 2.341a878 878 0 0 0-.122 7.397q-.05 2.51-.103 5.018c-.085 4.098-.152 8.196-.209 12.295-2.202-2.75-3.717-5.342-5.05-8.598l-1.109-2.664-1.154-2.8c-8.909-21.032-8.909-21.032-14-23.625-11.984-1.016-11.984-1.016-13.687.687m65 1c-.374 3.03-.374 3.03-.372 6.972l-.011 2.174c-.009 2.377.005 4.754.02 7.131q0 2.474-.002 4.948 0 5.188.029 10.377c.022 4.437.023 8.873.016 13.31-.003 3.407.004 6.813.013 10.22q.006 2.454.004 4.907c0 2.287.012 4.573.028 6.86l.014 3.944C457 333 457 333 459 336c8.307 2.769 19.004.95 27.688.625l2.971-.093c.921-.04 1.842-.078 2.79-.118l2.51-.095C497 336 497 336 499 334c.266-2.277.266-2.277.25-4.937l.016-2.653C499 324 499 324 497 321c-2.155-.34-2.155-.34-4.79-.293l-2.85.03-2.985.075-3.008.042q-3.683.053-7.367.146c-.78-5.115-1.178-9.841-1-15 2.333-2.333 9.127-1.358 12.475-1.43l2.427-.093 2.234-.06C494 304 494 304 496 301c.266-1.937.266-1.937.25-4l.016-2.062C496 293 496 293 494 290c-1.971-.432-1.971-.432-4.352-.512l-2.578-.107-2.695-.068-2.719-.104A701 701 0 0 0 475 289v-14c3.508-1.754 4.661-2.254 8.293-2.379l2.408-.103 2.486-.08c8.692-.317 8.692-.317 9.813-1.438.099-2.165.13-4.333.125-6.5l.008-3.594C498 258 498 258 497 257a199 199 0 0 0-8.086-.168l-2.463-.01q-2.584-.007-5.17-.007c-2.638-.002-5.276-.02-7.914-.04q-2.508-.005-5.015-.005l-2.397-.022c-3.85.016-5.675.066-8.955 2.252m53-1c-1.378 25.693-.721 51.295 0 77 4.098 1.214 7.65 2.257 11.938 2.125l2.34-.055L526 337c1.058-3.175 1.202-5.643 1.316-8.98l.127-3.526.12-3.682.13-3.716q.16-4.548.307-9.096c1.918.27 1.918.27 4 1 .72 2.023 1.419 4.055 2.016 6.117 2.01 5.89 5.132 11.365 7.984 16.883l1.09 2.355C544 336 544 336 546 337c2.552.072 5.075.093 7.625.063l2.14-.014q2.618-.02 5.235-.049c1.14-3.336.906-4.985-.5-8.187l-1.11-2.598L558 323c-.935-2.256-1.861-4.515-2.787-6.775-1.398-3.41-2.806-6.818-4.213-10.225h2v-2l3-1c1.352-1.418 1.352-1.418 2.625-3.187.425-.572.85-1.143 1.29-1.731 2.568-4.924 2.267-10.586 2.273-16.02l.037-2.052c.018-6.29-.775-12.038-5.1-16.822l-1.492-1.708c-5.36-4.86-12.26-4.607-19.149-4.613l-2.112-.003q-2.193 0-4.387.006-3.363.005-6.727-.007-2.138 0-4.274.004l-3.915.004C512 257 512 257 510 258m-170 1c-1.293 7.915-1.145 15.844-1.133 23.84l-.003 4.6q-.002 4.794.006 9.589.006 6.157-.004 12.314a4825 4825 0 0 0 0 9.473q0 2.273-.002 4.544-.003 3.16.007 6.32l.002 3.634C339 336 339 336 340 337c2.86.126 5.696.189 8.559.203l2.604.017q2.732.014 5.465.02c2.794.01 5.588.041 8.382.072q2.649.01 5.299.016l2.544.038c2.356-.01 2.356-.01 6.147-.366 2.073-3.11 2.274-3.891 2.25-7.437l.016-2.31C381 325 381 325 379 321h-22v-16l18-1c2.377-4.753 2.335-6.8 2-12-3.02-3.02-6.564-2.467-10.625-2.625l-2.43-.117A860 860 0 0 0 358 289l-1-15 4.559-.402 5.878-.536 3.01-.263 2.862-.264 2.65-.238C378 272 378 272 379 271c.073-2.186.084-4.375.063-6.562l-.028-3.63L379 258c-3.78-1.26-7.314-1.148-11.25-1.125l-2.41.008c-19.448.153-19.448.153-25.34 2.117m289-1c.604 3.616 1.596 6.63 3.145 9.95l1.302 2.821 1.365 2.916c2.895 6.218 5.705 12.411 8.105 18.84C644 295 644 295 646.098 298.307c2.192 3.774 2.408 7.228 2.257 11.525l-.024 2.175c-.029 2.27-.085 4.537-.144 6.805q-.063 3.43-.111 6.86-.032 2.124-.087 4.25c-.099 4.859-.099 4.859 1.011 7.078h16c1.511-3.023.904-5.685.71-9.043-.826-18.634.003-32.43 10.022-48.812 1.749-2.958 2.996-5.953 4.268-9.145l1.387-3.309 1.3-3.128 1.325-3.184L685 258a768 768 0 0 0-7.25-.125l-2.066-.05c-6.765-.066-6.765-.066-9.684 2.175-1.45 2.207-1.45 2.207-2.687 4.813l-1.262 2.582c-1.025 2.542-1.61 4.906-2.051 7.605h-2l-2 2a2348 2348 0 0 1-3.375-6.187l-1.898-3.481c-1.424-2.748-2.602-5.456-3.727-8.332-1-1-1-1-4.816-1.098q-2.374.01-4.746.036l-2.444.013q-2.997.02-5.994.049M422 364c-.297 2.473-.4 4.697-.372 7.172l-.011 2.237c-.009 2.447.005 4.894.02 7.341q0 2.545-.002 5.089 0 5.337.029 10.673c.023 4.567.023 9.133.016 13.7-.003 3.503.004 7.007.013 10.51q.006 2.527.004 5.053c0 2.351.012 4.702.028 7.053l-.007 2.122c.053 4.821.053 4.821 2.282 7.05 2.271.243 2.271.243 5.094.23l3.125-.005 3.281-.038 3.188-.001c20.858-.117 20.858-.117 27.312-5.186 5.266-6.155 8.478-12.683 8.258-20.918-.575-4.646-2.342-8.725-4.945-12.582-1.822-3.47-1.905-6.699-1.313-10.5l1.5-2.75c2.56-5.548 2.534-11.816.773-17.664-1.955-4.246-4.282-7.028-8.273-9.586-3.593-1.198-6.885-1.162-10.625-1.168l-2.252-.01q-2.355-.007-4.71-.007c-2.404-.002-4.807-.02-7.21-.04q-2.289-.005-4.578-.005l-2.178-.022c-3.708.017-5.277.139-8.447 2.252m77.07-.492c-1.492 3.475-2.44 7.014-3.32 10.68q-.64 2.55-1.285 5.101l-.7 2.77c-1.668 6.41-3.522 12.77-5.354 19.135-1.549 5.453-2.89 10.872-3.944 16.441a141 141 0 0 1-1.572 6.92c-.179.716-.358 1.433-.541 2.172a611 611 0 0 1-1.118 4.367c-.912 3.704-1.359 6.263-.236 9.906 4.612 1.476 9.097 1.664 13.688.063 2.977-2.656 4.015-5.414 5.417-9.102C501 430 501 430 503 429c2.498-.203 4.936-.323 7.438-.375l2.064-.113c1.994-.035 1.994-.035 5.498.488 2.953 3.555 3.869 7.562 5 12 11.876 2.375 11.876 2.375 15.793-.161C540 439 540 439 539.853 436.419l-.732-3.09-.787-3.43-.896-3.649-.88-3.74A1002 1002 0 0 0 534 412l-.577-2.335c-.88-3.51-1.824-7-2.809-10.483-.78-2.772-1.544-5.547-2.31-8.323q-.932-3.368-1.866-6.734l-.889-3.21c-4.8-17.166-4.8-17.166-6.549-18.915-2.973-.18-5.9-.278-8.875-.312l-2.512-.088c-6.02-.064-6.02-.064-8.543 1.908M549 363c-1.61 11.765-1.153 23.861-1.13 35.704q.005 5.033-.007 10.064c-.003 10.451.003 20.83 1.137 31.232 5.542 1.963 9.209 2.016 15 1 1.593-6.418 2.38-12.463 2.625-19.062l.117-2.624q.138-3.156.258-6.314c3 1 3 1 4.21 3.161l1.165 2.827 1.297 3.08 1.328 3.245q1.305 3.153 2.625 6.3l1.164 2.837c1.191 2.508 2.347 4.494 4.211 6.55 4.915 1.156 12.334 2.333 17 0 .847-7.042-2.866-12.632-5.889-18.744l-1.24-2.604-1.158-2.344c-.874-2.829-.56-4.498.287-7.308 1.305-1.738 1.305-1.738 2.875-3.312 6.233-7.028 6.682-13.837 6.473-22.989-.636-6.767-2.636-12.189-7.285-17.199-5.304-4.33-9.687-4.794-16.391-4.73h-2.393q-2.49.006-4.982.024c-2.552.019-5.104.02-7.656.02q-2.423.007-4.844.018l-2.323.003c-5.358.049-5.358.049-6.474 1.165m63.063 114.586c-3.675 1.697-7.42 3.11-11.235 4.457C599 483 599 483 598 486c-2.114 1.12-2.114 1.12-4.883 2.156l-3.039 1.16-3.203 1.184q-3.097 1.17-6.195 2.344l-2.978 1.11a104 104 0 0 0-6.694 2.89c-3.205 1.232-3.901 1.13-7.008.156-2.262.637-2.262.637-4.687 1.688l-2.645 1.136L554 501l-2.512 1.02-2.363.98-2.117.875C545 505 545 505 543.14 506.949c-2.64 2.53-5.114 3.55-8.516 4.863l-3.336 1.333c-3.573.929-5.716.53-9.289-.145a107 107 0 0 0-6 4c-2.31.743-4.646 1.411-7 2-3.478 1.015-6.42 2.191-9.5 4.063-3.16 1.884-5.844 2.404-9.5 2.937-6.636 2.271-6.636 2.271-8 5-2.187.71-2.187.71-5 1.375-4.594 1.174-8.711 2.703-12.996 4.71-2.605 1.189-5.271 2.07-8.004 2.915l-3 1v2l-2.75.313c-3.28.693-4.859 1.388-7.25 3.687v2c-4.573 1.143-4.573 1.143-6.816.39-3.145-.562-4.98.508-7.872 1.798l-3.222 1.41q-2.765 1.253-5.524 2.523c-4.692 2.15-9.322 3.804-14.304 5.168-3.123.982-5.72 2.355-8.45 4.149-4.67 2.594-9.762 3.93-14.851 5.5-7.11 2.258-12.863 4.398-17.961 10.062l-1-2c-11.471 3.161-22.097 6.646-29 17-1.421 8.467-1.16 17.272-1.168 25.832l-.01 3.867q-.008 4.014-.007 8.03c0 3.413-.014 6.826-.031 10.24-.014 3.288-.013 6.575-.014 9.863l-.022 3.687c.023 8.765.254 15.009 6.565 21.606l2.437 2.578L344 683l1.563 1.61A233 233 0 0 0 349 688l2.188 2.313C353 692 353 692 355 692l.75 2.188c3.329 7.49 10.302 12.96 16.188 18.5l1.513 1.47c3.315 3.101 6.155 4.722 10.549 5.842v2c11.437 3.812 18.328 1.016 29-4l3.617-1.664a998 998 0 0 0 6.543-3.04A147 147 0 0 1 431 710l2.098-.816 1.964-.746c.651-.25 1.302-.498 1.973-.754 1.97-.686 3.935-1.21 5.965-1.684v-2l2.059-.328c3.49-.798 6.704-2.062 10.003-3.422l2-.812q2.971-1.212 5.938-2.438l3.227-1.332a1566 1566 0 0 0 5.878-2.457 567 567 0 0 1 5.883-2.422c5.185-2.112 10.217-4.357 15.2-6.914 3.3-1.685 6.45-3.185 10-4.25 4.558-1.387 8.722-3.431 13-5.5 8.426-4.061 16.955-7.33 25.91-10.074 2.88-1.043 5.102-2.307 7.652-3.989 3.252-2.009 6.116-3.473 9.813-4.437 5.726-1.51 10.847-4.073 16.16-6.634 5.34-2.571 10.722-4.916 16.277-6.991l-1-4h3l-1 2h4v-2l3-.25c3.676-.527 6.391-1.836 9.637-3.582 2.867-1.417 5.8-2.498 8.8-3.606 4.73-1.774 8.964-3.818 13.31-6.37 3.441-1.82 7.068-3.015 10.741-4.286 2.97-1.072 5.717-2.442 8.512-3.906l2.36-.93c2.6-1.054 5.03-2.268 7.515-3.57 4.008-2.034 7.761-3.456 12.125-4.5l.27-1.887c.73-2.113.73-2.113 2.367-3.133l2.05-.793c4.575-2.08 7.622-4.941 10.313-9.187 1.026-3.225 1.138-6.215 1.161-9.588l.03-3.4.012-3.668.017-3.798q.015-3.984.02-7.969.007-4.055.041-8.111c.03-3.916.041-7.831.047-11.747l.038-3.619c-.026-9.876-1.322-19.454-6.366-28.1l2-3-1-2h-2l-.55-1.793c-2.994-9.409-7.377-15.316-15.45-21.207h-2l-.812-1.937C662 480 662 480 659 479l-3-3h-2v-2c-4.367-3.916-9.355-5.95-15.176-6.262-9.392.87-18.362 5.834-26.761 9.848" id="svg-layer-1" style="pointer-events: all;"/><path fill="#0A2946" d="M573 65c1.945 1.253 1.945 1.253 3.77 2.992l2.001 1.887 2.042 1.996 2.1 1.973c3.704 3.54 3.704 3.54 5.087 5.152v2l1.766.805c2.296 1.228 4.038 2.598 5.984 4.32l1.86 1.633L599 89l.742-1.762c1.47-2.614 3.107-4.104 5.383-6.05l2.43-2.098L610 77a3104 3104 0 0 0 4.25-3.75l1.984-1.703c1.475-1.292 2.88-2.661 4.266-4.047 2.952-1.771 4.958-1.694 8.34-1.25 7.037 2.443 11.853 8.237 16.91 13.438a2210 2210 0 0 0 4.547 4.636l2.01 2.065C654 88 654 88 656 89l1-3c1.637-1.578 1.637-1.578 3.688-3.25 2.713-2.29 5.086-4.547 7.312-7.312 3.923-4.723 8.314-8.543 14.188-10.5 5.476.121 9.212 4.107 13.125 7.624l2.675 2.38C700 77 700 77 700 79l1.734.773c2.508 1.358 4.399 2.947 6.516 4.852l2.14 1.914L712 88c3.907-3.212 7.55-6.521 11.072-10.156 9.938-10.225 9.938-10.225 17.553-11.406 4.303.717 5.66 2.226 8.375 5.562 2.017 3.025 2.253 3.62 2.288 7.012l.039 2.466.011 2.697.035 2.85c.034 3.12.053 6.24.068 9.362l.021 3.24q.054 8.509.073 17.018c.017 5.825.075 11.648.144 17.472.045 4.506.058 9.01.063 13.516q.011 3.216.06 6.433c.19 13.742-1.274 23.802-7.802 35.934a236 236 0 0 0-2.363 5.508l-.998 2.36-.952 2.257-1.01 2.375-.978 2.32-.849 2.009L736 209l-1.037 2.512c-1.259 4.558-1.241 8.763-1.22 13.47l-.01 3.049c-.01 3.387-.005 6.773 0 10.16l-.014 7.34q-.014 7.992-.011 15.984c.003 7.923-.006 15.845-.016 23.768-.02 14.974-.025 29.948-.026 44.922a73640 73640 0 0 1-.017 44.677l-.001 2.507q-.02 34.912-.02 69.826v2.66l.002 21.383q0 41.691-.042 83.382a89757 89757 0 0 0-.045 106.144c0 13.191-.013 26.383-.03 39.574a17522 17522 0 0 0-.006 39.782q.012 11.814-.016 23.628c-.013 5.884-.006 11.768.01 17.652q.005 3.567-.012 7.134c-.099 22.592-.099 22.592 4.511 32.446l1.492 3.707 1.383 3.106a454 454 0 0 1 7.208 17.477c1.812 4.605 1.812 4.605 2.917 5.71a85 85 0 0 1 .205 4.942l.06 3.221.051 3.54.064 3.665q.099 5.94.183 11.882l.06 4.052q.149 10.101.277 20.202.11 8.34.258 16.677c.057 3.418.096 6.836.128 10.254q.027 2.295.073 4.59c.28 14.161.28 14.161-4.359 19.975-2.685 2.19-4.35 2.913-7.773 3.371-4.236-.487-6.443-2.47-9.477-5.246l-1.697-1.49c-4.55-4.043-8.838-8.323-13.03-12.737C714 936 714 936 711 935l-1.469 1.504c-4.062 4.117-8.19 8.082-12.601 11.824a72 72 0 0 0-3.672 3.406c-3.774 3.652-6.736 5.017-11.95 5.649-7.134-1.183-12.302-8.213-17.058-13.133q-2.266-2.344-4.547-4.672l-2.01-2.08C656 936 656 936 654 936a172 172 0 0 0-5 5 391 391 0 0 1-5.937 5.563l-1.514 1.42c-5.041 4.65-10.057 9.004-17.135 9.49-5.34-1.046-8.811-5.677-12.414-9.473a738 738 0 0 0-4.422-4.52 397 397 0 0 1-4.133-4.293c-3.632-3.249-3.632-3.249-6.445-3.187-2.121 1.45-2.121 1.45-4.437 3.688l-2.641 2.476a417 417 0 0 0-4.541 4.444 408 408 0 0 1-3.383 3.319 161 161 0 0 0-3.267 3.261c-2.859 2.764-4.45 3.78-8.446 4.242-7.126-.932-11.166-6.185-15.969-11.11-2.779-2.783-5.698-5.356-8.687-7.91A69 69 0 0 1 542 935c-2.625-.125-2.625-.125-5 0l-.825 1.807c-1.857 3.466-4.593 5.939-7.362 8.693l-1.674 1.723c-4.614 4.619-10.291 9.597-17.139 9.777-4.158-1.871-6.82-4.797-10-8a511 511 0 0 0-6.5-6.187l-1.684-1.616c-3.1-2.899-5.667-4.935-9.816-6.197l-.582 1.633c-2.08 3.471-5.009 5.683-8.106 8.242l-1.818 1.527a304 304 0 0 1-3.675 3.038C466 951 466 951 464.333 952.755c-2.456 2.493-4.216 4.056-7.728 4.65-6.053-.19-9.343-2.194-13.425-6.532l-1.805-2.06a677 677 0 0 0-3.664-3.981l-1.806-1.947c-3.028-2.997-6.415-5.455-9.905-7.885l-1.574 1.61c-7.573 7.67-7.573 7.67-11.426 10.39h-2v2c-4.47 4-4.47 4-7 4l-1 3c-2.062 1.438-2.062 1.438-5 2-7.615-2.538-12.886-8.223-18.572-13.653-3.054-2.881-6.248-5.607-9.428-8.347-5.15 2.383-9.425 5.882-12.812 10.438-4.295 5.03-9.654 8.814-16 10.687-3.735-.146-5.238-.874-8.188-3.125l-2.812-2.062L328 950v-2l-1.684-.684c-2.994-1.701-5.004-3.89-7.378-6.379-4.606-4.826-4.606-4.826-7.938-5.937l-1.18 1.434C304.988 942.146 299.683 947.14 294 952l-2.555 2.207c-3.418 2.506-6.258 3.005-10.445 2.793-4.214-1.686-6.17-3.881-8-8-.854-5.484-1.149-10.81-1.145-16.353l-.01-2.403q-.013-3.897-.013-7.795l-.01-5.47q-.009-5.72-.007-11.44c0-4.861-.014-9.723-.031-14.584q-.015-5.646-.013-11.292 0-2.686-.013-5.373c-.049-12.445.16-23.912 5.617-35.352q.947-2.075 1.89-4.149l.913-1.98c1.377-3.03 2.612-6.106 3.783-9.221C285 821 285 821 286.254 818.528c5.191-11.114 4.449-22.463 4.394-34.49q.012-3.668.028-7.335.03-7.953.014-15.908c-.014-7.885 0-15.77.02-23.656.036-14.905.038-29.81.03-44.716a25381 25381 0 0 1 .011-39.505l.006-7.486c.02-23.19.028-46.381.016-69.572l-.001-2.647-.012-21.285q-.021-41.501.043-83.003a50098 50098 0 0 0 .056-103.274l-.001-2.477q-.003-18.476.035-36.953c.027-14.015.03-28.03 0-42.044-.017-7.835-.014-15.67.017-23.505.02-5.862.005-11.724-.025-17.586q-.009-3.543.018-7.088c.104-14.349-1.43-25.153-7.903-37.998a201 201 0 0 1-2.125-5.437c-1.632-4.162-3.645-8.045-5.824-11.946-2.524-6.287-2.21-13.448-2.244-20.135l-.025-2.777q-.035-4.51-.055-9.021l-.017-3.128q-.039-8.181-.06-16.363-.02-6.758-.082-13.516c-.05-5.456-.074-10.911-.081-16.367a747 747 0 0 0-.046-6.22c-.032-2.902-.032-5.8-.024-8.702l-.05-2.577c.064-6.134 1.599-9.174 5.633-13.811 3.072-1.536 5.602-1.227 9-1 6.092 2.395 9.7 6.502 14.057 11.174 3.685 3.844 7.2 6.386 11.943 8.826 5.339-2.794 8.989-6.873 13.096-11.174 8.715-8.963 8.715-8.963 15.799-9.486 5.962.258 8.837 3.029 12.793 7.222l1.853 1.846A406 406 0 0 1 362 81a876 876 0 0 0 3.832 3.902l1.699 1.73C369 88 369 88 371 89l.75-1.875c1.478-2.512 2.69-2.886 5.25-4.125l1-3c1.926-1.684 1.926-1.684 4.313-3.437 3.162-2.337 5.915-4.78 8.687-7.563 3.043-2.029 4.978-2.73 8.633-2.629 8.425 2.239 15.52 11.594 21.37 17.66C423 86 423 86 425 87v2c3.21-1.07 3.7-1.584 5.688-4.125C434.093 80.765 437.9 77.402 442 74l2.23-1.96c4.92-4.15 8.225-6.362 14.77-6.04 5.47 2.498 9.23 7.192 13.387 11.45 3.619 3.532 7.532 6.573 11.613 9.55 3.99-1.906 7.276-4.271 10.41-7.414 2.425-2.42 5.015-4.637 7.613-6.867a107 107 0 0 0 4.477-4.156c2.786-1.742 5.011-2.372 8.316-2.215 4.668 1.394 7.87 5.242 11.184 8.652l2.563 2.5a201 201 0 0 1 4.375 4.617l2.125 2.258 1.972 2.148C539 88 539 88 541.094 87.867c2.94-1.337 4.718-3.519 6.906-5.867a140 140 0 0 1 5-5h2l.719-1.77c1.553-2.704 3.291-4.054 5.781-5.918l2.406-1.824c3.232-2.297 5.122-2.868 9.094-2.488M340 96l-2.492 2.309a1487 1487 0 0 1-5.17 4.768c-2.761 2.533-5.496 5.077-8.182 7.689-6.968 6.667-6.968 6.667-10.969 7.484-3.868-.303-5.217-.726-8.187-3.25a153 153 0 0 1-5.547-7.137L298 106h-1v51l430-1v-50c-7 6-7 6-9.937 8.875-4.067 2.822-6.216 2.543-11.063 2.125v-2a91 91 0 0 0-4.812-3.437C694.748 107.02 689.415 101.698 684 96c-4.252 1.726-7.354 4.756-10.75 7.75a2463 2463 0 0 1-3.773 3.25 723 723 0 0 0-5.891 5.125c-3.514 2.912-6.634 5.04-11.453 4.652-4.968-1.81-8.516-6.068-12.133-9.777l-2.273-2.273a335 335 0 0 1-3.938-4c-3.552-3.428-3.552-3.428-5.789-4.727-4.383.328-6.322 1.851-9.32 4.965l-2.371 2.424-2.434 2.549a2681 2681 0 0 1-4.82 4.964l-2.141 2.234c-2.885 2.81-4.822 3.843-8.789 4.739-7.118-.116-11.912-6.574-16.585-11.323-2.136-2.153-4.353-4.205-6.602-6.24l-2.036-1.886c-2.085-1.563-3.287-2.328-5.902-2.426-1.86 1.406-1.86 1.406-3.75 3.5-17.007 18.078-17.007 18.078-25.25 18.5-2.098-1.363-2.098-1.363-4.062-3.312-3.634-3.547-3.634-3.547-6.06-4.668-2.412-1.31-2.677-2.582-3.878-5.02a110 110 0 0 0-5.125-4.75l-2.758-2.422L514 96c-5.325 1.472-8.308 5.002-12 8.875-10.945 11.342-10.945 11.342-18.562 12.813-4.534-.017-6.523-2.254-9.625-5.376A589 589 0 0 1 469 107c-4.544-4.693-9.128-8.134-15-11l-1.45 1.374a7829 7829 0 0 1-6.613 6.251l-2.279 2.16c-3.47 3.275-6.955 6.534-10.525 9.7l-1.617 1.436C430 118 430 118 426.937 118.625c-6.697-1.425-11.124-6.603-15.687-11.375A198 198 0 0 0 405 101h-2l-.75-1.937C401 97 401 97 399.125 96.183 397 96 397 96 395.359 97.188c-.53.599-1.062 1.197-1.609 1.813-3.698 3.966-7.6 7.512-11.75 11l-2.004 1.773c-3.631 3.028-6.79 5.335-11.781 4.95-7.148-2.333-12.737-7.907-17.215-13.723-3.517-3-3.517-3-6-3v-2zm372.257 84.016-2.135.005-7.155.017-19.369.047-15.309.036-187.664.452-3.764.009L303 181c1.389 4.537 2.865 8.909 5.007 13.15 6.63 13.34 7.13 25.303 7.016 40.006q.015 3.753.04 7.506.04 8.111.012 16.223c-.028 8.043-.01 16.084.016 24.127.046 14.369.046 28.738.027 43.107a16406 16406 0 0 0-.006 40.26l.01 10.181c.029 31.803.011 63.605-.027 95.407q-.05 42.328.023 84.657a40073 40073 0 0 1 .047 105.396l-.001 2.527c-.008 12.564.006 25.127.032 37.69q.046 21.441-.018 42.883a3162 3162 0 0 0 .012 23.963c.025 5.98.001 11.96-.04 17.942q-.014 3.61.02 7.22c.13 14.926-1.673 26.22-9.135 39.299-1.534 3.64-2.178 7.6-3.035 11.456h419c-3.32-9.958-3.32-9.958-5.437-14.312q-1.29-2.841-2.563-5.688l-1.107-2.33c-4.395-10.82-3.447-22.38-3.4-33.855a5546 5546 0 0 0-.02-7.445q-.02-8.077-.004-16.155c.016-8.008.008-16.016-.004-24.024-.022-14.304-.02-28.607-.008-42.911q.015-18.776.008-37.552l-.001-2.517-.004-10.118c-.012-31.625-.001-63.251.02-94.877q.029-42.135-.001-84.27a88509 88509 0 0 1-.014-104.808v-2.512q.006-18.764-.01-37.527-.019-21.336.013-42.673.019-11.937-.003-23.875c-.01-5.943.001-11.886.02-17.83q.007-3.605-.007-7.21c-.012-3.269 0-6.537.019-9.805l-.029-2.824c.079-6.918 1.85-12.537 4.532-18.882l.869-2.068c1.25-2.907 2.562-5.785 3.861-8.67 1.218-3.127 1.853-5.943 2.27-9.262-2.914 0-5.829.009-8.743.016m-91.689 688.069-13.082.036-22.561.064-32.618.093-104.318.295-3.21.009L297 869v48c2.542-2.542 5.082-5.09 7.5-7.75 3.674-3.307 5.998-3.25 10.813-3.25 7.444 2.019 12.167 8.354 17.011 14.066 2.421 2.794 5.03 5.353 7.676 7.934 3.81-1.552 6.22-4.079 9-7 13.782-14.31 13.782-14.31 20.5-15.75 8.221 1.762 14.319 9.307 20 15.125l2.203 2.23q2.655 2.69 5.297 5.395c3.311-1.436 5.412-3.21 7.898-5.809l2.204-2.263q2.264-2.356 4.523-4.719c9.354-9.593 9.354-9.593 16.5-9.709 3.875.5 3.875.5 5.875 2.563l2 2.937a108 108 0 0 0 3.75 3.313c4.311 3.68 8.286 7.639 12.25 11.687l2 2c6.686-5.262 12.797-10.615 18.613-16.836 3.863-3.503 7.04-5.12 12.262-5.289 5.339.967 8.373 4.444 12.125 8.125 1.556 1.435 3.123 2.856 4.69 4.278 7.169 6.506 7.169 6.506 10.31 9.722 3.281-1.401 5.074-2.993 7.313-5.75 2.876-3.424 5.891-6.261 9.402-9.023L530 912v-2c4.088-2.201 7.986-4 12.695-4 4.897 1.482 7.725 4.637 11.305 8.188l2.078 2.001c4.022 3.888 7.976 7.846 11.922 11.811 4.35-1.658 7.089-4.913 10.25-8.187a2402 2402 0 0 1 3.5-3.524 463 463 0 0 0 5.563-5.703c3.049-2.988 5.636-5.074 9.937-5.711 6.481.546 10.909 6.106 15.196 10.524a304 304 0 0 0 4.765 4.78A733 733 0 0 1 625 928c3.43-1.47 5.578-3.38 8.152-6.062l2.354-2.415q2.43-2.52 4.851-5.046l2.358-2.414 2.129-2.215c2.803-2.402 5.489-3.73 9.191-3.993 8.55 1.4 15.697 8.694 20.692 15.497L676 923h2l.75 1.938C680 927 680 927 682.078 927.628L684 928l2.16-2.379c2.932-3.22 5.882-6.425 8.84-9.621l2.078-2.25c4.39-4.588 8.074-7.46 14.61-8.125C715 906 715 906 716.813 907.5L718 909h2l.813 1.75c1.216 2.306 2.49 4.27 4.187 6.25h2q.037-10.012.055-20.026.008-3.408.02-6.818c.013-3.259.018-6.518.023-9.777l.015-3.1v-2.851l.007-2.523C727 870 727 870 726 869a242 242 0 0 0-8.738-.316l-2.754-.063q-2.922-.066-5.844-.124-4.305-.088-8.611-.19a1314 1314 0 0 0-30.576-.324l-3.635.002c-15.091.012-30.182.056-45.274.1" id="svg-layer-2" style="pointer-events: all;"/><path fill="#0A2A48" d="M648.806 473.707c4 2.357 7.613 5.175 11.256 8.043l2.315 1.766c9.86 7.692 15.567 16.151 20.623 27.484l1.516 3.371c4.61 11.036 4.64 22.091 4.687 33.93l.017 3.396q.014 3.52.02 7.04c.01 3.584.041 7.166.072 10.75q.01 3.438.016 6.876l.038 3.224c-.02 6.663-.565 11.755-4.733 17.198-7.55 6.395-17.09 9.668-26.203 13.235-3.446 1.39-6.808 2.944-10.184 4.496-9.94 4.545-19.93 8.975-30.039 13.132-4.967 2.094-9.883 4.298-14.803 6.498-6.39 2.86-12.813 5.624-19.302 8.251a395 395 0 0 0-20.93 9.188c-4.1 1.939-8.23 3.687-12.457 5.325-4.204 1.688-8.34 3.53-12.48 5.365-6.04 2.669-12.135 5.198-18.235 7.725-12.655 5.252-25.296 10.532-37.884 15.945-7.875 3.386-15.758 6.744-23.741 9.867-4.795 1.9-9.485 4.012-14.187 6.125a309 309 0 0 1-18.973 7.778c-3.7 1.479-7.254 3.18-10.84 4.91-8.89 4.23-17.469 8.022-27.375 5.375-2.709-1.548-4.87-3.482-7.125-5.625l-1.826-1.65A286 286 0 0 1 373 708l-2.277-2.176A232 232 0 0 1 366 701l-2.254-2.23c-3.898-3.932-7.64-8.003-11.398-12.067a317 317 0 0 0-10.835-11.135c-5.567-5.772-6.624-10.876-6.674-18.624l-.03-3.631-.012-3.899-.009-1.999q-.022-5.235-.028-10.47c-.006-3.59-.03-7.18-.058-10.769a1345 1345 0 0 1-.026-8.323 801 801 0 0 0-.042-5.888c.025-9.78 1.31-15.748 8.366-22.965 7.357-4.904 15.821-7.563 24.063-10.625a966 966 0 0 0 46.66-18.775c3.545-1.52 7.074-2.892 10.746-4.073 3.823-1.24 7.422-2.766 11.075-4.434 4.86-2.163 9.824-4.073 14.769-6.03 6.327-2.51 12.646-5.034 18.925-7.665a495 495 0 0 1 14.637-5.836 425 425 0 0 0 19.621-8.105c3.83-1.592 7.704-2.998 11.606-4.402 4.643-1.69 9.238-3.497 13.836-5.305l2.995-1.175c7.407-2.91 14.8-5.857 22.183-8.827a711 711 0 0 1 14.134-5.498c3.29-1.252 6.451-2.541 9.563-4.187 4.399-2.301 9.045-3.927 13.694-5.636a450 450 0 0 0 28.43-11.615l2.028-.902q2.245-1.005 4.476-2.039c8.209-3.597 14.33-4.366 22.365-.164m-19.869 25.543c-4.996 2.386-9.984 4.653-15.148 6.656-3.783 1.484-7.534 3.041-11.289 4.594a1197 1197 0 0 1-28.355 11.285 529 529 0 0 0-7.957 3.153 309 309 0 0 1-9.083 3.503c-12.292 4.526-12.292 4.526-16.105 6.559-5.759 3.071-12.05 5.067-18.164 7.317-3.016 1.122-5.995 2.33-8.977 3.538-6.93 2.774-13.9 5.446-20.859 8.145 0 3.958 1.247 4.667 3.938 7.5 26.933 29.087 26.933 29.087 27.378 50.398l.063 2.53q.097 3.974.183 7.947l.131 5.41q.16 6.607.307 13.215 2.376-.935 4.75-1.875l2.672-1.055A85 85 0 0 0 539 635c3.742-1.927 7.583-3.47 11.5-5.004 4.757-1.895 9.41-4.023 14.05-6.183 4.826-2.235 9.66-4.312 14.638-6.188 9.154-3.463 18.314-7.224 27-11.75 3.206-1.659 6.494-2.923 9.875-4.187 5.916-2.238 11.623-4.798 17.332-7.512a932 932 0 0 1 11.304-5.258l3.578-1.642a7069 7069 0 0 1 7.151-3.276l3.314-1.523 2.996-1.373C664 580 664 580 665 579c.12-1.48.17-2.967.193-4.453l.049-2.875c.044-4.377.085-8.755.108-13.133q.025-3.453.082-6.904c.055-3.326.077-6.65.091-9.975l.07-3.082c-.022-7.366-1.935-12.257-5.593-18.578l-1.484-3.39c-2.804-6.334-5.286-9.875-11.336-13.298-2.24-1.348-3.78-2.78-5.555-4.687L639 496c-3.89 0-6.644 1.58-10.062 3.25m-170.374 68.938c-7.1 3.197-14.27 6.078-21.563 8.812a1267 1267 0 0 0-42.01 16.85c-16.476 6.954-16.476 6.954-24.99 9.15v2c1.398 1.16 2.8 2.315 4.215 3.453 4.85 4.202 8.642 8.992 11.64 14.656 1.431 2.364 3.13 4.391 4.895 6.516q2.133 2.682 4.25 5.375l2.13 2.584c7.451 10.27 6.998 20.41 6.87 32.729q.012 3.018.035 6.037c.03 4.884.01 9.766-.035 14.65 5.057-1.01 9.731-2.068 14.395-4.344 5.37-2.549 10.801-4.88 16.293-7.156l3.04-1.264c6.175-2.562 12.364-5.09 18.561-7.6.707-.285 1.413-.572 2.141-.867q5.22-2.113 10.442-4.214c6.675-2.693 13.293-5.466 19.816-8.514 2.244-1.01 4.5-1.888 6.812-2.729C499 653 499 653 502 651c.37-2.002.37-2.002.36-4.49l.007-2.824c-.015-1.011-.03-2.023-.047-3.065l-.03-3.155q-.041-3.315-.106-6.63c-.058-3.361-.064-6.719-.067-10.08q-.05-3.224-.11-6.447c.006-.998.01-1.995.015-3.022-.234-7.68-2.82-11.764-8.022-17.287l-1.437-1.623c-2.03-2.278-4.14-4.48-6.231-6.701C484 583 484 583 481.824 579.668L480 577h-2l-.82-1.734c-1.207-2.317-2.537-4.392-4.055-6.516l-1.492-2.14c-3.895-3.84-8.91-.348-13.07 1.577M359 627c-.199 4.571-.343 9.14-.44 13.715q-.06 2.33-.164 4.658c-.561 12.866-.561 12.866 2.177 17.004 2.045 1.766 4.15 3.174 6.427 4.623a90 90 0 0 1 3.59 3.527l1.685 1.71 1.663 1.7c2 2.046 4.015 4.064 6.062 6.063h1c1.37-25.033 1.37-25.033-4.656-32.48L374 645a528 528 0 0 1-3.031-3.613 365 365 0 0 0-7.638-8.822c-1.528-1.797-2.932-3.667-4.331-5.565" id="svg-layer-3" style="pointer-events: all;"/><path fill="#F9EBCA" d="M512 98h2a263 263 0 0 1 4 5l2 1c3 4.5 3 4.5 3 7l3 1 5 5c4.053 3.093 6.942 3.452 12 3 6.226-1.67 10.626-6.485 15-11l2.563-2.5c2.437-2.5 2.437-2.5 4.125-4.812L566 100h2l1-2a91 91 0 0 1 4 4v2l3 1a238 238 0 0 1 3.664 4.516C581 111 581 111 583.75 112.625 586 114 586 114 586.64 116.085L587 118c6.303 1.842 12.62 3.123 19 1 3.155-2.29 5.768-4.796 8-8v-3a207 207 0 0 1 5-4c1.761-1.937 3.369-3.95 5-6 2.972 1.125 5.334 2.223 8 4v2l1.688.625c2.62 1.558 4.207 3.49 6.093 5.86 1.607 1.998 3.35 3.762 5.219 5.515l2.063 2.313c3.869 2.222 6.382 2.256 10.765 1.687 9.55-3.01 18.001-11.275 25.172-18 5.821 2.169 9.569 4.561 13.254 9.773 3.638 4.913 7.091 6.598 13.047 7.93 3.87.426 6.166-.09 9.699-1.703l1-2h2l2-4h1v40l-9.36.184-9.195.188q-3.14.065-6.283.125c-10.773.21-21.54.462-32.303.976l-2.454.112c-.758.04-1.516.078-2.297.118-.652.033-1.304.067-1.976.1-2.132.197-2.132.197-4.918.702-2.992.46-5.755.62-8.778.618l-3.298.006-3.59-.009-3.84.003q-5.265.002-10.528-.007-5.681-.005-11.362-.002-9.84 0-19.678-.008-14.226-.011-28.45-.012-23.082-.004-46.162-.019-22.419-.014-44.839-.02h-2.792l-13.867-.005q-57.515-.016-115.03-.05v-2a751 751 0 0 0-44-1v-36l3-1 1 5 4 1v2l12-2 1-3c1.559-1.605 1.559-1.605 3.438-3.187l1.87-1.606C328 112 328 112 330 112l.813-2.312c1.162-2.632 2.16-3.745 4.187-5.688 1.188-2.187 1.188-2.187 2-4h7l1 3c3.844 4.34 8.39 7.72 12.988 11.23L360 116v2c5.337 1.294 10.717 1.683 16 0a127 127 0 0 0 6.875-5.125l1.898-1.5c4.285-3.45 7.775-7.084 11.227-11.375l3-1 2 5h4l.25 1.875C406 108 406 108 407.813 109l2.187 1c2.25 2 2.25 2 4 4v2h2l1 2c5.785 1.795 11.722 3.475 17.5.875 5.618-4.213 10.309-8.681 14.855-14.04 2.009-2.241 4.214-4.067 6.645-5.835l2 1v2l4 1 .25 2.375C463 108 463 108 464.75 109l2.25 1c2.75 2.5 2.75 2.5 5 5v2l4 2v2l13 1v-2l5-1 .664-2.668c1.595-3.977 3.514-5.82 6.711-8.644l2.898-2.614c2.426-1.845 3.762-2.702 6.727-3.074zM465.804 870.884q5.25.005 10.499.002 9.07 0 18.143.008 13.116.011 26.232.012 21.285.004 42.57.019 20.665.014 41.329.02h2.577l12.803.005q53.021.016 106.043.05.037 6.512.055 13.025.008 2.214.02 4.429c.013 2.124.018 4.25.023 6.374l.016 3.872c-.092 2.662-.313 4.783-1.114 7.3-4.578-.763-4.578-.763-6.781-2-2.852-1.285-5.356-1.422-8.469-1.625l-3.266-.227L704 902v2c-2.639 1.783-4.972 2.99-8 4-1 1.75-1 1.75-2 4-1.5 2.75-1.5 2.75-3 5h-2l-.812 1.813c-1.173 2.16-2.382 3.545-4.188 5.187l-4-2v-2h-2c-1.48-1.504-1.48-1.504-3.187-3.562-10.99-12.862-10.99-12.862-17.875-13.684-5.89-.328-9.148.837-13.938 4.246-2.625 2.437-2.625 2.437-5 5l-2.75 2.625C633 917 633 917 632 920a107 107 0 0 1-6 4l-1.68-1.934-2.195-2.504-2.18-2.496C618 915 618 915 616 914v-2l-1.687-.687C612 910 612 910 609.875 907.563c-3.896-3.473-7.735-4.808-12.875-5.563-3.983.707-7.544 1.873-11 4l-1 2c-2.36 1.531-4.651 2.855-7.25 3.938L576 913l-.437 1.813c-.861 3.346-3.022 4.956-5.563 7.187h-2v-2l-1.75-.25c-2.928-.976-4.302-2.385-6.25-4.75v-3l-1.75-.312c-2.607-.797-4.224-1.879-6.25-3.688v-2h-3v-2c-4.745-1.29-9.13-2-14-1-2.898 1.831-5.338 3.847-7.871 6.152C525 911 525 911 522 912l-.875 1.75c-1.564 3.127-3.42 5.049-6.125 7.25-2.375.25-2.375.25-5-1-1.753-1.572-3.358-3.243-4.977-4.953-2.252-2.279-4.611-4.324-7.086-6.36l-2.41-1.988c-4.936-3.318-9.643-4.224-15.527-3.699-3.312 1.5-3.312 1.5-6 3h-2v2h-2v2c-3 2-3 2-6 2l-2 4h-2v2a159 159 0 0 1-6 5l-2-1v-2h-2c-3-3.462-3-3.462-3-6h-2v-2l-1.937-.812C441 910 441 910 440 907h-2l-2-2c-5.175-2.7-9.238-3.494-15-2-4.394 1.67-6.73 3.61-9.582 7.32-2.247 2.662-4.905 4.816-7.555 7.067C402 919 402 919 399.625 921.437 398 923 398 923 396 923c-1.691-1.645-1.691-1.645-3.562-3.812l-1.88-2.145C389 915 389 915 388 912h-2v-2l-2.375-.75c-3.09-1.471-3.162-2.323-4.625-5.25-3.891-2.476-7.455-2.091-11.848-1.492-2.774.634-4.831 1.874-7.152 3.492h-2v2c-1.61 1.55-1.61 1.55-3.75 3.313-3.168 2.675-5.68 5.426-8.25 8.687h-2l-.812 1.938C342 924 342 924 339 925l-1-3-2.437-2.375C333 917 333 917 331.938 914.313c-1.191-2.937-2.169-2.94-4.938-4.313a123 123 0 0 1-3.75-3.562c-4.19-3.732-6.645-4.527-12.25-4.438-4.814.963-7.005 2.004-11 5v-34c3.346-.836 5.645-1.122 9.018-1.114h3.066l3.347.016 3.54.005q3.809.006 7.618.018 6.043.019 12.085.024c9.292.012 18.583.034 27.875.056 8.491.02 16.983.039 25.474.048q6.947.01 13.893.035l7.359.01 3.285.015c5.2 0 10.315-.16 15.495-.612 11.227-.863 22.497-.635 33.75-.617" id="svg-layer-4" style="pointer-events: all;"/><path fill="#9FACB5" d="M638.043 496.168c2.373 1.009 3.551 2.23 5.27 4.144 2.468 2.627 3.896 3.787 7.25 5.375 5.394 2.813 7.072 9.047 9.437 14.313l1.228 2.114c3.77 6.68 4.452 11.996 4.26 19.581l-.021 3.253c-.028 3.393-.09 6.785-.154 10.177q-.038 3.472-.069 6.945-.084 8.466-.244 16.93l-7.633 3.832-2.163 1.088a357 357 0 0 1-14.692 6.932c-2.563 1.171-5.066 2.427-7.574 3.71-3.996 2.024-8.04 3.753-12.223 5.348-3.023 1.214-5.987 2.535-8.96 3.866-5.182 2.303-10.389 4.55-15.592 6.805q-2.943 1.276-5.884 2.554c-9.799 4.25-19.646 8.375-29.529 12.428a157 157 0 0 0-11.77 5.476c-3.032 1.472-6.169 2.655-9.308 3.879-3.9 1.58-7.706 3.353-11.52 5.129C526 641 526 641 525 641l-.06-3.361q-.117-6.217-.257-12.435-.057-2.683-.105-5.365a1426 1426 0 0 0-.164-7.745l-.035-2.394c-.501-19.172-13.625-32.955-26.188-46.2-2.375-2.71-4.255-5.466-6.191-8.5 12.166-5.628 24.502-10.61 37.06-15.277a646 646 0 0 0 30.335-12.188 498 498 0 0 1 10.918-4.472l1.998-.798q4.142-1.651 8.287-3.296c6.075-2.418 12.12-4.908 18.163-7.402A932 932 0 0 1 610 507c4.637-1.845 9.257-3.731 13.875-5.625l2.238-.914 2.13-.875 2.01-.825C632 498 632 498 634.258 496.727 636 496 636 496 638.043 496.168" id="svg-layer-5" style="pointer-events: all;"/><path fill="#DC8C31" d="M470 565c2.14 2.117 2.14 2.117 4.25 4.875l2.14 2.742C478 575 478 575 478 577h2c1.375 1.582 1.375 1.582 3 3.813 3.605 4.79 7.562 9.147 11.668 13.511 5.958 6.836 6.93 10.718 6.941 19.762l.05 3.203c.049 3.362.07 6.724.091 10.086q.042 3.428.09 6.855.11 8.385.16 16.77c-7.348 4.294-7.348 4.294-11.316 5.797a982 982 0 0 0-14.086 5.594l-2.309.933-7.226 2.926-2.502 1.013c-9.895 4.01-19.778 8.042-29.603 12.221-5.852 2.487-11.747 4.857-17.661 7.192-1.736.697-3.47 1.404-5.166 2.193C407.3 691.1 407.3 691.1 404 690l.003-3.697c-.003-4.566-.046-9.132-.1-13.698a545 545 0 0 1-.023-5.906c.02-20.593.02-20.593-6.88-28.699a945 945 0 0 1-3.07-4.266 663 663 0 0 0-3.055-3.984c-5.477-7.147-5.477-7.147-7.953-10.902-1.991-2.95-4.157-5.526-6.547-8.16l-2.352-2.614C372 606 372 606 370 605v-2l1.8-.48c4.61-1.298 8.935-2.775 13.262-4.832 5.452-2.579 11.034-4.556 16.749-6.457 4.339-1.47 8.365-3.23 12.436-5.332 6.72-3.446 14.047-5.747 21.128-8.336 9.742-3.565 19.328-7.379 28.688-11.864C466 565 466 565 470 565" id="svg-layer-6" style="pointer-events: all;"/><path fill="#F6F1E4" d="m669.477 867.983 3.316-.004c10.024 0 20.043.159 30.063.393 2.928.068 5.855.126 8.783.185q2.81.062 5.623.127l2.634.05c5.99.151 5.99.151 7.104 1.266.093 1.474.117 2.952.114 4.428v2.851l-.016 3.1-.005 3.157c-.005 3.342-.018 6.684-.03 10.027q-.008 3.39-.014 6.779-.017 8.329-.049 16.658h-2c-5-5.476-5-5.476-5-8h-2l-1.187-1.5C715 906 715 906 711.75 905.563c-7.854.916-12.733 5.987-18 11.437l-1.852 1.867c-2.855 2.905-5.577 5.77-7.898 9.133-1.875-.25-1.875-.25-4-1a179 179 0 0 1-2-4l-1.86-.895c-2.489-1.285-3.65-2.675-5.39-4.855-4.419-5.184-8.74-9.368-15.375-11.312-6.117.113-9.966 3.275-14.117 7.511l-2.54 2.569-2.593 2.67c-.88.892-1.758 1.785-2.664 2.705Q630.22 924.686 627 928c-3.312-1.439-5.433-3.22-7.934-5.809l-2.216-2.263-4.563-4.719-2.22-2.268-2.002-2.072c-3.917-3.546-7.474-5.67-12.92-5.448-4.556 1.23-7.566 4.914-10.77 8.204l-2.195 2.16A574 574 0 0 0 576 922q-1.76 1.764-3.523 3.523L570 928c-4.347-1.653-7.043-4.908-10.187-8.187-13.294-13.471-13.294-13.471-18-14.11-4.048.327-6.818 1.648-9.813 4.297h-2v2c-1.504 1.445-1.504 1.445-3.562 3.125-3.745 3.148-6.789 6.522-9.797 10.371C515 927 515 927 511 927c-2.297-1.941-2.297-1.941-4.75-4.562-14.615-15.219-14.615-15.219-22.957-16.715-6.445.78-11.013 5.646-15.23 10.152-4.403 4.563-8.83 8.502-14.063 12.125l-22-22c-6.183-.533-9.903.276-15 4-3.287 2.949-6.364 6.08-9.437 9.25l-2.506 2.547A1311 1311 0 0 0 399 928c-3.312-1.439-5.433-3.22-7.934-5.809l-2.216-2.263-4.563-4.719-2.22-2.268-2.002-2.072c-3.362-3.044-6.01-4.736-10.538-5.307-4.217.524-5.799 1.653-8.964 4.438l-2.848 2.484A258 258 0 0 0 347 923a811 811 0 0 1-3 3l-2 2c-3.69-1.544-6.024-3.788-8.812-6.625l-2.653-2.695a164 164 0 0 1-7.965-9.086c-2.956-3-5.853-3.91-10.007-4.032-3.562.088-4.37.289-7.313 2.563L303 911c-1.656 2.009-3.329 4.004-5 6h-1v-48l150.989-.427 3.213-.01 104.119-.294 67.718-.192c15.48-.044 30.958-.085 46.438-.094m-240.533 3.792c-5.326.407-10.653.347-15.992.323l-3.696-.005q-4.943-.008-9.884-.025-5.194-.013-10.388-.017-13.149-.018-26.296-.051c-9.512-.022-19.023-.043-28.534-.053q-6.177-.008-12.353-.029-4.718-.012-9.435-.016l-3.464-.015h-3.13l-2.736-.007C301 872 301 872 300 873c-.088 2.52-.115 5.014-.098 7.535l.005 2.283c.005 2.415.018 4.83.03 7.245q.008 2.45.014 4.9.017 6.018.049 12.037l2.856-1.955c4.121-2.68 7.288-3.24 12.144-3.045 5.594 1.543 8.727 4.382 12.52 8.574C329 912 329 912 331 912l.688 2.188c1.56 3.344 3.685 5.253 6.312 7.812l1 3c1.938-.812 1.938-.812 4-2l1-3h2c1.55-1.61 1.55-1.61 3.313-3.75 2.675-3.168 5.426-5.68 8.687-8.25v-2c7.639-3.24 12.998-4.667 21-2l.875 1.938c1.516 2.779 3.184 3.133 6.125 4.062v2h2l.805 1.766c1.228 2.296 2.598 4.038 4.32 5.984l1.633 1.86L396 923c3.31-1.438 5.439-3.225 7.938-5.812l2.101-2.157L408 913l5-5 1.406-1.527c3.198-2.955 7.378-4.436 11.719-4.508 3.854.416 7.427 1.259 10.875 3.035l1 2h2l.813 1.938C442 911 442 911 445 912v2h2l3 6h2v2l3 1a141 141 0 0 0 5-5v-2l4-2v-2l1.875-.437C468 911 468 911 470 910v-2h2v-2l2.875-.937C478 904 478 904 480 903c6.264-.64 10.807.594 16 4 3.141 2.695 6.125 5.553 9.04 8.491 2.484 2.46 4.383 4.272 7.644 5.61 3.128-.137 4.034-1.137 6.129-3.413l1.832-1.926C522 914 522 914 522 912l1.742-.773c2.482-1.349 4.283-2.969 6.383-4.852 4.284-3.413 7.212-4.067 12.613-3.719 2.137.325 4.18.772 6.262 1.344v2h3l1 3c2.58 2.323 3.452 3 7 3v3c5.349 5 5.349 5 8 5v2c3.363-1.441 5.63-3.206 8-6v-3l1.688-.812c3.925-2.016 7.255-3.992 10.312-7.188 3.664-2.442 5.588-2.86 10-3 6.957 1.75 11.243 4.767 16 10h2v2c1.39 1.367 1.39 1.367 3.25 2.875 2.728 2.258 5.292 4.57 7.75 7.125 2.726-1.99 4.751-3.586 6.5-6.5 1.763-2.939 3.811-4.401 6.5-6.5l1.938-2.562c2.917-3.449 5.708-5.13 10.238-5.723 5.726-.222 9.886.806 14.41 4.624a147 147 0 0 1 4.726 4.723l1.627 1.643c3.905 3.984 3.905 3.984 5.061 6.295h2l2 4c2.867-1.285 4.976-2.571 7-5v-2h2c1.29-1.46 1.29-1.46 2.625-3.375l1.352-1.898C696 910 696 910 696 908l8-4v-2c1.897.088 3.792.196 5.688.313l3.199.175c3.356.552 5.285 1.687 8.113 3.512 2.25-.125 2.25-.125 4-1 1.18-3.538 1.113-6.341 1.098-10.074l-.005-2.072c-.005-2.18-.018-4.361-.03-6.542q-.008-2.22-.014-4.439-.017-5.437-.049-10.873a317751 317751 0 0 0-121.423-.055h-2.581q-20.655-.008-41.312-.022-21.211-.014-42.423-.017-13.078-.002-26.155-.014-8.981-.007-17.962-.006-5.172.002-10.346-.005c-24.257-.033-24.257-.033-34.854.894" id="svg-layer-7" style="pointer-events: all;"/><path fill="#0A2844" d="m397.125 256.813 2.258-.043c3.554.312 6.302.85 9.617 2.23 1.719 2.461 2.832 4.423 4 7.125l.995 2.134A329 329 0 0 1 417 275l.987 2.255c2.601 5.957 2.601 5.957 3.667 8.515 1.457 3.45 3.043 6.29 5.346 9.23l.044-3.165c.058-3.875.135-7.75.218-11.624q.051-2.515.084-5.031c.034-2.41.086-4.82.142-7.23l.02-2.274c.146-5.17.146-5.17 1.844-7.652 2.561-1.591 4.8-1.346 7.773-1.274 1.075.015 2.15.03 3.258.047C443 257 443 257 444 258c.14 2.392.218 4.756.253 7.15l.045 2.267q.069 3.727.124 7.454l.084 5.16q.086 5.416.161 10.833c.066 4.635.151 9.27.24 13.905q.096 5.331.164 10.662.038 2.565.092 5.128c.048 2.387.077 4.774.102 7.161l.056 2.156c.009 1.967.009 1.967-.321 5.124-3.505 2.337-5.276 2.387-9.437 2.5l-3.434.156C429 337 429 337 426.836 334.441L425 331l-.974-1.784c-1.025-1.909-2-3.837-2.964-5.779l-1.047-2.098c-2.705-5.512-4.994-11.094-7.105-16.862C412 302 412 302 411 300l-3-1v37c-14 1-14 1-16 0l.035-2.098c.05-5.435-.08-10.772-.562-16.187-.73-10.526-.414-21.04-.176-31.581.079-3.55.146-7.1.21-10.65l.141-6.757.06-3.223.07-2.947c.02-.858.038-1.717.057-2.602.304-3.602 2.101-3.115 5.29-3.142M432.484 361.664l2.224-.02q2.33-.015 4.66-.015c2.36-.004 4.718-.04 7.077-.078q2.27-.009 4.54-.012l2.115-.043c5.481.05 8.493 1.476 12.9 4.504 5.245 6.763 5.666 12.663 5 21a100 100 0 0 1-3 6c-.833 6.352.548 9.275 3.816 14.637 2.728 5.445 2.985 12.6 1.184 18.363-2.858 5.762-5.172 9.97-11 13l-1.88 1.044c-7.204 3.247-16.886 2.139-24.62 2.144l-3.281.037-3.125.005-2.823.013C424 442 424 442 422 440a81 81 0 0 1-.275-7.172l-.015-2.237c-.014-2.447-.013-4.894-.01-7.341l-.014-5.089q-.01-5.337-.002-10.673c.006-4.567-.01-9.133-.034-13.7-.015-3.503-.016-7.007-.013-10.51q0-2.527-.015-5.053c-.013-2.351-.006-4.702.006-7.053l-.023-2.122c.02-1.938.02-1.938.395-5.05 3.613-2.409 6.305-2.323 10.484-2.336M439 378c-1.092 4.637-1.596 8.673.375 13.063 2.45 2.922 2.45 2.922 5.438 3.187C448 394 448 394 450.25 393.063c2.76-3.253 3.528-6.843 3.75-11.063-1.187-3-1.187-3-3-5-4.292-1.43-8.621-2.379-12 1m1.125 30.875c-1.943 5.398-2.974 10.678-1.062 16.188C441 427 441 427 443.813 428c4.692 0 7.61-1.58 11.062-4.687 1.66-3.413 1.796-6.64 1.125-10.313-2.124-3.443-3.149-4.716-7-6-6.323-.677-6.323-.677-8.875 1.875M525.383 256.815c2.213-.002 4.424-.02 6.637-.04 17.25-.07 17.25-.07 22.73 4.538L557 264l2.25 2.5c4.713 6.733 3.302 18.227 2.477 26.113-1.017 4.937-3.25 7.91-6.727 11.387h-2v2h-2l.687 1.617q1.564 3.69 3.125 7.383l1.08 2.543c1.049 2.48 2.08 4.968 3.108 7.457l.966 2.27c1.515 3.716 2.272 5.902 1.034 9.73a788 788 0 0 1-7.312.125l-2.092.05c-3.767.037-5.38-.031-8.596-2.175-1.465-2.758-1.465-2.758-2.937-6.125-1.707-3.847-3.42-7.649-5.375-11.375-1.426-2.957-2.284-5.27-2.688-8.5l-4-1-.076 2.554q-.143 4.677-.296 9.354-.066 2.026-.125 4.054-.088 2.908-.187 5.815l-.11 3.54C527 336 527 336 526 337c-1.82.168-1.82.168-4.125.188l-2.258.042c-3.357-.295-6.391-1.277-9.617-2.23-1.424-53.282-1.424-53.282 0-77 4.428-2.214 10.459-1.186 15.383-1.185M530 271c-4.169 6.644-5.454 13.182-4 21 2.709 2.822 3.935 2.993 7.938 3.438 4.11-.161 6.2-1.409 9.062-4.438 2.662-3.549 2.552-7.736 2-12-1.619-3.642-3.43-6.166-7-8-2.72-.24-5.26-.137-8 0M557.762 361.797l2.374-.017q2.495-.014 4.99-.02c2.534-.01 5.066-.04 7.599-.072q2.424-.01 4.85-.016l2.282-.038c5.616.024 9.658 1.228 13.936 4.909 6.647 7.839 7.787 14.667 7.555 24.828-.73 7.624-3.749 12.651-9.274 17.828C591 411 591 411 591.078 413.645c1.426 5.19 3.793 9.886 6.127 14.722 2.048 4.4 3.297 7.66 2.795 12.633-3.184 1.592-6.524 1.126-10 1l-3.75-.125c-3.599-.969-4.28-1.83-6.188-4.892-2.695-5.033-4.678-10.428-6.794-15.723l-1.147-2.78-1.018-2.534C570 414 570 414 567 413l-.148 3.84-.227 5.098-.094 2.517c-.267 5.727-1.15 10.979-2.531 16.545-5.791 1.016-9.458.963-15-1a286 286 0 0 1-1.133-26.238l-.003-3.654q0-3.787.006-7.575.005-5.78-.007-11.558 0-3.7.004-7.4l-.006-3.464c.053-18.26.053-18.26 9.9-18.314M566 378c-1.282 3.605-1.202 7.27-1.25 11.063l-.078 3.722C565 396 565 396 566.207 397.902c3.602 2.206 7.75 1.827 11.793 1.098 3.827-3.547 5.174-6.636 5.375-11.75-.051-3.537-.3-5.965-2.375-8.875-2.97-2.35-3.538-2.756-7.062-2.875-5.721.726-5.721.726-7.938 2.5M614 260v2c.603.23 1.207.461 1.828.7 2.766 1.656 3.522 3.231 4.922 6.113l1.297 2.582c1.005 2.746 1.216 4.706.953 7.605-1.857 1.857-4.81 1.473-7.312 1.688l-3.489.324c-3.177-.012-4.67-.138-7.199-2.012l-1.5-3.562C602 272 602 272 600.25 270.875c-3.613.2-6.123 1.355-9.25 3.125-2.227 6.664-1.304 14.813-1.35 21.765a464 464 0 0 1-.082 5.47c-.055 2.64-.077 5.28-.091 7.921l-.07 2.46c.017 4.32.209 5.9 2.992 9.409C595 323 595 323 597.133 323.445c3.451-.555 5.315-.875 7.804-3.445 1.614-4.556 2.063-9.179 2.063-14l-3.937-.437c-3.938-.438-3.938-.438-5.063-1.563-.235-7.294-.235-7.294 1-11 3.958-.058 7.916-.094 11.875-.125l3.418-.05 3.262-.02 3.015-.032C623 293 623 293 625 295c.202 2.71.284 5.292.25 8l-.023 2.332c-.194 10.306-1.539 18.681-8.864 26.39-6.301 5.764-11.141 7.564-19.676 7.34-6.933-.606-12.421-2.391-17.687-7.062v-2h-2c-3.138-4.918-4.721-8.956-5.25-14.812l-.228-2.215C568.125 276.5 568.125 276.5 575 266c11.371-12.428 24.345-13.328 39-6" id="svg-layer-8" style="pointer-events: all;"/><path fill="#0A2945" d="M502.88 361.773c.743.01 1.487.02 2.253.032l2.441.02 2.551.05 2.574.027c2.1.024 4.2.06 6.301.098 4.443 10.069 7.226 20.595 10.008 31.227a502 502 0 0 0 1.922 7.109c2.377 8.586 4.472 17.241 6.508 25.914l.895 3.647.788 3.431.732 3.09c.147 2.582.147 2.582-1.06 4.42-4.313 2.794-11.025 1.116-15.793.162l-.586-2.117-.789-2.758-.773-2.742C520 431 520 431 518 429a81 81 0 0 0-7.437-.25l-2.065-.023c-3.712.014-5.334.164-8.498 2.273-1.107 2.257-1.958 4.554-2.84 6.906-1.41 2.545-2.445 3.138-5.16 4.094-4.65.338-7.761-.168-12-2 1.269-8.814 3.249-17.367 5.481-25.975.807-3.147 1.563-6.306 2.332-9.462 2.561-10.369 5.509-20.638 8.438-30.907.458-1.625.906-3.253 1.334-4.886 1.74-6.568 1.74-6.568 5.294-6.997M509 393c-3.041 6.805-5.309 13.534-6 21 1.659 1.659 3.6 1.25 5.875 1.313l2.68.113C514 415 514 415 515.887 413.207 517 411 517 411 515.937 407.375A339 339 0 0 0 514 403a863 863 0 0 1-2.187-5.5L510 393z" id="svg-layer-9" style="pointer-events: all;"/><path fill="#0A2843" d="m367.75 256.875 2.346-.014c3.229.009 5.82.11 8.904 1.139q.039 3.219.063 6.438l.035 3.62C379 271 379 271 378 272a86 86 0 0 1-4.691.535l-2.862.264-3.01.264-3.021.275q-3.708.336-7.416.662l1 15 3.648.148 4.727.227c.794.03 1.588.062 2.406.094 5.992.304 5.992.304 8.219 2.531.335 5.2.377 7.247-2 12l-18 1v16h22c2.277 5.693 2.277 5.693 2.25 9.688l.016 2.324C381 335 381 335 379 337c-2.941.175-5.787.231-8.727.195l-2.614-.008a1611 1611 0 0 1-8.284-.062q-2.805-.016-5.61-.027A3330 3330 0 0 1 340 337c-.961-4.036-1.127-7.802-1.13-11.946l-.005-2.056q-.004-3.346.002-6.693l-.003-4.666q-.001-4.88.006-9.759.006-6.255-.004-12.512-.005-4.812 0-9.625 0-2.308-.002-4.615-.003-3.22.007-6.441l.002-3.702C339 262 339 262 340 259c8.491-2.83 18.847-2.095 27.75-2.125" id="svg-layer-10" style="pointer-events: all;"/><path fill="#092742" d="M468.352 256.77h2.468q2.58.006 5.16.024c2.642.018 5.284.02 7.926.02q2.505.008 5.008.018l2.408.003c5.562.049 5.562.049 6.678 1.165.099 2.165.13 4.333.125 6.5l.008 3.594C498 271 498 271 497 272c-3.767.238-7.527.396-11.299.518l-2.408.103-2.202.076C479 273 479 273 475 275v14l4.086.113q2.644.098 5.289.2l2.695.068 2.578.107 2.38.08C494 290 494 290 496 293c.266 1.938.266 1.938.25 4l.016 2.063C496 301 496 301 494 304c-1.864.417-1.864.417-4.098.477l-2.427.093-2.538.055c-8.833.27-8.833.27-9.937 1.375-.178 5.159.22 9.885 1 15l1.896-.048c2.826-.062 5.652-.101 8.479-.14l2.984-.076 2.852-.029 2.634-.048L497 321c2.167 3.25 2.272 4.292 2.25 8.063l.016 2.66C499 334 499 334 497 336c-2.04.319-2.04.319-4.55.414l-2.79.118-2.973.093-3.01.11c-2.893.101-5.784.186-8.677.265l-2.245.07c-11.226.333-11.226.333-14.755-2.07-1.17-3.513-1.141-6.302-1.161-10.01l-.015-2.15q-.021-3.515-.027-7.031l-.017-4.883q-.015-5.115-.02-10.231c-.006-4.378-.03-8.755-.058-13.132-.019-3.36-.024-6.72-.026-10.08a777 777 0 0 0-.024-4.844 648 648 0 0 1-.008-6.758l-.011-3.89c.12-.987.242-1.974.367-2.991 3.824-2.55 6.923-2.27 11.352-2.23" id="svg-layer-11" style="pointer-events: all;"/><path fill="#F9F3E5" d="M721 180c-1.24 5.86-3.187 11.096-5.586 16.582L714 200l-.995 2.364c-2.625 6.63-3.581 12.23-3.514 19.328l-.02 3.098c-.016 3.412-.004 6.823.008 10.235q-.009 3.714-.024 7.429-.024 8.066-.013 16.131c.011 7.997-.001 15.993-.018 23.99-.03 15.114-.034 30.229-.029 45.344a33356 33356 0 0 1-.012 40.06l-.005 7.587c-.017 23.513-.026 47.026-.017 70.539v2.685l.006 13.473v2.703l.003 5.411q.014 42.085-.042 84.17a60286 60286 0 0 0-.052 107.218q.001 18.735-.033 37.471-.038 21.318-.002 42.637.022 11.919-.017 23.838c-.019 5.945-.006 11.89.02 17.835q.008 3.594-.016 7.189c-.087 13.975.984 25.463 6.772 38.265l.897 2.001a300 300 0 0 0 4.001 8.558C722 842 722 842 722 844h-3l-.312-1.812c-.8-2.542-1.789-3.362-3.688-5.188-10.025-14.636-9.86-33.224-9.742-50.199a3732 3732 0 0 0-.022-7.482 2478 2478 0 0 1 .008-16.162c.03-8.011.025-16.022.013-24.033-.019-13.484-.01-26.968.017-40.451q.04-20.018.04-40.034v-12.652c-.003-31.637.026-63.273.073-94.91a55182 55182 0 0 0 .057-89.712v-2.706l-.001-13.483v-2.687c-.002-23.5.012-46.998.03-70.498l.003-2.533.008-10.082q.014-17.53.015-35.06.001-22.58.043-45.159.025-11.938.018-23.877c-.002-5.94.011-11.88.03-17.819q.009-3.607.001-7.214c-.006-3.265.006-6.529.023-9.794l-.019-2.838c.072-7.558 2.073-13.634 5.092-20.49C712 194 712 194 712 191h2l1-6-2.595.003q-31.34.033-62.68.049-15.158.007-30.313.023-13.22.015-26.44.02-6.99 0-13.982.01-6.6.011-13.198.008-2.405 0-4.808.006c-9.157.021-18.227-.228-27.36-.898-5.544-.338-11.071-.307-16.624-.221l-1-3 195.053-.962 2.376-.012C718.772 180 718.772 180 721 180" id="svg-layer-12" style="pointer-events: all;"/><path fill="#092743" d="M629 258q4.188-.08 8.375-.125l2.406-.05c2.074-.018 4.148.072 6.219.175 2.134 2.134 2.94 4.09 4.07 6.848 1.788 4.14 3.885 8.135 5.93 12.152 1.906-.703 1.906-.703 4-2 .906-2.172.906-2.172 1.5-4.75 1.205-4.526 2.527-7.627 5.5-11.25 3.619-1.206 6.925-1.108 10.688-1.062l2.126.013q2.594.02 5.186.049c-7.305 17.695-7.305 17.695-10.957 24.867l-1.077 2.12q-1.065 2.087-2.149 4.166l-1.012 1.98-.907 1.746c-2.428 5.735-3.176 11.032-3.058 17.207l.016 2.25c.017 2.346.048 4.692.082 7.039q.042 3.552.07 7.104.019 2.202.054 4.403c.017 1.706-.017 3.413-.062 5.118-1 1-1 1-4.598 1.098a675 675 0 0 1-4.465-.036l-2.298-.013q-2.82-.02-5.639-.049c-.89-4.535-1.022-8.764-.887-13.387l.092-3.595q.106-3.678.274-7.352c.181-9.103-1.983-14.859-6.479-22.666a104 104 0 0 1-1.812-4.562c-2.349-6.148-5.292-12.024-8.191-17.927l-1.169-2.413-1.065-2.172C629 261 629 261 629 258" id="svg-layer-13" style="pointer-events: all;"/><path fill="#F9F3E5" d="M303 181h85v1c-6.571.632-13.044 1.12-19.648.938-2.352.062-2.352.062-4.765.546-5.105.734-10.177.753-15.33.832l-3.404.063q-5.364.097-10.728.184l-7.29.13q-8.917.16-17.835.307l1.426 2.71c6.894 13.281 9.03 23.615 8.855 38.585a864 864 0 0 0-.047 8.096l-.03 5.234-.014 2.4c-.049 3.923-.248 7.768-.692 11.667-.511 4.979-.638 9.888-.624 14.89l-.004 2.772c-.004 3.05 0 6.101.003 9.152l-.005 6.645q-.005 9.115.001 18.23.002 8.826-.003 17.652-.007 19.165-.002 38.33.004 16.78.002 33.559v2.25l-.001 9.043q-.004 42.416.005 84.83.007 37.644 0 75.288a282682 282682 0 0 0-.004 93.675v2.247q.002 16.755-.002 33.512-.005 19.073.003 38.144.005 9.726 0 19.45-.004 8.916.004 17.832.001 3.213-.002 6.424-.004 4.397.005 8.794l.004 2.744c.026 4.356.147 8.679.459 13.025l.176 2.485q.175 2.28.401 4.556c.387 4.814-.455 7.656-2.914 11.779q-.983 2.34-1.902 4.707l-1.01 2.525q-1.035 2.604-2.04 5.22l-1.013 2.505-.894 2.28C308 840 308 840 305.929 840.61L304 841c.906-4.254 1.858-7.994 3.91-11.838 6.927-12.99 7.223-24.708 7.106-39.205q.014-3.752.038-7.505.039-8.115.007-16.231c-.03-8.047-.014-16.093.01-24.14.042-14.375.038-28.75.015-43.127q-.03-18.872-.015-37.744l.001-2.534.008-10.184c.025-31.813.002-63.626-.04-95.44-.039-28.232-.035-56.464.003-84.696a44765 44765 0 0 0 .028-105.432l-.002-2.528c-.01-12.57.001-25.139.021-37.709q.037-21.45-.026-42.9a3567 3567 0 0 1 .005-23.978c.02-5.982-.002-11.964-.04-17.947q-.013-3.614.015-7.227c.101-13.504-.974-24.29-7.037-36.485C306 190 306 190 303 181" id="svg-layer-14" style="pointer-events: all;"/><path fill="#F5F0E3" d="m335 100 2 1-3 6h-2l-.715 2.27c-1.5 3.188-3.003 4.385-5.848 6.418-4.35 3.14-4.35 3.14-5.437 5.312-4.296 1.268-7.51 2-12 2v-2l-1.875-.312C304 120 304 120 302 117c-1.5 3-1.239 6.12-1.316 9.414l-.063 2.211a2448 2448 0 0 0-.183 7l-.131 4.742q-.16 5.816-.307 11.633l2-1a61 61 0 0 1 4.121-.133l2.56-.006 2.757.014 2.817.008c6.485.043 12.956.23 19.433.554l2.445.12c5.614.317 5.614.317 7.867 1.443v2h308v1a2941975 2941975 0 0 1-180.183.582l-72.251.233c-34.189.112-68.377.215-102.566.185v-51c5 5 5 5 7.063 7.688 1.995 2.382 2.97 3.464 5.937 4.312 5.928-.249 8.994-2.097 13.063-6.187l1.565-1.506A400 400 0 0 0 329 106l2.105-2.062A282 282 0 0 0 335 100" id="svg-layer-15" style="pointer-events: all;"/><path fill="#F5F0E3" d="M625 96c3.903.406 5.946 2.46 8.75 5.063l2.645 2.445c3.03 2.898 5.997 5.85 8.914 8.863 2.798 2.695 4.487 3.601 8.379 4.129 5.413-.177 8.414-3.001 12.312-6.5l2.773-2.484a612 612 0 0 0 5.614-5.149c2.464-2.232 4.995-4.32 7.613-6.367 3.953 1.585 6.288 4.188 9.188 7.25 4.074 4.23 8.14 7.625 13.23 10.629L706 115v2c3.167.528 4.928.745 8 0 2.852-2.08 5.292-4.355 7.8-6.836C724 108 724 108 727 106v50h-75l1-2c5.491-1.36 11.245-1.349 16.875-1.562l3.306-.13c17.265-.584 34.548-.367 51.819-.308l-1-39-2 3h-2l-1 3c-5.757 2.303-9.823 2.195-15.676.188-3.16-1.615-4.919-3.661-7.015-6.477-1.784-2.333-3.971-3.958-6.309-5.711-2-2-2-2-3-4-4.82.466-7.18 2.528-10.75 5.688-14.269 12.222-14.269 12.222-23.664 12.617-5.038-.594-8.004-3.406-11.149-7.18L640 112a232 232 0 0 0-3.062-3.687l-1.536-1.825C634 105 634 105 632 104v-2l-1.75-.812c-2.283-1.205-4.224-2.596-6.25-4.188z" id="svg-layer-16" style="pointer-events: all;"/><path fill="#DC8C31" d="m359 627 4 5q1.95 2.254 3.909 4.5c1.955 2.263 3.85 4.574 5.744 6.89 1.163 1.39 2.387 2.73 3.62 4.06 7.385 9.116 5.333 21.483 4.727 32.55-4.863-4.04-9.395-8.292-13.812-12.812-5.921-6.055-5.921-6.055-8.188-7.188z" id="svg-layer-17" style="pointer-events: all;"/><path fill="#F5F0E3" d="M513 96c4.671 3.373 9.16 6.681 13 11v2l1.762.766c3.203 1.766 5.433 4.337 7.945 6.968C538 118 538 118 541.391 117.527c3.921-1.66 6.577-3.757 9.547-6.715l3.12-2.976 1.516-1.466a199 199 0 0 1 5.926-5.433l1.781-1.597c1.815-1.415 3.632-2.383 5.719-3.34 6.134 4.165 11.25 9.106 16.387 14.414 7.243 7.168 7.243 7.168 11.8 7.398 6.66-.33 10.435-5.278 14.813-9.812a873 873 0 0 1 3.078-3.047A759 759 0 0 0 623 97c0 3.74-.934 4.453-3.375 7.188l-1.898 2.167C616 108 616 108 614 108l1 3c-7.915 9.464-7.915 9.464-14.125 10.188-5.077.055-9.691-.497-13.812-3.688C586 116 586 116 586 114l-2.125-.562c-3.404-1.703-5.025-3.703-7.39-6.618-2.018-2.474-4.13-4.662-6.485-6.82-2 0-2 0-4.312 2.188q-2.658 2.78-5.313 5.562C558 110 558 110 555 111l-1 3c-3.378 4.153-6.789 6.346-12.125 7-7.55.284-12.347-3.118-17.875-8-2.497-2.886-4-5.064-4-9l-3-1v-2l-3-1v-2l-2-1z" id="svg-layer-18" style="pointer-events: all;"/><path fill="#F0ECE0" d="M334 664h2l.938 2.875c3.207 7.47 9.982 13.09 15.687 18.688 2.921 2.87 5.488 5.78 7.938 9.062 2.737 3.625 5.634 6.508 9.117 9.41 3.501 2.965 6.839 6.106 10.196 9.234 5.122 4.736 9.032 6.976 16.124 6.731 8.44-1.79 16.279-5.224 24-9v4l-3.07 1.207-4.055 1.606-2.016.79c-3.129 1.243-6.11 2.527-9.105 4.077-5.975 2.864-11.775 1.313-17.754-.68v-2l-2.574-.629c-4.296-1.72-6.94-4.132-10.238-7.308l-1.84-1.742c-5.231-5.034-10.22-10.327-14.348-16.321v-2l-1.625-.687C345.087 686.733 339.173 678.76 334 671c-.687-3.125-.687-3.125-1-6z" id="svg-layer-19" style="pointer-events: all;"/><path fill="#EFE5CC" d="M530 271c7.768-.67 7.768-.67 11.438 2.313 3.517 3.688 3.918 6.575 3.843 11.62-.47 3.462-2.012 5.49-4.281 8.067-3.637 2.105-6.84 2.443-11 2-2.152-1.133-2.152-1.133-4-3-1.454-7.818-.169-14.356 4-21" id="svg-layer-20" style="pointer-events: all;"/><path fill="#F5EACE" d="M578 376c3.39 2.683 4.67 4.193 5.441 8.414.273 5.82-.694 9.157-4.441 13.586-1.658 1.658-3.603 1.21-5.875 1.25l-2.68.078C568 399 568 399 566.2 397.914c-1.822-2.909-1.558-5.393-1.511-8.789l.011-3.68c.288-3.292.71-5.56 2.301-8.445 3.742-1.247 7.127-1.761 11-1" id="svg-layer-21" style="pointer-events: all;"/><path fill="#F0ECE0" d="M541 662c-2.103 3.155-2.44 3.433-5.79 4.543l-2.33.804-2.505.84c-7.315 2.557-14.202 5.49-21.034 9.148-4.041 2.138-7.951 3.433-12.341 4.665a83 83 0 0 0-4.937 2.75c-6.452 3.642-13.21 6.029-20.15 8.543-7.694 2.843-15.158 6.22-22.538 9.789C447 704 447 704 443 704v2l-2.336.586-3.039.789-3.023.773C432 709 432 709 430 711c-2.164.633-2.164.633-4.625 1.125l-2.477.508L421 713c3.557-4.326 7.813-5.866 12.875-7.875l5.148-2.105 2.562-1.037a573 573 0 0 0 9.915-4.17l3.383-1.45a374 374 0 0 0 8.492-3.863c4.281-1.97 8.637-3.64 13.063-5.25 7.231-2.637 14.207-5.728 21.204-8.93 6.114-2.79 12.274-5.329 18.538-7.765 2.921-1.161 5.782-2.427 8.64-3.735l2.482-1.132a485 485 0 0 0 4.798-2.237c5.572-2.56 5.572-2.56 8.9-1.451" id="svg-layer-22" style="pointer-events: all;"/><path fill="#F5F0E3" d="M454 96c7.222 3.46 12.762 8.3 18.027 14.316 5.776 6.31 5.776 6.31 9.157 7.368 6.666.214 10.964-3.614 15.628-7.871l2.614-2.383c3.086-2.913 6.056-5.922 8.98-8.996C510 97 510 97 512 97c-.125 2.25-.125 2.25-1 5-2.562 1.875-2.562 1.875-4.18 2.844-4.773 3.032-8.967 6.45-11.507 11.531L494 119c-2.687.875-2.687.875-5 1v2q-2.406.039-4.812.063l-2.708.035c-3.101-.122-4.907-.504-7.093-2.77l-1.7-2.078c-2.206-2.628-4.323-4.872-7.062-6.937C463 108 463 108 462.125 105.187L462 103l-4-1v-2c-3.732.566-5.414 2.063-8 4.75l-2.121 2.195C446 109 446 109 443.937 111.625c-3.53 4.328-7.296 8.336-12.937 9.375 0-3 0-3 1.25-4.606l1.75-1.722 1.93-1.916 2.07-2.006 2.073-2.04c4.504-4.405 9.093-8.665 13.927-12.71" id="svg-layer-23" style="pointer-events: all;"/><path fill="#F2E7CD" d="M445.375 406.5c3.741.516 5.66 1.213 8.625 3.5 2.464 3.696 2.679 6.71 2 11-1.815 3.093-3.286 4.587-6.375 6.375-3.326.792-5.369.687-8.625-.375-2.36-2.36-2.977-4.052-3.059-7.379.851-12.146.851-12.146 7.434-13.121" id="svg-layer-24" style="pointer-events: all;"/><path fill="#EFEBE0" d="m673 604-1 3a85 85 0 0 1-7.25 3c-4.544 1.681-8.622 3.417-12.75 6l-6 2c-2.024.958-4.012 1.976-6.004 3-1.758.88-3.562 1.667-5.371 2.438-2.834 1.221-5.515 2.521-8.25 3.937-4.967 2.522-10.07 4.496-15.297 6.414C608 635 608 635 604.79 636.637c-2.903 1.419-4.61 1.643-7.789 1.363v2l-4-1c10.977-7.281 23.31-12.234 35.535-17.02 8.196-3.26 16.24-6.842 24.215-10.605C668.408 604 668.408 604 673 604" id="svg-layer-25" style="pointer-events: all;"/><path fill="#F0E6CD" d="M444.375 375.875C448 376 448 376 451 377c1.875 2.5 1.875 2.5 3 6-.52 3.224-1.448 6.125-3 9-3.496 2.33-4.887 2.588-9 2-3.158-2.742-3.928-4.33-4.375-8.5 1.008-9.412 1.008-9.412 6.75-9.625" id="svg-layer-26" style="pointer-events: all;"/><path fill="#F5F0E3" d="M397 96c2.438.813 2.438.813 5 2l1 3a84 84 0 0 0 4 2c1.568 1.389 1.568 1.389 3.059 2.969l1.67 1.73q1.705 1.799 3.406 3.602c4.571 4.726 8.342 6.58 14.865 7.699v2c-4.97-.412-9.445-.796-14-3v-2h-2c-1.402-1.426-1.402-1.426-2.937-3.312-1.53-1.865-3.004-3.632-4.754-5.293C405 106 405 106 405 104h-4c-1.75-2-1.75-2-3-4l-2 2.063c-6.534 6.515-13.765 12.23-21 17.937l-1-3c14.395-13.444 14.395-13.444 20.645-18.828.807-.699 1.6-1.417 2.355-2.172" id="svg-layer-27" style="pointer-events: all;"/><path fill="#F0ECE0" d="m363 578 1 2c-9.403 4.875-9.403 4.875-14.25 6.5-5.88 2.115-9.985 5.825-12.75 11.5-1.081 3.382-1.12 6.515-1.114 10.054v3.7l.016 3.98.005 4.086q.006 5.366.024 10.732.014 5.48.02 10.96.016 10.743.049 21.488l-2 1c-.984-12.305-1.186-24.563-1.185-36.903-.003-3.186-.02-6.37-.04-9.556q-.005-3.069-.005-6.139l-.022-2.853c.027-7.981.993-13.976 6.56-19.986C345.52 582.825 354.78 579.448 363 578" id="svg-layer-28" style="pointer-events: all;"/><path fill="#F1ECE0" d="M437 549v2a798 798 0 0 1-5.437 2.813l-3.06 1.582a67 67 0 0 1-7.69 3.003c-5.602 1.802-10.965 4.112-16.375 6.414-8.371 3.528-16.765 6.907-25.293 10.032a131 131 0 0 0-5.926 2.336c-2.545.94-3.713.748-6.219-.18 4.636-3.606 9.313-5.23 14.89-6.992 6.585-2.134 12.897-4.767 19.005-8.016 2.54-1.197 5.115-2.02 7.793-2.867a121 121 0 0 0 13.078-5.11 223 223 0 0 1 7.609-3.265l2.46-1.016C434 549 434 549 437 549" id="svg-layer-29" style="pointer-events: all;"/><path fill="#F0E7CF" d="M509 393c2.815 3.282 3.963 6.438 5.188 10.563l1.042 3.44C516 410 516 410 516 413c-2 2-2 2-4.383 2.195l-2.742-.07-2.758-.055L504 415c-1.418-4.46-.068-7.833 1.375-12.125.235-.728.47-1.457.71-2.207 1.714-5.266 1.714-5.266 2.915-7.668" id="svg-layer-30" style="pointer-events: all;"/><path fill="#F5F0E3" d="M650.625 471.438c1.977 1.308 1.977 1.308 3.375 2.562v2h2l1 4-2.3-1.496-3.013-1.942-2.988-1.933c-4.868-2.938-9.15-3.25-14.699-2.629-3.47 1.043-6.702 2.51-10 4q-3.029 1.256-6.062 2.5a258 258 0 0 0-10.875 4.813c-3.148 1.424-5.55 2.14-9.063 1.687 1.255-2.51 2.149-2.698 4.684-3.805l2.297-1.013 2.457-1.057 2.49-1.087c5.65-2.454 11.309-4.862 17.072-7.038l2.246-.937c7.547-2.93 14.326-2.817 21.379 1.375" id="svg-layer-31" style="pointer-events: all;"/><path fill="#EEEBDF" d="m590 639 2 3-2.86 1.102c-6.295 2.455-12.45 4.963-18.452 8.086-4.434 2.297-8.7 3.794-13.504 5.101-3.142 1.023-5.55 2.75-8.184 4.711-3.574 2.382-4.568 3-9 3v-4l5.25-2.187 3.344-1.395a2194 2194 0 0 1 6.312-2.617c6.464-2.673 12.875-5.451 19.277-8.27A387 387 0 0 1 590 639" id="svg-layer-32" style="pointer-events: all;"/><path fill="#F5F0E3" d="m340 96 5 2v2l1.688.688c2.322 1.318 3.863 2.849 5.714 4.746 6.63 6.499 12.158 10.763 21.598 11.566l-2 3c-2.059.363-2.059.363-4.437.313l-2.372-.012C363 120 363 120 360 118v-2l-1.703-.75c-2.688-1.463-4.761-3.218-7.047-5.25l-2.422-2.125C347 106 347 106 347 104l-3-1v-3h-7z" id="svg-layer-33" style="pointer-events: all;"/><path fill="#F9F3E5" d="M388 181h128v1l-128 1z" id="svg-layer-34" style="pointer-events: all;"/><path fill="#EDEADF" d="M657 477q1.757 1.176 3.5 2.375l1.969 1.336L664 482v2l2.188.625c3.647 1.783 5.33 4.194 7.812 7.375l2.063 1.813c3.029 3.42 5.937 8.511 5.937 13.187l2 1v3c-2.958-2.612-4.719-5.666-6.687-9.062l-1.887-3.223C674 496 674 496 674 494l-1.687-.687c-2.971-1.687-4.921-3.867-7.313-6.313a467 467 0 0 0-6.426-5.352C657 480 657 480 657 477" id="svg-layer-35" style="pointer-events: all;"/><path fill="#E9E6DD" d="m522 513 4 3q-6.455 2.598-12.92 5.17c-1.97.786-3.935 1.581-5.9 2.377l-3.493 1.39-3.175 1.278C498 527 498 527 496 526c4.676-4.008 8.524-5.727 14.5-6.875 4.061-.845 6.439-2.25 9.5-5.125z" id="svg-layer-36" style="pointer-events: all;"/><path fill="#EAE7DD" d="M471 537c-9.108 4.609-18.335 8.707-28 12 1.766-3.844 1.766-3.844 3.875-5.25C449 543 449 543 453 543l1-2a88 88 0 0 1 5-2l3.5-1.687c3.558-1.335 4.971-1.49 8.5-.313" id="svg-layer-37" style="pointer-events: all;"/><path fill="#EEEAE0" d="M496 526v2l-1.68.61q-3.786 1.38-7.57 2.765l-2.645.96-2.558.938-2.349.857c-2.198.87-2.198.87-4.232 1.978C473 537 473 537 469 537v-2q2.685-1.005 5.375-2l3.023-1.125C480 531 480 531 482 531l1-2c2.18-1.105 2.18-1.105 4.875-2.187l2.68-1.106C493 525 493 525 496 526" id="svg-layer-38" style="pointer-events: all;"/><path fill="#F2EEE1" d="M567 497v2c-17.983 9.518-17.983 9.518-23.32 8.602L542 507c4.252-2.569 8.33-4.62 13.012-6.273 1.979-.724 3.88-1.55 5.8-2.414C564 497 564 497 567 497" id="svg-layer-39" style="pointer-events: all;"/></svg>