<svg xmlns="http://www.w3.org/2000/svg" width="1024" height="1024"><path fill="none" d="M0 0h1024v1024H0zm209.879 196.32C205 202.426 205 202.426 205 205l-2.422-1.969c-4.137-2.736-7.996-2.587-12.832-2.533l-2.774-.016c-3.035-.013-6.07.004-9.105.022q-3.225 0-6.451-.005-6.802 0-13.603.034c-5.67.028-11.339.026-17.008.014-22.56-.04-45.035.31-67.547 1.855l-2.802.19q-3.907.272-7.811.572l-2.267.163c-13.492 1.11-13.492 1.11-17.94 4.798-2.049 4.096-2.09 6.31-1.438 10.875 3.617 3.622 7.248 4.992 12.102 6.434l2.1.628c7.842 2.31 15.755 4.36 23.679 6.368 2.486.63 4.97 1.269 7.455 1.908a764 764 0 0 0 26.565 6.303c5.293 1.16 10.52 2.466 15.724 3.984l4.29 1.227 1.81.525L137 247l3.706 1.041c14.853 3.652 28.655.076 42.669-4.916a1656 1656 0 0 1 4.96-1.684c5.944-2.02 11.834-4.109 17.665-6.441v14l-6 2c-4.333 2.785-7.159 6.192-9 11-1.439 7.751-1.12 15.778-1.062 23.625l.013 3.621q.018 4.377.049 8.754l-2.502-.06-3.28-.045-3.251-.06c-5.321.296-7.858 2.936-11.28 6.728-2.96 4.275-2.847 8.166-2.855 13.175l-.01 2.298q-.007 2.408-.007 4.814c-.002 2.443-.02 4.885-.04 7.328q-.005 2.342-.005 4.685l-.022 2.198c.032 7.284 1.803 12.505 6.717 17.802 11.34 9.559 26.787 14.232 40.535 19.137a113 113 0 0 1-4 9.063c-4.973 11.394-4.312 23.95-4.3 36.132l-.014 5.527q-.01 5.76-.002 11.523c.006 4.9-.01 9.799-.034 14.699-.015 3.797-.016 7.594-.013 11.391q0 2.709-.015 5.418c-.073 14.834 1.243 26.422 11.44 37.935 5.66 5.435 13.368 7.874 20.938 9.312l.136 2.348c1.792 30.018 5.907 52.116 26.864 74.652-1.652 4.87-4.37 8.87-7.187 13.125q-1.398 2.128-2.793 4.258l-1.469 2.238c-5.17 7.93-10.156 15.964-15.051 24.067a1568 1568 0 0 1-17.525 28.242c-5.754 9.127-10.107 16.33-10.089 27.317v2.189c0 2.38.009 4.761.016 7.142l.005 4.96q.006 6.52.024 13.04.014 6.656.02 13.313.016 13.054.049 26.109l-1.817.39-2.413.525-2.38.514c-3.743.894-7.334 2.145-10.952 3.446l-2.131.738C182.762 768.647 175.27 771.46 171 780c-.704 6.293-1.225 12.244 2.625 17.563 4.899 5.476 9.563 8.217 16.824 8.636 5.433-.028 10.326-1.562 15.488-3.136l3.154-.942c11.797-3.59 23.353-7.827 34.909-12.121q3.625-1.333 7.252-2.66c4.652-1.711 9.3-3.433 13.948-5.155 8.836-3.272 17.68-6.516 26.554-9.685l2.447-.874q4.91-1.754 9.822-3.501c9.557-3.4 19.062-6.895 28.505-10.602 7.116-2.79 14.286-5.417 21.472-8.023 8.303-3.022 16.592-6.07 24.813-9.312A449 449 0 0 1 395.438 734c9.228-3.227 18.426-6.517 27.562-10l2.625-.994c2.614-1 5.214-2.03 7.813-3.068l2.42-.922c5.019-2.055 7.671-3.952 10.142-9.016 1.01-4.87.524-8.912-1.625-13.375-3.676-4.063-7.479-6.376-12.578-8.238l-2.161-.794L428 687l.487-1.744a16387 16387 0 0 0 5.012-18.007l1.871-6.716q1.348-4.832 2.689-9.666l.846-3.021c1.272-4.599 2.45-9.108 3.095-13.846l2.221.048c20.39.376 39.952-.31 59.588-6.18 3.385-.92 6.712-1.437 10.191-1.868l1.285 1.723A332 332 0 0 0 521 635l1.46 1.875c7.053 8.06 20.796 14.598 31.411 15.32l2.567-.07 2.62-.055L561 652l1.188 3.813c1.481 4.437 3.321 8.607 5.296 12.843 1.906 4.204 3.678 8.459 5.453 12.719 2.282 5.465 4.607 10.89 7.125 16.25 15.464 33.035 15.464 33.035 14.625 49.25l-.142 2.992c-.898 18.059-2.12 36.108-3.545 54.133l-2.047.51c-8.348 2.146-16.246 5.958-20.953 13.49-1.936 4.453-2.573 8.169-2 13 2.393 6.06 5.22 9.984 11 13 12.902 4.3 26.422-3.433 38.063-8.437l3.314-1.409c5.11-2.18 10.195-4.402 15.244-6.72 5.398-2.471 10.872-4.718 16.379-6.934 6.477-2.626 12.903-5.296 19.234-8.258 3.737-1.678 7.532-3.203 11.328-4.742 5.427-2.204 10.671-4.56 15.872-7.262 3.81-1.838 7.75-3.332 11.688-4.867 4.546-1.791 8.97-3.766 13.378-5.871 5.544-2.645 11.147-5 16.87-7.228 5.155-2.029 10.139-4.346 15.135-6.732 5.08-2.404 10.26-4.401 15.522-6.364 2.715-1.074 5.26-2.27 7.848-3.614 4.05-2.1 8.193-3.84 12.438-5.5 7.028-2.759 13.869-5.813 20.687-9.062l4.191-1.875c13.513-6.176 13.513-6.176 16.243-11.988 1.473-5.56 1.583-10.806-1.059-16.012-2.977-3.917-5.436-6.723-10.519-7.418-6.93-.157-12.18 1.53-18.481 4.293l-2.754 1.156q-3.32 1.399-6.621 2.844-.783-3.687-1.562-7.375l-.526-2.476a1589 1589 0 0 1-3.56-17.383c-9.287-46.409-9.287-46.409-21.762-62.68-2.64-3.464-5.14-7.027-7.653-10.586l-1.525-2.145c-2.97-4.203-5.743-8.454-8.332-12.904L745 605h-2l-.676-2.02c-1.732-3.898-4.06-7.189-6.511-10.668l-1.504-2.159q-2.15-3.08-4.309-6.153l-1.965-2.812q-1.65-2.36-3.305-4.72a1272 1272 0 0 1-8.3-11.956 282 282 0 0 0-5.297-7.43l-2.82-3.957c-.46-.606-.918-1.212-1.39-1.837-1.247-1.78-1.247-1.78-2.923-5.288.7-3.77.7-3.77 2-7 .993-5.584-1.454-9.025-4.297-13.633C700 523 700 523 697.797 520.82 696 519 696 519 696 517c1.363-1.156 1.363-1.156 3.313-2.5 9.638-7.046 19.267-15.326 24.546-26.284 2.062-4.178 3.713-6.016 8.32-7.608l1.946-.608c9.152-3.269 18.484-7.78 22.875-17 2.305-6.299 2.181-12.08 2.02-18.734q-.045-3.432-.088-6.864c-.056-3.59-.12-7.18-.2-10.77-.072-3.477-.113-6.952-.15-10.429l-.097-3.267c-.019-2.733.007-5.251.515-7.936 2.225-2.051 2.225-2.051 5-3l2.362-1.208 2.454-1.175 2.785-1.335 2.962-1.407 3.084-1.472c7.378-3.505 14.81-6.877 22.274-10.194 5.846-2.612 11.568-5.416 17.27-8.324 4.661-2.36 9.388-4.505 14.184-6.572l3.988-1.735a917 917 0 0 1 6.617-2.844c6.065-2.752 10.237-6.204 14.02-11.734.898-2.693 1.139-4.315 1.177-7.085l.039-2.479.022-2.67.025-2.762q.02-2.895.032-5.79c.017-2.94.061-5.877.105-8.816q.015-2.816.026-5.632l.053-2.646c-.02-5.89-1.096-9.272-4.479-14.12-4.033-3.78-7.87-4.133-13.25-4.062l-2.703.027L835 298l.016-1.83c.254-33.79.254-33.79-7.391-43.045C825 251 825 251 819 249v-14l5.852 2.047 5.77 2.006q1.965.684 3.932 1.373a731 731 0 0 0 11.555 3.946c1.83.608 3.657 1.228 5.484 1.849 14.506 4.599 26.973 2.682 41.345-.846q2.35-.56 4.7-1.116A1443 1443 0 0 0 911 241l3.193-.79c5.416-1.356 10.809-2.79 16.198-4.247 3.712-.99 7.43-1.957 11.148-2.92 3.737-.97 7.47-1.95 11.204-2.93q2.798-.733 5.6-1.453c2.64-.681 5.275-1.376 7.91-2.074l2.403-.609c6-1.612 10.777-3.626 14.344-8.977.567-5.102.567-5.102 0-8-5.826-6.683-16.566-5.558-24.843-6.156-28.062-1.91-56.087-2.181-84.205-2.214q-4.9-.009-9.8-.028-7.815-.026-15.631-.005-2.924.004-5.846-.005c-2.695-.008-5.388.003-8.082.02l-2.384-.019c-4.803.056-7.987.877-12.209 3.407l-1.75-2.687L816 198l-1.625-2.5c-5.038-5.303-12.135-9.376-19.375-10.5-9.155-.206-16.186 1.53-22.969 7.828-4.018 4.325-6.632 8.798-9.031 14.172q-2.596-.683-5.187-1.375l-2.918-.773C752 204 752 204 749.879 202.962c-3.985-1.331-7.662-1.233-11.836-1.205l-2.714-.006c-2.976-.003-5.951.007-8.927.019h-6.32q-6.67.003-13.34.024c-5.556.017-11.112.02-16.668.02-12.958 0-25.914.064-38.872.164q-4.838.032-9.677.05-7.746.035-15.49.138-2.877.033-5.752.04c-2.633.008-5.265.047-7.898.094l-2.323-.014c-5.779.154-8.156 1.742-12.062 5.714-1.427 2.853-1.31 4.835-1 8 2.66 4.053 4.833 5.734 9.418 7.21l3.262 1.074 3.508 1.091 3.65 1.173c10.92 3.47 21.927 6.617 32.991 9.596 3.297.89 6.59 1.796 9.882 2.704A1477 1477 0 0 0 679 244l2.646.693c21.28 5.485 37.808 2.162 58.229-5.256q3.102-1.117 6.207-2.231 2.791-1.005 5.582-2.017c3.097-1.104 6.216-2.149 9.336-3.189v17l-6 2c-5.003 4.421-8.547 8.291-9.196 15.038l-.101 2.18-.121 2.486-.117 2.655-.13 2.74q-.204 4.326-.398 8.651-.136 2.935-.275 5.871-.337 7.19-.662 14.379a2042 2042 0 0 1-9.625 3.938l-2.738 1.13c-4.54 1.84-8.72 3.417-13.637 3.932l-.594-1.652c-2.013-3.36-4.87-5.518-7.906-7.91l-2.004-1.588c-7.742-5.994-16.014-10.987-24.496-15.85l-2.052-1.207C661.12 274.195 639.506 267.93 617 264l-3.828-.707c-14.398-2.465-29.058-2.447-43.622-2.47l-5.368-.02q-8.72-.028-17.44-.041l-6.057-.013q-14.234-.029-28.467-.041-16.322-.015-32.642-.077-12.693-.044-25.386-.048c-5.03-.002-10.061-.011-15.092-.036-40.058-.193-40.058-.193-58.098 4.453q-2.572.622-5.145 1.24C354.166 271.493 333.502 279.18 314 290l-5.625 3c-14.536 7.954-14.536 7.954-20.586 12.754C286 307 286 307 283.313 306.75 281 306 281 306 280 305c-.111-2.85-.162-5.68-.176-8.531l-.072-5.336c-.035-2.807-.064-5.613-.078-8.42a776 776 0 0 0-.1-8.12l.006-2.5c-.134-6.457-1.539-12.82-6.062-17.688C267.156 249 267.156 249 263 249l1-16 3.637 1.285c9.265 3.264 18.545 6.478 27.863 9.59l2.694.903 2.525.84 2.217.737c23.451 7.327 52.896-6.11 75.48-12.564 2.777-.793 5.555-1.58 8.332-2.37 33.291-9.48 33.291-9.48 37.252-15.421.438-3.375.438-3.375 0-7-2.173-2.63-3.947-4.473-7-6a151 151 0 0 0-6.446-.303l-2.043-.06q-3.429-.096-6.859-.176l-2.433-.062c-21.603-.543-43.21-.692-64.82-.75q-6.9-.02-13.796-.081c-5.664-.05-11.328-.074-16.993-.081a771 771 0 0 1-6.37-.046c-11.008-.119-20.468.073-30.671 4.484C264 207 264 207 261 207l-.734-1.758c-4.513-10.517-8.65-14.658-19.266-19.242-11.274-3.758-23.46 1.94-31.121 10.32" id="svg-layer-0" style="pointer-events: all; fill: none;"/><path fill="#002341" d="M252.691 191.855c2.456 2.282 3.654 4.183 5.059 7.208l1.234 2.597C260 204 260 204 261 207c1.523-.26 3.043-.534 4.563-.812l2.566-.458C271 205 271 205 274.08 203.477c4.477-1.938 8.672-1.884 13.49-1.833l2.838-.007c3.095-.003 6.19.016 9.286.035l6.565.006q6.907.007 13.815.04c5.785.029 11.57.04 17.355.045q19.77.018 39.541.208 4.426.041 8.852.076 6.604.057 13.206.179 2.367.04 4.734.059c2.14.02 4.277.063 6.416.114l3.582.06c3.92.655 6.144 2.09 9.239 4.541 1.57 3.139 1.352 5.539 1 9-3.35 4.048-6.34 5.868-11.29 7.504l-3.75 1.25q-1.98.627-3.96 1.246l-1.964.618c-4.788 1.495-9.596 2.916-14.411 4.32l-2.232.654a763 763 0 0 1-36.863 9.8c-3.85.925-7.69 1.892-11.53 2.858l-3.562.89c-1.815.454-3.629.91-5.436 1.393-15.462 4.061-28.33-.51-43.002-5.533l-2.273-.774A436 436 0 0 1 272 236l-2.621-.973A889 889 0 0 1 264 233l-1 16 4 1c6.509 3.797 10.056 7.702 12 15 .284 3.09.3 6.165.309 9.266l.076 5.382q.044 4.22.071 8.44c.022 2.727.061 5.452.103 8.178v2.563c.04 2.367.04 2.367.441 6.171 3 2 3 2 5.188 2 3.347-1.19 5.495-2.96 8.277-5.133 10.059-7.409 21.22-12.82 32.559-17.945 1.996-.931 3.946-1.929 5.902-2.942 4.316-2.173 8.757-3.792 13.324-5.355l2.612-.901C361.675 270.01 375.604 265.54 390 263l2.562-.491c9.558-1.679 18.865-1.793 28.531-1.768l5.362-.01c4.82-.01 9.642-.006 14.463 0 5.078.005 10.156 0 15.234-.002q12.802-.005 25.606.01 14.714.015 29.428-.003 12.703-.014 25.408-.006 7.555.007 15.11-.003c50.105-.057 50.105-.057 72.546 4.523l3.262.648c13.711 2.834 26.952 6.808 39.488 13.102q1.845.888 3.691 1.773C685.205 287.796 698.48 295.828 711 306l2.363 1.895c1.594 1.312 3.126 2.699 4.637 4.105v2c6.08-1.38 11.717-3.308 17.5-5.625l2.492-.984Q741 306.2 744 305l.136-3.653c.17-4.494.36-8.987.554-13.48q.122-2.91.23-5.822c.103-2.798.225-5.595.35-8.393l.085-2.608c.325-6.686 1.531-11.596 6.02-16.794C757.5 249 757.5 249 761 249v-17l-7.672 2.738q-3.738 1.327-7.477 2.651-2.57.912-5.138 1.83c-42.8 15.297-80.248.708-122.088-12.156l-3.616-1.107c-13.077-4.089-13.077-4.089-16.884-7.768-1.566-3.046-1.667-4.798-1.125-8.188 1.831-2.923 3.866-5.433 7-7 2.678-.155 5.333-.25 8.014-.303l2.525-.06c2.792-.065 5.583-.12 8.375-.176l2.939-.062c22.33-.469 44.66-.687 66.995-.75q6.607-.02 13.215-.081c5.452-.05 10.904-.074 16.356-.081q3.055-.01 6.111-.046c12.037-.136 21.37.79 32.47 5.559h2l1.031-2.16c4.286-8.468 9.687-15.627 18.969-18.84 10.079-1.85 17.134-.581 25.75 4.813 4.995 3.513 8.832 7.472 11.25 13.187l2.463-1.476c4.274-1.842 7.54-1.948 12.13-1.912l2.565-.016c2.805-.013 5.61-.004 8.416.006l5.954-.013c5.295-.008 10.59.005 15.885.025q4.902.016 9.804.021c24.93.04 49.832.178 74.72 1.74l3.085.19q4.191.271 8.38.583l2.342.168c5.494.459 11.39 1.071 16.256 3.809 1.708 3.202 1.573 6.396 1 9.875-1.933 4.05-4.362 5.317-8.406 6.797-8.771 3.084-17.799 5.33-26.782 7.703q-2.684.716-5.369 1.434A1617 1617 0 0 1 911 241l-2.116.522q-6.63 1.634-13.276 3.198-2.24.531-4.477 1.082c-13.087 3.212-25.482 5.167-38.568.698l-2.476-.792A509 509 0 0 1 842 243l-3.143-1.07A1672 1672 0 0 1 819 235v14l6 2c2.047 1.77 2.047 1.77 3.75 3.813l1.734 2.019c7.642 10.93 4.626 28.466 4.516 41.168l2.051-.042 2.707-.032 2.676-.042c5.065.229 8.408 1.897 11.941 5.616 2.121 3.263 2.75 5.773 2.802 9.585l.039 2.479.022 2.67.025 2.762q.02 2.895.032 5.79c.017 2.94.061 5.877.105 8.816q.015 2.816.026 5.632l.053 2.646c-.024 6.749-1.612 10.694-5.997 15.934-5.114 4.39-10.792 6.815-16.982 9.373q-3.371 1.438-6.738 2.883l-3.429 1.47c-5.066 2.219-10.045 4.608-15.02 7.022a889 889 0 0 1-22.75 10.625c-6.685 3.012-13.318 6.097-19.875 9.375l-2.032 1.015c-4.52 2.287-4.52 2.287-5.656 3.423a75 75 0 0 0-.066 4.668l.03 3.016.044 3.289.05 6.853q.045 5.418.113 10.836c.043 3.478.066 6.957.087 10.436l.056 3.246c.03 8.721-1.596 15.766-7.314 22.656-5.44 4.776-11.081 7.497-17.812 9.875-7.775 2.838-7.775 2.838-9.938 7.188l-.973 2.316C717.966 500.278 706.345 511.115 696 517c1.376 2.964 2.99 5.427 5 8 4.991 6.39 4.991 6.39 5.012 10.219l-.324 2.281-.301 2.281C705 542 705 542 704.19 543.86c-.322 3.607 2.05 6.078 4.059 8.891l1.373 1.986q1.443 2.085 2.902 4.16c1.43 2.04 2.84 4.094 4.24 6.155a916 916 0 0 0 13.423 19.199C743 602.098 743 602.098 743 605h2c1.375 1.914 1.375 1.914 3 4.625a226 226 0 0 0 9 13.438l1.3 1.812a580 580 0 0 0 5.65 7.746c10.152 13.895 14.076 27.66 17.609 44.301q.728 3.426 1.463 6.85c2.725 12.728 5.445 25.46 7.978 38.228l1.677-.734a759 759 0 0 1 7.698-3.266l2.637-1.156c5.999-2.489 11.475-3.875 17.988-2.844 3.999 1.856 6.367 4.123 8.938 7.688 1.88 5.864 2.25 11.749-.438 17.437-4.064 5.726-11.247 8.186-17.46 10.96-1.83.82-3.641 1.678-5.45 2.54-6.19 2.946-12.482 5.559-18.864 8.055-4.493 1.776-8.866 3.74-13.226 5.82-5.641 2.69-11.347 5.095-17.165 7.375-4.48 1.762-8.846 3.693-13.21 5.719-4.092 1.841-8.233 3.556-12.375 5.281-5.854 2.441-11.648 4.96-17.375 7.688-6.024 2.868-12.139 5.445-18.32 7.953-3.893 1.582-7.742 3.216-11.555 4.984-4.572 2.12-9.208 4.04-13.875 5.938-6.325 2.573-12.533 5.327-18.715 8.23-3.4 1.556-6.853 2.92-10.336 4.277-2.969 1.217-5.858 2.565-8.761 3.93-5.384 2.517-10.825 4.773-16.355 6.938a188 188 0 0 0-11.27 4.875c-8.725 4-17.795 7.37-27.418 4.69-6.348-2.679-8.808-7.454-11.77-13.378-.517-6.46.388-11.838 4.559-16.887C575.652 809.231 583.722 804 591 804q1.464-20.708 2.829-41.424.225-3.386.46-6.772c.214-3.163.406-6.326.586-9.491l.185-2.575c.294-5.837-.963-10.323-3.06-15.738a466 466 0 0 1-1.324-3.93c-4.318-12.58-9.004-25.205-15.176-37.008-2.985-5.717-5.23-11.75-7.559-17.757-1.574-4.03-3.212-7.945-5.187-11.797C561 654 561 654 561 652l-1.836.105c-13.172.426-24.924-5.025-34.918-13.418-3.992-3.893-7.413-7.883-10.246-12.687-4.696.582-9.033 1.521-13.562 2.875-19.248 5.31-38.594 5.55-58.438 5.125l-.321 1.785c-1.263 6.69-3.027 13.138-4.991 19.653-3.11 10.47-5.98 20.982-8.688 31.562.652.23 1.305.461 1.977.7 6.04 2.254 11.642 4.408 15.156 10.152.994 2.463 1.2 4.37 1.242 7.023l.086 2.492c-.646 3.69-2.087 5.752-4.461 8.633-2.82 1.652-2.82 1.652-6.125 2.938l-1.833.73q-1.97.78-3.95 1.535a518 518 0 0 0-6.451 2.52c-4.535 1.79-9.086 3.539-13.641 5.277l-2.04.781a789 789 0 0 1-23.647 8.594c-9.713 3.366-19.308 7.008-28.9 10.7-11.442 4.389-22.947 8.612-34.451 12.836a6134 6134 0 0 0-8.378 3.09l-7.872 2.9q-2.846 1.05-5.691 2.104c-6.2 2.28-12.413 4.471-18.693 6.518-5.587 1.84-10.982 3.936-16.388 6.249-5.198 2.171-10.506 4.035-15.815 5.915l-3.604 1.282a1761 1761 0 0 1-27.771 9.531l-1.924.647c-22.575 7.573-22.575 7.573-31.451 4.665-5.473-2.939-9.56-6.125-12.375-11.812-.758-5.457-1.326-11.833 1.813-16.625L175 774l1.215-1.469C183.155 766.578 201.899 760 211 760l-.027-2.742q-.12-12.843-.18-25.685-.03-6.602-.095-13.202a1625 1625 0 0 1-.078-12.76 545 545 0 0 0-.043-4.85c-.115-8.924.032-16.72 4.423-24.761l1.342-2.46c1.33-2.363 2.732-4.67 4.158-6.977l1.573-2.584c4.69-7.674 9.502-15.272 14.325-22.862A345 345 0 0 0 242 632c7.26-12.243 15.008-24.223 23-36-1.36-3.018-2.922-5.162-5.187-7.562C241.385 567.678 239.53 543.424 238 517l-2.257-.577-2.977-.782-2.945-.765c-8.045-2.498-15.239-8.232-19.333-15.595-3.42-7.292-4.638-13.319-4.633-21.37l-.01-2.426q-.013-3.963-.013-7.926l-.01-5.543q-.009-5.81-.007-11.623c0-4.936-.014-9.873-.031-14.81q-.015-5.727-.013-11.456 0-2.727-.013-5.455c-.099-25.5-.099-25.5 5.367-35.297C214 378.134 214 378.134 214 376l-1.873-.7C174.857 361.3 174.857 361.3 168 350c-1.13-4.264-1.193-8.515-1.238-12.898l-.025-2.283q-.02-2.383-.032-4.765a435 435 0 0 0-.062-4.847 507 507 0 0 1-.069-7.043l-.053-2.163c.024-5.539 1.44-8.54 4.479-13.001 4.584-4.147 7.001-5.128 13.125-5.062l3.32.027L190 298l-.016-2.228q-.029-5.073-.047-10.147l-.025-3.504c-.06-21.322-.06-21.322 7.088-29.121 2.735-2.105 5.435-4 9-4v-14l-3.425 1.177q-6.294 2.164-12.59 4.322l-5.448 1.871q-3.916 1.347-7.834 2.689l-2.456.846-2.305.788-2.018.693c-16.266 5.19-33.147.168-48.924-4.386l-2.089-.596q-4.194-1.2-8.38-2.427c-4.216-1.166-8.459-2.17-12.719-3.165a1682 1682 0 0 1-27.762-6.78 1111 1111 0 0 0-4.687-1.17C46.09 224.09 46.09 224.09 41 219c-.435-4.419-.55-6.9 1.438-10.875 5.384-4.465 13.426-4.472 20.207-4.961l2.482-.19c2.71-.202 5.42-.389 8.13-.572l2.88-.197c22.658-1.517 45.303-1.7 68.005-1.651 5.713.012 11.425-.01 17.139-.038 4.464-.018 8.928-.018 13.393-.012q3.165 0 6.332-.019c2.913-.014 5.826-.004 8.74.013l2.587-.029c5.491.068 8.387 1.052 12.667 4.531l.563-2c4.078-8.511 10.891-13.357 19.437-17 10.37-2.526 18.92-.192 27.691 5.855m-24.883 15.694c-2.451 3.323-2.331 6.205-2.234 10.174l.01 2.248q.015 2.346.06 4.692c.043 2.395.06 4.788.073 7.183q.02 2.282.045 4.564l.022 2.169c.059 3.065.24 5.491 1.216 8.421q3.719.04 7.438.063l2.142.025c1.807.009 3.614-.036 5.42-.088 1.861-1.861 1.167-4.505 1.19-6.982-.008-7.518-.172-14.972-.94-22.455l-.187-2.13c-.384-3.258-.92-5.245-2.922-7.874-3.75-2.73-7.56-2.675-11.333-.01M785 208c-1.949 3.154-2.355 5.875-2.633 9.543l-.254 3.256-.238 3.388-.262 3.33c-.464 6.175-.806 12.291-.613 18.483 1 1 1 1 4.598 1.098q2.232-.01 4.465-.036l2.298-.013q2.82-.02 5.639-.049c.973-7.958 1.247-15.862 1.313-23.875l.087-3.664.026-3.516.044-3.171c-.59-3.485-1.693-4.651-4.47-6.774-3.87-.484-6.786-.296-10 2m-573 59c-.928 3.712-1.116 6.505-1.098 10.297l.008 3.292.028 4.161L211 298h47v-31zm555 0c-.58 4.819-1.126 9.577-1.133 14.438l-.004 2.769.012 2.793-.012 2.887.004 2.738.004 2.477C766 297 766 297 767 298c1.474.093 2.952.117 4.428.114h2.851l3.1-.016 3.157-.005c3.342-.005 6.684-.018 10.027-.03q3.39-.008 6.779-.014 8.329-.017 16.658-.049.037-6.381.055-12.762.008-2.173.02-4.345c.013-2.078.018-4.155.023-6.233l.016-3.793C814 268 814 268 813 267a65 65 0 0 0-4.336-.114h-2.79l-3.034.016-3.09.005c-3.27.005-6.542.018-9.812.03q-3.318.008-6.635.014-8.152.017-16.303.049m-379 18-3.267.718c-2.541.586-5.039 1.252-7.546 1.97l-2.734.768c-15.467 4.458-30.411 9.947-44.606 17.562a264 264 0 0 1-5.53 2.841C303.307 319.533 280.492 334.188 266 353v1l2.962.163c82.98 4.567 82.98 4.567 117.378 6.722q3.789.237 7.579.464c25.375 1.532 49.149 3.857 72.8 13.71 4.701 1.94 9.428 3.817 14.156 5.691l2.918 1.178c14.082 5.577 26.705 6.464 41.52 2.822l3.304-.791c40.831-10.097 81.463-23.486 120.59-38.87 3.622-1.413 7.267-2.752 10.918-4.089 11.735-4.378 23.292-9.238 34.875-14v-4a47 47 0 0 0-5.5-4.625l-1.758-1.306c-45.952-33.566-98.98-35.21-153.858-35.27q-3.916-.004-7.833-.01-12.323-.022-24.647-.028-14.102-.007-28.205-.05-10.995-.034-21.992-.034-6.527 0-13.054-.025c-34.6-.136-34.6-.136-50.153 3.348m286.52 80.785-3.234.598-3.473.68-3.658.704c-3.722.728-7.439 1.477-11.155 2.233l-3.18.637c-18.316 3.73-36 9.293-53.813 14.872C578.742 390.905 561.392 396.027 544 401l-2.083.599c-20.304 5.82-39.587 8.61-59.917 1.401l-3.734-1.32c-4.955-1.802-9.86-3.728-14.761-5.667-24.866-9.826-48.002-13.088-74.59-14.704l-7.29-.455q-7.617-.475-15.235-.94-9.653-.592-19.305-1.197-7.526-.47-15.053-.935-3.553-.219-7.105-.441c-20.406-1.27-40.853-2.442-61.302-2.654l-2.992-.087c-9.263-.08-18.264 2.095-25.137 8.638-6.754 7.954-8.799 17.087-8.787 27.27l-.02 2.452c-.019 2.65-.023 5.3-.025 7.95l-.02 5.565q-.017 5.816-.015 11.633c0 4.958-.027 9.916-.061 14.875a1884 1884 0 0 0-.025 11.481 762 762 0 0 1-.027 5.484c-.02 2.558-.014 5.115-.002 7.673l-.034 2.266c.065 5.442 1.458 8.604 4.52 13.113 2.187 2 2.187 2 5 3 2.243-.121 2.243-.121 4.676-.437l2.454-.31L245 495l.424-1.674c4.372-16.968 9.583-32.178 21.576-45.326l1.531-1.809c12.564-13.877 33.137-23.26 51.678-24.317 27.441-.898 47.51 7.736 67.943 26.056 20.993 20.036 33.26 48.652 36.848 77.07 18.666 4.548 38.234 5.222 57.375 5.813l2.334.082c15.491.526 29.749-1.319 44.666-5.707l2.11-.61c17.24-4.995 34.31-10.564 51.39-16.078l2.089-.674a2655 2655 0 0 0 55.588-18.633c8.75-3.027 17.524-5.985 26.293-8.956q5.084-1.724 10.165-3.455c19.123-6.507 19.123-6.507 28.422-9.578 3.277-1.083 6.55-2.176 9.824-3.271q2.217-.737 4.44-1.457a579 579 0 0 0 6.023-1.996l3.342-1.096c5.585-2.63 8.746-6.684 10.939-12.384.34-3.435.34-3.435.293-7.148l-.013-1.993a598 598 0 0 0-.092-6.234q-.024-2.127-.042-4.254c-.032-3.457-.084-6.914-.146-10.371-3.94 1.517-7.259 3.335-10.812 5.625-29.374 18.47-29.374 18.47-38.547 16.996L689 439q-.478-3.061-.937-6.125l-.528-3.445c-1.804-13.858-1.828-27.856-2.097-41.805l-.131-6.312q-.159-7.657-.307-15.313c-3.808-.97-6.63-.938-10.48-.215M272.75 473.687c-13.324 17.691-17.05 38.507-14.062 60.313 3.619 18.765 12.562 35.823 26.312 49l2.125 2.078c14.03 13.012 31.947 17.458 50.742 17.129 12.813-.483 23.978-5.032 33.32-13.894 17.12-18.509 23.803-39.13 22.945-64.034-1.4-24.207-13.201-46.674-31.007-63.029-29.588-24.47-66.66-14.968-90.375 12.438M449 550l-.309 3.519c-1.52 16.788-6.88 31.713-17.59 44.922C430 600 430 600 430 602c22.764 9.152 50.454 12.042 73.695 3l2.305-1 2.27-.691C510 602 510 602 510.504 598.91l.058-3.847c.407-10.223 2.845-18.252 7.313-27.375l.992-2.032c1.69-3.307 3.44-6.148 5.89-8.949C527 554 527 554 527 551l-2.023.007q-10.588.032-21.176.048-3.933.008-7.864.02c-15.68.051-31.284-.119-46.937-1.075m204.125 8.625-2.056.825c-5.031 2.052-9.845 4.403-14.67 6.902-5.258 2.55-10.664 4.74-16.078 6.933l-2.391.98-2.15.869C614 576 614 576 612 578c-.042 2.897.014 5.734.125 8.625.247 13.372-1.97 28.746-11.48 38.887l-2.52 2.55c-3.975 4.226-3.975 4.226-4.621 7.286.366 4.543 2.08 8.265 4.266 12.25 1.575 3.075 2.84 6.253 4.105 9.465l.772 1.955q.787 1.996 1.57 3.994c1.248 3.168 2.516 6.328 3.783 9.488q2.274 5.676 4.535 11.355c7.402 18.585 7.402 18.585 11.485 27.645l1.082 2.407a862 862 0 0 0 2.132 4.688l.996 2.206.888 1.942c5.302 13.564 2.793 28.261.882 42.32q-.434 3.26-.856 6.523a1195 1195 0 0 1-.777 5.844c-.365 3.551-.431 7.003-.367 10.57 7.066-1.449 13.458-4.124 20.085-6.937 3.234-1.373 6.477-2.728 9.72-4.083l1.913-.8a340 340 0 0 1 14.407-5.617c5.185-1.897 10.18-4.007 15.176-6.352 2.985-1.34 6.01-2.5 9.074-3.649 5.499-2.076 10.786-4.453 16.102-6.957 4.01-1.827 8.066-3.508 12.148-5.168 5.637-2.292 11.203-4.68 16.727-7.238 4.83-2.187 9.742-4.187 14.648-6.199-2.538-16.174-6.81-32.143-11.38-47.85a601 601 0 0 1-1.835-6.545q-.61-2.115-1.222-4.23l-1.06-3.727c-1.866-4.528-4.453-7.855-7.503-11.648a956 956 0 0 1-3.27-4.277l-1.727-2.267c-8.805-11.61-17.005-23.585-25.13-35.677-2.433-3.61-4.898-7.197-7.373-10.779-4.655-6.75-9.266-13.53-13.875-20.312l-2.194-3.223a2578 2578 0 0 1-10.341-15.293l-1.813-2.69a886 886 0 0 1-3.343-4.997l-1.493-2.208-1.29-1.93L662 556c-3.187 0-5.956 1.448-8.875 2.625m-111.594 9.324c-7.904 10.587-9.63 22.123-8.531 35.051 1.481 6.261 3.938 11.99 8 17h2v2c7.572 3.768 13.605 6.09 22 3.938 7.824-2.653 14.49-8.008 19-14.938 5.1-10.365 8.025-20.635 4.746-32.031-2.957-7.803-8.435-13.956-15.687-18.07-11.085-4.793-23.48-1.813-31.528 7.05m-174.327 50.728c-23.18 8.28-45.99 6.258-69.204-.677-2.927 3.874-5.428 7.702-7.676 12.008-3.404 6.3-7.326 12.163-11.387 18.054l-2.26 3.3a959 959 0 0 1-22.888 31.935l-1.551 2.083a506 506 0 0 1-2.902 3.853c-3.537 4.74-4.465 7.89-4.45 13.72v2.971l.016 3.185.005 3.279c.005 3.454.018 6.908.03 10.362q.008 3.513.014 7.027.017 8.611.049 17.223 2.375-.705 4.749-1.415l2.671-.795c3.65-1.117 7.237-2.38 10.83-3.665a1829 1829 0 0 1 20.727-7.191l2.423-.826 4.959-1.688c13.761-4.688 27.487-9.446 41.122-14.492 3.675-1.354 7.359-2.686 11.041-4.02 4.496-1.628 8.987-3.267 13.478-4.908l2.338-.852A713 713 0 0 0 373 702l3.32-1.27 2.993-1.23 2.55-1.031c5.106-3.51 6.16-10.62 7.625-16.32l.684-2.589c.72-2.727 1.43-5.456 2.14-8.185q1.394-5.333 2.801-10.664l.7-2.66c1.943-7.307 4.09-14.545 6.343-21.763l.731-2.371.652-2.08C404 630 404 630 404 627q-6.352-2.142-12.708-4.272-2.162-.727-4.324-1.456-3.104-1.045-6.21-2.085l-3.777-1.269c-4.053-1.248-5.835-.663-9.777.759" id="svg-layer-1" style="pointer-events: all;"/><path fill="#F0E1BE" d="m685 366 .06 3.75c.963 58.159.963 58.159 3.94 69.25 4.09 1.69 6.816.188 10.75-1.437 11.886-4.937 23.234-10.556 33.91-17.77C737.813 417 737.813 417 740 417q.112 6.244.165 12.488.022 2.121.061 4.242c.037 2.04.054 4.08.067 6.122l.048 3.713c-.628 6.332-3.495 10.429-8.341 14.435a71 71 0 0 1-7.7 2.953l-2.323.78c-2.55.853-5.107 1.685-7.664 2.517q-2.719.903-5.434 1.811-5.838 1.949-11.682 3.88c-9.647 3.196-19.262 6.485-28.881 9.763q-4.894 1.667-9.79 3.328c-9.214 3.13-18.426 6.264-27.608 9.488-29.29 10.278-58.857 19.926-88.605 28.793l-2.19.656c-19.96 5.965-38.187 9.507-59.186 8.843l-2.095-.06c-11.987-.37-23.865-1.405-35.78-2.752-.795-.09-1.59-.18-2.41-.271-13.213-1.51-13.213-1.51-15.652-2.729-.5-2.486-.896-4.93-1.25-7.437C418.5 484.955 400.325 455.77 374 436c-17.796-12.63-38.58-16.208-59.945-13.5C291.29 426.982 271.16 439.724 258 459c-6.441 11.18-10.06 23.507-13 36-4.71.963-7.916 1.502-12.375-.562-3.96-3.678-5.471-6.884-6.006-12.281q-.027-2.195-.007-4.39l-.016-2.437c-.013-2.647-.005-5.293.006-7.94q-.003-2.774-.01-5.552-.005-5.815.017-11.63c.017-4.947.007-9.894-.01-14.84-.012-3.824-.008-7.647 0-11.47q.004-2.733-.008-5.468c-.04-13.15.254-25.044 9.409-35.43 8.054-6.851 16.06-8.349 26.375-8.25l3.279.02c30.669.364 61.315 2.736 91.908 4.768 22.88 1.517 22.88 1.517 33.086 2.024C414.5 382.753 436.71 385.05 459 394l2.59 1.035c3.46 1.385 6.918 2.774 10.37 4.18C497.003 409.34 518.24 408.4 544 401l1.953-.559c15.64-4.478 31.194-9.244 46.735-14.054 40.19-12.421 40.19-12.421 60.312-16.387l3.599-.73c3.735-.752 7.473-1.485 11.213-2.207l3.476-.68 3.232-.598 2.846-.535c2.78-.264 4.94.064 7.634.75" id="svg-layer-2" style="pointer-events: all;"/><path fill="#F1E1BE" d="m422.958 281.741 4.605-.01c4.127-.01 8.254-.006 12.382 0 4.368.005 8.737 0 13.106-.002q11.027-.005 22.054.01 12.61.015 25.219-.003 10.933-.014 21.867-.006 6.48.007 12.962-.003c16.996-.022 33.938.152 50.908 1.176l2.033.12C628.395 285.47 665.044 297.515 696 324c-1 3-1 3-3.259 4.223l-3.007 1.195-3.355 1.35-3.629 1.42-3.705 1.477a1477 1477 0 0 1-27.264 10.522 357 357 0 0 0-8.812 3.438C605.957 362.618 566.702 374.272 528 384l-2.225.573c-19.582 4.996-34.873.74-52.877-7.142-11.685-5.116-23.012-9.322-35.586-11.681l-2.421-.458c-16.856-2.884-34.153-3.598-51.204-4.604l-5.978-.361C340.48 358.097 303.24 356.072 266 354c15.13-25.892 50.805-42.23 77-54l3.379-1.547c24.44-10.708 49.912-16.793 76.58-16.712" id="svg-layer-3" style="pointer-events: all;"/><path fill="none" d="M662 556c1.214 1.443 1.214 1.443 2.582 3.488l1.556 2.303 1.674 2.521 3.532 5.243 1.832 2.733c2.85 4.237 5.745 8.441 8.636 12.65 3.412 4.976 6.801 9.964 10.125 15 4.19 6.323 8.566 12.513 12.93 18.716 3.11 4.43 6.175 8.875 9.133 13.409 3.504 5.308 7.232 10.439 11 15.562l1.845 2.51c3.14 4.24 6.355 8.35 9.78 12.365 6.128 7.556 8.052 17.478 10.375 26.75l1.555 6.082.749 2.948c.911 3.56 1.863 7.109 2.821 10.658a1339 1339 0 0 1 4.125 15.812l.532 2.062c.71 2.818 1.218 5.268 1.218 8.188l-1.781.715c-19.752 7.949-19.752 7.949-28.157 11.972-5.499 2.626-11.045 4.964-16.716 7.183a194 194 0 0 0-10.971 4.692c-4.863 2.259-9.814 4.179-14.844 6.032-2.932 1.167-5.764 2.423-8.625 3.75-7.272 3.337-14.748 6.094-22.234 8.906-5.294 2.007-10.486 4.087-15.61 6.5-3.693 1.723-6.95 2.917-11.062 3.25.415-7.873 1.177-15.653 2.145-23.475 2.505-20.4 2.627-34.681-6.372-53.568-2.778-6.03-5.073-12.271-7.438-18.472-1.813-4.724-3.704-9.371-5.827-13.965-3.052-6.606-5.614-13.38-8.201-20.178-1.941-5.04-4.022-9.873-6.493-14.673-1.71-3.508-2.462-6.8-1.814-10.669 1.484-1.99 3.149-3.45 5.023-5.074 7.678-7.48 11.76-20.49 12.977-30.926-.009-4.094-.169-8.188-.39-12.275-.06-2.331-.05-4.435.39-6.725 2.078-1.89 2.078-1.89 5-3l3.25-1.473q1.874-.798 3.75-1.59c7.712-3.303 15.274-6.887 22.816-10.56C657.945 556 657.945 556 662 556M383 620c2.744.928 5.498 1.826 8.251 2.726 4.26 1.395 8.505 2.834 12.749 4.274-1.684 9.697-4.526 19.013-7.312 28.438a5040 5040 0 0 0-2.864 9.746l-.711 2.424c-1.966 6.751-3.756 13.543-5.449 20.368-.879 3.458-1.666 6.028-3.664 9.024-7.679 4.469-16.275 7.25-24.648 10.112-8.394 2.871-16.703 5.956-25.009 9.073-9.197 3.435-18.457 6.678-27.729 9.905q-6.36 2.217-12.72 4.445l-5.04 1.764-2.519.88-15.083 5.276c-4.073 1.425-8.141 2.86-12.204 4.314l-2.38.85q-2.23.796-4.456 1.6C247.222 747 247.222 747 245 747q-.112-10.275-.165-20.55-.022-3.494-.061-6.987c-.037-3.354-.054-6.707-.067-10.06l-.047-3.14c-.002-7.45 1.122-12.805 5.8-18.814l1.408-1.836c.498-.635.995-1.27 1.507-1.926q1.629-2.13 3.254-4.265l1.692-2.213c12.421-16.34 23.93-33.389 34.383-51.054 1.675-2.785 3.461-5.473 5.296-8.155l1.844.55c20.3 5.822 42.6 9.045 62.906 1.366 7.869-2.958 12.392-3.017 20.25.084" id="svg-layer-4" style="pointer-events: all; fill: none;"/><path fill="#E27408" d="m356 456 2.555 1.852c19.006 14.5 31.584 36.403 35.004 60.003C396.123 539.7 392.314 561.125 379 579c-9.882 12.459-20.73 20.97-37 23-20.7 1.49-39.043-3.461-55-17-15.133-13.401-26.935-34.323-28.871-54.75-1.263-22.04 2.106-41.952 16.883-59.082L277 469l1.895-2.137C297.866 446.578 332.635 438.96 356 456m-64.195 24.262c-2.07 2.505-3.96 5.064-5.805 7.738l-1.723 2.445c-8.23 12.579-9.106 27.855-6.62 42.395 4.52 17.32 13.656 33.922 29.343 43.16 10.945 5.348 23.036 6.868 34.95 3.754 3.74-1.375 6.849-3.41 10.05-5.754l1.738-1.168c11.085-8.281 16.994-22.769 19.012-36.02L373 533l.156-2.285c.598-15.709-6.529-30.046-15.156-42.715l-2-3h-2l-.816-1.816c-4.13-7.62-13.21-11.184-21.04-13.805-14.3-2.527-29.94.168-40.34 10.883" id="svg-layer-5" style="pointer-events: all;"/><path fill="#002342" d="M347.273 476.703c2.548 1.914 4.64 3.883 6.727 6.297v2h2a87 87 0 0 1 4.25 6.125l1.211 1.905c9.588 15.487 13.65 30.813 10.281 48.833-3.433 14.51-10.91 27.108-23.742 35.137-9.81 5.397-22.049 5.387-32.625 2.438C299.391 573.904 290.374 562.837 283 548c-6.086-14.891-8.895-31.275-4.246-47.09 5.657-13.211 14.38-24 27.555-29.953 13.973-5.019 28.819-2.351 40.964 5.746m-40.164 22.524c-6.133 8.902-7.116 17.142-6.109 27.773 2.02 10.534 6.472 21.109 15.156 27.813 5.436 3.5 10.275 4.82 16.723 3.847 3.519-1.095 5.536-3.075 8.121-5.66-2.347-2.56-4.876-4.227-7.812-6.062-8.088-5.636-11.808-13.335-13.836-22.856-.868-7.607.347-13.914 4.96-20.082 2.643-3.063 5.511-5.497 8.688-8v-3c-9.275-5.252-19.3-1.535-25.89 6.227" id="svg-layer-6" style="pointer-events: all;"/><path fill="#D26B08" d="m449 550 3.546.217c15.758.891 31.487.898 47.267.846q3.975-.009 7.95-.014 9.62-.017 19.237-.049c-.775 3.52-1.989 5.559-4.187 8.438-9.685 13.51-12.005 26.414-12.813 42.562-23.95 11.535-50.678 9.984-75.594 1.867C432 603 432 603 430 602c1.31-3.648 2.91-6.422 5.25-9.5 9.181-12.911 12.748-26.88 13.75-42.5" id="svg-layer-7" style="pointer-events: all;"/><path fill="#D36B08" d="M577 563c6.486 5.055 10.716 10.97 12.75 18.938L590 585l.191 1.914c.595 10.543-3.404 21.098-10.191 29.086-5.907 6.16-12.24 10.485-21 11-5.835-.697-10.874-2.032-16-5v-2h-2c-1.437-1.941-1.437-1.941-3-4.562l-1.562-2.567c-4.974-9.933-4.757-21.27-1.813-31.808 2.969-8.52 8.102-15.696 16.18-20.032 8.86-3.843 17.921-2.844 26.195 1.969m-23 23c-2.703 4.226-3.91 9.014-4 14 2.183 4.365 4.439 7.175 9 9 4.946.824 8.046.583 12.375-2.062 3.472-3.886 5.516-7.074 5.719-12.399-.332-5.52-1.427-9.225-5.094-13.539-7.498-4.998-12.825-.969-18 5" id="svg-layer-8" style="pointer-events: all;"/><path fill="#D46B08" d="M767 267q9.8-.037 19.598-.055 3.337-.008 6.673-.02c3.19-.013 6.38-.018 9.569-.023l3.033-.015h2.79l2.47-.007C813 267 813 267 814 268c.088 2.219.107 4.44.098 6.66l-.005 2.014c-.005 2.13-.018 4.259-.03 6.389q-.008 2.16-.014 4.322-.017 5.308-.049 10.615-10.012.037-20.026.055-3.408.008-6.818.02c-3.259.013-6.518.018-9.777.023l-3.1.015h-2.851l-2.523.007C767 298 767 298 766 297a66 66 0 0 1-.133-4.375l-.004-2.738.012-2.887-.012-2.793.004-2.77.004-2.503c.176-4.003.65-7.958 1.129-11.934M212 267h46v31h-47l-.062-13.25-.028-4.161-.008-3.292-.016-3.364C211 271 211 271 212 267" id="svg-layer-9" style="pointer-events: all;"/><path fill="#5170a1" d="m324 490.75 2.563-.016c2.572.28 4.217.971 6.437 2.266-.559 3.472-1.535 4.77-4.312 6.875-6.163 5.102-8.476 10.025-9.56 17.906-.365 9.148 3.027 18.21 8.872 25.219 2.485 2.051 5 3.82 7.73 5.527 2.058 1.336 3.62 2.673 5.27 4.473-3.965 3.965-6.901 5.888-12.574 6.184-6.878-.52-12.012-3.298-16.738-8.246-8.88-10.908-12.012-24.129-10.97-37.955 1.017-7.165 4.758-13.207 10.407-17.608 1.945-1.29 1.945-1.29 3.875-2.375l1.93-1.133c2.482-1.04 4.385-1.133 7.07-1.117" id="svg-layer-10" style="pointer-events: all; fill: rgb(81, 112, 161);"/><path fill="#E77708" d="M795 206c2.786 2.117 3.88 3.287 4.47 6.774l-.044 3.171-.026 3.516-.087 3.664-.03 3.594c-.086 6.808-.457 13.522-1.283 20.281q-3.97.04-7.937.063l-2.288.025A183 183 0 0 1 782 247c-1-1-1-1-1.053-3.342.113-3.365.232-6.73.365-10.095l.108-3.49c.677-17.825.677-17.825 4.027-21.782 3.127-2.599 5.551-2.691 9.553-2.291M237 206c3.11 2.265 3.92 3.668 4.828 7.441q.242 2.058.422 4.121l.228 2.22c.802 8.701.923 17.49.522 26.218-1 1-1 1-4.379 1.098q-2.091-.01-4.184-.036l-2.154-.013q-2.64-.02-5.283-.049c-1.191-3.574-1.2-6.867-1.238-10.59l-.025-2.245q-.02-2.349-.032-4.698a640 640 0 0 0-.105-7.176q-.015-2.285-.026-4.568l-.053-2.163c.015-3.395.248-5.247 2.287-8.011 3.206-2.266 5.364-2.096 9.192-1.549" id="svg-layer-11" style="pointer-events: all;"/><path fill="#002342" d="M569 579c4.294 2.342 6.085 5.265 7.559 9.785 1.078 5.409.215 9.774-2.371 14.59-4.466 5.358-4.466 5.358-8.231 5.941-5.467.284-8.732-.594-12.957-4.316-2-2.125-2-2.125-3-5 .429-7.755 3.211-13.513 8.813-18.875 3.837-2.559 5.66-2.866 10.187-2.125" id="svg-layer-12" style="pointer-events: all;"/></svg>