<svg xmlns="http://www.w3.org/2000/svg" viewBox="0 0 2048 2048">
<rect width="100%" height="100%" fill="none"/>
<path fill="#02273D" d="M 1585 154 L 1556 142 L 1473 145 L 1449 160 L 1434 188 L 1398 1176 L 1343 1166 L 1340 882 L 1150 735 L 777 779 L 775 1035 L 231 1081 L 233 1287 L 133 1307 L 133 1794 L 865 1854 L 1915 1788 L 1915 1283 L 1641 1225 L 1607 194 L 1599 170 Z"/>
<path fill="#F6E8C9" d="M 1389 1460 L 1388 1461 L 1388 1597 L 1475 1597 L 1476 1596 L 1476 1564 L 1477 1563 L 1476 1562 L 1476 1460 Z M 1646 1460 L 1645 1460 L 1644 1459 L 1643 1460 L 1632 1460 L 1631 1459 L 1619 1459 L 1618 1460 L 1617 1459 L 1607 1459 L 1606 1460 L 1605 1459 L 1601 1459 L 1600 1460 L 1555 1460 L 1554 1461 L 1554 1462 L 1555 1463 L 1555 1471 L 1554 1472 L 1554 1500 L 1555 1501 L 1555 1506 L 1554 1507 L 1554 1515 L 1555 1516 L 1555 1517 L 1554 1518 L 1554 1521 L 1555 1522 L 1555 1524 L 1554 1525 L 1554 1533 L 1555 1534 L 1555 1573 L 1554 1574 L 1554 1577 L 1555 1578 L 1555 1584 L 1554 1585 L 1554 1587 L 1555 1588 L 1555 1589 L 1554 1590 L 1554 1594 L 1555 1595 L 1555 1596 L 1556 1597 L 1563 1597 L 1564 1596 L 1573 1596 L 1574 1597 L 1575 1597 L 1576 1596 L 1603 1596 L 1604 1595 L 1605 1595 L 1606 1596 L 1607 1595 L 1644 1595 L 1645 1594 L 1645 1593 L 1644 1592 L 1644 1591 L 1645 1590 L 1645 1504 L 1646 1503 L 1646 1480 L 1647 1479 L 1647 1473 L 1646 1472 Z M 1722 1459 L 1722 1593 L 1723 1594 L 1780 1594 L 1781 1593 L 1782 1594 L 1783 1594 L 1784 1593 L 1787 1593 L 1788 1594 L 1789 1593 L 1791 1593 L 1792 1594 L 1800 1594 L 1801 1593 L 1804 1593 L 1805 1594 L 1808 1594 L 1809 1593 L 1812 1593 L 1813 1594 L 1814 1594 L 1816 1592 L 1816 1588 L 1815 1587 L 1815 1562 L 1816 1561 L 1816 1560 L 1815 1559 L 1815 1558 L 1816 1557 L 1816 1554 L 1815 1553 L 1815 1552 L 1816 1551 L 1816 1547 L 1815 1546 L 1815 1514 L 1816 1513 L 1816 1510 L 1815 1509 L 1816 1508 L 1816 1505 L 1815 1504 L 1815 1458 L 1813 1458 L 1812 1459 L 1811 1458 L 1802 1458 L 1801 1459 L 1795 1459 L 1794 1458 L 1785 1458 L 1784 1459 L 1781 1459 L 1780 1458 L 1776 1458 L 1775 1459 L 1770 1459 L 1769 1458 L 1767 1458 L 1766 1459 L 1740 1459 L 1739 1458 L 1731 1458 L 1730 1459 Z M 830 1214 L 828 1212 L 819 1212 L 791 1218 L 779 1219 L 778 1217 L 772 1218 L 778 1218 L 778 1220 L 747 1224 L 723 1230 L 693 1232 L 702 1232 L 700 1234 L 689 1233 L 691 1234 L 689 1236 L 681 1236 L 678 1238 L 668 1239 L 667 1237 L 663 1238 L 667 1238 L 667 1240 L 650 1242 L 648 1244 L 640 1244 L 627 1248 L 612 1248 L 617 1249 L 597 1254 L 589 1254 L 587 1256 L 571 1256 L 579 1256 L 577 1258 L 560 1260 L 548 1264 L 533 1264 L 539 1263 L 538 1266 L 523 1266 L 528 1267 L 502 1272 L 500 1274 L 490 1273 L 492 1274 L 490 1276 L 474 1278 L 472 1280 L 462 1279 L 464 1280 L 462 1282 L 427 1288 L 407 1294 L 399 1294 L 388 1298 L 377 1297 L 372 1298 L 377 1297 L 377 1300 L 362 1300 L 368 1301 L 340 1308 L 325 1308 L 330 1309 L 292 1318 L 285 1318 L 283 1320 L 276 1320 L 274 1322 L 267 1322 L 265 1324 L 247 1327 L 245 1325 L 240 1326 L 244 1326 L 244 1328 L 235 1327 L 235 1330 L 217 1332 L 214 1334 L 202 1333 L 197 1334 L 203 1333 L 203 1336 L 192 1335 L 194 1336 L 192 1338 L 173 1340 L 172 1728 L 175 1758 L 171 1758 L 177 1760 L 206 1759 L 210 1761 L 226 1761 L 229 1763 L 275 1765 L 281 1767 L 297 1767 L 301 1769 L 319 1769 L 322 1771 L 343 1771 L 349 1773 L 416 1777 L 420 1779 L 510 1785 L 514 1787 L 535 1787 L 537 1789 L 532 1790 L 558 1789 L 561 1791 L 584 1791 L 588 1793 L 604 1793 L 605 1796 L 608 1796 L 607 1794 L 631 1795 L 636 1797 L 656 1797 L 662 1799 L 702 1801 L 707 1803 L 795 1809 L 797 1811 L 792 1812 L 802 1810 L 827 1813 L 829 1809 L 828 1711 L 830 1708 L 828 1697 L 828 1505 L 830 1500 L 828 1472 L 828 1392 L 830 1388 L 828 1380 L 828 1361 L 830 1358 L 830 1346 L 828 1341 L 830 1339 L 828 1337 L 828 1324 L 830 1321 L 828 1321 L 830 1316 L 830 1304 L 828 1303 L 830 1285 L 828 1281 L 830 1264 L 828 1264 L 828 1247 L 830 1238 L 828 1237 L 828 1215 Z"/>
<path fill="#D56E0C" d="M 989 1432 L 988 1433 L 988 1806 L 988 1804 L 989 1803 L 990 1804 L 990 1806 L 1000 1806 L 1001 1805 L 1017 1805 L 1020 1803 L 1022 1803 L 1023 1804 L 1034 1804 L 1035 1803 L 1070 1802 L 1071 1801 L 1088 1801 L 1089 1800 L 1103 1800 L 1104 1799 L 1121 1799 L 1122 1798 L 1157 1797 L 1158 1796 L 1174 1796 L 1175 1795 L 1197 1795 L 1202 1792 L 1202 1780 L 1203 1779 L 1203 1435 L 1204 1433 L 1204 1434 L 1202 1435 L 1200 1433 L 1201 1432 Z M 1467 285 L 1467 290 L 1466 291 L 1466 313 L 1465 314 L 1465 328 L 1466 329 L 1466 334 L 1465 335 L 1464 335 L 1464 356 L 1463 357 L 1463 381 L 1464 382 L 1464 383 L 1463 384 L 1462 384 L 1462 412 L 1461 413 L 1461 427 L 1462 428 L 1462 435 L 1463 436 L 1462 437 L 1580 437 L 1554 437 L 1553 436 L 1554 435 L 1579 435 L 1580 434 L 1581 435 L 1581 410 L 1579 407 L 1579 404 L 1580 403 L 1580 391 L 1579 390 L 1579 363 L 1578 362 L 1578 340 L 1577 339 L 1577 309 L 1576 308 L 1576 286 L 1575 285 L 1575 287 L 1574 288 L 1572 285 Z"/>
</svg>