<svg xmlns="http://www.w3.org/2000/svg" width="1024" height="1024"><path fill="none" d="M0 0h1024v1024H0zm450 130-3.023.76c-11.47 2.965-22.343 7.035-32.977 12.24l-2.538 1.24a697 697 0 0 0-8.212 4.135l-2.543 1.278c-5.026 2.625-9.103 5.516-13.422 9.202-6.987 5.353-12.62 4.94-21.098 4.083-2.753-.195-5.51-.353-8.265-.512l-2.06-.132c-30.01-1.83-61.706 7.405-87.862 21.706l-4.121 2.191c-8.529 4.6-16.31 9.726-23.879 15.809l-2.867 2.285C228.409 211.33 220.217 218.406 213 227l-2.457 2.762c-20.083 22.737-40.847 56.33-41.762 87.593-.192 5.96-.502 10.728-4.847 15.137-3.193 2.867-6.584 5.456-10.017 8.026-24.934 19.275-41.234 52.27-49.167 81.982l-.747 2.766c-3.35 13.112-4.388 26.243-4.315 39.734l.005 2.163c.156 36.582 8.63 76.893 31.787 106.243 1.961 4.637 1.444 7.9.899 12.838-2.01 19.924-1.803 41.436 3.621 60.756l.551 2.035c5.446 19.55 16.106 41.341 30.449 55.965h2l.719 1.703C175.947 717.87 190.278 727.402 201 734h2l.715 2.52c1.508 4.085 3.521 7.503 5.847 11.168l1.346 2.13c3.929 6.118 8.297 11.716 13.092 17.182l2.176 2.578c4.715 5.46 9.767 10.058 15.441 14.512 1.942 1.556 3.648 3.137 5.383 4.91-23.053 11.547-46.118 20.284-71 27l-2.618.707c-8.603 2.276-17.225 4.149-26.01 5.57l-2.015.327q-4.934.795-9.879 1.521c-18.152 2.794-18.152 2.794-23.478 8.813-4.054 6.207-5.004 11.735-4 19.062 2.038 5.146 4.888 8.7 10 11l2.367 1.082c14.102 4.917 38.63-4.264 52.695-7.77l2.702-.668C201.586 849.234 225.83 841.109 250 830l3.37-1.547c20.728-9.58 20.728-9.58 28.74-15.601 4.88-1.438 9.158.662 13.89 2.148 4.091 1.073 8.202 2.064 12.313 3.063l3.107.775c11.737 2.848 23.158 4.243 35.226 4.54 20.078.617 20.078.617 26.666 6.31A170 170 0 0 1 378 835c3.18 2.57 6.568 4.781 10 7l1.654 1.092c43.393 28.316 97.213 34.501 147.277 24.623 18.263-3.872 37.79-10.1 53.844-19.786 3.2-1.336 6.429-1.473 9.85-1.71l2.25-.18c2.375-.187 4.75-.364 7.125-.539 10.09-.758 20.052-1.556 30-3.5l2.738-.531C674.388 835.122 704.702 825.71 732 808l1.824 1.145c7.784 4.847 15.924 8.887 24.176 12.855l2.798 1.353c108.13 51.993 108.13 51.993 145.577 39.022 4.419-1.988 6.578-3.856 8.625-8.375 2.008-5.79 2.659-10.273 0-16-7.15-10.368-15.21-11.788-27.066-13.984l-4.568-.833c-15.733-2.882-31.09-6.396-46.366-11.183l-3.257-1.007C808.303 803.06 784.383 792.76 761 780l1.141-1.707c3.268-4.895 6.527-9.795 9.734-14.73l1.219-1.85C776 757.23 776 757.23 776 755l1.922-.375c35.73-7.896 70.793-31.355 91.27-61.762 14.234-22.535 26.017-49 25.808-76.148-.068-12.805 1.517-20.48 8.819-30.874 19.228-29.967 18.492-74.334 11.579-107.751-2.736-12.313-6.579-24.026-11.468-35.645l-.949-2.259C902 438 902 438 900.888 435.982c-3.799-7.201-3.457-14.67-3.45-22.607-.025-13.757-1.287-26.696-6.063-39.75l-.762-2.108C880.59 344.897 861.207 320.555 836 307l-3.5-1.344c-8.35-3.416-8.35-3.416-10.502-7.61-1.512-4.127-2.515-8.361-3.553-12.628-3.32-13.41-10.854-26-18.445-37.418l-1.984-3.016c-3.472-5.136-3.472-5.136-5.016-6.984h-2l-.738-1.7c-1.507-2.747-3.334-4.8-5.45-7.113l-2.23-2.457c-5.563-5.882-11.172-11.225-17.644-16.105l-2.248-1.702c-29.958-22.447-65.725-37.89-103.643-38.071l-2.355-.021a316 316 0 0 0-11.587.111c-7.133.092-12.203-.169-17.77-5.215A263 263 0 0 1 623 161c-15.326-12.905-35.372-22.289-54.375-28.062l-3.402-1.042c-10.275-3.061-20.63-5.274-31.223-6.896l-3.185-.524c-4.422-.552-8.765-.711-13.217-.785l-2.735-.046c-22.394-.307-43.111.79-64.863 6.355" id="svg-layer-0" style="pointer-events: all; fill: none;"/><path fill="#00263E" d="m504.75 123.563 2.898-.02c17.13-.07 33.481 1.768 50.04 6.27l2.924.783c21.902 6.016 50.853 16.636 65.947 34.22 3.638 3.953 6.504 5.558 11.954 5.896 2.895.07 5.783.066 8.679.014 3.92-.065 7.838-.008 11.757.047l2.357.03c15.154.265 30.34 3.395 44.694 8.197l3.39 1.082c9.34 3.13 17.93 7.322 26.61 11.918l1.993 1.03c20.016 10.392 38.9 25.273 53.007 42.97v2h2c7.677 9.364 13.387 20.328 19 31l1.531 2.89c2.083 4.247 3.528 8.189 4.395 12.837 2.933 14.327 2.933 14.327 9.59 18.761 3.393 1.933 6.868 3.556 10.441 5.125 5.36 2.356 9.599 5.617 14.043 9.387l2.715 2.266C875.18 338.536 888.549 360.349 895 387l.575 2.193c1.499 6.347 1.514 12.394 1.447 18.896-.13 15.77 2.53 27.083 9.742 41.284 16.826 35.76 16.927 83.603 4.32 120.597-3.36 9.326-8 21.946-15.084 29.03a76 76 0 0 0-.21 4.531l-.08 2.87-.085 3.099c-.37 10.093-1.406 19.656-3.625 29.5l-.483 2.247C886.549 663.894 876.242 685.45 861 703l-2.043 2.41c-19.664 22.602-48.847 43.318-78.965 48.504-2.228.463-2.228.463-3.992 1.086-1.29 2.191-1.29 2.191-2 5a216 216 0 0 1-4.375 6.938l-1.172 1.802A1118 1118 0 0 1 761 780c37.236 20.149 76.896 35.022 118.656 42.621l2.206.403c3.548.642 7.099 1.263 10.657 1.848l3.88.671 3.427.563c6.611 1.862 11.437 6.272 15.174 11.894 2.26 4.586 2.205 8.28.938 13.188-1.767 5.007-3.93 8.16-8.688 10.773-8.543 3.755-18.03 2.055-26.937.539l-3.095-.524C831.464 853.788 785.495 837.902 745 815q-3.123-1.724-6.25-3.437c-.85-.474-1.702-.947-2.578-1.434C734 809 734 809 731 808c-1.926 1.047-1.926 1.047-4.312 2.75-21.14 13.944-44.629 21.657-69.037 27.598a384 384 0 0 0-7.018 1.808c-15.564 3.978-32.131 5.289-48.147 6-7.217.354-12.456 1.605-18.798 5.032q-2.468 1.24-4.942 2.468l-2.434 1.219C532.938 875.98 477.389 877.762 432 863c-21.846-7.66-46.67-17.862-62.332-35.648-4.583-3.794-10.664-3.238-16.34-3.411-3.51-.111-7.016-.305-10.523-.492l-2.081-.106c-11.834-.63-23.156-3.14-34.661-5.843l-2.721-.637a113 113 0 0 1-13.404-4.113c-3.1-.836-4.444-.945-7.45.242a136 136 0 0 0-5.773 3.656c-4.563 3.008-9.47 5.272-14.402 7.602l-2.966 1.405C226.15 841.267 226.15 841.267 211 846l-2.018.632c-22.912 7.079-46.621 13.11-70.294 16.993l-2.976.499C127.887 865.3 120.925 865.407 114 861c-5.113-5.54-6.465-9.742-6.316-17.176.611-5.459 2.776-9.241 6.566-13.136 7.681-4.714 15.92-5.683 24.688-7 38.035-6 73.562-17.741 108.062-34.688q-1.928-1.778-3.86-3.554a2220 2220 0 0 1-3.31-3.05 187 187 0 0 0-8.893-7.708C219.7 764.893 209.134 749.523 203 736v-2l-2.156-.758C190.208 728.596 181.288 718.954 173 711l-2.375-2.23C169 707 169 707 169 705h-2a81 81 0 0 1-4.5-5.437l-1.333-1.751C142 672.04 131.28 642.25 131.719 610.051c.031-2.314.04-4.627.047-6.942.039-6.82.235-13.466 1.02-20.25.494-5.833-.556-8.81-4.099-13.359a354 354 0 0 1-2.785-4.066l-1.457-2.153C112.078 543.759 106.009 521.489 102 499l-.407-2.199C97.772 475.296 98.198 450.255 103 429l.504-2.247c7.364-31.52 23.144-58.582 45.496-81.753l1.855-1.977c2.525-2.626 4.796-4.806 7.91-6.742 4.857-3.204 8.199-5.85 9.43-11.672.667-4.322 1.057-8.675 1.486-13.026C173.67 279.284 193.118 249.896 214 226l2.191-2.566c4.276-4.945 8.76-9.29 13.809-13.434l1.59-1.325C255.124 189.118 282.173 174.371 312 167l3.32-.836c15.792-3.568 31.953-4.616 48.068-3.43 18.714 1.308 18.714 1.308 24.987-3.922q1.545-1.38 3.07-2.78c16.537-15.108 43.352-22.426 64.696-27.366q2.708-.629 5.401-1.312c14.276-3.582 28.576-3.746 43.208-3.791m-60 46.562-2.257.731c-3.458 1.192-6.218 2.187-8.493 5.144 2.165 2.165 3.128 2.483 6.008 3.262l2.467.693 2.65.732c7.436 2.106 14.413 4.549 21.233 8.216 4.71 2.325 8.264 2.097 13.413 1.45 6.627-.724 13.318-.641 19.979-.666l2.324-.01c11.719-.023 22.85.897 34.344 3.35l2.369.501q2.126.452 4.243.954c6.041 1.165 10.44-.796 15.97-3.17 7.975-3.255 15.724-5.715 24.14-7.523L586 183l1-2c-2.135-2.359-3.991-3.632-6.93-4.832l-2.377-.972-2.568-1.008-2.681-1.058C552.99 165.638 532.864 160.877 512 160l-2.691-.125c-21.909-.499-43.785 3.484-64.559 10.25M257 233l-1.799 1.432C248.554 239.78 242.226 245.213 237 252c-.41.531-.82 1.062-1.241 1.61C209 288.552 209 288.552 209 303c8.965-2.618 8.965-2.618 12.668-3.984 7.233-2.653 14.293-3.94 21.922-4.801 5.933-.769 5.933-.769 8.305-2.988L253 289c.425-.807.85-1.614 1.29-2.445l1.335-2.68c2.79-5.218 6.156-9.315 10.227-13.586C268 268 268 268 269.942 265.492c2.243-2.716 4.626-4.787 7.37-6.992l2.739-2.219c28.535-22.072 65.188-27.634 100.324-24.031l3.672.332C415.855 235.804 448.485 251.338 471 274l1.066-1.326C485.01 256.604 485.01 256.604 492 249c-1.348-4.044-4.035-5.55-7.375-7.937l-2.019-1.453C415.736 192.078 324.422 179.295 257 233m322-11-3.23 1.426C562.566 229.6 550.007 238.49 539 248l-2.398 2.066c-4.745 4.184-9.303 8.54-13.79 12.996-.474.47-.95.94-1.438 1.425C488 298.01 488 298.01 488 308c19.605 8 19.605 8 28 8a95 95 0 0 0 5.125-6.375c4.069-5.349 8.274-10.445 12.828-15.395a245 245 0 0 0 5.547-6.293c26.798-30.609 63.933-53.319 105.008-56.656 27.683-1.676 52.124.576 78.636 8.831 2.626.817 5.26 1.608 7.895 2.396 8.831 2.715 16.427 6.09 24.238 11.05L758 255l3-1c-3.776-4.898-7.877-8.546-12.812-12.25l-2.269-1.71C695.776 202.73 635.887 196.2 579 222m-234 45c.629 4.329 2.239 7.92 4.176 11.793l.973 1.983q1.035 2.11 2.078 4.216c1.847 3.734 3.672 7.479 5.5 11.223l1.113 2.279c5.242 10.748 10.223 21.615 15.16 32.506.516 1.138 1.033 2.276 1.564 3.45a3215 3215 0 0 1 9.826 21.922q1.56 3.514 3.127 7.026a1449 1449 0 0 1 41.71 104.43c1.581 4.442 3.175 8.88 4.765 13.32Q440.511 496.568 446 512c5.328-1.668 9.607-3.938 14.313-6.875l2.205-1.316 2.095-1.301 1.9-1.168c1.924-1.734 2.228-2.776 2.487-5.34-.399-2.206-.399-2.206-1.16-4.672l-.884-2.89-1.019-3.188-1.067-3.4c-5.55-17.419-11.723-34.635-17.87-51.85l-.762-2.138c-6.624-18.6-13.773-36.952-21.178-55.25-2.677-6.628-5.295-13.279-7.908-19.932-8.528-21.668-17.231-42.998-27.726-63.791-2.576-5.217-4.9-10.543-7.208-15.883-2.132-4.92-2.132-4.92-3.218-6.006-2.52-.088-5.014-.115-7.535-.098l-2.283.005c-2.415.005-4.83.018-7.245.03q-2.45.008-4.9.014-6.018.017-12.037.049m346.313 4.063C690 273 690 273 689.593 276.25c-.602 3.805-1.604 6.29-3.402 9.67l-1.749 3.33c-.62 1.154-1.24 2.31-1.88 3.499l-1.922 3.636q-1.92 3.63-3.852 7.252a826 826 0 0 0-4.589 8.76C666.813 322.815 661.08 332.973 655 343l-1.234 2.05c-4.871 8.072-10.012 15.823-15.658 23.374-3.201 4.292-6.228 8.666-9.17 13.139-7.245 10.97-14.755 21.465-23.352 31.421A259 259 0 0 0 599 421c-11.235 14.141-23.318 27.393-36.062 40.188l-2.565 2.578-2.408 2.402-2.168 2.165C554 470 554 470 552 471v2l-1.633.66c-3.185 1.803-5.625 4.257-8.242 6.777-6.71 6.32-13.789 11.993-21.125 17.563l-1.918 1.469C509.27 506.976 499.248 514.104 489 521l-2.999 2.025C471.198 533.012 456.282 542.756 441 552l-2.452 1.489A2114 2114 0 0 1 421 564l-2.84 1.692c-19.275 11.464-38.887 22.092-59.28 31.437a361 361 0 0 0-5.24 2.492c-18.68 8.975-38.062 16.879-57.73 23.404a826 826 0 0 0-8.315 2.846c-25.236 8.745-50.75 16.038-76.918 21.45-6.508 1.36-12.854 3.056-19.19 5.069-4.183 1.314-8.15 2.096-12.487 2.61.448 10.08 6.912 18.358 13 26 27.321-3.772 54.73-9.793 80.946-18.335 3.246-1.05 6.499-2.077 9.75-3.108A4516 4516 0 0 0 296.938 655l2.725-.87A479 479 0 0 0 338 640l2.028-.846a971 971 0 0 0 12.472-5.341l1.883-.82c26.956-11.73 53.145-24.264 78.27-39.569a878 878 0 0 1 10.472-6.236l2.009-1.184c4.412-2.589 8.844-5.14 13.284-7.68l3.447-1.975q3.346-1.917 6.7-3.82c10.333-5.918 20.155-12.532 29.873-19.404l2.184-1.545c6.596-4.69 13.016-9.578 19.378-14.58l3.422-2.68q3.52-2.759 7.031-5.527 3.573-2.816 7.156-5.617Q542.816 519.102 548 515l1.681-1.324c1.57-1.24 3.132-2.489 4.694-3.739.895-.712 1.79-1.425 2.71-2.16.633-.586 1.264-1.173 1.915-1.777v-2l1.727-.739c2.686-1.49 4.488-3.25 6.644-5.437l2.49-2.51 2.577-2.627 2.564-2.591q3.504-3.543 6.998-7.096a200 200 0 0 1 9.875-9.375c6.83-6.134 12.785-12.377 18.54-19.535 2.878-3.504 5.977-6.79 9.085-10.09 7.923-8.434 15.086-17.413 22.201-26.53a514 514 0 0 1 7.315-9.17 270 270 0 0 0 17.672-24.283c1.9-2.92 3.837-5.817 5.773-8.715q1.54-2.304 3.074-4.614c2.332-3.512 4.677-7.01 7.098-10.461 5.21-7.488 9.496-15.147 13.488-23.35 3.028-6.22 6.23-12.317 9.567-18.377l2.996-5.453 1.589-2.893a2648 2648 0 0 0 8.95-16.498q1.023-1.9 2.052-3.797 1.438-2.653 2.866-5.312l1.672-3.099C727 279 727 279 727 277c-7.291-2.498-14.479-4.424-22.062-5.75l-2.2-.386c-8.781-1.467-8.781-1.467-11.426.199M576 302c-20.848 15.801-20.848 15.801-27 25v2a924 924 0 0 0 33.967 12.715 262 262 0 0 1 18.248 7.247c2.929 1.092 5.694 1.622 8.785 2.038 1.27-3.11 1.27-3.11 2-7-1.35-2.53-2.46-4.156-4.312-6.25l-1.4-1.69a275 275 0 0 0-2.888-3.42c-2.045-2.396-3.995-4.868-5.962-7.327-3.695-4.494-7.572-8.793-11.5-13.083-1.614-1.857-2.959-3.646-4.25-5.73-1.79-2.652-2.853-3.237-5.688-4.5m-335 30-2.64.667C225.491 335.992 213.83 340.98 202 347c.692 6.062 2.773 11.6 4.813 17.313l1.04 3.072 1.042 2.916.932 2.661C211 375 211 375 212.975 375.85c3.013.223 4.874-.915 7.588-2.225 7.183-3.285 14.58-5.856 22.062-8.375l3.428-1.177c12.438-4.143 24.667-5.491 37.697-6.198l2.258-.128c21.975-1.218 43.993-.93 65.992-.747-1.19-3.717-2.495-7.258-4.164-10.785l-1.211-2.608a1080 1080 0 0 0-2.523-5.351l-1.204-2.604-1.104-2.344C341 331 341 331 341.07 328.334L341 326c-3.599-2.399-6.216-2.305-10.375-2.3l-2.255-.018a793 793 0 0 0-7.37.005l-2.557.006c-26.097.094-52.094 1.748-77.443 8.307m487 10c-5.987 7.583-10.227 16.796-14.737 25.294-2.46 4.598-4.909 8.688-8.263 12.706v2c3.584-.575 6.294-1.511 9.45-3.293l2.541-1.402 2.697-1.493c6.724-3.61 13.374-6.898 20.625-9.312l1.946-.66c12.998-4.074 26.186-5.478 39.741-5.465l2.245-.008c11.547.007 20.883 1.185 30.755 7.633l2.57 1.371c9.067 6.078 13.492 15.858 15.809 26.121 4.354 24.593-1.756 48.678-15.816 69.255a381 381 0 0 1-4.34 5.995c-1.901 2.786-2.592 4.12-3.223 7.258l1.434 1.145c6.01 5.002 10.751 10.72 15.566 16.855q1.998 2.502 4 5c4.022-1.34 5.235-3.863 7.375-7.312l1.292-2.078c18.13-30.228 30.845-65.58 22.438-101.06-7.116-22.857-20.376-40.882-41.73-52.3-26.713-12.777-68.652-16.757-92.375 3.75m-283-7c-.187 2.313-.187 2.313 0 5l1.388 1.33c2.103 2.179 2.667 4.197 3.592 7.072l1.092 3.198q1.11 3.324 2.172 6.664c3.137 9.035 3.137 9.035 7.268 11.283 2.105.785 2.105.785 4.488 1.453l2.713.791c3.291.898 6.598 1.71 9.912 2.522A663 663 0 0 1 569 405l1-2 1.793-.809c2.94-1.586 4.45-3.64 6.52-6.253l2.363-2.973L583 390l2.105-2.621c4.761-5.978 4.761-5.978 5.895-9.379-19.334-6.66-38.681-13.275-58.094-19.703-4.3-1.425-8.592-2.87-12.875-4.344C464.751 335 464.751 335 445 335m-273 37a145 145 0 0 0-5.75 6.875l-1.632 2.068c-10.698 13.735-10.698 13.735-10.54 18.33 1.318 3.899 3.35 7.223 5.484 10.727l1.367 2.278c1.35 2.245 2.71 4.484 4.071 6.722l2.125 3.547c3.817 6.31 7.862 12.401 12.102 18.433 4.554 6.54 8.899 13.225 13.277 19.883l2.02 3.051 1.81 2.749c1.433 2.01 2.856 3.67 4.666 5.337l1.421-1.453q3.19-3.249 6.392-6.485l2.236-2.287 2.158-2.177 1.984-2.016C217 456 217 456 220 455c-.381-5.423-3.578-8.843-6.75-13-7.388-9.96-13.929-20.337-20.25-31l-1.395-2.344C184.656 396.88 179.145 384.66 174 372zm506 49c-2.18 2.279-4.076 4.516-6 7-4.434 5.632-8.797 11.057-14 16 1 3 1 3 3.155 4.36l2.849 1.39 3.16 1.576 3.399 1.674c9.72 4.92 18.742 10.157 27.517 16.597 3.524 2.576 7.102 5.076 10.67 7.59l2.178 1.546A366 366 0 0 0 723 486.937c11.145 7.374 21.699 15.584 31.445 24.723 2.686 2.46 5.467 4.747 8.305 7.027 3.765 3.04 7.235 6.175 10.594 9.653 1.711 1.715 3.498 3.278 5.343 4.847 9.817 8.528 18.3 17.79 26.087 28.182 1.11 1.478 2.241 2.94 3.374 4.4 17.706 23.34 29.961 54.023 26.34 83.586-2.096 15.23-6.33 33.274-18.488 43.645l1 3c22.643-14.169 35.94-39.56 42.71-64.633 4.816-21.143 1.028-40.951-10.398-59.304A314 314 0 0 0 825 539l-2.417-2.934c-8.086-9.717-16.89-18.646-25.857-27.546a2800 2800 0 0 1-7.456-7.436q-2.407-2.4-4.817-4.799l-2.213-2.21a240 240 0 0 0-12.545-11.606c-2.216-1.92-4.321-3.948-6.445-5.969-13.676-12.4-28.973-22.443-44.676-32.062a355 355 0 0 1-13.574-8.75 774 774 0 0 0-15.687-10.313l-2.038-1.33C683.817 421.859 682.197 421 678 421m-453.266 70.383a113 113 0 0 1-6.609 5.867c-3.806 3.221-6.916 6.947-10.125 10.75l-2.535 2.875c-25.654 29.263-40.621 68.216-38.274 107.313.583 6.36.583 6.36 1.809 8.812l1.66-.516c7.728-2.362 15.526-4.431 23.34-6.484l.104-1.81c2.09-33.896 12.808-62.926 35.896-88.19q1.428-1.59 2.855-3.184A581 581 0 0 1 241 518l2.012-2.176c35.224-36.85 92.86-57.35 142.988-58.824 1.15-3.376.85-5.29-.328-8.625l-.926-2.64-.996-2.735c-.313-.902-.626-1.805-.95-2.734-1.504-4.222-2.803-7.853-5.8-11.266-48.65-10.367-118.928 30.298-152.266 62.383M488 440a65.6 65.6 0 0 0 2.848 11.836l1.084 3.223 1.13 3.316 1.143 3.387q1.392 4.12 2.795 8.238c3.176-.61 5.205-1.65 7.785-3.582l2.108-1.576 2.17-1.654 2.181-1.62c3.48-2.626 6.234-4.971 8.756-8.568-3.523-2.223-7.02-3.935-10.887-5.48l-3.342-1.338-3.459-1.37-3.494-1.404C490.26 440 490.26 440 488 440m118 63-1.617 1.906c-4.78 5.49-9.626 10.111-15.512 14.403L587 521v3c2.117 2.043 2.117 2.043 4.875 4.188l2.742 2.167C597 532 597 532 599 532v2c1.363 1.375 1.363 1.375 3.313 3 4.587 3.882 8.977 7.956 13.367 12.059C618 551 618 551 620 551v2h2v2c1.469 1.445 1.469 1.445 3.5 3.125 7.127 6.071 13.437 12.756 19.5 19.875l2.777 3.219 2.973 3.468 1.43 1.657c2.055 2.414 3.852 4.714 5.398 7.488C659 596 659 596 660.834 596.853 663 597 663 597 665 595.616l2.075-2.096 2.272-2.28 2.341-2.428c.785-.781 1.57-1.563 2.377-2.369 6.625-6.739 6.625-6.739 6.936-10.443a60 60 0 0 0-4.187-6.437l-1.213-1.698A307 307 0 0 0 672 563l-2.176-2.91L668 558h-2l-.79-1.772c-1.287-2.37-2.672-3.957-4.564-5.872l-2.078-2.117-2.26-2.266-2.357-2.378q-2.484-2.5-4.976-4.99c-2.487-2.492-4.957-4.998-7.426-7.505-26-26.185-26-26.185-35.549-28.1m-323.68 22.352-2.066 1.582-2.129 1.691-2.105 1.621c-4.084 3.16-8.073 6.425-12.02 9.754 1.35 3.014 2.856 5.103 5.195 7.426l1.909 1.905 2.021 1.981 2.056 2.037c3.965 3.904 7.982 7.704 12.24 11.288 1.577 1.361 3.013 2.798 4.454 4.3C294 571 294 571 296 571v2a67 67 0 0 0 5.375 4.813l3.023 2.582c4.561 2.033 6.393 1.344 10.94-.317L318 579l2.674-1.014a392 392 0 0 0 7.951-3.173l2.754-1.116q3.313-1.342 6.621-2.697c-.066-2.172-.066-2.172-1-5a74 74 0 0 0-6.937-5.25c-5.626-3.937-10.84-8.02-15.872-12.71-2.014-1.876-4.083-3.647-6.191-5.415-4.378-3.78-8.112-8.11-11.898-12.465L294 528h-2l-.75-1.937C290 524 290 524 288.152 523.223c-2.817-.293-3.622.406-5.832 2.128M750 555l-1.58 1.794c-5.5 6.186-11.193 12.135-17.059 17.975-1.43 1.424-2.853 2.854-4.277 4.284-5.2 5.192-10.484 10.19-16.084 14.947a2429 2429 0 0 0-3.535 3.07q-2.735 2.37-5.473 4.737a1139 1139 0 0 0-9.699 8.466c-8.43 7.433-17.151 14.35-26.136 21.098a685 685 0 0 0-6.415 4.914C624.061 663.887 585.316 686.842 545 707v34c6.657-2.219 12.685-5.169 18.938-8.312l1.867-.935c11.29-5.663 22.322-11.724 33.245-18.067a366 366 0 0 1 6.5-3.628c10.98-6.013 21.379-12.761 31.763-19.745l2.605-1.746c11.506-7.708 22.932-15.474 33.921-23.911 2.45-1.878 4.917-3.734 7.384-5.59a908 908 0 0 0 30.133-23.722 503 503 0 0 1 6.769-5.407c11.043-8.823 21.66-18.17 31.875-27.937l2.73-2.594a863 863 0 0 0 7.608-7.35q1.531-1.488 3.079-2.962a389 389 0 0 0 4.325-4.215l2.558-2.482C772 580 772 580 771.862 577.36 768.18 567.275 759.422 559.616 750 555m-262.937 41.063C481.169 600.252 475.12 604.149 469 608l.471 2.917c2.779 17.228 5.52 34.463 7.965 51.742q.306 2.156.618 4.31c3.076 21.25 4.263 42.368 4.152 63.833-.019 3.657-.02 7.313-.02 10.97-.048 33.906-.048 33.906-3.373 49.79l-.652 3.208c-1.654 7.755-3.953 15.015-7.024 22.316C470 820 470 820 470 823c12.432-.452 20.537-9.785 29-18l2.215-2.102c4.92-5.056 6.487-10.049 7.785-16.898l.582-2.844c2.826-15.128 2.659-30.636 2.668-45.968l.002-3.06c-.02-18.536-1.071-36.73-3.252-55.128l-.536-4.638c-2.4-20.56-5.68-40.8-9.814-61.08-1.399-7.062-2.538-14.17-3.65-21.282-3.22 0-5.404 2.243-7.937 4.063m-56.91 35.421-3.026 1.586-3.19 1.68c-6.617 3.477-13.236 6.936-19.937 10.25v2l2.414.77 3.211 1.043 3.164 1.019C416 651 416 651 418.922 652.496c3.476 1.699 6.978 2.775 10.703 3.754l1.984.563c3.55.948 5.895 1.25 9.391.187-.251-3.356-.53-6.71-.812-10.062l-.213-2.858c-.491-5.635-1.415-10.024-3.975-15.08-2.049 0-4.095 1.563-5.848 2.484M539 650l2 23c3.654-1.461 6.716-2.88 10.082-4.82l2.822-1.621 2.909-1.684 2.966-1.707q3.613-2.08 7.221-4.168c-2.213-3.32-2.733-3.523-6.36-4.605-.868-.262-1.737-.523-2.632-.791l-2.758-.792-2.71-.826C547.63 650.542 544.285 650 539 650m182.273 15.504-1.898 2.058c-4.126 4.303-8.592 7.895-13.375 11.438l.844 2.52c5.992 18.038 9.358 34.671 9.343 53.793l-.002 3.316c-.081 10.775-1.273 20.97-4.185 31.371l3 1c1.797-1.223 1.797-1.223 3.75-3.062 2.536-2.36 5.07-4.576 7.813-6.688C734.71 754.298 738.89 744.445 740 734c.773-11.967 0-22.985-3.29-34.505-.836-2.937-1.632-5.883-2.429-8.83-5.047-18.478-5.047-18.478-8.281-26.665-3 0-3 0-4.727 1.504M242 731c1.657 4.098 4.574 7.024 7.563 10.188l1.643 1.749q1.64 1.74 3.288 3.474c1.27 1.34 2.523 2.695 3.772 4.054 21.114 22.283 52.38 35.463 82.898 36.659 36.159.814 72.445-3.463 106.836-15.124 1.832-1.832 1.239-4.757 1.316-7.223l.127-3.818.12-4.021.13-4.034q.16-4.951.307-9.904c-5.015.973-10.014 1.984-14.988 3.148-15.552 3.608-31.18 5.856-47.012 7.852l-2.303.31c-44.31 5.912-98.963-1.506-138.8-22.414C245 731 245 731 242 731m431.984 30.68C630.114 776.517 588.1 779.753 542 781l-4 22c30.493 8.712 62.09 7.751 93 2l3.233-.6a305 305 0 0 0 17.393-3.82c2.086-.51 4.192-.933 6.3-1.342 6.85-1.779 9.923-4.823 13.57-10.667 2.358-4.103 4.477-8.296 6.504-12.571l1.053-2.204C684 763.262 684 763.262 684 759c-3.49 0-6.74 1.552-10.016 2.68" id="svg-layer-1" style="pointer-events: all;"/><path fill="#D1751E" d="m700.75 270.563 2.266.296c7.903 1.12 16.812 2.555 23.984 6.141-1.294 4.195-2.886 7.924-4.977 11.781l-1.77 3.28-1.878 3.439-1.92 3.544c-3.208 5.902-6.46 11.77-9.83 17.581-2.72 4.694-5.22 9.453-7.625 14.313l-1.015 2.042c-2.736 5.51-2.736 5.51-3.888 7.866-4.954 10.057-11.051 19.03-17.562 28.142-3.279 4.605-6.373 9.307-9.41 14.075a270 270 0 0 1-19.719 27 392 392 0 0 0-6.346 7.983c-8.251 10.62-16.97 20.78-26.129 30.626-2.932 3.174-5.68 6.447-8.369 9.828-3.395 4.216-6.99 8.114-10.812 11.938l-1.502 1.503c-2.185 2.153-4.398 4.179-6.795 6.094C584.75 480.2 582.42 482.52 580 485a4425 4425 0 0 1-9.687 9.813l-2.627 2.677-2.51 2.53-2.284 2.315C561 504 561 504 559 504v2c-1.844 1.707-1.844 1.707-4.5 3.813l-3.04 2.43-1.68 1.334a603 603 0 0 0-5.616 4.556c-7.257 5.942-14.57 11.793-22.031 17.476a785 785 0 0 0-7.848 6.083c-19.402 15.122-40.43 27.817-61.813 39.903A830 830 0 0 0 441.438 588l-2.064 1.214q-5.594 3.3-11.136 6.688c-26.44 16.125-54.358 28.829-82.8 40.973l-2.761 1.186c-18.217 7.671-36.868 14.19-55.696 20.18a2016 2016 0 0 0-9.534 3.072C264.416 665.5 251.368 669.066 238 672l-2.296.511q-6.33 1.409-12.673 2.747-3.093.656-6.183 1.322c-8.244 1.757-16.498 3.245-24.848 4.42-11.716-15.577-11.716-15.577-13-26l2.86-.516 3.89-.734 3.797-.703c3.502-.742 6.807-1.818 10.187-2.992 6.178-2.112 12.368-3.428 18.766-4.68C274.784 633.729 328.826 612.911 380 587l3.098-1.558C396.755 578.552 409.91 570.906 423 563l5.078-3.053c19.927-11.99 39.767-24.118 58.816-37.474 2.354-1.646 4.716-3.28 7.079-4.914 9.54-6.614 18.95-13.317 28.027-20.559l1.905-1.51c8.245-6.555 16.218-13.264 23.837-20.54C550 473 550 473 552 473v-2c1.383-1.366 1.383-1.366 3.348-2.984 5.288-4.501 10.18-9.36 15.09-14.266l2.697-2.66A199 199 0 0 0 588 434.496c2.544-3.176 5.202-6.241 7.874-9.308 5.942-6.884 11.61-13.958 17.125-21.188l2.042-2.672c5.323-7.025 10.359-14.199 15.27-21.515 4.491-6.661 8.996-13.298 13.698-19.811 5.534-7.669 10.293-15.524 14.793-23.834a302 302 0 0 1 3.927-6.856c6.663-11.382 12.738-22.974 18.55-34.807 4.736-9.633 4.736-9.633 7.122-13.653 1.708-3.048 1.692-4.465 1.598-7.852 2.557-4.235 6.483-3.054 10.75-2.437" id="svg-layer-2" style="pointer-events: all;"/><path fill="#CDC2B4" d="M484 241q2.058 1.412 4.125 2.813C491 246 491 246 492 249l-2.055 2.168c-6.813 7.268-13.002 14.84-18.945 22.832a906 906 0 0 1-3.187-2.687l-1.793-1.512C464 268 464 268 461.688 265.594c-12.179-11.754-28.877-18.887-44.438-24.906l-2.542-.987c-11.22-4.205-22.302-6.245-34.208-7.388l-3.723-.393c-36.508-3.659-72.277 4.854-101.152 27.982C265.327 268.645 256.796 279.798 251 292c-1.83 1.83-4.471 1.523-6.931 1.85-9.57 1.289-18.332 3.584-27.409 6.845-2.583.921-5.009 1.679-7.66 2.305 2.539-8.886 6.704-16.86 11-25l.99-1.883c4.84-9.104 10.446-17.212 17.01-25.117l2.367-2.871c23.75-27.449 63.22-46.472 99.105-49.963C392.007 194.726 442.032 209.059 484 241" id="svg-layer-3" style="pointer-events: all;"/><path fill="#D1751E" d="M678 421c3.574.35 6.183 1.46 9.23 3.3l2.405 1.444 2.553 1.568 2.679 1.627c6.577 4.026 13.02 8.231 19.402 12.556a406 406 0 0 0 14.039 9.056C737.375 456.163 745.82 462.164 754 469l1.68 1.388c15.36 12.728 29.53 26.722 43.661 40.778q2.135 2.123 4.274 4.24c7.948 7.878 15.493 15.765 22.385 24.594q1.515 1.833 3.047 3.652c17.046 20.586 34.578 45.167 32.7 73.125-2.787 28.45-15.177 51.538-34.997 71.785l-1.5 1.555c-2.877 2.87-5.355 4.682-9.25 5.883.62-3.37 1.123-4.132 3.625-6.812 12.396-14.035 16.645-37.795 15.593-55.941-4.19-43.23-32.085-80.06-64.19-107.505-2.378-2.043-4.703-4.14-7.028-6.242l-5-4.5-1.887-1.707a300 300 0 0 0-32.24-25.031c-3.783-2.549-7.545-5.127-11.31-7.7l-2.48-1.688a463 463 0 0 1-12.534-8.838c-12.73-9.308-26.586-16.76-40.549-24.036 1.315-2.948 2.681-4.838 5.063-7 4.223-4.072 7.576-8.702 11.019-13.426C676 423 676 423 678 421" id="svg-layer-4" style="pointer-events: all;"/><path fill="#CFC4B5" d="M366.213 428.783c7.675-.67 7.675-.67 10.787.217 3.838 4.452 5.512 9.593 7.313 15.125l.837 2.418.776 2.34.7 2.106c.43 2.31.095 3.796-.626 6.011l-2.656.078c-19.941.892-39.405 4.66-58.344 10.922l-2.547.842C284.106 481.845 248.915 504.915 224 537l-2.238 2.793C203.04 563.753 195.937 590.048 194 620l-3.691 1.023-4.871 1.352-2.424.672A1621 1621 0 0 0 169 627c-6.148-12.295-1.854-32.095 1-45l.809-3.668c6.893-28.093 19.983-50.204 38.88-71.82 1.084-1.25 2.15-2.518 3.21-3.79 36.201-43.177 98.58-68.577 153.314-73.939" id="svg-layer-5" style="pointer-events: all;"/><path fill="#87969D" d="M750 555c9.16 4.223 17.495 11.95 22 21-.095 5.336-3.469 8.017-7.055 11.516l-1.867 1.864a773 773 0 0 1-3.94 3.893 896 896 0 0 0-5.911 5.872c-6.405 6.368-12.878 12.43-19.957 18.048-2.759 2.196-5.322 4.522-7.895 6.932-3.8 3.49-7.66 6.746-11.77 9.86-2.702 2.09-5.336 4.25-7.971 6.424-8.724 7.18-17.728 13.91-26.867 20.55a471 471 0 0 0-6.236 4.682c-9.622 7.332-19.493 14.198-29.577 20.878a2355 2355 0 0 0-7.554 5.034c-13.307 8.866-26.798 17.206-40.9 24.76l-3.058 1.646A2161 2161 0 0 1 559 735l-2.13 1.1c-9.51 4.9-9.51 4.9-11.87 4.9v-34l9.563-4.687c12.07-6 23.792-12.529 35.437-19.313l3.043-1.766C621.103 664.893 647.695 646.338 673 626l2.813-2.258c6.892-5.59 13.63-11.356 20.346-17.155a1823 1823 0 0 1 5.54-4.751c12.859-11.022 25.116-22.57 37.114-34.524l2.662-2.648 2.482-2.488 2.218-2.222C748 558 748 558 750 555" id="svg-layer-6" style="pointer-events: all;"/><path fill="#CEC4B5" d="M769.853 328.76c2.047-.01 4.094-.04 6.141-.072 8.987-.073 17.283 1.054 26.006 3.312l2.35.57c20.047 5.04 36.804 16.864 47.626 34.658 5.247 9.08 9.066 18.427 11.024 28.772l.559 2.66c4.849 36.69-9.086 72.997-30.559 102.34-3.797-1.266-4.79-2.935-7.25-6.062-2.813-3.518-5.621-7.026-8.562-10.438l-1.583-1.844c-1.733-1.788-3.578-3.214-5.605-4.656 1.332-4.888 3.551-8.32 6.625-12.25 13.51-18.248 20.798-42.026 17.746-64.598-1.658-10.684-3.975-18.048-11.371-26.152l-1.785-2.555c-2.857-3.153-5.791-4.475-9.653-6.132l-1.986-.893A381 381 0 0 0 804 363l-2.267-1.078c-5.35-1.804-11.159-1.254-16.758-1.238-2.243.003-4.484-.02-6.727-.045-12.93-.058-25.509 1.645-37.81 5.798l-2.17.72c-7.965 2.817-15.346 6.83-22.74 10.88l-2.837 1.549-2.525 1.408C708 382 708 382 705 382c1.248-3.379 2.667-6.178 4.746-9.113 4.128-6.05 7.44-12.502 10.842-18.979 6.87-12.86 14.68-18.726 28.65-23.146 6.909-1.906 13.47-1.982 20.615-2.002" id="svg-layer-7" style="pointer-events: all;"/><path fill="#6B8593" d="M345 267h34c6.186 12.138 11.927 24.44 17.55 36.847a602 602 0 0 0 3.923 8.326c4.601 9.677 8.51 19.598 12.402 29.577l3.38 8.621 2.315 5.909c2.504 6.388 5.046 12.76 7.614 19.122 8.2 20.363 15.927 40.864 23.316 61.536l1.246 3.477c4.61 12.887 9.055 25.823 13.285 38.839l1.165 3.552c1.735 5.402 3.277 10.535 3.804 16.194-17.73 13-17.73 13-23 13l-.864-2.47A6178 6178 0 0 0 434 478l-.886-2.488c-13.099-36.734-27.484-72.902-43.257-108.57q-1.35-3.065-2.694-6.131c-11.07-25.259-22.65-50.26-34.679-75.077l-1.578-3.266q-1.421-2.935-2.86-5.86l-1.237-2.55-1.069-2.177C345 270 345 270 345 267" id="svg-layer-8" style="pointer-events: all;"/><path fill="#84949B" d="m754.5 247.063 1.656 1.372c2.52 2.162 3.773 3.351 4.844 6.565-4.312-.562-6.903-2.114-10.5-4.5-20.061-12.26-50.49-19.529-74.086-19.668l-2.105-.013q-3.342-.013-6.684-.006l-2.311.002c-24.032.064-46.227 3.238-68.314 13.185l-3.133 1.398C581.671 251.162 571.26 259.337 561 268l-3.187 2.625c-10.091 8.343-19.288 17.186-27.47 27.457-3.184 3.965-6.489 7.822-9.802 11.68-3.434 4.024-3.434 4.024-4.541 6.238-9.444-1.315-19.413-3.707-28-8 .601-3.972 2.587-6.416 5-9.562l1.217-1.59c6.252-8.117 12.776-15.958 19.681-23.528a255 255 0 0 0 5.352-6.132c28.973-32.943 70.99-57.547 115.301-61.043 45.428-2.69 85.151 11.955 119.949 40.917" id="svg-layer-9" style="pointer-events: all;"/><path fill="#6A8593" d="m492 594 2 1a88 88 0 0 1 1.508 6.922l.395 2.112q.412 2.218.811 4.439a953 953 0 0 0 1.25 6.761q.399 2.156.794 4.313l.379 2.033c.627 3.517 1 6.847.863 10.42h2c1.486 6.324 2.596 12.589 3.438 19.027l.379 2.84A2839 2839 0 0 1 510 687l.472 3.901c1.792 15.671 1.724 31.408 1.778 47.162l.017 3.204c.049 12.735-.385 25.132-2.267 37.733l-.38 2.713a207 207 0 0 1-.995 5.975l-.648 3.824c-1.796 6.413-5.893 10.767-10.54 15.363l-1.58 1.568C488.55 815.543 480.697 823 470 823c.609-3.755 1.734-7.198 3.019-10.772 2.67-7.496 4.774-14.978 6.293-22.79l.482-2.39c6.548-35.795 4.374-77.182-.794-113.048q-.336-2.45-.667-4.901c-2.762-20.422-5.761-40.802-9.333-61.099 10.615-7.006 10.615-7.006 14.875-8.687 3.235-1.36 5.501-3.007 8.125-5.313" id="svg-layer-10" style="pointer-events: all;"/><path fill="#87969D" d="M242 731c4.32.693 8.219 2.154 12.27 3.746 8.356 3.204 16.823 5.833 25.417 8.317.737.214 1.473.428 2.231.65C298.753 748.608 315.5 753.273 333 755l3.281.336c8.242.74 16.45.851 24.719.664l2.019-.038c27.231-.63 55.528-4.811 81.677-12.391C447 743 447 743 450 743l-1 28c-39.424 14.784-88.508 22.254-130 13l-3.812-.773C286.758 776.66 259.068 756.525 242 733z" id="svg-layer-11" style="pointer-events: all;"/><path fill="#D1751E" d="m320.5 323.688 2.577-.03c2.423-.023 4.844-.026 7.267-.021l2.212-.028c4.947.045 4.947.045 7.395 1.75 1.528 2.391 1.586 4.843 2.049 7.641 1.166 3.067 2.551 6.027 3.938 9q1.08 2.342 2.152 4.688l.964 2.074c1.14 2.7 2.047 5.45 2.946 8.238-1.266-.01-2.531-.02-3.835-.032-21.42-.16-42.832-.312-64.228.844l-2.157.107c-14.797.75-28.527 3.653-42.53 8.456l-3.418 1.133c-6.403 2.161-12.471 4.598-18.5 7.659-2.332.833-2.332.833-4.492.793-2.774-1.447-3.14-3.27-4.2-6.167l-1.19-3.217c-.397-1.118-.792-2.236-1.2-3.389l-1.246-3.353C202 351.586 202 351.586 202 347c36.707-19.548 77.577-23.045 118.5-23.312M445 335c2.314.237 4.626.49 6.938.75l3.902.422c12.772 1.805 25.372 5.563 37.723 9.203l2.152.63c13.868 4.085 27.488 8.8 41.102 13.654 13.54 4.82 27.175 9.298 40.885 13.61l2.266.72a558 558 0 0 0 4.185 1.312c2.882.919 4.675 1.527 6.847 3.699-2.872 4.49-6.017 8.533-9.5 12.563q-1.423 1.656-2.844 3.316l-1.367 1.586c-1.213 1.444-2.363 2.94-3.508 4.437L572 403h-2l-1 2-2.328-.94c-18.89-7.561-37.98-14.296-57.36-20.498l-3.143-1.012c-12.173-3.909-24.357-7.538-36.789-10.538-9.058-2.243-9.058-2.243-12.38-5.012-1.346-2.496-1.346-2.496-2.352-5.437l-1.14-3.211-1.133-3.352a998 998 0 0 0-2.29-6.562l-.998-2.942c-1.085-2.49-2.166-3.649-4.087-5.496-.187-2.687-.187-2.687 0-5M684 759c-.56 5.233-2.301 9.153-4.687 13.75l-1.083 2.126a193 193 0 0 1-8.003 14.108C669 791 669 791 668.16 793.114c-3.349 5.446-13.222 6.695-19.152 8.175-5.971 1.405-11.977 2.593-18.008 3.711l-3.265.607C597.372 811.053 569.07 809.68 539 804c-1.086-3.259-.911-4.392-.223-7.668l.557-2.705.604-2.814.591-2.85q.726-3.484 1.471-6.963l1.886-.049c46.991-1.244 91.958-3.948 136.244-21.287C682 759 682 759 684 759" id="svg-layer-12" style="pointer-events: all;"/><path fill="#D1751F" d="m586 179 1 3c-3.657 1.545-7.291 2.667-11.125 3.688-4.346 1.2-8.533 2.526-12.734 4.164l-2.52.977q-2.445.963-4.871 1.973c-5.234 2.056-9.212 2.445-14.75 1.198l-2.217-.47q-2.444-.519-4.887-1.041c-11.426-2.327-22.532-2.856-34.146-2.802l-2.273.009c-6.866.04-13.636.142-20.454 1.05-5.515.565-9.261-.95-14.148-3.371-7.091-3.274-14.045-5.825-21.62-7.739-5.054-1.335-5.054-1.335-7.255-4.636 5.895-3.163 11.62-5.294 18.063-7.062l2.81-.78C495.401 156.091 549.063 155.603 586 179" id="svg-layer-13" style="pointer-events: all;"/><path fill="#D0C5B6" d="M606 503c4.094.57 6.847 2.893 10 5.375l3.125 2.398c10.65 8.669 20.328 18.493 30.025 28.192 2.133 2.13 4.275 4.254 6.416 6.377q2.038 2.033 4.075 4.068l1.94 1.92C666 555.77 666 555.77 666 558l3 1c1.334 1.427 1.334 1.427 2.664 3.238l1.461 1.987 1.5 2.087 1.523 2.053c4.286 5.893 4.286 5.893 4.852 9.635-1.047 1.754-1.047 1.754-2.75 3.563l-1.941 2.062L674 586l-2.777 3q-1.454 1.533-2.91 3.063l-1.404 1.52c-3.31 3.387-3.31 3.387-6.022 3.522-2.604-1.525-3.727-3.336-5.387-5.855-4.51-6.483-9.74-12.077-15.155-17.808-1.749-1.875-3.426-3.807-5.095-5.755-9.259-10.691-9.259-10.691-13.25-12.687v-2h-2v-2l-1.775-.799c-2.32-1.252-3.927-2.604-5.827-4.424l-1.984-1.88-2.039-1.96q-2.016-1.927-4.04-3.847l-1.794-1.723C601 535 601 535 599 534v-2l-1.703-.773c-2.59-1.384-4.748-3.026-7.047-4.852l-2.422-1.914L586 523c2.39-3.43 4.99-5.84 8.313-8.312 4.542-3.415 8.126-7.28 11.687-11.688" id="svg-layer-14" style="pointer-events: all;"/><path fill="#CFC5B6" d="M172 372h2l1.215 3.121c9.4 23.732 22.59 45.473 37.516 66.12a372 372 0 0 1 5.019 7.134l1.36 1.96C220 452 220 452 220 455a767 767 0 0 1-5 3c-2.548 2.287-4.924 4.735-7.312 7.188l-1.956 1.982Q203.36 469.578 201 472c-2.438-2.276-4.239-4.684-6.074-7.465l-1.762-2.657-1.851-2.815-1.905-2.877A6013 6013 0 0 1 184 448q-2.215-3.346-4.437-6.687l-1.844-2.778c-1.672-2.466-3.408-4.873-5.156-7.285-3.92-5.547-7.137-11.45-10.403-17.395-2.23-4.039-4.69-7.911-7.262-11.742-1.223-2.878-.915-4.163.102-7.113 1.785-2.98 1.785-2.98 4.063-6.187l1.209-1.704c7.935-11.08 7.935-11.08 11.728-15.109" id="svg-layer-15" style="pointer-events: all;"/><path fill="#CEC4B6" d="M726 664c3.85 9.747 6.44 19.853 9.172 29.958.705 2.59 1.435 5.172 2.172 7.753 4.428 16.168 5.215 34.808-2.867 49.91-4.72 7.604-12.594 16.88-21.477 19.379-1.334-4.003-.15-6.067 1.21-9.941 5.785-22.422 3.806-56.457-6.933-77.422C706 681 706 681 707 678c1.697-1.52 3.457-2.97 5.25-4.375 3.006-2.364 5.773-4.65 8.422-7.414C723 664 723 664 726 664" id="svg-layer-16" style="pointer-events: all;"/><path fill="#CFC5B5" d="M288.143 523.249c2.515 1.017 2.7 2.364 3.857 4.751l1.816.855c2.725 1.429 4.14 3.17 6.122 5.52 10.33 11.734 22.345 21.875 35.375 30.5L338 567v4a1134 1134 0 0 1-11.688 4.81 458 458 0 0 0-3.972 1.641 446 446 0 0 1-5.727 2.338l-3.475 1.428c-3.624.904-4.923.565-8.138-1.217a84 84 0 0 1-4.812-3.5l-2.395-1.844L296 573v-2l-1.734-.738c-2.67-1.487-4.404-3.243-6.516-5.45-2.789-2.856-5.583-5.602-8.625-8.187-5.336-4.569-10.202-9.62-15.125-14.625 1.375-4.126 4.28-5.834 7.625-8.375l1.832-1.422q1.833-1.414 3.685-2.804 1.89-1.424 3.74-2.9c4.606-3.558 4.606-3.558 7.261-3.25" id="svg-layer-17" style="pointer-events: all;"/><path fill="#CEC4B5" d="M576 302c3.41 1.42 5.036 3.025 7.188 6 2.56 3.42 5.224 6.613 8.125 9.75 4.43 4.854 8.436 9.948 12.37 15.203 1.4 1.842 2.841 3.655 4.352 5.406 4.004 4.707 4.004 4.707 3.88 7.68-.54 1.961-.54 1.961-1.915 4.961-4.018-.571-7.553-1.443-11.324-2.934l-3.08-1.203-3.284-1.3q-3.473-1.36-6.949-2.711l-3.638-1.417c-7.392-2.847-14.831-5.568-22.267-8.298l-3.27-1.203-2.895-1.061C551 330 551 330 549 329c5.213-11.353 17.074-19.93 27-27" id="svg-layer-18" style="pointer-events: all;"/><path fill="#D1C7B9" d="M435 629c2.831 2.373 3.478 4.085 3.984 7.71l.395 2.774.371 2.891.418 2.867c.625 4.586.929 8.214-.168 12.758-10.713-1.838-20.95-4.987-30.977-9.168-1.648-.678-3.332-1.268-5.023-1.832v-2l2.973-1.469A905 905 0 0 0 435 629" id="svg-layer-19" style="pointer-events: all;"/><path fill="#D1C7B8" d="M488 440c6.987 1.981 13.753 4.314 20.5 7l2.703 1.04 2.578 1.022 2.315.91C518 451 518 451 520 454c-17.234 16-17.234 16-23 16-1.51-4.246-3.006-8.498-4.5-12.75l-1.3-3.656-1.231-3.516-1.143-3.237C488 444 488 444 488 440" id="svg-layer-20" style="pointer-events: all;"/><path fill="#D3CABC" d="M539 650c6.541.727 11.8 1.545 17.938 3.375l2.283.633c5.534 1.625 5.534 1.625 7.779 4.992q-5.09 2.944-10.187 5.875l-2.909 1.684-2.822 1.62-2.587 1.492C546 671 546 671 541 673z" id="svg-layer-21" style="pointer-events: all;"/><path fill="#7B8F99" d="M495 592q1.189 6.624 2.375 13.25l.672 3.742c1.37 7.661 2.694 15.328 3.953 23.008h-2l-7-37-9 6-2-1q2.681-2.008 5.375-4l3.023-2.25C493 592 493 592 495 592" id="svg-layer-22" style="pointer-events: all;"/></svg>