<svg xmlns="http://www.w3.org/2000/svg" width="1024" height="1024"><path fill="none" d="M0 0h1024v1024H0zm335.375 184.875c-26.659 8.606-53.248 17.048-80.387 24.02l-1.997.513a3418 3418 0 0 1-21.9 5.556l-3.736.944q-3.498.885-7.003 1.746l-3.16.803-2.758.687c-2.605.916-4.259 2.185-6.434 3.856a96 96 0 0 1-7.75 1.688l-2.113.392q-2.566.472-5.137.92l-.832-1.73c-6.058-11.771-14.644-20.534-27.086-25.415-7.964-2.21-16.303-1.652-23.797 1.82-6.71 3.89-12.05 8.757-14.285 16.325-3.123 14.736-1.682 28.065 4.074 41.977 1.008 3.29 1.134 4.822-.074 8.023-1.602 1.738-1.602 1.738-3.625 3.313-4.302 3.561-7.85 7.363-11.375 11.687l-2.273 2.766c-4.99 6.264-9.458 12.73-13.665 19.546l-1.395 2.244c-9.585 15.854-7.69 30.292-4.958 47.971.799 6.784.799 6.784-1.807 10.32a259 259 0 0 1-2.965 3.216C81.008 376.916 74.028 386.425 67 396l-1.885 2.556a1991 1991 0 0 0-5.365 7.319l-1.627 2.214c-7.108 9.817-7.108 9.817-7.15 15.794.859 4.865 3.486 8.166 6.465 11.992 4.273 5.773 8.176 11.57 11.624 17.875l1.213 2.214c2.24 4.152 4.392 8.344 6.51 12.56l1.435 2.825q1.361 2.687 2.675 5.396c6.153 12.18 15.288 18.262 27.988 22.63 25.192 8.158 51.692 9.539 77.023 1.254 3.013-.905 5.97-1.29 9.094-1.629l-.88 3.648c-1.39 6.275-2.198 12.614-3.038 18.98l-.538 4.002q-.571 4.251-1.139 8.502c-.6 4.5-1.21 8.998-1.822 13.496l-.31 2.279-.62 4.553-1.532 11.272-.295 2.173q-.858 6.324-1.705 12.652c-5.011 37.331-11.917 74.312-18.801 111.333-1.27 6.832-2.528 13.666-3.784 20.5q-1.505 8.18-3.018 16.358-.697 3.767-1.39 7.535-.956 5.175-1.921 10.346l-.547 2.982c-.93 4.955-1.958 9.88-3.11 14.787l-.678 2.888c-.929 2.89-2.285 5.14-3.872 7.714v2c-5.612 2.31-10.938 4.085-16.963 4.987C116.607 783.857 106.491 787.5 97 796l-1.863 1.652c-10.9 10.273-18.82 24.416-19.512 39.535.07 3.536.325 4.729 2.188 7.875 3.37 2.986 6.12 3.065 10.454 3.078l3.309.018 3.631.003 3.825.015q5.197.019 10.396.024l6.503.012q10.185.02 20.372.027 11.735.007 23.469.05 9.082.034 18.166.034 5.418 0 10.836.025c4.038.02 8.075.015 12.113.008l3.589.028c10.737-.053 19.545-1.86 27.524-9.384 2.387-2.606 4.517-5.353 6.625-8.187l1.81-2.378c4.79-6.322 9.488-12.714 14.173-19.115C259 803.324 263.482 797.4 268 791.5c6.866-8.975 13.6-18.037 20.278-27.153q2.618-3.566 5.25-7.124c6.244-8.451 12.451-16.927 18.58-25.463a644 644 0 0 1 8.326-11.338c6.356-8.457 12.445-17.036 18.191-25.922l1.758-2.677 1.656-2.604 1.444-2.252c4.49-8.783 7.026-18.57 9.923-27.963l1.232-3.97q1.608-5.182 3.211-10.367 2.564-8.288 5.136-16.574l1.768-5.715A913 913 0 0 1 372 600l2.29 1.347c3.23 1.896 6.47 3.776 9.71 5.653l1.784 1.038C427.122 632 427.122 632 437 632c.743 4.643 1.126 9.094 1.13 13.794l.005 1.95q.004 3.184-.002 6.37l.004 4.541q.004 6.074-.008 12.147l-.01 7.53c-.025 20.207-.068 40.416-.383 60.62q-.048 3.15-.082 6.298a996 996 0 0 1-.142 8.633l-.02 2.477c-.172 6.643-1.482 12.195-5.805 17.452-5.629 4.582-10.825 5.708-17.812 6.563-12.434 1.766-21.92 5.913-31.875 13.625l-2.52 1.91c-11.041 9.303-22.295 25.243-23.75 39.785-.253 6.434-.253 6.434 1.606 9.532 2.255 2.403 4.06 2.744 7.303 2.902l3.24.005 3.72.013 4.09-.002 4.302.01q5.853.014 11.705.012 3.663.001 7.327.006 12.807.014 25.612.012 11.893.001 23.787.026 10.236.019 20.472.018 6.1-.002 12.203.013 5.757.014 11.514.003 2.094-.003 4.19.007c29.783.122 29.783.122 40.375-9.158 8.417-8.75 12.547-20.438 16.824-31.594l2.163-5.583q.76-1.962 1.518-3.926a1643 1643 0 0 1 5.37-13.71c8.759-22.169 16.974-44.533 25.134-66.927l2.713-7.444 1.321-3.627c2.997-8.205 6.068-16.378 9.269-24.505 2.484-6.397 4.231-12.835 5.723-19.528A49 49 0 0 1 610 654h2a533 533 0 0 1 7.355 25.508l.92 3.495q1.46 5.56 2.913 11.122l2.01 7.682q1.5 5.735 2.997 11.472a3640 3640 0 0 0 5.104 19.36q1.288 4.84 2.562 9.683.569 2.15 1.15 4.296C640.947 761.19 640.947 761.19 640 768c-3.333 3.88-7.964 5.433-12.625 7.313-18.746 7.924-33.954 20.556-42.121 39.515-2.864 7.244-5.464 14.269-4.254 22.172 1.727 3.29 2.442 3.814 6 5 1.756.099 3.515.14 5.273.147l3.314.022 3.636.008 3.83.02c4.193.02 8.386.031 12.58.041l4.337.013q10.192.029 20.386.041 11.748.015 23.495.077 9.09.044 18.18.048c3.617.002 7.233.011 10.848.036 4.041.028 8.08.024 12.121.017l3.6.039c7.944-.05 14.35-1.216 20.628-6.32 3.991-4.897 7.123-9.922 9.96-15.564l1.3-2.543c7.58-14.973 9.614-28.535 10.544-45.135 1.136-19.744 3.025-39.39 5.177-59.045q.337-3.085.669-6.172c4.628-42.86 4.628-42.86 9.122-59.73 4.472 4.118 7.702 8.704 11.063 13.75q1.736 2.573 3.476 5.145l1.759 2.604c2.502 3.677 5.065 7.31 7.64 10.938l4.492 6.341c2.828 4.003 5.636 8.019 8.445 12.034l1.773 2.535 3.57 5.105q4.39 6.275 8.782 12.548l3.5 5 1.75 2.5 5.25 7.5 1.753 2.504 3.47 4.959 9.199 13.135 1.941 2.771 6.847 9.772C854 771.882 854 771.882 854 775l-2.605 1.18C829.569 786.51 812.573 803.13 804 826c-1.788 6.177-3.322 13.136-1.187 19.375C804 847 804 847 807 848c2.462.096 4.895.136 7.357.13l2.27.005q3.742.004 7.486-.002 2.648 0 5.297.003 5.595.001 11.19-.006 6.987-.006 13.973.004c18.002.02 36.002-.05 54-.46q2.43-.057 4.858-.103c25.72-.512 25.72-.512 33.569-7.571 9.203-10.387 15.112-24.541 20.5-37.187l1.025-2.393.944-2.275.826-1.99c5.418-16.565.835-36.964-1.329-53.736a2524 2524 0 0 1-.84-6.626A8395 8395 0 0 0 963 696l-.505-3.866q-4.003-30.654-8.059-61.303l-1.848-13.99c-4.287-32.5-8.67-64.98-13.451-97.411l-.556-3.782C930.43 460.394 920.842 404.588 896 354l-1.433-2.923C884.001 329.724 871.772 309.703 857 291l-2.36-3.004C849.068 281.05 843.149 274.44 837 268l-2.072-2.175C800.328 229.75 757.458 207.069 708 199l-3.14-.515c-3.986-.5-7.883-.626-11.892-.614l-2.35-.006q-3.843-.004-7.688.002-2.728 0-5.456-.004-7.29-.003-14.582.008-4.532.006-9.064.007c-22.299.01-44.592.07-66.886.555q-4.664.1-9.327.185c-7.936.152-15.869.308-23.8.607-42.313 1.587-42.313 1.587-58.698-9.802-3.306-2.222-6.841-3.896-10.43-5.61q-1.917-.951-3.832-1.907l-1.904-.941q-2.014-.995-4.023-2c-48.73-24.247-90.561-9.917-139.553 5.91" id="svg-layer-0" style="pointer-events: all; fill: none;"/><path fill="#002840" d="M511.106 196.991c4.106 2.187 7.477 2.153 12.07 2.142l2.573.004c2.854.002 5.709-.005 8.563-.012l3.044-.003c14.456-.014 28.9-.224 43.353-.553 24.077-.538 48.157-.77 72.24-.856q5.867-.022 11.734-.072c40.645-.329 40.645-.329 59.317 4.359l3.726.888a177 177 0 0 1 8.712 2.487l3.011.912c36.778 11.312 67.105 31.184 94.301 58.213l1.485 1.468A230 230 0 0 1 854 287l1.443 1.792c7.485 9.303 14.105 19.17 20.557 29.208l1.182 1.833c36.038 56.426 49.817 120.88 59.955 186.05l.582 3.737c4.729 30.51 8.796 61.104 12.81 91.714q1.074 8.184 2.156 16.366l.314 2.38.63 4.763c4.554 34.483 9.07 68.97 13.496 103.47l.309 2.405a11160 11160 0 0 1 1.699 13.302q.356 2.803.714 5.606c1.22 9.656 2.332 19.195 2.34 28.937l.038 2.38c.026 10.663-3.227 19.028-7.725 28.62l-1.614 3.46c-3.149 6.637-6.449 13.109-10.323 19.352-.389.628-.777 1.257-1.176 1.905-3.16 4.864-6.754 8.43-12.262 10.408l-1.867.699c-5.484 1.49-11.066 1.766-16.72 1.923l-2.165.061q-3.541.096-7.084.18l-2.5.063c-18.964.472-37.928.574-56.897.571-4.69 0-9.378.014-14.067.031q-5.498.015-10.994.013-2.6 0-5.198.013c-2.388.01-4.775.007-7.163 0-.702.007-1.404.012-2.127.018-3.573-.023-6.405-.101-9.343-2.26-3.133-9.399.374-20.157 4.615-28.707 3.947-7.499 8.675-14.009 14.385-20.293l1.668-1.914c8.28-8.956 19.376-15.052 30.332-20.086-.463-4.912-2.95-8.036-5.875-11.812a1681 1681 0 0 1-3.035-4.04l-1.567-2.086c-2.36-3.195-4.601-6.466-6.836-9.75a1743 1743 0 0 0-12.5-18.062l-1.78-2.54-3.6-5.132a7516 7516 0 0 1-5.389-7.7A5620 5620 0 0 0 797 690.5q-6.614-9.36-13.187-18.75l-1.787-2.548a1083 1083 0 0 1-7.842-11.323l-1.263-1.849a1535 1535 0 0 1-3.25-4.792C768 649 768 649 766 648c-2.828 12.558-4.994 25.031-6.5 37.813l-.632 5.233q-.8 6.686-1.57 13.374-.428 3.705-.861 7.412c-2.408 20.766-4.154 41.532-5.398 62.401-1.505 24.78-1.505 24.78-6.664 35.642l-1.066 2.304c-11.406 24.24-11.406 24.24-21.648 28.881-5.422 1.392-10.712 1.226-16.288 1.215l-3.85.015c-3.473.013-6.946.014-10.42.012q-4.354 0-8.707.008-10.272.016-20.543.006c-7.06-.006-14.12.006-21.179.027q-9.102.027-18.204.02c-3.622-.001-7.243.001-10.864.015-4.036.015-8.072.006-12.108-.006l-3.63.023-3.334-.02h-2.89c-3.17-.45-5.062-1.51-7.644-3.375-2.92-5.84-.804-12.534 1.125-18.375 6.418-18.36 18.63-33.08 36.203-41.852 3.565-1.712 7.167-3.33 10.784-4.928 7.318-3.275 7.318-3.275 9.888-5.845.89-8.702-1.708-16.82-3.91-25.152q-.615-2.376-1.228-4.752c-1.077-4.17-2.168-8.336-3.262-12.502-1.085-4.146-2.157-8.295-3.23-12.444A6512 6512 0 0 0 621 685l-.55-2.088a4630 4630 0 0 0-3.446-12.978l-.845-3.188-.782-2.908-.665-2.488c-.763-2.518-1.702-4.921-2.712-7.35h-2c-2.021 4.85-3.368 9.555-4.5 14.688-1.818 7.784-4.6 15.119-7.488 22.562q-1.496 3.896-2.985 7.794l-.767 2.003c-2.598 6.81-5.099 13.653-7.584 20.504l-1.322 3.637-2.673 7.36c-8.288 22.807-16.816 45.493-26.03 67.945a835 835 0 0 0-4.745 11.828l-1.075 2.726q-1.025 2.605-2.036 5.217c-4.149 10.522-9.934 18.734-19.795 24.486-10.488 3.975-23.194 3.547-34.21 3.525l-4.356.015c-3.892.013-7.784.014-11.676.012q-4.89 0-9.783.008-11.532.016-23.064.006c-7.92-.006-15.841.006-23.761.027q-10.237.027-20.473.02c-4.066-.001-8.132.001-12.198.015q-5.72.019-11.44-.002-2.097-.004-4.193.009c-1.91.01-3.818 0-5.727-.01h-3.234c-3.317-.431-5.204-1.406-7.885-3.375-2.709-5.418-1.156-12.331.5-17.875 2.48-6.778 6.19-12.375 10.5-18.125l2.32-3.105c12.7-16.109 27.082-22.71 46.68-25.895 6.336-1.091 12.173-2.113 16.219-7.676 3.612-6.025 3.96-11.168 4.097-18.05l.064-2.74q.099-4.579.183-9.159l.063-3.203c.405-21.117.483-42.233.497-63.354q.004-3.755.01-7.51.009-5.976.001-11.95 0-2.218.002-4.436.003-3.064-.007-6.128l-.002-3.48c-.134-3.495-.575-6.862-1.127-10.314l-1.763-.458c-7.163-1.991-13.64-4.893-20.3-8.167l-3.315-1.614C398.238 615.209 385.186 608.617 373 600c-2.31 2.31-2.715 3.777-3.66 6.88l-.953 3.091-1.02 3.377-1.077 3.51q-1.714 5.601-3.415 11.205-3.875 12.695-7.781 25.38-1.09 3.547-2.171 7.096a1956 1956 0 0 1-3.118 10.11l-.907 3.006c-5.011 15.958-15.236 29.251-25.36 42.328-2.712 3.556-5.308 7.195-7.913 10.83-6.221 8.652-12.534 17.234-18.868 25.805a2620 2620 0 0 0-5.19 7.066 1664 1664 0 0 1-20.606 27.48A1071 1071 0 0 0 258 804.5a1506 1506 0 0 1-15.5 20.75l-1.996 2.635c-11.002 14.433-11.002 14.433-16.566 16.99l-2.473 1.18c-4.328 1.66-8.392 2.071-13.006 2.085l-3.339.018-3.634.003-3.85.015q-5.216.019-10.431.024-3.26.005-6.52.012-10.206.02-20.412.027-11.773.007-23.546.05-9.108.034-18.217.034-5.436 0-10.874.025c-4.04.02-8.081.015-12.122.008l-3.634.028c-1.102-.005-2.204-.01-3.34-.017l-2.893.005c-3.199-.45-5.05-1.475-7.647-3.372-2.894-4.341-2.547-7.9-2-13 2.853-12.752 8.553-22.2 17-32l1.648-1.941c11.292-12.311 26.447-14.94 42.141-17.555 2.791-.636 4.888-1.856 7.211-3.504h2c4.107-9.794 6.23-19.639 8.125-30.035l.905-4.874q.977-5.263 1.945-10.528a5877 5877 0 0 1 3.166-17.027q2.57-13.758 5.111-27.52 1.45-7.855 2.914-15.708c7.632-40.92 14.045-81.948 19.37-123.231.753-5.83 1.515-11.658 2.277-17.486q.386-2.966.768-5.93c2.952-22.727 2.952-22.727 4.419-25.661-6.785 1.24-13.45 2.82-20.113 4.59-25.723 6.662-55.4 1.763-79.078-9.672-8.016-5.474-12.495-12.177-16.684-20.793q-1.554-3.076-3.113-6.148l-1.538-3.062a430 430 0 0 0-6.537-12.415l-1.198-2.19c-3.252-5.778-7.032-11.075-11.249-16.19-2.762-3.49-4.446-6.516-4.747-11.019.923-7.548 7.52-14.47 11.944-20.351l1.866-2.504Q67.268 395.616 70 392l1.478-1.959a584 584 0 0 1 13.335-16.978l2.199-2.72C89 368 89 368 90.707 366.407c2.222-2.106 3.258-3.81 3.438-6.87-.23-3.216-.654-6.35-1.145-9.536-3.527-24.157 1.327-39.319 15.71-58.719C123.48 271.911 123.48 271.911 132 266c-.553-4.052-1.51-7.782-2.816-11.656-4.494-13.35-6.416-28.526-.559-41.906 4.015-6.687 10.335-11.198 17.605-13.778 9.065-2.16 17.663-1.242 25.77 3.34 8.557 5.524 15.851 13.204 21 22v2a732 732 0 0 0 7.25-1.312l2.066-.358c5.248-.993 5.248-.993 7.574-2.79 2.492-1.819 4.55-2.391 7.541-3.127l3.326-.835 3.614-.879 5.739-1.438q3.055-.765 6.114-1.523c20.484-5.094 40.897-10.36 61.026-16.738l2.665-.844a2689 2689 0 0 0 16.186-5.215c7.524-2.442 15.057-4.855 22.59-7.271q6.317-2.026 12.626-4.078c10.313-3.339 20.657-6.51 31.093-9.444l3.102-.874c47.117-13.06 84.356 5.645 125.594 27.717m-92.468 44.492a839 839 0 0 1-7.146 4.06l-1.982 1.117-5.06 2.852C402 251 402 251 400 253c-.208 2.581-.32 5.103-.375 7.688-.533 12.68-4.019 23.818-9.55 35.19-1.293 3.755-1.264 5.34-.075 9.122 1.516 2.965 3.28 5.752 5.063 8.563 7.1 11.53 13.722 23.297 20.12 35.228 1.961 3.653 3.99 7.26 6.06 10.854 7.179 12.921 8.066 23.622 6.92 38.206a648 648 0 0 0-.487 7.05c-1.785 27.094-4.837 54.003-8.39 80.92l-.457 3.496q-.424 3.234-.864 6.464c-1.995 15.158-1.995 15.158.941 21.031l1.242 2.543L421.5 522l1.383 2.803c1.356 2.74 2.733 5.47 4.117 8.197l2.094 4.152.962 1.91c11.497 22.847 20.726 46.286 28.944 70.5l.844 2.466c3.116 9.384 4.525 18.69 5.219 28.534l.251 3.484c.972 15.061 1.128 30.158 1.344 45.245l.05 3.159q.045 2.943.077 5.888c.228 14.923.228 14.923 3.113 19.451l1.186 1.892 1.291 1.944 1.344 2.083c4.665 7.106 9.896 13.724 15.281 20.292l2.273 2.824C503.504 761.947 516.133 777.353 530 791c2.319-.942 3.713-1.54 5.06-3.695l.795-2.06.928-2.351.96-2.57c.342-.89.686-1.778 1.04-2.695 4.017-10.52 7.69-21.164 11.342-31.817l2.236-6.49q2.257-6.555 4.507-13.113 2.444-7.123 4.912-14.237C571.313 684.46 580.223 656.76 589 629l1.76-5.559q2.343-7.406 4.678-14.816l.702-2.228 1.919-6.108 1.072-3.415L600 594l.541-1.68c2.577-13.029-.14-27.504-1.885-40.488l-.741-5.729a4126 4126 0 0 0-2-15.165q-.836-6.305-1.661-12.611C567.914 317.714 567.914 317.714 526 258l-1.569-2.251q-4.51-6.467-9.098-12.876a460 460 0 0 1-3.618-5.17C503.863 226.507 494.702 219.791 481 217c-21.367-2.374-44.856 14.384-62.362 24.483M300 236l-1.249 1.674c-1.492 1.852-2.697 3.115-4.751 4.326-3.694.164-7.056-.74-10.625-1.625-25.289-5.284-49.566-.56-74.625 4.063l-2.421.439C192.964 247.32 181.455 249.802 171 259l-2.43 2.066c-17.585 15.312-32.29 34.864-45.257 54.184l-1.242 1.84C118.6 322.358 117 325.635 117 332h13c1.432 5.726 1.859 11.139 1 17-1.393 2.219-2.875 3.511-4.895 5.172-3.918 3.402-6.723 7.783-9.754 11.968-1.502 2.067-3.018 4.124-4.535 6.18C94.031 396.55 94.031 396.55 93 404l3.254.332 4.308.48 2.135.213c5.994.69 11.27 1.888 15.615 6.35 3.716 5.78 5.556 12.17 4.22 19.031-2.422 7.896-7.138 12.366-13.532 17.281l-1.867 1.471c-2.458 1.912-4.665 3.629-7.508 4.924C98 455 98 455 97.25 457.125L97 459c12.604 12.269 29.264 18.437 46.894 19.074 10.323-.364 21.791-4.788 29.106-12.074 2.45-3.149 4.25-6.422 6-10l1.59-3.18c8.66-17.996 8.454-32.548 4.267-51.693a552 552 0 0 1-1.574-7.56c-2.79-13.335-6.915-24.738-18.553-32.844C155.773 355 155.773 355 153 355v2l-4-1 .656-3.395.844-4.418.434-2.236c.575-3.029 1.066-5.86 1.066-8.951l2.664.266c4.24-.338 5.596-1.684 8.711-4.516 8.382-7.566 15.926-9.539 27-11.062l3.54-.55c10.006-1.44 19.417-2.07 28.085 3.862 5.141 4.863 7.12 11.678 7.375 18.625-.497 14.495-4.316 28.682-14.375 39.375-3.489 2.721-6.836 4.53-11 6 .435 6.137 1.35 11.925 2.868 17.886 4.723 18.635 3.35 31.316-3.02 49.426-1.593 4.616-2.48 8.825-2.848 13.688 31.03-5.15 63.705-12.029 92-26l3.059-1.453c23.955-12.1 40.65-33.303 49.191-58.422 6.687-20.713 9.712-43.812.625-64.25-3.05-5.739-7.357-10.258-11.875-14.875l-2.5-2.562L329 300l-1.738-1.875c-6.502-6.857-13.89-12.267-21.494-17.815-2.306-1.709-4.544-3.496-6.768-5.31 1.399-11.683 10.414-20.62 19-28 7.893-5.49 16.698-6.655 26-5 1.672.307 3.342.626 5 1l.188 1.625C350 247 350 247 352.313 249.5c6.334 7.385 7.439 17.338 7.226 26.727-.765 5.357-2.68 9.47-5.226 14.261C353 293 353 293 353 295c3.502.473 4.732.2 7.613-1.95 9.263-9.396 17.416-18.962 17.637-32.738-.133-10.904-3.893-20.452-11.29-28.542-9.088-8.56-19.029-12.45-31.5-12.852-14.566.486-25.34 6.995-35.46 17.082m273.832-9.188q-3.498.094-6.996.182-5.46.14-10.916.312c-1.958.06-3.917.111-5.875.163l-3.504.12-3.043.095C541 228 541 228 538 230l2.168 2.691c30.768 39.094 45.102 87.915 55.52 135.809l.51 2.307c7.614 34.702 12.05 70.122 16.488 105.34q.77 6.085 1.552 12.17c2.325 18.158 4.62 36.319 6.797 54.495l.433 3.602c.624 5.207 1.239 10.415 1.833 15.626l.613 5.218.25 2.305c.422 3.525.827 5.423 2.836 8.437 26.583-2.313 46.59-14.269 65.86-32.047a97 97 0 0 1 5.327-4.515c16.145-13.992 27.915-34.393 36.906-53.513.84-1.783 1.705-3.556 2.571-5.327 12.59-27.001 19.581-56.365 25.54-85.418 3.482-16.866 3.482-16.866 8.796-22.18 17.202 48.636 3.531 107.004-15.206 153.225-2.665 6.722-4.063 11.477-1.36 18.502a166 166 0 0 0 2.004 3.898l1.09 2.109C762.144 559.56 766.38 565.805 771 572l2.336 3.133c5.115 6.737 10.427 13.307 15.779 19.857a724 724 0 0 1 10.322 12.947c4.755 6.097 9.653 12.068 14.58 18.025a886 886 0 0 1 10.874 13.401c2.784 3.481 5.605 6.932 8.422 10.387a886 886 0 0 1 12.312 15.438c3.955 5.074 8.044 10.009 12.23 14.894 4.01 4.702 7.833 9.54 11.618 14.426 1.763 2.273 3.49 4.455 5.527 6.492 5.641-.535 9.069-5.742 12.523-9.78a215 215 0 0 0 4.414-5.658l1.646-2.162c4.814-6.424 9.331-13.04 13.792-19.712l1.98-2.961c13.298-20.121 16.817-32.948 13.774-56.778l-.599-4.784q-.805-6.41-1.627-12.82l-1.02-7.995C907.978 484.946 907.978 484.946 900 451l-.869-3.716C886.63 394.68 866.314 345.316 832 303l-2.148-2.727C821.505 289.817 812.494 279.361 802 271l-2.707-2.215c-35.111-27.956-76.134-42.926-120.93-42.953l-4.962-.013a6123 6123 0 0 0-16.088-.006h-5.536c-25.99.006-51.965.287-77.945.999m-388.61 119.614C184 348 184 348 184 350.875c1.41 4.404 3.913 6.848 7.832 9.246 5.338 2.164 11.533 1.5 16.793-.496C211 358 211 358 212 356c.38-5.69.01-8.984-3-14-17.262-.8-17.262-.8-23.777 4.426M844 816c-2.59 4.4-4 7.862-4 13 19.399 1.668 19.399 1.668 26.375-4.125A139 139 0 0 0 871 820q1.874-1.627 3.75-3.25c2.25-2.75 2.25-2.75 2.125-5.625L876 809c-11.97-3.482-23.385-3.12-32 7" id="svg-layer-1" style="pointer-events: all;"/><path fill="none" d="M653.909 225.696q4.04-.013 8.08-.037C723.213 225.344 773.542 242.5 818 286c2.486 2.56 4.747 5.235 7 8q1.335 1.548 2.672 3.094c14.442 16.954 27.06 36.17 37.306 55.935a433 433 0 0 0 3.01 5.674C890.037 400.443 900.64 447.747 908 494l.439 2.755c4.62 29.139 8.574 58.359 12.255 87.629q.457 3.625.917 7.25.726 5.74 1.435 11.482.263 2.122.53 4.242c3.927 31.113-11.01 51.062-29.386 75C882.55 697.182 882.55 697.182 878 701c-1.984.184-1.984.184-4-1a83 83 0 0 1-5.25-5.937l-1.477-1.794A665 665 0 0 1 863 687l-2.04-2.523a1115 1115 0 0 1-3.753-4.707c-2.776-3.484-5.584-6.94-8.394-10.395l-1.68-2.065a7690 7690 0 0 0-8.473-10.404c-5.087-6.24-10.146-12.495-15.097-18.843-5.219-6.687-10.609-13.225-16.012-19.762C798.207 606.996 788.963 595.61 780 584l-1.807-2.33C752.538 548.483 752.538 548.483 754 536c1.127-3.669 2.559-7.195 4-10.75 17.752-45.72 30.917-102.418 14-150.25a211 211 0 0 0-2.312 3.438l-1.301 1.933c-4.12 7.81-5.471 16.481-7.137 25.067C753.803 442.369 743.14 480.354 722 512l-1.198 1.802C713.824 524.177 705.845 533.155 697 542l-1.895 2.035C676.67 563.522 653.59 575.435 627 578c-1.95-2.925-2.32-3.953-2.725-7.276-.11-.875-.22-1.749-.335-2.65l-.341-2.902-.38-3.069c-.418-3.378-.824-6.758-1.23-10.138l-.883-7.161q-1.171-9.506-2.325-19.015a19982 19982 0 0 0-4.105-33.512l-.457-3.704a3391 3391 0 0 0-6.957-52.995l-.425-3.06A933 933 0 0 0 597 375l-.416-2.055C586.353 322.618 571.212 270.266 538 230c3.353-2.235 4.606-2.289 8.541-2.41l3.504-.121 3.861-.102 4.082-.126c3.723-.114 7.446-.212 11.169-.306q3.515-.09 7.03-.185c25.904-.687 51.81-.992 77.722-1.054" id="svg-layer-2" style="pointer-events: all; fill: none;"/><path fill="none" d="M500.703 225.266c7.595 5.735 12.488 13.794 17.602 21.664 2.255 3.45 4.638 6.787 7.064 10.118 54.632 75.33 58.327 180.75 73.684 299.055q.375 2.967.752 5.935c1.847 14.782 2.135 25.883-2.278 40.243l-1.078 3.57c-4.011 13.177-8.31 26.26-12.636 39.337l-2.527 7.668-.635 1.93-3.147 9.552a3177 3177 0 0 0-7.102 21.803c-9.587 29.814-19.64 59.475-30.652 88.797l-1.338 3.588-1.24 3.251-1.06 2.79c-1.116 2.441-2.42 4.357-4.112 6.433-8.224-3.527-14.317-12.299-20-19l-2.387-2.793c-2.36-2.767-4.703-5.548-7.04-8.334q-1.611-1.918-3.228-3.832c-32.336-38.334-32.336-38.334-32.591-61.557l-.095-6.191c-.015-1.07-.03-2.139-.047-3.24-.93-61.578-16.249-110.65-45.427-165.002l-1.216-2.27-1.08-1.998c-5.24-10.513.018-28.494 1.523-39.762 3.174-23.946 5.603-47.917 7.235-72.018.207-3.032.439-6.058.726-9.084 1.742-18.86-4.159-31.641-13.373-47.919a3119 3119 0 0 1-3.336-6.113 571 571 0 0 0-13.113-22.551l-1.68-2.754a490 490 0 0 0-3.178-5.115c-4.744-7.692-4.744-7.692-4.693-12.467.83-2.832 2.013-5.45 3.25-8.125 3.565-8.224 6.773-16.08 6.828-25.18l.036-2.289a75 75 0 0 0-.107-4.445c0-2.26.157-3.855.993-5.961 2.662-2.596 5.747-4.236 9-6l2.777-1.615a550 550 0 0 1 9.098-5.135l3.32-1.844A4273 4273 0 0 1 434 233l2.768-1.538c21.395-11.86 41.345-20.729 63.935-6.196" id="svg-layer-3" style="pointer-events: all; fill: none;"/><path fill="none" d="M363.934 229.02c7.921 7.592 13.582 16.718 14.234 27.847.102 15.72-7.022 25.32-17.773 36.367-2.747 2.025-4.063 2.168-7.395 1.766.84-2.728 1.652-5.363 3.023-7.875 4.768-8.927 4.194-19.109 1.352-28.625-1.681-4.494-3.769-7.757-7.203-11.098C349 246 349 246 349 243c-9.534-2.455-17.853-2.695-26.848 1.715-9.23 5.512-19.693 15.927-23.152 26.285-.117 2.375-.117 2.375 1 5 2.445 2.36 5.172 4.283 7.938 6.25q2.337 1.719 4.667 3.45l2.291 1.696c3.538 2.697 6.78 5.66 10.026 8.702C327 298 327 298 329.555 300.02c11.437 9.262 19.253 22.437 21.445 36.98 1.818 27.549-4.399 57.638-22.633 79.172C300.47 447.964 261.597 456.892 222 466l-2.503.576q-3.726.854-7.454 1.694l-2.311.527c-2.975.665-5.673 1.203-8.732 1.203.454-5.996 1.942-11.114 3.935-16.777 7.264-20.767 4.903-35.332-.384-56.43-.53-2.682-.656-5.07-.551-7.793l1.977-.848C216.083 383.517 220.824 377.21 225 367c4.005-12.082 6.481-25.04 1-37-2.944-4.907-6.749-7.092-12-9-7.984-1.678-15.657-.548-23.625.688l-3.562.49c-11.388 1.708-17.625 5.288-26.102 12.994-3.186 2.148-4.946 2.203-8.711 1.828a684 684 0 0 0-1 5.5l-.562 3.094C150 349 150 349 150.21 352.774c.059 5.366-2.235 9.632-4.586 14.351l-1.37 2.797C136.843 384.672 126.68 396.43 115 408l-2.02-.621c-6.674-1.951-13.041-2.99-19.98-3.379 5.035-16.323 17.637-30.52 28-43.812l1.31-1.686c2.03-2.566 4.026-4.8 6.48-6.979 2.818-3.217 2.77-4.872 2.585-9.086l-.102-3.378C131 336 131 336 130 332h-13c.432-5.931 1.422-9.467 4.813-14.5l1.193-1.782a358 358 0 0 1 31.88-40.382c1.898-2.098 3.727-4.237 5.552-6.399C164.593 264.199 169.132 260 174 256l2.09-1.727c13.066-9.214 32.74-9.855 48.16-12.523l2.292-.397c11.194-1.923 22.267-3.547 33.646-3.666l2.558-.046c4.947.013 9.4.518 14.207 1.71 14.842 3.68 14.842 3.68 19.163 1.66 3.826-2.913 6.653-6.593 9.545-10.4 5.647-6.794 15.309-9.45 23.589-11.361 12.924-.862 24.601 1.31 34.684 9.77" id="svg-layer-4" style="pointer-events: all; fill: none;"/><path fill="#E98725" d="M153 355c10.038 2.933 18.768 9.92 24 19 3.811 7.769 5.579 16.036 7.292 24.457.454 2.213.934 4.42 1.415 6.627 4.637 21.98.853 38.84-10.707 57.916-6.597 8.94-16.157 12.396-26.764 14.667C134.689 479.685 117.258 474.26 106 467c-3.146-2.525-6.11-5.187-9-8 .361-2.567.647-3.708 2.68-5.387l2.195-1.3c9.507-6.024 18.414-11.737 21-23.188.594-7.479-1.533-13.102-5.875-19.125-.887-1.898-.887-1.898-1-4 1.703-2.05 1.703-2.05 4.25-4.312C131.568 390.86 139.098 377.937 146 364q1.126-2.252 2.254-4.504L150 356l3 1z" id="svg-layer-5" style="pointer-events: all;"/><path fill="#E88725" d="M877 810c-.116 3.823-1.422 5.738-4 8.375a2597 2597 0 0 1-4 3.625l-1.762 2.004c-4.655 4.674-8.62 5.381-15.009 5.473-4.083-.058-8.154-.21-12.229-.477.844-7.528 3.244-12.743 8.875-17.875 9.036-6.145 18.48-4.955 28.125-1.125" id="svg-layer-6" style="pointer-events: all;"/><path fill="#DE8528" d="M209 342c3.005 5.009 3.644 8.299 3 14-2.207 2.969-3.486 3.829-7 5-7.144.694-12.238.442-18-4-2.256-2.75-3.022-4.07-2.937-7.625 1.197-3.034 2.06-3.826 4.937-5.375 6.68-2.266 12.993-2.21 20-2" id="svg-layer-7" style="pointer-events: all;"/></svg>