<svg xmlns="http://www.w3.org/2000/svg" width="1024" height="1024"><path fill="none" d="M0 0h1024v1024H0zm271 144-2.854.65c-34.104 8.019-64.92 24.252-91.146 47.35l-2.16 1.824c-10.966 9.3-20.293 19.653-28.84 31.176l-1.926 2.582C119.262 261.976 105.023 303.581 104 346l-.121 3.977c-1.304 62.742 24.598 122.199 64.281 169.789C170 522 170 522 171.621 524.296L173 526h2l.821 1.795c1.165 2.179 2.354 3.688 4.042 5.478l1.795 1.91 1.987 2.08 2.131 2.245c9.573 10.028 19.402 19.805 29.214 29.598q4.369 4.363 8.733 8.731 7.536 7.537 15.078 15.07 10.909 10.898 21.815 21.802a161755 161755 0 0 0 35.428 35.41 224578 224578 0 0 1 47.13 47.105 560230 560230 0 0 0 86.818 86.77q1.817 1.815 3.638 3.628c2.54 2.529 4.957 5.12 7.323 7.814 6.045 6.75 12.423 13.164 18.805 19.595l1.954 1.97q5.105 5.144 10.217 10.278 4.211 4.233 8.403 8.485 5.095 5.168 10.223 10.305 1.94 1.95 3.868 3.913a712 712 0 0 0 5.417 5.442l1.581 1.63c3.587 3.528 6.572 5.28 11.579 5.946 6.399-2.216 10.638-7.227 15.292-11.925l2.81-2.8c2.568-2.559 5.126-5.127 7.683-7.697 2.762-2.773 5.532-5.536 8.3-8.301q8.133-8.126 16.248-16.268c6.305-6.323 12.619-12.637 18.932-18.951q16.902-16.906 33.788-33.83a51574 51574 0 0 1 32.764-32.804l2.038-2.039 4.064-4.066 2.026-2.026 2.02-2.021q15.629-15.637 31.252-31.28l11.314-11.325q8.98-8.985 17.952-17.978 4.097-4.108 8.2-8.212 4.451-4.456 8.898-8.917l2.602-2.6c4.268-4.288 8.373-8.651 12.32-13.237 1.87-2.153 3.84-4.186 5.86-6.2l2.396-2.395 2.553-2.538 4.175-4.168 4.448-4.432q4.657-4.638 9.307-9.283a42417 42417 0 0 1 21.435-21.379q9.834-9.802 19.66-19.612 4.614-4.606 9.234-9.205l4.37-4.358q2.646-2.643 5.3-5.281c4.795-4.794 9.365-9.709 13.759-14.872l1.585-1.837C870.295 504.1 882.696 485.01 893 465l1.125-2.128c27.75-52.846 33.7-116.635 16.465-173.614-9.482-30.164-25.262-56.708-46.567-80.012a110 110 0 0 1-4.586-5.434c-3.18-3.67-6.732-6.682-10.437-9.812l-2.95-2.574c-27.987-24.32-62.353-41.277-98.872-48.02q-2.175-.405-4.34-.855c-21.65-4.47-47.09-4.758-68.838-.551l-2.428.457C627.754 150.949 587.659 171.593 555 202a756 756 0 0 1-3.937 3.375c-7.954 6.96-15.15 14.457-21.731 22.723-3.09 3.845-6.299 7.583-9.527 11.312-2.9 3.387-5.404 6.846-7.805 10.59a4106 4106 0 0 1-5-5.875l-1.536-1.807a292 292 0 0 1-8.214-10.13c-5.93-7.486-12.653-14.296-19.25-21.188l-2.36-2.488c-4.315-4.45-8.975-8.366-13.812-12.239a233 233 0 0 1-5.344-4.421C432.611 171.567 403.872 156.992 374 148l-2.093-.636C361.76 144.328 351.457 142.54 341 141l-3.249-.523c-3.968-.505-7.875-.673-11.868-.715l-2.321-.03c-17.867-.181-35.059.25-52.562 4.268" id="svg-layer-0" style="pointer-events: all; fill: none;"/><path fill="#FAF1DB" d="M435 221c3.414 2.92 6.713 5.94 10 9a748 748 0 0 0 4.063 3.5c7.086 6.186 14.298 12.94 19.937 20.5v2h2c1.742 2.027 1.742 2.027 3.875 4.938l1.186 1.616c1.321 1.81 2.63 3.627 3.939 5.446l1.402 1.93c6.581 9.078 12.79 18.314 18.59 27.914l1.414 2.304 1.229 2.037c1.987 2.641 4.064 4.579 7.365 5.178 7.304-.185 7.304-.185 10-2.363l.832-2.133c1.463-3.591 3.422-6.784 5.48-10.055l1.326-2.105c18.225-28.577 40.648-55.783 68.511-75.403a288 288 0 0 0 5.156-3.734C624.622 194.765 652.537 182.417 681 178l3.668-.617c44.871-6.678 91.113 6.002 127.469 32.719Q814.07 211.547 816 213l3.02 2.273c29.186 22.99 48.167 54.316 59.168 89.477l.72 2.231c4.365 14.502 5.597 29.429 5.483 44.498-.016 2.52 0 5.04.02 7.56.02 15.434-2.088 30.424-6.098 45.336l-.769 2.887c-8.226 29.88-22.591 57.3-41.544 81.738l-2.008 2.617c-8.702 11.106-18.002 21.694-28.14 31.504-2.078 2.044-3.985 4.176-5.873 6.395-4.595 5.27-9.54 10.178-14.492 15.111l-3.171 3.171a9761 9761 0 0 1-8.669 8.656q-4.685 4.678-9.366 9.358-8.106 8.102-16.217 16.2a62660 62660 0 0 0-23.47 23.447 201110 201110 0 0 1-38.113 38.08l-2.302 2.3-36.96 36.919q-18.99 18.969-37.973 37.942a63241 63241 0 0 1-23.408 23.384q-8.022 8.009-16.04 16.024-4.623 4.62-9.25 9.238a8162 8162 0 0 0-8.475 8.468l-3.058 3.052c-5.045 5.026-9.984 10.082-14.612 15.497-3.499 4.082-7.323 7.868-11.09 11.7l-2.55 2.662-2.462 2.498-2.214 2.273C514 817 514 817 512.176 816.92c-3.119-1.317-4.909-3.615-7.074-6.124-5.457-6.101-11.138-11.945-16.926-17.732l-2.782-2.784q-3.724-3.721-7.453-7.44-4.053-4.045-8.104-8.095-7-6.996-14.005-13.987-10.139-10.122-20.272-20.25a149229 149229 0 0 0-32.93-32.897l-1.985-1.983-29.927-29.889-1.988-1.985a150587 150587 0 0 1-32.834-32.804 47063 47063 0 0 0-20.22-20.194q-6.925-6.914-13.845-13.83a9845 9845 0 0 0-7.98-7.969 8301 8301 0 0 1-8.662-8.653l-2.53-2.52c-4.21-4.216-8.265-8.501-12.134-13.032-2.575-2.956-5.357-5.697-8.144-8.451l-1.88-1.872a3449 3449 0 0 0-4.004-3.975 4027 4027 0 0 1-6.36-6.325 14930 14930 0 0 0-18.072-17.967 7211 7211 0 0 1-11.092-11.037q-2.095-2.086-4.198-4.168C209.031 513.29 201.71 505.604 195 497a606 606 0 0 0-3.117-3.758c-34.359-41.712-57.42-98.349-52.383-152.988 4.378-42.674 21.182-88.571 55.477-116.567a82 82 0 0 0 4.359-3.937C264.943 156.704 368.26 166.794 435 221m215.07 50.297c-4.401 6.428-8.26 13.233-12.195 19.953l-3.803 6.457-2.517 4.275a962 962 0 0 1-7.395 12.354l-1.677 2.757a985 985 0 0 1-3.005 4.892c-3.286 5.4-5.758 10.365-5.79 16.827l-.051 2.333c1.013 7.965 4.603 14.453 8.8 21.168l3.239 5.285 1.67 2.707c2.122 3.458 4.2 6.94 6.277 10.426a2115 2115 0 0 0 5.945 9.893 1190 1190 0 0 1 2.832 4.725 971 971 0 0 0 3.975 6.589l1.153 1.952c3.874 6.31 8.156 10.125 15.472 12.11 3.394.274 3.394.274 7.148.306l2.087.026c2.261.024 4.523.032 6.785.04l4.752.026q4.974.024 9.948.028c4.23.005 8.459.043 12.689.088 3.271.03 6.542.037 9.814.038q2.337.006 4.675.038c8.62.107 16.17.167 23.102-5.59 2.12-2.203 2.12-2.203 3.547-4.473l1.697-2.64L751 401l1.959-3.125a845 845 0 0 0 6.291-10.312l2.245-3.716a1727 1727 0 0 0 12.88-21.66l1.313-2.238c5.203-9.003 7.78-16.316 6.312-26.949-1.66-5.054-4.238-9.481-7-14l-1.594-2.619c-3.757-6.13-7.594-12.209-11.448-18.278a877 877 0 0 1-5.68-9.142l-1.772-2.885q-1.65-2.692-3.294-5.389A403 403 0 0 0 747 274l-1.738-2.77c-6.924-6.827-14.767-7.873-24.167-7.9l-4.54.041q-2.371 0-4.743-.007-4.944-.004-9.889.04c-4.207.033-8.414.027-12.621.008-3.259-.01-6.517-.001-9.775.014q-2.327.008-4.653-.002c-18.27-.046-18.27-.046-24.804 7.873" id="svg-layer-1" style="pointer-events: all;"/><path fill="#082A3F" d="m314.625 139.688 2.539.004c12.493.04 24.61.531 36.836 3.308l2.077.454c4.019.894 7.995 1.902 11.962 3.004 1.993.55 3.992 1.072 5.992 1.593 33.943 9.113 65.957 28.15 91.711 51.875a221 221 0 0 0 6.195 5.449c10.837 9.454 20.156 20.215 29.25 31.313l1.827 2.22A887 887 0 0 1 512 250l1.977-2.598c12.082-15.833 12.082-15.833 17.378-20.28 5.62-4.877 10.833-10.16 16.082-15.429q2.632-2.637 5.272-5.265l3.396-3.4 1.57-1.564c2.461-2.477 4.797-4.987 7.009-7.692 2.543-3.044 5.322-5.236 8.566-7.46l1.842-1.281A779 779 0 0 1 581 181l1.939-1.333c46.288-31.714 102.966-46.99 158.77-37.573C772.673 147.882 803.446 159.279 829 178l3.152 2.293c10.026 7.436 19.036 15.88 27.848 24.707l2 1.86c33.29 31.47 51.771 78.45 57 123.14l.286 2.298c7.219 63.307-16.018 127.745-54.577 177.363a350 350 0 0 1-5.682 6.91c-2.541 3.045-4.938 6.19-7.324 9.359-2.077 2.524-4.385 4.771-6.703 7.07l-4.275 4.268-5.178 5.169q-14.467 14.443-28.928 28.892-8.745 8.738-17.495 17.472a28380 28380 0 0 0-15.304 15.284 10219 10219 0 0 1-8.084 8.073 6547 6547 0 0 0-7.608 7.601 3056 3056 0 0 1-4.093 4.082l-2.506 2.51-2.151 2.148a169 169 0 0 0-5.584 6.206c-4.141 4.76-8.563 9.212-13.023 13.672l-2.753 2.763q-3.752 3.767-7.511 7.528-4.063 4.07-8.12 8.143-9.784 9.809-19.574 19.612l-9.228 9.243a91291 91291 0 0 1-38.632 38.676l-1.995 1.997a40207 40207 0 0 0-32.035 32.1 34287 34287 0 0 1-32.918 32.973q-9.244 9.245-18.471 18.508a7426 7426 0 0 1-15.72 15.739 2539 2539 0 0 0-8.016 8.033 2096 2096 0 0 1-8.696 8.693l-2.55 2.584c-7.32 7.24-7.32 7.24-12.552 8.031-5.964-1.694-9.521-4.958-13.79-9.32l-1.934-1.928c-2.095-2.092-4.176-4.2-6.256-6.307l-4.38-4.39q-4.583-4.594-9.147-9.205a4351 4351 0 0 0-11.711-11.779q-5.604-5.621-11.2-11.25l-2.15-2.161a3747 3747 0 0 1-6.03-6.081l-1.794-1.802c-3.085-3.125-5.87-6.338-8.608-9.777a542 542 0 0 0-5-5l-4.438-4.435-4.008-4.005-7.71-7.705-1.672-1.671a607117 607117 0 0 1-89.482-89.439 246544 246544 0 0 0-35.545-35.523 171478 171478 0 0 1-36.508-36.49q-11.252-11.25-22.51-22.497-7.716-7.709-15.428-15.422-4.446-4.449-8.898-8.892a7558 7558 0 0 1-8.153-8.152 3441 3441 0 0 0-4.33-4.321c-13.375-13.406-13.375-13.406-15.317-17.611C175 526 175 526 172 525a118 118 0 0 1-5.062-6.25l-1.476-1.924a1483 1483 0 0 1-3.014-3.945 272 272 0 0 0-3.936-4.963C122.068 462.408 102.885 404.026 104 346l.022-2.07c.778-55.55 26.846-107.223 65.62-145.878 5.568-5.414 11.528-10.226 17.754-14.859a410 410 0 0 0 4.4-3.334C218.412 159.86 249.4 147.842 282 142l3.15-.569c9.845-1.599 19.53-1.787 29.475-1.744M198.371 220.75c-2.042 1.938-4.132 3.72-6.309 5.5-34.633 30.402-49.738 77.43-53.23 121.895-3.345 53.267 21.973 106.417 54.543 146.918l1.457 1.818c9.229 11.296 19.553 21.646 29.89 31.916a4270 4270 0 0 1 6.12 6.097q6.483 6.463 12.97 12.918 7.557 7.52 15.104 15.048 2.994 2.984 5.993 5.962l3.704 3.693 1.651 1.636a146 146 0 0 1 7.851 8.464c4.196 4.811 8.675 9.308 13.197 13.81l2.78 2.78q3.79 3.79 7.585 7.573 4.101 4.095 8.2 8.192 7.095 7.09 14.194 14.176 10.273 10.254 20.538 20.516 16.671 16.66 33.348 33.315l2.014 2.012 30.333 30.295 2.014 2.01q16.62 16.6 33.233 33.203 10.241 10.235 20.488 20.464 7.019 7.005 14.032 14.016a10169 10169 0 0 0 8.095 8.083q4.391 4.381 8.776 8.768l2.582 2.572c4.046 4.052 7.907 8.121 11.476 12.6 4.262-.47 6.546-3.145 9.395-6.066l1.546-1.553a719 719 0 0 0 3.23-3.27 910 910 0 0 1 4.878-4.925l3.158-3.19 1.443-1.456a158 158 0 0 0 7.376-8.07c4.596-5.263 9.54-10.168 14.487-15.097l3.171-3.171q4.332-4.331 8.669-8.656 4.685-4.678 9.366-9.358 8.106-8.102 16.217-16.2a62660 62660 0 0 0 23.47-23.447q19.054-19.042 38.113-38.08l2.302-2.3 36.96-36.919q18.99-18.969 37.973-37.942 11.7-11.695 23.408-23.384 8.022-8.009 16.04-16.024 4.623-4.62 9.25-9.238a8162 8162 0 0 0 8.475-8.468l3.058-3.052c5.045-5.027 9.984-10.081 14.604-15.505 1.973-2.277 4.115-4.355 6.286-6.442 4.276-4.23 8.11-8.66 11.855-13.363q2.265-2.82 4.633-5.554C856.693 465.825 875.568 426.754 882 387l.506-2.63c1.634-9.152 1.833-18.13 1.81-27.397-.003-2.573.02-5.146.045-7.72.06-15.116-1.505-30.057-6.173-44.503-.26-.827-.518-1.653-.784-2.505C869.967 278.938 859.098 257.506 843 239c-.73-.842-1.462-1.684-2.215-2.55A393 393 0 0 0 834 229l-2.227-2.426C804.241 197.706 760.031 177.091 720 176l-2.372-.078C673.854 174.638 633.226 188.093 598 214l-1.757 1.281C588.01 221.321 580.352 227.917 573 235l-2.002 1.92c-9.493 9.149-18.21 18.444-25.998 29.08l-3.137 4.203a415 415 0 0 0-16.676 24.297l-1.581 2.483-1.438 2.298-1.273 2.033C520 303 520 303 520 305c-3.16 2.107-6.16 2.297-9.902 2.46-3.777-.829-6.125-3.087-8.333-6.202a213 213 0 0 1-3.827-6.445C492.426 285.515 486.36 276.732 480 268l-1.371-1.904a772 772 0 0 0-3.754-5.159l-2.133-2.91L471 256h-2l-.83-1.801c-1.13-2.123-2.273-3.623-3.9-5.379l-1.66-1.793-1.798-1.902-1.883-1.997C438.364 221.54 415.131 204.484 388 192l-1.977-.92c-60.84-27.946-138.696-16.886-187.652 29.67" id="svg-layer-2" style="pointer-events: all;"/><path fill="#082A40" d="m668.018 263.694 2.082-.026c2.262-.024 4.524-.032 6.787-.04l4.75-.026q4.976-.024 9.953-.028c4.228-.005 8.456-.043 12.685-.088 3.271-.03 6.542-.037 9.814-.038q2.336-.006 4.672-.038c8.89-.11 16.79.04 24.239 5.59 2.382 2.488 4.2 5.067 6 8l1.56 2.458c1.7 2.725 3.355 5.473 5.003 8.23l3.69 6.125 1.88 3.117c2.36 3.88 4.77 7.727 7.186 11.573 2.595 4.145 5.143 8.317 7.681 12.497l1.143 1.846c4.82 7.887 6.56 14.956 4.857 24.154-2 5.735-4.903 10.791-8 16l-1.886 3.187c-4.302 7.24-8.693 14.424-13.123 21.587q-2.587 4.195-5.14 8.41-1.299 2.127-2.601 4.253l-1.119 1.858c-3.834 6.192-8.413 10.75-15.131 13.705-3.521.501-3.521.501-7.277.502l-2.092.016c-2.262.012-4.522-.004-6.783-.022q-2.377 0-4.756.005-4.971 0-9.942-.034c-4.231-.029-8.462-.026-12.693-.013-3.271.007-6.542-.001-9.813-.014q-2.34-.006-4.678 0c-17.955.024-17.955.024-23.542-4.8-5.095-5.2-8.476-12.178-12.126-18.43-1.827-3.11-3.69-6.2-5.552-9.29-2.041-3.388-4.071-6.784-6.102-10.179-1.748-2.915-3.507-5.824-5.265-8.733l-3.567-5.945-1.711-2.817-1.581-2.648-1.404-2.328c-2.847-5.789-3.221-13.334-1.485-19.517 2.945-7.42 6.969-14.057 11.182-20.815q1.707-2.766 3.41-5.533l2.326-3.769c2.62-4.25 5.175-8.535 7.693-12.847l2.017-3.433a924 924 0 0 0 3.742-6.448c5.773-9.8 11.123-15.112 23.017-15.214m2.439 38.658A98 98 0 0 0 668 308a233 233 0 0 1-3.352 5.508q-1.642 2.805-3.273 5.617l-3.29 5.633-1.563 2.696c-1.8 3.01-3.74 5.913-5.75 8.788C650 338 650 338 650.149 339.826c1.187 3.032 2.768 5.717 4.421 8.522l1.09 1.854q1.143 1.945 2.294 3.886c1.527 2.575 3.042 5.158 4.555 7.742q1.125 1.895 2.286 3.77c1.789 2.894 3.259 5.538 4.502 8.727 1.538 3.549 2.598 5.326 5.703 7.673 6.508 1.918 13.333 1.79 20.06 1.709 3.241-.021 6.457.1 9.696.234 14.434.231 14.434.231 19.112-3.388 3.243-3.707 5.236-7.945 7.171-12.44 1.46-3.215 3.348-6.02 5.29-8.97q1.962-3.165 3.921-6.332l2.082-3.268 1.934-3.15 1.743-2.786c.991-2.609.991-2.609.284-5.225L745 336l-.955-1.827-1.006-1.712-1.162-1.982-1.252-2.104-1.307-2.207c-3.526-5.919-7.15-11.774-10.818-17.606l-1.564-2.492-1.467-2.316-1.3-2.053C723 300 723 300 721 298c-1.94-.308-1.94-.308-4.339-.386l-2.721-.097c-4.12-.09-8.24-.171-12.36-.217q-3.255-.05-6.508-.164c-20.383-.715-20.383-.715-24.615 5.216" id="svg-layer-3" style="pointer-events: all;"/><path fill="#D86A15" d="m679.241 297.76 2.732-.078q6.213-.127 12.426-.197 3.276-.048 6.55-.143c3.147-.092 6.29-.13 9.438-.158l2.945-.116c6.636.019 6.636.019 9.556 2.603 1.557 2.04 2.858 4.091 4.112 6.329l1.656 2.538 1.274 2.161c.24.406.24.406 1.46 2.457l1.485 2.531c5.98 10.152 5.98 10.152 8.75 14.329l1.165 1.778a430 430 0 0 0 3.077 4.577C747 339 747 339 746.302 341.257c-1.515 3.192-3.217 6.21-5.005 9.259l-1.092 1.864a1766 1766 0 0 1-2.29 3.893 1816 1816 0 0 0-3.442 5.872 7075 7075 0 0 1-4.263 7.25l-1.068 1.716a77 77 0 0 0-2.38 4.265c-3.415 6.038-3.415 6.038-6.99 7.593-2.706.538-5.285.77-8.042.894-.99.065-1.98.13-3 .195-3.183.162-6.355.225-9.543.255l-3.251.055c-18.536.067-18.536.067-24.675-4.946-5.878-6.025-8.937-13.956-11.76-21.744-2.074-5.083-4.956-9.36-8.062-13.867C650 341 650 341 650.07 338.494c1.126-3.016 2.576-5.551 4.283-8.283l2.082-3.356 2.191-3.48q1.062-1.704 2.121-3.41c2.074-3.329 4.161-6.648 6.254-9.965l2.05-3.253c5.607-8.861 5.607-8.861 10.191-8.987" id="svg-layer-4" style="pointer-events: all;"/><path fill="#051926" d="m561 196 2 1-33 33c0-3.615.58-3.983 3-6.512l1.927-2.035 2.073-2.14 2.09-2.19A1199 1199 0 0 1 545 211l2.496-2.586c4.298-4.376 8.834-8.44 13.504-12.414" id="svg-layer-5" style="pointer-events: all;"/></svg>