<svg xmlns="http://www.w3.org/2000/svg" width="1024" height="1024"><path fill="none" d="M0 0h1024v1024H0zm407.372 67.482c-5.324 5.89-6.99 14.482-9.122 21.893-8.961 30.05-23.879 58.962-52.25 74.625-5.16 2.521-10.5 4.372-16 6l-3.43 1.027c-17.062 4.198-36.645 3.52-53.57-1.027l-3.562-.926c-16.38-4.854-31.38-13.731-45.046-23.834-5.324-3.855-10-6.376-16.79-6.166-11.38 3.531-18.434 16.114-25.322 25.243-2.143 2.817-4.337 5.593-6.53 8.37A2962 2962 0 0 0 163 189a3127 3127 0 0 1-12.5 16 3343 3343 0 0 0-19.5 25l-1.76 2.28q-2.504 3.26-4.99 6.532l-1.52 1.975c-5 6.624-6.534 11.892-5.73 20.213 1.855 6.432 6.449 8.87 12 12 2.969 1.562 5.954 3.09 8.938 4.625C151.556 284.642 164.334 293.053 176 303l3.43 2.875c10.266 8.65 19.176 17.614 27.57 28.125l1.996 2.398c31.995 38.755 48.213 89.763 48.254 139.664l.002 2.264C257.171 535.25 236.494 591.588 204 638l-1.135 1.633C192.762 654.148 181.745 667.785 170 681l-2.648 2.992c-6.96 7.695-14.278 15.037-21.602 22.383l-1.575 1.583c-5.295 5.315-10.609 10.559-16.312 15.441-3.318 2.85-6.526 5.82-9.738 8.789l-2.008 1.826-1.922 1.779-1.718 1.579c-2.757 3.039-3.78 5.874-3.852 9.94l-.086 2.176c1.238 6.743 6.37 12.096 10.648 17.2 4.616 5.59 9.076 11.25 13.391 17.078 2.976 4 6.045 7.927 9.11 11.859l1.803 2.315q3.654 4.687 7.313 9.369c6.633 8.488 13.215 17.005 19.65 25.644 4.428 5.927 8.967 11.764 13.528 17.589A503 503 0 0 1 194 863.812c3.974 5.302 7.182 8.912 13.313 11.688 6.436.873 10.428-.788 15.59-4.7 2.811-2.338 5.542-4.766 8.274-7.197C269.862 829.581 315.892 809.664 368 813c30.476 3.2 56.33 19.078 78 40l1.694 1.623c25.041 24.442 38.4 56.47 46.384 89.885 3.037 12.495 3.037 12.495 7.922 16.492 5.483 3.148 9.91 3.473 16 2 5.974-3.102 9.092-7.159 11.137-13.56q.47-1.969.906-3.944l1.05-4.403.54-2.304C539.102 907.147 552.567 880.677 575 857l1.334-1.433c23.12-24.711 56.74-40.884 90.69-42.674 30.238-.938 58.433 6.997 84.976 21.107l3.45 1.797C769.906 843.655 782.99 853.8 795 865c11.222 10.208 11.222 10.208 17.879 11.11 7.443-.384 12.377-5.946 17.121-11.11 2.033-2.475 3.93-5.034 5.813-7.625q1.567-2.124 3.136-4.246l1.556-2.113a544 544 0 0 1 6.62-8.703l1.226-1.589L852 836q2.501-3.25 5-6.5a9181 9181 0 0 1 7.29-9.469 5433 5433 0 0 0 9.484-12.344c7.878-10.28 15.687-20.603 23.334-31.055a546 546 0 0 1 12.904-16.87c3.736-5.19 5.88-9.292 4.988-15.762-2.805-7.325-9.295-12.21-15.017-17.241-8.814-7.818-17.3-15.913-25.612-24.258a2085 2085 0 0 0-5.1-5.093C863.634 691.774 858.148 686.091 853 680q-1.424-1.626-2.852-3.246C807.326 627.669 775.96 568.174 768 503l-.29-2.346c-6.552-58.275 11.818-118.74 48.037-164.513C820.86 329.814 826.375 323.873 832 318l2.148-2.273c17.551-18.124 39.887-31.63 62.015-43.38 4.874-2.63 8.756-4.916 11.087-10.16 1.939-8.24-.202-13.09-4.25-20.187-2.004-2.955-4.19-5.728-6.437-8.5l-3.747-4.719-1.921-2.402c-3-3.766-5.946-7.573-8.895-11.379l-3.484-4.48-1.748-2.248-5.409-6.948A3765 3765 0 0 1 856 181.5a3042 3042 0 0 0-17.396-22.448 828 828 0 0 1-2.978-3.83c-10.735-13.895-10.735-13.895-18.231-15.929C807.202 138.261 799.92 144.456 792 150c-26.795 18.392-58.763 27.792-91.359 21.972-23.591-5.054-42.403-20.296-55.47-40.147-10.7-16.673-17.354-35.983-23.038-54.872C619.785 70.833 616.657 67.25 611 64c-4.265-1.422-8.42-1.376-12.894-1.552l-3.183-.127c-15.017-.537-30.044-.486-45.068-.488l-7.762-.006q-13.589-.013-27.176-.012-12.598-.001-25.195-.026-10.896-.019-21.793-.018-6.474.002-12.948-.013-6.072-.014-12.145-.003-2.212.003-4.426-.007c-24.05-.093-24.05-.093-31.038 5.734" id="svg-layer-0" style="pointer-events: all; fill: none;"/><path fill="#F1E1C4" d="M498 91c.21 10.24.369 20.48.466 30.722.047 4.757.11 9.512.213 14.268.098 4.598.152 9.194.175 13.792q.024 2.62.098 5.24c.412 15.358.412 15.358-5.308 22.391A185 185 0 0 1 489 182a133 133 0 0 0-3.18 3.96c-.453.575-.907 1.148-1.375 1.74l-1.32 1.675-1.39 1.746c-7.437 9.435-7.437 9.435-7.141 15.941.751 3.586 2.436 4.958 5.406 6.938 5.228.958 8.023.318 12.5-2.5 7.128-5.214 12.873-11.747 18.5-18.5 3.188 1.398 5.228 3.03 7.61 5.555l2.038 2.113q2.085 2.19 4.157 4.39c4.42 4.564 8.29 7.532 14.195 9.942 3.35 0 4.587-.71 7.313-2.625 1.778-2.503 2.4-4.13 2.183-7.21-2.576-11.237-11.356-22.079-20.123-29.34-3.03-3.606-3.084-6.414-3.032-10.92l-.032-2.426a590 590 0 0 1-.016-7.905q-.02-2.746-.046-5.494a1937 1937 0 0 1-.054-14.435c-.01-5.778-.059-11.556-.1-17.334-.06-8.77-.072-17.54-.093-26.311l66 1c5.601 11.203 5.601 11.203 7.29 15.926l1.146 3.132 1.189 3.254c6.542 17.375 14.23 33.535 26.375 47.688l2.168 2.656c18.417 21.738 46.489 34.084 74.48 37.18 37.324 2.592 72.458-4.531 103.223-26.852C809 174 809 174 810.934 174.402c3.094 2.393 5.311 5.325 7.691 8.41l1.597 2.035q2.4 3.069 4.778 6.153l1.371 1.768c3.708 4.783 7.378 9.594 11.05 14.404l2.454 3.203 1.237 1.614a576 576 0 0 0 8.305 10.503c4.728 5.856 9.356 11.77 13.833 17.82l1.449 1.941C868 246.76 868 246.76 868 249a140 140 0 0 1-6.875 4.313C846.835 262.015 833.534 271.929 821 283l-2.598 2.262C770.687 327.382 743.616 389.304 737 452l-.398 3.707c-.302 3.435-.482 6.847-.602 10.293l-.083 2.258c-2.44 77.469 30.844 150.929 77.718 210.992a739 739 0 0 1 4.19 5.438c4.976 6.464 10.124 12.647 15.69 18.617a213 213 0 0 1 5.473 6.199c4.815 5.521 10.022 10.655 15.209 15.823q2.604 2.6 5.2 5.206c5.22 5.223 10.423 10.382 16.117 15.098C877 747 877 747 879 750l-1.18 1.293c-5.103 5.703-9.754 11.722-14.38 17.812-2.084 2.742-4.177 5.476-6.27 8.212l-3.352 4.384a5585 5585 0 0 1-12.224 15.924c-2.477 3.22-4.945 6.447-7.412 9.675l-3.348 4.377c-2.577 3.367-5.15 6.738-7.709 10.12l-2.625 3.453-2.281 3.016c-2.25 2.772-4.651 5.257-7.219 7.734l-2.246-1.766c-28.55-22.299-58.11-39.401-93.504-47.984l-2.468-.602c-12.42-2.884-24.667-4.032-37.407-3.96l-2.113.006c-41.06.203-81.826 14.989-112.043 43.244-1.976 1.836-4.009 3.54-6.094 5.25C536.377 846.644 523.629 869.343 512 891c-2.266-2.759-4.386-5.42-6.078-8.566l-1.067-1.953-1.105-2.043c-23.393-42.328-59.217-77.05-106.35-90.793-50.292-13.514-102.33-3.092-147.184 22.068-10.28 5.969-19.793 13.065-29.216 20.287q-2.373 1.784-4.75 3.563l-1.922 1.44L213 836c-4.37-4.14-8.019-8.673-11.687-13.437l-1.882-2.43a441 441 0 0 1-11.465-15.596c-5.132-7.264-10.592-14.281-15.997-21.342a1422 1422 0 0 1-11.784-15.63 348 348 0 0 0-7.181-9.335l-1.438-1.812a266 266 0 0 0-2.71-3.348c-1.188-1.496-1.188-1.496-2.856-4.07 1.113-3.339 1.986-4.085 4.625-6.285l2.2-1.868L155 739c9.225-8.265 18.069-16.95 26.854-25.678q1.56-1.548 3.123-3.09A235 235 0 0 0 204 689q2.182-2.63 4.375-5.25C219.658 669.9 229.455 655.086 239 640l1.418-2.24c29.806-47.633 48.149-103.492 47.894-159.885l-.005-2.568c-.05-13.946-.768-27.565-3.307-41.307l-.536-2.917C281.93 417.737 278.424 404.836 274 392l-.756-2.26C261.041 353.395 241.236 321.724 215 294l-1.934-2.062C208.118 286.81 202.582 282.41 197 278l-1.788-1.43C183.026 266.857 170.144 258.356 157 250c1.607-4.265 3.605-7.344 6.438-10.937l1.34-1.713c1.402-1.787 2.812-3.569 4.222-5.35q1.308-1.663 2.613-3.328 1.999-2.549 4.002-5.092 3.89-4.935 7.737-9.904c6.313-8.157 12.69-16.248 19.217-24.234A563 563 0 0 0 214 175a60 60 0 0 1 9.59 4.61l2.604 1.528 2.744 1.612c33.73 19.475 71.87 25.727 109.838 15.607 31.799-9.198 58.225-29.328 74.376-58.433 6.05-11.416 10.38-23.48 14.575-35.669l1.207-3.505 1.064-3.14C431 95 431 95 433 92c1.814-.399 1.814-.399 4.04-.432l2.535-.06 2.76-.02 2.875-.054c3.055-.054 6.11-.088 9.165-.121q2.985-.05 5.969-.104c12.552-.212 25.102-.24 37.656-.209" id="svg-layer-1" style="pointer-events: all;"/><path fill="#07233B" d="M440.667 61.87q2.362-.001 4.725-.005 6.387-.005 12.776 0c4.482.003 8.964 0 13.445 0q11.304-.004 22.608.005 12.994.007 25.99-.002 11.21-.007 22.42-.003 6.672.003 13.343-.001c31.676-.02 31.676-.02 43.857.394l2.256.041c6.32.293 11.585 2.503 16.163 6.826 3.785 6.218 5.951 13.29 8.132 20.204 9.158 28.945 23.37 58.904 51.309 73.865 25.848 13.258 54.766 12.506 81.978 3.787 16.37-5.582 30.233-14.99 44.414-24.71 4.951-3.284 10.138-2.987 15.917-2.271 11.644 4.708 20.795 21.264 28.04 31.035 2.72 3.66 5.507 7.262 8.335 10.84l1.346 1.704 1.377 1.741c3.26 4.126 6.488 8.277 9.715 12.43l1.784 2.296 3.605 4.64q3.526 4.538 7.057 9.075 1.736 2.232 3.468 4.468c3.014 3.886 6.05 7.75 9.125 11.587l1.914 2.409a538 538 0 0 0 3.617 4.5c4.525 5.715 8.169 11.56 9.054 18.9-.721 5.567-2.152 9.66-6.562 13.25-3.99 2.766-8.253 4.914-12.562 7.125-21.239 10.914-40.125 25.537-57.313 42l-2.273 2.148C824.33 325.374 819.617 331.082 815 337l-1.293 1.652c-36.224 46.634-52.8 108.072-45.52 166.66 2.527 18.618 6.847 36.88 12.813 54.688l.92 2.75c13.187 38.68 34.672 73.226 60.658 104.523a311 311 0 0 1 3.676 4.57c10.859 13.683 23.429 25.93 35.746 38.282l1.625 1.633c5.943 5.965 11.93 11.813 18.375 17.242a911 911 0 0 1 5.313 4.563l2.488 2.128c3.298 3.463 4.949 6.864 5.761 11.559-1.43 9.542-9.083 17.142-14.894 24.51-4.42 5.604-8.705 11.291-12.918 17.053A986 986 0 0 1 871 811q-2.502 3.248-5 6.5l-2.5 3.25-1.25 1.625-5 6.499-2.507 3.26q-3.067 3.988-6.138 7.975c-.797 1.037-1.595 2.073-2.418 3.141l-1.222 1.58a645 645 0 0 0-7.203 9.522l-1.702 2.272a537 537 0 0 0-3.243 4.377C828.537 866.695 822.382 874.74 815 876c-6.764-.688-10.943-2.892-15.812-7.5l-3.657-3.281-1.808-1.653c-34.363-31.246-79.248-52.852-126.503-50.718-39.536 2.713-72.881 22.3-99.22 51.152-9.71 11.18-17.188 23.9-24 37l-1.058 2.029c-5.972 11.872-8.703 25.006-11.747 37.862l-.552 2.275a292 292 0 0 0-.996 4.252c-1.427 5.847-3.787 10.018-8.397 13.894-5.31 2.758-9.784 3.414-15.437 1.625-4.025-1.431-6.583-4.396-8.813-7.937-1.114-2.794-1.78-5.632-2.437-8.562q-.63-2.552-1.262-5.102l-.646-2.661C484.39 904.916 468.928 877.155 445 852l-1.793-1.953c-19.254-20.348-49.9-35.942-78.059-37.172-54.648-1.32-97.276 19.164-137.859 54.484-5.563 4.69-10.917 8.996-18.535 8.493-11.959-2.86-19.517-17.82-26.274-27.11a365 365 0 0 0-9.042-11.867 960 960 0 0 1-11.75-15.125c-6.25-8.197-12.57-16.337-18.909-24.466a6098 6098 0 0 1-5.388-6.929 3578 3578 0 0 0-14.977-19.185c-6.883-8.737-6.883-8.737-10.039-12.857l-1.352-1.762c-1.872-2.838-2.227-5.552-2.335-8.864l-.114-2.238c1.208-6.95 7.493-11.612 12.426-16.136l2.098-1.952a1105 1105 0 0 1 9.707-8.904c6.831-6.199 13.46-12.565 19.97-19.101q2.327-2.334 4.664-4.659c5.398-5.394 10.618-10.88 15.561-16.697a1089 1089 0 0 1 2.781-3.14C188.378 660.522 199.795 645.125 210 629l1.098-1.724c37.273-59 56.339-130.795 40.85-199.848C240.47 378.532 214.754 333.368 175 302l-2.957-2.402c-10.594-8.436-22.016-15.396-33.945-21.786l-3.008-1.611a537 537 0 0 0-5.83-3.054c-5.838-3.083-10.076-5.596-12.26-12.147-1.219-11.25 3.562-17.736 10.306-26.163q1.53-1.9 3.064-3.8c2.919-3.647 5.77-7.345 8.63-11.037q6.878-8.86 13.816-17.672c3.747-4.762 7.467-9.543 11.184-14.328 5.094-6.557 10.205-13.1 15.344-19.621q2.762-3.51 5.5-7.04a838 838 0 0 1 6.914-8.777 466 466 0 0 0 3.394-4.335c3.688-4.513 6.809-7.25 12.38-9.082 8.821-.517 14.804 4.493 21.655 9.355 28.105 19.265 59.587 29.627 93.938 23.375 25.16-6.154 44.02-20.187 58-42.125 8.01-13.555 12.953-27.452 17.762-42.395 5.884-18.028 5.884-18.028 13.863-23.105 8.717-3.353 18.705-2.393 27.917-2.38M454.25 91.5l-6.23.145q-7.51.174-15.02.355c-2.34 4.498-4.453 8.878-5.973 13.73-6.258 19.35-13.76 37.61-27.027 53.27l-2.102 2.555c-21.165 24.706-51.592 38.315-83.703 41.164-33.308 2.429-64.6-5.779-92.309-24.39l-2.156-1.4-1.893-1.273C216 175 216 175 213.915 175.709c-2.92 1.969-4.826 4.693-6.915 7.478q-1.466 1.912-2.934 3.82l-1.526 1.998c-2.488 3.223-5.047 6.388-7.602 9.558a821 821 0 0 0-12.222 15.598 717 717 0 0 1-7.771 9.968 882 882 0 0 0-13.195 17.059l-1.486 1.927c-1.17 1.57-2.228 3.223-3.264 4.885 1.142 3.425 1.619 3.663 4.586 5.426l2.293 1.393 2.496 1.494C180.513 265.009 193.924 274.589 206 286q2.024 1.759 4.063 3.5c8.171 7.154 15.218 14.98 21.937 23.5l2.473 3.063C263.863 352.853 281.487 401.579 287 448l.286 2.135c6.72 55.91-8.04 112.275-32.86 161.995a499 499 0 0 0-3.645 7.518c-13.056 26.744-31.945 54.336-52.437 75.868a155 155 0 0 0-5.285 5.933c-4.96 5.694-10.338 10.979-15.683 16.306a2360 2360 0 0 0-5.417 5.423c-5.816 5.82-11.655 11.525-17.959 16.822l-2.531 2.215L146 747c1.488 4.603 4.135 7.905 7.188 11.563a510 510 0 0 1 14.062 18.062 2011 2011 0 0 0 16.063 21.25c4.446 5.812 8.841 11.646 13.062 17.625 3.298 4.667 6.66 9.27 10.125 13.813l1.279 1.69c2.982 3.877 2.982 3.877 5.221 4.997l2.246-1.766c14.558-11.37 29.306-21.76 45.754-30.234l2.108-1.093C281.422 793.527 300.87 787.965 321 784l3.664-.75c40.623-6.85 84.505 2.517 118.41 25.867 26.72 19.63 46.709 43.899 62.774 72.814 1.692 3.038 3.422 6.053 5.152 9.069 2.114-2.712 3.884-5.441 5.531-8.457C522.686 871.431 529.13 860.974 537 851c.76-.97 1.519-1.941 2.3-2.941 8.679-10.836 17.654-20.593 28.7-29.059l2.762-2.203c35.843-27.97 80.83-38.87 125.707-34.328 4.571.59 9.043 1.491 13.531 2.531l2.678.602c33.584 7.705 61.909 22.587 89.11 43.478 3.302 2.533 6.58 4.865 10.212 6.92 7.377-9.067 14.51-18.285 21.496-27.656a708 708 0 0 1 12.448-16.197c4.057-5.126 8.024-10.32 11.985-15.52a1925 1925 0 0 1 14.578-18.827l1.692-2.167 1.495-1.91c1.16-1.531 2.24-3.124 3.306-4.723a972 972 0 0 0-3.5-3.562l-1.969-2.004a134 134 0 0 0-5.996-5.403c-5.541-4.815-10.684-10.03-15.862-15.228a2175 2175 0 0 0-5.206-5.2c-5.7-5.695-11.302-11.41-16.467-17.603l-1.52-1.803c-56.71-67.77-99.687-152.815-91.668-243.384.36-3.61.764-7.211 1.188-10.813l.26-2.327C742.926 401.65 758.601 361.396 781 328l1.248-1.874C795.008 307.15 810.897 289.97 829 276l2.828-2.273C843.258 264.67 855.462 256.442 868 249c-1.608-5.282-4.99-9.128-8.375-13.375l-1.898-2.412c-4.405-5.585-8.863-11.128-13.326-16.668-4.084-5.092-7.992-10.305-11.886-15.543C825.63 191.774 818.39 182.826 811 174c-4.994 1.731-9.303 4.487-13.812 7.188C764.346 200.466 725.495 208.29 688 199l-2.127-.504C669.033 194.404 654.544 186.728 641 176l-2.86-2.262c-21.543-18.336-32.666-44.777-41.958-70.808-1.508-3.74-3.379-7.324-5.182-10.93l-66-1c-.111 20.103-.111 20.103-.084 28.709.018 5.86.027 11.718-.022 17.578-.04 4.727-.035 9.453 0 14.18q.007 2.698-.03 5.395c-.191 14.094-.191 14.094 3.118 19.19 2.227 2.233 4.485 4.08 7.018 5.948 6.478 7.03 12.24 15.204 13.5 24.813-.5 3.187-.5 3.187-2.187 5.562C543.587 214.29 542.35 215 539 215c-7.38-2.933-12.056-7.575-17.5-13.25l-2.492-2.547A972 972 0 0 1 513 193c-4.215 1.895-6.703 4.82-9.687 8.25-11.544 12.81-11.544 12.81-19.563 13.438C480 214 480 214 477 212c-1.98-2.97-2.983-4.977-2.727-8.586 3.004-9.98 12.462-18.845 19.223-26.516 4.1-4.745 4.79-7.51 4.731-13.582v-2.366a1400 1400 0 0 0-.032-7.743l-.008-5.368c-.008-4.71-.028-9.42-.05-14.13-.02-4.806-.03-9.612-.04-14.418-.02-9.43-.055-18.86-.097-28.291-14.592-.058-29.163.148-43.75.5" id="svg-layer-2" style="pointer-events: all;"/></svg>