<svg xmlns="http://www.w3.org/2000/svg" width="1024" height="1024"><path fill="none" d="M0 0h1024v1024H0zm632.356 75.864c-1.519 2.392-1.788 3.76-1.931 6.566l-.157 2.675-.128 2.916-.169 3.093c-.182 3.398-.344 6.796-.506 10.195q-.187 3.596-.376 7.192c-.333 6.356-.648 12.713-.96 19.07-.311 6.286-.64 12.571-.967 18.857A10006 10006 0 0 0 623 235l-1.552-.697q-3.525-1.58-7.051-3.156l-2.44-1.096c-6.233-2.782-12.5-5.205-19.02-7.238l-3.178-.997c-26.134-7.944-53.913-11.743-81.221-10.894-2.603.08-5.204.126-7.808.172C450.735 212.326 399.81 228.56 362 262l-2.488 2.125C344.368 277.314 332.489 292.982 322 310l-1.871 2.953c-1.82 2.967-3.479 5.983-5.129 9.047l-1.832 3.276c-6.73 13.225-6.155 26.882-6.01 41.402.03 3.57.022 7.14.019 10.71.001 5.98.03 11.961.075 17.942.053 6.892.067 13.784.06 20.677-.008 6.672.008 13.345.036 20.017q.017 4.235.015 8.469c0 3.94.034 7.88.072 11.821l-.01 3.505c.1 6.947 1.169 12.108 4.575 18.181l1.813 3.25c5.914 7.435 13.916 10.558 23.187 11.75 3.197 24.606 3.197 24.606.5 30-3.348 2.678-6.214 3.78-10.5 4-6.105-1.526-10.59-5.563-15.516-9.355-3.793-2.909-7.694-5.653-11.609-8.395-6.887-4.834-13.745-9.705-20.536-14.673-3.2-2.337-6.385-4.645-9.741-6.753-7.42-4.81-9.849-9.532-12.598-17.824-4.474-11.56-14.011-18.821-25-24-9.544-3.426-23.1-4.005-32.687-.375-2.223 1.121-2.223 1.121-4.313 2.375l-2.309 1.285c-10.663 6.456-18.15 16.29-21.26 28.318-.467 1.912-.905 3.83-1.341 5.749-3.566 15.438-8.494 30.365-13.465 45.398l-2.43 7.386-3.686 11.197a6777 6777 0 0 0-9.858 30.207c-5.412 16.686-10.927 33.336-16.492 49.972-4.575 13.682-9.086 27.378-13.403 41.144a195 195 0 0 1-1.626 4.817l-.84 2.394-.76 2.097c-.948 3.643-.41 6.391.47 10.036l1.54 1.469C111 691 111 691 111.324 692.947l-.082 2.181-.083 2.422a231 231 0 0 1-1.03 11.4l-.285 2.586q-.469 4.245-.95 8.487l-.674 6.097a11712 11712 0 0 1-1.836 16.457q-.963 8.604-1.922 17.21l-2.37 21.253-.398 3.578-.798 7.169q-1.016 9.133-2.044 18.265-1.018 9.056-2.02 18.113-.378 3.393-.762 6.786c-3.43 30.277-3.43 30.277-.466 34.14 3.357 3.038 6.58 4.268 11.084 4.471 3.77-.273 6.336-1.127 9.312-3.562 2.189-3.283 2.623-5.412 3.332-9.266l.723-3.85.374-2.042c.65-3.544 1.322-7.083 1.993-10.623l.406-2.147c1.135-5.966 2.405-11.896 3.734-17.822 2.09-9.362 3.855-18.766 5.563-28.204A560 560 0 0 1 136.5 774.5c1.832-8.2 3.443-16.42 4.938-24.687a934 934 0 0 1 5.75-29.063l.757-3.552q.698-3.23 1.443-6.45c.612-2.748.612-2.748.915-4.918.31-1.814.31-1.814 1.697-4.83 1.96-1.166 1.96-1.166 4.332-2.293 5.908-2.907 7.259-7.024 9.356-13.02l1.135-2.997A572 572 0 0 0 170 674a954 954 0 0 1 1.512-4.055 851 851 0 0 0 2.04-5.474c2.486-6.722 5.228-13.34 7.948-19.971 4.008-9.777 7.872-19.576 11.5-29.5 2.995-8.179 6.042-16.25 9.738-24.145 1.458-3.299 2.712-6.657 3.95-10.043 3.357-9.17 7.158-18.148 10.945-27.148A799 799 0 0 0 224 538c3.74 1.434 6.613 3.014 9.813 5.438 4.54 3.373 9.14 6.624 13.812 9.812 11.698 8.005 23.258 16.2 34.75 24.5l2.28 1.647a968 968 0 0 1 9.853 7.2l2.992 2.216 2.531 1.894C302 592 302 592 304 592l.313 2.664C306.217 603.907 313.44 611.72 321 617c12.457 6.878 25.478 8.988 39.453 6.348 7.928-2.418 15.897-6.537 21.672-12.567C384 609 384 609 387 609q-1.245 8-2.5 16l-.391 2.5a2723 2723 0 0 1-5.289 32.465l-.553 3.274q-1.351 8.003-2.726 16.001l-1.002 5.912-.473 2.707c-.803 4.782-1.354 9.29-1.066 14.141 1.72 2.376 3.513 3.342 6 5-1.33 19.347-2.94 38.665-4.758 57.973l-.237 2.523q-1.2 12.76-2.427 25.516-.469 4.877-.93 9.754-.22 2.29-.443 4.58c-2.05 20.994-2.05 20.994.545 26.091 2.178 2.481 3.249 3.411 6.25 4.563 4.585.224 8.75-.442 12.938-2.312 5.788-7.544 6.215-20.281 7.937-29.438q.791-4.157 1.59-8.312l.398-2.075a995 995 0 0 1 3.575-17.613c1.93-9.142 3.782-18.298 5.606-27.462q.678-3.405 1.363-6.809c1.365-6.799 2.717-13.6 4.011-20.413l1.27-6.504.539-2.957c.963-4.85 1.616-8.028 5.773-11.105l2.042-1.328c2.305-1.968 2.7-3.072 3.387-5.987l.65-2.653.655-2.884.726-3.015c.778-3.25 1.534-6.504 2.29-9.758q.794-3.342 1.59-6.682 1.595-6.69 3.168-13.382c1.32-5.606 2.677-11.203 4.055-16.795l.577-2.35q1.062-4.316 2.126-8.632.707-2.872 1.406-5.745l.784-3.197C446 618 446 618 446 615l2.014.491c3.6.614 7.116.654 10.755.65l2.322.011q2.49.012 4.978.017 3.949.012 7.898.041c7.483.052 14.966.1 22.449.116 4.584.01 9.167.04 13.75.081q2.61.02 5.22.015c16.191-.015 16.191-.015 22.944 3.672 2.203 1.195 4.085 1.422 6.572 1.437l2.493.024 2.543-.055 2.667-.03c5.579-.16 10.165-.85 15.207-3.38 3.864-1.925 8.05-2.91 12.188-4.09l.12 1.671c.603 7.112 1.886 14.024 3.29 21.017.691 3.436 1.365 6.876 2.04 10.316l.407 2.077c1.172 6.001 2.242 12.017 3.268 18.044a1027 1027 0 0 0 4.171 22.87c1.29 6.71 2.5 13.432 3.691 20.16 2.672 15.074 5.373 30.142 8.314 45.166q.445 2.285.881 4.572c.404 2.113.82 4.224 1.24 6.334l.706 3.611c.907 3.29 1.728 5.505 3.872 8.162 1.98.724 3.98 1.397 6 2l.15 1.703a914550 914550 0 0 0 7.787 88.044c1.12 12.67 2.244 25.34 3.408 38.008q.653 7.11 1.235 14.229c.222 2.71.455 5.419.688 8.128q.174 2.06.334 4.123c.16 2.05.338 4.099.52 6.148.096 1.18.194 2.36.294 3.575.615 3.204 1.37 4.69 3.584 7.042 4.1 2.619 8.277 2.817 13 2 3.572-1.927 5.696-4.087 7-8 .207-2.704.365-5.39.482-8.097.04-.826.078-1.651.118-2.502q.19-4.12.369-8.24l.262-5.822c1.031-23.22 1.734-46.452 2.446-69.684.37-12.02.772-24.037 1.226-36.054q.144-3.888.277-7.778.216-6.058.501-12.112.1-2.213.173-4.425c.068-2.007.17-4.014.273-6.02l.146-3.396c.946-3.733 2.623-4.725 5.727-6.87 1.659-3.318.916-6.976.715-10.602l-.143-2.68c-.58-10.02-1.602-19.99-2.674-29.966q-.504-4.716-.994-9.436c-1.003-9.541-2.072-19.052-3.49-28.542-.532-3.565-.957-7.128-1.351-10.711l-.241-2.182c-.9-8.333-1.665-16.68-2.45-25.024-.94-9.977-2.046-19.92-3.458-29.844-2.376-17.527-2.376-17.527.961-23.2C657 600 657 600 659 599l.75 1.809c2.982 5.228 9.42 8.142 14.938 10.066 9.423 2.466 19.43 2.217 28.312-1.875l3.5-1.562c5.036-3.022 8.956-7.825 12.5-12.438v-2l1.783-.852c2.035-1.054 3.828-2.187 5.694-3.511l2.004-1.419 2.144-1.53 2.255-1.602c6.98-4.964 13.92-9.983 20.858-15.004a2332 2332 0 0 1 28.762-20.457l2.574-1.804A2036 2036 0 0 1 792 542l1.855-1.302C797.77 538 797.77 538 800 538l.64 1.69c3.912 10.333 7.859 20.646 11.993 30.892a660 660 0 0 1 3.93 10.106c1.949 5.096 4.012 10.133 6.125 15.164 4.134 9.917 8.017 19.918 11.722 30.003 1.206 3.21 2.513 6.368 3.844 9.528 3.69 8.797 7.079 17.712 10.511 26.613q2.646 6.86 5.334 13.704.917 2.344 1.826 4.693a920 920 0 0 0 2.75 6.998l.82 2.14c1.99 4.95 4.271 7.966 8.806 10.754C870 701 870 701 872 701l.28 1.878c1.499 9.532 3.54 18.936 5.572 28.365 1.129 5.238 2.247 10.478 3.367 15.718.231 1.082.463 2.164.7 3.28A6701 6701 0 0 1 889 783.874l.616 2.953a6268 6268 0 0 1 7.816 38.083q1.638 8.07 3.257 16.141c5.355 26.586 5.355 26.586 10.311 30.948 3.916 1.958 8.612 1.347 12.75.313 3.057-1.783 4.474-3.222 6.25-6.313.561-8.948-.872-17.903-1.898-26.781l-.591-5.22q-.779-6.856-1.566-13.711-.789-6.897-1.57-13.796a10081 10081 0 0 0-5.14-44.502q-1.582-13.414-3.137-26.832-.604-5.214-1.217-10.426-.717-6.102-1.42-12.205l-.445-3.756c-1.392-12.136-1.392-12.136-1.016-17.771l2.063-2.375c2.159-2.925 2.228-3.522 2-7-.675-4.232-1.818-8.115-3.211-12.164A949 949 0 0 1 906.8 651l-.846-2.665-1.743-5.496q-2.323-7.33-4.653-14.66l-.933-2.934c-2.95-9.28-5.945-18.545-8.946-27.808a2365 2365 0 0 1-6.47-20.308c-5.947-18.972-12.06-37.876-18.402-56.72-9.77-29.043-9.77-29.043-11.745-39.721-2.62-12.636-8.12-22.4-19.032-29.665-12.338-7.42-25.097-9.314-39.312-6.336-2.422.92-4.512 1.962-6.719 3.313l-2.305 1.32C776.658 454.89 769.487 462.32 765 472a198 198 0 0 0-.812 4.875c-2.098 7.738-10.367 11.425-16.695 15.498-4.24 2.767-8.358 5.707-12.493 8.627l-5.059 3.535c-3.957 2.77-7.899 5.562-11.834 8.363-2.747 1.95-5.504 3.885-8.266 5.814a544 544 0 0 0-3.541 2.498 303 303 0 0 1-4.487 3.102l-2.418 1.676c-3.217 1.36-5.068.949-8.395.012-2.887-1.54-5.013-3.4-7-6-.519-3.17-.455-4.898 0-8l.438-3.742C685.68 497.96 685.68 497.96 687 494a94 94 0 0 1 7.063-2.75c9.349-3.498 15.6-8.055 19.937-17.25.975-3.122 1.14-5.98 1.174-9.244l.04-3.218.026-3.517.04-3.717c.112-11.351.173-22.703.217-34.055.033-8.368.092-16.736.187-25.104.065-5.907.098-11.813.11-17.72.007-3.515.027-7.028.082-10.542.255-17.018-.982-30.653-8.876-45.883l-1.597-3.303a123 123 0 0 0-3.778-7.072l-1.407-2.497C690.437 291.062 676.545 271.03 660 260c-.426-2.205-.426-2.205-.5-5.005l-.105-3.214-.071-3.547-.11-3.728q-.144-5.092-.26-10.187c-.087-3.6-.191-7.2-.293-10.799a7087 7087 0 0 1-.546-20.631c-.21-8.379-.436-16.757-.664-25.135l-.06-2.244a20172 20172 0 0 0-1.161-41.438l-.06-2.053q-.194-6.83-.368-13.661-.225-8.615-.512-17.228-.097-3.082-.169-6.166c-.066-2.78-.16-5.556-.263-8.335l-.036-2.414c-.258-5.676-1.781-8.213-5.822-12.215-6.304-4.334-11.921-1.49-16.644 3.864" id="svg-layer-0" style="pointer-events: all; fill: none;"/><path fill="#042940" d="M647 71c2.911 1.859 5.43 3.858 7 7 .213 2.756.368 5.493.482 8.254.04.872.078 1.744.118 2.642.13 2.963.25 5.926.369 8.89l.13 3.154c.716 17.388 1.15 34.777 1.49 52.175a5846 5846 0 0 0 .371 17.608l.2 8.924c.189 8.353.36 16.706.486 25.06q.153 10.176.418 20.348c.092 3.548.167 7.095.199 10.644.036 3.916.148 7.827.266 11.74l-.005 3.47c.202 4.866.51 7.923 3.674 11.748 2.511 2.273 5.09 4.316 7.802 6.343 19.025 17.394 32.258 40.433 42 64l1.542 3.37c2.097 5.657 1.877 11.287 1.846 17.253l.016 3.777q.015 5.1-.001 10.197c-.008 3.569 0 7.138.004 10.707a5450 5450 0 0 1-.016 17.975c-.016 6.912-.01 13.823.006 20.735q.02 8.926.007 17.853-.008 5.32.005 10.641c.01 3.957-.004 7.913-.02 11.869l.018 3.53c-.073 9.295-1.729 16.23-8.18 23.202-5.798 4.924-13.057 7.611-20.227 9.891-2.454 13.173-2.454 13.173-3 18l-.305 1.992c-.287 3.045-.207 5.324 1.657 7.813 3.677 3.386 6.55 4.908 11.648 5.195 2.395-1.012 2.395-1.012 4.813-2.687l2.898-1.977q1.645-1.167 3.289-2.336l3.79-2.648q4.279-3.002 8.538-6.036c4.933-3.509 9.896-6.975 14.86-10.441 6.556-4.581 13.092-9.19 19.588-13.856 2.386-1.713 4.78-3.39 7.224-5.019.703-1.996.703-1.996 1.25-4.437 3.122-11.168 10.853-21.093 20.559-27.383 12.143-6.822 25.249-8.514 38.918-5.305 11.307 4.441 21.315 12.895 26.898 23.75 2.186 5.161 3.303 10.353 4.438 15.813 2.077 9.868 5.01 19.341 8.25 28.875l.759 2.234q1.611 4.74 3.228 9.479c3.45 10.131 6.764 20.307 10.081 30.483q1.547 4.745 3.099 9.488c3.138 9.61 6.239 19.23 9.236 28.884 2.413 7.765 4.9 15.506 7.37 23.253q3.577 11.221 7.149 22.446l2.69 8.447c.295.924.59 1.847.892 2.799q1.289 4.052 2.57 8.107a930 930 0 0 0 3.155 9.767l.714 2.201q.94 2.889 1.892 5.773c.867 3.385 1.31 5.861.852 9.326l-2.005 2.421c-2.72 3.515-2.306 5.458-1.92 9.84l.181 2.218c.219 2.51.477 5.015.744 7.521l.29 2.78c.658 6.226 1.378 12.444 2.12 18.66.554 4.64 1.096 9.28 1.64 13.92l.82 6.988c1.14 9.695 2.226 19.395 3.287 29.1a4120 4120 0 0 0 3.401 29.93l.727 6.23.243 2.09.488 4.2q.725 6.225 1.462 12.447.57 4.848 1.131 9.698l.426 3.556c2.028 17.608 2.028 17.608-1.285 21.901-3.655 3.323-3.655 3.323-6.75 3.5l-3.937.25c-3.84-.086-6.14-.578-9.063-3.25-2.788-6.348-4.042-12.698-5.25-19.5a869 869 0 0 0-6.187-30.312q-.912-4.122-1.82-8.243l-.452-2.047c-3.194-14.517-6.115-29.093-9.069-43.66q-1.312-6.469-2.627-12.936-.955-4.71-1.905-9.419c-2.238-11.044-4.58-22.052-7.163-33.022l-.607-2.601-.54-2.282C872 704 872 704 872 701l-2.187-.75c-6.777-3.012-8.839-6.85-11.504-13.526L857 683.312l-2.14-5.416q-1.143-2.906-2.272-5.818c-1.64-4.222-3.31-8.431-4.983-12.64-4.316-10.88-8.623-21.76-12.707-32.731a517 517 0 0 0-7.46-18.832 396 396 0 0 1-8.333-21.863c-1.392-3.795-3.083-7.405-4.796-11.063-2.119-4.774-3.877-9.68-5.684-14.578-1.778-4.812-3.635-9.592-5.5-14.371l-.94-2.412L800 538c-3.685 1.34-6.68 2.99-9.887 5.238l-2.815 1.966-2.986 2.109-3.104 2.177a1887 1887 0 0 0-25.021 17.92c-6.008 4.368-12.035 8.71-18.06 13.054q-3.134 2.266-6.264 4.54l-3.8 2.746-1.738 1.268c-2.447 1.762-4.442 3.02-7.325 3.982a66 66 0 0 0-2 4c-5.27 7.165-11.667 12.888-20.61 14.719-14.196 1.67-23.924-.392-35.335-8.88L659 601v-2l-2.437 2.438L653 605c-.472 7.693.23 15.208 1.313 22.813 1.293 9.67 2.337 19.35 3.25 29.062C658.607 667.93 659.716 678.97 661 690l.648 5.598.356 3.072q.777 6.726 1.549 13.451.475 4.122.957 8.242c3.67 31.43 3.67 31.43 4.49 43.574l.2 2.344c.195 3.68-.07 5.515-2.075 8.66C665 777 665 777 663 778c-2.07 29.849-2.965 59.738-3.933 89.639q-.514 15.831-1.041 31.662-.18 5.46-.354 10.92a2662 2662 0 0 1-.566 16.001q-.102 2.68-.194 5.36c-.08 2.243-.177 4.485-.28 6.728l-.152 3.614c-.65 4.161-2.328 6.79-5.105 9.889-3.72 1.86-7.299 1.733-11.375 1.187-3.635-1.624-4.774-2.661-7-6-.372-1.95-.372-1.95-.547-4.195l-.213-2.567-.205-2.793-.239-2.94c-.253-3.126-.494-6.253-.734-9.38q-.475-6.06-.964-12.117l-.256-3.178c-.64-7.79-1.417-15.559-2.244-23.33-1.906-17.957-3.438-35.945-4.99-53.935l-1.178-13.577q-.665-7.644-1.326-15.288A4096 4096 0 0 0 618 780l-2.812-.687c-3.881-1.598-4.38-2.597-6.188-6.313-.69-2.58-1.267-5.075-1.762-7.691l-.46-2.308c-.498-2.52-.982-5.041-1.466-7.563q-.52-2.66-1.041-5.317c-3.498-17.928-6.746-35.903-9.964-53.883-.946-5.273-1.923-10.54-2.92-15.804-1.184-6.277-2.253-12.565-3.262-18.871-1.58-9.724-3.426-19.376-5.462-29.014-1.282-6.172-2.177-12.263-2.663-18.549-5.007 1.429-9.712 2.848-14.375 5.188-5.168 2.127-10.173 2.25-15.687 2.312l-2.543.055-2.493-.024-2.203-.013c-2.642-.507-4.043-1.246-6.368-2.515-7.326-3.37-15.634-2.587-23.534-2.577q-2.654-.02-5.306-.043c-4.634-.038-9.268-.053-13.902-.063-7.43-.02-14.86-.077-22.29-.129q-3.884-.02-7.766-.028l-4.764-.021-2.17.001c-3.657-.022-7.042-.276-10.599-1.143l-.346 2.014c-1.194 6.781-2.64 13.463-4.263 20.154l-.756 3.143a5218 5218 0 0 1-1.583 6.563q-1.182 4.89-2.357 9.78c-1.032 4.295-2.08 8.586-3.134 12.875a508 508 0 0 0-3.043 13.259l-.749 3.314a290 290 0 0 0-1.338 6.238c-1.099 4.75-1.832 7.733-6.013 10.493-.306.18-.306.18-1.856 1.099C419 705 419 705 417.774 707.588l-.508 2.79-.643 3.205L416 717q-.78 3.546-1.578 7.09-.841 3.922-1.672 7.847l-.45 2.12c-2.8 13.209-5.33 26.462-7.808 39.733a1353 1353 0 0 1-6.938 34.573c-.57 2.71-1.11 5.424-1.644 8.14l-.53 2.655q-.486 2.433-.95 4.872c-.845 4.184-1.832 7.549-4.43 10.97-4.387 2.4-8.006 3.744-13 3-3.992-2.15-6.311-3.797-8-8-.475-8.328.617-16.631 1.426-24.914q.224-2.347.447-4.693.471-4.955.948-9.908c.819-8.503 1.622-17.008 2.421-25.512l.238-2.523A2222 2222 0 0 0 379 707l-2.437-1.375C374 704 374 704 373 702c-.456-6.753.902-13.259 2.047-19.895l.975-5.783q.687-4.052 1.38-8.1c1.014-5.934 2.017-11.87 3.02-17.804l.659-3.892c2.103-12.49 4.04-25.002 5.919-37.526-3.16.704-4.694 1.4-7 3.688-8.843 7.91-20.1 11.711-31.812 11.625l-2.413-.018c-11.762-.242-22.875-4.408-31.587-12.545-5.366-5.831-9.011-11.905-10.188-19.75-1.804-1.011-1.804-1.011-4-2q-1.774-1.126-3.504-2.32l-1.977-1.36-2.082-1.445-2.167-1.498a674 674 0 0 1-14.516-10.361 988 988 0 0 0-26.55-18.745 644 644 0 0 1-10.927-7.634c-.777-.555-1.553-1.11-2.354-1.68a1028 1028 0 0 1-4.516-3.25l-2.055-1.469-1.818-1.311C226 538 226 538 224 538q-2.503 6-5 12l-.811 1.949q-2.643 6.354-5.273 12.714-.915 2.207-1.832 4.414c-3.56 8.56-6.965 17.125-9.998 25.889-1.437 4.015-3.101 7.916-4.77 11.839-1.525 3.702-2.927 7.44-4.316 11.195a387 387 0 0 1-6.719 16.871c-1.515 3.7-2.9 7.44-4.281 11.192-1.683 4.562-3.433 9.031-5.5 13.437-2.034 4.34-3.774 8.758-5.437 13.25l-.769 2.042a292 292 0 0 0-3.692 10.392c-3.461 10-3.461 10-6.875 12.441-1.531.674-3.071 1.328-4.622 1.954-2.855 1.927-2.995 3.382-3.695 6.714l-.715 3.272L149 713l-.713 3.281a961 961 0 0 0-2.162 10.344l-.785 3.815a2099 2099 0 0 0-5.515 28.027c-1.999 10.489-4.094 20.957-6.2 31.424q-1.253 6.24-2.5 12.482l-1.875 9.373q-1.568 7.842-3.125 15.685-.931 4.654-1.871 9.307c-.873 4.326-1.713 8.657-2.54 12.992l-1.276 6.52-.563 3.05c-1.027 5.151-1.879 8.987-5.875 12.7-4.932 1.644-9.447 1.99-14.367.082-2.457-1.49-3.906-2.78-5.633-5.082-.38-2.545-.38-2.545-.292-5.442l.096-3.236c.316-5.357.828-10.674 1.434-16.006l.399-3.657q.54-4.917 1.091-9.833c.388-3.47.768-6.942 1.15-10.413q1.086-9.88 2.188-19.76c.823-7.393 1.638-14.787 2.453-22.18q1.71-15.534 3.435-31.064l.83-7.488c.682-6.164 1.376-12.327 2.092-18.487l.425-3.7q.394-3.441.803-6.882c.684-5.985 1.307-11.831.896-17.852a84 84 0 0 0-3-3c-2.12-7.63.454-13.566 3.063-20.812q1.038-2.988 2.068-5.98a1752 1752 0 0 1 1.491-4.303c2.868-8.255 5.558-16.566 8.25-24.879q1.33-4.11 2.667-8.217 3.634-11.176 7.26-22.354a40182 40182 0 0 1 6.207-19.103 3888 3888 0 0 1 11.436-34.63c4.045-12.064 8.04-24.144 11.898-36.27q.706-2.214 1.42-4.426c2.741-8.502 4.977-16.89 6.538-25.691 2.72-12.916 10.016-23.65 20.702-31.335 8.155-4.748 14.428-6.196 23.75-6.25l2.633-.062c5.839-.036 10.331.849 15.617 3.312.947.425 1.895.85 2.871 1.29 13.437 6.994 20.51 17.117 25.352 31.288 2.33 4.488 5.168 6.347 9.34 9.047q2.315 1.564 4.628 3.133l2.411 1.614c3.863 2.622 7.627 5.377 11.398 8.128a1460 1460 0 0 0 20.168 14.367 306 306 0 0 1 12.06 8.912c2.646 1.823 4.568 2.29 7.772 2.221 4.66-1.5 7.443-2.814 10-7 1.562-8.518-.893-18.48-2-27l-1.8-.191c-8.351-1.234-15.545-4.606-21.157-11.059-5.646-8.132-6.355-15.33-6.413-25.031l-.045-3.743c-.044-4.087-.073-8.174-.097-12.261l-.028-4.25c-.039-5.907-.072-11.813-.09-17.72-.027-8.407-.084-16.812-.186-25.219-.07-5.94-.104-11.88-.112-17.82a712 712 0 0 0-.085-10.594c-.277-17.66 1.265-31.584 10.013-47.112l1.413-2.525C335.448 285.385 359.002 261.538 388 243l1.938-1.252C413.455 226.75 441.699 218.612 469 214l2.123-.373c11.523-1.98 23.212-2.296 34.877-2.627l2.586-.087C547.842 209.705 587.642 217.877 623 235l.08-1.76q.991-21.663 2.054-43.324.737-15.014 1.418-30.029.654-14.428 1.36-28.854c.26-5.33.512-10.66.745-15.993q.333-7.623.726-15.245.139-2.835.254-5.67c.106-2.607.242-5.21.384-7.815l.073-2.298c.359-5.699 2.021-8.105 5.906-12.012 3.618-2.774 6.718-2.107 11-1M474 235l-2.72.424C439.92 240.44 410.38 251.734 385 271l-2.664 1.992C368.573 283.752 356.638 296.447 347 311l-2.168 3.266c-3.74 5.874-7.117 11.935-10.332 18.109l-1.063 1.982c-2.207 4.368-2.798 7.649-2.437 12.643 5.732 3.625 11.447 5.603 17.938 7.5l2.822.855c14.82 4.423 29.509 7.555 44.803 9.77l2.654.391c13.563 1.997 27.094 3.66 40.783 4.484l3.71.245c11.907.753 23.776.918 35.704.923l6.083.01q6.345.009 12.691.007 6.399 0 12.798.02c24.75.079 49.342-.086 74.014-2.205l2.71-.23c4.858-.423 9.698-.94 14.54-1.52l2.118-.249c66.554-7.858 66.554-7.858 87.632-18.001 2-3 2-3 1.625-6.687-1.929-7.58-5.909-14.482-9.625-21.313l-1.076-1.981C671.456 298.234 654.218 280.766 635 267l-1.973-1.504C607.667 246.37 573.003 237.667 542 234l-2.384-.292c-9.018-.97-18.058-.908-27.116-.895l-2.576.002c-12.087.03-23.979.172-35.924 2.185m-84.5 165.5-2.55 2.465q-1.481 1.511-2.95 3.035l-1.802 1.868c-6.373 6.647-12.614 13.396-18.63 20.368C362 430 362 430 360.317 431.216c-2.206 2.985-1.702 6.444-1.646 10.01l.006 2.489q.01 2.62.04 5.24c.031 2.612.042 5.222.048 7.834.017 4.247.085 8.49.182 12.737q.053 2.457.074 4.914c.149 14.45.149 14.45 3.384 18.712 1.491 1.456 1.491 1.456 3.094 2.786q1.651 1.568 3.3 3.14l1.652 1.49c2.237 2.07 4.227 4.33 6.236 6.62l2.068 2.238C381 512 381 512 382.737 514.6c3.126 4.34 5.923 7.409 11.294 8.394 4.834.562 9.67.6 14.531.631q2.483.07 4.963.152c3.269.104 6.529.142 9.798.139 3.024.01 5.913.204 8.906.621 6.052.713 10.803.545 15.747-3.287 4.215-3.712 7.958-7.831 11.712-12q1.989-2.123 3.99-4.234a448 448 0 0 0 5.592-5.989c2.438-2.668 4.73-5.027 7.591-7.257C479 490 479 490 479.707 486.727c.064-1.367.096-2.734.106-4.102a538.991 538.991 0 0 0 .117-7.572c.08-3.46.31-6.897.539-10.35 1.238-23.744 1.238-23.744-7.486-33.472a243 243 0 0 0-3.362-3.478c-2.715-2.937-4.792-6.262-6.933-9.628a296 296 0 0 0-3.35-5.064 74 74 0 0 1-2.709-4.544c-4.115-6.893-4.115-6.893-8.138-8.552-2.978-.504-5.847-.712-8.866-.817l-3.283-.226c-3.446-.227-6.892-.387-10.342-.547q-3.477-.214-6.953-.441c-6.013-.378-12.026-.713-18.047-.934l-2.178-.08c-4.398-.094-6.13.48-9.322 3.58m-196.32 71.457c-3.842 6.652-6.741 14.316-5.18 22.043 4.22 11.127 10.476 17.054 21.16 22 8.354 2.748 16.588-2.032 24.098-5.508 5.318-2.894 8.366-7.517 10.23-13.164 2.037-9.264.54-16.405-4.488-24.328l-1.75-2.812c-5.839-5.677-13.793-9.11-21.875-9.688-8.429.191-17.135 4.675-22.195 11.457m590.632 2.98c-4.275 7.225-5.16 14.657-3.125 22.82 1.92 5.36 4.206 9.427 9.313 12.243 17.542 8.254 17.542 8.254 26.496 5.129 7.954-3.693 14.167-8.848 17.781-16.969 2.619-7.827 1.879-14.618-1.277-22.16-3.368-6.255-8.137-10.316-14.187-13.875-14.14-4.172-26.373 1.227-35 12.813M180 517l-.77 2.347c-11.103 33.852-22.212 67.703-33.456 101.508a8376 8376 0 0 0-2.64 7.948 6583 6583 0 0 1-4.854 14.587c-2.583 7.683-5.304 15.305-8.272 22.849-1.425 3.71-2.372 6.768-2.008 10.761 11.2 4.928 11.2 4.928 16.125 5.125 4.335-1.696 5.069-5.011 6.875-9.125 1.185-2.843 2.285-5.713 3.363-8.598l.935-2.466q.993-2.625 1.982-5.254c1.418-3.77 2.847-7.537 4.274-11.304l2.212-5.842a5093 5093 0 0 1 11.444-29.93 22256 22256 0 0 1 15.757-40.792l2.545-6.577q1.782-4.604 3.566-9.206l1.068-2.763c1.458-3.756 2.934-7.476 4.6-11.145C204 536 204 536 204 532l-2.309-1.066C184.97 522.938 184.97 522.938 182 517zm663 0-1.984 1.758C834.4 524.42 827.984 528.447 820 532c.644 5.347 2.35 9.958 4.297 14.934l1.033 2.68q1.704 4.414 3.42 8.823l2.417 6.264q1.913 4.962 3.83 9.922a8099 8099 0 0 1 13.356 34.878q1.996 5.234 3.997 10.467a8345 8345 0 0 1 11.114 29.185q2.09 5.524 4.192 11.043.96 2.528 1.91 5.06c.858 2.287 1.727 4.57 2.598 6.853l.745 2.009c2.27 5.894 2.27 5.894 5.091 7.882 2.742-.258 2.742-.258 5.875-1.125l3.117-.82c2.969-1.041 5.381-2.34 8.008-4.055-.57-6.2-1.985-11.631-3.997-17.51l-.932-2.784q-1.002-2.989-2.015-5.975a2865 2865 0 0 1-3.239-9.619 9622 9622 0 0 0-5.772-17.147 17911 17911 0 0 1-10.178-30.246l-1.12-3.332c-4.173-12.43-8.254-24.88-12.14-37.403a2944.376 2944.376 0 0 1-6.007-19.55l-.9-2.936a768 768 0 0 1-1.643-5.432c-.628-2.04-1.334-4.057-2.057-6.066zm-247.89 33.414c-6.311 9.16-7.162 17.687-6.11 28.586 1.759 7.436 7.901 13.139 13.992 17.39 7.375 3.953 16.713 3.982 24.692 1.915 2.266-.935 4.246-1.993 6.316-3.305l2.11-1.32c6.367-4.381 11.583-10.2 13.89-17.68 1.459-19.038 1.459-19.038-3-25-3.434-3.649-7.098-6.862-11-10l-2.113-1.746c-13.516-9.878-29.978-.076-38.778 11.16M328 555c-6.363 8.439-10.076 17.644-8.621 28.266 1.644 7.237 4.367 12.222 10.433 16.609A188 188 0 0 0 335 603l2.04 1.316c6.362 3.758 12.737 3.553 19.827 2.094 8.764-2.634 13.54-7.976 18.07-15.722 2.592-8.995 3.008-15.194-1.5-23.5-5.46-9.48-11.27-16.49-21.437-21.188-8.312-.821-18.142 2.995-24 9m226 4c-6.29 7.866-9.124 14.872-8 25 1.766 6.177 5.673 10.523 11 14 3.615 1.745 6.497 2.272 10.5 2.25l2.781.016c2.897-.283 5.083-1.062 7.719-2.266-1.468-4.649-3.24-9.13-5.098-13.633C568.48 572.765 571.204 560.39 575 549c-8.24 0-15.335 4.367-21 10m45 54 .331 1.837c3.968 22.056 7.821 44.13 11.662 66.209q1.338 7.684 2.68 15.368l2.1 12.06 1.021 5.859c1.568 8.986 3.126 17.97 4.487 26.99l.544 3.592q.465 3.13.894 6.266l.392 2.668.307 2.243c.723 2.37 1.635 3.397 3.582 4.908 6.01.682 16.575 1.651 21.66-2.285 4.076-5.217 1.005-15.51.252-21.708q-.44-3.508-.889-7.015l-.624-5.018q-.831-6.675-1.677-13.35c-.58-4.59-1.152-9.183-1.726-13.775q-1.362-10.903-2.735-21.805-1.629-12.964-3.226-25.93l-1.223-9.898-.743-6.023q-.502-4.076-1.01-8.15c-.095-.772-.19-1.544-.286-2.34-.414-3.293-.848-6.51-1.773-9.703l-1.836.438C619.66 616.986 610.425 615.71 599 613" id="svg-layer-1" style="pointer-events: all;"/><path fill="none" d="m511.25 232.75 2.53-.002c29.482.038 57.658 4.641 85.22 15.252l3.418 1.277c7.992 3.136 15.208 7.365 22.582 11.723q1.78.998 3.563 1.992c9.595 5.605 17.931 12.919 25.933 20.571q1.502 1.435 3.02 2.854C673.206 301.108 688.92 321.72 694 343c-.176 2.73-.176 2.73-1 5-41.738 24.734-114.562 23.15-161.68 23.168l-6.088.01q-6.34.009-12.681.007-6.399 0-12.798.02c-23.994.076-47.845.04-71.753-2.205l-2.62-.244a453 453 0 0 1-14.38-1.631l-2.06-.26c-65.536-8.274-65.536-8.274-77.94-19.865-.876-5.882.919-9.788 3.625-14.812l1.11-2.128c5.045-9.586 10.733-18.414 17.265-27.06l1.727-2.355C369.242 281.557 387.805 266.932 409 256l3.11-1.638c8.159-4.21 16.34-7.606 25.077-10.487l1.928-.641c23.61-7.792 47.382-10.466 72.135-10.484" id="svg-layer-2" style="pointer-events: all; fill: none;"/><path fill="#DE8223" d="m402.688 396.938 2.627.222q3.033.259 6.062.547c3.453.28 6.893.454 10.354.596 3.238.139 6.474.32 9.71.506q2.42.127 4.842.21c12.924.463 12.924.463 17.115 4.011 1.815 2.571 3.209 5.151 4.602 7.97a180 180 0 0 0 3.21 4.71q2.365 3.482 4.72 6.97l1.593 2.343 1.63 2.424C471 430 471 430 473.398 432.76c6.73 7.95 7.82 13.598 7.228 23.865l-.144 3.992a581 581 0 0 1-.346 7.832c-.116 3.057-.086 6.03.064 9.082.218 5.85.223 10.535-3.387 15.446-2.051 2.032-4.263 3.77-6.554 5.523-3.523 2.73-6.484 5.82-9.453 9.125q-1.401 1.526-2.804 3.048c-1.4 1.52-2.785 3.044-4.131 4.612-3.958 4.582-7.348 8.271-13.465 9.348-3.445.003-6.774-.17-10.199-.48-3.055-.212-6.08-.125-9.14-.046-28.581.643-28.581.643-36.843-5.744-3.45-3.378-6.207-7.075-8.773-11.155-2.881-4.387-6.403-8.465-10.402-11.87-3.913-3.613-5.381-6.37-5.647-11.766l-.057-2.107-.094-2.243q-.095-2.38-.17-4.763c-.08-2.453-.185-4.904-.295-7.355a486 486 0 0 1-.355-12.555 253 253 0 0 0-.164-5.141c-.587-14.318-.587-14.318 2.665-19.464 2.242-2.238 4.52-4.073 7.069-5.944a84 84 0 0 0 3.313-3.75c3.17-3.68 6.41-7.29 9.687-10.875l1.474-1.632A195 195 0 0 1 387 403l1.628-1.731c4.612-4.502 7.778-5.013 14.06-4.332M394 433l-1.688 1.993a109 109 0 0 0-3.875 4.945l-1.283 1.666c-6.753 8.914-5.616 22.708-4.154 33.396 1.742 5.028 5.165 8.419 9 12a258 258 0 0 1 3 4.063c4.783 5.285 11.565 6.06 18.39 6.554q3.43.15 6.86.258l3.508.18 6.43.241c7.822-.824 13.36-8.34 18.07-14.019 6.513-8.486 6.944-15.411 7.055-25.84l.087-2.787c.08-8.44-3.14-12.488-8.775-18.587-2.729-2.976-5.412-5.964-8-9.063-2.75-3.143-4.29-4.819-8.469-5.386-3.74-.175-7.476-.283-11.219-.364l-3.896-.227c-10.404-.19-14.754 2.903-21.041 10.977" id="svg-layer-3" style="pointer-events: all;"/><path fill="#6C7E81" d="m599 613 2.71.656c9.314 2.145 17.198 3.282 26.587 1.324l2.682-.553L633 614c2.204 15.068 4.205 30.156 6.102 45.266l.854 6.773 1.77 14.057q1.129 8.982 2.262 17.964a65822 65822 0 0 1 3.753 29.796l.343 2.721c2.062 16.445 2.062 16.445 2.166 21.798l.078 2.46c-.41 2.703-1.168 3.538-3.328 5.165-6.36 1.52-13.527 1.735-20 1-2.915-2.216-3.495-4.14-4.052-7.69l-.48-2.934c-.163-1.065-.325-2.13-.491-3.228l-.554-3.424q-.598-3.713-1.181-7.428a3188 3188 0 0 0-2.918-18.11l-.699-4.292c-3.008-18.5-6.314-36.946-9.625-55.394l-.863-4.814-.426-2.371-.833-4.648q-.96-5.355-1.925-10.71c-1.374-7.644-2.7-15.293-3.953-22.957M843 517c2 1 2 1 2.798 2.906l.789 2.563.923 2.951 1.006 3.295 2.25 7.211 1.221 3.94c2.19 7.069 4.41 14.128 6.638 21.185l.73 2.314c4.409 13.94 9 27.815 13.645 41.678l1.033 3.086q5.132 15.327 10.306 30.638 1.947 5.77 3.883 11.541.911 2.708 1.831 5.414c.844 2.48 1.678 4.964 2.51 7.448l.755 2.197c1.213 3.651 1.974 6.777 1.682 10.633-5.625 3.068-10.694 4.89-17 6-3.403-3.82-5.27-7.648-6.969-12.41l-.825-2.237q-.892-2.422-1.773-4.847c-1.638-4.51-3.31-9.007-4.976-13.506l-1.078-2.919c-3.884-10.491-7.9-20.931-11.928-31.368q-1.898-4.92-3.792-9.843a18666 18666 0 0 0-11.603-30.064q-2.525-6.533-5.042-13.068-1.192-3.088-2.39-6.174-1.652-4.26-3.292-8.525l-.985-2.52c-1.596-4.172-2.812-8.052-3.347-12.519l3-1.504c7.417-3.791 14.109-7.473 20-13.496M180 517h2q1.663 1.714 3.32 3.434c5.444 5.076 11.716 8.992 18.68 11.566-.636 5.453-2.446 10.12-4.473 15.172l-1.073 2.72q-1.149 2.907-2.305 5.812c-2.078 5.224-4.136 10.456-6.196 15.687l-1.275 3.233a2240 2240 0 0 0-10.546 27.382C175.101 610.01 172.05 618.004 169 626l-1.308 3.429a7014 7014 0 0 1-8.58 22.37 2784 2784 0 0 0-2.827 7.376 2502 2502 0 0 1-3.96 10.294l-1.192 3.144-1.119 2.87-.964 2.51C148 680 148 680 145 682c-4.648-.34-13.567-1.567-17-5 .442-6.857 2.909-13.132 5.137-19.582l1.295-3.801q1.39-4.08 2.79-8.157c2.249-6.552 4.478-13.11 6.709-19.667q1.168-3.432 2.337-6.863c5.385-15.812 10.684-31.653 15.964-47.5q1.044-3.135 2.092-6.27C169.67 549.146 174.938 533.109 180 517" id="svg-layer-4" style="pointer-events: all;"/><path fill="#042A42" d="m418.563 422.313 3.982-.045c9.708.084 9.708.084 13.201 3.115L438 428l2.684 2.578c2.837 2.753 5.581 5.567 8.316 8.422l2.047 1.977c6.453 7.467 4.58 18.79 3.953 28.023l-.242 3.746c-.927 3.979-2.771 6.605-5.32 9.692l-1.359 1.694C437.617 496.998 437.617 496.998 431 498c-3.921.103-7.831-.093-11.75-.25l-3.172-.082c-7.385-.286-14.518-.814-20.46-5.578l-1.743-2.152-1.758-2.098L390 485l-1.776-2.075c-5.54-6.94-6.226-12.388-5.911-21.113l-.006-3.443c.171-10.16 3.557-15.435 10.068-22.932l1.383-1.63a137 137 0 0 1 2.837-3.209C398 429 398 429 399.177 427.286c4.847-6.306 12.077-5.128 19.385-4.974m-16.383 24.523c-4.033 7.398-4.432 17.467-2.27 25.578 2.059 3.51 3.398 4.79 7.09 6.586 7.286 1.398 15.782 1.918 23 0 2.486-1.826 3.402-3.27 5-6v-2h2c2.579-5.158 2.032-13.386 1-19-2.103-4.02-4.672-6.946-8-10l-2-2c-9.905-1.987-19.753-1.97-25.82 6.836" id="svg-layer-5" style="pointer-events: all;"/><path fill="#DE8223" d="M632.563 538.438A129 129 0 0 1 637 542l2.676 2.121c5.23 4.367 9.412 7.946 10.324 14.879.833 9.75 1.335 18.912-5 27-6.139 6.687-13.924 12.556-23.258 13.238-10.344.199-17.281-.756-25.054-7.988-7.162-7.847-8.596-14.56-8.125-25.121.83-10.195 7.348-17.242 14.437-24.129 7.788-6.358 20.659-9.241 29.563-3.562M611 558c-2.282 3.423-2.297 4.841-2.312 8.875l-.051 3.117c.413 3.421 1.326 5.253 3.363 8.008 3.41 2.325 5.358 3.011 9.5 2.938 5.204-1.394 8.363-3.288 11.438-7.75 1.314-3.945 1.153-6.187.062-10.188-2.603-4.242-5.35-6.268-10-8-5.01-.527-7.985-.097-12 3" id="svg-layer-6" style="pointer-events: all;"/><path fill="#DD8223" d="M360.395 551.035c7.774 5.863 13.376 14.79 16.605 23.965 1.122 8.01-1.428 15.442-6 22-6.112 7.058-13.058 9.918-22.25 10.625-8.89-.225-17.28-5.828-23.75-11.625-4.984-7.06-6.954-15.028-5.59-23.566 2.329-8.91 6.259-16.287 14.027-21.434 10.06-5.793 17.14-6.656 26.958.035M339 569c-1.254 3.762-1.886 7.12-1 11 2.811 3.887 6.016 5.707 10.563 7.063 4.86-.089 7.697-1.604 11.375-4.688 1.721-3.848 1.238-7.385.062-11.375-3.622-4.601-6.688-6.706-12.437-7.437-4.498.552-5.796 1.938-8.563 5.437" id="svg-layer-7" style="pointer-events: all;"/><path fill="#DD8224" d="M820.313 463c6.76 3.858 11.84 9.376 14.187 16.871 1.773 7.55 2.337 14.145-1.5 21.129-5.018 7.057-10.688 12.28-19 15-8.7 1.45-17.836-2.54-25.254-6.922-2.555-1.934-3.964-3.347-5.558-6.078l-1.208-2c-2.963-6.045-2.931-13.34-1.261-19.766 1.903-5.127 4.005-8.688 8.281-12.234l2.25-2.062c8.955-6.31 18.713-8.578 29.063-3.938m-21.5 18.02c-1.62 3.947-1.581 7.826-.813 11.98 1.796 2.934 2.944 4.472 6 6 5.396.354 8.56.395 13-3 2.871-2.871 2.803-4.989 3-9-1.153-3.842-2.152-6.226-5.125-8.937-5.957-2.202-12.049-2.91-16.062 2.957" id="svg-layer-8" style="pointer-events: all;"/><path fill="#DD8223" d="m230 465 2.75 1.25c5.36 4.169 9.313 10.294 11.25 16.75.906 7.886.163 15.117-4 22-3.576 4.229-7.266 6.342-12.375 8.25l-1.922.773c-6.082 2.359-11.528 4.013-17.703 1.352-9.329-4.17-14.87-9.476-19.145-18.898-2.358-6.827-.801-13.294 1.833-19.832 3.71-7.477 8.771-11.69 16.484-14.797 8.443-2.53 15.088-.6 22.828 3.152m-24 16c-1.964 3.928-1.475 8.718-1 13 1.897 2.656 3.145 3.572 6 5 4.967.615 8.763.782 13.063-1.937 2.54-4.015 3.237-7.334 2.937-12.063-1.492-4.102-2.356-5.57-6-8-6.08-.996-10.224-.06-15 4" id="svg-layer-9" style="pointer-events: all;"/><path fill="#3B6289" d="M420.623 439.252c4.467.097 6.814.37 10.604 2.908 5.48 6.204 6.938 10.186 6.898 18.34l.012 2.379c-.01 5.868-.01 5.868-1.137 8.121h-2l-.812 1.75c-1.252 2.372-2.375 4.265-4.188 6.25-7.834 2.065-19.026 1.92-26.332-1.61-4.23-4.419-5.074-9.11-5.229-15.027.21-8.202 1.937-13.64 7.748-19.71L408 441c2.52-2.52 9.12-1.667 12.623-1.748" id="svg-layer-10" style="pointer-events: all;"/><path fill="#DE8223" d="m575 549-.621 2.012-.817 2.676-.808 2.636c-4 14.199-1.507 26.846 5.246 39.676v2c-5.913 2.663-11.997 3.145-18.281 1.348-5.855-2.624-10.114-6.961-12.856-12.746-2.152-6.485-1.617-12.79 1.324-18.914 4.504-7.94 10.325-14.363 19.102-17.508 2.573-.664 5.046-1.18 7.711-1.18" id="svg-layer-11" style="pointer-events: all;"/><path fill="#052B43" d="M624.871 555.684c4.34 2.249 7.042 4.793 9.129 9.316.329 4.184-.536 7.196-2.625 10.813-3.776 3.478-7.312 5.27-12.5 5.062-3.71-1.13-6.828-2.25-8.992-5.61-1.772-4.547-1.426-9.478-.883-14.265 3.445-6.059 9.2-7.754 15.871-5.316M351 564c4.103 1.48 6.491 3.245 8.938 6.875 1.156 3.4 1.592 5.57 1.062 9.125-1.81 2.95-3.342 4.609-6.312 6.375-4.354 1.012-7.75.717-11.692-1.504-2.657-1.97-4.639-3.577-5.539-6.836-.186-4.613 1.033-8.131 3.543-12.035 3.772-2.515 5.52-2.448 10-2M221 477c3.14 2.028 4.563 3.514 5.625 7.125.828 5.108.37 8.489-2.625 12.875-4.246 2.831-8.014 2.533-13 2-4.513-2.026-4.513-2.026-6-5-.618-5.48-1.044-9.626 2.375-14.125 4.519-3.228 8.143-3.68 13.625-2.875M809.781 476.559c3.665.729 5.571 1.793 8.219 4.441 1.701 4.053 2.339 7.583 1.313 11.875-2.108 3.413-3.462 4.841-7.313 6.125-7.103.573-7.103.573-10.937-1.875-2.908-2.995-3.277-4.79-3.438-8.875.056-3.502.29-5.97 2.313-8.875 3.582-2.778 5.421-3.163 9.843-2.816" id="svg-layer-12" style="pointer-events: all;"/></svg>