<svg xmlns="http://www.w3.org/2000/svg" width="1024" height="1024"><path fill="none" d="M0 0h1024v1024H0z" id="svg-layer-0" style="pointer-events: all; fill: none;"/><path fill="#00233E" d="M272.514 102.612q3.105-.007 6.21-.016c5.664-.014 11.328-.01 16.99-.003 6.119.005 12.237-.008 18.355-.018 11.284-.016 22.569-.018 33.853-.014a31507 31507 0 0 0 41.82-.007c19.618-.01 39.236-.016 58.855-.008l2.239.001 18 .008q35.097.014 70.194-.022a62566 62566 0 0 1 87.363-.03l2.095.001q15.624.002 31.25-.019 17.778-.023 35.557.002c6.043.009 12.087.011 18.13-.004q8.31-.02 16.62.01 2.994.005 5.99-.01c21.637-.105 40.33 3.885 56.242 19.634 10.186 10.785 18.5 24.488 18.774 39.7.189 7.316.189 7.316 2.613 10.081a184 184 0 0 0 4.266 3.301c6.263 5.448 8.551 14.876 9.253 22.89.066 2.097.074 4.185.058 6.282l.005 2.4c.003 2.625-.008 5.25-.019 7.876v5.679c.002 5.119-.01 10.238-.024 15.357-.013 5.357-.014 10.714-.016 16.071q-.011 15.204-.043 30.408c-.022 11.543-.033 23.085-.043 34.628q-.033 35.605-.101 71.21l2.867.921c7.811 2.69 14.648 9.157 18.356 16.5 3.924 9.285 3.93 18.011 3.938 27.975l.015 4.062q.019 5.496.024 10.99.005 3.44.012 6.88.02 10.782.027 21.564.007 12.41.05 24.82.034 9.618.034 19.236 0 5.733.025 11.466.023 5.396.01 10.793c-.002 1.935.012 3.87.026 5.805-.052 11.09-2.06 20.408-9.384 28.988-5.05 4.82-9.25 7.161-16 9l.213 3.329c.79 13.076.942 26.112.948 39.21l.015 6.896q.019 9.274.024 18.55l.012 11.613q.019 16.131.026 32.261v4.151l.003 6.255q.008 16.781.045 33.562.035 17.297.037 34.594 0 9.685.025 19.37.023 9.097.01 18.195-.002 3.328.013 6.656c.06 14.117-.388 26.709-7.058 39.483l-1.051 2.05c-3.096 5.856-6.788 10.933-11.262 15.825l-1.672 1.914c-8.389 9.068-22.266 17.241-34.744 18.289-3.412.125-6.824.246-10.237.35l-2.027.063c-20.458.624-40.927.541-61.393.544q-8.999.005-17.997.016-20.598.02-41.196.025-10.2.004-20.402.01a174755 174755 0 0 1-87.534.03h-2.201c-23.606.003-47.213.02-70.82.042a80263 80263 0 0 1-83.33.04h-2.05q-16.288.005-32.576.027-16.359.022-32.719.01-8.852-.008-17.704.011-8.11.019-16.221 0-2.925-.004-5.85.01c-13.848.057-27.198-.425-39.702-7.131l-2.039-1.06c-5.177-2.78-9.534-5.908-13.586-10.19l-1.746-1.652c-4.134-4.208-6.88-8.96-9.566-14.16l-1.024-1.938c-4.562-9.255-4.96-19.153-4.921-29.304l-.01-3.544q-.011-4.842-.002-9.686c.003-3.52-.005-7.039-.012-10.558q-.014-9.245-.011-18.488c.003-9.165-.006-18.33-.016-27.494-.02-17.321-.025-34.643-.026-51.965a98630 98630 0 0 0-.017-51.69l-.001-2.902q-.02-40.402-.02-80.806v-3.076l.001-15.437v-9.297q.002-48.228-.04-96.455a120176 120176 0 0 1-.046-119.957v-2.876c0-15.259-.013-30.518-.03-45.778q-.026-23.01-.006-46.02.012-13.663-.016-27.325-.018-9.138.005-18.274c.008-3.466.01-6.932-.007-10.397-.088-23.168 1.383-43.193 18.35-60.784L216 120l1.566-1.668c3.812-3.712 8.376-6.086 13.059-8.52l1.899-1.01c12.808-6.363 26.048-6.236 39.99-6.19" id="svg-layer-1" style="pointer-events: all;"/><path fill="#F3E4D2" d="m306 134 219.188-.187 69.25-.083c27.871-.014 27.871-.014 40.912-.016q13.685-.005 27.368-.03 15.784-.03 31.567-.024c5.382.001 10.764-.001 16.146-.018q7.307-.02 14.614-.005 2.634.003 5.27-.012c16.439-.083 29.685 1.502 42.044 13.14 4.78 6.51 6.232 12.877 6.122 20.821l.01 2.795c.007 3.068-.015 6.135-.037 9.203q-.001 3.313.002 6.625a3685 3685 0 0 1-.05 17.936c-.025 6.254-.028 12.508-.033 18.762q-.017 15.738-.071 31.475-.056 16.204-.082 32.41l-.003 2.02-.016 10.035A48644 48644 0 0 1 778 382l-3.961.018q-18.558.086-37.115.218c-6.359.044-12.718.084-19.077.11q-9.22.041-18.44.117-3.502.025-7.005.035C668.035 382.57 648.88 385.96 629 401l-2.59 1.898C615.484 412.425 609.895 427 608 441c-.28 4.585-.304 9.157-.3 13.75l-.014 3.92a1754 1754 0 0 0-.002 8.178q.007 4.13-.02 8.26c-.178 27.048.099 52.6 19.695 73.396 20.897 18.658 46.19 18.614 72.563 18.812l6.944.063q9.084.082 18.168.153 9.292.077 18.583.161 18.191.162 36.383.307l-2 1v77H306zM795 802q.149 7.147.22 14.294.03 2.424.082 4.847c.31 14.745-1.389 26.442-11.892 37.539-7.378 6.978-16.896 9.472-26.794 9.454l-2.636.007q-4.413.009-8.825.006l-6.36.011q-8.767.014-17.536.017-9.446.007-18.89.022-21.747.027-43.494.037l-21.49.015a172431 172431 0 0 1-78.175.042h-2.314l-11.605.004h-2.326q-37.333.014-74.666.065a66973 66973 0 0 1-87.593.058h-2.155q-17.168.006-34.336.04-17.257.03-34.516.016a4873 4873 0 0 0-18.699.016q-8.56.026-17.12.001-3.095-.004-6.191.014c-21.783.117-21.783.117-30.564-6.755-3.982-5.154-6.852-9.921-6.441-16.68 1.12-7.332 3.662-13.158 9.316-18.07 5.895-3.475 11.217-4.583 17.978-4.494l2.61-.014c2.876-.012 5.751.006 8.628.023q3.13-.005 6.26-.012c5.728-.01 11.455.003 17.183.021 6.18.016 12.36.008 18.54.002q16.064-.008 32.127.019c15.502.024 31.004.02 46.506.01l21.684-.012h2.193a61412 61412 0 0 1 53.932.004 210966 210966 0 0 1 70.957.038l2.277.001c17.172.01 34.343.016 51.515.008l2.19-.002q10.824-.005 21.648-.014c15.48-.012 30.958-.01 46.437.017q16.935.03 33.87.008c6.11-.007 12.22-.006 18.33.017q8.404.03 16.807-.003 3.028-.005 6.055.017c21.122.142 38.843-4.141 54.628-19.13C794 802 794 802 795 802" id="svg-layer-2" style="pointer-events: all;"/><path fill="#4C7791" d="M276 135v514l-28 1c-7.419 1.202-13.943 2.625-21 5-.068-46.846-.132-93.692-.17-140.538l-.001-2.101a376639 376639 0 0 1-.05-69.618q-.027-35.752-.084-71.503a60751 60751 0 0 1-.075-85.935c-.005-10.958-.024-21.917-.047-32.876q-.036-16.53-.027-33.062c.003-5.97-.001-11.94-.023-17.91q-.028-8.2-.007-16.402.003-2.964-.016-5.928c-.077-12.91.035-24.46 9.512-34.342C248.443 133.624 258.112 135 276 135" id="svg-layer-3" style="pointer-events: all;"/><path fill="#F1E3D2" d="M306 742h474c0 27.547 0 27.547-9 39l-1.523 1.941c-5.554 6.272-13.17 9.817-21.509 10.513-4.78.237-9.558.19-14.343.147q-2.775.003-5.55.013c-5.058.011-10.116-.009-15.174-.034-5.464-.021-10.928-.014-16.392-.01q-14.188.002-28.375-.041c-13.675-.041-27.35-.054-41.025-.06q-33.283-.018-66.566-.092-32.325-.07-64.65-.102l-2.015-.002q-11.008-.012-22.016-.021C416.575 793.2 361.287 793.11 306 793z" id="svg-layer-4" style="pointer-events: all;"/><path fill="#E48F1A" d="m679.8 410.866 3.436-.013 3.727.002 3.958-.01q5.36-.014 10.717-.012 3.352-.001 6.703-.006 11.703-.014 23.405-.012 10.893-.001 21.786-.026 9.367-.019 18.734-.018 5.587.002 11.176-.013c4.155-.012 8.31-.007 12.466 0 .614-.004.614-.004 3.72-.018 13.756.05 13.756.05 19.184 4.635 3.286 3.943 4.44 6.556 4.429 11.7 0 .511 0 .511.008 3.101l-.022 3.386v3.578a2447 2447 0 0 1-.024 9.699c-.013 3.38-.014 6.761-.016 10.142q-.011 9.6-.043 19.198c-.022 7.287-.033 14.573-.043 21.86q-.033 22.48-.101 44.961h-2v-2c-3.137-1.046-5.34-1.132-8.633-1.145l-3.555-.02-3.906-.009-4.11-.02q-4.43-.022-8.859-.036c-4.679-.015-9.358-.04-14.037-.065q-19.959-.104-39.918-.182-11.02-.043-22.041-.106-6.96-.04-13.922-.056-4.358-.016-8.714-.047-2.949-.013-5.897-.013c-15.11-.122-30.067-2.05-41.431-12.918-6.344-7.648-9.078-15.968-9.138-25.759l-.03-3.844-.012-4.135-.009-2.122q-.022-5.56-.028-11.122c-.006-3.805-.03-7.61-.058-11.414-.019-2.947-.024-5.894-.026-8.841q-.004-2.102-.024-4.204c-.106-12.15.969-21.738 9.348-30.942l1.676-1.875c8.282-8.229 20.711-11.24 32.124-11.259" id="svg-layer-5" style="pointer-events: all;"/><path fill="#7093A4" d="M306 677a796686 796686 0 0 1 201.178-.055h2.133q34.256-.007 68.512-.021 36.185-.015 72.368-.018 21.69-.002 43.379-.014 14.851-.007 29.702-.006 8.582.002 17.165-.005 7.843-.007 15.686-.002 2.85.001 5.701-.004 3.85-.005 7.697.002l2.282-.008c5.083.017 5.083.017 6.197 1.131v37H306z" id="svg-layer-6" style="pointer-events: all;"/><path fill="#00243F" d="M716.25 447.688c6.304 5.138 12.323 12.11 13.75 20.312.867 11.702.359 21.668-7.277 31.086-7.345 8.16-14.76 12.556-25.785 13.789-10.443.548-19.024-2.509-27.125-9.062-4.057-3.707-6.548-7.844-8.813-12.813l-1.086-2.379c-3.492-10.013-1.97-19.356 2.274-28.683 4.981-9.402 12.041-13.971 21.812-17.938 11.42-2.926 22.565-.999 32.25 5.688" id="svg-layer-7" style="pointer-events: all;"/><path fill="#4D7792" d="M276 742v51l-12.187.375c-12.93.467-24.431 1.796-36.813 5.625q-.186-8.27-.275-16.54a567 567 0 0 0-.102-5.616c-.466-20.563-.466-20.563 5.377-27.844 11.843-10.08 29.834-7 44-7" id="svg-layer-8" style="pointer-events: all;"/><path fill="#7092A4" d="M264.5 676.938 276 677v38l-12.875.313c-12.087.369-24.55.828-36.125 4.687-.116-4.541-.187-9.083-.25-13.625l-.102-3.895c-.122-11.783-.122-11.783 4.352-16.48l1.71-1.828c9.278-7.927 20.148-7.324 31.79-7.235" id="svg-layer-9" style="pointer-events: all;"/><path fill="#EFE2D1" d="M699 467c2.965 2.062 4.676 3.558 5.484 7.156.256 4.259-.099 6.3-2.609 9.844-3.226 2.245-4.95 3-8.875 3-4.315-1.354-5.67-2.424-7.937-6.375-1.517-5.173-1.517-5.173-.063-8.625 4.408-5.104 7.354-6.86 14-5" id="svg-layer-10" style="pointer-events: all;"/></svg>