<svg xmlns="http://www.w3.org/2000/svg" width="1024" height="1024"><path fill="none" d="M0 0h1024v1024H0zm834 51c-.677.378-1.354.755-2.05 1.145-2.417 1.506-4.67 3.148-6.95 4.855l-1.805 1.35c-9.68 7.261-19.167 14.758-28.585 22.356-2.213 1.779-4.444 3.534-6.673 5.294-4.657 3.721-9.17 7.6-13.68 11.497a430 430 0 0 1-11.194 9.316 116 116 0 0 0-10.407 9.523c-2.35 2.36-4.868 4.503-7.386 6.68a713 713 0 0 0-38.106 35.851c-2.642 2.604-5.417 5.012-8.234 7.422-2.69 2.384-5.185 4.94-7.68 7.524-1.836 1.785-3.697 3.427-5.646 5.083-5.188 4.53-10.018 9.405-14.866 14.29a2985 2985 0 0 1-5.061 5.086q-5.373 5.392-10.74 10.79-6.23 6.268-12.47 12.528a3652 3652 0 0 0-4.95 4.982C632.51 231.6 627.462 236.463 622 241a78 78 0 0 0-3.375 3.813c-3.959 4.654-8.275 8.902-12.625 13.187q-1.44 1.467-2.875 2.938C601 263 601 263 598 265v2l-1.759.774c-2.473 1.353-4.112 2.85-6.1 4.845l-2.287 2.278-2.478 2.5-2.632 2.631q-3.566 3.57-7.121 7.146-3.722 3.738-7.451 7.468-7.054 7.065-14.1 14.141-8.022 8.054-16.055 16.1A43553 43553 0 0 0 505 358l-3.292-2.812-1.851-1.581c-10.309-8.92-19.93-18.61-29.525-28.283l-1.538-1.55a5959 5959 0 0 1-14.215-14.367 2459 2459 0 0 0-7.875-7.949q-1.484-1.496-2.96-3a762 762 0 0 0-4.116-4.155l-2.35-2.38c-4.18-3.53-8.458-4.536-13.827-4.342-6.845 1.17-12.7 8.34-17.47 13.067l-1.895 1.868a1345 1345 0 0 0-3.915 3.887 867 867 0 0 1-5.99 5.878 2938 2938 0 0 0-3.826 3.805l-1.799 1.74c-4.046 4.09-5.984 7.614-7.556 13.174.422 11.325 12.711 19.87 20.197 27.327q2.604 2.6 5.2 5.206c5.104 5.107 10.218 10.113 15.715 14.801 3.802 3.354 7.325 7 10.888 10.603l2.348 2.362A3672 3672 0 0 1 441 397l-1.418.99c-5.868 4.233-10.917 9.056-16.019 14.172l-2.783 2.768a3724 3724 0 0 0-7.584 7.569c-2.731 2.73-5.469 5.453-8.205 8.178q-8.96 8.929-17.907 17.871-5.595 5.591-11.195 11.178a54484 54484 0 0 0-31.037 30.999l-2.003 2.002-4.019 4.018-2.015 2.014-2.017 2.017a29103 29103 0 0 1-32.366 32.298 27540 27540 0 0 0-33.284 33.226 11522 11522 0 0 1-18.666 18.628 6007 6007 0 0 0-15.891 15.875q-4.038 4.051-8.097 8.08C215.757 619.534 205.569 629.8 198 643l-2 3.406c-1.78 3.068-3.492 6.166-5.187 9.282l-1.895 3.44c-5.36 9.755-10.612 19.57-15.82 29.408-3.116 5.868-6.348 11.616-9.805 17.29-1.676 2.819-3.125 5.718-4.543 8.674-2.593 5.302-5.359 10.48-8.25 15.625-4.334 7.716-8.526 15.502-12.687 23.313A1616 1616 0 0 1 122.5 781.5a1647 1647 0 0 0-16.14 29.598l-.948 1.775c-6.948 13.017-14 25.974-21.15 38.88L80.25 859l-1.017 1.838a1952 1952 0 0 0-15.483 28.6l-1.01 1.9-1.003 1.887A2480 2480 0 0 1 49.5 916l-1.463 2.685a623 623 0 0 1-10.514 18.44C34.113 943.562 33.101 948.939 35 956c3.017 5.426 7.085 8.164 13 10 5.657.862 11.155 1.159 16.871 1.168l2.518.013q4.024.013 8.049.006l2.79-.002c45.616-.1 89.68-8.18 132.772-23.185l2.853-.987c36.1-12.663 71.252-32.25 100.17-57.435 2.778-2.406 5.61-4.718 8.477-7.015 15.366-12.59 29.078-27.053 43.063-41.125q5.725-5.762 11.459-11.516a3085 3085 0 0 0 4.54-4.572l2.784-2.794 2.438-2.454C389 814 389 814 391.291 812.34L393 811v-2l3-1c1.422-1.441 1.422-1.441 2.973-3.34 4.385-5.166 9.145-9.928 13.942-14.706q2.278-2.272 4.548-4.554l2.97-2.966 2.659-2.655c2.148-2.096 4.378-4.069 6.651-6.027 3.89-3.395 7.605-6.928 11.273-10.56l1.994-1.964q3.272-3.226 6.538-6.456l4.718-4.654a16256 16256 0 0 0 42.82-42.448l5.712-5.679 1.434-1.425a7330 7330 0 0 1 23.058-22.8 5525 5525 0 0 0 23.708-23.5c4.416-4.402 8.843-8.793 13.298-13.157q6.283-6.16 12.487-12.403a420 420 0 0 1 4.587-4.513c9.675-9.386 15.008-16.453 15.63-30.193 5.174 2.095 8.13 3.743 11.938 8 3.947 4.079 7.225 7.446 13.062 8 4.646-.417 8.11-1.407 12-4v-2l1.703-.71c2.843-1.597 4.778-3.58 7.047-5.915l2.422-2.477L647 593c3.523 1.505 5.777 3.582 8.5 6.25 7.877 7.194 16.849 11.649 27.5 12.75l2.387.25c14.122.728 26.161-6.438 36.613-15.25 3.825-4.029 7.01-8.165 7.181-13.89-.662-7.7-6.735-13.183-11.979-18.235l-2.366-2.33a1389 1389 0 0 0-5.075-4.962c-2.682-2.613-5.35-5.24-8.015-7.872a5963 5963 0 0 0-22.786-22.367 2791 2791 0 0 1-13.941-13.722 853 853 0 0 0-5.326-5.205 848 848 0 0 1-7.413-7.292l-2.248-2.142c-5.464-5.507-5.464-5.507-5.546-10.249C645.84 478.895 650.208 473.96 657 467l1.91-2.062c5.207-5.484 11.134-9.946 17.16-14.475 3.613-2.739 7.172-5.545 10.742-8.338a902 902 0 0 1 17.313-13.187c7.544-5.612 14.84-11.502 22.099-17.478 2.48-2.038 4.973-4.06 7.463-6.085C743.329 397.471 752.779 389.39 762 381q2.406-2.157 4.813-4.312c9.98-8.996 19.753-18.118 29.187-27.688 2.687-2.7 5.388-5.382 8.113-8.043l3.2-3.144 1.666-1.616c1.378-1.361 2.704-2.775 4.021-4.197v-2l3-1c1.402-1.426 1.402-1.426 2.938-3.312 3.18-3.762 6.556-7.235 10.062-10.688 3.86-3.816 7.572-7.674 11.094-11.809 2.572-2.956 5.24-5.82 7.906-8.691 3.807-4.106 7.563-8.241 11.227-12.477 3.074-3.507 6.235-6.936 9.386-10.375 1.923-2.134 3.753-4.304 5.574-6.523 20.512-23.504 50.308-38.452 79.54-47.754 11.352-3.729 19.474-8.627 25.304-19.25 6.326-14.966.863-33.326-4.281-47.746-16.36-40.304-54.919-82.578-95.02-99.777-13.657-5.138-32.622-6.952-45.73.402" id="svg-layer-0" style="pointer-events: all; fill: none;"/><path fill="#01294B" d="m880 51 3.438 1.508C897.17 58.983 908.708 68.019 920 78l1.543 1.352c26.262 23.089 57.027 59.076 59.596 95.625.52 11.294.374 21.59-6.889 30.898-6.727 6.815-14.856 9.579-23.788 12.516-25.717 8.529-48.68 20.92-68.462 39.609a741 741 0 0 1-4 3.375c-7.039 6.129-12.982 13.433-19.09 20.465-2.908 3.29-5.89 6.51-8.865 9.74a369 369 0 0 0-7.482 8.358c-7.532 8.666-15.378 17.027-23.602 25.039C817 327 817 327 815 330h-2l-.7 1.691c-1.645 2.922-3.71 4.91-6.112 7.247l-2.583 2.527L801 344q-3.534 3.519-7.045 7.061a8125 8125 0 0 1-7.268 7.314l-2.474 2.5c-4.32 4.338-8.703 8.519-13.348 12.507-2.973 2.579-5.815 5.293-8.678 7.993a265 265 0 0 1-15.421 13.39c-3.074 2.484-6.076 5.042-9.078 7.61-6.185 5.265-12.54 10.289-18.953 15.272a845 845 0 0 0-4.993 3.927c-7.02 5.556-14.114 11.01-21.242 16.426-24.848 18.901-24.848 18.901-34.5 28l-2.25 2.09c-4.879 4.672-9.898 9.884-10.75 16.91l-.477 3.614c.04 4.874 2.26 7.094 5.584 10.444l2.28 2.175 2.38 2.363c2.598 2.572 5.222 5.114 7.846 7.658q2.716 2.68 5.427 5.363c4.275 4.228 8.566 8.438 12.866 12.64a6170 6170 0 0 1 24.383 23.964c2.664 2.623 5.342 5.233 8.021 7.841q2.458 2.417 4.914 4.835l2.262 2.18c5.2 5.155 8.456 9.253 8.577 16.86-1.596 8.537-8.417 13.57-15.204 18.239-11.791 7.523-22.902 10.311-36.859 7.824-11.524-3.105-19.94-9.402-28-18-3.677 1.528-5.902 3.756-8.625 6.625A107 107 0 0 1 636 604h-2v2c-3.84 2.909-7.211 3.838-12 4-7.457-1.491-11.353-6.054-16.29-11.504-2.9-2.67-4.99-3.387-8.71-4.496l-.113 2.904c-1.179 13.78-8.782 20.772-18.339 30.04q-2.438 2.435-4.869 4.879a1718 1718 0 0 1-13.24 13.089c-4.642 4.565-9.248 9.166-13.858 13.763a6261 6261 0 0 1-23.29 23.07 7752 7752 0 0 0-23.93 23.683l-1.486 1.478-5.916 5.883a16656 16656 0 0 1-45.446 45.05q-2.379 2.347-4.755 4.698a5185 5185 0 0 1-6.514 6.427l-1.88 1.862c-3.744 3.68-7.599 7.187-11.577 10.611-2.619 2.29-5.067 4.713-7.53 7.172l-1.498 1.496a1828 1828 0 0 0-3.08 3.085q-2.354 2.361-4.718 4.712l-3.016 3.02-2.734 2.737C397 806 397 806 395 809h-2c-.26.597-.52 1.194-.786 1.81-1.31 2.364-2.544 3.538-4.63 5.233-5.06 4.288-9.695 8.97-14.353 13.682a2304 2304 0 0 1-4.813 4.848q-6.84 6.877-13.665 13.77a4161 4161 0 0 1-8.412 8.467q-1.584 1.593-3.163 3.193c-6.003 6.083-12.129 11.797-18.827 17.12a130 130 0 0 0-6.003 5.107C285.326 912.036 244.068 933.246 202 947l-2.613.866c-40.565 13.336-82.267 19.23-124.887 19.384l-2.546.016c-25.998.126-25.998.126-35.266-8.391-2.426-4.133-3.204-8.106-2.688-12.875 2.878-8.448 7.796-16.335 12-24.187l2.302-4.317a2697 2697 0 0 1 14.305-26.46 2792 2792 0 0 0 11.518-21.286c4.285-7.977 8.613-15.927 13.039-23.827 4.382-7.85 8.614-15.781 12.84-23.716a355 355 0 0 1 9.71-17.04c1.61-2.714 2.996-5.503 4.349-8.355 3.002-6.167 6.34-12.112 9.75-18.062 5.67-9.913 11.056-19.958 16.374-30.062 5-9.497 10.006-18.98 15.263-28.339 3.37-6 6.653-12.045 9.925-18.099l3.344-6.184 1.664-3.077a4469 4469 0 0 1 11.978-21.99q2.226-4.076 4.435-8.16 1.956-3.605 3.929-7.2c.927-1.698 1.844-3.4 2.76-5.103 6.582-11.974 14.62-22.099 24.309-31.697q1.433-1.436 2.863-2.873 3.886-3.895 7.789-7.774c2.815-2.805 5.621-5.618 8.429-8.43q8.23-8.236 16.477-16.456c6.403-6.386 12.798-12.78 19.193-19.174a49398 49398 0 0 1 34.236-34.194 52715 52715 0 0 0 33.22-33.18l2.07-2.069 4.127-4.126c.68-.678 1.358-1.357 2.057-2.056l2.052-2.05q15.833-15.827 31.674-31.648l11.48-11.468q9.093-9.087 18.193-18.167 4.159-4.149 8.313-8.3a6509 6509 0 0 1 7.605-7.59q2.034-2.029 4.063-4.062l2.429-2.417 2.099-2.096C438 399 438 399 441 397q-4.689-4.725-9.387-9.442l-3.183-3.203c-5.27-5.312-10.547-10.54-16.236-15.408-4.742-4.209-9.236-8.685-13.741-13.144a547 547 0 0 0-3.558-3.476 619 619 0 0 1-5.196-5.104l-1.6-1.532c-3.688-3.71-5.974-7.535-7.099-12.691.41-11.367 12.863-20.05 20.362-27.547q2.655-2.663 5.298-5.338l3.41-3.416 1.579-1.6c3.414-3.393 6.734-6.635 11.597-7.497l2.192.023 2.183-.023c5.904.988 9.932 4.522 13.982 8.676l1.59 1.593c1.721 1.729 3.432 3.468 5.143 5.207q1.807 1.82 3.616 3.636c3.17 3.187 6.33 6.382 9.49 9.58a8152 8152 0 0 0 15.163 15.289q2.631 2.654 5.257 5.315c5.53 5.588 11.092 11.067 17.138 16.102l1.557 1.299L505 358l1.416-1.421a47083 47083 0 0 1 34.075-34.174q8.245-8.258 16.479-16.526 7.175-7.204 14.36-14.397 3.807-3.81 7.606-7.63c2.822-2.838 5.652-5.668 8.483-8.498l2.557-2.579 2.329-2.32 2.028-2.034C596 267 596 267 598 267v-2c3.047-3.351 6.437-6.296 9.813-9.312 5.72-5.125 11.282-10.33 16.187-16.25 1.997-2.385 4.063-4.418 6.445-6.415 5.176-4.478 9.97-9.324 14.787-14.18a2968 2968 0 0 1 5.049-5.073Q655.644 208.39 661 203q6.216-6.252 12.439-12.495a3610 3610 0 0 0 4.932-4.963c4.883-4.908 9.797-9.725 15.077-14.212 1.958-1.678 3.762-3.476 5.552-5.33 2.48-2.518 4.994-4.9 7.688-7.187 4.408-3.783 8.44-7.913 12.52-12.04a177 177 0 0 1 11.034-10.234c1.837-1.608 3.547-3.297 5.258-5.039 2.946-2.992 6.03-5.753 9.21-8.492a317 317 0 0 0 6.57-5.962 296 296 0 0 1 15.751-13.609c3.492-2.866 6.884-5.835 10.282-8.812 5.911-5.163 11.966-10.083 18.171-14.887 2.389-1.85 4.75-3.727 7.094-5.633 6.81-5.536 13.72-10.913 20.797-16.105l2.196-1.636C841.301 44.96 862.107 43.125 880 51m-54.762 84.105c-5.773 8.122-7.161 16.016-6.238 25.895 1.468 6.661 4.796 11.746 10.371 15.668 7.424 4.644 13.87 6.26 22.629 5.332 9.646-2.734 16.725-7.45 22-16 4.093-7.39 5.17-14.633 4-23-2.487-8-7.01-13.228-14.25-17.25-13.935-6.431-28.78-2.275-38.512 9.355M687.77 267.585c-5.12 6.986-5.74 14.97-4.77 23.415 1.724 7.206 5.092 12.522 11 17 7.868 4.744 14.842 5.746 24 5 8.077-2.034 14.064-7.509 19.313-13.75 4.546-8.756 5.844-17.15 2.964-26.629-3.214-8.223-8.213-12.956-16.215-16.558-14.286-5.378-26.75.32-36.292 11.523M575.5 380.314c-5.609 7.544-8.049 15.659-7.316 25.039 1.365 8.19 6.565 14.288 12.91 19.394 7.024 4.62 15.093 5.342 23.222 3.82 7.684-2.15 14.173-6.876 18.621-13.503 3.946-7.06 5.345-14.82 3.41-22.731-2.658-8.273-6.725-14.718-14.597-18.77-12.51-5.579-26.732-3.434-36.25 6.75m-94.541 13.615-2.65 2.666-1.409 1.412q-2.234 2.245-4.462 4.494l-3.022 3.035A5523 5523 0 0 0 462 413a201 201 0 0 0 12.43 13.563l1.8 1.802q1.87 1.873 3.746 3.741 2.834 2.83 5.66 5.667c5.411 5.413 10.82 10.712 16.655 15.67 2.487 2.266 4.603 4.801 6.78 7.361 3.911 4.452 8.169 8.579 12.366 12.759l2.737 2.748 2.697 2.693 2.404 2.4a165 165 0 0 0 6.38 5.75c4.379 3.823 8.498 7.865 12.597 11.984l2.368 2.368q3.834 3.836 7.661 7.678l5.347 5.35q6.292 6.3 12.579 12.6 7.166 7.182 14.336 14.359Q605.275 556.242 620 571q1.683-1.435 3.364-2.871l1.893-1.616c1.982-1.72 3.86-3.516 5.708-5.38l1.982-1.992 1.99-2.016 2.073-2.086q2.499-2.516 4.99-5.039c-1.313-2.902-2.719-4.967-4.977-7.207l-1.785-1.78-1.863-1.826-1.793-1.79c-2.998-2.97-6.05-5.828-9.258-8.569-4.626-4.033-8.952-8.33-13.275-12.682l-2.595-2.599q-3.489-3.496-6.973-6.998-3.67-3.683-7.344-7.361-10.113-10.133-20.218-20.274-9.27-9.301-18.548-18.596-3.646-3.651-7.287-7.31-4.063-4.08-8.133-8.154l-2.396-2.413a234 234 0 0 0-12.821-11.933c-2.093-1.82-4.07-3.73-6.023-5.7l-2.233-2.242-2.318-2.343-2.447-2.459a6831 6831 0 0 1-7.65-7.702 9338 9338 0 0 0-10.153-10.214l-2.36-2.386-2.167-2.177-1.912-1.927c-2.285-2.109-2.14-1.671-4.512.57m-40.702 48.581-2.12 2.144-2.41 2.419c-.86.874-1.722 1.75-2.61 2.65l-2.691 2.708a3765 3765 0 0 0-7.103 7.168q-4.962 5.017-9.934 10.022a2307 2307 0 0 0-5.283 5.336c-4.274 4.308-8.618 8.433-13.22 12.387-3.155 2.772-6.098 5.746-9.054 8.727l-1.948 1.952a4791 4791 0 0 0-6.072 6.103l-4.1 4.113q-4.515 4.532-9.026 9.069c-3.98 3.997-7.976 7.978-11.979 11.952l-3.173 3.151-1.694 1.683a31037 31037 0 0 0-38.73 38.538 14922 14922 0 0 1-22.375 22.257 9228 9228 0 0 0-19.557 19.463q-5.156 5.15-10.335 10.278-4.88 4.83-9.73 9.692a657 657 0 0 1-3.555 3.525c-7.578 7.46-13.402 14.82-18.558 24.154l-1.688 3.009a525 525 0 0 0-4.437 8.178l-1.658 3.084a4838 4838 0 0 0-3.46 6.448c-2.931 5.473-5.876 10.94-8.82 16.406l-1.773 3.297a3992 3992 0 0 1-12.698 23.393 2610 2610 0 0 0-7.646 14.08c-5.282 9.8-10.616 19.56-16.132 29.23-6.152 10.795-11.994 21.744-17.819 32.718l-1.006 1.895-.997 1.88c-6.85 12.891-13.9 25.672-21.01 38.42-4.042 7.263-7.996 14.573-11.938 21.89a968 968 0 0 1-8.227 14.978l-1.566 2.798q-1.471 2.62-2.963 5.23l-1.31 2.34-1.162 2.044L98 895l1 2c37.383-6.483 72.946-16.033 107-33l2.751-1.359c23.204-11.544 45.294-25.603 64.838-42.685 2.149-1.872 4.315-3.72 6.507-5.541 9.631-8.04 18.478-16.746 27.302-25.653l4.591-4.607q5.984-6.004 11.955-12.02 9.587-9.65 19.19-19.285 3.325-3.344 6.646-6.692l4.108-4.128 1.83-1.85c3.72-3.73 7.57-7.25 11.56-10.687 1.994-1.729 3.89-3.532 5.757-5.395l2.014-2.01 2.014-2.025 2.025-2.014c3.888-3.896 7.567-7.908 11.164-12.074 2.95-3.332 6.092-6.464 9.248-9.6l1.895-1.906c3.628-3.62 7.339-7.011 11.337-10.22L414 683v-2l1.75-.764c2.533-1.391 4.205-2.956 6.237-5.01l2.373-2.381 2.577-2.618 4.16-4.188q2.232-2.251 4.461-4.508c3.11-3.147 6.23-6.286 9.351-9.423q13.312-13.384 26.59-26.8 7.337-7.41 14.694-14.796 3.885-3.898 7.75-7.816c38.094-38.638 38.094-38.638 63.623-39.868A200 200 0 0 1 567 563c-2.563-3.284-5.092-6.162-8.295-8.826-5.952-5.152-11.429-10.787-16.974-16.367q-3.076-3.095-6.158-6.183-7.647-7.67-15.286-15.347-6.472-6.503-12.952-12.998-3.017-3.028-6.028-6.06c-11.04-11.084-11.04-11.084-16.764-15.88-2.675-2.321-5.001-4.95-7.356-7.589-7.36-8.101-14.917-15.952-23.269-23.047-2.906-2.58-5.574-5.386-8.254-8.2-2.323-2.099-3.05-2.035-5.407.006" id="svg-layer-1" style="pointer-events: all;"/><path fill="none" d="M442 441c4.028 1.848 6.713 4.527 9.75 7.688 3.302 3.373 6.577 6.701 10.188 9.75 7.338 6.264 14.36 13.232 20.562 20.625 2.862 3.376 6.045 6.325 9.32 9.29 6.736 6.158 13.207 12.555 19.637 19.03q2.951 2.968 5.907 5.93 6.258 6.277 12.511 12.562 7.288 7.325 14.584 14.64 2.893 2.904 5.781 5.813l3.572 3.582 1.59 1.606c3.285 3.285 6.701 6.33 10.284 9.288L567 562v1l-2.281-.176c-20.735-.88-38.563 9.846-53.719 23.176-7.033 6.573-13.77 13.454-20.537 20.299-2.613 2.639-5.235 5.269-7.856 7.9-5.504 5.524-10.998 11.058-16.49 16.595q-12.458 12.56-24.94 25.095a4407 4407 0 0 0-9.326 9.396q-2.19 2.209-4.385 4.415a1732 1732 0 0 0-5.344 5.393l-2.37 2.374-2.061 2.08C416 681 416 681 414 681l-.637 1.66c-1.856 3.185-4.444 5.364-7.175 7.778-4.797 4.333-9.49 8.743-14.063 13.312l-1.546 1.533a164 164 0 0 0-7.966 8.604c-3.675 4.24-7.572 8.22-11.55 12.176l-2.014 2.025-2.014 2.01-1.77 1.766c-1.952 1.84-3.944 3.593-5.976 5.344-3.88 3.39-7.552 6.932-11.173 10.594l-1.93 1.94a3679 3679 0 0 0-4.104 4.131q-3.26 3.285-6.526 6.562-9.278 9.315-18.54 18.645a7680 7680 0 0 1-11.388 11.442q-2.154 2.163-4.301 4.332c-7.091 7.16-14.132 14.13-22.073 20.355-2.186 1.737-4.222 3.566-6.254 5.479-47.587 42.59-112.615 67.264-175 76.312 1.263-4.071 2.773-7.718 4.8-11.465l1.692-3.136 1.82-3.337 1.897-3.5c4.51-8.306 9.15-16.536 13.83-24.747 4.541-7.998 8.893-16.091 13.216-24.21 5.184-9.735 10.472-19.408 15.819-29.055 4.769-8.608 9.47-17.249 14.113-25.925a1019 1019 0 0 1 13.438-24.312c4.83-8.461 9.396-17.028 13.856-25.689 4.025-7.775 8.306-15.384 12.655-22.981 4.367-7.667 8.483-15.445 12.468-23.317A427 427 0 0 1 222 667l1.812-3.358c5.49-9.82 12.123-17.402 20.124-25.243q1.923-1.918 3.842-3.84c3.439-3.436 6.896-6.854 10.357-10.27 3.636-3.594 7.255-7.207 10.876-10.818a9572 9572 0 0 1 20.586-20.444c10.08-9.986 20.138-19.994 30.196-30.003l4.467-4.445 2.204-2.193q6.454-6.421 12.922-12.831 4.026-3.99 8.048-7.986 1.857-1.842 3.717-3.681c11.361-11.238 11.361-11.238 16.43-17.238 2.637-3.066 5.52-5.894 8.384-8.748l1.93-1.933a3100 3100 0 0 1 4.011-4.005q3.039-3.034 6.069-6.075l3.927-3.924 1.797-1.803c2.987-2.97 6.027-5.825 9.217-8.576 4.373-3.784 8.449-7.824 12.522-11.926l2.32-2.324q3.623-3.634 7.242-7.274l4.95-4.962q6.029-6.045 12.05-12.1" id="svg-layer-2" style="pointer-events: all; fill: none;"/><path fill="#CD8221" d="M483 392c5.46 4.548 10.5 9.383 15.496 14.434l2.401 2.412c3.363 3.379 6.719 6.763 10.076 10.147q3.696 3.724 7.398 7.44l2.26 2.287c.719.72 1.436 1.441 2.175 2.184l1.874 1.89c1.966 1.869 3.969 3.64 6.023 5.409 4.62 4.02 8.934 8.308 13.248 12.65l2.595 2.6q3.489 3.496 6.973 6.998 3.67 3.683 7.344 7.361 10.113 10.133 20.218 20.274 9.27 9.301 18.548 18.596 3.646 3.651 7.287 7.31 4.063 4.08 8.133 8.154l2.396 2.413c4.147 4.147 8.373 8.129 12.83 11.94 2.53 2.202 4.87 4.55 7.225 6.938l2.594 2.622L642 548c-1.514 3.568-3.605 5.837-6.352 8.547l-2.578 2.558-2.695 2.645-2.719 2.691Q624.335 567.727 621 571c-5.27-4.402-10.175-9.042-15.011-13.914l-2.33-2.333a5321 5321 0 0 1-4.97-4.99 7356 7356 0 0 0-7.885-7.908 31725 31725 0 0 1-18.16-18.216 28228 28228 0 0 0-17.983-18.034 8993 8993 0 0 1-7.737-7.769l-4.783-4.793-2.146-2.162a219 219 0 0 0-12.265-11.38c-2.385-2.07-4.625-4.266-6.859-6.497l-2.697-2.693-2.736-2.748-2.749-2.737c-3.91-3.917-7.755-7.83-11.341-12.049-2.158-2.513-4.353-4.733-6.88-6.875-6.705-5.697-12.771-12.101-18.968-18.34l-3.937-3.95Q466.778 418.808 462 414c3.184-3.767 6.362-7.49 9.867-10.965l1.992-1.982 2.016-1.99 2.086-2.073q2.516-2.498 5.039-4.99M865.297 126.383C871.623 130.168 876.02 135.9 878 143c1.195 11.38-1.19 20.34-8.375 29.25-5.458 5.877-12.134 9.119-20.105 10.035-8.74.312-15.9-2.074-22.727-7.539-5.917-5.762-7.92-11.776-8.106-19.871.105-9.356 2.906-16.296 9.317-23.121 10.954-9.625 24.11-11.48 37.293-5.371M732.184 260.574c6.225 5.744 9.467 13.268 9.964 21.692-.52 9.588-4.09 16.917-10.765 23.703-6.953 5.926-14.092 7.404-23.028 7.304-8.397-.684-14.733-5.193-20.355-11.273-5.206-7.193-5.748-14.34-5-23 2.123-8.927 7.378-15.78 14.938-20.875 11.446-6.55 23.594-5.23 34.246 2.45M609.875 372.563C618.011 376.895 623.121 382.2 626 391c2.38 8.352.954 16.66-3.219 24.203-4.36 6.347-10.118 10.332-17.218 13.172-8.875 1.557-16.496.918-24.563-3.375-6.49-4.914-10.886-10.81-12.598-18.785-1.237-9.307 1.054-16.767 6.223-24.527 8.257-10.263 22.995-14.139 35.25-9.125" id="svg-layer-3" style="pointer-events: all;"/></svg>