<svg xmlns="http://www.w3.org/2000/svg" viewBox="0 0 2048 2048" shape-rendering="geometricPrecision">
<path fill="#0F2A3A" fill-rule="evenodd" d="M 888,1414 885,1418 883,1451 885,1453 915,1453 919,1451 922,1447 921,1442 923,1442 921,1439 923,1435 922,1418 913,1415 894,1416 892,1414 Z M 417,1329 417,1362 419,1364 452,1362 457,1358 457,1332 444,1329 434,1330 419,1327 Z M 1591,1196 1589,1193 1587,1194 1585,1192 1575,1192 1575,1194 1571,1193 1561,1196 1537,1198 1531,1204 1532,1207 1530,1212 1530,1225 1532,1231 1536,1233 1536,1235 1549,1235 1558,1233 1561,1234 1576,1231 1587,1232 1592,1227 1591,1224 1594,1215 Z M 1652,1142 1648,1141 1641,1144 1635,1143 1628,1146 1622,1146 1623,1147 1620,1150 1618,1156 1618,1166 1620,1170 1619,1172 1622,1174 1621,1175 1623,1177 1648,1177 1646,1176 1651,1176 1656,1171 1657,1172 1656,1171 1658,1164 1658,1150 Z M 779,546 773,546 770,548 765,547 759,550 757,549 752,552 748,551 734,556 731,555 724,558 716,558 716,560 712,559 710,561 701,562 699,564 696,563 691,566 682,566 682,568 674,568 674,570 672,569 666,572 664,571 640,578 637,577 632,580 623,580 623,582 621,581 615,584 612,583 606,586 603,585 594,588 588,594 588,814 586,816 585,815 585,817 589,823 589,893 593,896 601,893 612,893 612,891 616,892 622,889 627,890 635,887 638,888 645,885 656,885 656,883 660,884 667,881 679,881 679,879 685,878 689,879 689,877 699,877 699,875 704,875 706,873 713,873 732,869 736,870 742,867 754,867 754,865 764,865 764,863 768,864 773,861 779,861 783,857 783,550 Z M 745,615 746,821 743,824 740,823 726,828 719,828 717,830 712,829 709,831 705,830 705,832 694,832 694,834 690,833 683,836 679,835 677,837 674,835 674,632 676,629 678,630 684,627 694,627 694,625 696,626 710,622 713,623 713,621 728,618 732,619 732,617 742,617 742,615 Z M 604,289 599,295 600,297 598,297 598,304 595,309 596,311 594,311 595,313 593,315 594,318 591,322 592,324 590,324 590,331 585,341 586,344 583,348 584,350 582,350 583,352 582,357 579,361 580,363 578,363 579,365 577,368 578,370 576,373 576,377 571,387 572,390 567,400 568,402 566,405 566,409 564,411 564,415 562,417 562,421 559,425 560,427 558,429 558,433 556,435 556,438 554,438 554,444 552,444 552,450 550,450 551,452 549,454 550,456 547,460 548,462 546,464 546,467 542,470 538,465 537,466 532,461 531,462 525,456 522,456 518,453 519,452 516,452 506,444 500,441 494,443 486,452 474,472 472,472 472,475 469,479 468,478 468,481 465,483 466,485 461,491 460,490 461,491 459,492 460,493 456,499 454,499 455,500 451,503 452,504 446,513 440,518 440,521 436,526 434,526 435,527 432,529 433,530 429,533 430,535 422,544 422,768 421,823 419,826 420,828 417,831 418,834 414,836 409,828 410,826 408,825 408,822 405,819 405,815 403,815 404,813 401,811 402,809 399,807 399,803 397,803 389,789 390,787 387,785 388,784 383,778 383,774 382,775 379,771 380,769 378,768 379,767 377,767 375,761 363,742 363,738 362,739 359,735 360,733 358,732 359,731 357,731 354,725 355,724 353,724 351,721 352,720 347,715 348,713 341,705 341,703 333,692 334,691 331,689 328,684 329,683 327,683 325,679 326,678 319,669 316,669 308,678 306,678 306,681 291,696 292,697 286,704 282,706 282,709 276,716 280,735 280,744 282,747 281,752 284,759 284,771 286,771 285,776 288,782 288,791 290,794 289,800 292,807 291,811 294,819 294,833 296,833 295,836 300,857 299,861 300,866 302,868 301,874 304,880 304,889 306,893 305,896 308,906 307,910 309,912 309,921 312,928 312,940 314,940 313,944 316,950 315,955 318,962 317,966 320,973 319,976 322,983 321,986 323,989 323,996 326,1003 326,1009 318,1015 317,1014 317,1016 308,1022 307,1021 308,1022 304,1025 303,1024 303,1026 300,1026 301,1027 287,1037 286,1036 286,1038 282,1041 281,1040 281,1042 278,1042 278,1044 274,1047 273,1046 274,1047 264,1055 266,1061 266,1086 268,1086 267,1092 270,1101 270,1119 272,1122 271,1134 274,1157 274,1183 270,1184 268,1182 261,1180 258,1177 255,1177 254,1175 252,1176 246,1173 245,1171 243,1172 233,1167 232,1165 230,1166 225,1163 209,1163 203,1168 200,1174 199,1207 201,1210 202,1234 204,1237 203,1247 206,1264 205,1272 208,1283 208,1299 210,1302 209,1311 210,1320 212,1323 211,1331 212,1340 214,1343 214,1360 211,1361 206,1357 207,1356 204,1356 198,1352 198,1350 197,1351 176,1336 172,1331 171,1332 166,1328 157,1328 152,1332 151,1331 152,1332 147,1337 148,1340 146,1340 148,1367 148,1394 150,1394 149,1408 150,1419 152,1423 151,1435 154,1457 153,1469 155,1472 156,1506 158,1510 157,1522 160,1546 159,1549 162,1573 162,1589 158,1595 154,1597 155,1598 132,1622 131,1621 132,1622 130,1625 126,1627 127,1628 119,1635 120,1636 114,1643 112,1643 113,1644 101,1656 102,1657 94,1667 92,1667 93,1668 89,1673 90,1675 88,1678 90,1686 97,1693 99,1693 99,1695 101,1694 102,1696 105,1695 111,1698 113,1697 113,1699 121,1698 124,1700 251,1699 252,1701 232,1722 231,1721 232,1722 229,1724 230,1725 228,1727 227,1726 227,1728 218,1737 216,1741 214,1741 215,1742 211,1748 211,1761 214,1766 213,1767 220,1775 222,1775 225,1778 230,1777 232,1779 494,1780 501,1778 503,1779 503,1777 508,1775 510,1776 515,1768 517,1768 517,1764 519,1764 518,1763 526,1757 534,1757 534,1759 549,1759 549,1761 593,1758 624,1759 638,1757 656,1757 663,1758 666,1762 665,1766 668,1771 667,1774 672,1786 672,1791 674,1794 673,1796 678,1804 679,1803 685,1806 959,1805 969,1803 972,1801 973,1802 975,1799 977,1799 976,1798 979,1793 979,1787 977,1787 977,1782 975,1782 976,1775 991,1778 997,1777 1000,1779 1026,1780 1055,1779 1057,1777 1080,1777 1080,1775 1087,1775 1087,1773 1096,1766 1097,1767 1096,1766 1098,1764 1099,1765 1106,1757 1110,1755 1112,1756 1114,1754 1116,1755 1116,1753 1196,1753 1198,1756 1199,1755 1212,1767 1211,1768 1212,1767 1219,1771 1219,1773 1223,1773 1229,1778 1231,1777 1233,1779 1246,1783 1246,1785 1248,1784 1257,1788 1260,1787 1268,1790 1317,1790 1323,1787 1333,1787 1333,1785 1336,1786 1342,1782 1344,1783 1344,1781 1348,1781 1348,1779 1352,1777 1353,1778 1354,1776 1355,1777 1354,1776 1357,1774 1358,1775 1358,1773 1361,1773 1361,1771 1368,1765 1370,1765 1376,1756 1378,1756 1377,1754 1383,1749 1442,1749 1450,1752 1453,1751 1455,1753 1462,1755 1462,1757 1465,1757 1474,1766 1475,1765 1480,1768 1491,1768 1495,1770 1499,1769 1502,1771 1633,1771 1637,1773 1710,1774 1721,1773 1725,1771 1733,1772 1737,1770 1738,1771 1738,1769 1740,1770 1750,1760 1749,1758 1751,1755 1752,1745 1747,1737 1748,1736 1746,1735 1747,1734 1746,1735 1738,1727 1736,1728 1727,1721 1726,1722 1723,1720 1723,1718 1721,1719 1708,1710 1706,1710 1706,1708 1703,1708 1703,1706 1702,1707 1698,1703 1697,1704 1689,1698 1690,1695 1934,1696 1942,1695 1949,1691 1950,1692 1949,1691 1951,1688 1953,1688 1953,1678 1951,1673 1927,1649 1927,1646 1925,1646 1919,1624 1920,1621 1917,1615 1918,1611 1916,1608 1911,1585 1912,1582 1909,1575 1910,1571 1907,1565 1908,1560 1905,1553 1906,1549 1904,1545 1903,1531 1901,1525 1902,1518 1899,1504 1900,1498 1897,1479 1898,1475 1897,1465 1895,1461 1896,1451 1895,1442 1893,1438 1893,1420 1891,1417 1892,1407 1891,1399 1889,1396 1890,1384 1888,1378 1887,1365 1888,1351 1887,1338 1885,1335 1885,1310 1883,1304 1884,1284 1882,1279 1882,1253 1879,1234 1879,1203 1877,1199 1877,1163 1875,1160 1876,1140 1874,1121 1875,1119 1873,1116 1874,1092 1873,1063 1871,1060 1871,1002 1869,999 1869,770 1871,767 1872,716 1869,712 1870,711 1866,710 1866,708 1861,708 1861,706 1854,706 1849,703 1847,704 1847,702 1841,702 1841,700 1835,700 1819,694 1813,694 1810,696 1806,695 1791,699 1787,698 1787,700 1785,699 1767,704 1763,703 1757,706 1752,706 1748,708 1746,707 1742,709 1735,716 1736,718 1734,722 1735,752 1733,754 1717,756 1714,758 1710,757 1701,760 1699,759 1694,762 1692,761 1688,765 1686,771 1686,792 1684,801 1684,857 1672,860 1670,859 1666,861 1662,860 1662,862 1660,861 1652,864 1650,863 1647,865 1643,864 1643,866 1638,866 1634,868 1625,868 1625,870 1622,869 1617,872 1607,872 1607,874 1604,873 1599,876 1598,875 1590,882 1587,898 1588,913 1586,915 1585,960 1583,959 1577,962 1568,962 1565,964 1558,964 1554,966 1549,965 1550,898 1548,895 1549,894 1548,895 1541,888 1535,888 1525,891 1521,890 1521,892 1511,892 1511,894 1501,894 1501,896 1491,896 1491,898 1487,897 1481,900 1478,899 1470,902 1460,902 1460,904 1457,903 1451,906 1447,905 1444,907 1440,906 1440,908 1435,908 1431,910 1427,909 1421,912 1418,911 1412,914 1410,913 1406,916 1405,915 1403,918 1404,921 1402,923 1401,1060 1399,1059 1396,1062 1390,1062 1390,1064 1387,1064 1385,1066 1383,1065 1380,1068 1378,1067 1375,1070 1369,1072 1368,1071 1366,1073 1365,1072 1365,1074 1362,1074 1362,1033 1360,1030 1361,1029 1360,1030 1357,1026 1316,1023 1277,1024 1260,1041 1259,1040 1257,1044 1252,1048 1251,1047 1252,1048 1236,1062 1235,1061 1236,1062 1227,1070 1224,1070 1224,1072 1206,1087 1205,1086 1204,1089 1199,1093 1197,1093 1192,1100 1193,1131 1191,1131 1191,1133 1186,1132 1183,1129 1181,1130 1178,1127 1176,1128 1176,1126 1174,1127 1171,1126 1171,1124 1166,1124 1166,1122 1161,1122 1161,1120 1155,1120 1153,1118 1144,1116 1140,1113 1139,1114 1136,1111 1133,1111 1134,934 1125,922 1126,921 1125,922 1119,914 1120,913 1119,914 1116,910 1116,907 1118,905 1117,903 1120,898 1119,896 1121,896 1121,888 1124,884 1123,881 1126,877 1125,874 1127,874 1127,866 1130,862 1129,859 1132,854 1131,852 1133,852 1132,850 1136,840 1135,838 1137,838 1136,836 1140,828 1139,825 1142,821 1141,819 1143,817 1143,812 1148,802 1147,800 1150,796 1149,794 1151,794 1151,787 1154,783 1153,781 1155,775 1157,775 1157,768 1160,764 1159,762 1161,762 1161,755 1166,745 1165,737 1161,731 1155,725 1150,724 1150,722 1139,729 1140,730 1132,742 1129,744 1130,745 1121,757 1120,756 1121,757 1116,765 1111,769 1112,770 1107,775 1108,776 1104,782 1102,782 1103,783 1101,784 1102,785 1098,791 1093,795 1094,797 1089,803 1088,802 1089,803 1084,811 1077,818 1078,819 1072,824 1072,827 1068,832 1066,832 1066,834 1062,832 1059,826 1060,824 1057,820 1057,817 1055,815 1056,813 1051,804 1051,798 1050,799 1048,795 1049,790 1051,790 1050,789 1052,788 1051,787 1053,782 1056,780 1055,778 1057,776 1063,759 1066,756 1065,754 1068,751 1067,750 1073,735 1075,735 1075,730 1078,727 1077,725 1082,717 1081,715 1084,712 1083,710 1086,707 1085,705 1094,687 1093,685 1098,677 1097,676 1099,670 1102,667 1101,665 1104,662 1103,660 1105,658 1107,650 1109,650 1109,645 1111,645 1110,643 1114,636 1113,634 1115,632 1115,629 1117,629 1116,627 1118,626 1117,624 1119,618 1124,610 1123,608 1125,608 1124,606 1127,596 1130,593 1129,591 1132,588 1131,586 1133,586 1132,585 1135,578 1133,574 1134,573 1128,568 1129,567 1122,562 1122,560 1121,561 1111,551 1110,548 1109,549 1106,546 1103,546 1096,557 1094,557 1095,558 1093,561 1092,560 1092,564 1085,572 1086,573 1083,575 1084,577 1079,582 1080,583 1077,585 1077,588 1073,592 1074,593 1068,604 1063,609 1064,611 1060,616 1054,629 1052,629 1053,630 1050,636 1045,641 1046,643 1043,645 1041,644 1041,639 1039,639 1040,637 1037,633 1035,627 1036,625 1033,622 1033,618 1031,616 1032,614 1029,609 1029,603 1027,603 1028,601 1023,591 1023,585 1021,585 1022,583 1017,573 1017,567 1015,567 1016,565 1011,555 1011,548 1009,548 1004,532 1005,530 1003,530 1003,526 1001,524 1001,517 999,517 1000,515 987,502 987,500 984,500 982,496 981,497 975,492 976,491 975,492 970,487 973,473 975,473 974,471 979,456 979,452 982,448 981,446 983,446 983,438 986,432 985,424 983,421 979,419 980,418 977,418 977,416 975,417 962,410 962,408 961,409 960,407 959,408 948,402 946,399 944,400 942,397 940,398 930,392 930,390 926,390 916,384 916,382 915,383 914,381 911,381 902,374 897,354 898,351 893,336 893,326 891,326 887,304 871,287 871,284 870,285 867,282 868,281 867,282 865,280 866,279 865,280 853,267 853,265 852,266 845,258 846,257 845,258 843,256 844,255 843,256 826,238 827,237 826,238 820,232 808,229 804,230 804,228 789,228 785,226 775,226 768,223 762,224 750,221 747,224 744,224 722,236 715,238 713,240 711,239 708,242 704,242 704,244 691,250 690,249 689,251 683,254 681,253 679,256 677,255 675,258 673,257 670,260 666,260 667,261 662,264 655,266 653,268 651,267 650,269 648,268 648,270 644,272 642,271 639,274 634,274 634,276 627,278 621,282 619,281 613,286 611,285 610,287 609,286 609,288 605,290 Z M 879,1759 877,1761 724,1761 723,1756 725,1753 725,1748 729,1735 736,1727 805,1678 820,1689 828,1699 851,1722 868,1742 Z M 414,1731 412,1735 398,1735 394,1733 303,1734 303,1732 298,1732 299,1733 297,1734 295,1732 295,1730 297,1728 298,1729 297,1728 309,1721 310,1722 311,1720 312,1721 312,1719 316,1717 317,1718 327,1711 328,1712 329,1710 330,1711 330,1709 336,1707 345,1701 346,1702 347,1700 348,1701 347,1700 352,1697 353,1698 355,1695 359,1695 358,1694 362,1691 364,1692 365,1690 366,1691 366,1689 378,1683 380,1684 382,1681 390,1677 394,1678 393,1680 398,1688 397,1690 402,1698 401,1699 406,1708 405,1709 408,1713 Z M 1517,1701 1521,1696 1527,1693 1527,1680 1532,1675 1540,1671 1550,1671 1559,1673 1571,1679 1575,1679 1582,1689 1582,1703 1573,1712 1565,1714 1523,1712 1517,1707 Z M 1281,1633 1296,1633 1311,1639 1328,1656 1334,1668 1334,1673 1336,1676 1336,1698 1330,1715 1317,1728 1296,1736 1273,1736 1263,1732 1249,1720 1243,1711 1239,1700 1238,1679 1241,1665 1245,1657 1256,1645 1262,1641 1265,1641 Z M 914,1656 919,1648 927,1640 928,1641 928,1639 931,1639 931,1637 944,1627 945,1628 947,1625 956,1625 967,1631 969,1634 971,1633 973,1636 974,1635 978,1637 978,1639 982,1639 984,1642 985,1641 989,1643 989,1645 990,1644 991,1646 992,1645 996,1648 996,1652 991,1657 992,1658 990,1662 985,1667 986,1669 983,1671 984,1673 981,1677 980,1676 981,1677 977,1683 962,1678 962,1676 957,1676 957,1674 952,1674 949,1671 947,1672 944,1669 942,1670 939,1667 938,1668 929,1663 928,1664 918,1660 Z M 451,1623 457,1615 463,1612 480,1613 480,1615 486,1615 486,1617 487,1616 494,1620 495,1619 498,1622 499,1621 502,1624 503,1623 513,1628 514,1630 515,1629 523,1634 522,1635 523,1634 529,1637 529,1639 530,1638 531,1640 532,1639 536,1641 536,1643 540,1643 549,1648 550,1650 551,1649 555,1651 555,1653 559,1653 565,1657 565,1659 568,1659 575,1663 575,1665 576,1664 580,1668 581,1667 583,1670 584,1669 591,1673 591,1675 592,1674 607,1683 607,1685 616,1689 618,1692 616,1694 607,1694 607,1696 596,1696 596,1698 594,1697 588,1700 583,1699 579,1701 576,1700 576,1702 567,1702 563,1700 561,1697 560,1698 558,1695 556,1696 549,1692 549,1690 545,1690 534,1684 534,1682 530,1682 526,1679 527,1678 523,1678 517,1673 516,1674 512,1672 512,1670 508,1670 506,1667 505,1668 502,1665 501,1666 498,1663 497,1664 489,1660 489,1658 488,1659 485,1658 485,1656 481,1656 481,1654 477,1654 458,1642 458,1640 457,1641 451,1635 Z M 680,1571 679,1574 682,1579 681,1582 684,1594 647,1624 646,1623 645,1626 636,1632 635,1631 630,1636 626,1636 622,1631 620,1632 616,1627 615,1628 608,1624 608,1622 605,1622 588,1605 588,1602 593,1599 595,1600 604,1595 609,1595 609,1593 611,1594 614,1591 616,1592 620,1589 621,1590 624,1587 626,1588 630,1585 635,1585 635,1583 640,1581 642,1582 643,1580 645,1581 645,1579 650,1579 650,1577 652,1578 655,1575 657,1576 660,1573 662,1574 676,1567 Z M 396,1506 394,1513 389,1519 388,1518 388,1521 386,1521 387,1522 382,1529 374,1536 374,1539 363,1553 362,1552 363,1553 351,1566 352,1567 344,1574 345,1575 330,1594 318,1606 319,1607 317,1610 313,1612 310,1611 304,1614 301,1613 299,1615 296,1614 296,1616 294,1615 288,1618 286,1617 281,1620 273,1620 273,1622 269,1622 266,1624 263,1623 257,1626 255,1625 251,1628 246,1628 244,1630 241,1629 236,1632 234,1631 232,1633 227,1633 222,1636 216,1636 216,1638 211,1637 223,1622 227,1620 230,1614 232,1614 231,1613 236,1609 235,1608 240,1602 243,1601 242,1600 253,1586 255,1586 255,1584 261,1579 260,1578 263,1576 262,1575 272,1565 271,1564 278,1556 279,1557 278,1556 281,1554 280,1553 288,1543 289,1544 288,1543 293,1537 294,1538 293,1537 299,1529 303,1527 302,1526 305,1524 307,1519 317,1509 316,1508 324,1500 323,1499 339,1479 341,1479 341,1476 348,1470 347,1469 351,1466 350,1465 352,1463 388,1498 394,1506 Z M 1298,1337 1311,1337 1313,1339 1323,1339 1323,1341 1332,1341 1339,1343 1343,1346 1344,1345 1349,1347 1349,1349 1350,1348 1352,1350 1352,1417 1408,1474 1407,1475 1421,1488 1420,1489 1422,1489 1430,1498 1430,1500 1443,1509 1443,1511 1445,1511 1472,1538 1472,1543 1474,1543 1475,1548 1474,1551 1476,1551 1475,1553 1478,1559 1478,1567 1480,1567 1479,1570 1482,1576 1482,1582 1484,1584 1483,1588 1485,1591 1484,1594 1486,1594 1488,1606 1487,1608 1489,1612 1488,1615 1490,1615 1489,1619 1492,1627 1491,1630 1470,1633 1464,1632 1464,1634 1461,1633 1455,1635 1449,1634 1449,1636 1441,1637 1434,1636 1434,1638 1432,1637 1419,1640 1402,1640 1402,1642 1384,1642 1374,1629 1375,1628 1373,1628 1366,1620 1367,1619 1364,1618 1348,1601 1347,1602 1342,1597 1341,1598 1334,1594 1334,1592 1333,1593 1332,1591 1331,1592 1323,1587 1295,1587 1295,1358 1296,1339 Z M 740,1108 745,1111 745,1113 748,1113 748,1115 751,1115 762,1124 762,1126 766,1128 766,1131 769,1132 771,1135 770,1136 772,1136 772,1139 773,1138 778,1145 778,1149 780,1149 782,1154 781,1155 784,1159 788,1174 788,1183 790,1183 789,1187 792,1201 792,1372 790,1372 790,1419 775,1420 769,1422 747,1422 744,1424 736,1423 730,1426 728,1425 725,1429 724,1428 725,1429 718,1437 718,1439 716,1439 716,1443 714,1443 714,1447 708,1460 706,1460 706,1465 700,1478 698,1478 699,1480 698,1483 696,1483 696,1488 688,1497 688,1499 672,1512 671,1228 673,1226 673,1201 675,1201 675,1189 678,1184 677,1181 680,1177 679,1175 682,1171 681,1170 683,1165 685,1165 684,1164 685,1161 687,1161 687,1157 689,1157 689,1154 693,1151 693,1148 699,1140 711,1128 712,1129 715,1125 716,1126 715,1125 721,1120 722,1121 729,1114 730,1115 730,1113 733,1113 732,1112 737,1108 Z M 1447,939 1455,939 1458,937 1462,938 1471,935 1475,936 1478,934 1483,935 1483,933 1487,934 1495,931 1509,931 1514,935 1514,944 1512,948 1512,992 1510,992 1510,1000 1513,1003 1519,1003 1523,1001 1528,1002 1536,999 1540,1000 1548,997 1552,998 1555,996 1563,996 1570,993 1575,994 1586,991 1588,992 1595,989 1601,990 1611,987 1613,988 1618,984 1619,985 1618,984 1621,979 1621,919 1623,919 1623,926 1623,917 1621,911 1625,907 1628,908 1634,905 1638,906 1644,903 1648,904 1652,902 1654,903 1654,901 1661,901 1664,899 1673,899 1681,897 1684,900 1683,917 1684,945 1686,952 1685,962 1688,967 1687,968 1690,970 1689,971 1691,973 1696,973 1702,976 1705,975 1705,977 1715,977 1722,980 1725,979 1732,982 1738,982 1740,984 1740,1051 1734,1055 1733,1054 1733,1056 1729,1056 1729,1058 1716,1064 1715,1063 1714,1065 1713,1064 1713,1066 1711,1065 1710,1067 1709,1066 1709,1068 1705,1068 1705,1070 1703,1069 1702,1071 1701,1070 1701,1072 1697,1074 1696,1073 1685,1080 1684,1079 1683,1081 1669,1088 1666,1091 1666,1094 1664,1094 1664,1110 1666,1116 1672,1118 1677,1118 1678,1116 1685,1116 1692,1113 1695,1114 1702,1111 1705,1112 1720,1107 1729,1107 1729,1105 1731,1106 1738,1104 1740,1106 1739,1530 1727,1532 1707,1532 1704,1534 1678,1534 1678,1532 1675,1529 1676,1528 1673,1525 1673,1520 1671,1520 1669,1514 1670,1512 1668,1510 1669,1508 1667,1508 1668,1506 1665,1502 1665,1494 1663,1494 1663,1487 1661,1487 1661,1479 1659,1479 1660,1477 1657,1469 1658,1466 1655,1461 1656,1458 1653,1451 1652,1452 1649,1448 1646,1447 1642,1448 1642,1446 1638,1447 1636,1445 1633,1446 1621,1443 1619,1441 1616,1442 1603,1439 1600,1437 1598,1438 1591,1435 1585,1435 1581,1432 1581,1413 1579,1413 1579,1405 1577,1402 1578,1395 1575,1384 1575,1368 1573,1368 1574,1361 1573,1353 1571,1350 1572,1341 1567,1329 1566,1330 1561,1327 1557,1328 1548,1325 1546,1326 1538,1323 1534,1324 1528,1321 1524,1322 1517,1319 1513,1320 1495,1316 1482,1315 1478,1313 1475,1314 1473,1312 1474,1311 1470,1308 1470,1248 1472,1215 1471,1170 1474,1167 1502,1169 1510,1167 1511,1168 1511,1166 1514,1164 1513,1162 1515,1151 1515,1138 1513,1135 1506,1133 1498,1134 1498,1132 1481,1132 1481,1130 1479,1132 1471,1130 1458,1130 1458,1128 1445,1129 1442,1127 1443,1126 1441,1126 1441,944 Z M 751,269 754,270 754,275 756,275 756,284 758,284 757,289 756,286 756,291 757,289 758,318 760,322 759,353 745,369 743,369 744,370 741,373 740,372 741,373 739,375 738,374 739,375 735,379 734,378 735,379 732,382 731,381 732,382 728,386 727,385 728,386 726,388 725,387 714,400 714,403 716,404 720,401 725,401 725,399 730,399 730,397 732,398 735,395 737,396 746,391 748,392 752,389 754,390 758,387 763,387 763,385 768,385 771,390 770,392 772,392 771,394 774,397 774,402 776,402 775,404 780,412 779,414 782,418 782,423 784,423 790,440 792,442 792,447 799,452 798,453 799,452 803,457 805,457 811,464 812,463 823,471 827,476 828,475 830,478 831,477 835,482 836,481 841,486 842,485 849,489 857,496 858,495 862,497 870,505 867,562 868,790 878,800 877,801 881,804 880,805 881,804 894,818 893,819 896,820 900,825 899,826 900,825 909,835 918,842 918,887 922,893 922,897 923,896 925,899 924,900 926,900 932,911 931,912 933,913 932,914 934,914 937,920 936,921 937,920 939,923 938,924 940,924 945,933 944,934 946,934 949,940 948,941 949,940 951,943 950,944 952,944 955,950 954,951 955,950 957,953 956,954 958,954 958,956 968,971 967,972 982,983 984,986 985,985 987,988 988,987 997,992 998,994 1000,993 1007,998 1009,997 1009,999 1010,998 1012,1000 1012,1109 1003,1120 999,1123 998,1122 996,1126 995,1125 996,1126 988,1133 987,1132 988,1133 978,1141 977,1140 977,1142 974,1144 973,1143 974,1144 966,1151 963,1156 964,1160 968,1164 972,1163 978,1166 980,1165 980,1167 983,1166 986,1168 989,1167 993,1169 1006,1171 1006,1173 1008,1171 1012,1174 1012,1283 987,1284 984,1286 973,1285 970,1287 970,1333 972,1334 971,1335 991,1333 1011,1334 1013,1375 1012,1376 1014,1376 1014,1380 1034,1399 1037,1399 1037,1401 1039,1401 1047,1407 1047,1409 1048,1408 1056,1416 1057,1415 1065,1421 1065,1423 1066,1422 1073,1429 1072,1430 1074,1430 1074,1435 1076,1435 1076,1598 1073,1620 1074,1632 1072,1632 1072,1634 1069,1634 1069,1632 1067,1633 1066,1631 1064,1632 1062,1630 1059,1630 1055,1628 1055,1626 1051,1626 1051,1624 1047,1624 1047,1622 1043,1622 1039,1620 1039,1618 1035,1618 1035,1616 1031,1616 1024,1611 1023,1612 1020,1609 1019,1610 999,1600 999,1598 995,1598 991,1596 991,1594 987,1594 987,1592 983,1592 951,1575 946,1580 945,1579 943,1582 916,1600 915,1599 913,1602 910,1602 911,1603 908,1605 907,1604 907,1606 900,1610 899,1609 895,1614 890,1617 889,1616 889,1618 883,1621 881,1620 881,1622 866,1622 866,1620 864,1621 857,1617 855,1618 851,1615 849,1616 842,1613 837,1614 833,1611 833,1201 831,1186 832,1182 829,1174 830,1169 827,1161 828,1159 823,1147 824,1145 822,1143 823,1142 821,1142 821,1139 817,1131 818,1130 816,1128 817,1127 815,1127 813,1123 814,1121 812,1120 807,1110 799,1099 799,1096 776,1075 775,1072 774,1073 762,1064 762,1062 761,1063 750,1056 750,1054 749,1055 748,1053 747,1054 743,1052 743,1050 739,1050 736,1047 734,1048 734,1046 728,1046 718,1041 716,1042 711,1040 702,1040 702,1038 672,1038 672,1040 668,1039 640,1046 637,1048 636,1047 634,1049 632,1048 632,1050 625,1052 623,1054 621,1053 620,1055 617,1055 615,1058 611,1058 611,1060 607,1062 606,1061 602,1065 601,1064 601,1066 596,1069 595,1068 595,1070 587,1076 586,1075 584,1078 583,1077 554,1107 555,1108 546,1120 544,1125 541,1127 542,1129 539,1131 540,1132 537,1135 538,1137 536,1139 534,1146 532,1146 532,1151 527,1163 528,1165 523,1179 524,1183 521,1190 522,1193 520,1194 520,1220 518,1222 517,1503 509,1499 507,1500 503,1498 491,1498 477,1502 475,1501 467,1505 466,1504 466,1506 462,1506 462,1508 460,1508 449,1516 445,1516 443,1512 444,1509 441,1504 441,1496 439,1496 440,1494 437,1489 437,1485 434,1479 435,1478 433,1478 429,1473 429,1470 426,1469 426,1467 425,1468 384,1428 382,1428 375,1422 367,1412 367,1406 369,1406 368,1397 370,1388 370,1376 372,1373 371,1364 374,1350 373,1348 375,1348 374,1340 376,1333 375,1327 377,1323 376,1316 363,1304 364,1303 363,1304 343,1286 341,1282 340,1283 334,1278 322,1264 321,1235 319,1231 320,1221 319,1212 317,1209 318,1203 315,1181 316,1174 315,1164 313,1161 313,1133 311,1133 312,1125 311,1114 309,1111 310,1101 309,1093 307,1090 307,1080 310,1077 311,1078 313,1075 316,1075 316,1073 323,1069 324,1070 328,1065 333,1062 334,1063 334,1061 339,1058 340,1059 340,1057 349,1051 350,1052 352,1049 353,1050 355,1047 361,1043 362,1044 367,1039 368,1040 370,1037 384,1027 385,1028 390,1023 393,1023 392,1022 398,1017 399,1018 398,1017 401,1008 404,1004 403,1001 405,999 407,990 410,986 409,984 411,984 411,978 414,974 413,972 418,962 417,960 419,960 418,958 423,942 425,940 427,931 429,931 428,929 430,927 429,925 431,925 430,923 433,913 435,913 435,907 437,907 437,901 439,901 439,895 441,895 441,889 444,885 443,883 446,879 445,877 447,871 449,871 448,869 451,859 453,859 452,857 454,855 453,853 455,851 455,847 458,844 457,842 460,839 459,837 462,832 462,555 465,553 464,552 475,536 477,536 476,535 480,532 479,531 485,522 490,518 489,517 492,515 491,514 501,503 501,500 506,495 509,495 512,499 513,498 514,500 515,499 526,507 526,509 529,509 551,525 553,528 554,527 560,529 563,527 563,525 565,525 564,523 568,515 567,513 572,504 571,502 574,498 573,495 576,491 575,490 579,478 582,474 581,472 584,468 583,466 586,462 585,460 587,460 587,454 590,450 589,448 591,448 591,442 593,442 593,436 595,436 595,430 597,430 597,424 600,420 599,418 602,414 601,412 603,412 603,406 606,402 605,400 607,400 607,394 609,394 609,388 611,388 611,382 613,382 613,376 615,370 617,370 617,364 619,364 619,358 626,342 625,340 627,338 627,334 630,330 629,328 632,324 631,323 635,317 637,318 641,315 647,313 648,314 650,312 651,313 651,311 655,309 657,310 661,307 662,308 665,305 670,305 670,303 675,303 675,301 699,291 700,292 703,289 708,289 707,288 710,288 712,285 714,286 717,283 719,284 722,281 724,282 727,279 732,277 733,278 735,276 736,277 736,275 741,275 741,273 746,271 747,272 Z"/>
<path fill="#EADFCF" fill-rule="evenodd" d="M 852,1806 863,1806 863,1808 870,1807 873,1809 930,1809 936,1807 888,1808 Z M 672,1797 672,1799 679,1807 690,1807 678,1805 Z M 1335,1787 1312,1792 1278,1791 1315,1792 1319,1790 1324,1791 1326,1789 1332,1789 Z M 1081,1777 1070,1778 1066,1780 1035,1780 1064,1781 1068,1779 1076,1779 Z M 943,1806 967,1806 977,1801 978,1797 981,1795 980,1784 976,1780 980,1778 990,1778 1002,1782 1025,1780 995,1780 990,1778 977,1777 976,1780 980,1787 980,1795 975,1802 966,1806 Z M 666,1775 666,1778 669,1782 668,1786 671,1789 670,1794 672,1795 Z M 1497,1771 1501,1773 1565,1773 1568,1775 1572,1773 1671,1776 1672,1774 1592,1774 1570,1772 Z M 212,1769 222,1779 241,1782 247,1782 245,1781 246,1780 251,1782 271,1782 260,1782 260,1780 297,1780 297,1782 288,1782 309,1782 300,1782 300,1780 368,1780 368,1782 381,1782 379,1781 380,1780 457,1780 458,1782 461,1782 462,1780 473,1780 228,1780 219,1776 213,1768 Z M 475,1781 477,1783 492,1783 496,1781 497,1782 498,1780 502,1781 505,1778 508,1779 513,1774 515,1774 521,1762 526,1760 548,1761 551,1763 562,1763 570,1761 584,1762 580,1762 580,1760 660,1760 664,1764 662,1760 571,1760 568,1762 549,1762 546,1760 527,1759 523,1760 516,1771 508,1778 505,1778 503,1780 497,1780 495,1782 Z M 1199,1757 1210,1769 1215,1771 1216,1773 1217,1772 1219,1775 1231,1781 1233,1780 1235,1783 1244,1784 1247,1787 1256,1789 1231,1780 1211,1769 Z M 1118,1755 1108,1758 1087,1776 1083,1777 1089,1775 1102,1763 1104,1763 1105,1760 Z M 1120,1754 1192,1755 1196,1757 1197,1756 1193,1754 Z M 1354,1778 1358,1777 1360,1774 1366,1771 1368,1767 1383,1752 1387,1753 1389,1751 1437,1751 1443,1753 1446,1752 1464,1758 1475,1769 1479,1768 1472,1766 1464,1758 1449,1752 1442,1752 1438,1750 1395,1750 1381,1752 1370,1766 Z M 126,1700 133,1700 134,1701 132,1702 136,1702 136,1700 139,1700 140,1702 141,1700 157,1700 160,1702 162,1700 176,1700 178,1702 187,1702 190,1700 194,1700 195,1702 204,1702 204,1700 216,1701 206,1702 222,1702 222,1700 225,1702 238,1702 236,1702 236,1700 250,1701 248,1703 244,1703 245,1706 230,1720 229,1723 216,1736 210,1746 211,1747 211,1744 215,1738 250,1700 Z M 103,1697 105,1699 110,1698 116,1701 123,1700 113,1700 110,1698 Z M 1691,1696 1695,1701 1731,1723 1740,1727 1748,1734 1752,1741 1753,1754 1749,1763 1741,1770 1747,1767 1748,1764 1751,1762 1754,1753 1754,1745 1752,1744 1753,1742 1751,1737 1740,1726 1734,1724 1731,1721 1730,1722 1729,1720 1728,1721 1726,1718 1718,1715 1716,1712 1711,1711 1706,1706 1701,1705 1696,1700 1698,1699 1692,1698 1737,1697 1709,1698 Z M 412,1732 411,1725 392,1679 368,1690 297,1730 304,1732 Z M 1925,1640 1930,1650 1952,1672 1954,1676 1954,1688 1952,1691 1944,1696 1935,1696 1935,1698 1938,1696 1946,1697 1955,1688 1955,1676 1952,1673 1953,1672 1950,1670 1950,1668 1930,1650 1931,1649 1928,1647 1929,1646 1927,1645 1927,1642 Z M 916,1655 920,1659 976,1681 993,1654 994,1649 962,1630 951,1626 944,1629 927,1642 Z M 452,1625 453,1635 465,1645 527,1677 569,1701 615,1692 613,1689 560,1656 536,1644 510,1628 484,1616 480,1616 477,1614 461,1614 Z M 160,1587 153,1598 146,1605 144,1605 138,1611 137,1614 136,1613 136,1615 116,1636 111,1644 107,1648 106,1647 106,1649 100,1654 101,1655 94,1661 93,1665 88,1670 88,1674 86,1675 86,1683 88,1687 91,1689 90,1690 92,1690 96,1694 95,1695 97,1694 100,1697 101,1696 96,1694 87,1684 87,1675 89,1670 101,1654 130,1621 153,1598 160,1589 Z M 1914,1582 1914,1592 1916,1595 1916,1602 1918,1604 1919,1610 1916,1596 1917,1593 1913,1583 Z M 677,1570 673,1570 671,1572 668,1572 650,1580 647,1580 645,1582 637,1584 635,1586 632,1586 591,1602 590,1604 601,1617 628,1635 638,1629 681,1595 681,1583 Z M 1907,1550 1910,1570 1911,1562 1909,1562 1910,1559 Z M 158,1550 158,1575 160,1576 158,1582 159,1581 160,1584 Z M 155,1523 156,1547 158,1548 157,1523 Z M 155,1495 153,1496 153,1498 155,1501 154,1510 156,1521 Z M 1899,1476 1900,1497 1902,1502 1902,1517 1904,1525 1904,1538 1906,1540 1907,1548 1907,1539 1904,1528 1904,1516 1903,1518 1902,1517 1903,1505 1900,1497 1902,1495 1900,1485 1901,1478 Z M 394,1507 352,1465 280,1557 214,1636 236,1629 248,1627 258,1623 315,1609 359,1556 391,1514 Z M 151,1436 149,1440 151,1450 150,1458 152,1460 151,1466 Z M 148,1409 148,1427 150,1434 Z M 1893,1408 1894,1428 1896,1432 1896,1450 1898,1456 1898,1474 1900,1472 1899,1456 1897,1453 1898,1448 1896,1431 1894,1428 1895,1415 Z M 1891,1387 1892,1406 1894,1406 Z M 145,1378 146,1395 148,1396 148,1407 147,1378 Z M 1298,1339 1296,1378 1296,1586 1320,1585 1334,1591 1355,1606 1376,1628 1385,1641 1431,1637 1434,1635 1446,1635 1449,1633 1460,1633 1464,1631 1490,1629 1481,1579 1477,1567 1475,1554 1473,1551 1473,1545 1471,1543 1470,1538 1444,1512 1431,1502 1406,1474 1351,1419 1351,1351 1347,1348 1329,1342 1312,1340 1308,1338 Z M 146,1338 144,1343 144,1367 146,1368 144,1371 146,1372 146,1376 Z M 213,1358 213,1352 211,1349 211,1332 209,1329 209,1312 208,1321 209,1329 211,1332 210,1343 211,1351 213,1352 212,1359 210,1358 211,1356 208,1356 201,1350 200,1351 197,1348 193,1347 190,1343 183,1339 182,1336 180,1336 179,1334 178,1335 171,1329 169,1329 167,1326 159,1324 157,1327 154,1327 148,1332 149,1333 147,1336 152,1329 160,1325 163,1325 172,1330 193,1347 195,1347 211,1359 Z M 1885,1293 1886,1320 1888,1326 1887,1329 1890,1383 1891,1365 1889,1363 1889,1360 1890,1359 1891,1362 1891,1358 1889,1358 1888,1350 1889,1325 1887,1323 1888,1313 1886,1311 1887,1299 Z M 198,1208 198,1224 200,1226 200,1246 203,1252 203,1269 203,1248 201,1244 201,1227 199,1224 200,1219 Z M 198,1184 198,1188 196,1190 198,1206 Z M 233,1164 253,1174 252,1172 250,1173 247,1170 244,1170 239,1166 Z M 205,1162 201,1166 201,1169 198,1171 198,1181 199,1172 201,1168 206,1163 208,1163 Z M 1877,1141 1884,1283 1885,1272 1882,1252 1884,1251 1882,1230 1883,1224 1881,1221 1882,1212 1880,1202 1879,1152 1877,1151 Z M 740,1110 737,1110 721,1122 700,1141 690,1155 684,1167 678,1185 678,1190 676,1193 674,1227 672,1230 672,1510 693,1490 697,1478 701,1472 713,1443 724,1427 730,1423 758,1421 763,1419 782,1419 789,1416 789,1188 783,1161 775,1143 755,1120 Z M 1135,1107 1135,1110 1141,1113 1150,1115 1167,1122 1149,1114 1147,1115 1144,1112 1140,1112 1137,1109 1136,1110 Z M 1875,1093 1876,1139 1878,1139 1877,1095 Z M 267,1093 266,1099 269,1121 268,1132 270,1132 270,1159 273,1163 273,1178 268,1181 266,1178 263,1179 256,1174 255,1175 272,1182 273,1163 271,1160 271,1135 269,1130 269,1109 267,1107 Z M 263,1071 263,1073 265,1073 264,1084 266,1087 266,1091 265,1071 Z M 1362,1038 1362,1067 1364,1065 1362,1059 1364,1040 Z M 1873,1034 1874,1091 1875,1036 1874,1054 Z M 1317,1023 1355,1023 1362,1029 1363,1032 1363,1030 1360,1027 1361,1026 1354,1022 1350,1023 1321,1021 Z M 1308,1023 1303,1023 1298,1020 1285,1020 1277,1023 1276,1022 1265,1034 1264,1033 1263,1036 1261,1036 1262,1037 1255,1043 1254,1042 1247,1050 1245,1050 1245,1052 1243,1052 1242,1055 1236,1058 1233,1062 1231,1062 1232,1063 1229,1064 1228,1067 1222,1070 1216,1077 1215,1076 1213,1079 1212,1078 1206,1085 1198,1090 1192,1096 1190,1102 1191,1128 1189,1131 1186,1128 1184,1129 1189,1131 1191,1130 1191,1098 1242,1055 1276,1023 1280,1021 1299,1021 1303,1023 Z M 1134,1019 1134,1105 1136,1097 1136,1039 Z M 324,1008 319,1012 318,1011 315,1015 314,1014 313,1016 311,1016 312,1017 310,1019 306,1020 301,1025 297,1026 296,1029 295,1028 293,1031 289,1032 287,1035 281,1038 279,1041 278,1040 271,1047 270,1046 269,1048 267,1048 265,1052 262,1053 263,1068 264,1069 263,1054 270,1047 Z M 315,967 319,977 319,986 320,984 317,973 317,967 Z M 1871,945 1872,1032 1874,1032 1872,995 1873,949 Z M 1584,944 1583,958 1582,957 1581,959 1574,959 1572,961 1565,960 1560,963 1550,963 1560,963 1564,961 1572,961 1575,959 1584,958 Z M 1135,935 1136,1019 1137,1016 1135,1015 1135,944 1137,941 1137,937 1136,938 Z M 1408,912 1404,914 1400,921 1399,934 1401,966 1399,1000 1401,1044 1399,1056 1400,1057 1393,1061 1391,1060 1389,1062 1385,1062 1379,1066 1398,1059 1401,1056 1401,921 1403,916 1409,913 Z M 306,910 309,927 308,929 310,930 311,934 310,941 312,941 312,949 315,956 314,959 316,965 Z M 1118,906 1118,910 1132,928 1134,933 1133,928 1122,915 Z M 1445,942 1443,944 1443,1125 1445,1127 1458,1127 1461,1129 1481,1129 1484,1131 1513,1133 1516,1136 1516,1162 1511,1169 1473,1171 1472,1308 1479,1313 1501,1315 1503,1317 1513,1317 1539,1323 1546,1323 1549,1325 1556,1325 1559,1327 1561,1326 1569,1329 1572,1334 1572,1340 1574,1345 1574,1360 1578,1383 1578,1394 1580,1398 1580,1410 1582,1413 1582,1426 1584,1432 1592,1435 1606,1437 1609,1439 1615,1439 1627,1443 1633,1443 1637,1445 1650,1447 1654,1451 1658,1461 1660,1476 1662,1479 1662,1484 1664,1487 1672,1518 1679,1532 1695,1533 1705,1531 1738,1529 1739,1107 1732,1106 1729,1108 1713,1110 1711,1112 1672,1119 1667,1118 1663,1113 1663,1094 1665,1090 1674,1083 1731,1055 1738,1050 1739,985 1731,982 1696,976 1688,971 1685,966 1683,952 1682,900 1668,900 1624,910 1624,926 1622,931 1622,981 1619,986 1611,990 1602,990 1599,992 1576,994 1573,996 1564,996 1524,1004 1512,1004 1509,1001 1509,992 1511,986 1512,936 1509,932 1500,932 1496,934 1488,934 1483,936 1463,938 1459,940 Z M 1592,1194 1594,1198 1595,1215 1594,1224 1590,1232 1562,1234 1559,1236 1536,1236 1529,1229 1529,1207 1531,1202 1536,1197 1544,1195 1555,1195 1571,1192 1572,1193 1575,1191 1587,1191 Z M 1653,1141 1658,1146 1660,1153 1660,1164 1658,1172 1654,1176 1648,1178 1639,1178 1634,1180 1626,1180 1623,1178 1617,1169 1617,1152 1622,1145 1628,1143 1648,1140 Z M 1551,899 1551,961 1553,952 1553,903 Z M 1551,896 1546,888 1544,888 1543,886 1532,886 1509,892 1518,891 1521,889 1528,889 1531,887 1543,887 1550,894 1550,897 Z M 1127,878 1119,904 1121,903 1121,897 1123,896 1123,890 1125,889 1125,883 1127,882 Z M 300,875 300,882 303,885 302,897 304,899 304,904 306,907 305,897 303,894 303,885 301,883 Z M 1596,874 1588,880 1589,881 1586,886 1584,915 1585,930 1585,905 1587,897 1587,885 1589,880 1595,875 1597,875 Z M 1612,871 1608,870 1606,872 1598,872 1599,874 1607,871 Z M 1649,863 1644,862 1640,865 1631,865 1631,867 1623,866 1624,867 1621,869 1617,868 1614,870 1625,867 1631,867 1634,865 1640,865 1643,863 Z M 1669,858 1661,860 1658,859 1651,862 Z M 293,824 292,835 295,842 295,849 297,850 296,858 298,859 297,863 300,873 297,849 295,845 295,837 293,833 Z M 1142,822 1142,826 1136,841 1131,861 1133,859 1132,855 1137,845 1137,839 1139,839 1138,836 1143,824 Z M 1149,803 1144,815 1144,821 1146,815 1145,814 1147,811 1146,809 Z M 1092,796 1086,802 1087,804 1084,805 1084,807 1082,808 1083,809 1078,813 1077,817 1068,827 1067,830 1064,830 1061,825 1064,832 1070,827 Z M 1684,789 1682,800 1683,849 1681,854 1683,855 1678,855 1671,858 1683,855 Z M 391,788 403,808 401,803 398,801 399,799 396,797 397,796 395,795 395,792 Z M 1056,781 1050,792 1050,796 1052,798 1060,823 1061,822 1058,818 1059,815 1057,814 1057,809 1054,807 1055,805 1050,796 1050,792 1053,790 1057,782 Z M 283,777 284,784 287,788 286,793 288,798 287,801 289,803 289,813 292,822 291,823 291,812 289,809 287,788 285,783 285,777 Z M 1163,759 1155,782 1157,779 1156,777 1159,774 1159,770 1161,768 1161,763 1163,762 Z M 1067,757 1064,761 1057,779 1059,777 1058,775 1063,768 1062,766 1065,764 1065,760 1067,759 Z M 1708,756 1700,756 1686,764 1687,765 1685,767 1683,787 1685,787 1685,768 1687,764 1694,759 1709,757 Z M 280,753 282,761 282,771 284,775 Z M 1077,733 1074,737 1069,750 1071,749 1070,747 1073,744 1072,742 1075,739 Z M 420,733 418,747 419,825 414,832 412,830 413,828 408,821 409,819 406,817 407,815 405,814 414,834 416,833 419,825 Z M 1873,727 1870,838 1870,943 1870,838 1873,826 Z M 1156,722 1153,723 1150,721 1146,721 1138,728 1137,731 1134,733 1133,738 1130,739 1126,747 1124,747 1125,749 1122,751 1122,753 1118,757 1119,758 1116,759 1116,761 1114,762 1115,763 1110,767 1105,778 1102,779 1102,781 1100,782 1101,783 1094,791 1095,792 1092,794 1095,792 1138,729 1144,723 1148,721 1155,723 1164,732 1168,741 1167,744 1169,742 1163,729 Z M 1851,702 1850,703 1866,707 1872,712 1873,725 1873,713 1869,709 1870,708 1868,709 1865,706 1863,707 1860,704 1855,704 Z M 1761,702 1757,702 1753,705 1750,704 1747,706 1742,706 1734,713 1735,715 1732,721 1732,752 1723,754 1733,752 1733,718 1735,714 1742,707 1762,703 Z M 1848,702 1847,700 1842,700 1840,698 1837,699 1834,696 1831,697 1828,694 1820,693 1817,691 1810,692 1807,694 1804,693 1796,696 1794,695 1793,697 1786,696 1780,699 1774,699 1774,701 1767,700 1766,702 1764,702 1774,701 1777,699 1784,699 1787,697 1794,697 1798,695 1805,695 1808,693 1823,693 1825,695 Z M 1098,678 1083,716 1087,710 1086,708 1089,705 1088,703 1091,699 1090,698 1095,690 1094,688 1099,680 Z M 314,668 304,678 305,679 303,682 300,683 298,687 286,699 286,701 282,704 279,710 274,715 276,724 275,727 278,736 278,748 280,749 280,751 279,739 277,735 277,726 275,722 275,714 303,682 305,678 314,669 319,668 324,672 332,688 356,724 366,744 381,768 378,765 379,763 376,761 377,759 374,758 371,749 366,744 367,742 361,734 361,731 356,726 357,725 355,721 352,719 353,718 346,710 345,705 342,703 343,702 341,701 339,695 336,694 337,693 335,689 328,681 329,679 324,674 325,672 323,671 323,669 Z M 1115,637 1099,676 1101,676 1100,675 1104,667 1105,661 1107,660 1106,657 1109,654 1108,652 Z M 745,617 735,618 732,620 725,620 723,622 715,622 713,624 706,624 703,626 697,626 694,628 688,628 676,632 677,835 682,833 689,833 694,831 722,827 725,825 739,823 745,820 Z M 1125,611 1122,615 1119,625 1121,624 1121,620 1123,618 1123,614 1125,613 Z M 1062,610 1060,610 1060,613 1056,618 1057,620 1054,622 1055,624 1052,626 1053,627 1046,635 1047,638 1041,638 1043,643 Z M 1134,589 1132,589 1125,609 1127,608 1129,602 1128,599 1131,597 1130,594 Z M 1084,573 1076,583 1073,591 1070,594 1071,595 1068,597 1065,606 1062,608 1065,606 1073,590 Z M 1098,547 1096,553 1094,554 1095,555 1088,564 1089,565 1084,570 1085,571 1098,549 1102,545 1107,545 1135,573 1136,580 1133,587 1135,586 1137,574 1120,558 1120,556 1108,544 1102,544 1100,547 Z M 1001,516 1023,582 1021,572 1019,571 1020,570 1017,566 1017,561 1013,553 1013,549 1010,546 1011,542 1009,541 1009,537 1006,534 1007,529 1005,527 1005,523 1002,521 1003,519 Z M 972,483 972,487 987,499 1001,514 998,512 997,508 991,503 992,502 990,502 987,498 986,499 979,493 980,492 978,492 973,487 Z M 986,442 984,442 984,446 980,455 980,459 973,481 975,480 974,476 977,473 976,469 979,467 978,462 981,460 980,455 983,453 983,447 985,446 Z M 501,441 504,441 541,467 544,467 546,461 544,462 545,465 543,467 534,460 529,459 528,456 523,455 519,450 514,448 508,442 506,443 504,440 Z M 499,440 494,440 493,442 491,442 490,445 486,448 487,449 485,450 485,452 482,453 481,457 478,459 476,463 477,464 470,472 471,474 468,475 467,480 456,493 456,495 454,496 455,497 452,499 452,501 444,510 445,511 442,513 443,514 436,521 436,523 428,532 427,536 423,538 419,545 419,730 421,731 421,542 427,536 433,526 449,506 487,448 494,441 Z M 943,396 953,403 983,419 986,422 987,431 987,422 983,418 982,419 977,414 970,412 966,408 964,409 962,406 956,404 955,402 952,402 951,400 950,401 948,398 945,398 Z M 929,388 941,396 941,394 938,394 934,390 932,391 Z M 570,388 568,390 569,393 566,397 566,401 564,402 561,418 558,421 558,425 554,433 554,437 552,440 553,441 Z M 578,362 576,365 577,367 574,370 574,375 570,386 Z M 590,323 588,325 586,335 584,336 585,338 582,344 583,347 Z M 751,271 677,302 675,304 653,312 651,314 638,318 634,321 566,525 561,530 553,529 507,496 502,501 502,503 464,555 463,832 454,859 452,861 450,871 448,873 448,877 438,907 436,909 436,913 434,915 432,925 428,933 400,1018 308,1081 310,1087 312,1124 314,1133 314,1151 316,1155 315,1160 318,1182 318,1200 320,1203 320,1220 324,1264 333,1275 378,1316 378,1330 376,1334 376,1348 374,1351 374,1365 372,1374 372,1385 370,1389 369,1412 374,1419 385,1427 421,1463 430,1470 438,1482 446,1514 448,1515 452,1511 466,1503 488,1497 507,1497 516,1501 517,1209 519,1206 519,1194 527,1158 531,1146 541,1125 557,1102 583,1076 604,1061 632,1047 648,1043 651,1041 667,1039 672,1037 702,1037 705,1039 715,1039 743,1049 775,1071 800,1096 818,1127 828,1154 832,1174 832,1184 834,1187 834,1610 843,1613 849,1613 869,1621 878,1621 884,1619 899,1608 912,1601 951,1574 1061,1629 1071,1632 1073,1630 1073,1599 1075,1596 1075,1438 1073,1432 1066,1424 1019,1388 1013,1381 1011,1376 1010,1336 971,1336 969,1334 969,1286 973,1283 1011,1282 1011,1177 1009,1174 1006,1174 1004,1172 998,1172 995,1170 989,1170 977,1166 970,1166 966,1164 962,1158 963,1152 973,1142 1002,1119 1010,1109 1011,1001 982,986 966,972 935,921 927,905 921,897 915,884 915,873 917,865 916,843 897,825 866,789 866,562 868,507 867,503 820,472 791,447 768,387 765,386 763,388 743,394 716,405 713,403 713,398 757,354 757,299 755,291 756,285 753,271 Z M 887,1413 921,1415 924,1418 924,1442 922,1450 918,1454 883,1453 883,1418 Z M 415,1329 419,1326 455,1329 458,1332 458,1359 453,1364 417,1364 415,1362 Z M 780,545 784,549 784,817 786,820 786,853 784,859 774,864 754,868 748,868 731,872 723,872 720,874 711,874 707,876 701,876 699,878 681,880 679,882 671,882 668,884 661,884 601,896 590,896 587,891 587,823 583,817 587,812 587,592 593,587 606,583 646,575 657,571 663,571 666,569 671,569 682,565 687,565 707,559 739,553 768,545 Z M 650,266 647,268 643,268 641,271 639,270 636,273 631,274 627,277 625,276 623,279 621,278 607,287 604,287 605,288 621,279 646,269 Z M 810,228 809,229 816,229 824,233 888,302 904,374 927,388 919,382 918,383 916,380 910,378 909,376 908,377 903,371 904,368 903,363 900,360 901,356 899,352 899,346 896,342 897,334 892,324 893,318 890,314 891,309 888,305 889,302 887,301 887,299 879,291 876,290 877,289 865,277 865,275 864,276 861,273 861,271 859,271 859,269 857,269 850,261 851,260 841,251 840,248 837,247 837,245 831,239 828,238 822,230 819,231 817,228 Z M 755,221 778,223 781,225 791,225 794,227 807,228 804,226 792,226 791,224 781,225 780,222 767,222 761,220 Z M 749,221 746,220 745,222 742,222 741,224 734,226 732,229 728,231 726,230 725,232 724,231 715,237 713,236 707,240 704,240 703,242 699,242 694,247 691,246 689,249 679,252 678,254 675,254 674,256 667,258 665,260 664,259 660,263 657,262 656,265 653,264 652,266 694,247 704,241 720,235 742,223 Z"/>
<path fill="#D9822B" fill-rule="evenodd" d="M 878,1759 867,1742 865,1741 863,1737 850,1722 827,1699 820,1690 805,1679 736,1728 730,1735 726,1748 726,1753 724,1756 724,1760 731,1760 732,1759 824,1759 825,1760 863,1760 866,1759 867,1760 877,1760 Z"/>
<path fill="#8A8F98" fill-rule="evenodd" d="M 1278,1790 1283,1791 1287,1790 1291,1791 1312,1791 1314,1790 Z M 625,1759 662,1759 664,1761 665,1765 665,1762 663,1759 657,1759 656,1758 Z M 1518,1701 1518,1707 1523,1711 1535,1711 1536,1712 1545,1712 1546,1713 1565,1713 1573,1711 1579,1706 1581,1703 1581,1689 1575,1680 1571,1680 1569,1678 1561,1676 1559,1674 1555,1674 1550,1672 1540,1672 1535,1674 1528,1680 1527,1684 1528,1693 1525,1696 1521,1697 Z M 1281,1634 1271,1638 1265,1642 1262,1642 1256,1646 1246,1657 1246,1659 1242,1665 1242,1669 1240,1672 1240,1678 1239,1679 1240,1700 1242,1703 1242,1707 1250,1720 1257,1727 1263,1731 1273,1735 1296,1735 1299,1733 1309,1731 1311,1729 1317,1727 1329,1715 1335,1698 1335,1676 1333,1673 1333,1668 1331,1666 1327,1656 1311,1640 1296,1634 Z M 1870,946 1870,999 1871,1001 1871,950 Z M 421,733 421,747 420,748 420,823 Z"/>
</svg>