<svg xmlns="http://www.w3.org/2000/svg" viewBox="0 0 2048 2048" width="2048" height="2048">
<g fill="#002b44" fill-rule="evenodd">
<path d="M 713 1622 L 713 1650 L 720 1653 L 723 1638 L 722 1628 L 718 1623 Z"/>
<path d="M 362 1469 L 353 1478 L 355 1476 L 356 1478 L 352 1482 L 351 1480 L 346 1488 L 344 1487 L 305 1526 L 306 1535 L 304 1539 L 303 1535 L 304 1546 L 302 1550 L 301 1546 L 302 1544 L 302 1556 L 300 1560 L 299 1557 L 291 1600 L 292 1611 L 290 1615 L 289 1611 L 289 1624 L 290 1622 L 292 1625 L 291 1628 L 292 1626 L 294 1629 L 293 1632 L 294 1630 L 296 1633 L 294 1634 L 295 1636 L 296 1634 L 298 1637 L 296 1638 L 299 1645 L 300 1643 L 302 1646 L 300 1647 L 302 1651 L 302 1648 L 304 1650 L 303 1655 L 306 1656 L 305 1660 L 309 1669 L 310 1667 L 312 1670 L 310 1671 L 313 1679 L 314 1677 L 316 1680 L 314 1681 L 315 1684 L 316 1682 L 318 1685 L 316 1686 L 317 1689 L 320 1690 L 319 1694 L 320 1695 L 320 1692 L 322 1694 L 321 1698 L 324 1699 L 323 1702 L 325 1704 L 335 1705 L 331 1704 L 337 1703 L 342 1705 L 337 1706 L 354 1705 L 359 1707 L 354 1708 L 371 1707 L 377 1709 L 371 1710 L 388 1709 L 394 1711 L 388 1712 L 404 1711 L 411 1713 L 404 1714 L 422 1713 L 427 1715 L 418 1715 L 438 1715 L 444 1717 L 438 1718 L 456 1717 L 462 1719 L 455 1720 L 473 1719 L 477 1721 L 473 1722 L 485 1722 L 494 1711 L 496 1712 L 494 1714 L 506 1704 L 509 1699 L 511 1700 L 523 1687 L 525 1688 L 535 1677 L 537 1678 L 557 1660 L 555 1660 L 555 1649 L 555 1655 L 553 1651 L 554 1643 L 553 1641 L 553 1646 L 551 1643 L 552 1635 L 550 1628 L 549 1631 L 547 1627 L 549 1626 L 547 1619 L 547 1623 L 545 1620 L 546 1613 L 544 1606 L 543 1609 L 541 1605 L 542 1599 L 541 1601 L 539 1598 L 540 1595 L 541 1597 L 540 1591 L 539 1594 L 537 1590 L 539 1589 L 538 1584 L 537 1587 L 535 1583 L 536 1576 L 530 1555 L 529 1558 L 527 1554 L 528 1547 L 522 1525 L 521 1528 L 519 1524 L 520 1517 L 519 1516 L 519 1520 L 517 1517 L 518 1510 L 517 1513 L 515 1509 L 516 1503 L 515 1505 L 512 1499 L 507 1497 L 502 1498 L 500 1496 L 502 1495 L 503 1496 L 497 1496 L 494 1494 L 497 1493 L 498 1494 L 493 1492 L 492 1494 L 489 1492 L 491 1491 L 486 1492 L 484 1490 L 486 1489 L 487 1490 L 480 1487 L 474 1488 L 471 1486 L 474 1485 L 475 1486 L 468 1486 L 464 1484 L 467 1483 L 463 1482 L 462 1484 L 458 1482 L 461 1481 L 455 1482 L 452 1480 L 454 1479 L 448 1480 L 445 1478 L 447 1477 L 441 1478 L 438 1476 L 440 1475 L 433 1473 L 426 1474 L 425 1471 L 393 1472 L 383 1470 L 396 1469 Z"/>
<path d="M 1025 1437 L 1023 1461 L 1021 1464 L 1023 1464 L 1026 1472 L 1029 1472 L 1033 1476 L 1045 1476 L 1049 1478 L 1056 1475 L 1064 1478 L 1079 1478 L 1088 1473 L 1093 1454 L 1092 1445 L 1085 1438 L 1046 1431 L 1033 1431 Z"/>
<path d="M 704 1383 L 689 1384 L 685 1382 L 689 1381 L 680 1379 L 673 1380 L 670 1378 L 673 1377 L 674 1378 L 664 1377 L 663 1380 L 659 1379 L 645 1385 L 647 1386 L 644 1388 L 643 1386 L 640 1387 L 639 1390 L 636 1389 L 632 1391 L 620 1404 L 622 1405 L 617 1408 L 618 1411 L 613 1415 L 613 1420 L 611 1419 L 606 1428 L 608 1429 L 605 1430 L 606 1432 L 602 1435 L 604 1435 L 603 1438 L 601 1437 L 596 1446 L 598 1447 L 595 1448 L 596 1451 L 594 1453 L 593 1451 L 594 1450 L 592 1453 L 594 1454 L 592 1457 L 591 1455 L 585 1465 L 586 1468 L 583 1469 L 583 1474 L 581 1473 L 575 1483 L 576 1494 L 576 1488 L 578 1492 L 577 1500 L 578 1497 L 580 1503 L 578 1503 L 583 1523 L 584 1520 L 586 1524 L 585 1531 L 588 1540 L 588 1536 L 590 1539 L 589 1546 L 590 1543 L 592 1547 L 591 1550 L 590 1548 L 591 1554 L 592 1551 L 594 1555 L 592 1556 L 594 1563 L 594 1558 L 596 1562 L 595 1570 L 599 1584 L 600 1582 L 602 1585 L 601 1592 L 603 1599 L 604 1596 L 606 1600 L 605 1606 L 606 1604 L 608 1607 L 607 1614 L 608 1616 L 608 1611 L 610 1614 L 609 1621 L 612 1623 L 626 1623 L 612 1623 L 612 1621 L 653 1622 L 643 1621 L 653 1619 L 679 1620 L 672 1619 L 678 1617 L 695 1618 L 690 1617 L 695 1615 L 709 1616 L 729 1602 L 734 1595 L 735 1597 L 737 1593 L 739 1594 L 759 1578 L 776 1561 L 774 1560 L 778 1558 L 779 1554 L 780 1556 L 779 1541 L 781 1536 L 782 1541 L 781 1527 L 783 1521 L 784 1527 L 783 1511 L 785 1505 L 785 1514 L 785 1496 L 787 1491 L 788 1496 L 787 1499 L 788 1473 L 789 1482 L 788 1470 L 782 1459 L 780 1460 L 779 1457 L 781 1457 L 777 1454 L 778 1451 L 775 1450 L 776 1448 L 773 1447 L 775 1446 L 772 1441 L 771 1443 L 770 1438 L 767 1437 L 769 1436 L 762 1425 L 759 1424 L 760 1422 L 749 1408 L 749 1411 L 745 1405 L 742 1406 L 738 1401 L 733 1401 L 734 1399 L 725 1394 L 724 1396 L 720 1391 L 717 1392 L 714 1390 L 716 1389 Z"/>
<path d="M 666 1073 L 666 1076 L 666 1073 L 668 1073 L 668 1157 L 678 1164 L 680 1163 L 682 1167 L 683 1165 L 686 1170 L 688 1169 L 690 1173 L 694 1176 L 696 1175 L 698 1179 L 702 1182 L 704 1181 L 710 1188 L 726 1200 L 728 1199 L 729 1202 L 770 1233 L 768 1231 L 770 1230 L 778 1240 L 790 1240 L 786 1239 L 791 1237 L 804 1238 L 799 1237 L 804 1235 L 821 1235 L 812 1235 L 818 1233 L 831 1234 L 826 1233 L 831 1231 L 844 1232 L 870 1227 L 864 1227 L 868 1225 L 879 1226 L 875 1225 L 879 1223 L 890 1224 L 886 1223 L 890 1221 L 894 1222 L 892 1223 L 900 1222 L 897 1221 L 901 1219 L 914 1220 L 909 1219 L 919 1218 L 925 1211 L 927 1212 L 939 1202 L 961 1179 L 963 1180 L 976 1168 L 985 1157 L 987 1158 L 985 1160 L 994 1151 L 994 1131 L 993 1139 L 991 1132 L 992 1107 L 991 1114 L 989 1107 L 990 1087 L 989 1094 L 987 1087 L 988 1071 L 987 1076 L 985 1070 L 986 1063 L 979 1061 L 980 1059 L 971 1054 L 970 1056 L 969 1053 L 967 1054 L 963 1049 L 951 1043 L 948 1044 L 945 1040 L 944 1042 L 940 1037 L 936 1038 L 934 1036 L 936 1035 L 937 1036 L 932 1036 L 930 1034 L 932 1033 L 933 1034 L 928 1034 L 926 1032 L 928 1031 L 929 1032 L 925 1032 L 922 1030 L 924 1029 L 919 1029 L 920 1027 L 905 1019 L 900 1020 L 897 1018 L 900 1017 L 901 1018 L 889 1018 L 884 1016 L 889 1015 L 891 1016 L 877 1013 L 865 1014 L 860 1012 L 865 1011 L 855 1010 L 857 1011 L 853 1012 L 848 1010 L 853 1009 L 843 1008 L 845 1009 L 842 1010 L 837 1008 L 841 1007 L 830 1008 L 824 1006 L 829 1005 L 817 1006 L 811 1004 L 816 1003 L 803 1004 L 798 1002 L 803 1001 L 789 1002 L 785 1000 L 789 999 L 780 1000 L 784 1000 L 781 1002 L 775 1001 L 777 1002 L 774 1004 L 769 1003 L 771 1004 L 768 1006 L 767 1004 L 762 1006 L 765 1006 L 763 1008 L 757 1007 L 756 1008 L 759 1008 L 757 1010 L 752 1009 L 754 1010 L 751 1012 L 750 1010 L 747 1011 L 749 1012 L 746 1014 L 745 1012 L 738 1015 L 727 1023 L 724 1028 L 722 1027 L 705 1039 L 702 1044 L 701 1042 L 686 1053 L 682 1059 L 678 1062 L 679 1059 Z"/>
<path d="M 1302 870 L 1309 870 L 1304 872 L 1294 871 L 1293 872 L 1298 872 L 1294 874 L 1286 873 L 1289 874 L 1285 876 L 1278 875 L 1281 876 L 1277 878 L 1271 877 L 1273 878 L 1270 880 L 1269 878 L 1265 879 L 1267 880 L 1264 882 L 1259 881 L 1261 882 L 1258 884 L 1257 882 L 1248 885 L 1250 886 L 1247 888 L 1246 886 L 1237 889 L 1239 890 L 1236 892 L 1235 890 L 1232 891 L 1231 894 L 1230 892 L 1226 893 L 1225 896 L 1221 895 L 1218 898 L 1220 899 L 1215 903 L 1214 906 L 1216 907 L 1211 911 L 1206 922 L 1208 923 L 1205 924 L 1204 926 L 1206 927 L 1204 930 L 1203 928 L 1204 931 L 1201 932 L 1202 935 L 1199 936 L 1195 944 L 1196 948 L 1194 951 L 1193 949 L 1194 953 L 1192 955 L 1191 953 L 1192 952 L 1190 956 L 1192 957 L 1189 958 L 1190 961 L 1187 962 L 1186 965 L 1188 966 L 1186 969 L 1185 967 L 1186 970 L 1184 973 L 1183 971 L 1182 974 L 1184 975 L 1181 976 L 1180 978 L 1182 979 L 1179 980 L 1177 984 L 1178 987 L 1175 988 L 1174 991 L 1176 992 L 1174 995 L 1173 993 L 1174 996 L 1171 997 L 1171 1005 L 1173 1005 L 1173 1009 L 1176 1010 L 1174 1011 L 1176 1015 L 1176 1012 L 1178 1014 L 1177 1018 L 1178 1016 L 1180 1019 L 1178 1020 L 1181 1027 L 1184 1028 L 1183 1032 L 1185 1036 L 1188 1037 L 1187 1040 L 1188 1038 L 1190 1041 L 1188 1042 L 1189 1045 L 1191 1045 L 1191 1049 L 1192 1047 L 1194 1050 L 1192 1051 L 1195 1058 L 1196 1056 L 1198 1059 L 1196 1060 L 1197 1063 L 1200 1064 L 1199 1068 L 1203 1077 L 1206 1078 L 1204 1079 L 1205 1082 L 1206 1080 L 1208 1083 L 1206 1084 L 1207 1087 L 1210 1088 L 1209 1091 L 1212 1094 L 1222 1097 L 1223 1095 L 1227 1097 L 1224 1098 L 1229 1097 L 1232 1099 L 1230 1100 L 1235 1099 L 1238 1101 L 1236 1102 L 1241 1101 L 1244 1103 L 1242 1104 L 1248 1106 L 1254 1105 L 1257 1107 L 1254 1108 L 1253 1107 L 1260 1107 L 1263 1109 L 1260 1110 L 1259 1109 L 1265 1111 L 1266 1109 L 1269 1111 L 1267 1112 L 1273 1114 L 1279 1113 L 1282 1115 L 1279 1116 L 1278 1115 L 1285 1115 L 1289 1117 L 1286 1118 L 1292 1120 L 1298 1119 L 1301 1121 L 1298 1122 L 1297 1121 L 1304 1121 L 1307 1123 L 1304 1124 L 1303 1123 L 1309 1125 L 1310 1123 L 1314 1125 L 1311 1126 L 1317 1125 L 1320 1127 L 1318 1128 L 1323 1128 L 1331 1119 L 1333 1120 L 1338 1113 L 1340 1114 L 1337 1117 L 1348 1105 L 1350 1106 L 1348 1108 L 1381 1082 L 1388 1073 L 1390 1074 L 1388 1076 L 1397 1066 L 1398 1068 L 1408 1057 L 1410 1058 L 1407 1061 L 1423 1048 L 1423 1045 L 1427 1043 L 1428 1039 L 1426 1044 L 1425 1024 L 1425 1031 L 1423 1026 L 1424 1017 L 1423 1020 L 1421 1017 L 1422 1008 L 1421 1011 L 1419 1007 L 1420 998 L 1419 1001 L 1417 997 L 1418 987 L 1417 985 L 1417 991 L 1415 987 L 1416 977 L 1410 945 L 1405 940 L 1408 943 L 1406 944 L 1396 932 L 1397 935 L 1369 909 L 1367 910 L 1365 908 L 1367 907 L 1353 896 L 1355 898 L 1353 899 L 1351 895 L 1333 881 L 1331 882 L 1327 877 L 1323 877 L 1324 875 L 1319 874 L 1315 869 Z"/>
<path d="M 587 625 L 531 625 L 538 626 L 531 628 L 513 627 L 517 628 L 512 630 L 509 629 L 511 628 L 501 631 L 503 632 L 500 634 L 499 632 L 496 633 L 461 665 L 462 667 L 457 672 L 455 671 L 459 667 L 437 690 L 435 689 L 437 687 L 415 708 L 416 712 L 413 713 L 412 716 L 414 717 L 412 720 L 411 718 L 409 722 L 410 726 L 408 726 L 406 730 L 408 731 L 406 734 L 405 732 L 400 744 L 402 745 L 400 748 L 399 746 L 396 753 L 398 754 L 396 757 L 395 755 L 396 759 L 394 761 L 393 759 L 394 758 L 392 762 L 394 763 L 391 764 L 387 772 L 388 777 L 386 779 L 385 777 L 386 776 L 386 793 L 384 808 L 383 790 L 384 835 L 382 844 L 381 835 L 382 871 L 379 870 L 379 862 L 379 870 L 402 893 L 401 895 L 433 930 L 438 933 L 437 935 L 444 944 L 460 944 L 453 943 L 460 941 L 488 942 L 476 941 L 487 939 L 537 940 L 507 939 L 523 937 L 542 938 L 554 925 L 552 924 L 560 918 L 596 877 L 595 875 L 598 874 L 611 859 L 608 862 L 607 860 L 618 851 L 644 819 L 642 821 L 641 819 L 652 810 L 651 807 L 653 804 L 654 806 L 653 798 L 655 794 L 656 797 L 655 788 L 657 784 L 658 787 L 659 780 L 658 782 L 657 778 L 659 774 L 660 778 L 659 769 L 661 765 L 662 769 L 661 771 L 663 762 L 662 763 L 661 760 L 663 756 L 664 759 L 665 751 L 664 753 L 663 750 L 665 745 L 666 749 L 665 737 L 667 731 L 668 737 L 667 740 L 669 725 L 669 727 L 667 727 L 669 718 L 670 723 L 669 709 L 671 704 L 671 713 L 672 694 L 648 671 L 650 673 L 648 674 L 641 665 L 623 651 L 621 652 L 619 648 L 618 650 L 613 643 Z"/>
<path d="M 1401 541 L 1400 543 L 1401 541 L 1403 542 L 1400 551 L 1399 545 L 1400 562 L 1398 567 L 1397 562 L 1397 572 L 1395 576 L 1396 587 L 1394 592 L 1393 587 L 1394 585 L 1389 610 L 1389 623 L 1409 646 L 1418 653 L 1417 655 L 1415 653 L 1425 665 L 1436 674 L 1435 676 L 1433 674 L 1441 684 L 1446 687 L 1445 689 L 1461 708 L 1467 712 L 1465 713 L 1474 724 L 1480 726 L 1487 725 L 1490 727 L 1485 727 L 1501 732 L 1508 731 L 1512 733 L 1509 734 L 1516 736 L 1523 735 L 1527 737 L 1524 738 L 1530 737 L 1533 739 L 1531 740 L 1537 739 L 1541 741 L 1538 742 L 1544 741 L 1547 743 L 1545 744 L 1566 750 L 1576 750 L 1579 747 L 1580 749 L 1577 752 L 1571 751 L 1577 752 L 1580 749 L 1579 747 L 1592 735 L 1600 724 L 1598 723 L 1604 719 L 1615 703 L 1615 701 L 1615 703 L 1613 703 L 1614 680 L 1613 690 L 1611 680 L 1612 657 L 1611 665 L 1609 658 L 1610 638 L 1609 644 L 1607 638 L 1608 619 L 1607 626 L 1605 619 L 1606 612 L 1589 595 L 1587 596 L 1583 590 L 1586 593 L 1584 594 L 1581 589 L 1571 579 L 1569 580 L 1554 564 L 1556 568 L 1525 539 L 1523 540 L 1519 534 L 1522 537 L 1520 538 L 1513 529 L 1483 529 L 1488 530 L 1483 532 L 1466 531 L 1472 532 L 1466 534 L 1446 533 L 1453 534 L 1446 536 L 1429 535 L 1434 536 L 1429 538 L 1417 537 L 1421 538 L 1417 540 L 1407 539 L 1405 540 L 1411 540 L 1407 542 Z"/>
<path d="M 1050 363 L 1034 360 L 1037 359 L 1030 360 L 1026 358 L 1029 357 L 1013 354 L 1015 355 L 1012 356 L 1008 354 L 1011 353 L 984 348 L 984 350 L 977 348 L 981 347 L 968 348 L 963 346 L 968 345 L 955 344 L 958 345 L 953 346 L 948 344 L 953 343 L 932 343 L 924 349 L 921 354 L 920 352 L 918 356 L 916 355 L 910 359 L 907 364 L 904 363 L 898 370 L 892 372 L 895 372 L 893 374 L 890 373 L 887 375 L 888 377 L 880 379 L 871 385 L 872 387 L 864 389 L 854 396 L 857 396 L 855 398 L 852 397 L 849 399 L 850 401 L 847 402 L 847 400 L 845 404 L 844 402 L 839 405 L 838 408 L 836 407 L 835 410 L 832 409 L 817 419 L 818 421 L 814 421 L 813 424 L 810 423 L 807 428 L 806 426 L 792 435 L 784 444 L 783 442 L 784 441 L 778 462 L 779 461 L 780 464 L 778 468 L 777 465 L 775 473 L 776 482 L 774 486 L 773 482 L 774 480 L 774 491 L 772 495 L 771 492 L 770 499 L 771 497 L 772 500 L 770 504 L 769 501 L 770 509 L 768 513 L 768 507 L 764 526 L 765 524 L 766 527 L 764 531 L 763 528 L 763 539 L 782 556 L 784 555 L 798 570 L 796 568 L 798 567 L 812 582 L 814 581 L 830 598 L 828 596 L 830 595 L 837 604 L 848 614 L 850 613 L 864 628 L 862 626 L 864 625 L 880 642 L 885 642 L 883 641 L 886 639 L 892 640 L 893 639 L 889 639 L 892 637 L 897 638 L 894 637 L 898 635 L 899 637 L 903 636 L 900 635 L 904 633 L 905 635 L 922 629 L 918 629 L 921 627 L 927 628 L 928 627 L 924 627 L 927 625 L 933 626 L 934 625 L 930 625 L 933 623 L 939 624 L 944 622 L 942 621 L 945 619 L 946 621 L 950 620 L 948 619 L 951 617 L 952 619 L 956 618 L 954 617 L 957 615 L 958 617 L 968 614 L 966 613 L 969 611 L 970 613 L 974 612 L 972 611 L 975 609 L 976 611 L 982 609 L 978 609 L 981 607 L 986 608 L 984 607 L 987 605 L 988 607 L 992 606 L 990 605 L 993 603 L 998 604 L 996 603 L 999 601 L 1005 602 L 1006 601 L 1002 601 L 1005 599 L 1011 600 L 1012 599 L 1008 599 L 1011 597 L 1017 598 L 1018 597 L 1014 597 L 1017 595 L 1023 596 L 1024 595 L 1020 595 L 1023 593 L 1029 594 L 1030 593 L 1026 593 L 1029 591 L 1035 592 L 1040 590 L 1038 589 L 1041 587 L 1042 589 L 1045 588 L 1051 581 L 1049 580 L 1053 578 L 1051 578 L 1052 575 L 1054 576 L 1065 554 L 1063 553 L 1065 550 L 1066 552 L 1065 549 L 1068 548 L 1069 545 L 1067 544 L 1069 541 L 1070 543 L 1071 540 L 1069 539 L 1071 536 L 1072 538 L 1073 535 L 1071 534 L 1073 531 L 1074 533 L 1075 530 L 1073 529 L 1075 526 L 1076 528 L 1077 525 L 1075 524 L 1077 521 L 1078 523 L 1079 520 L 1077 519 L 1079 516 L 1080 518 L 1081 515 L 1079 514 L 1081 511 L 1082 513 L 1085 505 L 1083 504 L 1086 503 L 1089 495 L 1087 494 L 1089 491 L 1090 493 L 1091 490 L 1089 489 L 1091 486 L 1092 488 L 1094 483 L 1093 478 L 1095 476 L 1096 478 L 1095 479 L 1095 473 L 1097 470 L 1098 473 L 1097 474 L 1097 468 L 1099 465 L 1100 468 L 1099 469 L 1101 464 L 1099 463 L 1101 460 L 1102 462 L 1102 457 L 1101 459 L 1099 456 L 1100 453 L 1099 455 L 1097 452 L 1099 451 L 1098 449 L 1095 448 L 1096 445 L 1095 444 L 1095 447 L 1093 445 L 1094 441 L 1090 434 L 1087 433 L 1089 432 L 1085 429 L 1087 428 L 1080 415 L 1078 416 L 1077 413 L 1079 413 L 1075 410 L 1076 407 L 1071 403 L 1073 402 L 1069 399 L 1071 398 L 1067 395 L 1068 392 L 1060 376 L 1055 373 L 1057 372 L 1051 367 L 1053 366 Z"/>
<path d="M 303 646 L 304 652 L 302 655 L 301 652 L 302 651 L 300 657 L 302 658 L 300 662 L 299 659 L 300 666 L 298 669 L 297 666 L 298 665 L 296 671 L 298 672 L 295 673 L 295 680 L 293 681 L 294 690 L 292 694 L 291 690 L 292 688 L 292 700 L 290 705 L 289 700 L 290 698 L 290 710 L 288 709 L 287 711 L 288 721 L 285 722 L 286 731 L 284 730 L 283 732 L 284 742 L 282 746 L 281 742 L 282 740 L 282 752 L 280 751 L 279 753 L 280 762 L 278 761 L 278 768 L 277 764 L 278 774 L 276 778 L 275 774 L 276 772 L 274 782 L 275 781 L 276 784 L 273 785 L 274 795 L 272 800 L 271 795 L 272 793 L 272 806 L 270 810 L 269 806 L 270 804 L 270 816 L 268 821 L 267 817 L 268 827 L 266 832 L 265 828 L 266 838 L 263 838 L 264 836 L 264 847 L 261 849 L 262 859 L 260 864 L 259 859 L 260 857 L 260 870 L 258 874 L 257 870 L 256 879 L 257 877 L 258 881 L 256 884 L 255 881 L 254 890 L 255 888 L 256 891 L 254 896 L 253 892 L 254 902 L 252 906 L 251 902 L 252 900 L 252 912 L 250 916 L 249 912 L 250 910 L 248 920 L 250 920 L 248 927 L 247 923 L 248 932 L 245 933 L 246 943 L 244 947 L 243 944 L 244 954 L 242 958 L 241 954 L 242 952 L 242 963 L 240 962 L 239 964 L 240 973 L 238 973 L 238 976 L 215 998 L 217 999 L 210 1005 L 212 1005 L 208 1008 L 210 1009 L 205 1012 L 175 1052 L 176 1055 L 174 1055 L 171 1058 L 172 1060 L 168 1062 L 170 1063 L 165 1066 L 165 1070 L 163 1069 L 159 1074 L 160 1077 L 158 1079 L 158 1076 L 147 1090 L 147 1094 L 145 1096 L 145 1093 L 140 1099 L 142 1100 L 133 1108 L 127 1116 L 128 1118 L 125 1119 L 126 1121 L 119 1126 L 113 1135 L 114 1139 L 111 1140 L 111 1173 L 113 1174 L 112 1177 L 112 1175 L 114 1175 L 113 1190 L 116 1191 L 115 1206 L 116 1209 L 118 1208 L 118 1224 L 117 1219 L 120 1221 L 119 1236 L 120 1230 L 122 1240 L 120 1240 L 120 1238 L 121 1252 L 124 1253 L 123 1268 L 126 1269 L 125 1283 L 126 1278 L 128 1283 L 127 1300 L 128 1294 L 132 1335 L 132 1333 L 134 1333 L 133 1349 L 136 1350 L 136 1369 L 134 1371 L 133 1369 L 134 1368 L 134 1373 L 131 1374 L 130 1377 L 132 1378 L 130 1381 L 129 1379 L 128 1382 L 130 1383 L 128 1386 L 127 1384 L 126 1387 L 128 1388 L 126 1391 L 125 1389 L 126 1393 L 124 1395 L 123 1393 L 124 1392 L 124 1397 L 121 1398 L 120 1401 L 122 1402 L 120 1405 L 119 1403 L 120 1407 L 117 1408 L 115 1412 L 116 1416 L 113 1417 L 114 1421 L 112 1421 L 109 1426 L 110 1431 L 108 1433 L 107 1431 L 108 1430 L 104 1439 L 106 1440 L 104 1443 L 103 1441 L 104 1445 L 102 1447 L 101 1445 L 102 1444 L 102 1449 L 100 1449 L 98 1453 L 100 1454 L 98 1457 L 97 1455 L 93 1464 L 94 1468 L 91 1469 L 87 1478 L 88 1482 L 85 1483 L 84 1486 L 86 1487 L 83 1488 L 84 1491 L 82 1491 L 79 1496 L 79 1518 L 82 1520 L 81 1537 L 82 1531 L 84 1537 L 83 1555 L 86 1556 L 85 1572 L 86 1569 L 88 1573 L 87 1589 L 88 1585 L 90 1589 L 89 1605 L 91 1607 L 92 1628 L 92 1626 L 94 1626 L 93 1643 L 94 1636 L 96 1642 L 95 1661 L 98 1662 L 97 1672 L 98 1670 L 100 1673 L 98 1674 L 99 1678 L 106 1686 L 111 1688 L 115 1687 L 116 1690 L 120 1691 L 121 1689 L 124 1691 L 122 1692 L 125 1693 L 126 1691 L 129 1693 L 127 1694 L 131 1693 L 132 1696 L 136 1697 L 137 1695 L 138 1698 L 146 1701 L 147 1699 L 150 1701 L 148 1702 L 151 1703 L 152 1701 L 155 1703 L 153 1704 L 157 1703 L 159 1705 L 157 1706 L 156 1705 L 161 1705 L 162 1708 L 166 1707 L 167 1710 L 170 1709 L 173 1714 L 178 1718 L 180 1717 L 182 1719 L 180 1720 L 183 1722 L 181 1720 L 183 1719 L 192 1730 L 219 1752 L 217 1750 L 219 1749 L 226 1758 L 227 1756 L 238 1768 L 240 1767 L 254 1782 L 252 1780 L 254 1779 L 265 1792 L 282 1808 L 284 1807 L 285 1810 L 286 1808 L 289 1813 L 306 1813 L 307 1816 L 302 1815 L 325 1815 L 331 1817 L 324 1818 L 343 1819 L 339 1818 L 345 1817 L 348 1819 L 345 1820 L 362 1819 L 363 1822 L 379 1821 L 378 1823 L 381 1824 L 404 1823 L 410 1825 L 404 1826 L 424 1825 L 426 1827 L 424 1828 L 439 1828 L 444 1830 L 464 1829 L 470 1831 L 460 1831 L 484 1831 L 493 1833 L 484 1834 L 519 1833 L 510 1833 L 516 1831 L 533 1831 L 526 1831 L 530 1829 L 544 1830 L 540 1829 L 545 1827 L 558 1828 L 560 1827 L 554 1827 L 558 1825 L 569 1826 L 565 1825 L 573 1823 L 573 1825 L 571 1825 L 594 1822 L 589 1821 L 594 1819 L 607 1820 L 602 1819 L 607 1817 L 620 1818 L 615 1817 L 620 1815 L 624 1816 L 622 1817 L 632 1816 L 629 1815 L 632 1813 L 648 1813 L 640 1813 L 645 1811 L 658 1812 L 653 1811 L 658 1809 L 671 1810 L 673 1809 L 672 1807 L 682 1808 L 682 1805 L 686 1805 L 686 1807 L 684 1807 L 695 1806 L 691 1805 L 696 1803 L 710 1803 L 712 1805 L 710 1806 L 736 1805 L 743 1807 L 735 1808 L 759 1807 L 760 1809 L 758 1810 L 779 1809 L 780 1812 L 798 1811 L 800 1813 L 798 1814 L 827 1813 L 828 1814 L 825 1815 L 860 1815 L 861 1818 L 890 1817 L 893 1819 L 889 1820 L 917 1819 L 928 1821 L 915 1822 L 962 1821 L 973 1823 L 961 1824 L 1002 1823 L 1008 1825 L 1004 1826 L 1032 1825 L 1035 1827 L 1032 1828 L 1053 1827 L 1053 1829 L 1050 1829 L 1082 1830 L 1077 1829 L 1083 1827 L 1099 1828 L 1100 1826 L 1112 1825 L 1107 1825 L 1111 1823 L 1120 1824 L 1117 1823 L 1121 1821 L 1129 1822 L 1131 1821 L 1130 1819 L 1138 1820 L 1140 1819 L 1139 1817 L 1147 1818 L 1144 1817 L 1147 1815 L 1157 1816 L 1175 1812 L 1172 1811 L 1176 1809 L 1179 1810 L 1177 1811 L 1188 1809 L 1182 1809 L 1186 1807 L 1195 1808 L 1204 1806 L 1201 1805 L 1205 1803 L 1212 1804 L 1209 1803 L 1213 1801 L 1219 1802 L 1226 1800 L 1227 1797 L 1232 1798 L 1230 1797 L 1233 1795 L 1234 1797 L 1238 1796 L 1236 1795 L 1239 1793 L 1240 1795 L 1243 1794 L 1247 1789 L 1245 1789 L 1246 1786 L 1248 1786 L 1248 1770 L 1247 1774 L 1245 1770 L 1246 1760 L 1243 1758 L 1243 1745 L 1260 1746 L 1257 1747 L 1260 1748 L 1278 1747 L 1284 1749 L 1278 1750 L 1295 1749 L 1296 1750 L 1293 1751 L 1302 1751 L 1297 1752 L 1317 1751 L 1326 1753 L 1317 1754 L 1345 1753 L 1349 1755 L 1345 1756 L 1443 1756 L 1429 1755 L 1439 1753 L 1468 1754 L 1460 1753 L 1467 1751 L 1487 1752 L 1485 1751 L 1487 1749 L 1504 1750 L 1507 1749 L 1503 1750 L 1504 1747 L 1517 1748 L 1512 1747 L 1517 1745 L 1521 1746 L 1519 1747 L 1531 1745 L 1528 1746 L 1529 1743 L 1539 1744 L 1535 1743 L 1539 1741 L 1548 1742 L 1555 1740 L 1552 1739 L 1556 1737 L 1563 1738 L 1570 1736 L 1568 1735 L 1571 1733 L 1572 1735 L 1592 1730 L 1593 1734 L 1596 1735 L 1595 1743 L 1597 1750 L 1597 1748 L 1599 1748 L 1599 1758 L 1601 1763 L 1604 1764 L 1602 1765 L 1612 1776 L 1615 1775 L 1616 1778 L 1623 1777 L 1632 1779 L 1624 1780 L 1647 1780 L 1641 1779 L 1646 1777 L 1669 1778 L 1670 1775 L 1688 1776 L 1691 1775 L 1682 1775 L 1687 1773 L 1706 1774 L 1700 1773 L 1706 1771 L 1724 1772 L 1716 1771 L 1724 1769 L 1740 1770 L 1734 1769 L 1740 1767 L 1752 1768 L 1760 1765 L 1756 1765 L 1759 1763 L 1763 1764 L 1766 1762 L 1764 1761 L 1770 1757 L 1769 1760 L 1823 1703 L 1826 1704 L 1827 1701 L 1832 1702 L 1840 1699 L 1836 1699 L 1839 1697 L 1845 1698 L 1843 1697 L 1846 1695 L 1852 1696 L 1850 1695 L 1853 1693 L 1854 1695 L 1868 1692 L 1865 1691 L 1869 1689 L 1872 1690 L 1870 1691 L 1887 1688 L 1888 1685 L 1896 1686 L 1892 1685 L 1897 1683 L 1905 1684 L 1902 1683 L 1906 1681 L 1915 1682 L 1917 1681 L 1916 1679 L 1924 1680 L 1921 1679 L 1925 1677 L 1931 1678 L 1929 1677 L 1932 1675 L 1933 1677 L 1937 1676 L 1944 1671 L 1943 1667 L 1946 1666 L 1950 1641 L 1949 1630 L 1952 1629 L 1953 1617 L 1952 1620 L 1951 1616 L 1954 1615 L 1953 1604 L 1955 1605 L 1956 1603 L 1955 1589 L 1957 1587 L 1957 1591 L 1960 1575 L 1959 1561 L 1961 1556 L 1962 1561 L 1961 1549 L 1963 1550 L 1964 1547 L 1963 1536 L 1965 1537 L 1968 1520 L 1967 1503 L 1969 1497 L 1970 1503 L 1970 1478 L 1969 1481 L 1967 1477 L 1969 1476 L 1968 1472 L 1965 1471 L 1967 1470 L 1964 1461 L 1963 1460 L 1963 1463 L 1961 1461 L 1962 1456 L 1960 1451 L 1957 1450 L 1958 1446 L 1957 1448 L 1955 1445 L 1957 1444 L 1954 1435 L 1953 1434 L 1953 1437 L 1951 1435 L 1952 1430 L 1951 1432 L 1949 1429 L 1951 1428 L 1949 1423 L 1949 1427 L 1947 1424 L 1948 1419 L 1945 1418 L 1946 1414 L 1945 1416 L 1943 1413 L 1945 1412 L 1943 1407 L 1943 1411 L 1941 1408 L 1942 1403 L 1941 1405 L 1939 1402 L 1941 1401 L 1940 1398 L 1939 1400 L 1937 1397 L 1938 1392 L 1937 1394 L 1935 1391 L 1937 1390 L 1936 1386 L 1933 1385 L 1934 1381 L 1933 1383 L 1931 1380 L 1933 1379 L 1932 1376 L 1931 1378 L 1929 1375 L 1931 1374 L 1928 1365 L 1927 1364 L 1927 1367 L 1925 1365 L 1926 1360 L 1923 1359 L 1925 1358 L 1924 1355 L 1923 1357 L 1921 1354 L 1923 1353 L 1921 1348 L 1921 1351 L 1919 1349 L 1920 1342 L 1919 1347 L 1917 1342 L 1917 1306 L 1919 1304 L 1920 1307 L 1919 1281 L 1921 1275 L 1922 1282 L 1921 1257 L 1923 1247 L 1924 1257 L 1923 1234 L 1926 1233 L 1925 1212 L 1927 1204 L 1928 1211 L 1927 1189 L 1929 1187 L 1930 1189 L 1931 1173 L 1930 1176 L 1929 1170 L 1931 1169 L 1932 1171 L 1932 1159 L 1931 1161 L 1929 1158 L 1930 1151 L 1927 1142 L 1927 1146 L 1925 1143 L 1926 1136 L 1925 1139 L 1923 1135 L 1924 1128 L 1923 1131 L 1921 1127 L 1922 1120 L 1920 1112 L 1919 1115 L 1917 1111 L 1918 1104 L 1917 1107 L 1915 1103 L 1916 1096 L 1913 1094 L 1914 1088 L 1907 1063 L 1907 1067 L 1905 1064 L 1906 1057 L 1905 1059 L 1903 1056 L 1904 1053 L 1905 1055 L 1904 1049 L 1903 1052 L 1901 1048 L 1902 1045 L 1903 1047 L 1902 1041 L 1901 1044 L 1899 1040 L 1900 1033 L 1897 1032 L 1898 1026 L 1897 1029 L 1895 1025 L 1896 1018 L 1895 1021 L 1893 1017 L 1894 1010 L 1893 1013 L 1891 1009 L 1892 1002 L 1889 1000 L 1890 994 L 1889 997 L 1887 993 L 1888 986 L 1885 984 L 1886 978 L 1885 981 L 1883 977 L 1884 970 L 1873 930 L 1873 934 L 1871 931 L 1872 924 L 1870 916 L 1867 916 L 1868 909 L 1865 908 L 1866 905 L 1841 883 L 1839 884 L 1829 873 L 1831 875 L 1829 876 L 1824 869 L 1817 863 L 1815 864 L 1812 859 L 1793 843 L 1791 844 L 1765 817 L 1763 818 L 1762 815 L 1758 813 L 1760 812 L 1757 808 L 1755 809 L 1756 799 L 1755 803 L 1753 799 L 1754 795 L 1755 797 L 1753 785 L 1753 792 L 1751 787 L 1752 776 L 1751 780 L 1749 775 L 1750 772 L 1751 774 L 1749 762 L 1747 763 L 1748 753 L 1747 751 L 1747 757 L 1745 753 L 1746 743 L 1745 746 L 1743 742 L 1744 731 L 1741 730 L 1741 728 L 1743 728 L 1739 706 L 1739 712 L 1737 708 L 1738 696 L 1737 701 L 1735 696 L 1736 685 L 1735 689 L 1733 685 L 1734 673 L 1733 671 L 1733 677 L 1731 673 L 1732 662 L 1731 666 L 1729 661 L 1730 650 L 1729 655 L 1727 650 L 1728 638 L 1725 636 L 1726 627 L 1724 615 L 1721 614 L 1722 603 L 1717 577 L 1717 584 L 1715 579 L 1716 568 L 1715 570 L 1713 567 L 1714 564 L 1715 566 L 1713 555 L 1713 559 L 1710 544 L 1707 541 L 1706 543 L 1702 537 L 1704 539 L 1702 540 L 1693 529 L 1683 521 L 1682 523 L 1678 517 L 1673 513 L 1671 514 L 1668 509 L 1647 492 L 1650 495 L 1648 496 L 1637 484 L 1639 486 L 1637 487 L 1631 479 L 1629 480 L 1627 476 L 1626 478 L 1621 471 L 1617 471 L 1615 469 L 1618 469 L 1611 463 L 1611 465 L 1608 461 L 1607 463 L 1606 460 L 1583 441 L 1581 442 L 1573 433 L 1571 434 L 1569 432 L 1571 431 L 1563 425 L 1561 426 L 1553 417 L 1549 417 L 1538 405 L 1534 406 L 1530 404 L 1534 403 L 1535 404 L 1500 403 L 1506 404 L 1499 406 L 1486 405 L 1490 406 L 1486 408 L 1471 407 L 1476 408 L 1471 410 L 1456 409 L 1439 412 L 1444 411 L 1442 414 L 1428 413 L 1433 414 L 1428 416 L 1413 415 L 1416 416 L 1413 418 L 1399 417 L 1404 418 L 1399 420 L 1384 419 L 1387 420 L 1384 422 L 1369 421 L 1374 422 L 1369 424 L 1351 423 L 1333 407 L 1331 408 L 1324 399 L 1313 389 L 1312 391 L 1306 383 L 1293 371 L 1291 372 L 1286 365 L 1252 335 L 1254 337 L 1252 338 L 1236 321 L 1238 323 L 1236 324 L 1225 311 L 1226 314 L 1161 256 L 1163 258 L 1161 259 L 1155 251 L 1151 251 L 1152 249 L 1143 243 L 1140 244 L 1138 242 L 1141 242 L 1137 242 L 1136 239 L 1132 240 L 1128 238 L 1132 237 L 1133 238 L 1124 236 L 1126 237 L 1122 238 L 1117 236 L 1122 235 L 1106 236 L 1106 233 L 1109 234 L 1086 234 L 1080 232 L 1086 231 L 1067 232 L 1061 230 L 1067 229 L 1051 228 L 1054 229 L 1049 230 L 1042 228 L 1049 227 L 1031 228 L 1031 225 L 1034 226 L 1012 226 L 1005 224 L 1012 223 L 995 224 L 988 222 L 998 222 L 977 222 L 970 220 L 976 219 L 958 220 L 955 218 L 958 217 L 938 218 L 932 216 L 938 215 L 920 216 L 920 213 L 903 214 L 895 212 L 903 211 L 887 211 L 891 212 L 884 214 L 884 212 L 881 213 L 882 215 L 878 215 L 877 218 L 876 216 L 870 219 L 867 224 L 864 223 L 855 229 L 856 231 L 852 231 L 851 234 L 848 233 L 845 238 L 844 236 L 833 243 L 834 245 L 831 246 L 831 244 L 817 253 L 816 256 L 810 257 L 807 262 L 806 260 L 795 267 L 796 269 L 792 269 L 779 277 L 778 280 L 772 281 L 769 286 L 768 284 L 763 287 L 764 289 L 760 289 L 759 292 L 748 299 L 745 304 L 744 302 L 733 309 L 734 311 L 726 313 L 723 318 L 722 316 L 716 322 L 714 321 L 710 326 L 708 325 L 704 330 L 702 329 L 698 334 L 696 333 L 693 335 L 694 337 L 690 337 L 684 344 L 686 345 L 684 348 L 683 346 L 678 361 L 680 362 L 678 366 L 677 363 L 678 372 L 676 376 L 675 372 L 676 370 L 676 381 L 674 386 L 673 382 L 669 400 L 670 409 L 668 413 L 667 410 L 666 417 L 667 415 L 668 418 L 666 422 L 665 419 L 666 427 L 664 431 L 663 428 L 662 435 L 663 433 L 664 436 L 662 440 L 661 437 L 662 446 L 660 450 L 659 446 L 660 444 L 658 453 L 659 452 L 660 455 L 658 459 L 657 456 L 656 463 L 657 461 L 658 464 L 656 468 L 655 465 L 656 474 L 654 478 L 653 474 L 654 472 L 654 483 L 652 487 L 651 484 L 652 493 L 650 497 L 650 491 L 645 508 L 638 506 L 642 505 L 643 506 L 632 506 L 633 504 L 630 503 L 620 504 L 616 502 L 620 501 L 612 500 L 614 501 L 611 502 L 606 500 L 610 499 L 601 500 L 600 497 L 590 498 L 591 496 L 578 494 L 578 496 L 575 496 L 573 494 L 575 493 L 561 494 L 560 491 L 564 492 L 547 490 L 550 490 L 550 492 L 546 492 L 545 489 L 529 490 L 524 488 L 529 487 L 514 488 L 513 487 L 516 486 L 498 483 L 476 483 L 434 526 L 432 525 L 401 557 L 399 556 L 403 552 L 372 584 L 370 583 L 344 610 L 342 609 L 344 607 L 329 624 L 327 623 L 331 619 L 326 626 L 324 625 Z M 1548 1282 L 1547 1284 L 1565 1301 L 1565 1305 L 1581 1327 L 1587 1331 L 1587 1335 L 1592 1338 L 1590 1339 L 1594 1341 L 1593 1343 L 1607 1362 L 1612 1365 L 1611 1367 L 1616 1370 L 1614 1371 L 1618 1373 L 1619 1378 L 1624 1381 L 1623 1383 L 1628 1386 L 1626 1387 L 1630 1389 L 1631 1394 L 1636 1397 L 1635 1399 L 1639 1405 L 1642 1406 L 1640 1407 L 1643 1416 L 1644 1417 L 1644 1414 L 1646 1416 L 1645 1421 L 1648 1422 L 1647 1426 L 1648 1424 L 1650 1427 L 1648 1428 L 1649 1431 L 1652 1432 L 1651 1436 L 1655 1445 L 1658 1446 L 1656 1447 L 1657 1450 L 1658 1448 L 1660 1451 L 1658 1452 L 1659 1455 L 1660 1453 L 1662 1456 L 1660 1457 L 1661 1460 L 1664 1461 L 1663 1465 L 1665 1470 L 1666 1468 L 1668 1471 L 1666 1472 L 1667 1475 L 1670 1476 L 1669 1480 L 1671 1484 L 1673 1483 L 1673 1488 L 1674 1486 L 1676 1489 L 1674 1490 L 1675 1493 L 1678 1494 L 1677 1497 L 1680 1498 L 1678 1499 L 1681 1507 L 1682 1505 L 1684 1508 L 1682 1509 L 1686 1519 L 1686 1515 L 1693 1538 L 1696 1539 L 1695 1543 L 1696 1541 L 1698 1544 L 1696 1545 L 1697 1549 L 1700 1550 L 1699 1555 L 1700 1556 L 1700 1552 L 1702 1555 L 1701 1561 L 1703 1567 L 1704 1564 L 1706 1568 L 1705 1575 L 1706 1577 L 1706 1572 L 1708 1575 L 1707 1584 L 1708 1581 L 1710 1584 L 1709 1588 L 1708 1586 L 1709 1593 L 1710 1590 L 1712 1594 L 1711 1603 L 1714 1614 L 1714 1608 L 1716 1612 L 1715 1621 L 1716 1618 L 1718 1622 L 1717 1625 L 1716 1623 L 1717 1630 L 1718 1627 L 1720 1633 L 1718 1633 L 1724 1661 L 1724 1655 L 1726 1659 L 1725 1669 L 1726 1671 L 1726 1665 L 1728 1669 L 1727 1678 L 1728 1674 L 1730 1681 L 1728 1681 L 1729 1688 L 1730 1684 L 1732 1688 L 1731 1698 L 1732 1694 L 1734 1698 L 1733 1702 L 1732 1700 L 1733 1703 L 1726 1705 L 1729 1706 L 1723 1708 L 1723 1706 L 1712 1708 L 1718 1708 L 1714 1710 L 1699 1710 L 1707 1710 L 1702 1712 L 1687 1711 L 1693 1712 L 1687 1714 L 1672 1713 L 1678 1714 L 1672 1716 L 1655 1715 L 1660 1716 L 1655 1718 L 1639 1717 L 1638 1714 L 1638 1716 L 1636 1716 L 1635 1702 L 1635 1708 L 1633 1704 L 1634 1695 L 1633 1698 L 1631 1694 L 1632 1691 L 1633 1693 L 1631 1683 L 1631 1689 L 1629 1685 L 1630 1676 L 1629 1679 L 1627 1673 L 1629 1673 L 1626 1657 L 1625 1660 L 1623 1657 L 1624 1648 L 1623 1651 L 1621 1647 L 1622 1644 L 1623 1646 L 1622 1639 L 1621 1642 L 1619 1638 L 1620 1635 L 1621 1637 L 1619 1628 L 1619 1633 L 1617 1630 L 1618 1621 L 1617 1624 L 1615 1620 L 1616 1617 L 1617 1619 L 1615 1609 L 1616 1611 L 1613 1611 L 1614 1602 L 1613 1605 L 1611 1602 L 1612 1593 L 1611 1591 L 1611 1597 L 1609 1593 L 1610 1584 L 1609 1582 L 1609 1588 L 1607 1584 L 1608 1575 L 1607 1578 L 1605 1574 L 1606 1571 L 1607 1573 L 1606 1566 L 1605 1569 L 1603 1565 L 1604 1558 L 1600 1546 L 1600 1548 L 1598 1548 L 1598 1540 L 1597 1542 L 1595 1539 L 1597 1538 L 1596 1534 L 1593 1533 L 1594 1528 L 1593 1527 L 1593 1531 L 1591 1528 L 1592 1522 L 1591 1521 L 1591 1525 L 1585 1504 L 1585 1507 L 1583 1505 L 1584 1500 L 1581 1493 L 1581 1497 L 1579 1494 L 1580 1489 L 1579 1491 L 1577 1488 L 1579 1487 L 1578 1483 L 1577 1485 L 1575 1482 L 1577 1481 L 1571 1464 L 1571 1468 L 1569 1465 L 1570 1459 L 1569 1458 L 1569 1462 L 1565 1446 L 1565 1450 L 1563 1447 L 1564 1441 L 1563 1440 L 1563 1444 L 1561 1441 L 1562 1436 L 1561 1438 L 1559 1435 L 1561 1434 L 1558 1424 L 1555 1423 L 1556 1418 L 1553 1411 L 1553 1415 L 1551 1412 L 1552 1406 L 1551 1405 L 1551 1409 L 1549 1406 L 1550 1400 L 1474 1323 L 1469 1320 L 1468 1322 L 1467 1319 L 1463 1320 L 1460 1318 L 1463 1317 L 1464 1318 L 1459 1316 L 1458 1318 L 1455 1316 L 1457 1315 L 1449 1312 L 1448 1314 L 1445 1312 L 1447 1311 L 1444 1310 L 1443 1312 L 1440 1310 L 1442 1309 L 1437 1310 L 1434 1308 L 1437 1307 L 1438 1308 L 1432 1308 L 1431 1305 L 1427 1304 L 1426 1306 L 1422 1304 L 1425 1303 L 1418 1304 L 1414 1302 L 1418 1301 L 1420 1302 L 1405 1301 L 1411 1302 L 1405 1304 L 1401 1303 L 1403 1302 L 1395 1303 L 1399 1304 L 1394 1306 L 1391 1305 L 1393 1304 L 1385 1305 L 1388 1306 L 1384 1308 L 1381 1307 L 1383 1306 L 1372 1308 L 1378 1308 L 1374 1310 L 1364 1309 L 1367 1310 L 1363 1312 L 1360 1311 L 1362 1310 L 1355 1311 L 1358 1312 L 1354 1314 L 1347 1313 L 1346 1314 L 1350 1314 L 1338 1317 L 1323 1329 L 1320 1334 L 1318 1333 L 1311 1339 L 1306 1346 L 1304 1345 L 1247 1402 L 1250 1401 L 1231 1422 L 1232 1428 L 1230 1431 L 1229 1428 L 1230 1427 L 1227 1435 L 1228 1441 L 1226 1445 L 1225 1442 L 1222 1453 L 1224 1454 L 1222 1457 L 1221 1455 L 1222 1461 L 1220 1464 L 1219 1461 L 1220 1460 L 1216 1473 L 1218 1474 L 1216 1477 L 1215 1475 L 1216 1481 L 1214 1484 L 1213 1482 L 1214 1488 L 1212 1491 L 1211 1489 L 1212 1495 L 1210 1498 L 1209 1495 L 1210 1494 L 1197 1537 L 1198 1543 L 1196 1547 L 1195 1544 L 1196 1550 L 1194 1553 L 1193 1551 L 1194 1557 L 1192 1561 L 1191 1558 L 1184 1585 L 1186 1586 L 1184 1589 L 1183 1587 L 1179 1601 L 1180 1608 L 1178 1611 L 1177 1608 L 1178 1607 L 1175 1616 L 1175 1634 L 1176 1627 L 1178 1634 L 1177 1652 L 1178 1644 L 1180 1651 L 1179 1676 L 1180 1669 L 1182 1676 L 1181 1696 L 1182 1689 L 1184 1696 L 1183 1717 L 1184 1710 L 1186 1717 L 1185 1735 L 1186 1728 L 1188 1735 L 1187 1750 L 1188 1745 L 1190 1751 L 1188 1753 L 1156 1760 L 1157 1762 L 1148 1761 L 1139 1763 L 1142 1764 L 1139 1766 L 1135 1765 L 1137 1764 L 1118 1768 L 1124 1768 L 1120 1770 L 1112 1768 L 1112 1764 L 1109 1763 L 1111 1762 L 1109 1758 L 1109 1761 L 1107 1759 L 1108 1755 L 1107 1757 L 1105 1754 L 1107 1753 L 1104 1746 L 1101 1745 L 1103 1744 L 1102 1741 L 1099 1740 L 1100 1736 L 1098 1732 L 1095 1731 L 1096 1728 L 1093 1727 L 1094 1723 L 1093 1725 L 1091 1722 L 1093 1721 L 1092 1718 L 1090 1718 L 1090 1714 L 1087 1713 L 1089 1712 L 1088 1709 L 1085 1708 L 1086 1704 L 1084 1700 L 1081 1699 L 1083 1698 L 1082 1695 L 1079 1694 L 1080 1690 L 1078 1686 L 1075 1685 L 1077 1684 L 1076 1681 L 1075 1683 L 1073 1680 L 1074 1676 L 1073 1675 L 1073 1679 L 1071 1676 L 1072 1671 L 1071 1670 L 1071 1673 L 1069 1671 L 1070 1666 L 1068 1662 L 1065 1661 L 1066 1658 L 1065 1660 L 1063 1657 L 1065 1656 L 1063 1652 L 1063 1655 L 1061 1653 L 1062 1649 L 1061 1651 L 1059 1648 L 1061 1647 L 1058 1640 L 1055 1639 L 1056 1636 L 1053 1635 L 1055 1634 L 1052 1627 L 1051 1629 L 1049 1626 L 1050 1623 L 1047 1622 L 1047 1615 L 1049 1612 L 1050 1615 L 1049 1608 L 1051 1604 L 1052 1608 L 1051 1609 L 1051 1601 L 1053 1597 L 1054 1600 L 1056 1593 L 1055 1587 L 1057 1584 L 1058 1586 L 1060 1579 L 1059 1573 L 1061 1570 L 1062 1572 L 1061 1566 L 1063 1563 L 1064 1566 L 1063 1567 L 1067 1549 L 1068 1552 L 1067 1546 L 1069 1542 L 1070 1545 L 1073 1534 L 1071 1533 L 1073 1530 L 1074 1532 L 1076 1526 L 1075 1520 L 1077 1517 L 1078 1520 L 1077 1521 L 1077 1514 L 1079 1511 L 1080 1514 L 1079 1515 L 1079 1508 L 1081 1505 L 1082 1508 L 1081 1509 L 1081 1502 L 1083 1499 L 1084 1502 L 1083 1503 L 1086 1496 L 1085 1489 L 1081 1488 L 1087 1488 L 1077 1486 L 1077 1488 L 1069 1486 L 1074 1485 L 1061 1486 L 1056 1484 L 1061 1483 L 1048 1484 L 1043 1482 L 1048 1481 L 1031 1482 L 1025 1480 L 1031 1479 L 1016 1480 L 1015 1463 L 1017 1459 L 1018 1463 L 1017 1453 L 1019 1448 L 1020 1453 L 1019 1455 L 1019 1439 L 1021 1431 L 1022 1440 L 1022 1427 L 1041 1425 L 1048 1427 L 1041 1428 L 1057 1429 L 1053 1428 L 1059 1427 L 1065 1429 L 1059 1430 L 1082 1429 L 1089 1431 L 1082 1432 L 1112 1432 L 1116 1429 L 1113 1429 L 1119 1425 L 1119 1420 L 1121 1418 L 1122 1420 L 1121 1421 L 1123 1417 L 1121 1416 L 1124 1415 L 1123 1412 L 1126 1411 L 1127 1408 L 1125 1407 L 1127 1404 L 1128 1406 L 1127 1402 L 1129 1400 L 1130 1402 L 1129 1403 L 1129 1398 L 1132 1397 L 1131 1393 L 1134 1392 L 1136 1387 L 1135 1383 L 1138 1382 L 1137 1377 L 1139 1374 L 1140 1377 L 1139 1378 L 1141 1373 L 1139 1372 L 1141 1369 L 1142 1371 L 1143 1368 L 1141 1367 L 1143 1364 L 1144 1366 L 1146 1361 L 1145 1356 L 1147 1354 L 1148 1356 L 1147 1357 L 1149 1352 L 1147 1351 L 1149 1348 L 1150 1350 L 1152 1345 L 1151 1340 L 1153 1338 L 1154 1340 L 1153 1341 L 1158 1334 L 1157 1332 L 1163 1331 L 1160 1331 L 1162 1329 L 1166 1330 L 1170 1325 L 1171 1327 L 1174 1323 L 1175 1325 L 1178 1321 L 1181 1322 L 1182 1319 L 1185 1320 L 1186 1317 L 1189 1318 L 1193 1316 L 1194 1313 L 1197 1314 L 1220 1302 L 1219 1300 L 1224 1300 L 1222 1299 L 1225 1297 L 1228 1298 L 1226 1297 L 1229 1295 L 1233 1296 L 1236 1294 L 1235 1292 L 1238 1291 L 1238 1293 L 1240 1292 L 1239 1290 L 1242 1289 L 1242 1291 L 1244 1290 L 1243 1288 L 1246 1287 L 1246 1289 L 1248 1288 L 1247 1286 L 1250 1285 L 1250 1287 L 1252 1286 L 1251 1284 L 1256 1284 L 1254 1283 L 1257 1281 L 1261 1282 L 1264 1280 L 1263 1278 L 1266 1277 L 1266 1279 L 1269 1275 L 1272 1276 L 1273 1273 L 1276 1274 L 1277 1271 L 1280 1272 L 1281 1269 L 1284 1270 L 1285 1267 L 1288 1268 L 1289 1267 L 1286 1267 L 1288 1265 L 1292 1266 L 1293 1265 L 1290 1265 L 1292 1263 L 1296 1264 L 1297 1263 L 1294 1263 L 1296 1261 L 1300 1262 L 1301 1261 L 1298 1261 L 1300 1259 L 1305 1260 L 1302 1259 L 1306 1257 L 1319 1258 L 1313 1257 L 1319 1255 L 1333 1256 L 1328 1255 L 1333 1253 L 1348 1254 L 1365 1251 L 1356 1251 L 1362 1249 L 1375 1250 L 1371 1249 L 1376 1247 L 1389 1248 L 1384 1247 L 1389 1245 L 1403 1246 L 1398 1245 L 1403 1243 L 1417 1244 L 1412 1243 L 1417 1241 L 1435 1241 L 1426 1241 L 1431 1239 L 1445 1240 L 1440 1239 L 1450 1237 L 1465 1243 L 1466 1241 L 1469 1243 L 1467 1244 L 1470 1243 L 1471 1246 L 1474 1245 L 1475 1248 L 1483 1252 L 1491 1253 L 1492 1256 L 1503 1261 L 1504 1259 L 1507 1261 L 1505 1262 L 1507 1263 L 1508 1261 L 1511 1263 L 1509 1264 L 1512 1263 L 1513 1266 L 1517 1265 L 1519 1267 L 1517 1268 L 1516 1267 L 1521 1267 L 1523 1269 L 1521 1270 L 1520 1269 L 1525 1272 L 1529 1271 L 1531 1273 L 1529 1274 L 1528 1273 L 1532 1273 L 1535 1275 L 1533 1276 L 1538 1276 L 1537 1278 Z M 274 1038 L 276 1040 L 278 1039 L 285 1047 L 286 1045 L 287 1048 L 298 1057 L 296 1055 L 298 1054 L 308 1066 L 359 1111 L 360 1118 L 358 1121 L 357 1119 L 331 1154 L 332 1156 L 329 1157 L 325 1162 L 326 1164 L 323 1165 L 325 1166 L 322 1167 L 315 1176 L 316 1178 L 313 1179 L 305 1189 L 307 1187 L 308 1189 L 299 1196 L 301 1197 L 289 1208 L 290 1210 L 283 1216 L 284 1219 L 281 1220 L 282 1229 L 280 1233 L 279 1230 L 280 1239 L 278 1243 L 277 1239 L 278 1237 L 276 1246 L 278 1246 L 276 1253 L 275 1249 L 268 1283 L 269 1282 L 270 1285 L 268 1289 L 267 1286 L 268 1294 L 266 1298 L 265 1294 L 266 1292 L 266 1303 L 264 1306 L 263 1303 L 264 1301 L 264 1311 L 262 1315 L 261 1312 L 257 1328 L 258 1335 L 256 1334 L 255 1336 L 256 1344 L 254 1347 L 253 1344 L 254 1342 L 254 1352 L 252 1356 L 251 1353 L 252 1361 L 250 1364 L 250 1359 L 249 1365 L 247 1366 L 232 1361 L 223 1362 L 219 1360 L 223 1359 L 225 1360 L 213 1360 L 209 1358 L 212 1357 L 202 1358 L 198 1356 L 202 1355 L 198 1354 L 198 1350 L 198 1354 L 196 1354 L 196 1337 L 195 1342 L 193 1337 L 194 1323 L 193 1328 L 191 1323 L 192 1307 L 191 1313 L 189 1307 L 190 1292 L 189 1299 L 187 1288 L 189 1288 L 189 1290 L 187 1274 L 187 1283 L 185 1277 L 185 1259 L 185 1268 L 183 1263 L 184 1248 L 183 1253 L 181 1248 L 182 1233 L 181 1239 L 179 1233 L 180 1219 L 179 1224 L 177 1219 L 178 1202 L 177 1208 L 175 1202 L 176 1186 L 175 1183 L 175 1192 L 173 1186 L 174 1174 L 173 1172 L 173 1179 L 171 1165 L 180 1157 L 186 1149 L 185 1147 L 188 1146 L 194 1139 L 192 1138 L 197 1135 L 195 1137 L 194 1135 L 202 1129 L 216 1111 L 214 1110 L 219 1107 L 217 1106 L 224 1101 L 235 1087 L 232 1090 L 231 1088 L 240 1081 L 248 1071 L 246 1070 L 256 1061 L 254 1060 L 259 1057 L 257 1059 L 256 1057 L 262 1053 L 261 1051 L 271 1041 L 269 1040 Z M 1020 978 L 1019 980 L 1023 984 L 1025 983 L 1025 989 L 1026 987 L 1028 990 L 1027 995 L 1030 996 L 1029 1000 L 1030 998 L 1032 1001 L 1030 1002 L 1033 1011 L 1034 1012 L 1034 1008 L 1036 1011 L 1035 1016 L 1036 1017 L 1036 1014 L 1038 1016 L 1037 1021 L 1040 1022 L 1039 1026 L 1041 1031 L 1042 1029 L 1044 1032 L 1042 1033 L 1043 1036 L 1044 1034 L 1046 1037 L 1044 1038 L 1045 1041 L 1048 1042 L 1046 1043 L 1048 1048 L 1048 1044 L 1050 1047 L 1049 1052 L 1050 1050 L 1052 1053 L 1050 1054 L 1051 1057 L 1052 1055 L 1054 1058 L 1052 1059 L 1053 1062 L 1054 1060 L 1056 1063 L 1054 1064 L 1056 1069 L 1056 1066 L 1058 1068 L 1057 1073 L 1060 1074 L 1059 1078 L 1060 1076 L 1062 1079 L 1060 1080 L 1061 1083 L 1062 1081 L 1064 1084 L 1062 1085 L 1064 1090 L 1064 1086 L 1066 1089 L 1065 1094 L 1067 1099 L 1070 1100 L 1069 1104 L 1070 1102 L 1072 1105 L 1070 1106 L 1071 1109 L 1072 1107 L 1074 1110 L 1072 1111 L 1073 1115 L 1076 1116 L 1075 1120 L 1076 1121 L 1076 1118 L 1078 1120 L 1077 1125 L 1078 1123 L 1080 1126 L 1078 1127 L 1082 1140 L 1081 1135 L 1083 1135 L 1084 1141 L 1081 1142 L 1082 1144 L 1080 1144 L 1076 1150 L 1078 1151 L 1073 1154 L 1057 1178 L 1058 1180 L 1053 1184 L 1053 1188 L 1051 1187 L 1050 1192 L 1047 1193 L 1046 1198 L 1043 1199 L 1042 1204 L 1037 1208 L 1037 1212 L 1035 1211 L 1033 1214 L 1033 1218 L 1031 1217 L 1029 1220 L 1029 1224 L 1027 1223 L 1026 1228 L 1021 1232 L 1021 1236 L 1019 1235 L 1017 1238 L 1017 1242 L 1015 1241 L 1013 1244 L 1013 1248 L 1011 1247 L 1010 1252 L 1007 1253 L 1000 1264 L 1002 1265 L 996 1270 L 998 1271 L 993 1274 L 994 1277 L 987 1280 L 990 1279 L 990 1281 L 971 1283 L 974 1284 L 971 1286 L 962 1285 L 944 1290 L 945 1292 L 938 1291 L 941 1292 L 937 1294 L 930 1293 L 923 1295 L 925 1296 L 922 1298 L 915 1297 L 908 1299 L 911 1300 L 907 1302 L 906 1300 L 898 1302 L 903 1302 L 900 1304 L 893 1303 L 896 1304 L 870 1309 L 873 1310 L 869 1312 L 862 1311 L 855 1313 L 858 1314 L 854 1316 L 847 1315 L 850 1316 L 846 1318 L 845 1316 L 840 1317 L 843 1318 L 839 1320 L 827 1319 L 825 1317 L 821 1318 L 820 1315 L 817 1314 L 816 1316 L 815 1313 L 812 1314 L 811 1311 L 807 1312 L 807 1310 L 803 1308 L 802 1310 L 799 1308 L 801 1307 L 797 1305 L 792 1306 L 790 1304 L 792 1303 L 793 1304 L 787 1304 L 784 1302 L 787 1301 L 788 1302 L 784 1300 L 783 1302 L 780 1300 L 782 1299 L 779 1298 L 778 1300 L 775 1298 L 777 1297 L 773 1295 L 768 1296 L 766 1294 L 768 1293 L 769 1294 L 760 1290 L 759 1292 L 756 1290 L 758 1289 L 755 1288 L 754 1290 L 751 1288 L 753 1287 L 749 1285 L 744 1286 L 742 1284 L 745 1284 L 740 1281 L 736 1282 L 735 1279 L 717 1267 L 715 1268 L 713 1264 L 712 1266 L 709 1261 L 707 1262 L 705 1258 L 693 1249 L 689 1249 L 688 1246 L 674 1235 L 673 1237 L 668 1230 L 667 1232 L 656 1221 L 655 1223 L 651 1217 L 645 1213 L 643 1214 L 637 1207 L 634 1208 L 631 1203 L 625 1199 L 623 1200 L 615 1192 L 614 1194 L 611 1189 L 607 1189 L 608 1187 L 597 1179 L 567 1179 L 548 1184 L 552 1184 L 549 1186 L 541 1185 L 540 1186 L 545 1186 L 541 1188 L 534 1187 L 533 1188 L 537 1188 L 534 1190 L 527 1189 L 526 1190 L 530 1190 L 527 1192 L 522 1191 L 509 1204 L 511 1202 L 512 1204 L 507 1207 L 508 1208 L 467 1248 L 468 1250 L 453 1264 L 454 1269 L 452 1273 L 451 1269 L 452 1267 L 450 1276 L 451 1275 L 452 1278 L 450 1282 L 449 1279 L 445 1297 L 446 1306 L 444 1309 L 443 1306 L 444 1304 L 444 1314 L 442 1318 L 441 1315 L 442 1323 L 440 1328 L 439 1324 L 437 1332 L 438 1340 L 436 1345 L 435 1341 L 436 1350 L 434 1354 L 433 1350 L 431 1358 L 432 1368 L 430 1372 L 429 1368 L 430 1366 L 430 1376 L 428 1380 L 427 1377 L 424 1393 L 425 1392 L 426 1395 L 424 1400 L 423 1396 L 422 1405 L 426 1408 L 432 1407 L 435 1409 L 432 1410 L 431 1409 L 438 1409 L 441 1411 L 438 1412 L 437 1411 L 444 1411 L 447 1413 L 444 1414 L 443 1413 L 450 1416 L 455 1415 L 456 1418 L 466 1421 L 467 1419 L 471 1421 L 468 1422 L 472 1423 L 473 1421 L 476 1423 L 474 1424 L 478 1425 L 479 1423 L 482 1425 L 480 1426 L 484 1427 L 485 1425 L 488 1427 L 486 1428 L 490 1429 L 491 1427 L 494 1429 L 492 1430 L 497 1429 L 500 1431 L 497 1432 L 496 1431 L 503 1431 L 506 1433 L 503 1434 L 502 1433 L 508 1435 L 509 1433 L 512 1435 L 510 1436 L 514 1437 L 515 1435 L 519 1437 L 516 1438 L 520 1439 L 521 1437 L 528 1439 L 522 1440 L 527 1440 L 560 1407 L 559 1405 L 562 1404 L 577 1387 L 574 1390 L 573 1388 L 584 1379 L 582 1378 L 588 1374 L 608 1349 L 606 1348 L 612 1344 L 628 1325 L 625 1328 L 624 1326 L 630 1322 L 631 1319 L 633 1320 L 631 1319 L 633 1317 L 635 1318 L 649 1303 L 652 1304 L 653 1303 L 650 1303 L 652 1301 L 662 1302 L 661 1304 L 678 1318 L 680 1317 L 688 1326 L 692 1326 L 691 1328 L 702 1334 L 705 1333 L 706 1336 L 714 1340 L 717 1339 L 718 1342 L 721 1341 L 722 1344 L 726 1346 L 729 1345 L 729 1347 L 733 1347 L 734 1350 L 737 1351 L 738 1349 L 741 1351 L 739 1352 L 748 1356 L 752 1355 L 753 1358 L 758 1357 L 761 1359 L 758 1360 L 757 1359 L 762 1361 L 763 1359 L 766 1361 L 764 1362 L 768 1361 L 769 1364 L 773 1365 L 774 1363 L 777 1365 L 775 1366 L 778 1367 L 779 1365 L 780 1368 L 792 1374 L 795 1373 L 797 1375 L 794 1375 L 802 1381 L 801 1383 L 805 1390 L 807 1389 L 808 1395 L 808 1392 L 810 1394 L 809 1397 L 812 1398 L 811 1401 L 819 1415 L 822 1416 L 821 1419 L 823 1422 L 825 1421 L 826 1427 L 826 1424 L 828 1426 L 827 1429 L 830 1430 L 828 1431 L 831 1437 L 836 1441 L 835 1444 L 845 1462 L 847 1461 L 847 1467 L 848 1464 L 850 1467 L 849 1470 L 852 1471 L 851 1474 L 856 1478 L 855 1481 L 860 1485 L 859 1487 L 862 1488 L 860 1489 L 864 1492 L 863 1495 L 866 1496 L 865 1499 L 870 1508 L 868 1513 L 867 1510 L 868 1509 L 864 1525 L 863 1522 L 864 1521 L 864 1529 L 862 1532 L 861 1529 L 862 1528 L 862 1536 L 860 1539 L 859 1536 L 860 1535 L 860 1543 L 858 1546 L 857 1543 L 858 1542 L 855 1550 L 856 1557 L 854 1561 L 853 1558 L 851 1565 L 852 1572 L 850 1576 L 849 1572 L 850 1571 L 847 1584 L 843 1592 L 844 1594 L 842 1596 L 841 1594 L 837 1600 L 836 1598 L 828 1607 L 827 1605 L 826 1608 L 824 1607 L 792 1631 L 794 1632 L 792 1634 L 790 1633 L 786 1639 L 784 1638 L 786 1636 L 783 1641 L 782 1639 L 777 1646 L 775 1645 L 777 1643 L 751 1663 L 754 1663 L 752 1665 L 748 1665 L 725 1683 L 722 1688 L 720 1687 L 713 1693 L 704 1693 L 710 1694 L 705 1696 L 679 1695 L 690 1696 L 679 1698 L 657 1697 L 665 1698 L 658 1700 L 634 1699 L 642 1700 L 635 1702 L 613 1701 L 619 1702 L 613 1704 L 603 1703 L 579 1721 L 578 1724 L 576 1723 L 571 1727 L 574 1727 L 572 1729 L 568 1729 L 557 1737 L 559 1738 L 554 1739 L 551 1744 L 550 1742 L 532 1755 L 529 1760 L 528 1758 L 526 1759 L 528 1760 L 526 1762 L 524 1761 L 513 1769 L 512 1772 L 496 1774 L 489 1772 L 496 1771 L 479 1772 L 473 1770 L 482 1770 L 462 1770 L 457 1768 L 462 1767 L 447 1768 L 442 1766 L 447 1765 L 432 1766 L 427 1764 L 432 1763 L 415 1764 L 410 1762 L 415 1761 L 398 1762 L 394 1760 L 398 1759 L 380 1760 L 371 1758 L 381 1757 L 356 1758 L 346 1756 L 357 1755 L 329 1756 L 323 1754 L 330 1753 L 314 1754 L 310 1752 L 313 1751 L 308 1751 L 295 1745 L 284 1732 L 276 1726 L 278 1725 L 270 1714 L 263 1709 L 265 1708 L 258 1698 L 251 1693 L 253 1692 L 222 1651 L 221 1638 L 223 1635 L 224 1638 L 223 1640 L 227 1619 L 228 1622 L 227 1613 L 229 1609 L 230 1613 L 229 1615 L 229 1604 L 231 1600 L 232 1604 L 231 1606 L 231 1596 L 233 1592 L 234 1595 L 235 1588 L 234 1590 L 233 1587 L 235 1583 L 236 1586 L 235 1576 L 237 1572 L 238 1576 L 237 1566 L 239 1561 L 240 1565 L 241 1556 L 240 1558 L 239 1555 L 241 1550 L 242 1554 L 241 1543 L 243 1538 L 244 1542 L 243 1530 L 245 1526 L 246 1530 L 245 1519 L 247 1515 L 248 1518 L 248 1511 L 252 1501 L 294 1460 L 293 1458 L 305 1447 L 306 1448 L 296 1458 L 318 1435 L 314 1441 L 332 1423 L 331 1421 L 356 1397 L 358 1393 L 357 1386 L 359 1382 L 360 1385 L 362 1379 L 361 1373 L 363 1370 L 364 1373 L 363 1374 L 363 1367 L 365 1364 L 366 1367 L 365 1368 L 369 1356 L 367 1355 L 369 1352 L 370 1354 L 369 1349 L 372 1348 L 371 1342 L 373 1339 L 374 1342 L 373 1343 L 373 1336 L 375 1333 L 376 1335 L 377 1331 L 375 1330 L 377 1326 L 378 1329 L 381 1318 L 379 1317 L 381 1314 L 382 1316 L 389 1292 L 387 1291 L 389 1288 L 390 1290 L 389 1285 L 392 1284 L 391 1278 L 393 1276 L 394 1278 L 393 1279 L 393 1272 L 395 1269 L 396 1272 L 395 1273 L 395 1266 L 397 1264 L 398 1266 L 397 1267 L 397 1260 L 399 1257 L 400 1260 L 399 1261 L 399 1254 L 401 1251 L 402 1254 L 401 1255 L 405 1242 L 403 1241 L 405 1237 L 406 1240 L 405 1234 L 407 1231 L 408 1233 L 407 1227 L 409 1224 L 410 1227 L 409 1228 L 413 1210 L 414 1214 L 413 1215 L 417 1202 L 415 1202 L 417 1197 L 418 1200 L 421 1190 L 438 1174 L 437 1173 L 441 1170 L 440 1173 L 451 1161 L 453 1162 L 469 1150 L 477 1141 L 479 1142 L 482 1137 L 483 1139 L 485 1135 L 487 1136 L 491 1130 L 492 1132 L 494 1128 L 495 1130 L 518 1112 L 521 1107 L 523 1108 L 556 1082 L 559 1077 L 560 1079 L 569 1072 L 567 1071 L 569 1069 L 571 1070 L 579 1064 L 585 1056 L 587 1057 L 585 1059 L 594 1052 L 597 1047 L 599 1048 L 604 1041 L 606 1042 L 604 1044 L 612 1035 L 613 1037 L 616 1032 L 617 1034 L 635 1020 L 641 1012 L 643 1013 L 641 1015 L 653 1006 L 660 997 L 662 998 L 659 1001 L 670 992 L 673 987 L 675 988 L 683 979 L 685 980 L 693 971 L 695 972 L 700 968 L 704 962 L 705 964 L 711 956 L 713 957 L 711 959 L 722 947 L 724 948 L 721 951 L 732 939 L 734 940 L 732 942 L 747 930 L 752 923 L 753 925 L 788 923 L 801 925 L 787 926 L 825 925 L 838 927 L 823 928 L 860 927 L 867 929 L 859 930 L 886 929 L 909 931 L 945 943 L 947 950 L 951 951 L 952 949 L 955 951 L 953 952 L 957 951 L 959 953 L 957 954 L 956 953 L 962 956 L 967 955 L 969 957 L 967 958 L 966 957 L 975 961 L 976 959 L 979 961 L 977 962 L 989 967 L 990 965 L 993 967 L 991 968 L 995 967 L 997 969 L 995 970 L 994 969 L 1003 973 L 1004 971 L 1007 973 L 1005 974 L 1009 973 L 1012 975 L 1009 976 L 1008 975 L 1017 979 L 1017 977 Z M 1718 895 L 1745 920 L 1746 926 L 1690 985 L 1692 997 L 1728 1065 L 1731 1067 L 1730 1069 L 1733 1071 L 1732 1073 L 1735 1075 L 1734 1077 L 1737 1079 L 1736 1081 L 1739 1083 L 1738 1085 L 1741 1087 L 1740 1089 L 1743 1091 L 1742 1093 L 1750 1109 L 1753 1111 L 1752 1113 L 1755 1115 L 1754 1117 L 1780 1163 L 1788 1171 L 1794 1172 L 1796 1175 L 1816 1185 L 1818 1184 L 1831 1193 L 1859 1206 L 1868 1216 L 1871 1226 L 1871 1235 L 1862 1254 L 1854 1260 L 1810 1238 L 1808 1239 L 1801 1234 L 1799 1235 L 1791 1230 L 1770 1224 L 1698 1306 L 1670 1334 L 1663 1338 L 1634 1303 L 1681 1249 L 1680 1248 L 1731 1193 L 1735 1187 L 1733 1176 L 1718 1154 L 1719 1152 L 1707 1132 L 1704 1130 L 1705 1128 L 1681 1082 L 1678 1080 L 1679 1078 L 1676 1076 L 1677 1074 L 1641 1010 L 1611 1012 L 1602 1015 L 1595 1014 L 1587 1017 L 1581 1016 L 1573 1019 L 1567 1018 L 1547 1022 L 1541 1018 L 1537 1012 L 1531 983 L 1541 976 L 1550 975 L 1554 972 L 1557 973 L 1561 970 L 1564 971 L 1592 962 L 1595 963 L 1619 956 L 1623 957 L 1628 954 L 1632 955 L 1638 952 L 1643 953 L 1648 951 L 1669 935 L 1704 902 Z M 1269 813 L 1288 813 L 1292 815 L 1288 816 L 1286 815 L 1298 815 L 1302 817 L 1298 818 L 1296 817 L 1308 817 L 1311 819 L 1308 820 L 1317 819 L 1321 821 L 1317 822 L 1315 821 L 1324 823 L 1323 822 L 1326 821 L 1330 823 L 1327 824 L 1334 825 L 1332 824 L 1335 823 L 1339 825 L 1336 826 L 1343 827 L 1341 826 L 1344 825 L 1349 827 L 1345 828 L 1354 830 L 1363 829 L 1367 831 L 1364 832 L 1372 831 L 1371 833 L 1380 837 L 1381 835 L 1403 863 L 1430 888 L 1429 890 L 1424 885 L 1438 897 L 1437 899 L 1451 915 L 1452 913 L 1456 918 L 1453 917 L 1464 926 L 1463 928 L 1461 926 L 1472 936 L 1471 938 L 1469 936 L 1475 944 L 1478 945 L 1477 948 L 1478 949 L 1478 946 L 1480 948 L 1479 957 L 1480 952 L 1482 957 L 1481 980 L 1482 972 L 1484 979 L 1483 1006 L 1484 996 L 1486 1006 L 1486 1063 L 1484 1067 L 1483 1064 L 1484 1069 L 1482 1071 L 1481 1069 L 1482 1068 L 1482 1073 L 1480 1075 L 1480 1072 L 1475 1078 L 1477 1076 L 1478 1078 L 1472 1084 L 1470 1083 L 1473 1080 L 1456 1098 L 1454 1097 L 1434 1115 L 1436 1116 L 1434 1118 L 1432 1117 L 1419 1132 L 1417 1131 L 1420 1128 L 1412 1138 L 1410 1137 L 1412 1135 L 1395 1153 L 1394 1151 L 1350 1190 L 1345 1197 L 1344 1195 L 1341 1196 L 1343 1196 L 1343 1198 L 1336 1196 L 1339 1195 L 1333 1196 L 1330 1194 L 1333 1193 L 1334 1194 L 1328 1192 L 1327 1194 L 1324 1192 L 1326 1191 L 1321 1192 L 1318 1190 L 1321 1189 L 1322 1190 L 1317 1188 L 1316 1190 L 1313 1188 L 1315 1187 L 1312 1186 L 1311 1188 L 1308 1186 L 1310 1185 L 1306 1184 L 1305 1186 L 1302 1184 L 1304 1183 L 1299 1184 L 1296 1182 L 1299 1181 L 1300 1182 L 1293 1179 L 1288 1180 L 1285 1178 L 1287 1177 L 1283 1178 L 1282 1175 L 1277 1176 L 1274 1174 L 1277 1173 L 1278 1174 L 1267 1170 L 1267 1172 L 1262 1170 L 1265 1169 L 1250 1164 L 1249 1166 L 1246 1164 L 1248 1163 L 1244 1162 L 1243 1164 L 1240 1162 L 1242 1161 L 1237 1159 L 1231 1160 L 1228 1158 L 1231 1157 L 1232 1158 L 1226 1158 L 1225 1155 L 1221 1154 L 1220 1156 L 1216 1154 L 1219 1153 L 1215 1152 L 1214 1154 L 1210 1152 L 1213 1151 L 1209 1150 L 1208 1152 L 1205 1150 L 1207 1149 L 1202 1150 L 1199 1148 L 1202 1147 L 1203 1148 L 1196 1148 L 1193 1146 L 1196 1145 L 1197 1146 L 1191 1146 L 1190 1143 L 1180 1140 L 1179 1142 L 1176 1140 L 1178 1139 L 1173 1137 L 1167 1138 L 1164 1136 L 1167 1135 L 1168 1136 L 1162 1136 L 1161 1133 L 1156 1131 L 1150 1132 L 1148 1130 L 1150 1129 L 1151 1130 L 1146 1128 L 1145 1130 L 1142 1128 L 1144 1127 L 1136 1123 L 1135 1125 L 1133 1122 L 1134 1119 L 1133 1121 L 1131 1118 L 1133 1117 L 1132 1114 L 1131 1116 L 1129 1113 L 1130 1107 L 1129 1106 L 1129 1110 L 1127 1107 L 1128 1101 L 1127 1100 L 1127 1104 L 1125 1101 L 1126 1095 L 1124 1089 L 1123 1091 L 1121 1088 L 1122 1082 L 1121 1081 L 1121 1085 L 1119 1082 L 1120 1076 L 1116 1064 L 1115 1067 L 1113 1063 L 1115 1062 L 1114 1058 L 1113 1060 L 1111 1057 L 1113 1056 L 1112 1052 L 1111 1054 L 1109 1051 L 1111 1050 L 1103 1027 L 1103 1031 L 1101 1028 L 1102 1022 L 1101 1021 L 1101 1025 L 1099 1022 L 1100 1017 L 1099 1019 L 1097 1016 L 1099 1015 L 1093 996 L 1093 1001 L 1091 998 L 1092 988 L 1091 992 L 1089 977 L 1091 975 L 1092 977 L 1091 978 L 1094 973 L 1093 970 L 1097 967 L 1095 966 L 1100 962 L 1100 957 L 1102 958 L 1110 943 L 1109 940 L 1113 937 L 1111 936 L 1116 932 L 1115 928 L 1117 926 L 1118 928 L 1117 929 L 1117 925 L 1120 924 L 1120 919 L 1122 920 L 1128 909 L 1127 906 L 1130 905 L 1133 899 L 1131 898 L 1134 897 L 1133 894 L 1135 892 L 1136 894 L 1135 895 L 1137 891 L 1135 890 L 1138 889 L 1137 886 L 1139 884 L 1140 886 L 1139 887 L 1139 883 L 1141 880 L 1142 882 L 1142 877 L 1144 878 L 1150 865 L 1159 859 L 1155 859 L 1169 855 L 1166 855 L 1168 853 L 1173 854 L 1174 851 L 1178 852 L 1176 851 L 1179 849 L 1180 851 L 1183 850 L 1181 849 L 1184 847 L 1185 849 L 1188 848 L 1186 847 L 1189 845 L 1190 847 L 1193 846 L 1191 845 L 1194 843 L 1195 845 L 1198 844 L 1196 843 L 1199 841 L 1200 843 L 1208 840 L 1209 837 L 1213 838 L 1213 836 L 1217 836 L 1218 833 L 1219 835 L 1243 825 L 1240 825 L 1242 823 L 1247 824 L 1252 822 L 1253 819 L 1257 820 L 1255 819 L 1258 817 L 1259 819 L 1264 817 L 1260 817 L 1263 815 L 1268 816 Z M 1270 649 L 1279 670 L 1278 678 L 1268 692 L 1228 712 L 1226 715 L 1224 714 L 1222 717 L 1220 716 L 1208 722 L 1206 725 L 1204 724 L 1160 744 L 1158 747 L 1156 746 L 1154 749 L 1152 748 L 1128 760 L 1126 763 L 1124 762 L 1122 765 L 1120 764 L 1096 776 L 1094 779 L 1089 780 L 984 896 L 947 943 L 929 935 L 925 936 L 915 932 L 893 930 L 890 928 L 977 827 L 1011 793 L 1053 741 L 1073 731 L 1075 728 L 1077 729 L 1079 726 L 1081 727 L 1083 724 L 1085 725 L 1087 722 L 1089 723 L 1091 720 L 1093 721 L 1095 718 L 1101 717 L 1114 708 L 1143 695 L 1145 692 L 1147 693 L 1167 682 L 1169 683 L 1204 664 L 1206 665 L 1243 647 L 1245 644 L 1247 645 L 1257 641 L 1265 644 Z M 641 575 L 642 578 L 655 589 L 653 590 L 670 608 L 672 607 L 675 612 L 673 610 L 675 609 L 677 613 L 692 626 L 691 628 L 689 626 L 694 629 L 693 631 L 707 646 L 709 645 L 714 651 L 709 648 L 748 686 L 748 694 L 746 699 L 745 695 L 744 704 L 745 702 L 746 705 L 744 709 L 743 706 L 744 716 L 742 719 L 741 716 L 742 714 L 742 726 L 740 730 L 739 726 L 740 724 L 740 736 L 738 740 L 737 736 L 738 734 L 738 746 L 736 750 L 735 746 L 736 744 L 736 755 L 734 759 L 733 755 L 734 753 L 734 763 L 732 767 L 731 764 L 732 772 L 730 776 L 729 773 L 730 780 L 728 784 L 727 781 L 723 797 L 724 805 L 722 809 L 721 806 L 722 814 L 720 818 L 719 814 L 720 822 L 718 826 L 717 823 L 718 831 L 716 834 L 715 831 L 716 829 L 712 845 L 714 845 L 712 851 L 711 848 L 711 852 L 670 894 L 668 893 L 670 894 L 667 895 L 666 898 L 664 897 L 644 918 L 642 917 L 623 935 L 625 936 L 621 940 L 619 939 L 621 937 L 618 942 L 616 941 L 564 994 L 562 993 L 554 1001 L 550 1001 L 554 1001 L 554 1003 L 530 1003 L 537 1004 L 531 1006 L 511 1005 L 518 1006 L 511 1008 L 494 1007 L 496 1008 L 494 1010 L 477 1009 L 482 1010 L 477 1012 L 459 1011 L 466 1012 L 459 1014 L 441 1013 L 447 1014 L 441 1016 L 423 1015 L 428 1016 L 416 1018 L 402 1001 L 395 996 L 396 994 L 395 996 L 391 991 L 394 992 L 373 972 L 374 970 L 354 948 L 353 950 L 349 946 L 350 944 L 352 946 L 336 927 L 325 918 L 326 916 L 328 918 L 314 902 L 313 886 L 315 884 L 316 886 L 315 874 L 317 870 L 318 874 L 317 876 L 317 863 L 319 858 L 320 863 L 319 865 L 319 851 L 321 847 L 322 851 L 321 853 L 321 839 L 323 835 L 324 839 L 323 828 L 325 823 L 326 828 L 325 830 L 325 816 L 327 812 L 328 815 L 327 804 L 329 800 L 330 804 L 329 794 L 331 788 L 332 793 L 331 782 L 333 777 L 334 782 L 333 784 L 335 773 L 333 773 L 335 765 L 336 770 L 338 758 L 337 746 L 339 742 L 340 746 L 341 737 L 340 739 L 339 735 L 341 731 L 342 735 L 343 726 L 342 728 L 341 724 L 343 720 L 344 724 L 343 713 L 345 709 L 346 713 L 345 703 L 347 698 L 348 703 L 349 694 L 348 696 L 347 692 L 349 689 L 350 692 L 350 682 L 352 683 L 358 673 L 360 674 L 358 676 L 363 669 L 365 670 L 363 672 L 400 640 L 407 631 L 409 632 L 407 634 L 465 584 L 481 567 L 483 568 L 481 570 L 493 557 L 495 558 L 500 554 L 525 553 L 531 555 L 526 556 L 548 559 L 548 557 L 555 559 L 551 560 L 562 559 L 566 561 L 562 562 L 560 561 L 573 561 L 577 563 L 573 564 L 583 563 L 588 565 L 584 566 L 593 565 L 598 567 L 594 568 L 604 567 L 608 569 L 604 570 L 602 569 L 614 569 L 618 571 L 614 572 L 612 571 L 624 571 L 628 573 L 622 573 L 640 577 Z M 1362 490 L 1387 488 L 1384 487 L 1388 485 L 1399 486 L 1395 485 L 1400 483 L 1412 484 L 1423 482 L 1420 481 L 1424 479 L 1436 480 L 1452 477 L 1444 477 L 1449 475 L 1461 476 L 1456 475 L 1461 473 L 1473 474 L 1469 473 L 1474 471 L 1486 472 L 1488 471 L 1481 471 L 1486 469 L 1501 469 L 1493 469 L 1498 467 L 1510 468 L 1506 467 L 1511 465 L 1517 466 L 1522 470 L 1524 469 L 1525 472 L 1526 470 L 1530 476 L 1532 475 L 1542 486 L 1540 484 L 1542 483 L 1547 490 L 1554 496 L 1552 494 L 1554 493 L 1559 500 L 1582 519 L 1580 517 L 1582 516 L 1590 526 L 1600 534 L 1601 532 L 1612 544 L 1613 542 L 1617 548 L 1623 553 L 1624 551 L 1627 556 L 1625 554 L 1627 553 L 1637 564 L 1638 562 L 1644 570 L 1645 568 L 1647 572 L 1650 573 L 1649 576 L 1652 586 L 1652 580 L 1654 584 L 1653 593 L 1654 595 L 1654 590 L 1656 593 L 1655 603 L 1656 605 L 1656 599 L 1658 603 L 1657 612 L 1658 609 L 1660 613 L 1659 616 L 1658 614 L 1659 622 L 1660 618 L 1662 625 L 1660 625 L 1663 642 L 1664 638 L 1666 642 L 1665 651 L 1666 647 L 1668 652 L 1667 661 L 1668 657 L 1670 662 L 1669 665 L 1668 663 L 1669 671 L 1670 667 L 1672 672 L 1671 681 L 1672 678 L 1674 684 L 1672 684 L 1675 701 L 1676 697 L 1678 702 L 1678 713 L 1633 753 L 1626 762 L 1624 761 L 1611 773 L 1606 780 L 1604 779 L 1593 792 L 1591 791 L 1593 789 L 1577 806 L 1575 805 L 1577 803 L 1573 806 L 1563 806 L 1560 804 L 1562 803 L 1556 804 L 1553 802 L 1556 801 L 1557 802 L 1549 799 L 1543 800 L 1540 798 L 1543 797 L 1544 798 L 1536 795 L 1529 796 L 1526 794 L 1529 793 L 1530 794 L 1517 790 L 1516 792 L 1512 790 L 1515 789 L 1509 790 L 1505 788 L 1508 787 L 1502 788 L 1498 786 L 1501 785 L 1495 786 L 1492 784 L 1495 783 L 1496 784 L 1488 784 L 1484 782 L 1487 781 L 1481 782 L 1478 780 L 1480 779 L 1473 777 L 1465 778 L 1462 776 L 1465 775 L 1467 776 L 1445 772 L 1448 771 L 1441 772 L 1442 770 L 1440 769 L 1434 770 L 1434 768 L 1426 762 L 1428 761 L 1425 760 L 1426 758 L 1418 752 L 1419 750 L 1421 752 L 1417 750 L 1418 748 L 1410 742 L 1411 740 L 1413 742 L 1398 727 L 1400 726 L 1392 716 L 1381 707 L 1382 705 L 1385 708 L 1347 662 L 1342 659 L 1344 658 L 1330 640 L 1325 637 L 1327 636 L 1325 629 L 1325 633 L 1323 633 L 1325 622 L 1326 627 L 1327 619 L 1326 621 L 1325 618 L 1327 614 L 1328 617 L 1332 601 L 1331 593 L 1333 589 L 1334 592 L 1333 585 L 1335 581 L 1336 584 L 1337 578 L 1335 577 L 1337 573 L 1338 576 L 1337 568 L 1339 564 L 1340 568 L 1339 570 L 1339 560 L 1341 556 L 1342 560 L 1344 552 L 1343 544 L 1345 540 L 1346 543 L 1345 536 L 1347 532 L 1348 535 L 1347 528 L 1349 524 L 1350 527 L 1349 520 L 1351 517 L 1352 520 L 1351 522 L 1351 513 L 1353 509 L 1354 512 L 1356 505 L 1355 499 L 1357 496 L 1358 498 L 1361 492 L 1364 492 L 1362 492 Z M 1080 302 L 1088 309 L 1087 312 L 1088 313 L 1088 310 L 1090 312 L 1089 316 L 1091 320 L 1092 318 L 1094 321 L 1092 322 L 1097 333 L 1098 331 L 1100 334 L 1098 335 L 1101 342 L 1104 343 L 1103 347 L 1109 359 L 1112 360 L 1110 361 L 1113 368 L 1116 369 L 1115 372 L 1118 373 L 1117 376 L 1118 374 L 1120 377 L 1119 380 L 1120 378 L 1122 381 L 1120 382 L 1129 401 L 1132 402 L 1131 405 L 1134 406 L 1133 409 L 1136 410 L 1135 413 L 1138 414 L 1137 417 L 1141 425 L 1144 426 L 1143 429 L 1155 453 L 1156 451 L 1158 454 L 1156 455 L 1157 458 L 1158 456 L 1160 459 L 1160 468 L 1158 471 L 1157 469 L 1158 473 L 1155 474 L 1147 490 L 1148 493 L 1143 497 L 1144 500 L 1139 504 L 1136 510 L 1138 510 L 1137 513 L 1135 512 L 1133 515 L 1133 520 L 1131 519 L 1125 529 L 1126 533 L 1124 535 L 1123 533 L 1124 532 L 1122 535 L 1124 535 L 1123 538 L 1121 537 L 1117 544 L 1118 547 L 1116 547 L 1114 550 L 1116 551 L 1113 552 L 1114 555 L 1112 557 L 1111 555 L 1112 554 L 1110 557 L 1112 557 L 1111 560 L 1109 559 L 1104 568 L 1106 569 L 1103 570 L 1104 573 L 1102 575 L 1101 573 L 1102 572 L 1100 575 L 1102 575 L 1101 578 L 1099 577 L 1092 590 L 1094 591 L 1089 595 L 1089 600 L 1087 599 L 1079 613 L 1080 616 L 1078 619 L 1077 617 L 1077 622 L 1075 621 L 1070 629 L 1054 636 L 1057 636 L 1055 638 L 1051 637 L 1053 638 L 1050 640 L 1049 638 L 1046 639 L 1048 640 L 1045 642 L 1044 640 L 1041 641 L 1040 644 L 1036 643 L 1035 646 L 1031 645 L 1027 647 L 1026 650 L 1022 649 L 1012 654 L 1015 654 L 1013 656 L 1009 655 L 1008 658 L 1004 657 L 996 661 L 995 664 L 992 663 L 991 666 L 988 665 L 984 667 L 983 670 L 982 668 L 975 671 L 974 674 L 971 673 L 970 676 L 967 675 L 966 678 L 963 677 L 962 680 L 959 679 L 961 680 L 958 682 L 954 681 L 931 693 L 932 695 L 929 696 L 929 694 L 927 695 L 928 697 L 925 698 L 925 696 L 923 697 L 924 699 L 919 699 L 918 702 L 910 702 L 907 700 L 910 699 L 903 697 L 896 698 L 892 696 L 895 695 L 888 693 L 878 694 L 873 692 L 878 691 L 880 692 L 865 692 L 859 690 L 865 689 L 835 689 L 835 687 L 838 687 L 835 687 L 783 636 L 784 634 L 763 614 L 764 612 L 766 614 L 726 571 L 719 566 L 720 564 L 719 566 L 716 563 L 718 562 L 702 544 L 704 535 L 703 526 L 705 522 L 706 526 L 705 528 L 705 517 L 707 514 L 708 517 L 710 509 L 709 500 L 711 496 L 712 499 L 711 491 L 713 487 L 714 490 L 713 481 L 715 478 L 716 481 L 717 474 L 716 476 L 715 473 L 717 469 L 718 472 L 717 464 L 719 460 L 720 463 L 719 454 L 721 450 L 722 453 L 723 446 L 722 448 L 721 445 L 723 441 L 724 444 L 725 437 L 724 439 L 723 436 L 725 432 L 726 435 L 725 427 L 727 423 L 728 427 L 727 429 L 732 409 L 731 400 L 733 397 L 734 400 L 736 389 L 746 382 L 745 380 L 749 380 L 750 377 L 751 379 L 757 373 L 759 374 L 760 371 L 763 372 L 772 366 L 771 364 L 775 364 L 788 356 L 787 354 L 791 354 L 792 351 L 795 352 L 810 342 L 809 340 L 817 338 L 826 332 L 827 329 L 832 328 L 831 326 L 835 326 L 836 323 L 839 324 L 848 318 L 847 316 L 851 316 L 852 313 L 855 314 L 870 304 L 869 302 L 873 302 L 874 299 L 875 301 L 887 293 L 884 293 L 886 291 L 889 292 L 902 284 L 903 281 L 906 282 L 907 281 L 904 281 L 906 279 L 919 281 L 915 282 L 930 281 L 935 283 L 927 283 L 945 283 L 951 285 L 945 286 L 962 285 L 967 287 L 962 288 L 977 287 L 982 289 L 977 290 L 992 289 L 998 291 L 992 292 L 1008 291 L 1014 293 L 1008 294 L 1024 293 L 1030 295 L 1024 296 L 1040 295 L 1045 297 L 1040 298 L 1055 297 L 1060 299 L 1055 300 L 1071 299 L 1075 301 L 1071 302 Z"/>
</g>
<g fill="#f0dfc0" fill-rule="evenodd">
<path d="M 952 1825 L 1032 1829 L 995 1825 Z"/>
<path d="M 801 1815 L 810 1817 L 865 1819 L 870 1821 L 900 1821 L 903 1823 L 919 1823 L 924 1825 L 949 1825 L 945 1823 L 915 1823 L 883 1819 Z"/>
<path d="M 663 1812 L 692 1809 L 695 1807 L 713 1807 L 746 1811 L 765 1811 L 768 1813 L 777 1812 L 791 1815 L 797 1814 L 729 1807 L 710 1807 L 705 1805 Z"/>
<path d="M 1244 1795 L 1186 1811 L 1150 1817 L 1120 1825 L 1113 1825 L 1111 1827 L 1083 1830 L 1096 1832 L 1099 1829 L 1106 1829 L 1108 1827 L 1127 1826 L 1140 1822 L 1151 1823 L 1157 1821 L 1158 1817 L 1160 1820 L 1167 1819 L 1166 1816 L 1173 1816 L 1174 1813 L 1179 1814 L 1194 1809 L 1200 1810 Z"/>
<path d="M 1761 1767 L 1669 1779 L 1621 1781 L 1662 1781 L 1666 1779 L 1736 1773 L 1738 1771 L 1748 1771 Z"/>
<path d="M 1277 1750 L 1243 1746 L 1249 1770 L 1249 1787 L 1247 1793 L 1251 1785 L 1251 1772 L 1245 1749 Z"/>
<path d="M 1562 1739 L 1504 1751 L 1443 1757 L 1345 1757 L 1279 1751 L 1313 1756 L 1353 1757 L 1360 1759 L 1426 1759 L 1430 1757 L 1461 1757 L 1466 1755 L 1484 1755 L 1486 1753 L 1513 1751 L 1516 1749 L 1535 1747 L 1537 1745 L 1546 1745 L 1561 1741 Z"/>
<path d="M 1939 1677 L 1855 1695 L 1828 1703 L 1819 1709 L 1824 1705 L 1859 1695 L 1875 1693 L 1879 1690 L 1894 1689 L 1922 1681 L 1930 1681 Z"/>
<path d="M 87 1595 L 94 1669 L 98 1679 L 94 1661 Z"/>
<path d="M 1963 1566 L 1959 1579 L 1947 1666 L 1943 1674 L 1945 1674 L 1950 1657 Z"/>
<path d="M 1972 1486 L 1969 1520 L 1963 1551 L 1963 1564 L 1966 1558 L 1967 1530 L 1973 1499 Z"/>
<path d="M 1551 1287 L 1511 1265 L 1454 1239 L 1309 1259 L 1157 1335 L 1123 1420 L 1112 1433 L 1082 1433 L 1041 1429 L 1037 1427 L 1023 1427 L 1023 1440 L 1017 1467 L 1017 1478 L 1031 1478 L 1086 1486 L 1089 1490 L 1069 1548 L 1049 1621 L 1071 1666 L 1087 1707 L 1115 1768 L 1172 1756 L 1187 1751 L 1178 1676 L 1174 1616 L 1230 1422 L 1246 1402 L 1304 1344 L 1338 1316 L 1355 1310 L 1405 1300 L 1425 1302 L 1474 1322 L 1551 1400 L 1571 1463 L 1605 1558 L 1639 1716 L 1698 1710 L 1732 1703 L 1710 1603 L 1710 1596 L 1700 1557 L 1640 1408 Z M 1024 1437 L 1033 1430 L 1063 1432 L 1085 1437 L 1093 1445 L 1094 1455 L 1089 1473 L 1079 1479 L 1064 1479 L 1057 1476 L 1052 1479 L 1033 1477 L 1029 1473 L 1026 1473 L 1022 1464 L 1020 1464 L 1022 1461 Z"/>
<path d="M 1929 1216 L 1927 1219 L 1921 1307 L 1919 1313 L 1919 1337 L 1921 1347 L 1921 1299 L 1924 1294 L 1923 1279 L 1925 1277 L 1925 1255 L 1927 1251 Z"/>
<path d="M 112 1138 L 108 1144 L 108 1163 L 124 1287 L 124 1272 L 122 1268 L 118 1225 L 110 1173 L 110 1140 Z"/>
<path d="M 274 1039 L 173 1166 L 199 1354 L 232 1360 L 247 1365 L 262 1309 L 280 1220 L 358 1117 L 358 1111 L 299 1058 Z"/>
<path d="M 1875 933 L 1914 1084 L 1901 1029 L 1898 1025 L 1897 1013 L 1889 988 L 1881 949 Z"/>
<path d="M 1020 981 L 947 951 L 944 948 L 945 944 L 909 932 L 754 925 L 653 1007 L 457 1159 L 422 1190 L 357 1397 L 333 1423 L 253 1501 L 249 1511 L 239 1576 L 223 1641 L 223 1651 L 279 1726 L 295 1744 L 317 1752 L 381 1756 L 508 1772 L 603 1702 L 713 1692 L 842 1593 L 868 1505 L 810 1399 L 796 1377 L 782 1369 L 734 1351 L 694 1331 L 668 1309 L 660 1304 L 654 1303 L 647 1307 L 620 1334 L 561 1407 L 527 1441 L 522 1441 L 426 1409 L 421 1405 L 452 1264 L 522 1190 L 567 1178 L 594 1176 L 651 1216 L 728 1275 L 827 1318 L 837 1318 L 930 1292 L 990 1278 L 1081 1141 L 1080 1133 L 1028 997 Z M 713 1621 L 718 1622 L 723 1628 L 723 1649 L 720 1654 L 712 1650 L 711 1623 Z M 362 1468 L 425 1470 L 486 1488 L 512 1498 L 517 1503 L 553 1635 L 558 1660 L 485 1723 L 325 1705 L 318 1694 L 302 1652 L 288 1624 L 288 1611 L 302 1543 L 304 1526 Z M 704 1382 L 751 1409 L 769 1434 L 789 1470 L 789 1496 L 787 1500 L 781 1556 L 759 1579 L 709 1617 L 653 1623 L 612 1624 L 608 1621 L 594 1570 L 594 1564 L 574 1492 L 574 1483 L 616 1408 L 632 1390 L 664 1376 L 673 1376 L 694 1382 Z M 665 1073 L 686 1052 L 738 1014 L 781 998 L 900 1016 L 963 1048 L 987 1063 L 993 1107 L 995 1151 L 939 1203 L 919 1219 L 844 1233 L 790 1241 L 778 1241 L 762 1227 L 667 1157 Z"/>
<path d="M 1270 815 L 1155 861 L 1151 865 L 1091 979 L 1093 995 L 1123 1082 L 1131 1111 L 1137 1124 L 1277 1172 L 1323 1190 L 1343 1195 L 1474 1079 L 1480 1071 L 1484 1061 L 1484 1017 L 1478 950 L 1448 911 L 1402 863 L 1381 838 L 1370 833 L 1354 831 L 1285 815 Z M 1304 868 L 1315 868 L 1339 884 L 1411 945 L 1419 995 L 1429 1039 L 1423 1049 L 1323 1129 L 1304 1125 L 1212 1095 L 1206 1087 L 1169 1001 L 1206 919 L 1221 894 L 1271 876 Z"/>
<path d="M 285 721 L 282 724 L 282 733 L 279 738 L 280 744 L 276 755 L 276 766 L 274 768 L 270 797 L 266 809 L 265 827 L 262 832 L 262 841 L 260 843 L 254 882 L 252 884 L 252 893 L 249 897 L 250 903 L 246 915 L 246 924 L 242 936 L 238 964 L 242 951 Z"/>
<path d="M 1737 687 L 1757 807 L 1761 813 L 1768 818 L 1759 808 L 1758 794 L 1755 789 L 1755 779 L 1753 777 L 1753 768 L 1751 766 L 1749 746 L 1747 744 L 1747 734 L 1745 732 L 1744 716 L 1741 709 L 1739 689 Z"/>
<path d="M 1725 612 L 1725 623 L 1737 685 L 1735 664 L 1733 662 Z"/>
<path d="M 641 578 L 535 557 L 500 555 L 353 681 L 345 716 L 335 782 L 321 854 L 321 863 L 317 877 L 315 902 L 361 956 L 417 1016 L 554 1000 L 710 852 L 736 743 L 746 687 Z M 587 624 L 595 628 L 641 664 L 673 694 L 673 710 L 669 737 L 655 806 L 587 889 L 542 939 L 537 941 L 496 941 L 444 945 L 422 917 L 378 870 L 384 777 L 414 708 L 496 632 L 513 626 L 526 626 L 531 624 Z"/>
<path d="M 1361 493 L 1349 530 L 1329 612 L 1326 633 L 1348 663 L 1435 768 L 1473 776 L 1573 805 L 1612 772 L 1676 712 L 1664 645 L 1648 574 L 1526 473 L 1514 467 Z M 1401 540 L 1429 534 L 1460 532 L 1483 528 L 1513 528 L 1589 594 L 1607 612 L 1613 657 L 1616 703 L 1593 735 L 1577 753 L 1474 725 L 1422 661 L 1388 623 L 1388 610 L 1396 572 L 1398 545 Z"/>
<path d="M 1528 400 L 1489 402 L 1487 404 L 1474 404 L 1458 408 L 1447 408 L 1445 410 L 1396 416 L 1424 414 L 1456 408 L 1511 402 L 1514 400 Z"/>
<path d="M 674 373 L 672 375 L 668 401 L 665 402 L 666 409 L 662 429 L 660 430 L 660 437 L 657 442 L 658 445 L 652 466 L 652 477 L 650 479 L 646 501 L 642 504 L 639 501 L 630 502 L 629 500 L 618 500 L 616 498 L 593 494 L 595 496 L 642 504 L 644 506 L 646 504 Z"/>
<path d="M 1080 303 L 908 281 L 737 389 L 703 544 L 791 642 L 835 686 L 878 690 L 917 700 L 1004 656 L 1070 628 L 1146 492 L 1158 466 L 1154 451 L 1120 385 L 1090 318 Z M 1050 362 L 1061 376 L 1103 457 L 1103 462 L 1065 557 L 1051 583 L 1045 589 L 917 631 L 892 641 L 880 643 L 762 539 L 764 518 L 782 442 L 810 422 L 885 376 L 932 342 L 953 342 L 981 346 Z"/>
<path d="M 1001 221 L 1120 234 L 1100 230 L 1085 230 L 1082 228 L 1063 228 L 1059 226 Z"/>
</g>
<g fill="#dd7e20" fill-rule="evenodd">
<path d="M 1718 896 L 1710 899 L 1669 936 L 1648 952 L 1567 970 L 1540 978 L 1532 983 L 1536 1007 L 1541 1017 L 1547 1021 L 1595 1013 L 1641 1009 L 1662 1043 L 1706 1130 L 1734 1176 L 1736 1187 L 1732 1193 L 1700 1227 L 1635 1303 L 1663 1337 L 1670 1333 L 1697 1306 L 1770 1223 L 1801 1233 L 1854 1259 L 1863 1251 L 1870 1230 L 1869 1221 L 1862 1210 L 1788 1172 L 1779 1163 L 1757 1125 L 1723 1055 L 1689 992 L 1691 982 L 1745 926 L 1744 920 Z"/>
<path d="M 1269 649 L 1265 645 L 1257 642 L 1249 644 L 1169 684 L 1136 698 L 1053 742 L 1012 793 L 978 827 L 891 928 L 915 931 L 925 935 L 929 934 L 947 942 L 983 896 L 1089 779 L 1268 691 L 1277 678 L 1277 669 Z"/>
</g>
</svg>