<svg xmlns="http://www.w3.org/2000/svg" viewBox="0 0 1024 1024" fill="none">
<g fill="#1F2A44" fill-rule="evenodd">
<path d="M 64 356 L 64 407 L 90 421 L 107 670 L 173 679 L 127 707 L 66 781 L 70 798 L 307 796 L 310 776 L 106 776 L 148 719 L 182 711 L 225 650 L 252 687 L 239 740 L 285 712 L 334 764 L 353 760 L 280 677 L 449 678 L 414 706 L 396 756 L 332 813 L 335 831 L 816 832 L 830 822 L 825 803 L 991 792 L 976 728 L 919 638 L 896 623 L 932 555 L 929 509 L 955 451 L 911 431 L 880 480 L 840 499 L 815 431 L 777 396 L 831 366 L 834 352 L 790 323 L 762 323 L 718 360 L 656 379 L 622 426 L 618 265 L 508 395 L 82 390 L 85 376 L 506 377 L 621 232 L 626 193 L 203 191 Z M 431 780 L 445 762 L 473 735 L 477 734 L 495 749 L 528 769 L 540 780 L 540 782 L 537 784 L 433 784 Z M 546 643 L 559 652 L 569 656 L 574 661 L 574 663 L 556 688 L 538 727 L 528 738 L 520 742 L 505 732 L 506 722 L 540 645 L 542 643 Z M 574 699 L 586 682 L 602 669 L 636 618 L 654 598 L 678 584 L 710 577 L 742 554 L 755 550 L 771 551 L 787 558 L 813 578 L 855 631 L 892 645 L 904 654 L 924 701 L 955 736 L 968 776 L 924 777 L 898 761 L 877 755 L 836 706 L 814 696 L 800 696 L 792 692 L 772 640 L 759 624 L 745 627 L 694 672 L 664 672 L 660 687 L 687 695 L 706 705 L 717 717 L 729 748 L 761 769 L 793 805 L 792 808 L 719 809 L 707 790 L 690 774 L 647 752 L 616 719 L 604 711 L 575 703 Z M 122 524 L 483 523 L 485 526 L 480 606 L 478 611 L 468 620 L 462 629 L 454 650 L 260 652 L 254 641 L 247 634 L 235 629 L 220 629 L 210 634 L 196 652 L 131 653 L 128 642 Z M 927 455 L 931 458 L 931 460 L 905 510 L 905 513 L 910 522 L 914 534 L 914 540 L 911 549 L 903 566 L 873 616 L 870 617 L 847 584 L 838 573 L 829 565 L 829 560 L 859 510 L 867 503 L 873 501 L 890 501 L 902 485 L 920 455 Z M 491 415 L 485 502 L 122 503 L 120 500 L 115 437 L 117 435 L 473 435 L 478 415 L 484 412 Z M 826 521 L 813 545 L 809 545 L 789 533 L 763 527 L 747 529 L 734 534 L 720 543 L 714 543 L 695 530 L 655 494 L 641 488 L 629 488 L 618 493 L 607 503 L 598 515 L 586 538 L 581 543 L 561 544 L 551 548 L 547 547 L 562 504 L 574 486 L 589 471 L 600 463 L 631 447 L 648 426 L 658 409 L 678 390 L 692 383 L 717 379 L 738 384 L 752 398 L 759 414 L 763 453 L 767 465 L 771 463 L 774 457 L 779 427 L 783 426 L 789 431 L 798 446 L 811 488 L 823 511 Z M 803 355 L 801 359 L 756 378 L 754 378 L 746 370 L 748 362 L 762 348 L 770 344 L 783 344 Z M 496 215 L 497 218 L 473 247 L 453 275 L 403 339 L 398 342 L 378 343 L 377 339 L 396 317 L 471 218 L 475 214 Z M 413 215 L 415 217 L 414 221 L 401 236 L 351 304 L 323 339 L 317 342 L 298 342 L 298 337 L 314 320 L 335 294 L 393 215 Z M 575 216 L 576 219 L 559 242 L 480 341 L 457 343 L 456 339 L 474 320 L 496 293 L 527 250 L 551 220 L 558 213 L 566 213 Z M 256 214 L 257 219 L 238 241 L 197 296 L 164 337 L 156 342 L 138 342 L 137 339 L 202 261 L 230 224 L 237 213 Z M 339 213 L 340 216 L 314 246 L 240 341 L 234 343 L 219 342 L 218 338 L 243 309 L 313 217 L 318 212 Z"/>
</g>
<g fill="#F2E9DA" fill-rule="evenodd">
<path d="M 322 753 L 311 738 L 293 720 L 284 715 L 279 715 L 270 725 L 251 739 L 242 743 L 237 742 L 237 732 L 248 709 L 250 695 L 246 677 L 237 657 L 232 653 L 226 653 L 223 655 L 181 716 L 172 722 L 149 722 L 142 730 L 121 765 L 112 772 L 112 774 L 307 773 L 312 763 L 317 758 L 321 757 Z"/>
<path d="M 578 701 L 606 709 L 643 746 L 692 773 L 712 793 L 720 806 L 788 806 L 764 775 L 728 750 L 714 717 L 706 708 L 657 687 L 665 669 L 694 669 L 747 623 L 759 621 L 771 632 L 798 694 L 814 693 L 834 702 L 881 754 L 898 758 L 924 774 L 965 777 L 953 738 L 920 699 L 901 654 L 852 632 L 825 594 L 807 576 L 771 554 L 747 555 L 707 581 L 678 587 L 657 599 L 640 617 L 604 671 L 585 687 Z"/>
<path d="M 820 511 L 808 488 L 795 446 L 788 434 L 780 427 L 781 437 L 776 460 L 771 467 L 765 466 L 762 462 L 759 446 L 760 439 L 758 438 L 757 432 L 758 421 L 756 420 L 756 414 L 750 400 L 744 392 L 736 386 L 718 381 L 717 383 L 692 386 L 677 394 L 659 412 L 643 437 L 634 447 L 618 458 L 602 465 L 587 476 L 574 490 L 563 508 L 554 532 L 552 543 L 581 540 L 591 522 L 607 500 L 617 490 L 629 485 L 641 485 L 651 489 L 670 503 L 693 525 L 714 540 L 720 540 L 743 527 L 751 525 L 770 525 L 789 530 L 809 542 L 812 542 L 823 524 Z"/>
</g>
<g fill="#D9822B" fill-rule="evenodd">
<path d="M 432 780 L 433 783 L 539 782 L 539 780 L 528 770 L 495 750 L 477 735 L 473 736 L 448 760 Z"/>
<path d="M 546 644 L 541 645 L 507 722 L 506 732 L 520 741 L 528 737 L 537 727 L 555 688 L 573 663 L 573 661 L 569 657 L 566 657 Z"/>
</g>
<g fill="#8A8F98" fill-rule="evenodd">
<path d="M 123 524 L 131 652 L 196 651 L 201 642 L 210 633 L 220 628 L 235 628 L 247 633 L 255 641 L 260 651 L 454 649 L 461 629 L 467 620 L 477 611 L 479 606 L 484 536 L 483 524 Z"/>
<path d="M 927 456 L 921 455 L 903 485 L 890 502 L 873 502 L 867 504 L 860 510 L 830 560 L 830 565 L 839 573 L 848 584 L 870 616 L 872 616 L 898 573 L 910 549 L 913 540 L 913 534 L 909 522 L 904 513 L 904 510 L 930 460 L 930 458 Z"/>
<path d="M 490 415 L 486 413 L 479 415 L 476 431 L 473 436 L 117 436 L 116 449 L 122 502 L 485 501 Z"/>
<path d="M 496 216 L 475 215 L 397 317 L 380 336 L 378 342 L 391 342 L 402 339 L 452 275 L 472 247 L 494 221 Z"/>
<path d="M 413 216 L 394 215 L 349 277 L 320 314 L 299 337 L 298 341 L 308 342 L 322 339 L 350 304 L 400 236 L 413 221 Z"/>
<path d="M 575 217 L 566 214 L 558 214 L 552 220 L 528 250 L 497 293 L 475 320 L 457 339 L 457 342 L 480 340 L 558 242 L 575 219 Z"/>
<path d="M 256 215 L 236 215 L 231 224 L 210 252 L 155 320 L 142 334 L 138 341 L 156 341 L 163 337 L 196 296 L 237 241 L 256 219 Z"/>
<path d="M 339 214 L 318 213 L 314 217 L 244 309 L 219 338 L 219 341 L 234 342 L 240 340 L 313 246 L 339 216 Z"/>
</g>
</svg>