<svg xmlns="http://www.w3.org/2000/svg" viewBox="0 0 2048 2048" width="2048" height="2048">
<path d="M 1272 174 L 1192 172 L 1184 177 L 1182 197 L 1192 213 L 1192 254 L 1189 258 L 1143 230 L 787 230 L 707 286 L 508 434 L 484 460 L 366 708 L 368 720 L 378 727 L 450 729 L 450 1044 L 447 1048 L 407 1054 L 286 1080 L 177 1110 L 162 1126 L 162 1165 L 173 1177 L 197 1177 L 299 1147 L 435 1117 L 612 1093 L 630 1093 L 632 1098 L 470 1176 L 393 1218 L 297 1276 L 191 1350 L 168 1371 L 162 1382 L 163 1459 L 173 1467 L 189 1465 L 274 1393 L 364 1327 L 482 1251 L 578 1197 L 730 1119 L 799 1089 L 813 1086 L 833 1087 L 842 1091 L 845 1097 L 681 1214 L 547 1324 L 415 1446 L 304 1563 L 224 1659 L 166 1739 L 161 1757 L 161 1839 L 164 1852 L 174 1864 L 191 1871 L 209 1871 L 223 1865 L 237 1853 L 363 1672 L 435 1578 L 555 1440 L 672 1321 L 764 1239 L 838 1179 L 928 1113 L 971 1089 L 994 1091 L 1003 1095 L 1004 1099 L 932 1179 L 864 1263 L 770 1391 L 688 1517 L 602 1667 L 542 1786 L 518 1842 L 518 1862 L 524 1869 L 537 1873 L 634 1873 L 645 1869 L 658 1859 L 673 1833 L 723 1708 L 771 1600 L 825 1492 L 869 1412 L 945 1290 L 1017 1192 L 1087 1109 L 1102 1097 L 1118 1091 L 1132 1091 L 1140 1097 L 1138 1114 L 1098 1190 L 1062 1278 L 1016 1423 L 978 1571 L 954 1694 L 932 1835 L 932 1855 L 943 1871 L 1054 1873 L 1061 1870 L 1069 1858 L 1077 1718 L 1093 1575 L 1121 1413 L 1149 1297 L 1170 1329 L 1268 1458 L 1354 1590 L 1410 1686 L 1458 1783 L 1484 1843 L 1496 1862 L 1514 1873 L 1636 1873 L 1644 1869 L 1649 1861 L 1649 1852 L 1635 1824 L 1581 1731 L 1531 1653 L 1461 1553 L 1403 1477 L 1327 1385 L 1253 1303 L 1175 1223 L 1175 1203 L 1202 1145 L 1215 1149 L 1257 1181 L 1379 1283 L 1471 1367 L 1562 1457 L 1652 1554 L 1728 1646 L 1788 1726 L 1868 1843 L 1873 1844 L 1883 1832 L 1889 1813 L 1889 1659 L 1881 1644 L 1859 1617 L 1728 1480 L 1606 1370 L 1422 1220 L 1277 1116 L 1280 1109 L 1294 1103 L 1313 1103 L 1344 1109 L 1496 1173 L 1591 1225 L 1691 1287 L 1809 1371 L 1870 1422 L 1882 1423 L 1889 1416 L 1889 1340 L 1883 1327 L 1872 1316 L 1776 1250 L 1686 1196 L 1571 1136 L 1483 1099 L 1486 1095 L 1520 1091 L 1615 1091 L 1730 1113 L 1863 1147 L 1878 1145 L 1889 1133 L 1889 1099 L 1875 1082 L 1813 1064 L 1701 1038 L 1591 1020 L 1532 1016 L 1527 1011 L 1527 742 L 1532 735 L 1597 733 L 1605 722 L 1603 715 L 1435 441 L 1267 312 L 1266 218 L 1271 204 L 1277 198 L 1277 179 Z M 618 723 L 903 723 L 910 728 L 913 740 L 912 1031 L 906 1038 L 615 1039 L 615 726 Z M 853 308 L 859 303 L 1120 303 L 1143 313 L 1362 473 L 1382 491 L 1510 704 L 1510 713 L 1507 716 L 1174 716 L 1167 709 L 1115 600 L 1041 457 L 998 418 L 862 318 Z" fill="#00223b" fill-rule="evenodd"/>
<path d="M 1589 1231 L 1590 1233 L 1584 1236 L 1586 1243 L 1582 1245 L 1586 1246 L 1582 1263 L 1586 1258 L 1589 1259 L 1584 1266 L 1586 1272 L 1583 1279 L 1586 1282 L 1583 1289 L 1586 1290 L 1587 1287 L 1590 1293 L 1584 1294 L 1584 1302 L 1586 1303 L 1582 1308 L 1586 1303 L 1591 1307 L 1588 1308 L 1586 1317 L 1583 1320 L 1581 1318 L 1577 1320 L 1584 1322 L 1582 1327 L 1586 1329 L 1583 1331 L 1588 1337 L 1585 1338 L 1583 1344 L 1581 1335 L 1577 1340 L 1575 1330 L 1566 1326 L 1571 1329 L 1570 1334 L 1573 1336 L 1574 1333 L 1577 1336 L 1575 1338 L 1584 1346 L 1589 1341 L 1590 1344 L 1587 1348 L 1595 1355 L 1593 1352 L 1599 1349 L 1600 1352 L 1597 1356 L 1601 1356 L 1598 1358 L 1603 1361 L 1605 1358 L 1608 1362 L 1605 1364 L 1635 1390 L 1641 1391 L 1644 1394 L 1643 1396 L 1660 1412 L 1663 1410 L 1663 1414 L 1754 1499 L 1839 1586 L 1840 1590 L 1883 1640 L 1885 1602 L 1882 1429 L 1868 1426 L 1775 1351 L 1656 1270 L 1647 1276 L 1646 1272 L 1649 1271 L 1647 1269 L 1650 1267 L 1635 1259 L 1638 1263 L 1634 1265 L 1633 1261 L 1629 1259 L 1633 1257 L 1620 1248 L 1616 1247 L 1616 1250 L 1611 1250 L 1604 1245 L 1603 1248 L 1588 1246 L 1589 1239 L 1587 1239 L 1587 1236 L 1592 1237 L 1593 1243 L 1593 1234 L 1596 1240 L 1602 1239 L 1601 1245 L 1604 1241 L 1611 1243 Z" fill="#f9ead1" fill-rule="evenodd"/>
<path d="M 1204 1151 L 1196 1166 L 1200 1168 L 1198 1170 L 1200 1175 L 1198 1177 L 1196 1174 L 1200 1179 L 1200 1183 L 1198 1185 L 1192 1183 L 1191 1185 L 1189 1182 L 1189 1186 L 1182 1198 L 1179 1215 L 1181 1223 L 1183 1220 L 1185 1222 L 1183 1226 L 1235 1279 L 1242 1280 L 1241 1283 L 1239 1282 L 1269 1314 L 1272 1314 L 1271 1316 L 1299 1346 L 1302 1343 L 1304 1345 L 1301 1349 L 1321 1372 L 1328 1376 L 1328 1380 L 1336 1390 L 1342 1392 L 1340 1394 L 1355 1409 L 1373 1433 L 1376 1432 L 1376 1437 L 1399 1466 L 1408 1473 L 1410 1480 L 1437 1512 L 1517 1623 L 1581 1722 L 1645 1833 L 1654 1858 L 1649 1870 L 1644 1871 L 1648 1866 L 1642 1872 L 1820 1871 L 1844 1867 L 1857 1859 L 1867 1848 L 1789 1735 L 1693 1609 L 1612 1516 L 1519 1420 L 1396 1304 L 1272 1199 L 1266 1199 L 1256 1186 L 1252 1184 L 1253 1187 L 1251 1188 L 1248 1180 L 1215 1155 Z" fill="#f9ead1" fill-rule="evenodd"/>
<path d="M 1132 1096 L 1111 1099 L 1096 1107 L 1098 1109 L 1094 1109 L 1087 1117 L 1090 1119 L 1085 1119 L 1083 1123 L 1089 1124 L 1096 1133 L 1092 1134 L 1087 1128 L 1083 1132 L 1082 1128 L 1078 1135 L 1087 1131 L 1087 1136 L 1083 1136 L 1079 1140 L 1073 1134 L 1071 1137 L 1076 1145 L 1074 1147 L 1083 1147 L 1088 1150 L 1084 1156 L 1080 1150 L 1080 1154 L 1074 1156 L 1078 1161 L 1073 1164 L 1071 1154 L 1075 1150 L 1071 1151 L 1068 1148 L 1067 1153 L 1059 1151 L 1056 1155 L 1057 1159 L 1055 1161 L 1052 1159 L 1056 1162 L 1050 1164 L 1052 1167 L 1044 1168 L 1035 1178 L 1036 1183 L 1033 1185 L 1031 1183 L 1002 1219 L 999 1226 L 987 1240 L 989 1246 L 986 1249 L 985 1247 L 979 1250 L 975 1257 L 977 1259 L 976 1263 L 974 1264 L 973 1260 L 945 1299 L 944 1307 L 941 1305 L 906 1359 L 860 1437 L 792 1567 L 730 1703 L 671 1850 L 656 1867 L 935 1870 L 929 1861 L 927 1852 L 929 1819 L 949 1695 L 967 1606 L 966 1600 L 969 1597 L 982 1531 L 1028 1365 L 1045 1318 L 1046 1308 L 1057 1282 L 1054 1274 L 1058 1273 L 1058 1277 L 1055 1270 L 1058 1269 L 1060 1272 L 1061 1270 L 1059 1266 L 1062 1266 L 1072 1240 L 1070 1231 L 1073 1229 L 1073 1233 L 1075 1233 L 1087 1204 L 1086 1202 L 1089 1200 L 1090 1194 L 1086 1191 L 1087 1187 L 1090 1187 L 1092 1193 L 1094 1186 L 1090 1184 L 1094 1182 L 1096 1185 L 1102 1169 L 1122 1131 L 1118 1131 L 1118 1127 L 1121 1125 L 1117 1123 L 1119 1115 L 1115 1113 L 1121 1108 L 1117 1110 L 1115 1106 L 1106 1110 L 1100 1110 L 1099 1108 L 1101 1106 L 1105 1107 L 1105 1104 L 1109 1105 L 1107 1103 L 1112 1099 L 1115 1103 L 1118 1097 L 1128 1097 L 1132 1112 L 1130 1115 L 1128 1113 L 1126 1115 L 1128 1119 L 1126 1124 L 1133 1114 L 1135 1101 Z" fill="#f9ead1" fill-rule="evenodd"/>
<path d="M 988 1095 L 972 1094 L 964 1097 L 941 1111 L 945 1113 L 942 1122 L 938 1121 L 941 1117 L 932 1117 L 935 1118 L 932 1122 L 929 1119 L 909 1133 L 909 1136 L 906 1135 L 895 1143 L 897 1148 L 894 1150 L 896 1153 L 895 1162 L 893 1161 L 893 1154 L 886 1154 L 885 1151 L 883 1157 L 881 1153 L 879 1155 L 881 1156 L 880 1166 L 889 1165 L 890 1167 L 883 1169 L 882 1172 L 878 1170 L 878 1175 L 882 1177 L 876 1178 L 878 1184 L 874 1182 L 873 1185 L 870 1184 L 869 1186 L 867 1184 L 870 1180 L 869 1172 L 867 1175 L 863 1172 L 859 1180 L 851 1184 L 847 1183 L 849 1185 L 847 1188 L 842 1183 L 803 1213 L 804 1216 L 801 1215 L 699 1302 L 596 1403 L 493 1516 L 420 1604 L 368 1673 L 367 1678 L 362 1681 L 312 1753 L 314 1756 L 311 1755 L 235 1862 L 224 1869 L 516 1868 L 518 1865 L 523 1870 L 517 1863 L 518 1865 L 515 1865 L 512 1856 L 513 1843 L 521 1821 L 591 1678 L 643 1584 L 681 1522 L 680 1520 L 746 1418 L 820 1314 L 816 1317 L 815 1313 L 823 1311 L 832 1298 L 830 1296 L 838 1291 L 844 1280 L 851 1274 L 854 1269 L 851 1267 L 856 1266 L 863 1258 L 863 1250 L 874 1244 L 879 1237 L 877 1234 L 884 1231 L 912 1196 L 909 1192 L 912 1189 L 916 1191 L 920 1185 L 916 1189 L 913 1182 L 914 1187 L 911 1188 L 903 1182 L 903 1178 L 907 1179 L 909 1172 L 913 1171 L 910 1180 L 915 1179 L 922 1184 L 927 1179 L 926 1168 L 932 1163 L 936 1167 L 961 1138 L 955 1136 L 964 1135 L 967 1132 L 963 1129 L 965 1133 L 961 1133 L 958 1128 L 959 1120 L 969 1117 L 971 1120 L 969 1123 L 972 1126 L 984 1113 L 983 1110 L 988 1108 L 985 1107 L 985 1102 L 989 1098 L 982 1105 L 979 1100 L 976 1109 L 974 1107 L 975 1102 L 968 1105 L 963 1103 L 960 1106 L 954 1105 L 958 1101 L 964 1101 L 965 1097 Z" fill="#f9ead1" fill-rule="evenodd"/>
<path d="M 856 307 L 860 314 L 1016 430 L 1044 458 L 1058 482 L 1173 713 L 1506 714 L 1508 712 L 1506 700 L 1383 495 L 1352 468 L 1144 316 L 1118 305 L 860 305 Z" fill="#f9ead1" fill-rule="evenodd"/>
<path d="M 1202 1146 L 1176 1203 L 1176 1223 L 1290 1342 L 1388 1457 L 1478 1575 L 1558 1694 L 1489 1590 L 1398 1469 L 1285 1336 L 1176 1223 L 1176 1204 L 1202 1146 L 1216 1151 L 1250 1177 L 1384 1289 L 1486 1383 L 1580 1477 L 1647 1550 L 1710 1625 L 1785 1724 L 1868 1845 L 1872 1846 L 1884 1832 L 1890 1813 L 1890 1659 L 1881 1642 L 1833 1586 L 1715 1466 L 1604 1367 L 1457 1246 L 1359 1172 L 1282 1120 L 1278 1112 L 1284 1108 L 1278 1112 L 1280 1119 L 1360 1173 L 1422 1219 L 1532 1307 L 1636 1395 L 1690 1443 L 1772 1523 L 1828 1581 L 1879 1640 L 1890 1659 L 1890 1813 L 1884 1832 L 1871 1846 L 1787 1726 L 1727 1646 L 1651 1554 L 1591 1488 L 1471 1368 L 1379 1284 L 1257 1182 L 1215 1150 Z" fill="#a4a7a9" fill-rule="evenodd"/>
<path d="M 958 1096 L 928 1114 L 872 1154 L 764 1240 L 672 1322 L 588 1406 L 502 1500 L 420 1598 L 344 1700 L 242 1848 L 229 1862 L 209 1872 L 191 1872 L 174 1865 L 164 1853 L 175 1866 L 191 1872 L 209 1872 L 231 1861 L 243 1847 L 350 1692 L 407 1615 L 457 1553 L 563 1433 L 663 1331 L 748 1254 L 862 1162 L 926 1116 Z" fill="#a4a7a9" fill-rule="evenodd"/>
<path d="M 1149 1298 L 1138 1339 L 1116 1446 L 1126 1456 L 1166 1518 L 1216 1609 L 1282 1756 L 1290 1781 L 1322 1858 L 1335 1867 L 1349 1871 L 1513 1873 L 1497 1864 L 1487 1850 L 1457 1783 L 1409 1686 L 1319 1536 L 1267 1458 L 1225 1400 L 1169 1329 L 1153 1301 Z" fill="#e2852c" fill-rule="evenodd"/>
<path d="M 618 724 L 616 726 L 616 1039 L 902 1039 L 906 1037 L 911 1031 L 912 740 L 909 728 L 903 724 Z" fill="#e2852c" fill-rule="evenodd"/>
</svg>