<svg xmlns="http://www.w3.org/2000/svg" width="1024" height="1024"><path fill="none" d="M0 0h1024v1024H0zm564 151-2.154.34C485.48 163.423 412.76 189.116 343 222l-3.14 1.476c-30.984 14.608-60.955 30.81-89.423 49.893-2.179 1.458-4.367 2.9-6.562 4.334-14.82 9.708-29.073 20.194-42.875 31.297l-1.993 1.595c-8.22 6.58-16.255 13.275-24.007 20.405l-5 4.438c-7.84 7.065-15.17 14.52-22 22.562-.81.92-1.62 1.84-2.453 2.79C134.184 373.8 124.495 387.972 116 403l-1.21 2.098c-13.917 24.292-24.863 54.075-24.93 82.355l-.01 2.138q-.01 3.51-.011 7.02l-.015 5.064q-.019 6.855-.024 13.712l-.012 8.59q-.02 13.47-.027 26.94-.007 15.488-.05 30.976a9439 9439 0 0 0-.034 24.021q0 7.155-.025 14.309-.023 6.743-.01 13.487.002 2.454-.013 4.908c-.084 14.678 1.917 28.638 6.058 42.757l.773 2.65c6.221 20.622 16.076 40.43 28.54 57.975a1853 1853 0 0 1 2.332 3.418 162 162 0 0 0 16.152 19.914 149 149 0 0 1 5.953 6.73c40.819 46.678 110.967 72.19 171.309 76.794 58.742 3.75 108.435-11.943 161.01-36.824l2.182-1.032 2.182-1.033c53.341-25.22 107.14-40.807 165.415-49.397C683.26 755.891 714.47 750.022 745 740l3.103-1.001C802.39 721.265 857.515 686.156 892 640l1.277-1.668c21.184-27.665 39.88-62.496 39.87-98.156l.011-2.296q.015-3.784.019-7.567l.02-5.448c.02-5.955.031-11.91.041-17.865l.013-6.179q.029-14.534.041-29.068.015-16.695.077-33.391.044-12.953.048-25.904c.002-5.142.011-10.282.036-15.423.194-41.223.194-41.223-4.453-60.035l-.9-3.887a179 179 0 0 0-2.35-8.738l-.897-3.115C920.111 305.187 914.082 289.692 906 275l-1.034-1.88C899.185 262.763 892.374 253.277 885 244l-1.449-1.824c-46.983-58.451-126.029-86.508-198.313-94.551-40.802-4.219-80.747-3.048-121.238 3.375" id="svg-layer-0" style="pointer-events: all; fill: none;"/><path fill="#03253C" d="m799 179 2.627 1.222C818.42 188.108 834.324 197.624 849 209l2.543 1.96C863.859 220.749 875.47 231.457 885 244l2.375 2.934c18.374 22.822 30.313 49.435 38.375 77.441l.817 2.781c.902 3.264 1.67 6.544 2.433 9.844l.499 2.034c4.732 19.93 4.092 40.194 4.038 60.536-.01 5.139 0 10.277.006 15.416q.01 12.931-.022 25.863a6727 6727 0 0 0 .008 29.721q.026 12.86.01 25.717a3975 3975 0 0 0 .006 15.273c.11 48.545.11 48.545-8.295 69.815l-1.04 2.736c-3.203 8.249-6.976 16.126-11.21 23.889l-.968 1.81C896.994 637.824 874.155 663.637 849 683l-3.719 2.941C829.495 698.334 812.858 709.793 795 719l-2.668 1.381C776.039 728.723 759.391 735.318 742 741l-2.976.979c-29.418 9.52-59.906 14.468-90.386 19.159C619.7 765.592 591.1 770.608 563 779l-2.623.778c-27.131 8.199-53.018 20.184-78.55 32.352-44.583 21.232-88.18 37.366-138.077 37.245l-2.6-.002C297.591 849.248 252.917 838.874 214 819l-2.507-1.28c-18.723-9.693-35.565-21.346-51.13-35.58-2.063-1.869-4.168-3.663-6.3-5.452C119.804 746.704 95.59 698.83 90 654q-.134-3.662-.14-7.326l-.01-2.133q-.01-3.512-.011-7.023l-.015-5.058q-.019-6.856-.024-13.713l-.012-8.59q-.02-13.471-.027-26.942-.007-15.487-.05-30.975-.033-12.01-.034-24.02 0-7.154-.025-14.307-.023-6.745-.01-13.491.002-2.454-.013-4.907c-.086-14.952 1.755-29.458 6.058-43.827l.775-2.625c10.778-35.62 29.628-67.274 55.054-94.395a203 203 0 0 0 5.984-6.73c6.877-7.917 14.492-15.18 22.5-21.938l2.89-2.484c7.86-6.737 15.901-13.21 24.11-19.516l1.854-1.425C226.927 288.741 245.662 275.996 265 264l2.056-1.275A576 576 0 0 1 280 255l2.34-1.367C310.35 237.334 339.29 222.923 369 210l2.138-.931C449.604 174.977 533.995 148.697 799 179m-178.842.026C564.53 179.676 507.364 195.366 455 213l-2.1.703c-31.314 10.494-62.057 22.605-91.861 36.85a1120 1120 0 0 1-9.379 4.4c-13.407 6.277-26.329 13.164-39.131 20.59a524 524 0 0 1-8.848 4.953C275.411 296.107 248.13 314.731 223 335l-2.926 2.336c-5.694 4.59-11.152 9.385-16.531 14.34a233 233 0 0 1-6.418 5.637c-3.71 3.228-7.203 6.657-10.687 10.125-.53.525-1.061 1.05-1.607 1.593-4.142 4.157-8.015 8.513-11.831 12.969l-1.704 1.987C163.15 393.556 155.548 403.263 149 414l-1.265 2.064c-19.899 32.936-30.162 74.985-21.571 113.074.57 2.3 1.189 4.581 1.836 6.862l.65 2.324c3.217 11.183 7.72 21.508 13.35 31.676l1.075 1.941c7.33 13.059 16.16 24.442 26.394 35.34a197 197 0 0 1 6.219 7.032c3.466 3.969 7.246 7.342 11.312 10.687l1.546 1.28C224.732 656.147 264.46 674.242 311 681l2.052.315c32.782 4.39 65.509-1.317 96.948-10.315l2.186-.611c13.44-3.822 26.163-9.987 38.94-15.57q14.894-6.51 29.823-12.936 3.176-1.369 6.35-2.74c50.903-21.955 102.606-33.793 157.021-43.795l3.601-.663a4067 4067 0 0 1 17.131-3.11c19.546-3.53 39.276-7.229 58.135-13.575l3.141-1.036c30.96-10.336 59.459-25.58 85.672-44.964l1.768-1.304C833.018 516.408 850.824 500.422 865 481l2.36-3.203c24.986-34.98 37.273-78.087 31.137-120.886C892.032 319.051 877.21 284.363 851 256l-2.41-2.621C835.717 239.962 819.92 229.43 804 220l-1.92-1.152c-55.45-33.056-118.742-40.408-181.922-39.822" id="svg-layer-1" style="pointer-events: all;"/><path fill="#DD791E" d="m539.5 249.688 3.344-.114c4.024.543 5.565 1.279 8.156 4.426 1.13 5.782-.317 12.099-1.068 17.867-3.135 24.556-5.358 52.195 2.068 76.133l.633 2.097C557.196 364.701 564.687 378.663 575 390l2.64 2.922c24.836 26.577 65.719 39.63 101.355 41.3 4.003.116 8 .165 12.005.153l2.15-.002c13.242-.046 25.929-1.353 38.85-4.373l2.714-.633c26.613-6.454 50.18-18.905 72.215-34.886 3.413-2.44 6.892-4.78 10.384-7.106l1.867-1.254c5.346-3.553 8.303-5.417 14.82-5.121 1.202 31.374-13.127 55.295-33.863 77.805-3.207 3.294-6.61 6.252-10.137 9.195l-2.324 2.09c-21.41 18.785-47.72 34.648-74.676 43.91l-2.518.868c-26.821 8.992-55.31 13.511-83.087 18.528C580.369 541.905 533.763 553.145 489 570l-3.414 1.267c-15.165 5.648-29.919 12.05-44.649 18.733-65.054 29.49-65.054 29.49-98.687 29.313l-3.436-.018c-9.235-.132-17.868-1.036-26.814-3.295l-2.478-.618C282.935 608.593 258.74 596.846 237 580l-2.797-2.125c-23.55-18.514-40.835-42.524-44.64-72.75-2.96-29.248 10.155-55.612 27.923-77.998 2.935-3.577 5.969-7.06 9.058-10.504a575 575 0 0 0 4.132-4.67C241.14 400.233 252.727 389.79 265 380q1.803-1.487 3.602-2.98c50.674-41.942 110.366-71.942 170.961-96.615 3.192-1.305 6.376-2.63 9.558-3.96 63.153-26.153 63.153-26.153 90.379-26.757" id="svg-layer-2" style="pointer-events: all;"/><path fill="#F8E7C9" d="M844.276 249.43a606 606 0 0 1 3.216 3.104 383 383 0 0 0 4.137 3.946C865.366 270.343 878.177 289.71 885 308c.24.63.48 1.259.729 1.907C893.413 330.311 899.077 352.176 900 374l.112 2.3c1.867 43.385-17.803 86.998-46.531 118.68A530 530 0 0 1 846 503l-1.427 1.493C838.123 511.215 831.37 517.31 824 523l-2.13 1.657C792.922 547.09 761.05 565.925 726 577l-2.679.862c-26.316 8.384-53.52 13.035-80.634 18.013C586.179 606.257 533.848 619.068 481 642l-3.898 1.69-7.524 3.266a7687 7687 0 0 1-12.948 5.605q-4.778 2.064-9.546 4.156C430.03 664.2 413.182 670.692 395 675l-3.063.733c-17.576 4.146-34.63 6.688-52.687 6.642l-2.433-.002c-30.719-.095-60.543-6.37-88.817-18.373l-2.268-.96C221.557 652.62 200.058 637.05 181 619a624 624 0 0 0-4.25-3.625c-3.989-3.48-7.358-7.321-10.75-11.375l-2.309-2.648C157.086 593.664 151.387 585.58 146 577l-2.125-3.363c-19.236-31.972-25.258-70.81-16.517-107.093L128 464l.65-2.583c7.234-27.831 21.087-50.941 39.307-72.944a123 123 0 0 0 3.992-5.102C174 381 174 381 176.233 379.731c3.507-2.193 6.188-4.865 9.091-7.79l1.78-1.774a1328 1328 0 0 0 3.699-3.71c1.882-1.892 3.774-3.773 5.668-5.654q1.803-1.804 3.603-3.612l1.711-1.698c2.643-2.675 4.703-5.045 6.215-8.493 2.11-1.973 2.11-1.973 4.75-4.062l3.012-2.395 1.607-1.26a565 565 0 0 0 4.838-3.857C290.374 280.876 369.807 242.249 452 214l2.072-.716c79.97-27.633 168.354-44.337 390.204 36.146M517 223l-3.065.617c-88.59 18.021-179.295 66.198-270.122 134.879a393 393 0 0 1-5.004 4.07c-8.543 6.968-16.316 14.728-24.121 22.497-.56.554-1.12 1.11-1.698 1.68-7.131 7.08-13.805 14.316-19.99 22.257l-1.58 2.006c-23.175 29.814-36.051 64.751-31.67 102.682C164.162 542.46 177.126 565.943 197 587l1.852 2.012c6.102 6.401 13.103 11.68 20.148 16.988l1.744 1.322c8.972 6.757 18.34 12.421 28.256 17.678l1.96 1.055C269.75 636.108 289.134 641.852 310 646l2.235.45c20.512 3.906 43.409 2.936 63.765-1.45l2.752-.586c26.983-5.911 51.913-16.23 77.093-27.285 35.408-15.53 71.284-30.796 109.027-39.63 2.241-.525 4.48-1.057 6.719-1.588 18.94-4.472 37.965-8.482 57.073-12.157l2.197-.423c7.24-1.394 14.482-2.778 21.73-4.13 14.669-2.74 29.224-5.737 43.702-9.361l1.998-.498c44.564-11.172 84.966-33.034 118.147-64.848a372 372 0 0 1 3.084-2.918C833 468.967 843.641 454.433 852 438l1.484-2.883c8.562-17.704 11.691-36.606 11.703-56.117l.038-3.078c.017-8.943.003-17.776-6.518-24.52-7.111-5.842-16.926-6.158-25.707-5.402-13.574 2.425-24.468 10.608-35.316 18.635-38.72 28.645-81.574 44.819-130.185 38.64-26.887-4.271-55.444-16.49-71.999-38.775-18.53-27.604-18.264-54.991-14.937-86.812 3.516-34.212 3.516-34.212-7.125-47.563-5.977-6.261-14.46-10.593-23.118-11.363-11.419-.266-22.186 1.918-33.32 4.238m118 39-1.902 1.793c-4.113 4.225-6.763 8.99-9.41 14.207l-1.024 2.014c-3.736 7.693-5.037 14.772-4.976 23.298.005.837.01 1.674.017 2.536.314 16.054 7.296 29.6 18.295 41.152 17.871 16.668 41.85 23.832 65.96 23.285 21.701-1.267 44.107-8.914 59.04-25.285 12.442-15.333 16.372-30.682 15-50-2.884-16.837-13.834-30.86-27.145-41.055C713.818 230.076 665.705 231.918 635 262" id="svg-layer-3" style="pointer-events: all;"/><path fill="#03243C" d="M568.313 225.75c6.804 5.566 11.56 12.702 13.687 21.25.872 12.501-.7 25.02-2 37.438q-.434 4.192-.856 8.387a917 917 0 0 1-.534 5.162c-2.576 25.362 3.758 49.264 19.452 69.45A282 282 0 0 0 602 372l1.566 1.852C616.753 388.327 638.442 396.316 657 401l1.946.496c41.304 9.939 83.202-1.867 118.616-23.246 7.978-4.89 15.61-10.134 23.138-15.684 14.253-10.469 27.416-18.592 45.78-16.25 6.102 1.135 10.233 3.524 14.77 7.809 4.41 7.245 4.077 16.322 4 24.563l-.02 3.195c-.504 38.193-17.148 70.193-43.23 97.117l-1.469 1.53c-6.77 7.037-13.775 13.512-21.531 19.47l-1.634 1.26c-32.033 24.535-67.546 40.814-106.8 49.986l-1.944.455c-14.91 3.47-29.917 6.403-44.947 9.296-7.792 1.501-15.58 3.03-23.366 4.562l-2.31.454C599.58 569.642 581.252 573.598 563 578l-3.522.826c-36.515 8.64-71.587 24.122-105.798 39.291C426.904 629.967 399.918 640.65 371 646l-3.617.734C326.33 653.75 283.205 643.38 247 624l-1.827-.972C227.75 613.67 212.466 601.423 198 588l-2.016-1.816C176.774 568.106 164.145 541.834 160 516l-.395-2.45c-4.426-34.764 6.77-68.704 27.395-96.55l1.316-1.783c9.42-12.627 20.225-23.835 31.299-35.006q2.105-2.126 4.205-4.258c6.082-6.09 12.446-11.6 19.18-16.953a920 920 0 0 0 3.941-3.266C277.648 330.344 311.915 308.781 347 290l2.86-1.54c40.447-21.678 178.968-90.028 218.453-62.71m-134.627 57.08c-3.972 1.73-7.974 3.386-11.974 5.052-62.121 25.953-123.48 59.922-172.798 106.391-2.614 2.446-5.28 4.81-7.976 7.164-26.127 23.506-49.845 56.192-51.879 92.224-.66 26.149 10.876 50.218 28.351 69.058 12.066 12.655 25.66 22.617 40.814 31.252 1.693.98 3.356 2.012 5.018 3.045 16.143 9.832 34.37 15.926 52.758 19.984l3.152.742c17.028 3.337 36.043 2.46 52.848-1.742l2.758-.668c20.713-5.11 39.665-13.28 58.972-22.185l2.253-1.039 4.54-2.095C454.811 583.43 469.268 577.528 484 572l3.633-1.385c48.408-18.448 98.6-29.48 149.39-39.088C712.257 517.29 712.257 517.29 740 502l2.277-1.25c18.261-10.116 35.05-21.624 50.477-35.727a110 110 0 0 1 5.433-4.586c3.679-3.187 6.727-6.68 9.813-10.437l2.352-2.844C826.294 427.428 834.619 406.482 834 381c-5.235-.468-8.441.946-12.75 3.688l-1.95 1.2c-5.229 3.286-10.203 6.892-15.175 10.55-32.715 24.04-71.12 37.778-111.875 37.812l-2.23.002c-11.907-.017-23.361-.722-35.02-3.252l-2.427-.504c-33.854-7.178-67.677-22.702-87.103-52.555-12.842-20.789-17.882-43.207-17.783-67.441l.001-2.436c.018-13.27.945-26.196 2.656-39.36 1.35-11.202 1.35-11.202.656-14.704-2.363-2.745-3.956-3.744-7.453-4.602-36.185-.303-77.142 18.985-109.861 33.432" id="svg-layer-4" style="pointer-events: all;"/><path fill="#03243B" d="M749 254c13.047 10.298 24.188 24.175 27 41 1.705 18.071-1.892 33.183-13.102 47.727C748.67 359.369 727.464 367.989 706 370c-25.167 1.388-49.063-5.07-68.469-21.633-11.195-10.47-19.065-24.466-19.867-39.945-.35-18.14 4.472-32.854 17.107-46.214C664.687 231.604 714.483 230.23 749 254m-92 33c-4.674 6.124-6.345 12.325-6 20 1.087 7.62 5.377 12.957 11 18 2.868 2.027 5.8 3.562 9 5l2.441 1.117c14.34 6.149 29.692 6.784 44.559 1.883 11.087-4.61 18.938-9.794 24-21 2.245-7.553.635-14.151-3-21-7.086-10.36-17.617-16.304-29.845-18.69-19.04-2.732-38.595.037-52.155 14.69" id="svg-layer-5" style="pointer-events: all;"/><path fill="#CACDC7" d="M729.594 281.094c7.158 5.67 11.462 11.88 13.406 20.906.685 7.788-2.079 14.058-7 20-11.238 10.659-25.937 14.41-41.07 14.281-14.76-1.056-28.807-6.187-38.93-17.281-3.925-5.39-5.247-11.382-5-18 1.45-8.408 6.218-15.008 12.813-20.25 18.786-13.144 47.127-12.604 65.78.344" id="svg-layer-6" style="pointer-events: all;"/><path fill="#F3EAD9" d="m205 350 2 1-30 30-2-1c21.687-23.437 21.687-23.437 30-30" id="svg-layer-7" style="pointer-events: all;"/></svg>