<svg xmlns="http://www.w3.org/2000/svg" width="1024" height="1024"><path fill="none" d="M0 0h1024v1024H0zm438.54 86.777c-2.613 3.773-4.108 7.89-5.54 12.223l-1 3c-.112 2.817-.168 5.61-.177 8.428l-.02 2.608q-.028 4.278-.041 8.558l-.013 2.959q-.03 7.76-.044 15.521c-.011 5.325-.046 10.65-.085 15.974-.027 4.11-.035 8.22-.038 12.329a838 838 0 0 1-.035 5.884c-.121 13.565.481 24.252 9.086 35.376C442 211 442 211 444 211v2c10 7.405 18.847 8.303 31 8q-.172 4.345-.375 8.688c-.03.816-.062 1.633-.094 2.474-.212 4.362-.592 7.85-2.531 11.838l-1 3c-1.64.969-1.64.969-4 2l-3.047 1.594c-8.2 4.243-16.522 7.934-25.078 11.406-31.17 12.765-52.64 32.736-68.875 62l-1.871-2.71c-5.263-7.548-10.664-14.707-17.129-21.29l-1.848-1.887c-18.153-17.15-44.244-23.685-68.558-23.324-21.464.718-41.127 11.208-57.594 24.211l-1.96 1.453c-13.03 10.154-19.794 26.016-27.255 40.284-2.906 5.537-5.969 10.974-9.097 16.388l-2.926 5.07-1.405 2.435c-2.158 3.769-4.258 7.568-6.357 11.37a1321 1321 0 0 1-10.687 18.938c-4.653 8.107-9.22 16.26-13.75 24.437a3951 3951 0 0 1-18.975 33.823q-4.016 7.086-8.025 14.177l-1.62 2.863q-4.213 7.448-8.38 14.922c-5.866 10.524-11.788 21.005-17.876 31.402l-1.769 3.031a1546 1546 0 0 1-7.621 12.938c-8.995 15.25-13.705 30.848-13.61 48.657l.018 3.337C72.089 610.437 82.94 633.62 101 652c18.57 17.491 40.985 25.812 66.238 25.219 26.52-1.542 49.997-12.31 68.418-31.547 9.188-10.474 15.645-22.93 22.512-34.973a1174 1174 0 0 1 10.394-17.824 3620 3620 0 0 0 14.918-25.41q4.896-8.41 9.832-16.797c10.74-18.243 21.09-36.633 31.042-55.318 4.11-7.712 8.317-15.355 12.709-22.913 5.451-9.383 10.455-18.983 15.394-28.642l1.707-3.334 1.514-2.975C357 435 357 435 359 432l1 184h-14c-37.418 3.688-77.179 19.853-101.625 49.438A5258 5258 0 0 0 240 671l-1.988 2.324c-27.444 32.394-36.498 77.235-33.826 118.552 3.109 32.956 22.44 66.476 44.814 90.124l2.3 2.496c24.385 25.582 61.8 40.676 96.7 42.504l2.328.133c39.478 1.938 78.725-12.745 108.11-38.883 8.634-7.943 8.634-7.943 11.25-11.625 2.774-1.95 3.3-1.7 6.541-1.236 6.804.802 13.577.76 20.419.758l4.41.011q6.024.014 12.05.017 6.512.007 13.023.022c10.47.02 20.94.03 31.41.039l14.814.015a83014 83014 0 0 0 62.047.044l3.206.002c17.134.008 34.269.033 51.403.066q26.422.049 52.846.054c9.88.002 19.761.01 29.642.036q12.62.034 25.243.02c4.287-.004 8.575-.002 12.862.017q5.903.026 11.807.001 2.12-.004 4.24.014c18.969.15 35.115-4.8 49.099-18.067 9.91-10.735 15.108-24.615 15.805-39.047l.127-2.557c.405-8.696.458-17.38.445-26.085l.005-5.255q.005-7.133-.001-14.264-.003-7.725.004-15.452.005-15.104 0-30.207-.003-12.289-.001-24.578v-3.544l.001-7.131q.004-33.378-.006-66.757-.005-28.57.001-57.14a174911 174911 0 0 0 .004-73.612v-3.532q-.002-12.253.002-24.506.005-14.964-.003-29.926-.005-7.618 0-15.236c.02-34.982.02-34.982-.563-50.167l-.111-2.914c-1.549-33.795-17.81-61.243-41.959-83.903-14.965-12.732-33.1-20.39-51.364-27.037-16.65-6.153-16.65-6.153-21.136-14.588-1.197-4.02-1.338-8.084-1.562-12.25l-.131-2.258q-.158-2.745-.307-5.492l3.184.105c12.87.306 20.965-1.21 30.816-10.105 7.516-7.725 10.138-17.08 10.193-27.525l.025-2.604q.035-4.264.055-8.527l.017-2.953q.039-7.743.06-15.486.02-6.384.082-12.767c.05-5.153.074-10.306.081-15.459q.01-2.933.046-5.865c.172-14.781-1.41-25.991-11.399-37.623-8.927-9.056-19.462-11.504-31.895-11.597l-3.649.018-3.96-.016c-3.599-.014-7.197-.01-10.796-.003-3.892.005-7.785-.008-11.677-.018-7.614-.017-15.229-.018-22.843-.013q-9.288.006-18.576-.002l-2.675-.003-5.382-.004c-16.804-.014-33.608-.009-50.412.003-15.355.01-30.71-.003-46.065-.027q-23.682-.037-47.364-.027-13.283.007-26.565-.017-11.307-.022-22.614.002c-3.842.009-7.684.011-11.525-.004-4.175-.017-8.35-.002-12.524.016l-3.636-.03c-15.157.132-26.688 4.726-36.463 16.308" id="svg-layer-0" style="pointer-events: all; fill: none;"/><path fill="none" d="M509 227h230l1 19 1 6h2l1.18 2.492c7.013 13.994 16.928 23.58 31.922 28.781q3.258 1.063 6.523 2.102C798.752 290.763 811.97 297.065 825 308l2.453 1.957c11.607 9.639 20.367 22.941 25.797 36.918l.747 1.89c4.398 11.927 4.293 24.213 4.264 36.732l.011 5.591c.01 5.096.008 10.191.004 15.287-.002 5.505.007 11.01.014 16.516q.018 16.161.012 32.322-.002 13.135.005 26.27l.001 3.78.004 7.6q.013 25.508.008 51.014v2.013l-.003 10.1v2.026l-.002 4.057q-.007 31.572.021 63.144c.02 23.665.032 47.33.028 70.996-.002 12.525 0 25.049.014 37.573q.019 15.988.002 31.976-.011 8.156.005 16.311.014 7.47-.007 14.937-.004 2.699.008 5.398c.094 22.617.094 22.617-7.386 31.592-7.915 6.757-18.418 7.447-28.401 7.399l-3.318.02c-3.642.018-7.284.016-10.926.013l-7.876.031q-8.477.034-16.955.04c-8.242.006-16.483.029-24.725.056q-20.203.063-40.405.095-19.374.03-38.748.084l-2.387.006q-4.757.014-9.515.027c-58.581.166-117.162.251-175.744.229l1.234-2.01 1.627-2.675 1.609-2.635c2.355-4.126 4.065-8.422 5.717-12.867l1.036-2.749C506.003 811.46 507.792 804 509 796l.517-2.72c.537-3.644.662-7.215.686-10.89l.022-2.18c.225-29.763.225-29.763-3.225-43.21l-.602-2.47c-6.15-24.834-16.953-46.72-34.398-65.53l-1.675-1.824c-19.08-20.557-42.567-34.075-69.278-42.356l-2.647-.828A2941 2941 0 0 0 392 622a129006 129006 0 0 1-.11-109.088l-.001-2.319a47288 47288 0 0 0-.043-37.114q-.028-19.058-.034-38.114-.004-11.749-.028-23.498-.016-9.025-.01-18.051 0-3.69-.012-7.38c-.094-31.318-.094-31.318 6.238-44.436l1.5-3.121c11.84-23.27 33.69-42.41 58.489-50.902 4.336-1.394 8.677-2.755 13.055-4.013 14.08-4.168 24.6-11.57 32.413-24.023C509.669 248.1 508.311 242.163 509 227m56 141.813c-3.626 5.904-3.145 13.65-3.082 20.36l.01 2.343q.01 2.497.027 4.993.026 3.953.036 7.907.037 11.233.105 22.467.04 6.89.055 13.78.009 2.618.03 5.237c.02 2.439.026 4.877.03 7.316l.027 2.174c-.008 3.968-.313 7.105-2.238 10.61-3.826 2.55-6.933 2.285-11.368 2.271l-2.588.016q-2.784.015-5.569.018-4.414.008-8.829.04c-8.369.056-16.738.087-25.107.111-5.12.016-10.238.047-15.358.085q-2.919.018-5.839.018c-2.733 0-5.465.018-8.198.04l-2.41-.014c-6.16.079-12.534.969-17.552 4.804-6.491 6.705-6.484 16.11-6.457 24.973l-.015 2.655c-.014 2.862-.013 5.723-.01 8.585l-.014 6.02q-.01 6.286-.002 12.572c.006 5.358-.01 10.715-.034 16.072-.015 4.139-.016 8.277-.013 12.416q0 2.963-.015 5.925c-.013 2.764-.006 5.526.006 8.29l-.023 2.444c.056 6.154 1.223 11.508 4.79 16.682l1.418 1.352 1.394 1.398c5.203 3.56 10.823 3.526 16.872 3.53l2.707.026c2.94.025 5.88.037 8.82.05l6.14.051c5.38.046 10.76.08 16.139.113q12.931.08 25.863.188 4.52.033 9.04.055l5.521.04 2.546.008c3.298.03 5.994.116 9.145 1.166 1.125 4.477 1.115 8.845 1.066 13.427l-.014 2.535q-.015 2.717-.038 5.434-.032 4.308-.048 8.615c-.033 8.163-.075 16.327-.137 24.49q-.055 7.497-.075 14.995-.012 2.85-.04 5.699a928 928 0 0 0-.039 7.99l-.037 2.354c.02 5.687.771 11.588 4.743 15.992 3.982 3.438 7.555 5.71 12.843 5.743l2.53.03 2.753.002 2.918.026c3.187.024 6.373.032 9.56.04l6.65.026q6.977.024 13.952.028c5.95.005 11.899.043 17.848.088 4.581.03 9.162.037 13.744.038q3.288.006 6.578.038c3.073.027 6.145.022 9.219.01l2.727.044c6.295-.072 10.394-1.679 15.297-5.644 5.22-5.488 5.15-10.25 5.174-17.56l.02-2.613q.021-2.805.036-5.61.026-4.438.065-8.876.104-12.617.182-25.234.049-7.72.12-15.439.024-2.942.037-5.885c.012-2.74.036-5.482.063-8.222l.002-2.46c.091-7.05.091-7.05 2.301-10.101 3.19-1.595 6.644-1.144 10.146-1.142l2.554-.01q2.751-.012 5.503-.017 4.365-.011 8.73-.041c8.274-.052 16.55-.1 24.825-.116 5.06-.01 10.12-.04 15.18-.081a765 765 0 0 1 5.769-.015c21.88.019 21.88.019 28.913-5.954 5.416-5.884 5.676-12.467 5.655-20.007l.015-2.806c.014-3.05.013-6.1.01-9.15l.014-6.382q.01-6.68.002-13.363c-.006-5.7.01-11.4.034-17.101.015-4.392.016-8.783.013-13.175q0-3.153.015-6.304c.013-2.942.006-5.883-.006-8.824l.023-2.615c-.057-6.65-1.396-11.231-5.457-16.647-8.613-6.596-19.48-5.667-29.8-5.63-2.833.01-5.666-.001-8.5-.017-8.047-.04-16.095-.041-24.142-.039q-7.41-.002-14.818-.05c-2.79-.01-5.58.002-8.37.015l-5.118-.03-2.346.029c-3.492-.047-5.466-.243-8.293-2.372-3.048-4.238-2.69-8.448-2.677-13.448l-.006-2.563q-.006-2.758-.006-5.515c-.004-3.913-.025-7.826-.045-11.738a3967 3967 0 0 1-.067-21.856q-.002-7.6-.062-15.202-.015-2.89-.005-5.783c.01-2.704-.011-5.408-.04-8.112l.031-2.392c-.11-5.915-1.938-9.962-5.674-14.547-6.383-5.186-12.286-5.154-20.146-5.193l-2.766-.025q-4.52-.035-9.041-.055l-3.128-.017a7314 7314 0 0 0-16.39-.06q-6.768-.02-13.536-.082c-5.46-.05-10.917-.074-16.377-.081q-3.111-.01-6.224-.046c-2.91-.032-5.819-.032-8.729-.024l-2.57-.05c-7.89.081-14.452 2.91-19.093 9.445" id="svg-layer-1" style="pointer-events: all; fill: none;"/><path fill="#04273B" d="M478.036 70.74c1.306-.005 2.612-.008 3.957-.012 3.61-.01 7.219-.008 10.828-.004 3.899.002 7.797-.007 11.696-.014q11.448-.018 22.896-.012 9.307.002 18.616-.005l2.678-.001 5.387-.004q25.251-.014 50.502-.003c15.388.006 30.777-.006 46.166-.025q23.719-.03 47.438-.024c8.873.002 17.746 0 26.619-.014q11.332-.019 22.663-.002c3.851.006 7.703.007 11.554-.005a862933128119206.6 862933128119206.6 0 0 1 16.206-.012c11.16.072 21.136 1.914 29.758 9.397 11.537 11.704 13.753 23.816 13.65 39.6l-.021 2.873q0 2.96.007 5.923.004 6.178-.04 12.357c-.033 5.254-.027 10.507-.008 15.762.01 4.07.001 8.141-.014 12.212q-.008 2.905.002 5.81C818.604 188.3 818.007 200.48 808 211c-9.624 9.025-18.091 10.407-30.816 10.105L774 221c.713 20.27.713 20.27 6.313 26.625 6.916 5.038 15.704 7.616 23.632 10.664 32.442 12.552 61.005 32.373 76.085 64.935 5.921 13.666 9.821 27.686 10.282 42.647l.062 1.976q.097 3.24.18 6.48l.064 2.306c.508 18.744.526 37.487.513 56.236q-.003 7.544.004 15.087.005 14.692 0 29.385-.003 11.947-.001 23.895v3.46l.001 6.96q.004 32.468-.006 64.934-.005 27.795.001 55.592a166117 166117 0 0 1 .004 71.723v3.436q-.002 11.933.002 23.864.005 14.541-.003 29.082-.005 7.404 0 14.808.004 6.797-.004 13.592-.001 2.439.002 4.878c.011 8.547-.132 17.072-.533 25.61l-.1 2.36c-.836 15.87-8.06 29.62-19.498 40.465-13.871 11.685-29.092 14.316-46.688 14.247q-2.21.003-4.423.008c-4.028.006-8.056 0-12.085-.008-4.353-.007-8.706-.002-13.06.002q-12.778.006-25.557-.01c-9.926-.01-19.852-.01-29.778-.01q-26.57-.001-53.14-.023-25.77-.021-51.537-.02h-6.407q-29.357 0-58.714-.015-10.373-.004-20.744-.004-12.645 0-25.29-.014-6.448-.008-12.897-.007-5.909.002-11.817-.01H494.6c-6.974.008-13.797-.09-20.711-1.06C472 875 472 875 469.773 876.407l-1.398 2.094c-3.382 4.525-7 7.936-11.375 11.5l-2.871 2.344C433.078 909.19 408.57 920.302 382 925l-3.273.621c-39.113 6.61-79.549-4.964-111.602-27.621-5.328-4.03-10.275-8.41-15.125-13l-2.496-2.3C236.712 870.505 228.397 855.37 220 840l-1.115-2.017C202.748 808.547 199.725 773.563 207 741l.488-2.283c6.127-27.999 18.963-53.464 38.469-74.463C248 662 248 662 249.961 659.477c7.343-8.919 18.28-15.453 28.039-21.477l1.896-1.172C304.026 622.248 332.082 616 360 616l-1-184-12 23c-2.1 3.793-4.204 7.563-6.375 11.313a1044 1044 0 0 0-13.687 24.75l-1.775 3.306-3.487 6.505c-8.02 14.962-16.295 29.71-24.992 44.29-2.902 4.887-5.761 9.8-8.622 14.711l-1.767 3.034-3.542 6.08q-6.912 11.87-13.839 23.73-2.574 4.412-5.14 8.826a7109 7109 0 0 1-4.49 7.698l-2.14 3.68c-17.622 30.339-36.999 52.446-72.144 62.073-4.688 1.217-9.154 1.896-14 2.004l-3.562.152c-22.848.711-42.662-5.77-60.438-20.152l-2.738-2.184C86.258 639.556 75.127 617.23 72 594c-.303-4.046-.381-8.068-.375-12.125l.005-3.297c.265-17.641 5.642-32.507 14.683-47.515a1009 1009 0 0 0 15.187-26.5l1.885-3.409 3.758-6.799a3156 3156 0 0 1 23.323-41.412C136.726 442.008 142.856 431 149 420c13.234-23.698 13.234-23.698 19.938-35.375 5.317-9.264 10.513-18.594 15.689-27.937a2244 2244 0 0 1 11.442-20.446c2.259-3.993 4.385-8.042 6.494-12.117 3.184-5.968 7.058-10.996 11.437-16.125l1.84-2.45c13.305-15.71 36.998-27.522 57.25-30.34 26.838-1.944 53.826 3.984 74.719 21.813L350 299l2.035 1.79c7.189 6.716 12.535 15.065 17.965 23.21l1.652-3.113c4.704-8.712 9.605-16.567 16.348-23.887l1.503-1.647c14.723-15.97 31.714-25.916 51.52-34.373l1.886-.805q4.701-2.004 9.42-3.964l3.523-1.477 3.15-1.305c3.228-1.539 6.038-3.432 8.998-5.429l3-1c2.4-3.866 3.092-7.843 3.316-12.328l.127-2.422.12-2.5.13-2.547q.158-3.1.307-6.203l-2.676.14c-10.654.321-19.879-1.293-28.324-8.14v-2l-1.84-.777c-2.411-1.365-3.288-2.443-4.723-4.786l-1.19-1.878c-3.325-6.826-4.694-13.108-4.651-20.668l-.02-2.61c-.019-2.82-.015-5.64-.01-8.46q-.007-2.97-.015-5.937-.013-6.206.003-12.41c.011-5.279-.009-10.556-.038-15.833-.018-4.084-.018-8.168-.012-12.251q0-2.918-.019-5.834c-.083-15.08 1.107-27.015 12.175-38.24 10.08-9.206 21.171-10.618 34.376-10.577M466 106q-.034 15.4-.052 30.797-.007 7.15-.023 14.3a7693 7693 0 0 0-.02 13.79q-.003 2.636-.01 5.271-.01 3.682-.009 7.363l-.01 2.217c.01 5.034.01 5.034 1.124 7.262h33v-81zm66 0v81h34v-81zm67 0v81c18.324.679 36.664 1 55 1v-82zm87 0v81c10.141 5.07 22.662 1 34 1v-82zm65 0v81h33q.034-15.62.052-31.24.007-7.252.023-14.505.016-6.993.02-13.986.003-2.673.01-5.348.01-3.732.009-7.464l.01-2.256c-.01-5.087-.01-5.087-1.124-6.201zM509 225l-.06 2.094c-.094 3.16-.202 6.318-.311 9.476l-.092 3.295C508.073 252.659 504.114 261.76 495 271c-8.6 7.634-18.146 11.179-28.934 14.543-17.6 5.543-31.534 12.867-45.066 25.457l-2.71 2.465c-6.524 6.192-11.48 12.994-16.29 20.535l-1.531 2.336c-7.272 11.927-8.63 25.739-8.59 39.383l-.002 3.2q0 5.29.01 10.581l-.001 7.6q0 8.17.008 16.341.011 11.814.012 23.627.004 19.17.019 38.338a93570 93570 0 0 1 .025 51.073q.016 47.76.05 95.521l1.9.587q4.318 1.341 8.631 2.694l2.99.923c8.012 2.52 15.086 5.804 22.479 9.796q3.562 1.69 7.125 3.375c10.939 5.482 20.04 13.25 28.875 21.625l2.902 2.707c25.481 24.244 41.935 59.943 43.243 95.208q.019 2.033.023 4.065l.01 2.227q.007 2.317.007 4.636c.002 2.321.02 4.642.04 6.964.046 11.883-.99 23.268-4.475 34.693l-.648 2.16c-2.638 8.472-6.392 16.297-10.704 24.035l-1.361 2.446L492 842a63978 63978 0 0 0 187.537-.208l2.388-.005c12.917-.032 25.834-.049 38.75-.06q20.112-.02 40.223-.082 12.302-.038 24.605-.036c6.247 0 12.495-.021 18.742-.05q3.824-.013 7.647-.005c29.028.056 29.028.056 38.67-6.741 6.197-7.15 7.593-15.208 7.57-24.43l.006-2.311q.006-3.848.002-7.694l.01-5.562q.011-7.653.01-15.305.005-8.25.016-16.5.02-18.047.024-36.094.005-11.271.012-22.541a146788 146788 0 0 0 .028-78.617v-2.033q.007-32.604.043-65.208.038-34.488.04-68.976-.001-18.793.025-37.586.023-16.005.012-32.014-.008-8.162.011-16.325.019-7.484 0-14.968-.004-2.696.01-5.393c.062-13.784-.958-27.046-6.506-39.881l-.91-2.14c-10.508-23.708-31.819-42.04-55.684-51.364-6.582-2.506-13.17-4.876-19.906-6.933-12.721-4.163-22.774-12.87-29.312-24.438-4.586-9.213-5.284-16.677-5.078-26.825.037-1.891.03-3.783.015-5.675-1.892-1.892-4.658-1.123-7.175-1.13l-2.715.01-2.861-.003c-3.19-.002-6.378.004-9.568.01l-6.828-.001q-9.3.001-18.6.013c-6.472.006-12.943.006-19.415.008q-16.303.004-32.607.018-16.797.014-33.592.02h-2.09l-10.38.005q-43.085.016-86.169.05M236.285 326.25c-7.72 9.29-13.017 19.909-18.498 30.601-5.267 10.22-11.078 20.09-16.927 29.985-3.302 5.617-6.548 11.267-9.798 16.914q-1.793 3.117-3.59 6.234l-1.71 2.987a345 345 0 0 1-3.794 6.355l-1.972 3.252-1.81 2.935C177 428 177 428 178 431c1.98 1.388 1.98 1.388 4.617 2.828.986.545 1.97 1.09 2.986 1.65l3.272 1.772 5.135 2.827q2.694 1.48 5.392 2.953c4.56 2.493 9.1 5.022 13.64 7.551q5.066 2.82 10.138 5.634 11.827 6.565 23.65 13.136a37933 37933 0 0 0 28.328 15.727l3.201 1.777 2.975 1.65a384 384 0 0 1 6.807 3.92C291 494 291 494 293 494l1.003-1.87c5.843-10.88 11.71-21.739 17.872-32.442 6.538-11.362 12.917-22.81 19.248-34.288q1.869-3.385 3.746-6.765 2.669-4.812 5.318-9.635l1.602-2.872c9.567-17.508 13.414-35.832 8.18-55.362-4.758-15.698-15.906-30.088-30.117-38.34-28.676-14.338-61.359-9.864-83.567 13.824M163 456a109 109 0 0 0-4.125 6.75l-1.304 2.258c-1.532 2.66-3.052 5.325-4.571 7.992l-3.691 6.45q-3.56 6.22-7.11 12.446a5362 5362 0 0 1-12.824 22.354l-1.846 3.203a2046 2046 0 0 1-9.44 16.192l-1.92 3.266a1635 1635 0 0 1-3.603 6.088c-10.462 17.772-15.101 35.666-10.078 56.073 2.674 10.067 7 17.85 13.512 25.928l1.98 2.574c7.887 9.473 22.173 18.29 34.57 20.25 20.293 1.457 37.895-2.362 54.247-14.836L209 631v-2l1.79-.722c7.184-4.155 11.56-15.061 15.585-22.09l3.676-6.356 1.94-3.36c3.496-6.05 7.036-12.072 10.571-18.097l2.172-3.703A8874 8874 0 0 1 258 552.125l1.59-2.692a1362 1362 0 0 1 8.31-13.89 2101 2101 0 0 1 3.198-5.254c2.137-3.696 4.026-7.454 5.902-11.289a1935 1935 0 0 0-35.25-19.875 4793 4793 0 0 1-36.632-20.376 5998 5998 0 0 0-9.81-5.487l-3.358-1.877q-3.139-1.753-6.28-3.505a699 699 0 0 1-18.26-10.58C165 456 165 456 163 456m101.375 232.75C240.732 715.871 232.187 751.93 234 787c.513 5.469 1.587 10.689 3 16l.738 2.895C241.688 819.28 248.654 836.414 258 847c3 0 3 0 4.652-1.277.298-.3.298-.3 1.81-1.812l2.062-2.044 2.206-2.234 2.274-2.273q2.38-2.382 4.749-4.777c2.426-2.45 4.866-4.886 7.308-7.321q2.304-2.313 4.607-4.63l2.225-2.222 2.034-2.062 1.802-1.817C295 813 295 813 295 811l1.688-.705c2.911-1.63 4.934-3.657 7.296-6.014l2.832-2.824 1.458-1.47a794 794 0 0 1 4.456-4.444l2.817-2.824 2.589-2.596C320 788 320 788 320 786l1.875-.75C324 784 324 784 325 782s1-2 2.672-2.75c3.424-1.838 5.866-4.499 8.578-7.25l1.68-1.656c4.07-4.09 4.07-4.09 4.07-6.344l1.765-.781c2.426-1.323 4.04-2.77 5.994-4.719l2.183-2.164 2.324-2.336 2.404-2.398q2.51-2.508 5.013-5.024c2.564-2.575 5.14-5.14 7.715-7.703l4.868-4.875 2.348-2.336 2.145-2.164 1.901-1.906C382 726 382 726 382 724l4-2v-2l1.875-.75C390 718 390 718 391 716s1-2 2.828-2.906c2.453-1.236 3.988-2.656 5.93-4.594l2.184-2.164 2.324-2.336 2.404-2.398q2.51-2.508 5.013-5.024c2.564-2.575 5.14-5.14 7.715-7.703l4.868-4.875 2.348-2.336 2.145-2.164 1.901-1.906C432 676 432 676 432 674a85 85 0 0 0-6-4.125l-1.912-1.204c-52.698-32.605-116.874-25.173-159.713 20.079M453 694a203 203 0 0 0-3.75 4.25c-4.22 4.76-8.707 9.069-13.468 13.286a86 86 0 0 0-8.05 8.216c-3.404 3.92-6.972 7.618-10.658 11.271l-1.979 1.975q-2.105 2.1-4.214 4.197a5213 5213 0 0 0-6.687 6.662q-8.295 8.273-16.6 16.538-7.03 7-14.054 14.01a6372 6372 0 0 1-6.559 6.526l-4.055 4.046-1.817 1.801c-2.981 2.98-5.838 6.02-8.596 9.208-3.391 3.92-6.967 7.603-10.642 11.256l-2.042 2.043q-3.3 3.299-6.606 6.59-2.307 2.302-4.611 4.607-6.037 6.03-12.078 12.053-6.176 6.162-12.348 12.328Q292.096 856.936 280 869c2.373 7.12 13.272 10.815 19.75 14.125 29.704 14.778 64.912 17.563 96.54 7.555 19.802-6.7 35.877-19.266 50.71-33.68l2.328-2.25C460.952 842.708 468.956 827.467 475 812l1.203-2.84c7.723-19.163 7.93-42.129 3.797-62.16l-.777-3.875c-3.89-17.96-12.986-35.399-25.223-49.125z" id="svg-layer-2" style="pointer-events: all;"/><path fill="#04283D" d="m586.6 359.385 2.768-.017c2.992-.012 5.983.012 8.976.038q3.142.003 6.286 0 6.572.004 13.143.052c5.598.04 11.196.044 16.795.037 4.324-.004 8.647.009 12.971.026q3.096.01 6.19.009c2.891.002 5.781.023 8.671.05l2.551-.009c6.042.086 12.896.7 17.644 4.81 4.803 5.57 5.7 9.848 5.676 17.056l.016 2.574q.015 2.763.018 5.526.008 4.375.04 8.751a6675 6675 0 0 1 .111 24.881q.025 7.613.085 15.225.018 2.9.018 5.797c0 2.704.018 5.409.04 8.113l-.014 2.41c.063 4.805.767 8.117 3.415 12.286 3.144 1.572 6.51 1.153 9.963 1.158l55.478.344q2.818.021 5.636.026c22.445.042 22.445.042 29.86 5.722 4.712 6.282 5.507 11.58 5.467 19.214l.02 2.797c.02 3.036.015 6.07.01 9.106l.015 6.363q.013 6.66-.003 13.32c-.011 5.674.009 11.348.038 17.023.018 4.379.018 8.757.012 13.136q0 3.137.019 6.275c.015 2.931.004 5.861-.013 8.793l.029 2.589c-.086 7.054-1.848 13.302-6.781 18.509-6.567 3.88-12.202 5.068-19.689 5.01l-2.59.016q-2.76.015-5.522.01a1091 1091 0 0 0-8.738.028c-7.226.043-14.452.054-21.678.066q-9.184.016-18.368.075c-2.871.014-5.742.01-8.613.005q-2.63.014-5.26.03l-2.423-.018c-5.39.06-5.39.06-7.825 1.802-2.512 3.852-2.196 7.421-2.202 11.887l-.015 2.597q-.016 2.798-.026 5.597-.019 4.433-.053 8.865c-.062 8.404-.116 16.808-.15 25.212-.02 5.138-.056 10.275-.1 15.413a1047 1047 0 0 0-.026 5.869c-.005 2.743-.028 5.485-.055 8.228l.009 2.436c-.085 5.746-1.021 10.694-4.89 15.204-4.229 3.174-7.395 5.533-12.76 5.567l-2.53.03-2.753.002-2.918.026c-3.187.024-6.373.032-9.56.04l-6.65.026q-6.977.024-13.952.028c-5.95.005-11.899.043-17.848.088-4.581.03-9.162.037-13.744.038q-3.288.006-6.578.038c-3.073.027-6.145.022-9.219.01l-2.727.044c-6.245-.072-10.482-1.606-15.297-5.644-4.829-6.067-5.147-10.826-5.098-18.361l.005-2.549q.006-2.736.018-5.472.019-4.332.024-8.663c.013-7.171.038-14.343.061-21.515q.03-9.09.046-18.182.01-4.264.032-8.53l.01-5.238.015-2.391c0-3.828-.18-7.379-1.113-11.099-3.9-1.3-7.61-1.153-11.675-1.158l-2.686-.015q-2.89-.016-5.78-.026a2770 2770 0 0 1-9.156-.053c-8.677-.062-17.355-.116-26.033-.15-5.307-.02-10.615-.056-15.922-.1q-3.03-.021-6.062-.026c-2.831-.005-5.662-.028-8.494-.055l-2.516.009c-5.99-.086-10.87-1.075-15.602-5.04l-1.387-1.698-1.425-1.676c-3.39-5.404-3.551-10.725-3.52-16.888-.003-.436-.003-.436-.011-2.644-.01-2.873-.003-5.747.003-8.62l-.005-6.024q-.005-6.309.01-12.619c.012-5.37.005-10.741-.007-16.112q-.009-6.22 0-12.441.003-2.97-.005-5.937c-.005-2.778.003-5.556.014-8.333l-.012-2.441c.06-8.184.522-16.438 6.453-22.564 5.743-4.39 12.98-4.826 19.946-4.758l2.615-.011q2.785-.01 5.569 0c2.938.009 5.876-.001 8.814-.017 8.347-.04 16.694-.041 25.042-.039q7.68-.002 15.359-.05c2.894-.01 5.787.002 8.681.015l5.31-.03 2.436.029c3.554-.046 5.626-.214 8.514-2.372 2.887-4.063 2.658-7.905 2.614-12.682l-.01-2.317q-.01-2.492-.027-4.984-.026-3.956-.036-7.91-.037-11.247-.105-22.494-.04-6.881-.055-13.762a1171 1171 0 0 0-.03-5.226c-.196-24.75-.196-24.75 6.181-31.781 6.09-4.347 11.209-5.732 18.6-5.615" id="svg-layer-3" style="pointer-events: all;"/><path fill="none" d="M163 456a83 83 0 0 1 10 4.617l2.904 1.57 3.096 1.688 3.243 1.762c7.588 4.14 15.111 8.383 22.602 12.696 7.244 4.165 14.535 8.24 21.843 12.292l3.497 1.94q7.43 4.118 14.866 8.224C255.782 506.721 266.41 512.82 277 519a208 208 0 0 1-11.633 21.18c-2.846 4.56-5.574 9.19-8.305 13.82l-1.657 2.81a8698 8698 0 0 0-11.572 19.715q-2.148 3.668-4.299 7.333l-1.082 1.844-2.172 3.7a3753 3753 0 0 0-6.61 11.315q-2.156 3.7-4.325 7.393a1373 1373 0 0 0-2.993 5.149c-3.368 5.73-6.705 10.965-11.352 15.741h-2l-.668 1.754c-5.384 9.078-19.42 13.338-29.035 15.992-17.904 3.887-33.658.402-49.297-8.746-14.555-9.81-24.737-24.932-28.469-42.078-1.823-10.03-1.404-18.873.469-28.922l.57-3.074c2.643-10.642 8.912-19.606 14.574-28.86 3.161-5.223 6.192-10.52 9.231-15.816l3.781-6.566 5.824-10.129c6.65-11.564 13.304-23.119 20.211-34.532A310 310 0 0 0 163 456" id="svg-layer-4" style="pointer-events: all; fill: none;"/><path fill="#E0801F" d="M283.805 303.813c16.747-.656 33.374 4.935 46.07 15.937 14.147 13.752 22.267 30.406 22.563 50.188-.118 13.736-4.963 25.007-11.3 36.918a585 585 0 0 0-3.423 6.574c-6.033 11.672-12.483 23.096-18.981 34.514a3082 3082 0 0 0-8.921 15.868l-1.762 3.147A8006 8006 0 0 0 293 494c-5.892-1.611-10.819-4.587-16.062-7.625a5311 5311 0 0 0-6.2-3.543l-3.314-1.892c-5.904-3.345-11.852-6.61-17.799-9.877a3748 3748 0 0 1-30.125-16.75q-8.659-4.86-17.363-9.637l-2.01-1.104q-4.864-2.673-9.736-5.332l-3.536-1.94-3.136-1.713A56.6 56.6 0 0 1 177 430c1.654-4.531 3.897-8.619 6.25-12.812l1.315-2.357c4.256-7.585 8.653-15.087 13.047-22.592a1729 1729 0 0 0 11.95-20.739l1.602-2.826c2.818-5 5.57-10.028 8.258-15.1l1.72-3.234q1.613-3.042 3.194-6.098c9.16-17.293 22.706-30.908 41.476-37.18 6.197-1.886 11.556-2.82 17.993-3.25" id="svg-layer-5" style="pointer-events: all;"/><path fill="none" d="M453 697c9.375 3.438 13.732 14.453 18 23l1.566 3.105c4.655 9.951 6.658 20.111 8.434 30.895l.59 3.418c3.713 32.428-5.825 63.022-25.434 88.934-20.67 25.388-48.32 45.325-81.576 49.42-33.726 2.969-67.329-4.021-94.58-24.772 1.312-2.898 2.713-4.96 4.965-7.199l1.839-1.842 2.013-1.987 2.125-2.12c2.32-2.315 4.648-4.623 6.976-6.93q2.427-2.417 4.851-4.836 6.395-6.372 12.8-12.734 10.226-10.162 20.435-20.34 3.56-3.541 7.124-7.078l4.408-4.388 1.983-1.962c3.785-3.777 7.356-7.678 10.85-11.725 2.249-2.564 4.622-4.985 7.028-7.401l1.486-1.497q2.388-2.4 4.781-4.793l3.364-3.374a7095 7095 0 0 1 7.015-7.022q4.487-4.489 8.96-8.991 3.463-3.479 6.934-6.947 1.654-1.657 3.303-3.316 2.305-2.317 4.622-4.623l2.648-2.652c2.387-2.15 4.73-3.625 7.49-5.243a74 74 0 0 0 3.78-3.553l2.123-2.123 2.242-2.273c.384-.387.384-.387 2.332-2.341 2.45-2.461 4.893-4.93 7.336-7.398l4.99-5.017A7004 7004 0 0 0 453 697" id="svg-layer-6" style="pointer-events: all; fill: none;"/><path fill="none" d="m429 672 3 2c-1.402 3.168-3.06 5.312-5.5 7.759l-2.164 2.183-2.336 2.324-2.398 2.404a2443 2443 0 0 1-5.024 5.013c-2.575 2.564-5.14 5.14-7.703 7.715L402 706.266l-2.336 2.348-2.164 2.145-1.906 1.901C394 714 394 714 392 714l-.75 1.875c-1.487 2.529-2.687 2.843-5.25 4.125-1.25 2.125-1.25 2.125-2 4h-2l-.781 1.765c-1.323 2.426-2.77 4.04-4.719 5.994l-2.164 2.183-2.336 2.324-2.398 2.404a2443 2443 0 0 1-5.024 5.013c-2.575 2.564-5.14 5.14-7.703 7.715L352 756.266l-2.336 2.348-2.164 2.145-1.906 1.901C344 764 344 764 342 764l-.625 1.61c-1.955 3.398-4.596 5.9-7.375 8.64l-1.656 1.68c-4.09 4.07-4.09 4.07-6.344 4.07l-.75 1.875c-1.487 2.529-2.687 2.843-5.25 4.125l-.83 1.751c-1.53 2.94-3.55 4.888-5.889 7.233l-2.824 2.832-1.47 1.458a794 794 0 0 0-4.444 4.456l-2.824 2.817-2.596 2.589C297 811 297 811 295 811l-.796 1.782c-1.262 2.325-2.588 3.843-4.46 5.701l-2.002 2.002-2.156 2.124-2.211 2.203a3210 3210 0 0 1-7 6.938l-4.742 4.715Q265.824 842.24 260 848c-3.562-3.413-5.953-7.008-8.312-11.312l-1.183-2.148A615 615 0 0 1 247 828l-1.015-1.906c-13.82-26.376-16.169-58.664-7.837-87.164C243.317 722.6 250.762 705.055 262 692l2.176-2.586c8.816-10.14 18.383-17.462 29.88-24.26a330 330 0 0 0 5.092-3.1C340.171 638.045 391.108 646.37 429 672" id="svg-layer-7" style="pointer-events: all; fill: none;"/><path fill="#517595" d="M599 106h55v82c-18.336 0-36.677-.295-55-1zM686 106h34v82h-33c-1.731-1.731-1.12-3.958-1.124-6.265l.01-2.284v-2.395c0-2.624.009-5.248.016-7.872l.005-5.444q.006-7.18.024-14.357.014-7.32.02-14.639c.01-9.581.029-19.163.049-28.744M532 106h34v81h-34zM466 106h34v81h-33c-1.189-3.566-1.132-6.79-1.114-10.5v-2.307c0-2.516.009-5.032.016-7.548l.005-5.234q.006-6.888.024-13.775c.012-5.509.017-11.018.023-16.527.01-8.37.029-16.74.046-25.109M751 106h32c1.72 1.72 1.12 3.909 1.124 6.201l-.01 2.256v2.365c0 2.592-.009 5.184-.016 7.776l-.005 5.376a9280 9280 0 0 1-.024 14.18q-.014 7.228-.02 14.457c-.01 9.463-.029 18.926-.049 28.389h-33z" id="svg-layer-8" style="pointer-events: all;"/><path fill="#F6EAD8" d="M509 225h231c1.526 3.051 1.058 6.221 1 9.563-.058 5.903.163 11.58 1 17.437-2-2-2-2-3-6v-19H511v19h-1zM453 694l3 2c-1 2-1 2-2.833 2.91-2.427 1.22-3.923 2.605-5.834 4.53l-2.122 2.123-2.258 2.289-2.337 2.345c-2.46 2.471-4.913 4.95-7.366 7.428q-2.501 2.517-5.004 5.031Q422.116 728.821 416 735l-2-1 1.358-1.342a4331 4331 0 0 0 6.204-6.158l2.135-2.11c4.08-4.06 7.972-8.202 11.684-12.603 1.734-1.914 3.583-3.562 5.557-5.225 4.481-3.788 8.26-8.104 12.062-12.562" id="svg-layer-9" style="pointer-events: all;"/></svg>