<svg xmlns="http://www.w3.org/2000/svg" width="1024" height="1024"><path fill="none" d="M0 0h1024v1024H0z" id="svg-layer-0" style="pointer-events: all; fill: none;"/><path fill="#00233B" d="M657.167 139.7c2.023.613 4.052 1.206 6.081 1.798q1.96.587 3.92 1.178l3.54 1.06c5.672 2.178 9.964 5.153 13.292 10.264 1.62 4.915 2.476 9.74 3 14.871l.244 2.265c.26 2.433.508 4.867.756 7.302l.265 2.525c.956 9.116 1.807 18.225 2.333 27.377l.127 2.21q.288 5.147.504 10.295c.608 12.42.608 12.42 3.771 18.155 2.176 1.352 2.176 1.352 5 1 2.96-1.577 5.54-3.576 8.188-5.625l4.867-3.637 2.499-1.892c3.72-2.807 7.483-5.551 11.259-8.284l2.19-1.587c6.063-4.364 12.227-8.57 18.434-12.725l2.748-1.845 2.561-1.702 2.271-1.51c3.055-1.837 5.79-2.41 9.295-2.568l2.239-.148c6.964 1.488 11.022 8.687 14.824 14.148l3.445 4.855L788 222c5.88 8.263 12.04 16.216 18.645 23.918 3.207 3.744 4.506 6.474 4.668 11.394l.113 2.239c-1.074 6.175-5.488 9.562-10.313 12.988l-2.3 1.586-2.415 1.703c-2.46 1.733-4.928 3.453-7.398 5.172a3892 3892 0 0 0-6.425 4.534q-2.079 1.47-4.16 2.934a1619 1619 0 0 0-22.5 16.14 545 545 0 0 1-5.013 3.591L748.437 310l-2.003 1.438c-1.97 2.146-2.101 3.675-2.434 6.562.53 2.923.53 2.923 1.434 6.105l.966 3.479 1.038 3.603q1 3.552 1.996 7.106l.908 3.173C751 344 751 344 751 346c6.757 1.948 13.993 1.095 20.927.638 2.958-.191 5.918-.343 8.879-.5 2.034-.128 4.064-.322 6.092-.52 15.71-1.164 31.051 4.356 45.944 8.749a875 875 0 0 0 6.34 1.83 766 766 0 0 1 11.568 3.428l3.494 1.015c6.588 2.082 11.317 4.142 14.756 10.36.956 2.68 1.578 4.874 2.063 7.625l.454 2.28A460 460 0 0 1 873 389l.605 3.378a1838 1838 0 0 1 5.274 31.063l1.091 6.763c.86 5.163 2.045 10.186 3.48 15.218 1.186 5.553.645 9.484-1.997 14.387-2.328 3.511-5.165 6.496-8.039 9.566-2.361 2.568-4.549 5.213-6.726 7.938-3.412 4.221-6.982 8.227-10.688 12.187-4.438 4.752-8.706 9.585-12.754 14.68a225 225 0 0 1-5.023 6.078c-7.857 9.372-7.857 9.372-8.098 14.555.57 4.608 2.537 9.85 5.875 13.187 7.128-.36 11.858-2.712 17.912-6.293 9.58-5.246 19.283-.758 29.15 2.106l3.721 1.04c17.608 5.054 17.608 5.054 23.342 13.647l1.365 1.948q1.476 2.115 2.931 4.245c2.284 3.338 4.614 6.642 6.94 9.95q1.82 2.598 3.626 5.206c2.489 3.59 4.973 7.16 7.681 10.588l2.207 2.813 1.867 2.266c3.615 7.14.106 15.53-2.031 22.664l-1.033 3.535q-1.084 3.702-2.184 7.398a2432 2432 0 0 0-3.28 11.145 1753 1753 0 0 1-5.268 17.597 551 551 0 0 0-2.507 8.64c-2.57 8.788-5.13 15.045-13.001 20.317a2096 2096 0 0 0-4.442 3.27l-2.086 1.483c-2.574 1.934-4.716 4.085-6.91 6.435l2.621.352c3.414.655 6.244 1.662 9.442 3.011l3.414 1.44 3.523 1.51 3.523 1.474c8.58 3.647 14.6 6.338 19.977 14.213l1.258 1.82q1.38 1.995 2.747 3.998c2.17 3.167 4.378 6.307 6.584 9.449q2.697 3.847 5.384 7.702a900 900 0 0 0 6.773 9.562c4.86 6.774 9.578 13.574 13.879 20.719l1.11 1.843c4.01 6.806 5.702 12.022 4.765 19.907-1.447 5.206-3.66 9.712-8.147 12.959-8.262 4.64-17.506 6.086-26.75 7.424-2.102.304-4.2.624-6.298.947-7.583 1.15-15.156 2.1-22.805 2.67q2.06 3.69 4.125 7.375l1.234 2.21c2.732 4.87 5.583 9.63 8.645 14.302 1.224 2.597 1.363 4.273.996 7.113-9.393 10.997-27.622 12.32-41.125 14.625q-4.91.857-9.82 1.727l-2.382.414a201 201 0 0 0-13.728 2.945c-11.408 2.647-21.326.483-32.593-1.91a1098 1098 0 0 0-7.747-1.606c-8.657-1.794-17.126-3.772-25.553-6.47-4.312-1.025-8.343-1.458-12.474.314l-2.328 1.586-2.848 1.934Q777.697 854.774 776 856l-2.097 1.512c-7.205 5.222-14.382 10.48-21.368 15.992l-2.13 1.66a235 235 0 0 0-3.89 3.104c-5.2 4.045-10.262 5.94-16.915 5.614-2.685-.34-5.318-.806-7.975-1.32l-3.099-.555c-9.857-1.798-19.673-3.83-29.49-5.834-13.184-2.688-26.41-5-39.695-7.131-6.858-1.102-13.708-2.239-20.532-3.53l-3.561-.666c-9.897-2.579-16.512-9.872-23.396-16.951-2.45-2.507-4.939-4.924-7.602-7.207l-1.922-1.676c-4.144-1.801-8.475-.724-12.57.849a218 218 0 0 0-7.29 3.569c-7.568 3.725-15.178 7.266-22.937 10.578l-2.94 1.256q-4.544 1.934-9.091 3.861l-9.707 4.136-6.487 2.764a2902 2902 0 0 0-22.37 9.65 2799 2799 0 0 1-18.05 7.794 978 978 0 0 0-12.675 5.55q-2.979 1.275-5.961 2.543l-2.465 1.142c-12.727 5.249-28.441.951-41.473-1.641l-4.854-.94c-11.024-2.152-21.993-4.533-32.958-6.965l-2.687-.596-2.707-.6c-21.059-4.652-42.212-8.826-63.375-12.976a6273 6273 0 0 1-8.332-1.643q-6.647-1.315-13.298-2.607-2.471-.482-4.94-.972c-14.41-2.852-28.565-3.861-43.238-4.334q-3.772-.122-7.544-.251-5.43-.185-10.862-.365-14.368-.481-28.736-.986l-2.924-.102c-20.912-.737-41.815-1.658-62.717-2.645-23.897-1.127-23.897-1.127-35.734-1.386l-2.566-.058a796 796 0 0 0-11.022-.17c-7.705-.128-14.958-.498-21.255-5.342-3.491-4.747-4.334-9.31-3.563-15.125 1.645-6.927 2.908-11.902 9-16 2.545-1.512 5.14-2.915 7.75-4.312 7.532-4.108 14.91-8.435 22.25-12.875 11.891-7.185 23.9-14.149 35.951-21.062 4.732-2.718 9.453-5.452 14.174-8.188l2.443-1.416L152 766c-.804-8.813-7.592-15.117-14.062-20.687L135 743l-1.95 1.652c-20.756 17.322-20.756 17.322-29.8 17.785l-2.484.184c-7.645-1.717-11.96-9.336-15.954-15.496-4.757-7.172-9.69-14.12-15.03-20.873C64.89 719.927 63.092 713.99 64 706c2.423-6.36 9.514-11.22 15-15h2c-4.523-5.387-9.322-10.411-14.355-15.318-3.3-3.24-4.53-4.612-5.032-9.295.103-7.512 3.124-14.564 5.575-21.574q.81-2.362 1.615-4.727 1.7-4.974 3.421-9.942a2450 2450 0 0 0 5.327-15.609L81 604.375l.826-2.434a1200 1200 0 0 1 4.533-13.11 408 408 0 0 0 1.705-5.001c1.893-5.298 3.285-7.973 8.561-10.518a827 827 0 0 0 3.766-1.94l2.173-1.1c5.031-2.628 9.905-5.544 14.811-8.397l6.832-3.941a3101 3101 0 0 0 15.906-9.268 1623 1623 0 0 1 30.833-17.599c8.886-4.954 17.698-10.028 26.48-15.166A72 72 0 0 1 201 514a2251 2251 0 0 0-18.21-11.156c-10.627-6.433-21.183-12.955-31.644-19.654-6.322-4.045-12.69-8.008-19.083-11.94A2742 2742 0 0 1 122 465l-2.306-1.439a592 592 0 0 1-6.257-3.998l-1.822-1.142c-4.882-3.207-7.77-6.885-9.615-12.421-1.503-13.524 3.77-24.523 11.668-35.11 5.218-6.467 10.93-11.823 19.418-13.238 10.874-.744 20.291 7.356 28.923 13.105q2.85 1.896 5.71 3.78A6174 6174 0 0 1 179 422q5.774 3.824 11.563 7.625l2.446 1.629 2.245 1.473 1.916 1.268c1.93 1.06 3.68 1.57 5.83 2.005l1.723-2.125 2.34-2.875 2.285-2.812 1.275-1.521a115 115 0 0 0 2.852-3.605c4.72-5.913 10.077-9.003 16.775-12.375q2.95-1.518 5.89-3.05l2.611-1.322c2.129-1.245 3.612-2.488 5.249-4.315l-4.67-2.334q-2.13-1.065-4.26-2.137a707 707 0 0 0-11.636-5.724c-13.635-6.59-26.545-14.24-39.49-22.066-3.35-1.979-6.755-3.823-10.212-5.604-3.275-2.146-3.94-4.414-4.732-8.135.656-6.545 2.7-12.145 5.688-17.937 4.52-9.156 8.566-18.484 12.562-27.875l1.953-4.583q1.471-3.45 2.94-6.903a3907 3907 0 0 1 9.482-22.077l.797-1.84c6.897-15.913 14.005-31.732 21.183-47.52l2.333-5.14 1.093-2.41c2.222-4.936 4.265-9.918 6.219-14.965 4.973-12.624 4.973-12.624 9.398-16.012 7.541-2.367 14.813 2.011 21.477 5.137 12.912 5.854 26.08 10.757 39.42 15.526 4.933 1.766 9.854 3.56 14.775 5.357a15510 15510 0 0 0 36.454 13.248q7.989 2.898 15.984 5.782l4.884 1.767Q383.302 238.33 391 241l2.205.772c2.15.746 4.307 1.469 6.467 2.185l3.768 1.269c3.92.852 6.67.68 10.56-.226 1.68-1.687 1.68-1.687 2.875-4l1.469-2.734L420 235q1.611-3.051 3.235-6.098a530 530 0 0 0 2.167-4.132c2.327-4.473 4.793-8.845 7.327-13.205 4.012-6.973 7.624-14.107 11.15-21.338q.931-1.893 1.866-3.784a3948 3948 0 0 0 7.776-15.828q2.392-4.894 4.813-9.775a814 814 0 0 0 2.657-5.45c3.213-6.467 6.509-12.568 12.009-17.39 7.623-2.54 14.888-.035 22.422 1.852l3.677.898q4.85 1.188 9.694 2.39c15.693 3.889 31.394 7.742 47.16 11.32l3.37.782c9.202 2.059 15.585 2.215 24.33-1.312l2.478-.966c2.606-1.019 5.206-2.053 7.807-3.089q2.566-1.01 5.134-2.016 3.8-1.488 7.597-2.983c5.413-2.13 10.833-4.242 16.272-6.306l1.952-.75c11.53-4.342 20.858-1.588 32.274 1.88" id="svg-layer-1" style="pointer-events: all;"/><path fill="#F2E5C3" d="m256 212 3.207 1.582c20.164 9.821 40.847 17.87 62.094 24.98a463 463 0 0 1 32.262 12.188c12.827 5.395 25.735 10.51 38.75 15.438a9269.418 9269.418 0 0 0 15.902 6.008c5.389 2.03 10.772 4.075 16.155 6.12q12.04 4.578 24.094 9.121c17.645 6.65 35.261 13.368 52.828 20.224 13.1 5.112 26.223 10.161 39.354 15.19A1737 1737 0 0 1 569 334c-5.212 6.467-5.212 6.467-8.504 8.719l-1.962 1.363-2.096 1.418-4.575 3.16-2.411 1.653c-3.292 2.265-6.558 4.566-9.826 6.865-11.167 7.854-22.433 15.564-33.718 23.246-11.54 7.86-22.867 15.99-34.15 24.21-8.342 6.074-16.722 12.067-25.258 17.866-11.178 7.6-22.172 15.437-32.934 23.617l-2.748 2.085a935 935 0 0 0-5.27 4.038c-.798.606-1.594 1.213-2.415 1.838l-2.129 1.638c-2.148 1.376-3.46 2.068-6.004 2.284-2.587-.861-2.587-.861-5.516-2.246l-3.266-1.525-3.468-1.666L369 446l-2.397-1.148c-10.59-5.089-20.88-10.74-31.193-16.364a2444 2444 0 0 0-16.093-8.68c-16.907-9.063-33.716-18.295-50.23-28.058-10.514-6.212-21.175-11.986-32.044-17.55a695 695 0 0 1-22.856-12.262c-.47-.263-.47-.263-2.855-1.589-4.867-2.758-9.173-5.602-13.332-9.349 2.555-15.02 10.649-29.67 16.647-43.543 6.229-14.417 12.301-28.903 18.353-43.394l1.224-2.93q3.36-8.066 6.6-16.18c9.302-23.23 9.302-23.23 15.176-32.953" id="svg-layer-2" style="pointer-events: all;"/><path fill="#D37B22" d="m661.813 483 4.158.29q5.014.349 10.029.71c-.621 4.17-2.036 7.395-3.957 11.137l-.906 1.781q-.965 1.899-1.936 3.793c-1.731 3.377-3.44 6.766-5.146 10.156l-1.049 2.083c-3.202 6.391-6.227 12.858-9.193 19.362-6.844 14.99-13.998 29.823-21.188 44.649-10.02 20.678-19.936 41.407-29.25 62.414-3.1 6.99-6.464 13.813-9.937 20.625-5.003 9.835-9.518 19.833-13.938 29.938-6.276 14.341-12.974 28.434-19.906 42.469-6.435 13.03-12.592 26.146-18.37 39.48l-1.572 3.578-1.344 3.113C537 781 537 781 534 783c-7.8 1.211-14.928-1.134-22.273-3.496q-3.606-1.113-7.214-2.218l-3.75-1.154c-6.111-1.838-12.266-3.508-18.427-5.167l-3.72-1.005q-5.62-1.514-11.241-3.023c-28.87-7.767-28.87-7.767-43.023-11.683l-2.991-.817c-4.828-1.345-9.61-2.793-14.354-4.408-.878-.3-1.756-.598-2.661-.906-6.081-2.911-8.825-9.43-11.058-15.467l-.788-2.281-.87-2.432c-3.421-9.818-6.065-19.873-8.63-29.943-.181-.71-.362-1.42-.55-2.151-.91-3.731-1.289-7.068-.45-10.849 3.53-5.021 9.575-8.085 14.617-11.426l4.029-2.678 2.146-1.426q4.533-3.021 9.059-6.054 6.104-4.086 12.212-8.166l2.588-1.73c10.826-7.228 21.697-14.36 32.716-21.291 6.074-3.833 11.888-7.918 17.633-12.229a1058 1058 0 0 1 6.813-4.875c3.506-2.495 7.01-4.991 10.488-7.527 6.767-4.917 13.667-9.567 20.699-14.098 12.068-7.79 23.488-15.652 34-25.5q2.435-2.16 4.875-4.312c9.53-8.602 18.172-17.597 26.125-27.688 8.538-10.827 17.52-21.005 27.063-30.957a356 356 0 0 0 5.527-5.98c16.128-17.795 25.296-18.791 49.222-17.063" id="svg-layer-3" style="pointer-events: all;"/><path fill="#678B9F" d="M760.512 226.977c3.463 1.424 4.977 3.478 7.3 6.398l1.29 1.622q1.317 1.665 2.614 3.347a268 268 0 0 0 3.745 4.687l2.226 2.844 2.012 2.555C781 251 781 251 781 254.086c-1.245 3.628-2.51 4.567-5.687 6.664l-3.024 2.059L769 265a658 658 0 0 0-6.812 4.813l-1.78 1.264c-6.064 4.337-11.89 8.958-17.727 13.592-10.236 8.104-20.729 15.859-31.265 23.564q-2.346 1.717-4.687 3.436c-10.379 7.627-20.959 14.886-31.698 21.995-11.995 7.94-23.683 16.225-35.238 24.793-6.07 4.497-12.197 8.912-18.328 13.324a1520 1520 0 0 0-8.961 6.5c-8.088 5.9-16.259 11.616-24.613 17.132-11.354 7.51-22.484 15.355-33.477 23.382-7.716 5.633-15.565 11.007-23.539 16.267a447 447 0 0 0-25.87 18.412c-3.762 2.864-7.572 5.661-11.38 8.464l-2.42 1.781a2264 2264 0 0 1-18.435 13.386A1703 1703 0 0 0 456.5 489c-12.783 9.431-25.561 18.799-38.82 27.553-11.913 7.88-23.46 16.276-35.02 24.662-5.442 3.936-10.95 7.762-16.504 11.54a463 463 0 0 0-12.264 8.686c-10.284 7.519-20.821 14.61-31.454 21.621-14.592 9.633-29.02 19.45-43.114 29.803-8.731 6.41-17.686 12.455-26.738 18.404a412 412 0 0 0-17.131 11.933c-3.032 2.22-6.105 4.36-9.205 6.486l-1.92 1.316c-7.59 5.193-15.214 10.34-22.83 15.496-28.51 19.304-28.51 19.304-37.928 26.166C146.626 705.013 129.199 716.576 111 727l-3.316 1.957C105 730 105 730 102.875 729.379L101 728l-2-1.41c-5.058-4.179-8.329-8.158-10-14.59-.19-3.685-.011-5.789 2.39-8.665 4.079-4.01 8.292-7.546 12.923-10.898a2395 2395 0 0 0 6.438-4.753c3.84-2.875 7.602-5.847 11.374-8.809 6.252-4.89 12.577-9.623 19.074-14.183a539 539 0 0 0 7.728-5.554c11.072-8.094 22.375-15.776 33.823-23.326 10.22-6.747 20.391-13.522 30.318-20.697a499 499 0 0 1 10.807-7.553A7636.644 7636.644 0 0 1 232 602a2144 2144 0 0 0 46.73-32.914q5.62-4.063 11.27-8.086c5.264-3.752 10.51-7.527 15.75-11.312l2.292-1.656q5.778-4.174 11.544-8.364c7.682-5.578 15.4-11.085 23.241-16.439 5.359-3.659 10.676-7.375 15.986-11.104a1747 1747 0 0 1 20.062-13.875c21.863-14.938 21.863-14.938 27.875-20.562 10.643-9.88 23.233-17.732 35.21-25.882 13.433-9.143 26.617-18.632 39.774-28.165q6.755-4.888 13.518-9.766 5.616-4.05 11.213-8.125c7.643-5.558 15.336-11.012 23.16-16.312 6.657-4.511 13.135-9.198 19.537-14.064 6.397-4.844 13.004-9.353 19.635-13.869 13.226-9.039 26.244-18.242 38.695-28.33 13.893-11.247 28.406-21.49 43.196-31.52q9.175-6.223 18.25-12.592l2.45-1.72 4.998-3.51c11.783-8.262 23.6-16.475 35.489-24.583 12.23-8.345 24.347-16.838 36.218-25.686 8.84-6.554 8.84-6.554 12.419-6.587" id="svg-layer-4" style="pointer-events: all;"/><path fill="#F1E5C4" d="M664.126 373.864 667 375c1.827.655 3.654 1.31 5.484 1.957 3.636 1.289 7.263 2.605 10.891 3.918l2.37.858q7.407 2.682 14.808 5.377l4.812 1.75c15.912 5.782 31.781 11.624 47.385 18.202l3.172 1.337c5.236 2.248 10.2 4.652 15.078 7.601-.579 6.349-2.59 11.824-4.875 17.75l-1.208 3.177c-3.404 8.891-6.996 17.702-10.615 26.507-3.556 8.672-6.99 17.385-10.365 26.128l-.766 1.986a6506 6506 0 0 0-7.66 19.964 2872 2872 0 0 1-14.003 35.923q-.938 2.358-1.871 4.718-1.31 3.31-2.633 6.617l-.785 1.991c-1.458 3.628-3.11 6.946-5.219 10.239-3.846-.55-5.631-1.947-8-5a50 50 0 0 1-.606-7.883l-.051-2.396c-.052-2.616-.076-5.23-.1-7.846q-.05-2.74-.104-5.48c-.091-4.815-.16-9.63-.224-14.446-.104-7.679-.236-15.357-.377-23.035a1548 1548 0 0 1-.11-8.002c-.349-23.833-.349-23.833-3.428-26.912a187 187 0 0 0-5.598-.281c-11.827-.767-23.366-3.496-34.959-5.853-32.077-6.49-32.077-6.49-37.738-3.759-1.882 1.468-3.237 3.015-4.705 4.893q-1.53 1.72-3.062 3.438l-1.754 2.058c-2.823 3.237-5.749 6.37-8.684 9.504l-1.818 1.943A7819 7819 0 0 1 594 488l-9.531 10.156a2021 2021 0 0 0-12.97 13.97c-3.304 3.589-6.63 7.156-9.965 10.715C556.256 528.476 551 534.115 546 540a114 114 0 0 1-9.633-4.25l-2.662-1.328-2.83-1.422-2.963-1.487C511.078 523.038 494.522 514.067 478 505c.284-3.279.602-4.644 3.094-6.878.912-.58 1.823-1.16 2.761-1.759l3.055-1.983 3.277-2.067q3.32-2.151 6.637-4.305l3.244-2.093a248 248 0 0 0 10.432-7.228 645 645 0 0 1 14.313-10.062c6.222-4.258 12.399-8.575 18.55-12.935 3.84-2.721 7.69-5.425 11.559-8.104 8.779-6.086 17.41-12.289 25.855-18.83 6.881-5.31 13.968-10.303 21.098-15.272 4.263-2.977 8.504-5.983 12.748-8.986a1180 1180 0 0 1 10.662-7.463 370 370 0 0 0 25.422-19.32l1.772-1.43C654 375 654 375 655.887 372.94c3.101-1.381 5.196-.242 8.239.923" id="svg-layer-5" style="pointer-events: all;"/><path fill="#678B9F" d="m716.313 690.188 2.712 1.048c11.016 4.391 21.542 9.823 32.063 15.275 3.584 1.833 7.21 3.572 10.852 5.288 7.089 4.134 10.337 13.244 13.982 20.256 1.976 3.786 4.068 7.496 6.203 11.195l1.973 3.445a785 785 0 0 0 3.773 6.485l1.692 2.945 1.503 2.57c.934 2.305.934 2.305.766 4.43-.957 2.158-1.942 3.188-3.707 4.75-3.515 3.35-6.43 6.97-9.375 10.813-7.909 10.233-16.749 19.462-25.98 28.505l-1.704 1.678-1.64 1.597C748 812 748 812 746.215 814.91c-3.097 2.922-5.213 2.363-9.333 2.273-4.98-.316-9.85-1.13-14.765-1.976l-3.397-.563q-5.425-.905-10.845-1.832a10435 10435 0 0 0-18.571-3.15c-6.895-1.15-13.779-2.145-20.726-2.916l-4.43-.532c-2.594-.313-5.16-.55-7.77-.75-5.242-.637-8.263-1.266-11.934-5.212-2.391-3.273-4.392-6.76-6.444-10.252a150 150 0 0 0-3.625-4.82l-1.687-2.164-1.688-2.141-1.817-2.32A790 790 0 0 0 619.125 766l-2.078-2.543a241 241 0 0 0-4.406-5.133l-2.266-2.636-2.04-2.301C607 751 607 751 607.146 747.977 610.287 737.043 619.429 727.15 626 718l1.705-2.383c5.082-7.1 10.168-14.203 15.42-21.18l1.508-2.003c2.047-2.147 4.027-2.41 6.913-2.608l3.063-.072 3.445-.096 3.696-.096c10.334-.309 20.587-.888 30.876-1.902 8.81-.86 15.398-.733 23.687 2.528" id="svg-layer-6" style="pointer-events: all;"/><path fill="#668A9E" d="M435 554c6.653 4.187 9.91 14.349 11.613 21.617.348 2.142.648 4.217.762 6.383l.148 1.938c-1.093 4.308-4.94 6.663-8.449 9.062l-3.387 2-1.931 1.142c-5.985 3.495-12.09 6.765-18.193 10.045-19.134 10.282-37.707 21.433-56.172 32.864a2413 2413 0 0 1-18.204 11.136 2493 2493 0 0 0-21.875 13.438 1278 1278 0 0 1-20.125 12.25c-13.263 7.915-26.353 16.117-39.37 24.43-11.484 7.328-23.15 14.105-35.141 20.566-8.916 4.812-17.733 9.651-26.264 15.12-7.55 4.806-15.336 9.212-23.102 13.657q-3.16 1.809-6.313 3.631a338 338 0 0 1-5.94 3.332l-2.721 1.53-2.397 1.313c-2.4 1.913-3.032 3.657-3.939 6.546l-.77-1.668c-3.768-7.143-8.972-13.53-14.98-18.894C137 744 137 744 137 741c2.093-1.6 4.145-2.988 6.375-4.375q2.083-1.341 4.16-2.691l2.22-1.442c3.76-2.498 7.408-5.148 11.058-7.804l2.287-1.66q4.563-3.317 9.115-6.65c19.304-14.134 39.246-27.005 59.736-39.334 12.967-7.805 25.79-15.817 38.459-24.097 14.545-9.505 29.257-18.753 43.953-28.021q4.655-2.937 9.305-5.883a2600 2600 0 0 1 24.52-15.356c15.932-9.846 31.828-19.75 47.625-29.812l3.145-1.997c4.94-3.16 9.802-6.38 14.558-9.812l2.594-1.857a226 226 0 0 0 4.704-3.489c5.155-3.723 7.98-4.436 14.186-2.72" id="svg-layer-7" style="pointer-events: all;"/><path fill="#D37B22" d="M302.188 711.313q2.002.192 4.007.377c3.943.377 7.872.839 11.805 1.31l3.366.376q4.353.494 8.697 1.062l2.553.33c4.379.655 7.86 1.364 11.384 4.232 1.555 2.355 1.555 2.355 2.875 5.188l1.543 3.273a782 782 0 0 1 5.607 12.819c1.842 4.282 3.821 8.473 5.9 12.646l1.537 3.106a515 515 0 0 0 3.07 6.075c3.465 6.998 3.465 6.998 3.48 11.307-1.092 2.79-2.236 4.575-4.2 6.836l-2.18 2.594-1.248 1.48c-2.815 3.41-5.493 6.928-8.197 10.426a1745 1745 0 0 1-11.683 14.946 1940 1940 0 0 1-2.728 3.439c-3.53 4.469-6.777 9.105-9.924 13.853-2.302 2.5-3.524 2.614-6.852 3.012-2.275-.279-2.275-.279-4.656-.863l-2.797-.674-3.047-.775-3.205-.801c-3.06-.772-6.116-1.557-9.172-2.344-2.292-.586-4.588-1.16-6.884-1.732a1416 1416 0 0 1-12.654-3.224q-2.52-.649-5.045-1.277a524 524 0 0 1-7.13-1.845l-2.18-.527c-3.07-.84-4.861-1.35-6.59-4.105-.21-.935-.422-1.87-.64-2.833l-.838-3.618q-.417-2.09-.818-4.183l-.448-2.285q-.467-2.396-.928-4.793-.692-3.583-1.402-7.162c-6.283-32.158-6.283-32.158-3.566-38.959 2.213-2.956 4.807-5.254 7.625-7.625q2.115-1.861 4.227-3.727l2.102-1.823c2.619-2.336 5.075-4.81 7.536-7.311 2.335-2.341 4.842-4.447 7.38-6.562C280 719 280 719 281.648 716.892c5.964-7.401 11.621-6.63 20.54-5.58" id="svg-layer-8" style="pointer-events: all;"/><path fill="#678B9F" d="M775 606c6.96 5.751 13.198 12.142 19.53 18.568 4.986 5.033 10.048 9.87 15.47 14.432l1.62 1.366a548 548 0 0 0 4.255 3.509l2.805 2.305C821 648 821 648 823 649a2088 2088 0 0 1-2.156 15.148 513 513 0 0 0-1.5 11.079l-.657 4.773-.245 2.224c-.527 3.607-1.313 5.629-3.727 8.378-5.136 3.7-11.108 6.156-16.84 8.773l-3.574 1.691-3.434 1.582-3.121 1.443c-2.913.964-4 1.207-6.746-.091-1.578-1.558-1.578-1.558-3.25-3.547-5.837-6.059-13.258-9.136-20.75-12.703q-2.157-1.049-4.312-2.102a1206 1206 0 0 0-8.201-3.961 242 242 0 0 1-7.776-3.937c-4.818-2.42-9.942-3.931-15.086-5.5l-2.96-.957c-6.375-1.958-12.005-2.72-18.665-2.293-.162-7.308.447-14.372 1.313-21.625l.357-3.312c1.608-13.623 1.608-13.623 6.818-18.293 4.753-2.395 9.566-3.73 14.7-5.082l3.29-.896c5.915-1.6 11.847-3.138 17.784-4.66l3.603-.924q3.414-.87 6.835-1.723A175 175 0 0 0 775 606" id="svg-layer-9" style="pointer-events: all;"/><path fill="#00233B" d="M738.496 727.668c6.184 5.76 9.173 12.232 9.723 20.707.193 7.735-.09 11.888-5.13 17.906-9.67 9.97-19.635 13.41-33.402 14.032-16.613-.508-35.343-6.418-47.484-18.032-6.846-7.456-9.6-15.456-9.48-25.468.422-4.283 1.88-7.288 4.277-10.813l1.285-1.906c5.184-6.816 12.57-9.366 20.809-10.778 20.455-2.227 43.074 1.242 59.402 14.352" id="svg-layer-10" style="pointer-events: all;"/><path fill="#6A8DA0" d="m869 786 7 6 1.575 1.225c5.046 4.044 8.486 8.662 12.05 14.025l1.656 2.41C901 824.052 901 824.052 901 829l-2.592.487q-5.956 1.125-11.908 2.263l-2.156.41c-7.946 1.52-15.844 3.095-23.657 5.215-15.903 4.092-30.512-1.49-45.687-6.375-.812-2.187-.812-2.187-1-5 7.712-9.354 19.828-16.048 29.723-22.988q4.186-2.939 8.336-5.93l1.922-1.385q1.779-1.284 3.554-2.576C864.64 788 864.64 788 869 788z" id="svg-layer-11" style="pointer-events: all;"/><path fill="#00243D" d="M322.332 747.438c6.43 4.962 8.908 11.266 10.043 19.175.393 7.896-2.337 14.123-7.25 20.2-4.3 4.68-8.794 7.853-15.212 8.348q-3.613.068-7.226.089l-2.513.063c-6.788.042-11.477-1.118-16.861-5.5-5.486-6.672-6.947-11.925-6.625-20.637.85-8.648 4.237-14.956 10.312-21.176 10.926-8.561 23.702-7.732 35.332-.562" id="svg-layer-12" style="pointer-events: all;"/><path fill="#678B9F" d="M602 779a442 442 0 0 1 15.125 13.438l2.09 1.908c10.393 9.668 10.393 9.668 11.16 15.513L630 812.75l-.41 3.348L629 820l-.684 4.996q-.373 2.596-.754 5.192l-.369 2.54c-.956 6.035-.956 6.035-3.193 8.272l-2.125-2.16c-8.589-8.688-8.589-8.688-12.937-12.465l-1.875-1.645a118 118 0 0 0-4.813-3.804l-2.812-2.239-2.63-1.988c-2.404-3.588-2.008-5.64-1.379-9.812 1.063-5.377 2.301-10.696 3.634-16.012l.853-3.477q1.033-4.2 2.084-8.398" id="svg-layer-13" style="pointer-events: all;"/><path fill="#00060A" d="m493.438 139.5 2.794.723Q499.62 141.1 503 142c-5.08 1.591-9.576-.24-14.537-1.617-4.802-1.244-8.554-1.717-13.463-.383-2.434 1.848-2.434 1.848-4.437 4.063l-2.06 2.222L467 148c0-3.522.567-4.058 2.813-6.625l1.582-1.852c5.765-5.47 15.332-1.81 22.043-.023" id="svg-layer-14" style="pointer-events: all;"/><path fill="#00121F" d="M624.313 458.25 626 459l-2.237 1.25c-2.71 1.717-4.725 3.482-6.97 5.762l-2.275 2.295c-.77.785-1.538 1.571-2.33 2.38l-2.39 2.417A1807 1807 0 0 0 604 479c0-3 0-3 1.828-5.086l2.422-2.289c2.508-2.418 4.821-4.714 7-7.437 5.093-6.367 5.093-6.367 9.063-5.938" id="svg-layer-15" style="pointer-events: all;"/><path fill="#000C14" d="m230 411 2 1-1.8.926c-7.688 4.244-13.262 9.73-19.2 16.074 0-4.527 2.528-6.455 5.496-9.7 3.967-3.644 8.478-6.354 13.504-8.3" id="svg-layer-16" style="pointer-events: all;"/><path fill="#000D17" d="m124 401 2 1-13 13c0-3.904 1.218-4.725 3.813-7.562l2.144-2.38C121 403 121 403 124 401" id="svg-layer-17" style="pointer-events: all;"/><path fill="#000F1A" d="M473 138h2c-1.382 3.21-2.924 5.05-5.625 7.25l-1.914 1.578L466 148c1.85-3.94 4.076-6.783 7-10" id="svg-layer-18" style="pointer-events: all;"/></svg>