<svg xmlns="http://www.w3.org/2000/svg" width="1024" height="1024"><path fill="none" d="M0 0h1024v1024H0zm452.688 69.813-3.256.788c-3.15.775-6.292 1.58-9.432 2.399l-2.698.699C400.458 83.449 364.717 102.27 335 126l-3.07 2.43c-5.281 4.251-10.38 8.68-15.387 13.25a534 534 0 0 1-5.367 4.828c-4.76 4.247-9.275 8.496-13.38 13.383-2.13 2.502-4.37 4.89-6.608 7.297C265.894 195.068 246.086 230.066 235 266l-.627 2.028c-1.297 4.29-2.383 8.603-3.373 12.972l-.453 1.938c-6.516 28.808-4.39 61.684 11.426 87.19C249.08 380.196 257.414 387.648 268 394l1.833 1.112C317.371 423.392 382.653 428.367 437 428c-6.57 59.31-18.992 116.238-33.531 174.053q-3.186 12.678-6.351 25.36a5084 5084 0 0 1-4.017 15.984c-11.676 46.122-22.361 93.352-22.288 141.165l.002 2.414c.031 12.116.305 24.033 2.185 36.024l.424 2.857c3.66 23.85 10.512 48.11 22.576 69.143l1.547 2.82c13.248 23.29 35.811 37.667 60.965 45.356 10.138 2.395 19.89 3.182 30.3 3.136l2.002-.005c23.831-.11 45.495-6.746 63.186-23.307 16.683-17.034 21.244-37.887 21.438-61l.02-2.302c.113-29.9-3.97-59.922-7.078-89.622-.934-9.004-1.715-17.96-2.005-27.014l-.117-3.01c-.436-12.03-.26-23.864.742-35.865q.285-3.477.563-6.957l.253-3.05c.216-3.737.212-7.437.184-11.18l2.971.351c24.502 2.881 48.539 4.708 73.217 4.774l2.449.009c8.51.02 16.904-.063 25.363-1.134-3.843 48.323-17.173 90.666-39.974 133.475-14.063 26.44-27.74 56.258-19.026 86.525 5.477 14.993 17.684 26.248 31.885 32.962C664.52 948.698 687.572 950.505 708 943c9.143-3.7 17.68-8.329 25-15l2.445-2.168c43.44-40.716 43.216-118.796 45.115-173.963.782-24.943.537-49.918.44-74.869l1.958.023c7.409.051 14.514-.65 21.855-1.648l3.957-.536c41.808-5.823 101.683-14.92 130.449-49.292 11.65-16.657 13.42-36.454 10.129-56.238-7.33-34.86-33.47-64.973-62.348-84.309-21.434-13.75-45.882-21.694-70.687-26.75l-2.947-.602c-16.973-3.288-33.549-4.02-50.803-3.96l-3.356.005c-16.248.045-32.177.411-48.207 3.307l-3.045.536A296 296 0 0 0 667 468l-2.058.674c-21.877 7.281-41.424 18.768-59.439 32.98-6.519 5.05-12.61 7.09-20.503 9.346l1-84h13a532 532 0 0 0 9.059-.297l2.456-.1c166.208-7.042 166.208-7.042 210.9-55.205 16.674-19.672 17.12-47.806 15.378-72.305C832.503 252.836 811.485 209.37 782 174l-2.266-2.824C768.357 157.162 755.391 143.919 741 133l-2.918-2.328c-41.748-33.167-91.32-53.92-143.832-62.422l-3.63-.602c-22.02-3.364-44.327-4.003-66.567-3.964-3.75.004-7.5-.02-11.25-.045-20.265-.054-40.393 1.245-60.115 6.173M148 449l-2.46 2.055c-29.688 25.667-47.753 68.13-50.759 106.756-.662 15.547.3 29.131 11.219 41.189 12.584 11.456 28.522 15.613 45.25 14.938 14.428-.839 28.79-4.339 42.75-7.938 1.714 13.78 3.227 27.571 4.422 41.406l.191 2.208c1.165 13.6 2.046 27.21 2.852 40.835l.183 3.096q.84 14.244 1.652 28.49c1.974 34.546 4.046 69.206 9.575 103.403l.377 2.393c2.198 13.91 5 27.587 8.748 41.169l.734 2.718c3.153 11.564 7.073 22.479 12.266 33.282l1.39 3.012c9.455 19.045 29.625 32.247 49.383 38.926 14.173 3.302 28.479.737 41.2-6.016 10.485-6.656 17.872-14.852 21.277-26.985 2.26-10.615 2.11-21.045.625-31.75l-.281-2.404c-2.492-18.093-9.934-35.362-16.45-52.279-20.446-53.245-32.224-107.688-43.44-163.519q-2.033-10.104-4.079-20.204c-3.56-17.59-7.11-35.182-10.625-52.781l2.222-.405c51.979-9.509 51.979-9.509 66.688-30.294 7.559-13.02 8.747-25.631 4.99-40.05-5.803-20.56-17.354-38.782-31.9-54.251l-1.636-1.765C301.985 450.985 288.084 440.374 272 432l-2.719-1.457C231.533 411.726 179.285 422.579 148 449" id="svg-layer-0" style="pointer-events: all; fill: none;"/><path fill="#00253D" d="m503.996 63.832 23.108-.057c22.307-.051 44.656.752 66.708 4.35l1.958.314C667.25 80.006 739.763 117.237 784 176q1.42 1.83 2.844 3.656A273 273 0 0 1 806 208l1.273 2.148C830.69 249.964 844.871 301.005 834 347c-5.957 20.594-21.77 36.765-40.239 47.098-54.868 29.149-125.068 30.113-185.702 32.605l-2.205.094c-6.63.254-13.201.203-19.854.203l-1 84c13.553-4.518 13.553-4.518 17.625-7.25l2.742-1.836c2.542-1.848 4.963-3.785 7.383-5.789 36.346-29.506 89.364-42.125 135.453-42.328l3.15-.017q3.288-.014 6.576-.02c3.271-.01 6.542-.04 9.813-.072 36.035-.182 74.762 6.529 106.508 24.333a270 270 0 0 0 5.438 2.94c7.835 4.226 14.645 9.15 21.312 15.039l2.516 2.184A370 370 0 0 1 911 505l2.648 2.414c19.18 18.19 35.849 45.883 36.653 72.828q.021 3.317.011 6.633l.05 3.316c.009 16.41-5.198 29.333-16.565 41.188-33.885 31.755-103.42 45.79-148.027 45.637l-2.712-.007L781 677l.007 1.732C781.74 876.905 781.74 876.905 740 921l-2.258 2.527c-13.569 14.507-32.423 22.846-52.183 23.793-22.169.64-42.008-4.58-58.868-19.558-10.878-11.163-16.386-24.103-16.941-39.7.45-30.173 16.89-58.234 30.625-84.187C659.503 767.637 669.945 727.898 672 687l-3.934.488c-7.695.763-15.404.71-23.129.7l-2.441-.001c-24.981-.039-49.757-1.598-74.496-5.187l-.184 3.594-.254 4.906-.134 2.608c-.25 4.766-.53 9.527-.856 14.288-.512 7.555-.733 15.036-.572 22.604l.048 2.331c.446 18.95 2.263 37.701 4.207 56.54.572 5.555 1.131 11.111 1.692 16.667q.445 4.403.898 8.805c2.29 22.33 2.29 22.33 2.358 33.458l.017 2.318q.014 2.396.02 4.79c.01 2.39.041 4.778.072 7.167.149 21.557-4.635 41.783-19.55 58.186-20.419 20.147-44.408 25.151-72.317 24.971-27.686-.31-53.003-11.836-73.195-30.545C387.383 891.465 377.97 854.954 373 823l-.36-2.285c-4.985-33.651-1.084-68.213 4.235-101.528l.354-2.225c4.461-27.73 11.341-54.87 18.135-82.098q1.872-7.511 3.738-15.022l.742-2.988 2.967-11.94c3.503-14.094 6.994-28.19 10.452-42.294l1.39-5.66c10.482-42.602 17.8-85.328 22.347-128.96l-1.8-.044c-143.213-3.825-143.213-3.825-187.387-50.144C229.025 355.638 226.296 326.919 228 299c1.399-14.471 5.03-28.371 10-42l.875-2.407c9.87-26.723 23.77-51.054 41.125-73.593l2.336-3.055c4.25-5.382 8.778-9.89 13.898-14.439 4.757-4.31 9.288-8.844 13.829-13.381l2.873-2.836 2.724-2.719 2.457-2.445C320 140 320 140 321 137a118 118 0 0 1 6.25-5.062l1.924-1.476a1483 1483 0 0 1 3.945-3.014c1.673-1.288 3.32-2.61 4.963-3.936 45.54-36.468 107.45-59.623 165.914-59.68M378 131l-3.145 1.98C356.916 144.628 340.544 158.355 325 173l-2.586 2.422c-6.33 6.11-11.74 12.735-17.027 19.743a695 695 0 0 1-4.106 5.362C293.68 210.514 287.231 221.116 281 232l-1.176 2.047c-13.086 23-29.886 58.687-23.357 85.9.48 1.694 1.003 3.375 1.533 5.053l3.348-1.504c52.607-23.168 112.178-25.023 168.777-28.683l3.948-.257q12.96-.837 25.927-1.556l3.056-.171c19.34-1.043 38.696-1.016 58.059-1.014q5.538 0 11.076-.02c32.548-.12 64.961.837 97.371 4.017l2.656.255c130.322 12.548 130.322 12.548 170.216 41.902C804 339 804 339 806 339c2.596-7.932 2.397-15.991 2.375-24.25l-.002-2.301c-.04-12.25-1.06-23.611-4.373-35.449l-.617-2.39c-7.548-29.218-21.846-55-40.383-78.61l-1.438-1.836C748.272 177.44 732.355 161.46 715 149q-1.65-1.239-3.293-2.484C668.65 114.32 614.963 98.066 562 93l-2.913-.29c-10.122-.903-20.245-.953-30.4-.96l-2.855-.002C473.147 91.808 422.928 102.466 378 131M273 351c-1.63 3.26-1.467 5.378-1 9 8.214 14.54 28.29 19.7 43.203 23.903C355.246 394.793 395.556 400.077 437 399l.044-1.847c.403-15.428 1.404-30.71 2.94-46.06.886-9.08 1.186-17.972 1.016-27.093-138.99-2.84-138.99-2.84-168 27m201.563 7.188c-3.497 6.292-3.95 12.621-4.352 19.671l-.404 6.156-.211 3.314c-1.182 18.334-2.72 36.596-4.705 54.858l-.281 2.586c-.93 8.545-1.88 17.088-2.86 25.627a3263 3263 0 0 0-1.08 9.622c-.251 2.233-.515 4.464-.78 6.696l-.446 4.027-.408 3.53L459 497c2 2 2 2 4.124 2.195l2.735-.07 3.243-.051 3.648-.074c15.496-.164 30.953.352 46.438.938l3.61.132q5.186.192 10.37.395l3.12.117c5.904.24 11.749.667 17.624 1.316L556 502c4.952-4.952 2.263-26.58 2.352-33.664l.07-5.05q.072-5.282.136-10.565.064-5.288.145-10.574c.288-18.939.394-37.858-.055-56.795l-.048-2.38a839 839 0 0 0-.173-6.65l-.102-3.787c-.43-4.68-1.167-8.931-3.95-12.785-11.492-8.467-28.923-5.936-42.44-5.935-3.126-.003-6.252-.02-9.378-.04l-6.037-.005-2.795-.022c-14.27.05-14.27.05-19.163 4.44m149.25 164.062C611.47 531.283 598.877 535.142 584 538c-21.038 4.044-40.745 12.902-53.562 30.813A469 469 0 0 0 527 574l-1.598 2.371c-3.998 6.227-10.207 16.39-9.03 24.043L517 602l1.938-2.125C558.28 561.187 655.098 558.867 708 555l3.885-.292c13.478-.926 26.976-.895 40.479-.893q4.05 0 8.099-.02c23.251-.117 46.358.768 69.412 3.955l3.712.506c66.896 9.53 66.896 9.53 86.081 29.478C921 589 921 589 923 589c.212-5.886-.388-10.846-2-16.5l-.669-2.354c-8.303-27.655-29.038-50.17-54.057-63.889A393 393 0 0 0 860 503l-2.064-1.055C829.099 487.514 796.818 483.513 765 482l-2.274-.11c-49.58-2.02-98.98 10.797-138.913 40.36M722 582l-3.894.2c-12.274.665-24.5 1.518-36.668 3.3l-2.453.359c-3.632.584-6.826 1.197-9.985 3.141 15.627 31.18 15.627 31.18 22.815 33.615 2.419.426 4.687.524 7.143.543l2.987.03 3.223.023 6.838.086c3.571.04 7.143.078 10.714.104 43.358.352 43.358.352 55.675 11.673 3.232 3.877 5.41 8.406 7.605 12.926 32.359-2.092 65.22-9.673 95.875-20.187l2.734-.936c15.307-5.48 15.307-5.48 19.391-11.877.574-3.199.224-4.603-1.375-7.437C864.585 570.429 770.432 579.515 722 582m-94.578 12.379c-12.181.907-24.807 2.75-36.422 6.621 3.527 12.325 14.229 18.86 24.827 24.814C633.57 635.497 650.647 639.971 671 639l3-1c-1.756-6.499-5.348-11.596-8.997-17.161-2.838-4.354-5.504-8.694-7.901-13.308-6.808-12.74-6.808-12.74-12.747-14.789a49 49 0 0 0-10.162.875c-2.263.395-4.48.6-6.771.762M567 608a62 62 0 0 0-7.5 2.5c-.715.28-1.43.56-2.166.85C536.68 619.642 536.68 619.642 532 629c-.506 4.385-.454 6.359 2.133 10.012 15.596 17.612 52.863 19.285 74.32 20.68 14.476.776 29.136 1.06 43.547-.692-1-2-1-2-2.952-2.71-.854-.22-1.707-.44-2.587-.665l-2.915-.781-3.171-.844c-8.84-2.461-17.285-5.37-25.687-9.062l-2.759-1.21c-16.54-7.447-30.288-16.239-40.35-31.591C570 610 570 610 567 608m-150.937 93.938c-4.933 7.323-7.003 15.025-8.625 23.625l-.636 3.276c-7.668 40.75-14.614 96.23 9.198 133.161 2.944 3.721 5.65 6.41 10.332 7.586 4.37.304 6.169-.191 9.668-2.961 4.025-5.282 3.436-10.15 3-16.625-.905-5.613-2.124-11.143-3.375-16.687-4.31-19.28-6.004-37.6-5.937-57.375l.002-3.139c.028-15.14.573-29.873 3.31-44.799l1.188-6.875.46-2.652c.775-5.451 1.262-10.446-1.023-15.535-2-2.386-2.967-2.864-6.05-3.211-7.747-.273-7.747-.273-11.512 2.21M700 712c-1.38 3.928-2.43 7.75-3.191 11.84-8.188 42.519-22.515 82.504-43.309 120.535-8.596 15.83-15.487 33.817-12.031 52.105 2.409 7.414 7.802 12.63 14.386 16.457 13.38 6.63 28.062 6.233 42.145 2.063 17.51-7.201 27.027-21.762 34.313-38.668 9.867-24.456 13.317-50.781 15.937-76.832l.252-2.497c2.03-20.43 2.647-40.728 2.56-61.253q-.008-3.187-.013-6.375-.017-7.687-.049-15.375c-35.683-2.388-35.683-2.388-51-2" id="svg-layer-1" style="pointer-events: all;"/><path fill="#F9E8CD" d="m524 94 2.125.438c3.356.656 6.463.693 9.875.562l1-1c2.345-.104 4.654-.14 7-.125l2.153.006c5.925.047 11.824.34 17.734.763 3.671.254 7.283.353 10.965.29 5.337-.022 10.403.686 15.648 1.629l2.978.53C626.79 103.31 657.994 115.503 688 131v2c1.928 1.389 1.928 1.389 4.594 2.969l2.87 1.73 3.036 1.801a992 992 0 0 1 5.906 3.531l2.666 1.58L709 146v2l2.176.715c3.29 1.497 5.386 3.373 8.011 5.847 4.648 4.356 4.648 4.356 6.813 5.438v2h2v2l4 2v2l1.688.688c4.131 2.345 7.026 5.923 10 9.562C746 181 746 181 748 182v2l1.773.719c2.7 1.553 4.01 3.282 5.852 5.781 1.724 2.319 3.33 4.456 5.375 6.5q1.589 1.98 3.125 4l1.633 2.125C767 205 767 205 767 207h2l1.438 3.188c1.93 3.91 4.305 7.292 6.875 10.812 4.385 6.081 7.35 12.45 10.18 19.371C789 244 789 244 790.511 246.957c1.798 3.677 3.11 7.423 4.426 11.293 1.944 5.63 3.963 11.19 6.3 16.672.858 2.34 1.325 4.627 1.762 7.078l.563 2.813L804 287h2c2.224 8.226 2.308 16.389 2.26 24.841-.01 2.287 0 4.572.013 6.858l-.007 4.434-.007 3.996c-.283 4.223-1.12 7.805-2.259 11.871-4.004-1.46-7.429-3.409-11.062-5.625-8.2-4.86-16.97-8.193-25.87-11.54-2.905-1.173-5.493-2.392-7.978-4.308-2.41-1.76-4.77-2.824-7.528-3.964l-2.808-1.184c-30.492-11.2-64.171-14.836-96.379-17.754l-2.816-.257c-6.173-.497-6.173-.497-9.559.632a138 138 0 0 1-5.036-.623c-9.567-1.398-19.066-1.514-28.714-1.44-12.781.098-25.488-.18-38.25-.937l1-2-2.471.018c-8.705.034-17.387-.162-26.086-.446-13.064-.418-26.122-.68-39.193-.697l-3.937-.014c-7.877.012-15.682.352-23.537.89-5.255.347-10.513.552-15.776.749-14.828.601-14.828.601-21.062.938l-3.598.183c-2.92.331-5.45.985-8.251 1.828-11.251 2.968-23.208 3.295-34.756 4.182-40.115 3.108-80.408 6.959-118.576 20.452-3.908 1.373-7.649 2.372-11.757 2.917-.341-12.769-.242-24.571 3-37l.691-2.937c1.739-6.994 4.394-13.485 7.309-20.063l1.152-2.64A405 405 0 0 1 278 250l1.672-3.543c5.41-11.231 11.73-21.887 18.328-32.457l1.178-1.917c.885-1.398 1.845-2.748 2.822-4.083h2l.813-2.25C306 203 306 203 307.625 200.875 309 199 309 199 309 196l1.938-.875C313 194 313 194 314 192h2l.813-2.437L318 187l3-1a88 88 0 0 0 2-4c4.099-5.833 9.722-10.134 15.188-14.625C341 165 341 165 343.156 162.77c10.344-10.074 22.559-18.279 34.937-25.627a290 290 0 0 0 5.571-3.44C406.223 119.6 432.067 108.91 458 103l2.205-.521c15.945-3.657 32.269-4.792 48.533-6.173l2.822-.242q2.666-.228 5.333-.443c5.996-.51 5.996-.51 7.107-1.621" id="svg-layer-2" style="pointer-events: all;"/><path fill="#00233A" d="M301.844 452.383A233 233 0 0 1 309 459l2.7 2.543c19.406 18.757 37.633 46.074 38.613 73.895-.276 11.504-4.612 22.837-12.5 31.312C320.61 582.552 296.35 587.515 274 591c4.327 21.658 8.669 43.313 13.055 64.959q1.716 8.467 3.418 16.938c4.79 23.856 9.733 47.653 15.402 71.318l.679 2.84c7.426 30.953 17.617 60.526 29.098 90.195 9.991 25.944 20.351 55.264 10.786 83-4.101 9.234-11.82 15.837-20.438 20.75l-1.922 1.145c-12.537 6.916-27.03 7.552-40.7 4.015-21.767-7.474-39.196-22.61-49.412-43.032-26.799-55.454-27.343-124.69-30.998-185.013q-.24-3.986-.484-7.97c-.488-8.041-.974-16.082-1.444-24.124-1.569-26.762-3.68-53.415-7.04-80.021l-3.82.988c-24.38 6.154-50.592 12.123-73.938-.476-4.239-2.707-7.909-5.728-11.242-9.512l-1.492-1.668c-9.692-11.693-9.8-25.86-8.508-40.332 5.24-40.226 23.057-83.35 55.938-108.875 48.118-33.966 106.112-31.276 150.906 6.258M158 477l-1.996 1.957c-20.863 22.115-32.562 59.115-33.504 88.98.228 6.64 2.093 9.783 6.875 14.313 7.831 5.22 17.167 5.251 26.137 3.672l2.447-.41c9.932-1.735 19.724-4.12 29.525-6.467 16.769-4.005 33.548-7.856 50.516-10.92l2.282-.412c8.483-1.522 16.983-2.926 25.491-4.291l2.453-.397c3.832-.62 7.666-1.23 11.504-1.81 7.164-1.115 14.078-2.57 21.012-4.707l1.998-.613c7.431-2.41 12.877-6.409 17.26-12.895 3.716-11.147-.869-22.51-5.727-32.578-14.447-26.516-38.084-48.37-67.023-57.797-32.956-9.184-65.224.695-89.25 24.375m80.75 161.938-2.758.552c-6.71 1.37-6.71 1.37-8.992 2.51l.64 10.098a19608 19608 0 0 0 1.376 21.48l.23 3.583q.672 10.488 1.322 20.978C241.888 880.687 241.888 880.687 271 908l1.676 1.664c8.389 7.83 19.826 10.938 31.164 10.578 6.574-.737 10.669-3.13 14.933-8.133 3.029-5.208 3.542-10.69 3.602-16.609l.086-3.781c-.653-11.761-5.673-23.585-9.774-34.469l-1.478-3.982c-1.734-4.673-3.484-9.34-5.238-14.004A1019 1019 0 0 1 300 823l-1.055-2.955c-5.88-16.644-10.9-33.481-15.632-50.482l-.8-2.85c-7.865-28.117-13.61-56.614-18.903-85.303-1.131-6.122-2.274-12.242-3.414-18.363q-.587-3.15-1.167-6.302c-1.226-6.613-2.514-13.192-4.029-19.745-5.623-.289-10.78.799-16.25 1.938" id="svg-layer-3" style="pointer-events: all;"/><path fill="#F9E8CD" d="m805.75 486 3.305.578q3.975.698 7.945 1.422l1 3 1.879.262c22.984 3.646 50.473 15.09 67.121 31.738l2.3.8c13.326 5.921 23.402 26.177 28.494 39.054 3.242 8.607 5.74 16.88 5.206 26.146-3.31-1.471-5.713-3.38-8.437-5.75-27.9-22.499-75.251-25.579-109.563-28.25l-3.274-.265c-13.272-.933-26.55-.922-39.85-.92-4.01 0-8.02-.02-12.03-.04-18.042-.04-35.867.74-53.846 2.225l-2.79.23c-5.264.443-10.52.956-15.773 1.52l-2.351.25c-37.512 4.027-74.453 11.264-110.805 21.3a240 240 0 0 1-13.457 3.308c-7.906 1.699-14.9 4.699-22.136 8.283L526 592l-2-1c16.67-32.112 16.67-32.112 34-40l2.727-1.258c7.978-3.516 15.889-5.45 24.41-7.174 16.702-3.408 30.671-8.943 44.676-18.943C641.523 515.29 653.92 508.874 667 503l2.793-1.281c13.513-6.14 27.432-9.897 42.068-12.157 2.036-.315 4.068-.647 6.1-.98 6.386-1.024 12.562-1.88 19.039-1.582l1-2 3.624.016q6.65.026 13.301.039 2.88.008 5.759.02c2.758.013 5.515.018 8.273.023l2.604.015h2.427l2.133.007c10.346-.662 19.12-1.04 29.629.88M217 449c24.288-1.242 46.404 7.68 65 23 3.945 3.802 7.48 7.814 11 12l2.36 2.73C313 507.391 313 507.391 313 517l2 1c2.108 5.83 3.218 11.872 4 18l1 2c-1.905 6.191-4.935 9.145-10 13l-2.258 1.961c-8.235 6.123-19.984 6.97-29.927 8.502-3.988.618-7.97 1.277-11.952 1.928l-2.496.405c-8.383 1.364-16.758 2.764-25.117 4.266l-2.27.408c-18.318 3.333-36.414 7.705-54.504 12.087-37.809 9.086-37.809 9.086-50.351 2.63-3.676-2.573-6.119-5.175-8.125-9.187-1.13-11.955 1.499-23.383 4-35h4l.41-1.625c4.03-14.672 11.34-28.09 18.59-41.375h2l.23-1.629c1.072-3.302 2.968-5.565 5.083-8.308l2.363-3.09L162 480l2.16-2.766c1.797-2.182 3.457-3.725 5.84-5.234h2v-2c12.006-9.287 25.115-13.888 40.016-16.129C215 453 215 453 216.422 450.911z" id="svg-layer-4" style="pointer-events: all;"/><path fill="#F9E9CD" d="m714.125 711.988 2.128.069q2.235.075 4.468.164c2.243.09 4.485.165 6.728.238 7.875.27 15.714.698 23.551 1.541.382 44.568.382 44.568-.875 64.375l-.238 3.816a488 488 0 0 1-1.77 19.473l-.426 3.96c-.706 3.45-1.572 4.693-3.691 7.376-.616 2.59-.616 2.59-.95 5.508l-.38 3.242c-.06.557-.06.557-.357 3.375l-.393 3.305c-.556 4.918-.977 9.687-.807 14.636.08 5.892-1.517 11.153-3.238 16.746l-.96 3.19C733.78 873.145 730.875 882.544 723 890c-1.868 2.317-3.387 4.636-4.937 7.188-2.28 3.11-2.62 3.009-6.063 3.812a78 78 0 0 0-2 5c-3.583 5.65-8.65 8.163-15 9.75l-2 .25v-2l-3.812 1c-8.163 1.781-15.505 1.756-23.313-1.344C664 913 664 913 661 913a180 180 0 0 1-4-4l-2.375-1.25c-4.811-3.208-7.894-6.94-9.367-12.602-2.272-18.683 7.605-39.126 16.523-55.067 7.105-12.908 12.487-26.849 18.123-40.444.848-2.04 1.711-4.074 2.58-6.106 7.507-17.98 13.088-36.701 17.516-55.656l.88-3.75c1.379-6.099 2.466-11.974 2.714-18.23 1.1-5.136 6.46-4.051 10.531-3.907" id="svg-layer-5" style="pointer-events: all;"/><path fill="#7E9298" d="m496.379 353.734 2.94-.005q3.068-.002 6.134.01c3.077.01 6.152 0 9.229-.012C544.979 353.7 544.979 353.7 554 359c4.23 5.543 4.18 11.57 4.352 18.309l.071 2.564q.11 4.282.202 8.565l.068 3.007c.422 19.744.253 39.475-.034 59.218l-.099 6.965q-.078 5.573-.173 11.146-.05 3.027-.096 6.055c-.12 6.523-.328 13.04-.688 19.554l-.201 3.77L557 501c-2.486 1.243-3.653.937-6.394.596-5.765-.644-11.51-.914-17.305-1.131l-3.34-.13q-5.324-.204-10.649-.397l-3.647-.136c-18.564-.686-37.09-1.098-55.665-.802-1.45-2.898-.807-5.043-.443-8.255l.217-1.958q.236-2.123.48-4.244.392-3.42.768-6.844.543-4.913 1.093-9.827c3.117-27.867 5.91-55.686 7.604-83.682l.204-3.156q.183-2.847.332-5.697c.399-6.177 1.094-13.035 5.095-18.018 5.464-4.368 14.405-3.614 21.029-3.585" id="svg-layer-6" style="pointer-events: all;"/><path fill="#F9E9CD" d="M252 638c1.398 4.194 2.114 8.474 2.938 12.813l.513 2.638c1.19 6.237 2.128 12.488 3.006 18.775.993 6.9 2.13 13.776 3.293 20.649l.386 2.29c2.18 12.833 4.942 25.405 8.408 37.96C271 735 271 735 271 737h2l-.125 2.875C273 743 273 743 275 745l1 7q.617 1.95 1.313 3.875c1.844 5.236 3.03 10.599 4.241 16.01.935 4.133 2.035 8.11 3.446 12.115l1.375 4.125.77 2.29q.954 2.89 1.867 5.796l1.05 3.289.973 3.094C292 805 292 805 294 806c.89 2.14 1.683 4.322 2.434 6.516l.708 2.045q.76 2.194 1.51 4.39a1936 1936 0 0 0 4.032 11.639l.833 2.391c3.093 8.833 6.433 17.567 9.828 26.288 12.745 33.002 12.745 33.002 7.467 48.356-3.195 5.95-6.149 9.87-12.66 11.906-7.91 1.723-16.66.35-24.152-2.531-1.379-2.11-1.379-2.11-2-4l1-1-1.469-.996C274.27 905.85 267.238 899.498 264 891v-3h-2c-11.797-33.523-18.046-68.907-21.64-104.21C240 781 240 781 239 779v-7q-.495-2-1-4c-.585-4.55-1-9.12-1.437-13.687l-.198-2.047c-1.048-10.931-1.88-21.869-2.553-32.828l-.129-2.046A371 371 0 0 1 233 690h-2l.016-2.124q.029-4.782.047-9.563l.025-3.342.01-3.233.016-2.967c-.111-2.705-.559-5.127-1.114-7.771q-.207-2.428-.316-4.863l-.127-2.686-.12-2.764-.13-2.822A2351 2351 0 0 1 229 641c3.268-.7 6.54-1.383 9.813-2.062l2.814-.604 2.705-.557 2.491-.523C249 637 249 637 252 638" id="svg-layer-7" style="pointer-events: all;"/><path fill="#D56D18" d="M901 606c2.536 2.867 3 3.532 3 7.5-1.212 4.242-2.446 5.014-6 7.5-25.116 13.544-56.65 19-84.437 23.875l-3.496.616C802.064 646.827 794.1 647.549 786 648l-1.177-2.372c-4.485-8.909-9.157-14.364-18.706-17.689-15.355-4.627-30.981-4.417-46.867-4.501a2359 2359 0 0 1-10.63-.092q-3.28-.037-6.561-.044l-2.988-.03-2.61-.014c-3.643-.382-6.507-1.341-9.164-3.895C679.996 609.684 673.543 599.26 669 588c11.932-2.75 23.805-4.061 36-5 .654-.05.654-.05 3.96-.309 4.346-.29 8.69-.501 13.04-.691l3.243-.153C865.529 575.482 865.529 575.482 901 606M441 324c.183 9.829-.247 19.401-1.225 29.182-1.52 15.265-2.408 30.478-2.775 45.818-47.357 1.23-123.974-.3-160.934-33.75-2.89-2.99-3.97-4.698-4.691-8.875.742-4.005 1.86-5.421 4.625-8.375 42.852-27.67 116.204-24.436 165-24" id="svg-layer-8" style="pointer-events: all;"/><path fill="#7D9298" d="m424.313 699.75 2.925-.078c3.184.378 4.489 1.102 6.762 3.328 2.763 8.288.468 17.616-.937 26q-.55 3.343-1.09 6.688l-.492 2.949c-1.136 7.945-1.646 15.789-1.684 23.812l-.017 2.953q-.014 3.085-.02 6.17c-.01 3.063-.04 6.125-.072 9.188-.111 20.308 2.574 39.64 7.326 59.355 3.922 17.095 3.922 17.095 1.163 23.922-1.444 2.266-2.76 3.755-5.177 4.963-3.967.724-7.473.77-11.125-1.07-14.204-11.042-17.426-33.647-19.687-50.305-4.07-33.987-3.774-79.804 10.812-111.625 2.598-2.863 2.598-2.863 5-5 1.723-1.723 3.967-1.213 6.313-1.25" id="svg-layer-9" style="pointer-events: all;"/><path fill="#D56D18" d="M567 608c3.79 2.211 5.903 5.188 8.313 8.75 15.4 22.49 45.164 31.789 70.42 38.602 1.772.493 3.523 1.064 5.267 1.648l1 2c-35.868 4.359-83.381 2.55-115-17-3.376-2.678-4.8-5.1-5.75-9.375 1.262-6.098 5.036-9.582 9.914-13.254 7.908-5.065 16.956-8.41 25.836-11.371M635.887 593.273c4.236-.64 8.106-1.036 12.113.727 4.774 4.417 7.56 10.565 10.52 16.262 2.44 4.516 5.292 8.76 8.105 13.05 3.121 4.785 5.868 9.11 7.375 14.688-15.466 5.155-36.34-1.252-50.266-8.047-27.398-13.816-27.398-13.816-31.918-26.195L591 601c12.445-3.291 24.858-6.125 37.77-6.773 3.23-.227 3.23-.227 7.117-.954" id="svg-layer-10" style="pointer-events: all;"/><path fill="#F4EFE4" d="M506 93v2h5l1 2-2.525.196c-35.23 2.814-67.032 9.48-99.475 23.804l-2.476 1.087C397.205 126.66 387.514 131.934 378 138l-1.818 1.147c-8.829 5.6-17.118 11.763-25.28 18.295l-2.199 1.75-1.948 1.568C345 162 345 162 342 163a259 259 0 0 0-2 4c-1.84 1.816-1.84 1.816-3.937 3.563-3.932 3.299-3.932 3.299-5.692 5.152C329 177 329 177 327 177l-.75 1.688c-2.386 4.413-5.73 7.792-9.25 11.312l-1 2h-2l-1 3-3 2a206 206 0 0 0-2 5c-2 3.313-2 3.313-4 6h-2l-.648 1.95c-1.884 4.251-4.437 7.977-6.977 11.863C288.926 230.284 284.332 238.92 280 248a1607 1607 0 0 1-2.687 5.125c-2.53 5.043-4.353 10.3-6.188 15.629a150 150 0 0 1-2.75 7.308c-2.076 5.461-3.2 11.229-4.375 16.938l-.582 2.719c-.602 4.723-.522 9.4-.48 14.156l.013 2.953q.018 3.585.049 7.172l5-1c-2.725 3.366-6.069 4.442-10 6-8.72-22.891 4.393-54.069 13.692-74.846C284.415 222.432 301.752 196.897 323 175l2.586-2.707c4.923-5.056 10.075-9.631 15.594-14.027a201 201 0 0 0 5.515-4.594c18.286-15.79 39.43-28.504 61.305-38.672l2.129-.991C439.925 100.349 473.094 92.048 506 93" id="svg-layer-11" style="pointer-events: all;"/><path fill="#F3EEE3" d="m738 483-1 4-3.263.456C694.213 493.023 694.213 493.023 678 499l-2.875.984c-6.483 2.37-12.481 5.78-18.527 9.079-2.848 1.548-5.731 2.985-8.66 4.375-7.459 3.679-14.464 8.43-21.27 13.195-13.916 9.738-28.252 14.571-44.823 17.45C571.468 545.895 561.533 548.6 553 555l-2.437 1.375c-6.966 4.417-11.354 9.58-15.563 16.625l-1.022 1.71a665 665 0 0 0-3.29 5.602l-1.06 1.815c-1.66 2.907-3.062 5.553-3.628 8.873l3-1.46q2-.959 4-1.915l1.965-.96c4.612-2.193 9.047-3.563 14.035-4.665v2l-3.148 1.102c-10.47 3.74-20.194 7.522-27.852 15.898l-2 1c.993-17.212 12.977-33.584 25.125-45.125 13.764-11.744 29.563-16.31 47-19.498 14.822-2.863 27.474-8.827 39.583-17.826C657.938 497.106 699.878 481.77 738 483M703.563 711.938 707 712l-2 2a89 89 0 0 0-.945 6.27c-2.535 19.267-7.781 37.846-14.117 56.168l-.756 2.185c-4.324 12.439-8.883 24.857-14.557 36.752l-1.777 3.746-.914 1.914a850 850 0 0 0-2.875 6.125c-2.964 6.355-5.955 12.678-9.164 18.913-7.921 15.449-17.06 34.26-12.895 51.927 3.379 7.212 9.566 10.945 16.563 14.188L666 913l3.125 1.125c7.926 1.79 15.886.923 23.875-.125v2c-14.025 2.936-27.448 3.025-40-5-6.114-4.319-10.57-9.436-12-17-1.742-22.737 7.923-41.514 18.33-61.067 19.598-36.903 32.302-76.653 39.225-117.862.76-3.54 1.136-3.066 5.008-3.134" id="svg-layer-12" style="pointer-events: all;"/><path fill="#F2EDE2" d="M234 737h2l.26 3.058q.479 5.625.967 11.249.21 2.432.416 4.865.298 3.5.603 7l.183 2.191c.292 3.308.707 6.433 1.571 9.637v5l1 1c.375 2.44.694 4.869.98 7.32l.58 4.705.309 2.519c3.639 29.454 8.279 59.35 18.467 87.347C262 885 262 885 262 888h2l1.031 2.344c4.467 9.6 9.883 16.204 18.969 21.656l-2 4c-22.018-13.456-28.193-35.927-34.062-59.812C238.95 818.07 232.834 776.252 234 737" id="svg-layer-13" style="pointer-events: all;"/><path fill="#F1EBE1" d="m637.32 293.376 2.532.284 2.275.27C644 294 644 294 646 293c4.534.147 9.049.675 13.563 1.125l2.062.201c11.005 1.086 21.943 2.51 32.875 4.174l2.032.307c12.805 1.952 25.566 4.24 38.093 7.568l2.404.634c6.868 1.862 13.39 4.284 19.971 6.991l3 1v2l5 1v1c-5.323-.579-10.308-1.478-15.496-2.855q-2.164-.566-4.328-1.128l-2.275-.596C698.634 302.903 653.49 297.897 608 294c8.595-4.555 19.983-1.71 29.32-.624" id="svg-layer-14" style="pointer-events: all;"/><path fill="#F5EFE3" d="m188 457 1 4-2.437.375L184 462l-1 2a88 88 0 0 1-4.437 3.125l-2.434 1.633C174 470 174 470 172 470v2l-2.574 1.59c-4.412 2.8-7.166 6.821-10.238 10.973l-1.772 2.326c-4.271 5.676-4.271 5.676-5.416 9.111h-2l-.77 2.578c-1.303 3.624-3.027 6.837-4.917 10.172-5.64 10.235-9.702 21.153-13.313 32.25l-1-2h-2c.551-5.95 1.786-11.098 3.875-16.687l.917-2.458c10.152-26.242 25.336-49.291 51.177-62.007C186 457 186 457 188 457" id="svg-layer-15" style="pointer-events: all;"/><path fill="#EEE9DF" d="M687 132c5.604 1.492 9.834 4.274 14.563 7.5l2.406 1.629C715.815 149.213 726.69 158.036 737 168l2.148 2.065c9.18 8.869 17.965 17.773 25.5 28.095a368 368 0 0 0 4.485 5.934C785.35 225.528 806 259.072 806 287h-2c-1.624-4.176-3.128-8.321-4.375-12.625-1.927-6.558-4.258-12.964-6.625-19.375l-.965-2.625c-5.095-13.295-12.1-25.692-20.031-37.477C769 210.328 769 210.328 769 207h-2c-1.516-1.687-1.516-1.687-3.25-4l-1.879-2.484L760 198l-1.652-2.203q-1.501-2.001-3-4.004c-4.96-6.6-4.96-6.6-7.348-7.793v-2l-1.687-.625c-3.283-1.952-5.02-4.317-7.313-7.375v-2l-1.766-.812c-2.262-1.203-4.04-2.526-5.984-4.188l-1.86-1.562C728 164 728 164 728 162h-2v-2l-1.648-.715c-2.977-1.626-5.38-3.668-7.977-5.847-5.18-4.34-5.18-4.34-7.375-5.438v-2l-1.95-.652c-4.243-1.875-7.988-4.374-11.862-6.91l-2.39-1.538c-4.3-2.796-4.3-2.796-5.798-3.9z" id="svg-layer-16" style="pointer-events: all;"/><path fill="#EEEADF" d="M252 637h3q1.724 8.53 3.438 17.063l.536 2.666a2937 2937 0 0 1 6.35 32.478l.579 3.057 2.292 12.132c2.435 12.88 4.998 25.69 8.218 38.4l.689 2.778.604 2.331c.325 2.318.008 3.883-.706 6.095-1.74-3.23-2.907-6.501-4-10l-.687-2.187C272 740 272 740 273 737h-2c-5.626-18.135-9.052-36.749-12.25-55.437l-.396-2.314c-2.214-12.988-2.214-12.988-2.884-18.451-.341-2.757-.72-5.464-1.224-8.193l-.4-2.205-.828-4.484C252.47 642.9 252 640.072 252 637" id="svg-layer-17" style="pointer-events: all;"/><path fill="#FBF4E7" d="m503.563 287.875 2.242.003c14.93.02 29.851.36 44.775.766l2.556.07q2.357.065 4.714.134c4.385.123 8.763.172 13.15.152l1 2h-96c5.737-5.737 19.786-3.152 27.563-3.125" id="svg-layer-18" style="pointer-events: all;"/><path fill="#EFEAE0" d="M286 477c16.049 7.073 26.902 29.462 33.156 44.844 2.393 7.001 3.036 14.282.844 21.406-3.363 4.625-7.506 8.919-13 10.75 1.342-4.026 3.487-4.752 7-7 3.143-2.47 4.02-5.159 5-9l-1-2-.375-2.937c-2.764-20.453-14.286-36.501-28.07-51.166C286 478.099 286 478.099 286 477" id="svg-layer-19" style="pointer-events: all;"/><path fill="#EFE9DD" d="M506 92c46.59-.413 46.59-.413 66 2l-2 2a93 93 0 0 1-7.625-.375c-6.132-.453-12.225-.746-18.375-.75l-2.084-.013c-4.791.013-4.791.013-5.916 1.138-4.55.262-7.884-.005-12-2l-1 2q-3.406.039-6.812.063l-3.833.035C509 96 509 96 506 95z" id="svg-layer-20" style="pointer-events: all;"/><path fill="#EAE7DD" d="M818 489c26.68 3.409 51.612 17.04 72 34l-3 1c-1.68-1.371-3.35-2.757-4.965-4.203C864.515 504.329 840.187 496.852 818 491z" id="svg-layer-21" style="pointer-events: all;"/><path fill="#E7E4DB" d="M476 290c1.537.225 3.08.408 4.625.563l2.477.253L485 291v1l-3.738.168-20.03.902A4180 4180 0 0 0 422 295c3.253-2.586 5.003-3.384 9.188-3.562l3.437-.188 2.023-.105c2.81-.173 5.61-.407 8.414-.645l3.297-.28q3.266-.276 6.53-.56c17.537-1.447 17.537-1.447 21.111.34" id="svg-layer-22" style="pointer-events: all;"/><path fill="#E9E6DD" d="M784 483c-7.824 5.216-20.384 3.113-29.562 3.063q-2.397-.009-4.792-.014-5.823-.017-11.646-.049v-3c15.396-1.606 30.593-.929 46 0" id="svg-layer-23" style="pointer-events: all;"/><path fill="#F5EFE2" d="m214.813 449.938 2.394.027L219 450v3l-3.77.77c-8.822 1.818-17.587 3.666-26.23 6.23l-1-4q4.093-1.222 8.188-2.437l2.33-.698c5.475-1.621 10.54-3.013 16.295-2.928" id="svg-layer-24" style="pointer-events: all;"/><path fill="#EEEAE0" d="M277 754h2l9.96 34.473.831 2.873c1.41 4.882 2.816 9.766 4.209 14.654l-3-1a84 84 0 0 1-2.562-7.75q-.625-2.15-1.254-4.297l-.606-2.086C286 789 286 789 284.968 786.46c-1.292-3.284-2.086-6.661-2.906-10.086-1.407-5.78-2.9-11.52-4.546-17.238C277 757 277 757 277 754" id="svg-layer-25" style="pointer-events: all;"/><path fill="#E8E5DC" d="M231 690h2c1.211 15.678 2.38 31.269 2 47l-2-1c-.41-2.937-.41-2.937-.633-6.86l-.126-2.121a751 751 0 0 1-.246-4.48c-.117-2.239-.248-4.477-.382-6.715-.495-8.615-.732-17.192-.613-25.824" id="svg-layer-26" style="pointer-events: all;"/><path fill="#E3E1D9" d="M227 642h2c.885 3.922 1.25 7.74 1.5 11.75.254 3.898.532 7.756 1.063 11.625.508 4.328.581 8.647.625 13l.039 2.13c.007 3.726-.106 5.313-2.227 8.495z" id="svg-layer-27" style="pointer-events: all;"/><path fill="#EAE7DD" d="M746 809c1.154 3.463.83 5.225.258 8.805l-.543 3.457-.59 3.613-.566 3.59c-.774 4.864-1.565 9.71-2.559 14.535l-2-1a473 473 0 0 1 1.875-21.562l.2-2.055c.464-3.945 1.198-6.454 3.925-9.383" id="svg-layer-28" style="pointer-events: all;"/><path fill="#E9E5DC" d="m726 885 1 2c-4.129 8.315-11.147 19.303-20 23a174 174 0 0 1 2-4l1.313-2.562C712 901 712 901 714.5 899.625c3.442-2.237 3.951-4.882 5.5-8.625 2.625-2.875 2.625-2.875 5-5z" id="svg-layer-29" style="pointer-events: all;"/><path fill="#00131F" d="m319 139 2 1-29 29c0-3 0-3 1.977-5.234l2.648-2.516c2.982-2.886 5.875-5.722 8.5-8.937 2.719-3.277 5.794-5.992 9.043-8.735A75 75 0 0 0 319 139" id="svg-layer-30" style="pointer-events: all;"/></svg>