<svg xmlns="http://www.w3.org/2000/svg" width="1024" height="1024"><path fill="none" d="M0 0h1024v1024H0zm423.027 130.25c-3.457 4.69-6.692 9.528-9.933 14.367-7.358 10.984-14.888 21.814-22.703 32.48a982 982 0 0 0-6.454 8.965l-1.2 1.684c-3.261 4.574-6.5 9.163-9.737 13.754l-4.576 6.482q-1.346 1.906-2.688 3.813C358.05 222.701 350.032 233.35 342 244c-4.108 5.452-8.208 10.91-12.234 16.422-6.477 8.859-13.068 17.573-19.97 26.105-5.953 7.365-11.65 14.927-17.308 22.519-5.323 7.137-10.756 14.137-16.488 20.954l-1.356 1.614q-3.56 4.23-7.144 8.44a397 397 0 0 0-4.25 5.079c-3.11 3.77-6.499 6.926-10.215 10.097a143 143 0 0 0-6.035 5.582l-1.75 1.708C244 364 244 364 244 366l-1.652.652c-3.152 1.81-5.427 4.305-7.91 6.91-4.703 4.824-9.593 9.177-14.875 13.372-2.338 1.884-4.545 3.844-6.75 5.878-5.224 4.695-10.864 8.803-16.5 12.981-4.306 3.191-8.563 6.443-12.813 9.707a1798 1798 0 0 1-18.204 13.772c-4.684 3.504-9.337 7.049-13.981 10.606-7.437 5.694-14.901 11.336-22.502 16.81-.721.519-1.442 1.038-2.184 1.574a1080 1080 0 0 1-11.61 8.222l-2.481 1.752a485 485 0 0 1-4.703 3.276c-5.012 3.549-9.154 6.924-10.366 13.27.068 5.895.415 9.644 4.531 14.218 2.707 2.276 4.948 3.491 8.363 4.379l2.592.688 2.787.71 2.91.766c3.072.807 6.147 1.6 9.223 2.394q4.548 1.187 9.095 2.378l5.88 1.536A753 753 0 0 1 165 518v2a122 122 0 0 1-5.937 4.75q-1.94 1.494-3.875 2.992l-2.075 1.605C143.79 536.64 134.738 544.3 125.75 552l-1.842 1.562c-9.449 8.165-9.449 8.165-10.388 12.817.54 4.034 1.135 6.19 3.73 9.433 3.201 2.28 6.745 3.213 10.484 4.325l3.554 1.065L134 582l-.011 2.724q-.134 32.826-.196 65.652c-.02 10.584-.049 21.167-.095 31.75a8238 8238 0 0 0-.074 27.677c-.006 4.884-.018 9.767-.047 14.65q-.039 6.902-.03 13.802 0 2.528-.024 5.054c-.084 9.727.058 17.947 6.227 25.965 5.359 4.591 10.635 6.677 17.375 8.601l3.333 1.01c3.509 1.059 7.024 2.088 10.542 3.115q4.864 1.447 9.727 2.902 3.543 1.06 7.09 2.114c14.509 4.324 28.933 8.922 43.369 13.484 14.396 4.55 28.803 9.057 43.251 13.438 15.164 4.602 30.253 9.414 45.318 14.33q6.323 2.061 12.647 4.119 8.361 2.722 16.721 5.445a11234 11234 0 0 0 49.652 16.06 30796 30796 0 0 0 22.538 7.233l3.337 1.07c11.533 3.694 23.068 7.37 34.663 10.867 12.615 3.813 25.088 8.05 37.58 12.242 14.074 4.721 28.18 9.3 42.365 13.679a738 738 0 0 1 22.52 7.36l4.923 1.69a894 894 0 0 1 9.315 3.26c9.04 3.15 17.103 5.228 26.609 2.77 7.784-4.758 13.277-12.052 18.914-19.094 2.776-3.348 5.684-6.539 8.649-9.719l1.554-1.67 1.504-1.615C642 872.562 642 872.562 642 870l3-1c4-4.457 4-4.457 4-7l3-1c1.402-1.355 1.402-1.355 2.938-3.187l1.859-2.188L659 853q2.837-3.35 5.688-6.687l1.547-1.817c4.057-4.734 8.265-9.308 12.525-13.86 3.757-4.041 7.245-8.244 10.619-12.613C691 816 691 816 692.715 814.352 694 813 694 813 694 811h2c1.393-1.552 2.714-3.17 4-4.812 4.16-5.223 8.55-10.116 13.129-14.973C715 789 715 789 715 787l3-1a89 89 0 0 0 4.063-4.875c3.195-4.008 6.456-7.857 9.937-11.625 13.345-14.536 13.345-14.536 15-19.5h2c1.27-1.223 1.27-1.223 2.813-3.062l1.878-2.211L756 742q2.286-2.637 4.58-5.268c4.729-5.434 9.415-10.9 14.045-16.42 4.005-4.771 8.156-9.378 12.398-13.94 2.895-3.134 5.627-6.352 8.29-9.684 4.857-6.039 10.16-11.621 15.468-17.258 3.957-4.204 7.75-8.527 11.49-12.924 6.303-7.406 12.684-14.706 19.284-21.85 3.217-3.495 6.347-7.055 9.445-10.656l1.38-1.604c9.684-11.255 9.684-11.255 13.32-15.662 2.3-2.734 2.3-2.734 4.987-5.359 2.053-2.108 3.217-3.684 4.313-6.375h2c1.41-1.398 1.41-1.398 3.063-3.375 2.765-3.254 5.57-6.46 8.437-9.625a887 887 0 0 0 11.5-13l1.438-1.645q2.442-2.797 4.875-5.605l1.6-1.827 1.513-1.751 1.356-1.56c3.115-4.124 3.471-7.295 3.485-12.462l.014-2.086c.013-2.307.011-4.614.01-6.92q.009-2.483.02-4.963c.018-4.494.022-8.988.024-13.482.001-3.752.009-7.505.016-11.257q.023-13.283.02-26.564c-.002-9.13.02-18.26.051-27.392q.038-11.76.036-23.523c0-4.683.005-9.365.026-14.047q.029-6.607.005-13.216-.003-2.421.015-4.843c.015-2.21.006-4.417-.01-6.626l.004-3.742c-.778-5.455-2.937-9.207-7.256-12.755-3.633-1.943-7.191-3.274-11.117-4.484l-2.086-.668A644 644 0 0 0 889 376c3.186-4.32 6.44-8.573 9.813-12.75C918 339.32 918 339.32 918 330c-.98-5.922-2.213-10.027-7.132-13.83-3.64-2.28-7.619-3.528-11.68-4.858l-2.94-.992c-9.285-3.09-18.64-5.963-27.998-8.82l-2.231-.683q-3.157-.962-6.316-1.91l-3.698-1.116C853 297 853 297 850 297c12.185-25.716 12.185-25.716 18.477-37.012 2.748-5.391 4.065-9.914 3.523-15.988-1.955-4.985-4.429-8.86-9.435-11.08l-2.744-.821-3.116-.949-3.357-.974c-1.158-.346-2.315-.69-3.507-1.047-10.978-3.243-22.028-6.212-33.107-9.086-4.593-1.192-9.183-2.396-13.773-3.6l-6.995-1.83a4557 4557 0 0 1-31.216-8.3l-14.818-3.986q-11.428-3.073-22.855-6.136l-7.72-2.071q-11.433-3.068-22.865-6.131a19321 19321 0 0 1-56.117-15.114 66761 66761 0 0 0-55.187-14.937l-1.96-.53a16038 16038 0 0 0-53.267-14.29q-12.157-3.242-24.317-6.474l-9.017-2.4q-3.292-.875-6.586-1.746a1409 1409 0 0 1-22.249-6.092l-6.736-1.89a931 931 0 0 1-6.257-1.8c-14.263-4.053-22.333-4.75-31.772 7.535" id="svg-layer-0" style="pointer-events: all; fill: none;"/><path fill="#002840" d="m455.258 122.754 3.258.884c3.54.963 7.074 1.944 10.609 2.924q3.774 1.032 7.55 2.06 6.842 1.863 13.68 3.74c11.118 3.05 22.257 6.02 33.397 8.988 22.83 6.088 45.634 12.269 68.436 18.463l2.303.625q18.59 5.049 37.178 10.104c27.17 7.385 54.386 14.593 81.6 21.814 29.506 7.829 59.007 15.676 88.468 23.674q7.955 2.158 15.911 4.306 5.993 1.62 11.984 3.245 2.889.782 5.778 1.562c31.224 8.42 31.224 8.42 35.59 15.857 2.755 8.264-.323 14.533-4 22a887 887 0 0 1-7.546 14.463A294 294 0 0 0 850 297l1.68.29c7.745 1.435 15.227 3.612 22.758 5.897l1.99.602c8.242 2.498 16.46 5.06 24.572 7.961l2.24.778c5.465 2.027 10.138 4.556 13.072 9.831 2.251 7.826 1.849 12.693-2.074 19.86-4.515 7.51-9.886 14.195-15.64 20.781-3.36 3.88-6.5 7.909-9.598 12 4.201 2.8 8.778 4.014 13.555 5.586 6.101 2.504 8.909 5.357 11.445 11.414.38 3.36.38 3.36.388 7.097l.016 2.094a744 744 0 0 1 0 6.909l.02 4.968c.019 4.49.018 8.98.012 13.469-.003 3.75.003 7.5.009 11.25q.02 13.27.001 26.54c-.011 9.125.003 18.248.03 27.372q.032 11.757.022 23.514c-.003 4.68 0 9.359.017 14.038q.022 6.6-.008 13.198-.005 2.42.01 4.84c.013 2.205.002 4.409-.016 6.614v3.736c-.77 5.164-3.77 8.678-7.095 12.552l-1.415 1.654-1.491 1.717-1.575 1.827c-4.627 5.335-9.407 10.52-14.218 15.69-8.65 9.336-8.65 9.336-11.707 13.921h-2l-.684 1.648c-1.712 3.06-3.986 5.448-6.379 7.977l-2.988 3.21-1.506 1.613c-6.897 7.417-13.595 15.026-20.158 22.74-5.82 6.834-11.734 13.549-17.828 20.14-2.625 2.854-5.181 5.76-7.723 8.688-4.263 4.878-8.623 9.673-12.992 14.457-3.83 4.21-7.544 8.47-11.117 12.902a222 222 0 0 1-9.937 11.438c-5.552 5.98-10.859 12.151-16.141 18.37-3.137 3.685-6.296 7.353-9.451 11.024l-1.405 1.637-1.355 1.574a154 154 0 0 0-2.723 3.32c-1.164 1.454-2.384 2.863-3.613 4.262h-2c-.22.53-.44 1.06-.668 1.605-1.81 3.255-4.202 5.922-6.644 8.707l-1.586 1.83A2424 2424 0 0 1 733 768a6888 6888 0 0 0-5.343 6.145 1905 1905 0 0 1-3.379 3.88c-2.107 2.42-4.15 4.796-6.024 7.405L717 787h-2l-.742 1.71c-1.485 2.703-3.278 4.663-5.383 6.915-4 4.342-7.67 8.844-11.246 13.54L696 811h-2l-.77 1.734c-1.374 2.532-2.973 4.392-4.918 6.516l-2.171 2.395L684 824a968 968 0 0 0-3.437 3.938 554 554 0 0 1-7.938 8.875 266 266 0 0 0-9.187 10.75c-2.911 3.584-5.848 7.138-8.875 10.625l-1.934 2.23C651 862 651 862 649 862l-.812 1.75c-1.217 2.306-2.491 4.27-4.188 6.25h-2l-.707 1.672c-1.633 2.94-3.686 5.119-5.98 7.578q-1.371 1.482-2.739 2.965L630 885a457 457 0 0 0-9.816 11.36c-15.056 17.911-15.056 17.911-23.447 18.909-7.826.303-14.465-1.766-21.746-4.367-3.928-1.401-7.877-2.742-11.823-4.093l-2.631-.907c-11.91-4.09-23.917-7.882-35.912-11.715a28414 28414 0 0 1-18.072-5.792c-11.824-3.795-23.627-7.655-35.428-11.52-12.363-4.048-24.734-8.042-37.187-11.807-12.495-3.802-24.893-7.906-37.304-11.97-8.333-2.729-16.67-5.44-25.036-8.067-9.777-3.071-19.518-6.248-29.257-9.436q-7.64-2.498-15.282-4.99l-2.99-.975c-20.61-6.721-41.289-13.21-61.992-19.635q-14.65-4.546-29.289-9.124-7.902-2.471-15.805-4.939l-5.933-1.855c-12.626-3.947-25.254-7.884-37.952-11.593l-2.669-.78c-3.945-1.153-7.893-2.292-11.849-3.408l-4.045-1.167-3.425-.967c-4.898-1.83-8.962-4.56-12.36-8.537l-1.453-1.648c-3.183-4.85-3.546-9.7-3.538-15.38l-.005-2.194c-.003-2.413.008-4.827.019-7.24v-5.205c-.002-4.702.01-9.404.024-14.106.013-4.917.014-9.833.016-14.75q.011-13.96.043-27.921c.022-10.598.033-21.195.043-31.792q.032-32.695.101-65.389l-2.712-.798-3.554-1.065-3.524-1.048c-4.325-1.467-6.347-2.51-9.21-6.089-1.261-3.15-1.573-5.65-1-9 1.717-3.304 4.253-5.525 7-8l1.55-1.406C136.46 542.063 151.242 530.506 166 519c-6.534-2.613-13.132-4.44-19.945-6.18q-3.475-.906-6.95-1.816-5.434-1.418-10.875-2.81c-3.52-.902-7.036-1.824-10.55-2.749l-3.277-.82c-6.745-1.797-11.685-3.63-15.75-9.605-.81-2.508-1.027-4.697-1.09-7.332l-.122-2.739c1.24-6.54 5.773-10.492 11.076-14.118l2.108-1.394q2.295-1.569 4.586-3.144l2.393-1.635c3.94-2.726 7.794-5.561 11.646-8.408l2.373-1.752c7.845-5.812 15.601-11.74 23.357-17.67 4.487-3.428 8.997-6.823 13.52-10.203q7.975-5.961 15.852-12.05a776 776 0 0 1 10.585-8.012c9.882-7.405 19.55-14.884 28.606-23.29a238 238 0 0 1 6.644-5.898c3.588-3.1 6.88-6.44 10.149-9.871C242 366 242 366 244 366l.668-1.66c1.75-3.075 4.121-5.342 6.644-7.777l1.436-1.409q2.123-2.08 4.252-4.154l2.652-2.652a270 270 0 0 1 4.051-3.98c4.754-4.587 8.884-9.595 13.002-14.752a807 807 0 0 1 4.186-5.167c4.873-6.004 9.614-12.048 14.046-18.387 4.109-5.874 8.54-11.419 13.097-16.951 5.427-6.614 10.545-13.438 15.633-20.314 1.889-2.547 3.8-5.077 5.708-7.61 4.39-5.849 8.72-11.741 13.048-17.635 3.092-4.204 6.203-8.392 9.354-12.552 6.813-8.994 13.416-18.07 19.733-27.42 3.536-5.224 7.226-10.287 11.053-15.303 3.88-5.152 7.516-10.483 11.2-15.775 3.502-5.027 7.032-10.03 10.612-15.002A383 383 0 0 0 413 145a623 623 0 0 1 9.188-13.5l1.224-1.781c8.79-12.429 18.507-10.723 31.846-6.965M444 152c-2.121 2.21-2.121 2.21-4.437 5.375l-1.294 1.747A681 681 0 0 0 434 165q-1.56 2.138-3.121 4.273c-5.867 8.055-11.627 16.184-17.361 24.334-5.23 7.424-10.553 14.778-15.881 22.131q-2.433 3.363-4.856 6.73c-10.167 14.122-20.375 28.215-31.031 41.973-3.566 4.605-7.095 9.24-10.625 13.872l-2.097 2.75a2110 2110 0 0 0-12.153 16.125c-8.568 11.468-17.315 22.82-26.422 33.867C309 333 309 333 307.984 335.195 307 337 307 337 304 338a91 91 0 0 0-4.125 4.938c-3.026 3.794-6.099 7.481-9.375 11.062a183 183 0 0 0-8.625 10.188c-4.464 5.532-9.421 10.472-14.487 15.453-3.845 3.786-7.488 7.645-10.958 11.78-1.512 1.67-3.113 3.047-4.868 4.454L249 398v2l-1.629.688c-3.11 1.721-5.647 3.984-8.309 6.312-13.531 11.62-28.076 21.871-42.582 32.227-9.982 7.143-19.74 14.528-29.384 22.123q-2.99 2.353-5.987 4.697A1991 1991 0 0 0 141 482c2.883 1.536 5.692 2.6 8.824 3.521l2.917.864 3.161.924c.547.16.547.16 3.312.977q5.361 1.58 10.724 3.151l7.408 2.184q7.398 2.182 14.798 4.36A9377 9377 0 0 1 219 505.937l2.248.668a28762 28762 0 0 1 18.583 5.535c49.388 14.714 98.55 30.19 147.692 45.699l2.34.738 9.36 2.954c24.884 7.854 49.778 15.666 74.727 23.31 18.892 5.79 37.763 11.646 56.631 17.512l16.71 5.194q4.433 1.38 8.87 2.753c6.034 1.873 12.063 3.757 18.061 5.745l2.7.887q2.337.772 4.664 1.576c3.843 1.267 6.534 1.8 10.414.491 2.313-1.437 2.313-1.437 4-3v-2l1.812-.827c2.126-1.14 3.501-2.238 5.193-3.935l1.69-1.68 1.793-1.816 1.883-1.884q1.972-1.977 3.936-3.96 2.976-2.999 5.964-5.984C624.39 587.78 630.42 581.634 636 575q2.149-2.413 4.313-4.812l2.292-2.543c2.501-2.762 5.01-5.516 7.52-8.27a625 625 0 0 0 10.113-11.371 257 257 0 0 1 3.805-4.227c4.871-5.302 9.394-10.782 13.802-16.467 2.951-3.801 5.98-7.514 9.092-11.185 4.943-5.883 9.533-11.999 14.11-18.168a467 467 0 0 1 6.944-9.094C712.995 482.45 717.61 475.847 722 469l1.467-2.284a2935 2935 0 0 0 10.635-16.715q1.89-2.99 3.789-5.975c8.548-13.452 16.698-27.06 24.424-41.001q1.866-3.35 3.757-6.687c5.423-9.574 10.668-19.231 15.803-28.963l1.183-2.24c11.752-22.263 22.62-44.857 33.133-67.727 4.19-9.097 8.61-18.016 13.398-26.816l1.212-2.252 1.067-1.957C833.475 263 834.715 259.517 836 256a106441 106441 0 0 0-30.621-8.143 17995 17995 0 0 0-58.498-15.454 8824 8824 0 0 1-66.138-17.641 17878 17878 0 0 0-65.637-17.617l-7.092-1.89-15.695-4.183q-12.369-3.294-24.745-6.562l-2.343-.62q-5.528-1.46-11.058-2.915c-7.165-1.89-14.31-3.831-21.423-5.912-10.366-3.014-20.808-5.727-31.253-8.45-9.292-2.422-18.568-4.888-27.813-7.48l-2.515-.705a2886 2886 0 0 1-11.947-3.38l-4.292-1.212-3.774-1.077C448 152 448 152 444 152m391 174c-6.238 11.219-12.318 22.488-18 34-4.73 9.571-9.716 18.966-14.875 28.313a931 931 0 0 0-6.5 12c-13.253 24.87-27.596 48.97-42.828 72.68l-1.446 2.267a455 455 0 0 1-2.647 4.097c-.963 1.51-1.843 3.072-2.704 4.643l1 2c8.567-7.854 16.925-15.756 24.676-24.422a141 141 0 0 1 6.074-6.328c3.066-3.007 5.88-6.192 8.672-9.453C788 444 788 444 789.703 442.39 791 441 791 441 791 439h2c1.234-1.223 1.234-1.223 2.75-3.062 2.52-2.981 5.107-5.87 7.79-8.704l1.906-2.015q1.916-2.018 3.842-4.026l1.798-1.9 1.626-1.702C814 416 814 416 815 413h2c1.34-1.328 1.34-1.328 2.938-3.25 3.004-3.538 6.093-6.972 9.25-10.375 8.696-9.44 16.956-19.182 24.808-29.335 2.856-3.664 5.841-7.133 9.004-10.54 3.905-4.213 7.562-8.56 11.125-13.062l1.473-1.844C879 340.244 879 340.244 879 338c-7.448-3.242-15.038-5.588-22.87-7.72a841 841 0 0 1-5.87-1.632l-3.78-1.039-3.409-.938c-2.813-.615-5.206-.809-8.071-.671M194.125 532.313l-1.732 1.357c-5.182 4.092-10.219 8.352-15.237 12.643-11.99 10.243-11.99 10.243-17.156 13.687v2l1.733.512 8.83 2.613 3.563 1.053q10.451 3.092 20.887 6.23c19.755 5.943 39.513 11.82 59.424 17.217 28.339 7.683 56.393 16.319 84.415 25.08 15.441 4.825 30.894 9.62 46.343 14.423l8.029 2.497c27.49 8.553 55.026 16.947 82.583 25.283a4770 4770 0 0 1 22.197 6.783c16.399 5.043 32.8 9.97 49.433 14.184l2.053.528c1.874.478 3.752.94 5.631 1.402l3.17.78c2.836.434 4.114.593 6.709-.585a87 87 0 0 0 5.535-5.172l1.576-1.574q1.645-1.65 3.28-3.309a786 786 0 0 1 5.01-5.023q1.6-1.608 3.197-3.219l1.506-1.503c2.8-2.858 4.988-5.682 6.896-9.2-5.258-2.359-10.544-4.223-16.043-5.934l-2.634-.83q-2.799-.882-5.599-1.76c-16.744-5.253-33.438-10.63-50.045-16.304-8.02-2.723-16.087-5.196-24.226-7.54-11.188-3.22-22.27-6.719-33.345-10.312-16.605-5.384-33.241-10.625-49.983-15.57-12.415-3.67-24.736-7.539-37-11.687a1493 1493 0 0 0-38.937-12.563l-2.645-.814q-7.935-2.441-15.874-4.87-10.672-3.267-21.34-6.544a6285 6285 0 0 0-7.28-2.227c-6.915-2.117-13.807-4.277-20.662-6.584-7.75-2.608-15.557-4.987-23.387-7.336l-10.812-3.256q-6.676-2.011-13.336-4.072l-3.22-.993a1800 1800 0 0 1-5.866-1.823l-2.602-.801-2.236-.696c-4.916-1.234-7.147.912-10.803 3.828m669.271-128.876-1.873 1.993-2.03 2.16-2.118 2.285-2.14 2.262C850 417.745 850 417.745 850 420l-3 1c-1.473 1.46-1.473 1.46-3.062 3.375A356 356 0 0 1 835 434.5c-2.879 3.152-5.723 6.32-8.5 9.563-3.615 4.187-7.576 8-11.559 11.835C813 458 813 458 813 460l-3 1a91 91 0 0 0-4.125 4.938c-6.723 8.4-13.915 16.176-21.562 23.73a170 170 0 0 0-9.739 10.539c-2.163 2.464-4.501 4.73-6.84 7.027-1.746 1.778-3.366 3.62-4.984 5.516-2.933 3.408-6.05 6.594-9.25 9.75-3.053 3.012-6.04 6.035-8.812 9.313-4.048 4.775-8.572 9.09-13.066 13.44l-1.806 1.77-1.642 1.592C727 550 727 550 727 552h-2c-1.234 1.258-1.234 1.258-2.75 3.125-3.544 4.184-7.352 8.027-11.25 11.875-4.232 4.187-8.318 8.397-12.164 12.945-2.996 3.353-6.23 6.468-9.428 9.627a169 169 0 0 0-9.701 10.502c-1.983 2.237-4.079 4.327-6.207 6.426a166 166 0 0 0-9.363 10.078c-3.54 4.011-7.222 7.89-10.882 11.79a485 485 0 0 0-9.755 10.694c-4.305 4.83-8.89 9.353-13.484 13.905-3.55 3.53-6.958 7.113-10.2 10.931-2.438 2.822-4.97 5.554-7.504 8.29l-1.565 1.69-3.18 3.43q-2.969 3.209-5.927 6.428a3223 3223 0 0 1-5.972 6.462l-3.56 3.85q-2.986 3.23-5.983 6.452l-1.874 2.032-1.806 1.937-1.577 1.7L579 708l-2.617 2.823c-1.953 1.588-2.938 2.164-5.474 2.24-2.555-.414-4.988-1.018-7.483-1.708l-2.848-.712a593 593 0 0 1-9.265-2.456q-3.247-.846-6.494-1.69c-18.663-4.921-36.97-10.821-55.253-16.982-8.701-2.92-17.467-5.612-26.253-8.265l-8.88-2.687-2.164-.655c-7.149-2.166-14.27-4.412-21.394-6.658-13.92-4.379-27.894-8.572-41.875-12.75-13.791-4.123-27.579-8.252-41.312-12.562-1.245-.39-2.49-.78-3.771-1.183a4132 4132 0 0 1-16.501-5.214c-27.483-8.75-55.132-16.814-82.876-24.686-22.48-6.379-44.915-12.88-67.168-20.02l-3.524-1.116-3.121-1.002C168 592 168 592 164 592v32c11.896 4 23.815 7.877 35.813 11.563l2.466.76c14.975 4.61 30.02 8.958 45.085 13.263 11.477 3.284 22.864 6.69 34.146 10.599 9.266 3.172 18.69 5.762 28.14 8.32 12.575 3.44 24.95 7.475 37.35 11.495l11.516 3.719 2.865.924a3351 3351 0 0 0 66.239 20.617c14.325 4.295 28.626 8.65 42.88 13.178l2.35.746q4.494 1.427 8.987 2.856c18.721 5.959 37.506 11.698 56.328 17.33l6.202 1.86c11.815 3.549 23.626 6.927 35.633 9.77 5.972-6.413 11.805-12.79 17.148-19.746 2.134-2.597 4.461-4.89 6.852-7.254a914 914 0 0 0 7.125-7.562l1.996-2.133c7.446-7.967 14.875-15.945 22.012-24.192a361 361 0 0 1 5.814-6.384c4.875-5.262 9.521-10.633 13.983-16.256C657 665 657 665 659.758 662.309 662 660 662 660 662 658l3-1a84 84 0 0 0 3.875-4.687c3.692-4.637 7.556-9.005 11.625-13.313 3.917-4.155 7.68-8.35 11.25-12.812 3.466-4.33 7.179-8.22 11.145-12.09 2.506-2.497 4.8-5.128 7.101-7.813 2.06-2.35 4.178-4.635 6.31-6.918 4.177-4.472 8.247-8.958 12.069-13.742 4.234-5.28 8.821-10.16 13.468-15.073 4.17-4.432 8.06-9.011 11.848-13.775 3.33-4.005 6.897-7.78 10.5-11.54C768 541.212 768 541.212 768 539h2c1.508-1.46 1.508-1.46 3.125-3.375l1.633-1.898C776 532 776 532 776 530h2c1.375-1.363 1.375-1.363 3-3.312 3.882-4.588 7.956-8.978 12.059-13.368C795 511 795 511 795 509l3-1c1.508-1.496 1.508-1.496 3.125-3.437a401 401 0 0 1 8.25-9.438l2.309-2.559L814 490l6.684-7.437a809 809 0 0 1 4.789-5.25 345 345 0 0 0 14.117-16.36c7.033-8.618 14.216-16.944 22.176-24.726 2.617-2.609 5.037-5.341 7.441-8.145 2.148-2.495 4.342-4.946 6.543-7.394l2.234-2.489C880 416 880 416 881.766 414.582c1.886-2.418 1.431-4.623 1.234-7.582a3410 3410 0 0 0-7.875-2.5l-2.262-.723c-7.283-2.296-7.283-2.296-9.467-.34M882 458c-1.309 1.47-2.545 3.006-3.75 4.563-3.88 4.863-7.97 9.423-12.25 13.937-4.78 5.058-9.324 10.208-13.68 15.64-8.709 10.733-18.042 20.905-27.523 30.954-15.346 16.276-15.346 16.276-21.094 22.953-3.044 3.491-6.19 6.891-9.312 10.312a341 341 0 0 0-5.641 6.391c-3.426 3.944-6.993 7.75-10.562 11.563-15.7 16.778-15.7 16.778-21.438 23.937-4.884 6.058-10.205 11.666-15.54 17.324A217 217 0 0 0 734.5 623c-3.387 3.94-6.947 7.711-10.5 11.5-4.196 4.476-8.359 8.963-12.363 13.613-2.016 2.324-4.075 4.604-6.137 6.887a596 596 0 0 0-7.875 8.875c-3.454 3.968-7.015 7.833-10.578 11.703a461 461 0 0 0-9.18 10.309 361 361 0 0 1-5.812 6.382c-3.934 4.246-7.751 8.518-11.367 13.043-4.258 5.298-8.864 10.202-13.53 15.136-4.182 4.444-8.077 9.04-11.885 13.81-2.646 3.192-5.439 6.216-8.273 9.242-3.63 3.875-7.117 7.789-10.437 11.938-4.09 5.099-8.472 9.868-12.96 14.616-2.54 2.694-5.01 5.401-7.353 8.27-2.46 2.927-3.506 3.995-7.25 4.676-6.501-.976-12.825-3.072-19.086-5.02l-2.901-.892q-4.695-1.447-9.388-2.9-6.68-2.06-13.36-4.114l-3.4-1.047a3054 3054 0 0 0-21.006-6.382l-2.652-.796-5.233-1.57c-17.151-5.145-34.22-10.522-51.265-16.008-12.8-4.115-25.616-8.05-38.555-11.707-12.557-3.594-24.973-7.62-37.404-11.626-13.82-4.454-27.627-8.892-41.572-12.936-9.552-2.782-19.042-5.749-28.535-8.721a3420 3420 0 0 0-50.518-15.406c-14.46-4.284-28.903-8.613-43.312-13.062l-2.374-.733-11.672-3.607q-11.324-3.501-22.655-6.978-2.406-.74-4.811-1.482-3.3-1.017-6.602-2.029l-3.786-1.165C166 654 166 654 164 654v33a2348 2348 0 0 0 54.276 17.541c7.031 2.18 14.06 4.37 21.087 6.56l2.087.651c11.4 3.556 22.767 7.207 34.113 10.936 11.605 3.81 23.258 7.338 35.01 10.675 11.95 3.426 23.78 7.207 35.615 11.012 13.452 4.325 26.908 8.61 40.437 12.688 18.25 5.507 36.403 11.326 54.563 17.125l2.262.722 15.28 4.883 2.122.678a8080 8080 0 0 1 24.871 7.986q3.09.995 6.176 1.996c6.197 1.995 12.429 3.772 18.726 5.422 12.21 3.245 24.19 7.168 36.191 11.102 7.168 2.35 14.347 4.662 21.527 6.973q4.983 1.606 9.966 3.214l3.337 1.077L584 819q2.125-2.11 4.246-4.223l2.389-2.375C600 802.892 600 802.892 600 800h2c1.351-1.512 2.63-3.088 3.875-4.687 3.595-4.5 7.32-8.792 11.25-13 3.75-4.019 7.44-8.066 11.035-12.223 2.407-2.734 4.873-5.411 7.34-8.09 3.62-3.933 7.19-7.902 10.691-11.941 2.24-2.549 4.523-5.053 6.809-7.559a643 643 0 0 0 10.223-11.473c2.83-3.228 5.717-6.406 8.593-9.593a537 537 0 0 0 5.621-6.371c2.76-3.175 5.59-6.278 8.438-9.375 3.29-3.602 6.445-7.261 9.5-11.063 4.388-5.439 9.09-10.532 13.852-15.64 4.27-4.582 8.357-9.313 12.406-14.09 5.803-6.834 11.726-13.515 17.855-20.059a353 353 0 0 0 9.782-10.86c2.16-2.468 4.384-4.874 6.605-7.288a218 218 0 0 0 9.375-10.938c4.281-5.313 8.903-10.24 13.588-15.193 4.224-4.49 8.173-9.13 12.021-13.948 2.292-2.793 4.693-5.451 7.141-8.109a212 212 0 0 0 9.375-10.875c3.389-4.203 6.937-8.187 10.625-12.125 4.496-4.802 8.724-9.745 12.848-14.875 3.563-4.346 7.37-8.47 11.152-12.625a764 764 0 0 0 3.938-4.375l1.652-1.836C849 520 849 520 850.004 517.836 851 516 851 516 854 515c1.84-2.012 1.84-2.012 3.938-4.687a432 432 0 0 1 11.125-13.375 440 440 0 0 0 12.511-15.145C883 480 883 480 884 479c.087-1.562.107-3.127.098-4.691l-.01-2.862-.025-3.01-.014-3.021A2110 2110 0 0 0 884 458zm-1.562 69.375C878 530 878 530 878 532l-3 1a84 84 0 0 0-3.875 4.688c-3.692 4.636-7.556 9.004-11.625 13.312-4.725 5.012-9.148 10.17-13.453 15.55-2.518 3.014-5.271 5.699-8.086 8.43-2.877 2.963-5.357 6.203-7.899 9.454-2.082 2.59-4.259 5.049-6.5 7.504a215 215 0 0 0-8.875 10.375c-3.828 4.732-7.872 9.191-12.027 13.633-4.254 4.566-8.325 9.27-12.364 14.027a394 394 0 0 1-8.984 10.215 207 207 0 0 0-8.5 10c-5.412 6.696-11.353 12.88-17.251 19.147a378 378 0 0 0-5.936 6.477l-1.586 1.77C747 679 747 679 747 681h-2c-1.414 1.573-2.756 3.211-4.062 4.875-3.048 3.813-6.143 7.523-9.438 11.125-3.02 3.31-5.89 6.687-8.687 10.188-4.306 5.331-8.948 10.282-13.653 15.257-4.203 4.468-8.124 9.088-11.957 13.88-3.757 4.562-7.804 8.86-11.826 13.189-4.971 5.364-9.907 10.764-14.69 16.298-3.308 3.812-6.745 7.498-10.187 11.188-4.013 4.302-7.983 8.624-11.828 13.078-2.03 2.333-4.1 4.627-6.172 6.922l-2.277 2.531a1471 1471 0 0 1-4.352 4.813l-1.933 2.156-1.723 1.906C631 810 631 810 631 812h-2c-1.309 1.47-2.545 3.006-3.75 4.563-4.485 5.617-9.283 10.851-14.218 16.075-3.581 3.796-7.082 7.627-10.407 11.651L599 846l-2.357 2.805c-2.259 1.844-3.212 2.23-6.154 1.994-3.201-.84-6.28-1.866-9.4-2.975l-3.57-1.184a668 668 0 0 1-7.611-2.581 1018 1018 0 0 0-12.042-4.07 3160 3160 0 0 1-12.233-4.094c-10.641-3.59-21.336-6.98-32.076-10.262-16.524-5.053-32.958-10.354-49.37-15.758-16.136-5.31-32.314-10.407-48.602-15.231-14.29-4.235-28.535-8.61-42.772-13.019l-3.56-1.102a21190 21190 0 0 1-36.046-11.195l-2.814-.877-10.989-3.424a7207 7207 0 0 0-41.765-12.863c-16.825-5.134-33.618-10.336-50.347-15.773-9.028-2.93-18.065-5.826-27.103-8.725q-5.067-1.627-10.134-3.26l-6.32-2.027-2.92-.943-2.761-.883-2.382-.766c-3.527-1.039-7.105-1.895-10.672-2.787v31q11.194 3.614 22.39 7.223a7578 7578 0 0 1 15.532 5.023c13.842 4.485 27.726 8.809 41.64 13.062 15.662 4.79 31.258 9.776 46.849 14.791 13.644 4.388 27.307 8.692 41.027 12.838 10.876 3.289 21.684 6.725 32.445 10.376 11.44 3.852 22.966 7.417 34.492 11 14.215 4.419 28.414 8.874 42.563 13.5 15.55 5.081 31.145 10.02 46.75 14.937a14145 14145 0 0 1 56.562 17.938l3.056.975q4.356 1.391 8.71 2.786l2.765.883a646 646 0 0 1 14.158 4.713l2.916 1.003q2.748.947 5.485 1.923l2.475.852 2.164.764c2.384.487 3.755.268 6.021-.587 1.938-2.047 1.938-2.047 4-4.75a201 201 0 0 1 11-12.812l1.55-1.663 3.03-3.247c2.797-3.01 5.535-6.075 8.275-9.137a773 773 0 0 1 4.383-4.844c3.82-4.195 7.519-8.439 11.074-12.86 3.89-4.813 8.017-9.335 12.244-13.848 3.923-4.213 7.563-8.603 11.167-13.093 2.934-3.538 6.05-6.893 9.183-10.255 3.085-3.333 5.996-6.763 8.844-10.303a114 114 0 0 1 9.578-10.524c2.4-2.389 4.588-4.943 6.797-7.508 2.049-2.356 4.147-4.661 6.25-6.968 3.852-4.268 7.494-8.669 11.11-13.137 3.493-4.237 7.106-8.364 10.717-12.5a354 354 0 0 0 9.298-11.114c4.016-4.968 8.33-9.6 12.705-14.248 3.223-3.44 6.29-6.939 9.232-10.626 3.651-4.566 7.55-8.82 11.563-13.063a248 248 0 0 0 13.727-15.758c2.646-3.192 5.439-6.216 8.273-9.242 4.459-4.76 8.638-9.665 12.723-14.754 2.495-3.01 5.115-5.885 7.777-8.746 3.474-3.733 6.8-7.524 10-11.5 3.635-4.518 7.467-8.778 11.414-13.02a190 190 0 0 0 8.586-9.98c3.2-3.976 6.526-7.767 10-11.5 4.293-4.613 8.31-9.384 12.262-14.297 2.286-2.761 4.674-5.388 7.113-8.015 3.932-4.272 7.606-8.685 11.188-13.25l1.446-1.844c3.286-4.23 4.62-6.277 4.589-11.602l-.01-2.988-.025-3.129-.014-3.152Q884.03 528.86 884 525c-1 0-1 0-3.562 2.375" id="svg-layer-1" style="pointer-events: all;"/><path fill="#FDEBC5" d="M444 152c7.325.546 14.145 2.643 21.156 4.719 14.047 4.152 28.162 7.992 42.344 11.656 14.59 3.773 29.121 7.72 43.625 11.813 12.149 3.426 24.3 6.75 36.563 9.75 12.677 3.104 25.281 6.443 37.875 9.875l12.351 3.363 3.31.9c14.622 3.976 29.261 7.89 43.9 11.805l6.948 1.859q29.88 7.996 59.781 15.906a7012 7012 0 0 1 52.172 14.043c10.63 2.895 21.273 5.698 31.975 8.311-4.648 10.866-9.638 21.47-15 32-6.033 11.862-11.873 23.785-17.437 35.875C794.129 344.339 783.934 364.3 773 384l-2.52 4.566a2257 2257 0 0 1-6.138 11.03c-1.46 2.616-2.91 5.239-4.362 7.861-7.01 12.606-14.466 24.833-22.304 36.938a847 847 0 0 0-6.264 9.933c-9.1 14.56-18.579 28.708-29.455 42.004-3.064 3.76-5.95 7.641-8.832 11.543C686.72 516.504 679.916 524.778 673 533l-1.595 1.9c-6.388 7.589-12.976 14.959-19.737 22.217A270 270 0 0 0 645.5 564c-3.56 4.118-7.263 8.1-10.975 12.082a271 271 0 0 0-7.6 8.512c-4.762 5.466-9.9 10.567-15.024 15.69a1541 1541 0 0 0-5.18 5.22l-3.303 3.308-1.56 1.582C598.229 614 598.229 614 596 614v2c-2 2.188-2 2.188-5 4-7.368-.281-14.057-2.8-21-5.125-2.8-.923-5.603-1.838-8.406-2.754l-2.288-.749c-9.907-3.235-19.857-6.332-29.806-9.434l-3.046-.951a18600 18600 0 0 0-53.472-16.573 14279 14279 0 0 1-47.045-14.601l-2.842-.889a21663 21663 0 0 1-39.388-12.365l-18.457-5.809-2.311-.727c-21.425-6.742-42.868-13.417-64.362-19.933-5.826-1.775-11.638-3.59-17.452-5.403C234.585 510.204 187.835 496.494 141 483c2.835-2.878 5.67-5.663 8.785-8.234l2.088-1.725 2.19-1.791 2.299-1.885c5.533-4.513 11.15-8.886 16.913-13.101 2.023-1.482 4.038-2.975 6.053-4.467a2208 2208 0 0 1 23.86-17.422c14.545-10.477 29.023-21.03 42.253-33.16C247 400 247 400 249 400l1-3c1.426-1.367 1.426-1.367 3.313-2.875 4.467-3.777 8.331-7.969 12.256-12.29 2.797-3.076 5.63-6.067 8.618-8.96 3.793-3.73 7.063-7.8 10.387-11.945 3.022-3.65 6.226-7.102 9.46-10.563 3.482-3.756 6.62-7.676 9.626-11.82L305 337h2l.727-1.672c1.568-2.868 3.511-5.102 5.648-7.578 4.518-5.314 8.73-10.81 12.885-16.41 3.798-5.11 7.686-10.142 11.615-15.152 5.496-7.02 10.816-14.154 16.077-21.352 3.51-4.79 7.098-9.503 10.798-14.149 3.92-4.927 7.647-9.952 11.277-15.095 3.53-4.997 7.148-9.924 10.786-14.842 6.254-8.463 12.431-16.98 18.578-25.52q2.42-3.352 4.855-6.69c5.632-7.744 11.144-15.544 16.504-23.477 4.245-6.278 8.622-12.261 13.543-18.032C442 155 442 155 444 152m-6.023 83.797c-2.051 2.286-3.6 4.563-5.164 7.203l-1.543 2.563c-1.14 2.187-1.807 4.03-2.27 6.437 3.743 3.35 6.92 4.867 11.737 6.232l2.011.58c2.21.636 4.424 1.254 6.639 1.872q2.376.677 4.752 1.357c4.285 1.224 8.574 2.433 12.864 3.64 4.507 1.27 9.01 2.555 13.513 3.838a13760 13760 0 0 0 27.99 7.93c12.644 3.57 25.283 7.153 37.923 10.735q5.9 1.673 11.803 3.343c17.527 4.96 35.035 9.962 52.461 15.265 16.166 4.918 32.399 9.6 48.637 14.271l6.345 1.826c10.969 3.157 10.969 3.157 16.166 4.636l6.01 1.71c4.27 1.219 8.53 2.464 12.787 3.725a1943 1943 0 0 0 8.783 2.567q2.082.61 4.16 1.235c15.104 4.547 15.104 4.547 23.099 1.074 3.817-2.54 5.978-4.127 8.008-8.336.352-3.944.08-5.964-1.688-9.5-3.546-4.124-6.333-5.823-11.54-7.297l-2.06-.6q-2.355-.682-4.714-1.345a886 886 0 0 1-8.865-2.565 5482 5482 0 0 0-20.19-5.863q-8.284-2.397-16.565-4.8l-6.397-1.854a18806 18806 0 0 1-43.106-12.551l-3.657-1.07c-11.736-3.434-23.463-6.888-35.144-10.504l-2.631-.815c-3.865-1.199-7.726-2.407-11.582-3.632-10.337-3.26-20.777-6.056-31.257-8.82-15.41-4.074-30.724-8.475-46.044-12.871q-4.676-1.34-9.354-2.676a15919 15919 0 0 1-13.473-3.855c-7.978-2.282-15.927-4.63-23.83-7.165-5.578-1.544-10.328.273-14.614 4.08" id="svg-layer-2" style="pointer-events: all;"/><path fill="#FDEBC7" d="M865 402q3.938.965 7.875 1.938l2.262.552c5.636 1.397 5.636 1.397 7.863 2.51.4 3.775.436 5.44-1.941 8.492l-2.621 2.383c-3.139 2.953-6.193 5.854-9 9.125a526 526 0 0 1-15.586 17.363c-5.807 6.19-11.422 12.421-16.735 19.047-2.887 3.532-5.94 6.898-9.012 10.27a336 336 0 0 0-5.418 6.132c-3.158 3.63-6.416 7.16-9.687 10.688-11.626 12.547-11.626 12.547-14.559 16.715L797 509h-2l-.799 1.775c-1.252 2.32-2.604 3.927-4.424 5.827l-1.88 1.984-1.96 2.039q-1.927 2.016-3.847 4.04l-1.723 1.794C779 528 779 528 778 530h-2l-.75 1.688c-1.48 2.736-3.185 4.989-5.25 7.312h-2l-.652 1.621c-1.84 3.248-4.346 5.763-6.91 8.442-3.763 3.994-7.392 8.015-10.813 12.312-4.236 5.284-8.826 10.167-13.477 15.082-3.327 3.535-6.504 7.112-9.523 10.918-4.61 5.78-9.677 11.094-14.779 16.437a349 349 0 0 0-11.22 12.324c-2.327 2.668-4.724 5.264-7.126 7.864a606 606 0 0 0-12.5 14l-3.176 3.648-3.511 4.04c-.56.642-1.12 1.284-1.695 1.946-2.37 2.732-4.684 5.452-6.888 8.323L664 658h-2l-.676 1.64c-1.745 3.11-4.077 5.539-6.511 8.11l-3.012 3.234-1.47 1.577A215 215 0 0 0 645.5 678c-2.938 3.39-5.961 6.7-9 10a562 562 0 0 0-10.781 12.031c-5.657 6.48-11.48 12.803-17.344 19.094-3.969 4.26-7.895 8.54-11.7 12.95-2.05 2.355-4.143 4.67-6.237 6.987A511 511 0 0 0 580 751c-21.808-5.054-43.248-11.692-64.518-18.639a1040 1040 0 0 0-27.42-8.548c-14.234-4.22-28.396-8.657-42.56-13.106a2781 2781 0 0 0-42.002-12.832 1505 1505 0 0 1-40-12.5l-2.53-.828-4.993-1.636-2.461-.806-2.438-.798c-18.893-6.178-37.865-12.033-57.002-17.412a594 594 0 0 1-22.389-6.832c-9.056-2.95-18.156-5.688-27.312-8.313-16.284-4.668-32.463-9.66-48.643-14.671a2889 2889 0 0 0-23.363-7.113l-2.514-.759-2.136-.641C166 625 166 625 164 624v-32c5.194.742 9.335 1.594 14.246 3.16l4.388 1.38 2.356.748c17.477 5.53 35.063 10.647 52.697 15.65 61.896 17.579 61.896 17.579 90.7 26.933 8.66 2.804 17.355 5.498 26.05 8.192.884.273 1.767.547 2.677.83 14.955 4.629 29.947 9.13 44.949 13.607a2749 2749 0 0 1 51.125 15.786c13.396 4.281 26.828 8.438 40.28 12.542 7.716 2.358 15.4 4.771 23.048 7.344 11.304 3.768 22.772 6.973 34.303 9.967q2.786.73 5.564 1.499c2.606.717 5.221 1.384 7.844 2.042l2.367.68c3.348.791 5.38 1.242 8.429-.547 1.79-1.518 3.389-3.089 4.977-4.813l2.188-2.055a223 223 0 0 0 11.097-12.011c2.186-2.465 4.52-4.753 6.871-7.06 1.779-1.808 3.441-3.67 5.094-5.593 4.25-4.887 8.691-9.58 13.145-14.281 3.143-3.332 6.231-6.693 9.23-10.156 2.836-3.267 5.78-6.322 8.875-9.344a183 183 0 0 0 10.824-11.605c1.816-2.053 3.724-3.972 5.676-5.895 2.48-2.447 4.854-4.921 7.125-7.562 5.12-5.94 10.529-11.614 15.896-17.33q3.066-3.268 6.127-6.542c6.241-6.66 12.497-13.277 19-19.683 1.768-1.797 3.408-3.65 5.04-5.57 4.09-4.79 8.607-9.158 13.102-13.566l1.796-1.77 1.626-1.592C724 554 724 554 725 552h2l.757-1.747c1.417-2.568 3.032-4.253 5.13-6.3l2.345-2.312c.81-.79 1.62-1.578 2.456-2.391 5.113-5 10.079-10.021 14.737-15.45 2.244-2.564 4.637-4.92 7.075-7.3a184 184 0 0 0 10.89-11.672c1.636-1.857 3.345-3.594 5.11-5.328 2.331-2.29 4.51-4.635 6.625-7.125 3.232-3.764 6.713-7.215 10.25-10.687 6.312-6.22 12.146-12.722 17.242-19.997L811 460h2l.812-1.802c1.2-2.22 2.395-3.622 4.2-5.37l1.786-1.75 1.89-1.828c4.386-4.311 8.682-8.616 12.66-13.312 2.8-3.284 5.73-6.451 8.636-9.641C845 424 845 424 846.641 421.703L848 420h2l.81-1.784c1.206-2.247 2.483-3.82 4.23-5.67l1.757-1.874 1.828-1.922 1.852-1.969A1291 1291 0 0 1 865 402" id="svg-layer-3" style="pointer-events: all;"/><path fill="#FDEBC7" d="M882 458h2c1.303 18.32 1.303 18.32-1.465 24.012-2.051 2.197-4.226 4.066-6.535 5.988q-2.177 2.55-4.25 5.188c-4.157 5.13-8.437 10.143-12.765 15.13-2.155 2.493-4.154 4.936-5.985 7.682h-2l-.621 1.59c-1.984 3.468-4.684 6.102-7.442 8.972-4.743 5.02-9.24 10.14-13.566 15.528-7.414 9.1-15.258 17.849-23.18 26.508-4.497 4.93-8.84 9.98-13.14 15.083a579 579 0 0 1-14.016 16.073 534 534 0 0 0-11.68 13.363 517 517 0 0 1-17.698 19.83c-4.09 4.37-7.873 8.933-11.614 13.608-2.501 2.994-5.235 5.66-8.031 8.375-2.227 2.29-4.204 4.7-6.2 7.195-4.67 5.82-9.716 11.227-14.816 16.668-4.366 4.659-8.528 9.478-12.66 14.344-5.602 6.584-11.288 13.055-17.18 19.383a388 388 0 0 0-9.449 10.523A544 544 0 0 1 663.5 730a683 683 0 0 0-8 9c-4.11 4.717-8.307 9.356-12.5 14q-3.382 3.756-6.762 7.516a1486 1486 0 0 1-4.383 4.843c-4.873 5.375-9.617 10.847-14.318 16.371-4.118 4.823-8.362 9.512-12.674 14.16C603 798 603 798 602 800h-2l-.796 1.77c-1.262 2.338-2.638 3.978-4.462 5.902l-1.894 2.012-1.973 2.066-1.996 2.113A1486 1486 0 0 1 584 819l-2.778-.911c-18.134-5.942-36.293-11.794-54.534-17.402l-2.518-.774c-9.22-2.83-18.454-5.591-27.732-8.226-13.744-3.917-27.285-8.49-40.862-12.94-11.487-3.766-22.979-7.506-34.514-11.122l-2.03-.637c-16.83-5.268-33.687-10.447-50.538-15.644a5016 5016 0 0 1-43.104-13.513c-11.561-3.678-23.175-7.136-34.829-10.509-10.865-3.152-21.596-6.608-32.306-10.25-12.67-4.302-25.443-8.216-38.255-12.072-18.796-5.658-37.41-11.69-56-18v-33c17.96 4.49 17.96 4.49 24.316 6.566l4.465 1.442 2.343.763c19.004 6.173 38.117 11.978 57.251 17.729l4.106 1.235q10.043 3.02 20.087 6.034a17451 17451 0 0 1 31.057 9.356l2.634.796a4831 4831 0 0 1 42.368 13.027q5.177 1.613 10.357 3.216c10.079 3.12 20.156 6.243 30.215 9.426 15.378 4.863 30.779 9.624 46.238 14.222 14.386 4.28 28.707 8.735 43 13.313 15.944 5.105 31.916 10.084 47.953 14.888 5.968 1.789 11.928 3.604 17.887 5.42l8.823 2.684q2.868.873 5.735 1.75 4.02 1.226 8.04 2.446l2.392.734c14.441 4.365 14.441 4.365 18.963 2.922 3.135-2.228 5.528-4.593 8.082-7.469l1.44-1.61c3.76-4.237 7.32-8.629 10.87-13.042 3.176-3.803 6.552-7.399 9.939-11.014a180 180 0 0 0 8.876-10.271c4.586-5.714 9.56-11.015 14.567-16.356 4.343-4.635 8.489-9.424 12.59-14.273a535 535 0 0 1 18.538-20.742c3.449-3.664 6.826-7.367 10.106-11.184 1.865-2.125 3.78-4.2 5.702-6.272 4.087-4.41 8.037-8.862 11.81-13.548a114 114 0 0 1 9.59-10.536c1.704-1.696 3.277-3.457 4.847-5.277 3.116-3.61 6.323-7.126 9.563-10.625l1.565-1.692a4732 4732 0 0 1 6.109-6.59c6.856-7.386 13.467-14.945 20-22.616 14.172-16.644 14.172-16.644 21.611-23.895 2.455-2.445 4.698-5.032 6.953-7.66 2.615-2.985 5.312-5.889 8.012-8.797 3.787-4.083 7.518-8.198 11.16-12.41 2.877-3.268 5.836-6.459 8.787-9.66 2.627-2.855 5.21-5.739 7.74-8.68 2.337-2.7 4.771-5.242 7.313-7.75 3.88-3.836 7.448-7.861 11-12q1.505-1.728 3.012-3.453c4.915-5.637 9.809-11.273 14.488-17.11 4.027-4.983 8.353-9.63 12.75-14.285 4.035-4.3 7.719-8.738 11.262-13.457.49-.56.982-1.119 1.488-1.695" id="svg-layer-4" style="pointer-events: all;"/><path fill="#FDECC8" d="M884 525c1.482 21.538 1.482 21.538-3.437 28.25A109 109 0 0 1 876 558a1077 1077 0 0 0-4.437 5l-2.286 2.477c-2.314 2.564-4.488 5.205-6.652 7.898-3.682 4.554-7.554 8.862-11.54 13.146a186 186 0 0 0-8.523 9.917c-3.365 4.184-6.894 8.145-10.562 12.062-4.48 4.783-8.685 9.708-12.79 14.82-3.112 3.774-6.436 7.34-9.75 10.938-2.37 2.642-4.613 5.349-6.835 8.117-4.387 5.437-9.087 10.53-13.848 15.637-4.706 5.05-9.18 10.277-13.619 15.563l-1.408 1.675-1.418 1.687c-3.67 4.34-7.482 8.526-11.351 12.688-2.916 3.156-5.67 6.397-8.356 9.75-3.532 4.393-7.264 8.524-11.125 12.625a253 253 0 0 0-13.137 15.102c-3.361 4.122-6.857 8.123-10.35 12.133q-4.854 5.57-9.642 11.195a583 583 0 0 1-15.914 17.898 389 389 0 0 0-7.723 8.692c-2.007 2.291-4.058 4.54-6.109 6.793-3.11 3.44-6.09 6.95-9 10.562-3.682 4.554-7.554 8.862-11.54 13.146a186 186 0 0 0-8.523 9.917c-4.36 5.416-9.037 10.481-13.777 15.562-2.761 2.961-5.436 5.99-8.086 9.05-3.513 4.031-7.116 7.981-10.699 11.95a8970 8970 0 0 0-6.742 7.496 918 918 0 0 1-4.578 5.04c-4.833 5.299-9.372 10.729-13.68 16.464-7.155-1.45-13.96-3.51-20.879-5.824l-7.094-2.345-5.658-1.878a6815 6815 0 0 0-19.79-6.52c-12.657-4.157-25.355-8.175-38.079-12.12l-11.715-3.637-2.919-.907c-11.33-3.526-22.63-7.145-33.928-10.769l-3.132-1.004L433.232 833q-15.518-4.979-31.045-9.937l-2.986-.955a3760 3760 0 0 0-38.612-12.114 825 825 0 0 1-21.151-6.869c-10.643-3.602-21.373-6.882-32.125-10.138a1694 1694 0 0 1-33.938-10.674 1981 1981 0 0 0-34.875-11.016 6568 6568 0 0 1-27.336-8.436l-5.836-1.808c-13.505-4.176-26.93-8.545-40.328-13.053v-31c12.374 3.375 12.374 3.375 16.463 4.695l2.817.905 2.947.955c1.05.338 2.1.675 3.18 1.024q3.366 1.084 6.73 2.17c5.947 1.92 11.895 3.83 17.843 5.743l3.617 1.164c22.988 7.395 45.974 14.782 69.129 21.642 12.198 3.636 24.326 7.487 36.462 11.327 28.447 9 56.971 17.741 85.503 26.468l13.248 4.053q6.52 1.995 13.04 3.983c16.165 4.94 32.254 10.099 48.334 15.308a17725 17725 0 0 0 18.575 6.009c8.587 2.764 17.197 5.443 25.819 8.093a904 904 0 0 1 27.816 9.05 7416 7416 0 0 0 9.643 3.255q3.274 1.116 6.537 2.267a589 589 0 0 0 9.695 3.291l2.93 1.07c6.538 2.103 6.538 2.103 9.768.466 1.826-1.535 3.361-3.123 4.904-4.938l1.877-1.84 1.404-1.527 1.6-1.731 1.619-1.777 1.72-1.872c6.57-7.172 12.834-14.491 18.862-22.128L629 812h2l.645-1.61c1.877-3.311 4.435-5.9 7.043-8.64q1.641-1.75 3.28-3.504l1.595-1.7c2.306-2.48 4.52-5.036 6.738-7.597 3.513-4.03 7.117-7.98 10.699-11.949l2.188-2.437c4.118-4.59 8.263-9.15 12.437-13.688a530 530 0 0 0 10.574-11.828c2.189-2.488 4.433-4.92 6.676-7.36 3.29-3.6 6.445-7.26 9.5-11.062 3.389-4.203 6.937-8.187 10.625-12.125 4.498-4.804 8.73-9.748 12.852-14.883 2.86-3.483 5.896-6.789 8.937-10.113 3.028-3.429 5.811-7.03 8.582-10.668L745 681h2l.645-1.61c1.878-3.312 4.436-5.9 7.043-8.64l3.292-3.52 1.596-1.701c3.85-4.133 7.498-8.442 11.162-12.74l3.074-3.601 1.568-1.837a418 418 0 0 1 9.808-11.038 223 223 0 0 0 9.5-11.063 112 112 0 0 1 9.507-10.387c3.056-3.155 5.733-6.62 8.485-10.039 2.203-2.682 4.48-5.26 6.82-7.824a222 222 0 0 0 8.875-10.375c3.617-4.47 7.417-8.727 11.33-12.935 3.512-3.794 6.89-7.684 10.232-11.628 4.473-5.274 9.09-10.378 13.822-15.42 3.831-4.113 7.333-8.42 10.718-12.912L876 532h2l.813-1.812C881.629 525 881.629 525 884 525" id="svg-layer-5" style="pointer-events: all;"/><path fill="#E66E0F" d="m248 544 3 2h1q3.501.491 7 1v6h2c1.625-2 1.625-2 3-4l8 2v3l1-2q2.72.65 5.438 1.313l3.058.738c2.617.709 5.136 1.478 7.698 2.35 4.376 1.47 8.778 2.822 13.204 4.13l4.838 1.44 2.537.755c25.673 7.64 51.3 15.45 76.652 24.107 7.112 2.412 14.277 4.599 21.473 6.74 10.501 3.13 20.957 6.404 31.414 9.677l3.165.989a4019 4019 0 0 1 42.343 13.481c6.998 2.269 14.01 4.474 21.055 6.592 23.082 6.948 46.06 14.284 68.938 21.875l3.319 1.098 3.013 1.008 2.573.86c2.188.812 4.218 1.76 6.282 2.847-1.43 4.469-3.881 7.464-7.059 10.809l-1.526 1.607a561 561 0 0 1-3.216 3.325 182 182 0 0 0-3.225 3.43c-8.711 9.507-8.711 9.507-13.73 10.222-2.916-.502-5.47-1.365-8.244-2.393a380 380 0 0 0-6.484-1.523 1291 1291 0 0 1-9.263-2.366c-15.595-4.04-30.948-8.828-46.318-13.64-9.323-2.914-18.668-5.75-28.015-8.585q-4.356-1.322-8.71-2.65a8115 8115 0 0 0-25.838-7.836q-5.46-1.646-10.914-3.306a1535 1535 0 0 0-5.122-1.54c-2.346-.702-4.689-1.414-7.031-2.128l-2.08-.614c-3.64-1.122-6.265-2.446-9.225-4.812-1.874-.733-1.874-.733-3.86-1.254l-2.331-.634-2.559-.674c-9.477-2.605-18.873-5.436-28.25-8.375l-2.088-.654a1239 1239 0 0 1-27.985-9.136c-6.205-2.086-12.45-3.853-18.798-5.449-3.1-.817-6.09-1.8-9.129-2.824-3.682-1.143-7.372-2.258-11.062-3.375-6.22-1.883-12.433-3.778-18.625-5.75-6.482-2.021-13.078-3.587-19.689-5.125l-2.51-.602-2.257-.525C243 585 243 585 241 583c3-1 3-1 7-2h-9l2-4h2v-2h2l.313 1.938L246 579l3 1c-1-3-1-3-2-5l3-3v-2l-1 2c-2.062.625-2.062.625-4 1l-.875-1.937C243 569 243 569 241 568c1.262-2.524 2.5-2.828 5-4l1-1h4l-1-2h-3a91 91 0 0 1 4-4h2l1-3-4 1v-2l-2 2h-2l1-5h2zM451.03 231.735l2.398.585a634 634 0 0 1 14.084 3.918l3.35.961q3.563 1.022 7.123 2.048 9.45 2.718 18.906 5.425l3.86 1.107a9315 9315 0 0 0 36.187 10.284l5.772 1.631c7.435 2.1 14.87 4.199 22.321 6.243 10.852 2.982 21.622 6.172 32.366 9.518 18.755 5.84 37.595 11.37 56.464 16.828l6.78 1.962c13.742 3.98 27.487 7.951 41.254 11.845q6.33 1.791 12.657 3.593c2.807.795 5.617 1.578 8.427 2.36l5.017 1.426 2.225.606c5.838 1.684 10.36 3.796 13.779 8.925 1.247 4.22 1.162 7.309-.797 11.324-3.162 4.405-7.535 6.335-12.717 7.395-5.245.598-9.687-.773-14.681-2.27l-3.019-.864c-3.308-.952-6.61-1.924-9.911-2.897q-3.519-1.02-7.038-2.035a4672 4672 0 0 1-15.004-4.365 5537 5537 0 0 0-21.725-6.299c-22.843-6.584-45.67-13.214-68.42-20.114-16.646-5.048-33.38-9.758-50.133-14.434a7727 7727 0 0 1-59.94-17.002q-3.229-.93-6.459-1.856a4840 4840 0 0 1-22.997-6.663c-2.83-.824-5.663-1.633-8.498-2.438q-2.19-.64-4.376-1.283l-3.562-1.024c-2.98-1.286-4.084-2.418-5.723-5.175 7.725-16.02 7.725-16.02 14-19 3.006-.979 4.97-1.016 8.03-.265" id="svg-layer-6" style="pointer-events: all;"/><path fill="#ED8008" d="M835 326c5.375.573 10.438 1.503 15.64 2.996l2.09.587q2.164.61 4.326 1.228c2.2.628 4.404 1.246 6.608 1.863C875.396 335.99 875.396 335.99 879 338c-4.55 9.773-13.044 17.847-20 26a4459 4459 0 0 0-5.687 6.688l-1.4 1.647a322 322 0 0 0-7.85 9.665c-4.561 5.757-9.586 11.063-14.597 16.425a702 702 0 0 0-6.591 7.2l-2.133 2.352C819 410 819 410 817 413h-2l-.77 1.766c-1.363 2.476-2.872 4.04-4.918 5.984-5.08 4.951-9.686 10.221-14.125 15.75L793 439h-2l-.8 1.797c-1.244 2.283-2.504 3.677-4.388 5.453a111 111 0 0 0-7.187 7.625c-3.301 3.834-6.846 7.365-10.45 10.914-1.933 1.965-3.717 3.976-5.487 6.086-4.732 5.539-10.265 10.28-15.688 15.125l-1-2c.722-1.61.722-1.61 1.922-3.535l1.34-2.174 1.488-2.353 1.524-2.455A703 703 0 0 1 761 459.878c11.477-17.503 21.63-35.792 31.555-54.209 1.408-2.599 2.832-5.188 4.262-7.774 6.48-11.736 12.67-23.603 18.78-35.534A1208 1208 0 0 1 835 326" id="svg-layer-7" style="pointer-events: all;"/><path fill="#EC7E08" d="M202.154 528.143a196 196 0 0 1 17.135 4.677l2.513.799q3.914 1.247 7.823 2.506l5.355 1.707A5792 5792 0 0 1 248 542l.465 2.355A126 126 0 0 0 250 551h-2v3l2-2 1 2h2l2-2 1 3h-2l-2 4h-2c0 1 0 1 2 4l-3 2-1 1-1.875-.625L244 565c-1.75 1.438-1.75 1.438-3 3h4v4l2-1 2 1 1-3 1 5-3 2 2 1-1 4-4-2v-4h-2l1 4-4 1 8 1-1 2h-5l10 4c-4.004 1.001-4.934.995-8.66-.12l-2.802-.824-3.03-.923-3.17-.94c-3.408-1.014-6.81-2.04-10.213-3.068q-3.493-1.043-6.985-2.083a6568 6568 0 0 1-17.076-5.12q-6.432-1.933-12.869-3.856-7.374-2.205-14.742-4.43A703 703 0 0 0 160 562v-2c1.73-1.559 1.73-1.559 4.188-3.437a333 333 0 0 0 12.062-9.875 457 457 0 0 1 14.375-11.75l1.794-1.41c7.122-5.558 7.122-5.558 9.735-5.385" id="svg-layer-8" style="pointer-events: all;"/><path fill="#ED7F08" d="M343 572c11.181 2.474 21.953 6.158 32.813 9.75q5.754 1.896 11.511 3.781l2.821.925a683 683 0 0 0 24.772 7.59c2.045.597 4.067 1.266 6.083 1.954l1 2c-3.916-.59-7.605-1.392-11.383-2.574l-3.226-1.004-3.516-1.11-3.702-1.157C381.093 586.177 362.048 580.08 343 574zM275 551c8.163 1.627 16.017 4.105 23.938 6.625q4.265 1.35 8.53 2.695l2.16.683c4.728 1.49 9.467 2.941 14.216 4.364l3.637 1.095q3.402 1.022 6.81 2.025l3.049.92 2.668.79C342 571 342 571 343 573c-6.284-1.326-12.388-2.931-18.523-4.82l-5.34-1.621q-4.158-1.27-8.315-2.542-4.047-1.235-8.095-2.462l-2.52-.777-2.337-.708-2.051-.628C294 559 294 559 291 559v-2l-1.723-.367c-4.82-1.046-9.55-2.225-14.277-3.633zM324 608c6.711 1.364 13.034 3.26 19.5 5.5 11.652 3.966 23.401 7.558 35.191 11.086 6.806 2.038 13.586 4.114 20.309 6.414-4.14 1.74-7.759.128-11.797-1.176l-2.346-.73c-2.539-.793-5.073-1.6-7.607-2.407l-5.246-1.643q-5.365-1.68-10.725-3.377a3496 3496 0 0 0-14.978-4.694Q335.147 613.498 324 610zM252 587c12.025 1.847 23.62 5.742 35.146 9.538 4.926 1.605 9.797 2.99 14.88 4.003 2.708.63 5.207 1.64 7.783 2.67 3.58 1.289 7.274 2.143 10.968 3.043C323 607 323 607 324 609c-7.062-1.28-13.868-3.025-20.73-5.117l-3.011-.905c-3.15-.946-6.298-1.9-9.447-2.853q-6.207-1.876-12.417-3.742l-2.998-.901A601 601 0 0 0 252 589zM473 613c21.644 5.867 42.864 12.524 64 20-3.71 1.237-4.942.6-8.61-.625l-3.443-1.132L521.25 630q-3.816-1.255-7.633-2.508l-1.942-.64c-6.074-1.997-12.18-3.88-18.3-5.727l-2.737-.828Q486.82 619.145 483 618l-2.866-.86L473 615zM537 633a375 375 0 0 1 21.48 6.355l2.846.93q4.431 1.448 8.861 2.903l6.065 1.982Q583.627 647.58 591 650v3l-3 2 1-3-52-17zM249 543c8.668 1.366 16.747 4.117 25 7v3l-2 1v-3l-2.875-.437C266 550 266 550 264 549l-.75 1.875c-1.456 2.476-2.628 3.076-5.25 4.125v-7c-5.75-1.125-5.75-1.125-8 0z" id="svg-layer-9" style="pointer-events: all;"/><path fill="#ED7F08" d="M422 597c9.85 2.258 19.455 5.204 29.086 8.243 2.632.83 5.268 1.646 7.904 2.462l5.022 1.58 2.389.736c1.886.602 3.746 1.283 5.599 1.979l1 2c-6.482-1.356-12.75-3.055-19.066-5.04a5113.172 5113.172 0 0 1-11.496-3.586l-5.948-1.85A10569 10569 0 0 1 422 599z" id="svg-layer-10" style="pointer-events: all;"/></svg>