<svg xmlns="http://www.w3.org/2000/svg" width="1024" height="1024"><path fill="none" d="M0 0h1024v1024H0zm486 30-2.015.473c-33.782 8.11-61.633 27-79.914 56.728C397.799 97.738 392.808 108.675 392 121l-3.187-.312C385 121 385 121 382.125 123.312c-3.511 4.441-3.29 8.46-3.33 13.883l-.03 2.541a3267 3267 0 0 0-.081 8.389l-.063 5.933q-.066 6.27-.124 12.54-.073 7.827-.158 15.653-.164 15.298-.27 30.597-.067 9.258-.17 18.516c-.04 3.993-.068 7.986-.093 11.979a987 987 0 0 1-.057 5.632c-.034 2.586-.048 5.17-.057 7.755l-.043 2.285c.01 5.512 1.33 9.36 4.683 13.715 4.636 4.563 9.69 8.526 14.868 12.45 2.797 2.138 4.83 3.865 6.8 6.82-.767.23-1.534.461-2.324.7-3.949 1.397-7.704 3.06-11.521 4.779C379.61 302.218 369.199 306.144 358 309c-1.722-2.582-3.265-5.188-4.812-7.875-3.189-5.321-6.364-9.632-12.188-12.125-7.718-1.75-14.18-1.124-21 3-3.082 2.713-5.66 6.101-7 10-.027 2-.03 4 0 6l-2.656-.105c-42.834-.915-83.268 13.212-114.395 43.027-23.069 23.244-35.446 57.118-45.074 87.703l-1.183 3.718c-3.601 11.76-3.601 11.76-2.692 16.657 2.047 2.145 2.047 2.145 4.75 3.813l2.672 1.707A118 118 0 0 0 161 468c-.23.73-.458 1.462-.694 2.215q-3.27 10.433-6.53 20.868-1.676 5.363-3.357 10.723a7270 7270 0 0 0-3.248 10.388q-.908 2.904-1.821 5.806c-1.97 6.325-3.87 12.666-5.634 19.05l-1 3.603c-1.64 7.666-1.64 7.666.307 11.21 3.755 4.026 3.755 4.026 5.977 5.137-.835 8.083-3.345 15.78-5.56 23.572l-.944 3.4-.87 3.071c-.65 3.07-.738 5.828-.626 8.957l-3.75-.187c-10.296.048-18.914 3.29-27.25 9.187l-1.93 1.336C93.516 614.45 88.191 628.239 86 641c-1.636 16.025.705 31.044 9.96 44.52 3.867 4.702 8.533 9.727 14.04 12.48.549 2.622.549 2.622.974 6.18l.242 1.963c.266 2.172.52 4.344.772 6.517q.279 2.31.561 4.618c.498 4.1.985 8.199 1.469 12.3.474 4.002.958 8.004 1.441 12.006q.876 7.246 1.742 14.493a5091 5091 0 0 0 3.959 32.147 4418 4418 0 0 1 5.09 41.906 10132 10132 0 0 0 1.279 10.929l.637 5.428q.814 6.935 1.61 13.872.792 6.898 1.612 13.793.305 2.585.596 5.17c.268 2.377.55 4.752.837 7.126l.227 2.107c.646 5.161 2.078 8.487 5.663 12.233 3.252 1.722 6.324 1.63 9.916 1.6l2.312.016c2.52.013 5.038.005 7.557-.006q2.63.003 5.26.01 5.513.005 11.024-.017c4.705-.017 9.41-.007 14.116.01 3.62.012 7.242.008 10.863 0q2.603-.004 5.204.008c2.427.008 4.854-.004 7.28-.02l2.166.018c4.358-.056 7.174-.652 10.591-3.407 1.714-2.613 2.306-4.959 2.683-8.035l.305-2.41.309-2.617.345-2.78c.377-3.051.743-6.104 1.108-9.158l.793-6.507a6829 6829 0 0 0 2.053-17.11q.582-4.872 1.172-9.743a3327 3327 0 0 0 8.287-76.082q.286-2.924.573-5.848.544-5.571 1.075-11.144l.353-3.622c.592-6.293 1.047-12.57 1.313-18.886l.19-3.95q.171-3.71.255-7.423c.35-7.357 1.815-11.763 6.473-17.519 7.27-9.195 8.862-21.834 7.713-33.166-1.455-5.168-3.66-9.672-8-13h-2a6952 6952 0 0 1 8.75-19.062c.43-.936.862-1.87 1.306-2.834 5.562-12.047 11.227-23.984 17.552-35.653l1.337-2.47 1.141-2.066c.934-1.956 1.465-3.8 1.914-5.915h2l.323 2.358c1.197 8.286 2.88 16.34 4.927 24.455l.496 1.98c4.231 16.85 9.193 33.497 14.121 50.152q1.677 5.68 3.339 11.364c.777 2.634 1.571 5.263 2.367 7.891l1.415 4.808.669 2.154c1.812 6.273 1.286 11.45-1.485 17.315l-1.154 2.481-1.268 2.667-2.746 5.953a1065 1065 0 0 1-4.54 9.635c-22.55 47.231-34.64 99.314-47.1 149.928l-.64 2.582c-6.987 28.615-6.987 28.615-1.142 39.308 6.493 9.015 16.551 13.754 26.162 18.786a465 465 0 0 1 5.994 3.21c30.225 16.089 64.495 25.416 97.075 35.473l2.446.757c7.955 2.453 15.924 4.853 23.952 7.056l3.482.957c10.474 2.313 19.361.998 28.455-4.59 3.714-2.604 6.168-5.14 8.707-8.883 2.329-2.662 3.536-3.68 7.041-4.35 3.064-.009 6.079.118 9.13.377 3.748.314 7.504.478 11.26.668l2.51.14c10.433.548 20.867.517 31.312.498 3.451-.005 6.903.003 10.355.013 9.986.011 19.92-.066 29.885-.756l2.33-.145c3.454-.214 6.874-.476 10.316-.853 5.458-.373 8.63-.431 13.093 2.95 1.958 1.884 3.651 3.823 5.415 5.907 5.122 5.646 12.47 9.383 20.105 9.946 7.417.098 13.887-.905 21.018-2.88l3.415-.916c129.582-35.525 129.582-35.525 147.273-62.833 5.156-10.886 2.331-22.046-.375-33.313l-.513-2.188c-7.648-32.619-16.641-64.974-26.05-97.125l-.727-2.486A1176 1176 0 0 0 740 767l-.6-1.968c-2.852-9.29-6.462-17.97-10.676-26.7-1-2.071-1.987-4.148-2.973-6.226q-1.964-4.144-3.938-8.286a1049 1049 0 0 1-7.188-15.445l-1.099-2.362-.987-2.177-.837-1.827c-2.267-6.49-1.223-10.948.728-17.314.265-.903.53-1.807.805-2.737q.857-2.909 1.731-5.812c.918-3.051 1.82-6.107 2.718-9.164q1.806-6.146 3.629-12.287c6.581-22.192 12.429-44.36 17.074-67.038C739 585 739 585 740 583c32 50.673 32 50.673 32 67a282 282 0 0 1-5 5c-4.856 7.11-4.836 14.622-3.54 22.965 1.745 7.806 4.596 16.689 10.066 22.717 2.026 3.186 2.227 6.33 2.556 10.005l.236 2.283c.239 2.342.46 4.686.682 7.03q.206 2.045.416 4.09c.358 3.52.702 7.04 1.043 10.562 3.995 41.04 8.485 82.04 13.27 122.996a2961 2961 0 0 1 1.026 8.904c.47 4.133.958 8.263 1.448 12.393l.416 3.706c1.648 13.57 1.648 13.57 6.008 18.002 3.28 1.861 6.312 1.782 9.984 1.767l2.307.026c2.515.023 5.028.024 7.543.023l5.253.023q5.505.019 11.01.009c4.697-.006 9.393.025 14.09.065 3.616.026 7.233.029 10.85.025q2.597.003 5.193.03c2.425.022 4.848.012 7.273-.006l2.154.04c3.771-.063 6.207-.675 9.127-2.973 5.734-5.94 5.18-15.399 5.902-23.245 1.136-11.611 2.49-23.18 4-34.75l.316-2.43.98-7.523.338-2.588c1.283-9.859 2.504-19.725 3.728-29.591 1.76-14.172 3.535-28.34 5.45-42.492a2474 2474 0 0 0 4.063-31.688l.257-2.089c.937-7.633 1.764-15.201 2.052-22.89.626-2.983 1.627-3.831 4.066-5.583l2.18-1.344c7.82-5.088 12.096-12.945 15.257-21.469l.969-2.406c5.09-14.895 3.01-32.516-3.324-46.61-6.118-12.004-15.349-21.024-28.32-25.43-5.365-1.28-10.856-1.901-16.325-2.554l-.7-3.305c-1.783-8.294-3.71-16.52-5.987-24.695l-.65-2.335c-1.524-5.387-1.524-5.387-2.663-7.665l2.313-.75c3.097-1.44 4.162-2.2 5.687-5.25.522-6.908-1.025-12.712-2.973-19.309l-.947-3.29c-3.643-12.548-7.57-25.009-11.518-37.463l-2.216-7.03Q864.679 475.452 862 467l2.856-.917c2.938-1.012 4.972-2.067 7.457-3.896l2.05-1.457c2.122-2.242 2.285-3.68 2.637-6.73-.478-2.558-.478-2.558-1.336-5.297l-.962-3.116-1.077-3.337-1.106-3.488c-1.153-3.594-2.33-7.18-3.519-10.762l-1.09-3.292c-14.818-44.225-36.485-79.38-78.962-100.74-24.697-11.894-49.87-14.65-76.948-15.968l-.542-1.833c-2.424-7.788-5.635-11.843-12.645-16.104-6.729-1.876-13.876-2.627-20.188.875-5.166 3.796-9.019 9.046-10.285 15.347L668 309c-16.452-3.932-31.627-11.106-47-18 2.237-2.906 4.328-5.493 7.277-7.684l1.807-1.373 3.695-2.75c4.792-3.644 9.262-7.316 11.221-13.193.1-1.851.14-3.706.147-5.56l.022-3.504.008-3.85.02-4.05c.02-4.435.031-8.87.041-13.306l.013-4.582q.029-10.764.041-21.528.015-12.422.077-24.843.044-9.604.048-19.208c.002-3.823.011-7.646.036-11.47q.034-5.395.018-10.792c-.001-1.945.018-3.89.038-5.836-.064-10.739-.064-10.739-4.509-15.471-2.957-1.478-5.742-1.06-9-1l-.562-3.937C627.465 97.532 616.222 80.489 603 66l-1.984-2.234c-19.704-21.051-51.426-34.511-80.034-35.914-11.69-.357-23.547-.576-34.982 2.148" id="svg-layer-0" style="pointer-events: all; fill: none;"/><path fill="#062439" d="M594.07 57.367 597 60l2.68 2.383C614.694 76.556 630.525 99.863 632 121l3.188-.312c3.812.312 3.812.312 6.687 2.687 2.99 3.693 3.252 5.386 3.265 10.064l.018 3.5.003 3.86.015 4.051q.019 5.511.024 11.021.005 3.444.012 6.886.02 10.772.027 21.545.007 12.433.05 24.868.034 9.61.034 19.22 0 5.74.025 11.48.023 5.402.01 10.805c-.002 1.947.012 3.895.026 5.843-.033 7.045-.264 12.122-5.259 17.502L638 275.813l-2.375 2.027a949 949 0 0 1-11.437 9.277C622 289 622 289 621 291c24.248 10.95 24.248 10.95 34.75 14.625l2.033.711c3.375 1.144 6.704 2.06 10.217 2.664l.125-2.437c1.565-6.371 5.19-11.724 10.5-15.625 5.784-3.191 12.414-3.02 18.676-1.31 5.378 2.33 9.592 6.442 12.699 11.372a114 114 0 0 1 2 7l1.902.044c13.906.359 27.452 1.168 41.098 3.956l3.77.77c32.532 7.719 65.478 27.871 83.602 56.388 14.451 23.462 23.582 48.556 31.816 74.78l.92 2.867.81 2.66.712 2.3c.446 2.694.123 4.621-.63 7.235-1.637 1.73-1.637 1.73-3.687 3.188l-2.012 1.48c-2.673 1.547-5.367 2.39-8.301 3.332l1.05 3.272c5.92 18.458 11.83 36.913 17.2 55.54l.57 1.975c5.017 17.437 5.017 17.437 4.18 23.213-1.766 2.964-2.783 4.643-6.14 5.629L877 557l.953 2.938C881.64 571.435 885.16 583.043 887 595l3.297.445c14.1 2.08 26.575 6.265 35.57 17.989 10.122 14.965 13.715 32.13 10.735 49.948-2.875 12.475-8.696 23.354-18.602 31.618l-2.656 1.055c-2.78 2.308-2.793 2.986-3.278 6.457a325 325 0 0 0-.504 6.176q-.342 3.717-.699 7.433l-.192 2.076c-.818 8.701-1.937 17.365-3.038 26.033q-.583 4.6-1.16 9.2c-2.118 16.848-4.268 33.691-6.415 50.535a26587 26587 0 0 0-6.744 53.236q-.357 2.826-.71 5.653a2211 2211 0 0 1-.682 5.378c-.548 4.373-1.018 8.735-1.357 13.13l-.218 2.612q-.197 2.424-.333 4.851c-.464 5.587-2.022 8.219-6.014 12.175-3.005 1.502-6.103 1.165-9.4 1.177l-2.311.02c-2.53.02-5.06.031-7.59.041l-2.616.013q-6.855.03-13.712.044c-4.721.011-9.442.046-14.163.085-3.63.026-7.26.035-10.89.038q-2.61.008-5.22.035a569 569 0 0 1-7.31.017l-2.175.039c-3.548-.037-5.501-.438-8.524-2.356-5.346-5.51-4.968-15.098-5.823-22.34l-.48-3.956q-.644-5.32-1.273-10.641-.396-3.34-.798-6.68a5514 5514 0 0 1-13.067-120.065 3283 3283 0 0 0-1.392-13.912c-.251-2.51-.487-5.023-.721-7.535l-.465-4.575-.382-3.958c-.941-4.776-3.098-7.987-5.938-11.862-5.862-8.806-7.565-20.255-6.75-30.629 1.184-5.161 3.353-9.118 7-13l2-1c-.653-4.286-2.168-7.985-3.957-11.898l-.907-2.012q-1.466-3.236-2.948-6.465l-1.015-2.224C748.36 594.961 748.36 594.961 740 583c-1.541 6.084-3.052 12.172-4.473 18.285-3.126 13.381-6.536 26.636-10.34 39.84l-.628 2.184a3074 3074 0 0 1-6.73 23.024q-1.425 4.826-2.833 9.655c-.67 2.276-1.353 4.548-2.036 6.82l-1.222 4.18-1.092 3.673c-1.034 5.347.131 9.346 2.4 14.19l1.293 2.786 1.411 2.988 1.466 3.161a1714 1714 0 0 0 8.159 17.28l1.704 3.598a759 759 0 0 0 3.24 6.75c7.968 16.832 12.813 34.95 17.806 52.836l.823 2.933c8.07 28.763 16.14 57.587 22.913 86.69.43 1.85.871 3.697 1.312 5.545 2.244 9.993 3.871 20.051-1.466 29.285-7.144 9.613-19.3 14.912-29.707 20.297l-2.206 1.145c-36.636 18.74-77.674 29.889-117.18 40.808l-2.123.588c-11.38 3.116-21.786 4.301-32.491-1.541-3.656-2.28-6.949-4.684-9.652-8.067-2.735-3.353-4.856-5.643-9.2-6.487-3.604-.01-7.12.236-10.71.554-2.947.187-5.896.338-8.844.492l-2.45.14c-10.693.571-21.393.517-32.099.498q-5.4-.005-10.803.007c-10.23.002-20.43-.053-30.644-.645l-2.3-.123a276 276 0 0 1-10.101-.716c-8.07-.504-8.07-.504-11.41 2.018-1.861 2.126-1.861 2.126-3.34 4.262-4.458 6.37-12.11 10.108-19.447 12.067-10.352 1.16-19.55-1.39-29.312-4.375l-4.63-1.372c-3.937-1.17-7.868-2.362-11.796-3.563q-3.225-.983-6.455-1.952C346.78 964.313 318.554 955.395 292 943l-2.174-1.014c-35.59-16.796-35.59-16.796-40.13-29.18-2.529-10.2-.448-21.183 1.992-31.181l.923-3.919c1.09-4.579 2.234-9.143 3.389-13.706l.683-2.7c7.615-30.014 15.978-59.777 25.317-89.3l.635-2.023c5.311-16.894 12.194-32.723 19.803-48.688a702 702 0 0 0 6.937-15.039l1.174-2.505 1.037-2.354.908-2c1.44-6.805-1.386-14.039-3.338-20.512l-.864-2.924q-.915-3.096-1.837-6.188c-1.614-5.415-3.204-10.837-4.795-16.26l-.959-3.262C284 593.318 284 593.318 284 582h-2l-.34 1.688c-.764 2.677-1.898 4.858-3.223 7.308-.541 1.017-1.083 2.033-1.642 3.08L275 597.438c-9.063 17.179-17.019 34.863-25 52.563l1.867.86c3.782 2.022 5.684 4.999 7.23 8.93 3.22 11.456.452 23.807-5.034 34.085-1.584 2.76-3.206 5.316-5.113 7.867-2.174 3.632-2.534 5.756-2.75 9.95l-.127 2.02a488 488 0 0 0-.255 4.452c-.237 4.36-.552 8.715-.861 13.07l-.21 2.978c-1.018 14.058-2.447 28.079-3.872 42.1l-.221 2.183c-2.463 24.275-5.226 48.511-8.168 72.733q-.445 3.666-.888 7.334-.7 5.774-1.414 11.547l-.519 4.23c-2.6 21.296-2.6 21.296-5.665 25.223-3.773 2.712-6.876 2.604-11.384 2.63l-2.306.026q-3.787.036-7.576.055l-2.613.017q-6.847.039-13.695.06c-4.712.017-9.424.062-14.136.112-3.625.034-7.25.046-10.876.051q-2.606.01-5.21.046c-2.435.032-4.868.032-7.303.024l-2.163.05c-3.714-.046-6.229-.625-9.154-2.837-2.743-2.968-3.412-4.177-3.835-8.111l-.392-3.205L133 885q-.485-3.76-.974-7.52c-.344-2.81-.679-5.622-1.014-8.433l-.556-4.595q-.585-4.845-1.166-9.689-.916-7.615-1.837-15.23l-.308-2.546-1.516-12.544c-.994-8.218-1.99-16.436-3.016-24.65l-.29-2.334q-.676-5.395-1.378-10.786a1219 1219 0 0 1-3.134-26.661 3097 3097 0 0 0-2.211-19.97c-.476-4.2-.936-8.403-1.361-12.61-.403-3.983-.844-7.96-1.313-11.936a229 229 0 0 1-.46-4.454c-1.08-11.438-1.08-11.438-4.527-15.426-2.239-1.74-4.51-3.164-6.939-4.616-9.379-8.682-14.609-22.036-15.316-34.61-.57-16.788 2.9-30.584 12.504-44.577 8.726-8.727 19.644-15.409 32.269-15.91L137 596c.03-.573.062-1.145.094-1.735.55-7.36 2.363-14.087 4.469-21.14q.978-3.306 1.94-6.617l.87-2.918C145 561 145 561 145 557a112 112 0 0 0-6-5c-3.26-6.52 1.18-16.831 3.188-23.312l1.015-3.355c1.252-4.115 2.523-8.224 3.797-12.333l1.749-5.651C152.81 494.226 156.899 481.11 161 468l-2.555-1.46c-1.095-.633-2.191-1.264-3.32-1.915l-3.305-1.898C149 461 149 461 147 459c-.935-7.102 1.744-13.68 3.875-20.375l.605-1.922c15.522-49.18 37.582-89.062 84.392-113.604 23.114-11.934 51.24-16.37 77.128-15.099l-.125-2.746c.185-4.804 2.047-7.65 5.125-11.254 5.745-4.79 11.078-6.32 18.5-5.75 5.198.739 8.823 1.741 12.316 5.926 3.459 4.757 5.972 9.398 8.184 14.824 14.772-3.172 29.172-8.887 42.59-15.809C402 292 402 292 404 292c-2.34-3.356-4.895-5.797-8.125-8.25a199 199 0 0 1-10.25-8.312l-2.46-2.13c-4.736-5.051-5.598-9.86-5.469-16.584l.01-2.462c.015-2.696.05-5.39.087-8.086q.022-2.877.04-5.754.042-6.09.107-12.18c.063-6.13.093-12.26.117-18.389q.057-13.724.179-27.446.07-7.79.11-15.583.04-7.738.117-15.476.025-2.903.035-5.805c.01-2.67.037-5.338.07-8.007l-.005-2.365c.083-4.785.848-8.13 3.437-12.171 3.644-2.43 5.712-2.162 10-2l.125-3.5C394.133 100.19 404.783 83.822 416 71l2.594-2.996c5.613-6.37 11.49-12.04 18.406-17.004l2.367-1.727C453.357 39.73 469.57 33.711 486 30l3.133-.742c36.273-7.061 76.995 4.111 104.937 28.11M402 134c-1.28 3.84-1.236 7.51-1.316 11.516l-.064 2.7q-.099 4.518-.183 9.034l-.063 3.15c-.401 20.518-.483 41.036-.497 61.558q-.004 3.63-.01 7.262-.009 5.76-.001 11.519 0 2.144-.002 4.287c-.003 1.965.002 3.929.007 5.893l.002 3.355c.161 3.463.535 5.175 3.104 7.566l2.648 2.098 3.023 2.406 1.644 1.297a399 399 0 0 1 5.247 4.265A261 261 0 0 0 442 291l1.73 1.095C455.798 299.67 468.408 306.347 481 313l2.395 1.275C488.641 317 488.641 317 492 317c.679-11.373 1.213-22.735 1.5-34.125l.06-2.245c.654-24.873 1.026-49.753 1.44-74.63-4.634-3.395-9.338-4.028-14.871-4.93l-5.957-1.026-3.093-.521c-4.898-.832-9.787-1.714-14.677-2.593l-8.586-1.54q-2.925-.524-5.848-1.04-4.316-.766-8.628-1.545l-2.63-.461-2.452-.446-2.134-.38C424 191 424 191 419 189v-26l7.738.77c18.996 1.88 37.993 3.691 57.015 5.278l2.06.172q2.9.242 5.8.48c2.816.25 5.615.553 8.422.882 12.592 1.246 25.03.119 37.565-1.12 4.801-.474 9.604-.924 14.408-1.372l2.979-.279c10.744-.992 21.5-1.793 32.263-2.561l2.74-.196q7.504-.534 15.01-1.054v27l-6.34.723c-10.957 1.33-21.825 3.23-32.7 5.108a2821 2821 0 0 1-10.642 1.804q-3.411.585-6.822 1.174l-3.185.53c-12.916 2.266-12.916 2.266-16.311 5.661-.055 2.732-.042 5.434.016 8.164l.046 2.641q.086 4.41.188 8.82l.065 3.057c.632 29.128 2.183 58.224 3.685 87.318l2 1c2.021-.722 2.021-.722 4.523-1.922l2.815-1.342 3.037-1.486 3.123-1.515c25.075-12.286 47.125-26.532 67.877-45.235l1.641-1.455c3.652-3.365 5.733-6.081 6.16-11.125.074-2.636.074-5.263.054-7.9v-3.072a2084 2084 0 0 0-.043-10.136l-.021-7.104c-.075-19.263-.303-38.526-.573-57.787l-.09-6.716c-.055-4.19-.12-8.379-.187-12.568l-.05-3.84-.06-3.482-.048-3.053C623 135 623 135 622 134c-1.777.043-3.553.168-5.324.316l-3.865.306-2.268.181c-5.144.398-10.291.744-15.438 1.1l-7.288.506c-39.864 2.764-39.864 2.764-55.24 3.716q-2.91.181-5.82.367c-12.103.73-23.842.358-35.911-.66a1166 1166 0 0 0-45.283-2.894c-14.56-.654-29.053-1.539-43.563-2.938M215 362l-2.05 1.855C198.38 377.547 189.955 395.36 183.687 414l-1.276 3.775C179.59 426.443 177.6 435.04 176 444c9.125 4.92 18.486 8.933 28.125 12.75l3.571 1.429c23.237 9.084 41.86 8.285 64.804-1.054 24.898-11.383 46.646-31.701 56.754-57.3 7.415-22.815 1.664-46.418-4.254-68.825-8.327-2.455-15.956-3.489-24.625-3.375l-3.433.03C265.319 328.235 237.936 340.37 215 362m485-32c-9.836 14.117-10.237 43.722-7.53 59.94 4.797 25.108 21.71 44.482 42.284 58.693C751.582 459.85 772.484 467.844 793 465c10.658-2.276 20.658-5.964 30.75-10q2.986-1.182 5.974-2.357 1.925-.759 3.848-1.52c5.439-2.146 10.918-4.167 16.428-6.123-8.606-41.672-26.05-75.634-62.105-99.527C766.189 331.475 725.065 319.328 700 330m-344 9 .402 2.133c1.421 7.943 2.199 15.81 2.598 23.867l.129 2.36c.492 17.463-4.463 35.266-10.86 51.347-.945 2.453-1.733 4.73-2.269 7.293l2.125 1.215c12.622 7.563 18.838 16.693 24.25 30.223 2.398 13.666.057 26.02-7.684 37.503-7.445 9.429-18.125 14.828-29.898 16.52-2.6.247-5.184.436-7.793.539l-.664 1.66q-1.037 2.59-2.078 5.18a569 569 0 0 0-2.578 6.601c-9.96 25.663-9.96 25.663-17.746 33.59-2.646 5.58 1.162 14.867 2.62 20.578l.78 3.103q1.266 5.02 2.541 10.038l1.764 6.992q1.35 5.355 2.703 10.711a4219 4219 0 0 1 5.756 23.063l1.455 5.883q1.021 4.126 2.035 8.254C326.67 660.23 330.178 672.628 334 685c24.83 5.752 49.726 9.772 75 13l2.367.305c19.147 2.454 38.312 4.148 57.57 5.445l2.912.198c28.577 1.91 28.577 1.91 34.151.052a324914 324914 0 0 0 .055-122.455v-2.598q.008-20.847.022-41.694.014-21.379.017-42.758.002-13.2.014-26.4.007-9.043.006-18.085-.002-5.223.005-10.446.007-5.653.001-11.308l.01-3.357-.007-3.048.001-2.638C506 417 506 417 505 414c-1.812-1.008-1.812-1.008-4.215-1.91l-2.73-1.045-2.993-1.108-3.092-1.179c-3.319-1.264-6.644-2.513-9.97-3.758-28.766-10.775-28.766-10.775-42-18l-1.972-1.057c-13.54-7.275-26.168-15.412-38.09-25.13l-2.13-1.728c-3.904-3.25-7.31-6.61-10.5-10.567-1.855-2.153-4.065-3.788-6.308-5.518l-1-2c-2.855-.952-4.91-1.19-7.887-1.316l-2.842-.127-2.959-.12-2.994-.13q-3.658-.159-7.318-.307m297.066.941c-6.924.144-6.924.144-10.066 2.66-1.783 2.063-3.39 4.2-5 6.399-26.069 28.944-66.274 46.823-102.553 58.942l-2.16.73c-1.948.657-3.899 1.302-5.85 1.947-6.415 2.578-6.415 2.578-9.437 5.381-.922 3.783-.791 7.525-.735 11.401l-.02 3.57c-.012 3.271.003 6.541.03 9.812.021 3.527.008 7.054 0 10.581-.012 6.91.01 13.818.04 20.727.035 8.04.038 16.081.04 24.122.003 14.342.035 28.684.082 43.026a14787 14787 0 0 1 .087 49.569v2.583l.002 2.577c.008 13.26.03 26.518.055 39.777q.014 7.218.021 14.434c.01 7.63.025 15.26.054 22.889q.02 5.232.025 10.463c.003 3.774.019 7.548.038 11.322l-.005 3.37.023 3.044.008 2.643C518 704 518 704 520 706c2.41.183 2.41.183 5.492.082l3.515-.108 3.868-.162 2.01-.079c42.465-1.698 84.39-7.52 126.115-15.483l3.037-.577a1590 1590 0 0 0 8.525-1.657l2.503-.483q2.336-.469 4.657-1.008a70 70 0 0 1 4.734-.916c2.581-.558 4.359-1.118 6.544-2.609 2.055-3.614 2.811-7.406 3.668-11.45l.856-3.565a652 652 0 0 0 2.212-9.66c.756-3.37 1.556-6.728 2.354-10.087a2318 2318 0 0 0 2.936-12.52c2.237-9.68 4.597-19.321 7.052-28.948l.99-3.895q1.898-7.456 3.806-14.91a3177 3177 0 0 0 2.59-10.238l.784-3.042c2.918-11.664 2.918-11.664.537-15.79l-1.722-2.082c-8.051-10.844-13.123-23.884-17.09-36.711A93 93 0 0 0 697 512l-2.238-.078c-13.076-.731-24.317-4.915-33.45-14.547C652.37 486.535 649.78 474.782 651 461c3.844-16.721 13.672-26.322 27-36l-1.355-3.672c-3.229-8.89-6.208-17.777-8.52-26.953l-.614-2.397c-2.14-8.814-2.706-17.618-2.698-26.666l-.002-2.592c.063-7.698.902-15.134 2.189-22.72-4.646-.08-9.289.034-13.934-.059M315.633 455.723c-3.607 5.857-3.596 12.63-2.633 19.277 1.958 5.08 5.273 9.269 10 12 6.25 2.243 11.422 2.354 17.676.105 5.88-2.796 10.08-6.922 12.73-12.898 1.473-5.475.479-11.027-2.094-16.02-3.284-4.526-7.04-8.077-12.312-10.187-10.136-1.298-16.923-.397-23.367 7.723m357.496 1.593C669.863 462.187 670.484 468.4 671 474c1.637 5.19 5.35 9.255 10 12 6.007 2.775 11.228 3.577 17.672 1.926 4.996-1.987 8.076-5.27 11.265-9.488 2.058-6.657 2.38-14.38-.437-20.875-2.648-4.316-5.821-7.538-10.5-9.563-11.069-1.796-18.862.741-25.871 9.316m158.273 19.922-4.07 1.471-2.17.792c-10.298 3.755-20.62 7.396-31.092 10.64l-2.428.752q-5.82 1.794-11.656 3.54l-4.232 1.29-3.74 1.117c-2.803 1.079-4.175 1.844-6.014 4.16 1.388 5.672 3.586 10.387 6.375 15.5l2.707 5.05 1.44 2.679c2.038 3.82 4.025 7.665 6.014 11.51 4.11 7.94 8.269 15.843 12.652 23.636l1.135 2.018c2.54 4.47 2.54 4.47 3.677 5.607 7.527-.354 13.864-2.478 20.875-5.125l3.307-1.221q3.326-1.23 6.65-2.473c2.896-1.08 5.8-2.141 8.707-3.193l4.961-1.8 2.222-.804c5.198-1.908 10.239-4.093 15.278-6.384a168 168 0 0 0-4.863-19.75l-.83-2.72q-1.305-4.267-2.62-8.53a7300 7300 0 0 1-3.425-11.187l-.838-2.742c-2.627-8.649-5.057-17.348-7.424-26.071-4.213 0-6.667.798-10.598 2.238M182 476l-.775 2.57a21222 21222 0 0 1-4.337 14.352c-2.465 8.162-4.949 16.316-7.52 24.445-.208.656-.414 1.312-.627 1.988-.979 3.103-1.963 6.204-2.96 9.302-1.836 5.815-3.297 11.257-3.781 17.343 8.08 4.4 16.52 7.495 25.188 10.5l3.962 1.395c3.283 1.154 6.572 2.288 9.863 3.417 2.029.702 4.05 1.423 6.071 2.145l3.967 1.387 3.54 1.256c3.675.97 6.627 1.277 10.409.9 2.19-2.692 3.481-4.915 5-8l1.818-3.542c2.163-4.237 4.266-8.503 6.37-12.77a5847 5847 0 0 1 4.542-9.157l1.12-2.252a555 555 0 0 1 10.37-19.81c1.877-3.47 3.292-6.53 3.78-10.469-6.94-3.896-14.28-6.128-21.852-8.433-3.89-1.184-7.773-2.39-11.656-3.594l-2.39-.741c-9.37-2.916-18.663-6.058-27.946-9.234l-3.531-1.197-3.086-1.058C185 476 185 476 182 476m-66.012 152.297C109.55 636.99 106.871 645.169 108 656c1.593 8.218 6.002 13.934 11.75 19.813 7.274 4.895 15.598 6.298 24.25 5.187 8.427-2.262 14.415-6.25 19.188-13.625 5.694-10.188 6.9-19.003 3.812-30.375-3.385-8.337-9.172-13.978-17.11-18.094-11.891-4.978-25.65-.03-33.902 9.39M862 627c-6.598 8.361-8.67 16.99-7.562 27.5 1.593 8.538 5.706 15.546 12.5 21 7.945 5.247 15.521 6.833 25.062 5.5 8.119-2.658 14.257-6.892 19-14l1.309-1.914c3.993-7.158 3.801-16.145 2.691-24.086-1.136-3.805-2.714-6.77-5-10l-1.246-1.945c-4.676-6.41-12.054-9.838-19.59-11.79C879.072 615.82 869.11 619.768 862 627m-669 26-6 23a191 191 0 0 0 21.74 8.147c1.958.606 3.91 1.227 5.864 1.85l3.783 1.175 3.413 1.065c3.22.768 5.904 1.016 9.2.763 5.15-4.7 6.417-12.253 7.438-18.812C238 668 238 668 236.016 666.574c-3.8-1.984-7.679-3.484-11.703-4.949l-2.502-.916C200.34 653 200.34 653 193 653m630.613 1.102-2.57.727-2.73.796-2.81.812c-8.616 2.526-17.123 5.34-25.503 8.563l-2.402.922C786 667 786 667 785.14 668.727c-.197 3.176.637 5.625 1.609 8.648.345 1.1.69 2.202 1.047 3.336 1.186 3.242 2.598 6.236 4.203 9.289 9.907-2.244 19.575-5.032 29.25-8.125l3.318-1.057c8.597-2.78 8.597-2.78 12.432-4.818-.658-5.268-1.733-10.301-3.062-15.437l-.565-2.217Q832.691 655.67 832 653c-3.314 0-5.3.225-8.387 1.102M158.625 706.5l-1.93 1.078c-5.14 2.937-9.916 6.262-14.62 9.856C140 719 140 719 138 720c.364 12.078 1.8 23.974 3.347 35.947 1.335 10.36 2.527 20.73 3.653 31.115 1.358 12.51 2.897 24.979 4.566 37.45 1.428 10.912 2.48 21.844 3.395 32.81l.328 3.791.272 3.306c.56 4.565 1.537 9.071 2.439 13.581h50c2.283-17.121 2.283-17.121 2.824-23.84l.419-4.876.218-2.566c1.754-20.522 3.913-40.996 6.164-61.468l.46-4.2c2.708-24.666 2.708-24.666 4.118-35.253.764-5.967 1.045-11.786.922-17.797l-.027-2.672c-.023-2.11-.06-4.219-.098-6.328a1123 1123 0 0 0-33.125-11.937l-3.445-1.217c-9.695-3.287-16.765-4.652-25.805.654m679.137-.29c-.962.33-1.924.657-2.915.995q-3.035 1.04-6.064 2.094a1497 1497 0 0 1-9.308 3.193l-5.9 2.031-2.82.963-2.6.91-2.291.794C804 718 804 718 802 720c-1.127 10.44.642 21.21 1.908 31.567.596 4.892 1.162 9.788 1.733 14.683l.353 3.015c1.091 9.362 2.074 18.732 3.006 28.11l.238 2.368c.962 9.61 1.855 19.227 2.69 28.85q.651 7.455 1.313 14.909c.317 3.63.62 7.26.921 10.892l.592 6.711.246 3.117.264 2.888.212 2.508C816 872 816 872 819 877l48-1c1.627-4.882 2.482-8.999 2.93-14.027l.227-2.34q.24-2.49.474-4.977c.416-4.428.856-8.852 1.299-13.277l.269-2.697c.785-7.75 1.757-15.463 2.801-23.182 1.658-12.318 2.962-24.646 4.179-37.014 1.438-14.55 3.249-29.034 5.247-43.517l.318-2.327q.293-2.139.596-4.278c.478-3.482.763-6.849.66-10.364q-6.86-3.472-13.75-6.883a854 854 0 0 1-4.367-2.183 576 576 0 0 0-5.946-2.934l-3.535-1.75c-7.437-2.732-13.506-.535-20.64 1.96M335 716l-.715 1.598q-1.672 3.733-3.348 7.465l-1.226 2.733a960 960 0 0 1-9.496 20.43C319 751 319 751 319 753c22.156 7.405 44.262 13.432 67.13 18.19a912 912 0 0 1 15.12 3.31l2.509.563c5.339 1.218 10.646 2.543 15.948 3.914 14.134 3.646 28.078 7.09 42.616 8.72 3.034.343 6.062.722 9.091 1.104C481.6 790.069 491.765 791.209 502 792c.137-14.699-.242-29.32-1-44-8.655-2.005-17.302-2.777-26.13-3.572-38.204-3.502-74.854-11.631-111.654-22.369a365 365 0 0 0-16.779-4.434l-2.099-.506c-3.243-.75-5.98-1.119-9.338-1.119m346.215.285c-.991.28-1.982.56-3.004.847l-3.274.93c-.565.16-.565.16-3.43.964-5.412 1.522-10.82 3.06-16.214 4.646C611.929 736.312 567.998 744.359 523 748q-.037 8.676-.055 17.352-.008 2.952-.02 5.905c-.013 2.827-.018 5.654-.023 8.481l-.015 2.671v2.487l-.007 2.187C523 789 523 789 524 792q10.002-.756 20.001-1.544 3.39-.265 6.781-.52c34.192-2.584 34.192-2.584 48.28-8.061 10.235-3.695 20.698-5.913 31.313-8.187 14.004-3.007 27.53-6.626 41.094-11.218 9.183-3.1 18.368-5.56 27.832-7.63C703 754 703 754 705 753c-.585-3.371-1.42-6.287-2.82-9.406l-1.114-2.488-1.191-2.606-1.213-2.677A269 269 0 0 0 688 715c-2.459 0-4.415.614-6.785 1.285M310 768c-4.721 12.16-9.277 24.343-13.125 36.813l-.93 2.96-.828 2.747-.73 2.409C294 815 294 815 295 818a80 80 0 0 0 7.129 3.293l2.218.93c2.4 1.002 4.807 1.984 7.216 2.965l2.493 1.023c36.285 14.88 73.429 23.908 112.008 30.457 1.829.314 3.656.64 5.483.965l3.176.558 2.683.48c2.888.366 5.687.384 8.594.329 3.428-10.746 6.787-21.509 9.995-32.323l.708-2.384.666-2.252c.546-1.765 1.168-3.506 1.803-5.24.904-3.059.98-5.629.828-8.801-12.243-4.503-24.615-8.05-37.312-11l-2.215-.515c-7.619-1.764-15.248-3.456-22.91-5.02C367.949 785.367 338.93 776.739 310 768m393.262 3.648-5.558 1.785-2.971.96a723 723 0 0 1-62.627 17.131q-3.11.704-6.22 1.415a4240 4240 0 0 1-19.312 4.362 3146 3146 0 0 0-22.199 5.05q-2.923.674-5.847 1.34l-3.567.829-3.131.721c-2.722.73-5.241 1.655-7.83 2.759q2.018 8.004 4.053 16.003.689 2.715 1.373 5.43c2.517 9.986 5.074 19.87 8.574 29.567 10.743-.495 21.11-2.584 31.625-4.687l2.75-.546C653.543 845.602 691.001 833.897 729 816c-3.247-15.488-7.475-31.976-15-46-3.482-1.741-7.207.482-10.738 1.648m23.988 62.625C683.866 855.818 632.566 872.918 584 877c2.404 10.857 5.23 21.554 8.285 32.246 2.424 8.543 4.596 17.133 6.586 25.787 1.391 5.825 3.24 10.715 6.129 15.967 6.75-.514 13.13-1.56 19.688-3.223l2.702-.669c2.873-.715 5.741-1.441 8.61-2.17.985-.25 1.97-.498 2.985-.754 15.5-3.92 30.864-8.057 46.015-13.184l1.845-.623C739.24 912.65 739.24 912.65 749 901c2.609-7.827.416-15.086-2-22.687q-.962-3.152-1.914-6.305l-1.024-3.39c-1.94-6.609-3.684-13.27-5.437-19.93l-2.023-7.676-.865-3.298A106 106 0 0 0 734 832c-2.717 0-4.32 1.05-6.75 2.273M289 834q-3.181 10.755-6.354 21.515-1.08 3.66-2.162 7.318-1.555 5.261-3.105 10.522l-.979 3.303-.91 3.093-.8 2.712c-1.643 6.043-2.644 11.556-.69 17.662 11.005 15.82 43.705 22.868 61 28.875 1.039.363 2.078.725 3.148 1.1 15.407 5.314 31.064 9.742 46.773 14.064q3.245.892 6.486 1.795c3.063.85 6.13 1.684 9.198 2.514l2.772.775c5.714 1.519 10.71 1.995 16.623 1.752 3.944-11.734 7.447-23.378 10.003-35.494 1.892-8.652 4.578-16.998 7.407-25.384l1.016-3.036.919-2.686C440 882 440 882 440 878l-3.44-.7c-44.936-9.16-89.35-18.99-131.56-37.3q-3.367-1.45-6.736-2.897a600 600 0 0 1-4.955-2.177C291 834 291 834 289 834" id="svg-layer-1" style="pointer-events: all;"/><path fill="none" d="M358 341c3.356.023 6.708.1 10.063.188l2.857.017c6.46.203 10.442 1.212 15.08 5.795a199 199 0 0 1 5.218 5.979c10.166 11.528 24.046 19.839 37.184 27.502a571 571 0 0 1 7.29 4.355c14.062 8.299 29.174 13.802 44.424 19.464 5.096 1.894 10.18 3.821 15.259 5.762l2.935 1.085 2.65 1.013 2.307.864C505 414 505 414 506 417c.09 1.615.124 3.234.123 4.851l.006 3.048-.009 3.357.003 3.56q.001 4.897-.007 9.796-.005 5.28-.002 10.558 0 9.15-.008 18.298-.011 13.23-.012 26.457-.004 21.46-.019 42.92a117705 117705 0 0 0-.025 57.185q-.016 53.485-.05 106.97c-10.719 3.573-25.476.558-36.625-.187l-2.96-.197C422.04 700.613 377.33 695.199 334 685c-5.629-18.245-10.265-36.698-14.829-55.23-1.862-7.55-3.761-15.09-5.667-22.63l-2.683-10.64q-.879-3.48-1.761-6.957-1.241-4.895-2.47-9.793l-.75-2.937c-3.57-14.274-3.57-14.274-1.906-17.782l1.503-1.531c8.193-9.748 12.605-22.648 17.02-34.441 1.4-3.74 2.942-7.4 4.543-11.059l2.168-.043c12.824-.614 23.708-4.769 32.832-13.957 9.254-11.003 12.133-22.753 11-37-2.65-12.768-9.607-23.237-20-31-2.294-1.486-4.561-2.755-7-4a913 913 0 0 1 4.5-13.324c4.404-12.74 7.699-25.138 8.5-38.676h1c.231-11.22-.168-21.913-2-33M667 340l-.437 2.578C662.119 371.583 667.696 397.873 678 425l-1.977 1.574a1220 1220 0 0 0-5.425 4.356 160 160 0 0 1-5.785 4.382c-8.013 7.657-13.173 18.239-14.122 29.278-.26 14.396 3.824 25.594 13.778 36.144 9.487 8.492 20.223 10.498 32.531 11.266l.524 1.626c10.53 32.17 10.53 32.17 20.476 44.062 3.582 5.932 1.234 12.643-.284 19.13q-.809 3.23-1.638 6.455l-.898 3.57q-1.455 5.769-2.93 11.532a16273 16273 0 0 0-4.643 18.242c-2.522 9.906-4.894 19.836-7.177 29.801q-1.253 5.36-2.513 10.72a577 577 0 0 0-1.537 6.835 532 532 0 0 1-2.185 9.468l-.576 2.823c-1.504 6.033-1.504 6.033-4.492 7.918-2.368.836-4.658 1.362-7.127 1.818l-2.28.532c-2.378.546-4.762 1.022-7.158 1.484l-2.718.535q-4.42.86-8.844 1.699l-3.101.592c-41.375 7.851-82.936 13.311-125.024 14.97l-3.868.162-3.515.108c-1.017.033-2.034.067-3.082.1C520 706 520 706 518 704c-.255-2.09-.255-2.09-.263-4.733l-.023-3.044.005-3.37-.018-3.56q-.02-4.908-.021-9.815c-.004-3.524-.019-7.048-.032-10.573-.028-7.71-.04-15.421-.048-23.132a19884 19884 0 0 0-.023-14.435q-.04-19.974-.052-39.947l-.001-2.583-.002-2.59-.002-5.196-.002-2.603c-.008-13.927-.043-27.853-.09-41.779q-.07-21.431-.074-42.863a5616 5616 0 0 0-.05-24.079 2962 2962 0 0 1-.024-20.5c.008-3.488.006-6.976-.022-10.464-.025-3.778-.014-7.555.007-11.333l-.049-3.356c.037-2.81.119-5.314.784-8.045 3.87-3.589 8.166-4.958 13.145-6.594l4.2-1.413 2.208-.735c20.868-6.998 40.127-16.054 59.26-26.945l3.162-1.799c10.102-5.892 19.387-12.851 28.212-20.514l1.761-1.519C642.901 345.198 642.901 345.198 645 341c7.168-1.402 14.727-1.127 22-1" id="svg-layer-2" style="pointer-events: all; fill: none;"/><path fill="none" d="m402 134 1.704.152c15.908 1.386 31.802 2.23 47.753 2.902a867 867 0 0 1 37.63 2.422c15.79 1.348 31.082 1.728 46.913.524l4.47-.323q11.452-.824 22.9-1.716c13.7-1.065 27.407-1.925 41.123-2.735 4.956-.32 9.904-.723 14.852-1.136L622 134c1.712 1.712 1.17 3.958 1.205 6.3l.06 3.471c.01.632.01.632.051 3.83l.064 3.988q.083 5.396.153 10.792l.09 6.708c.136 9.898.25 19.795.354 29.693q.034 3.252.07 6.502c.084 7.814.149 15.627.184 23.442q.019 3.577.053 7.154c.03 3.307.04 6.614.044 9.92l.037 2.934c-.02 5.987-.875 9.316-4.803 13.97-5.21 5.157-10.839 9.722-16.562 14.296q-1.56 1.297-3.117 2.598c-17.888 14.75-39.064 25.45-59.942 35.312l-2.724 1.29-2.217.8-2-1q-.734-14.843-1.437-29.687l-.106-2.223c-1.23-26.025-2.086-52.038-2.457-78.09 4.519-3.25 8.945-3.999 14.309-4.922l2.78-.503c2.969-.535 5.94-1.055 8.911-1.575l5.961-1.068a3135 3135 0 0 1 15.057-2.652q4.653-.812 9.304-1.632l5.963-1.039 2.787-.492 2.584-.446 2.258-.394C601 191 601 191 605 191v-27q-9.438.613-18.875 1.25l-2.895.196c-16.418 1.12-32.79 2.566-49.155 4.283-14.18 1.46-27.808 1.64-42.013.021a2279 2279 0 0 0-9.881-1.042c-12.957-1.323-25.95-2.298-38.93-3.35l-3.074-.25q-2.859-.234-5.719-.461l-2.62-.214-2.256-.181c-3.535-.345-7.057-.811-10.582-1.252v26c3.403 1.361 5.804 2.282 9.258 2.898l2.453.446 2.629.46 2.78.501q4.408.792 8.817 1.57l5.733 1.027 2.865.514 5.74 1.03c4.961.89 9.926 1.76 14.897 2.598l3.028.522q2.853.491 5.711.958c4.627.807 8.214 1.637 12.089 4.476q-.18 11.277-.372 22.552-.065 3.819-.125 7.636c-.271 16.95-.734 33.877-1.503 50.812h-1l-.076 2.14q-.176 4.805-.361 9.61l-.12 3.367-.127 3.242-.11 2.984A31.6 31.6 0 0 1 490 315c-3.984-1.542-7.849-3.292-11.719-5.098C476 309 476 309 473.644 308.594c-2.797-.628-4.756-1.574-7.234-3l-2.605-1.491-2.743-1.603-2.842-1.646c-18.342-10.692-35.198-22.717-51.428-36.387C405 263 405 263 402.836 261.875c-4.992-5.097-2.98-17.542-2.969-24.25l-.004-3.936q-.003-5.257.008-10.516.006-3.266.008-6.532c.017-19.675.168-39.345.558-59.016l.06-3.166q.085-4.367.187-8.732l.05-2.576c.085-3.282.221-6.017 1.266-9.151" id="svg-layer-3" style="pointer-events: all; fill: none;"/><path fill="none" d="M789 346c17.015 12.133 31.147 26.08 42 44l1.074 1.77c9.3 15.784 14.822 35.283 17.926 53.23l-2.48.926-3.707 1.387-2.078.774a1412 1412 0 0 0-14.833 5.655q-2.87 1.106-5.74 2.208c-1.87.721-3.737 1.45-5.604 2.178-19.264 7.394-35.863 9.293-55.558 2.872l-1.914-.617C743.184 455.406 730.707 446.324 719 436l-2.102-1.848C700.797 419.045 692.278 398.937 691 377c.066-11.478 2.368-22.946 4.75-34.125l.69-3.469c.668-2.944 1.34-5.644 2.56-8.406 2.89-1.68 2.89-1.68 6-2l2.343-.503c26.33-4.926 59.322 2.769 81.657 17.503M300.375 327.625l3.24-.042c7.498.045 14.2 1.299 21.385 3.417 7.437 28.161 12.414 55.465-1.812 82.508-14.82 24.92-40.944 41.556-68.188 49.492l-2.375.746C226.653 470.88 198.349 455.55 176 444c1.834-10.21 4.264-19.96 7.563-29.812l.656-1.965c10.33-30.658 30.467-56.637 59.594-71.473 18.366-8.936 36.15-12.942 56.562-13.125" id="svg-layer-4" style="pointer-events: all; fill: none;"/><path fill="#F4E2C3" d="M734 832c4.012 13.99 8.012 27.985 11.938 42l.89 3.177c4.724 16.898 4.724 16.898 2.11 23.51-4.761 5.683-10.312 9.427-17 12.5l-2.43 1.131c-34.502 15.61-71.774 25.824-108.57 34.245l-3.424.799-3.174.704-2.77.624c-2.89.349-4.825.302-7.57-.69-1.262-1.89-1.262-1.89-2.133-4.36l-.973-2.751c-1.446-4.674-2.65-9.378-3.769-14.139a3399 3399 0 0 0-1.547-6.363l-.787-3.225c-1.223-4.89-2.566-9.744-3.916-14.6-2.531-9.136-4.79-18.314-6.875-27.562l3.484-.27c47.654-4.589 99.54-21.001 141.84-43.402C732 832 732 832 734 832M289 834c6.414 2.01 12.545 4.44 18.727 7.073C349.814 858.98 394.943 870.353 440 878c-.57 4.655-1.467 8.906-2.926 13.36l-1.159 3.602-1.228 3.788c-2.924 9.144-5.52 18.21-7.29 27.658-1.64 8.458-4.495 16.496-7.397 24.592-6.833.267-12.51-.597-19.078-2.422l-2.886-.775c-3.1-.838-6.193-1.694-9.286-2.553l-3.222-.885c-29.47-8.103-58.53-17.006-86.528-29.365l-3.113-1.37a676 676 0 0 1-8.824-4.005l-2.622-1.19c-4.558-2.171-7.688-4.022-10.441-8.435-2.013-6.038-.851-11.644.813-17.625l.625-2.32c4.238-15.429 8.956-30.733 13.562-46.055" id="svg-layer-5" style="pointer-events: all;"/><path fill="#F3E2C2" d="m183.402 705.484 2.311.779a966 966 0 0 1 7.225 2.487q2.412.818 4.826 1.633c7.833 2.659 15.611 5.399 23.236 8.617.317 10.518.083 20.763-1.293 31.203q-.416 3.311-.827 6.623l-.438 3.524c-.777 6.415-1.47 12.839-2.16 19.263l-.22 2.036q-.67 6.258-1.334 12.517l-.695 6.529c-1.942 18.249-3.82 36.496-5.146 54.802l-.282 3.776c-.07 1.026-.14 2.051-.214 3.107-.566 5.237-1.525 10.424-2.391 15.62h-50c-1.269-6.345-2.367-12.322-2.93-18.707l-.464-4.916-.237-2.562c-1.174-12.646-2.45-25.249-4.306-37.815-2.223-15.137-3.72-30.34-5.267-45.558-1.204-11.84-2.456-23.663-3.984-35.466-1.217-9.57-1.217-9.57-.812-12.976 1.512-1.617 1.512-1.617 3.688-2.875l2.468-1.48L147 714q2.496-1.559 4.99-3.124A336 336 0 0 1 160 706l2.832-1.738c6.981-2.78 13.709-1.194 20.57 1.222" id="svg-layer-6" style="pointer-events: all;"/><path fill="#F4E2C3" d="m858.91 704.504 2.041.986 2.111 1.072 2.215 1.084A780 780 0 0 1 872 711l4.219 2.09c3.268 1.62 6.527 3.26 9.781 4.91-.572 9.224-1.654 18.332-2.927 27.479-2.513 18.137-4.49 36.312-6.285 54.534-1.015 10.204-2.22 20.34-3.729 30.484-1.293 8.816-2.07 17.654-2.791 26.532-.168 2.042-.345 4.082-.522 6.123l-.291 3.563C869 870 869 870 867 876l-48 1c-2.746-4.576-3.405-5.978-3.828-10.931l-.325-3.575-.312-3.865q-.177-2.02-.358-4.04-.38-4.287-.739-8.575a2759 2759 0 0 0-1.365-15.654l-.396-4.457-.586-6.65a1729 1729 0 0 0-3.216-33.128l-.235-2.211c-.87-8.168-1.801-16.328-2.773-24.484l-.566-4.794q-.526-4.452-1.083-8.901c-.793-6.503-1.402-13-1.64-19.548l-.128-3.394c.55-2.793.55-2.793 2.5-4.47 4.031-1.749 8.105-3.255 12.26-4.678l2.687-.93q2.804-.965 5.613-1.923c2.852-.975 5.698-1.968 8.545-2.962l5.468-1.873 2.561-.9c6.007-2.02 11.845-3.517 17.826-.553M310 768l1.607.478c33.107 9.832 66.118 18.98 99.907 26.154 16.423 3.49 32.843 7.15 48.486 13.368-.529 6.296-1.66 11.782-3.687 17.75-2.674 8.137-5.093 16.322-7.396 24.571l-.718 2.558-.63 2.268C447 857 447 857 446 859c-40.874-3.246-84.37-13.1-122.276-28.868-3.236-1.345-6.487-2.654-9.736-3.968q-3.62-1.485-7.238-2.976l-3.489-1.42-3.214-1.35-2.88-1.195C295 818 295 818 294 815c.602-2.717.602-2.717 1.625-6.004l1.145-3.69.615-1.934c.595-1.872 1.174-3.75 1.752-5.628 3.167-10.098 6.94-19.918 10.863-29.744M712 769c2.463 2.202 3.658 4.108 4.832 7.184l.973 2.533 1.008 2.72 1.05 2.799C729 808.98 729 808.98 729 816c-43.893 21.272-88.755 33.031-136.625 41.5l-2.742.485c-3.946.669-7.619 1.081-11.633 1.015-3.7-11.403-6.88-22.878-9.812-34.5l-1.233-4.84A5610 5610 0 0 1 564 808c10.301-3.966 20.954-6.04 31.724-8.304 9.312-1.978 18.595-4.091 27.881-6.188q3.633-.818 7.269-1.625C648.493 787.97 665.759 783.336 683 778l4.834-1.478A1891 1891 0 0 0 699.188 773l3.822-1.191q4.496-1.402 8.99-2.809" id="svg-layer-7" style="pointer-events: all;"/><path fill="#CD7B1B" d="M689 716c1.486 2.481 1.486 2.481 3.031 5.758l1.707 3.586 1.762 3.781 1.762 3.71A819 819 0 0 1 702 743l.856 1.86c1.295 2.892 2.144 4.934 2.144 8.14-6.074 1.774-12.146 3.543-18.281 5.098-7.748 1.967-15.364 4.082-22.937 6.65-13.91 4.695-27.972 7.942-42.334 10.93-7.924 1.676-15.514 3.558-23.104 6.408-14.456 5.382-29.437 6.472-44.719 7.539l-4.98.367q-3.597.268-7.194.529-8.734.633-17.451 1.479c-.91-2.731-1.122-4.299-1.114-7.104v-2.487l.016-2.67.005-2.746c.005-2.893.018-5.787.03-8.68q.009-2.943.014-5.885.017-7.215.049-14.428l2.147-.164c52.148-4.153 103.308-14.831 153.05-30.995 7.013-2.104 7.013-2.104 10.803-.841m-132.855 46.418c-1.992 2.753-1.494 5.329-1.145 8.582 3.634 4.472 9.135 6.51 14.563 7.938 5.723.104 9.119-1.788 13.375-5.5 2.64-3.48 2.622-6.923 2.628-11.168-.566-2.27-.566-2.27-2.324-4.043-7.48-4.093-20.66-.729-27.097 4.191M335 716c7.167.684 13.97 2.35 20.938 4.125l3.748.943c7.917 2.011 15.777 4.175 23.627 6.432 31.636 9.01 63.852 14.972 96.651 17.513 7.143.566 14.057 1.335 21.036 2.987.758 14.68 1.137 29.301 1 44-11.34-.876-22.602-2.194-33.886-3.615a728 728 0 0 0-8.278-.967c-14.364-1.715-28.194-5.356-42.168-8.969a538 538 0 0 0-16.418-3.949l-2.552-.58a935 935 0 0 0-14.657-3.164C361.883 766.132 340.47 760.175 319 753c1.324-4.186 2.892-8.121 4.75-12.098l1.594-3.427 1.656-3.538q1.626-3.485 3.25-6.972l1.453-3.106A156 156 0 0 0 335 716m108 44c-1.984 2.502-2.011 3.732-1.875 6.938 1.43 5.004 3.556 7.312 8.063 9.875 5.8 1.806 10.485 2.092 16.187-.125 4.451-2.862 4.451-2.862 5.625-4.688.418-3.765.32-6.26-1.187-9.75-2.904-3.604-5.534-5.097-10.153-5.648l-3.598.023-3.59-.023c-3.788.434-6.218 1.445-9.472 3.398" id="svg-layer-8" style="pointer-events: all;"/><path fill="none" d="M182 476c9.312 1.541 18.034 4.528 26.938 7.563l4.782 1.614q3.627 1.223 7.25 2.45 7.633 2.583 15.288 5.096l3.762 1.238q3.47 1.14 6.943 2.272l3.103 1.025 2.686.88C255 499 255 499 258 501c-.621 4.391-2.299 7.979-4.312 11.875l-1.054 2.073c-3.625 7.107-7.34 14.168-11.047 21.232a890 890 0 0 0-11.465 22.702l-1.161 2.356-1.006 2.064C227 565 227 565 225 567c-5.113.415-8.978-.405-13.762-2.16l-1.893-.683a820 820 0 0 1-6.032-2.22l-4.172-1.517q-3.127-1.135-6.251-2.277c-6.603-2.417-13.247-4.71-19.912-6.948-3.973-1.365-7.45-2.852-10.978-5.195.575-5.778 1.719-10.98 3.477-16.504l.746-2.404q1.194-3.83 2.402-7.654l1.64-5.262q1.617-5.196 3.242-10.388c1.947-6.232 3.85-12.477 5.743-18.726l.87-2.863zM842 475l.867 3.012q1.659 5.76 3.322 11.519l1.493 5.178c2.633 9.138 5.286 18.266 8.088 27.353l.644 2.102q1.495 4.878 3.031 9.743l1.07 3.476.947 3.012c.565 2.736.789 4.103-.462 6.605-2.028 1.137-2.028 1.137-4.723 2.043l-3.037 1.052-3.303 1.092q-3.418 1.178-6.835 2.36l-3.554 1.217c-5.617 1.957-11.175 4.063-16.735 6.173-18.452 6.99-18.452 6.99-22.813 6.063-4.382-5.336-7.293-12.203-10.437-18.312l-1.537-2.967a5673 5673 0 0 1-3.279-6.34q-2.761-5.342-5.536-10.678-3.641-7.008-7.277-14.02l-1.499-2.888L769 509l-1.703-3.219C766 503 766 503 766.312 500.812c4.275-4.59 13.287-6.026 19.208-7.921l5.54-1.79q4.287-1.381 8.575-2.756 4.193-1.348 8.385-2.704l2.77-.897c7.154-2.342 14.216-4.898 21.232-7.624 3.574-1.364 6.103-2.12 9.978-2.12" id="svg-layer-9" style="pointer-events: all; fill: none;"/><path fill="#869DA8" d="M904 624c2.816 2.41 4.946 4.922 7 8l1.309 1.914c3.993 7.158 3.801 16.145 2.691 24.086-1.136 3.805-2.714 6.77-5 10l-1.246 1.945C904.593 675.65 898.592 678.782 892 681c-9.91 1.53-17.889-.693-26.187-6.062-7.18-6.75-10.831-14.715-11.79-24.446-.062-9.24 2.714-17.615 8.977-24.492 12.892-11.07 26.907-11.261 41-2M157.188 623.625c6.703 5.379 9.861 11.939 11.375 20.313 1.115 10.615-2.032 19.66-8.563 28.062-6.07 5.957-12.894 9.089-21.375 9.375-9.245-.332-15.895-2.588-22.645-9.05-6.125-7.19-8.369-15.05-8.257-24.317.76-8.253 4.335-16.2 10.277-22.008 13.118-10.165 25.254-11.735 39.188-2.375" id="svg-layer-10" style="pointer-events: all;"/><path fill="#CD7B1B" d="M341.504 448.926c5.103 2.972 9.494 6.905 11.312 12.656 1.225 5.63 1.705 10.074-.816 15.418-4.83 6.972-9.55 9.995-17.875 11.875-4.785.427-8.915-.58-13.125-2.875-4.284-3.791-7.679-8.177-8.336-13.953-.097-8.216.51-13.576 5.89-19.863 6.233-5.764 15.156-6.14 22.95-3.258M701.484 449.063c4.748 3.283 8.056 7.317 9.516 12.937.684 5.757 1.124 11.72-1.625 17-4.67 5.898-8.26 8.74-15.723 9.906-6.31.223-11.681-1.81-16.59-5.719-4.737-4.592-6.237-8.546-6.5-15.125.18-6.305 1.378-9.927 5.864-14.523 6.763-6.047 16.534-8.122 25.058-4.476" id="svg-layer-11" style="pointer-events: all;"/><path fill="#869DA8" d="M832 653c.872 3.058 1.72 6.122 2.563 9.188l.748 2.619.693 2.548.65 2.333c.4 2.678.01 4.704-.654 7.312-24.196 7.826-24.196 7.826-34.937 11l-2.11.628C794.251 690 794.251 690 792 690c-8.132-16.605-8.132-16.605-6-23 12.151-6.703 31.823-14 46-14M193 653c11.724 2.605 23.04 5.508 34.313 9.625l2.517.913 2.346.876 2.09.78C236 666 236 666 238 668c.43 6.637-2.074 13.16-5 19l-2 2c-8.053-.157-15.572-2.769-23.186-5.183a744 744 0 0 0-6.615-2.047q-2.112-.66-4.222-1.325l-1.99-.606c-3.652-1.176-5.183-2.035-7.987-4.839z" id="svg-layer-12" style="pointer-events: all;"/><path fill="#08273D" d="m456 756.688 3.625-.051c3.636.391 5.467 1.197 8.375 3.363 2.331 2.894 2.97 4.813 3.563 8.5-.587 3.646-.76 4.124-3.375 6.375-5.023 3.348-9.299 3.82-15.188 3.125-3.883-1.294-6.996-3.028-9.937-5.875-1.406-2.81-1.934-4.976-2.063-8.125 1.272-3.109 2.176-4.576 5.18-6.121 3.379-1.053 6.283-1.18 9.82-1.192M583.238 758.23c2.239 2.249 2.358 3.38 2.387 6.52-.21 4.78-1.397 7.542-4.793 10.898-3.138 2.315-5.922 3.33-9.832 3.352-5.301-1.053-10.33-3.315-15-6-1.525-3.05-1.236-5.642-1-9 4.9-6.837 20.911-9.798 28.238-5.77" id="svg-layer-13" style="pointer-events: all;"/><path fill="#CDD0CC" d="M356 339q5.156.21 10.313.438l2.958.119 2.842.127 2.619.11C377 340 377 340 380 341l-1 2-20-1 1 5.563c1.525 10.43 1.177 20.922 1 31.437h-1a43 43 0 0 1-.937-10.25c.061-5.054-.433-9.986-1-15l-.264-2.33A216 216 0 0 0 356 339" id="svg-layer-14" style="pointer-events: all;"/><path fill="#D7D7D2" d="M491 277h1c1.456 13.439.829 26.547 0 40-4.507-.603-7.859-2.366-11.812-4.562l-1.811-.999A749 749 0 0 1 474 309l2-1 14 7z" id="svg-layer-15" style="pointer-events: all;"/></svg>