<svg xmlns="http://www.w3.org/2000/svg" viewBox="0 0 2048 2048" width="2048" height="2048">
<rect width="100%" height="100%" fill="none"/>
<path fill="#002B49" fill-rule="evenodd" d="M 903 1173 L 904 1180 L 910 1189 L 916 1193 L 925 1195 L 938 1195 L 972 1186 L 986 1184 L 1019 1185 L 1047 1193 L 1077 1195 L 1088 1191 L 1093 1179 L 1093 1171 L 1091 1166 L 1083 1159 L 1060 1148 L 1032 1142 L 1011 1144 L 974 1144 L 967 1142 L 957 1142 L 947 1144 L 922 1154 L 913 1160 L 905 1168 Z M 814 1122 L 814 1130 L 819 1131 L 871 1100 L 914 1088 L 958 1087 L 1009 1091 L 1027 1087 L 1055 1087 L 1107 1096 L 1139 1109 L 1175 1131 L 1182 1128 L 1176 1110 L 1150 1086 L 1106 1066 L 1060 1055 L 1029 1056 L 1003 1061 L 942 1055 L 909 1058 L 883 1066 L 839 1088 L 822 1105 Z M 1169 956 L 1143 907 L 1107 853 L 1084 841 L 1094 876 L 1091 897 L 1077 907 L 1053 907 L 1005 931 L 976 928 L 941 907 L 915 908 L 902 902 L 893 884 L 903 846 L 897 845 L 864 879 L 832 924 L 792 1031 L 829 969 L 870 919 L 874 920 L 869 924 L 876 921 L 895 942 L 951 957 L 997 987 L 1016 986 L 1080 965 L 1101 948 L 1110 928 L 1119 925 L 1161 975 L 1194 1032 Z M 1032 503 L 1032 546 L 1044 581 L 1032 632 L 1034 667 L 1052 697 L 1122 749 L 1115 721 L 1095 685 L 1095 678 L 1111 667 L 1139 660 L 1161 685 L 1182 692 L 1210 685 L 1229 668 L 1296 683 L 1267 660 L 1229 646 L 1172 635 L 1118 635 L 1118 628 L 1114 629 L 1145 607 L 1181 602 L 1266 605 L 1317 616 L 1299 592 L 1257 555 L 1233 546 L 1087 541 L 1061 530 Z M 952 501 L 923 531 L 896 542 L 749 544 L 716 560 L 688 587 L 672 613 L 734 603 L 815 603 L 852 611 L 870 623 L 868 634 L 803 636 L 727 654 L 686 682 L 713 681 L 763 667 L 780 684 L 809 691 L 836 681 L 854 660 L 869 663 L 910 689 L 923 758 L 939 722 L 953 666 L 953 639 L 941 589 L 953 534 Z M 715 126 L 570 296 L 545 447 L 630 289 L 618 406 L 549 553 L 560 613 L 510 623 L 480 688 L 522 925 L 618 1006 L 674 1191 L 670 1299 L 136 1595 L 68 1744 L 45 1983 L 1999 1986 L 1975 1724 L 1907 1584 L 1349 1296 L 1343 1153 L 1381 999 L 1483 936 L 1530 718 L 1513 637 L 1453 615 L 1459 405 L 1393 222 L 1305 141 L 1044 44 L 869 56 Z M 607 1384 L 663 1354 L 687 1421 L 702 1259 L 705 1270 L 711 1254 L 909 1427 L 954 1451 L 1040 1475 L 1153 1565 L 1226 1579 L 1265 1576 L 1333 1510 L 1365 1443 L 1376 1361 L 1416 1379 L 1422 1391 L 1412 1455 L 1383 1516 L 1345 1560 L 1283 1606 L 1154 1654 L 1054 1672 L 972 1674 L 842 1649 L 718 1582 L 675 1541 L 633 1481 Z M 1481 663 L 1488 669 L 1494 689 L 1494 730 L 1486 801 L 1470 874 L 1458 907 L 1444 931 L 1423 950 L 1410 956 L 1396 958 L 1386 951 L 1385 941 L 1397 890 L 1401 886 L 1416 886 L 1434 873 L 1445 850 L 1453 815 L 1455 797 L 1453 751 L 1440 727 L 1449 676 L 1463 665 L 1472 662 Z M 770 163 L 984 208 L 1224 165 L 1284 204 L 1321 272 L 1332 485 L 1376 670 L 1372 754 L 1288 889 L 1250 1185 L 1203 1254 L 1090 1340 L 895 1338 L 752 1236 L 683 1145 L 637 958 L 579 945 L 533 854 L 514 696 L 536 658 L 561 673 L 582 733 L 560 762 L 568 846 L 605 882 L 593 799 L 627 806 L 618 690 L 657 506 L 668 305 L 709 211 Z"/>
<path fill="#FAECD1" fill-rule="evenodd" d="M 615 1387 L 634 1464 L 686 1541 L 755 1598 L 848 1642 L 968 1665 L 1080 1660 L 1175 1629 L 1242 1588 L 1182 1583 L 1140 1568 L 1032 1480 L 959 1462 L 911 1438 L 849 1392 L 711 1265 L 694 1425 L 683 1430 L 676 1422 L 659 1365 Z M 774 170 L 714 218 L 676 308 L 667 496 L 626 700 L 636 815 L 602 805 L 615 889 L 582 882 L 560 850 L 551 766 L 573 733 L 555 680 L 534 667 L 522 715 L 543 857 L 584 939 L 644 953 L 690 1141 L 754 1227 L 888 1327 L 1091 1331 L 1199 1247 L 1237 1194 L 1261 1109 L 1280 883 L 1367 739 L 1365 650 L 1324 490 L 1315 283 L 1276 207 L 1225 174 L 965 216 Z M 1101 1168 L 1101 1182 L 1096 1194 L 1091 1199 L 1080 1203 L 1049 1202 L 1025 1195 L 1003 1192 L 976 1194 L 939 1203 L 922 1203 L 912 1200 L 904 1194 L 895 1181 L 895 1170 L 898 1164 L 914 1149 L 933 1139 L 958 1134 L 1012 1135 L 1030 1133 L 1046 1135 L 1081 1148 L 1094 1157 Z M 805 1122 L 815 1099 L 835 1081 L 889 1055 L 936 1046 L 989 1053 L 1055 1046 L 1094 1053 L 1151 1077 L 1184 1107 L 1190 1119 L 1190 1130 L 1187 1136 L 1173 1139 L 1121 1110 L 1098 1102 L 1059 1096 L 1009 1099 L 963 1096 L 906 1098 L 871 1109 L 817 1140 L 807 1134 Z M 1204 1031 L 1202 1038 L 1191 1034 L 1200 1039 L 1197 1042 L 1188 1036 L 1151 975 L 1118 935 L 1088 970 L 1027 992 L 998 996 L 946 964 L 890 949 L 870 929 L 799 1036 L 787 1045 L 798 1030 L 787 1044 L 786 1039 L 781 1043 L 821 927 L 868 862 L 899 835 L 912 840 L 902 875 L 909 897 L 942 898 L 991 923 L 1020 918 L 1051 899 L 1080 896 L 1085 873 L 1075 836 L 1091 833 L 1102 838 L 1120 856 L 1164 927 Z M 890 707 L 892 713 L 892 721 L 888 733 L 884 739 L 861 763 L 838 778 L 814 788 L 788 792 L 769 790 L 760 787 L 754 783 L 753 777 L 754 776 L 755 779 L 759 782 L 755 778 L 759 774 L 766 771 L 762 770 L 764 768 L 790 759 L 823 744 L 852 724 L 877 703 L 881 702 L 882 704 L 879 706 L 883 704 L 888 709 L 888 712 L 888 708 L 886 705 L 887 704 Z M 1027 495 L 1040 496 L 1065 523 L 1085 532 L 1248 541 L 1294 575 L 1323 609 L 1325 625 L 1251 612 L 1194 610 L 1149 615 L 1129 626 L 1178 627 L 1249 643 L 1278 657 L 1312 686 L 1309 692 L 1291 692 L 1232 677 L 1206 697 L 1184 701 L 1154 690 L 1137 669 L 1104 681 L 1117 715 L 1123 711 L 1172 749 L 1228 774 L 1231 786 L 1190 793 L 1156 783 L 1060 715 L 1035 689 L 1023 645 L 1035 591 L 1021 530 Z M 956 490 L 962 504 L 962 531 L 950 593 L 961 635 L 961 670 L 944 734 L 927 765 L 918 766 L 912 758 L 909 711 L 901 691 L 869 672 L 856 669 L 841 688 L 815 699 L 785 696 L 760 676 L 705 691 L 677 689 L 688 671 L 726 645 L 805 627 L 860 626 L 823 612 L 778 610 L 666 622 L 661 615 L 672 595 L 706 557 L 748 535 L 859 537 L 900 532 L 919 524 L 948 490 L 947 497 Z M 784 403 L 794 395 L 857 381 L 934 378 L 988 385 L 1136 383 L 1188 395 L 1206 403 L 1207 408 L 1204 410 L 1207 411 L 1097 413 L 991 421 L 893 410 L 790 408 L 787 405 L 792 404 Z"/>
<path fill="#051532" fill-rule="evenodd" d="M 608 1384 L 618 1444 L 656 1516 L 718 1581 L 787 1625 L 868 1656 L 949 1671 L 1054 1671 L 1119 1659 L 1002 1672 L 903 1663 L 790 1625 L 706 1569 L 640 1489 L 616 1433 L 608 1389 L 664 1356 L 688 1423 L 704 1255 L 688 1421 L 663 1355 Z M 708 1254 L 842 1378 L 916 1434 L 958 1455 L 1041 1478 L 1118 1546 L 1157 1569 L 1206 1580 L 1257 1580 L 1197 1578 L 1153 1566 L 1110 1538 L 1040 1476 L 965 1456 L 922 1436 L 858 1390 Z M 901 1171 L 901 1179 L 906 1188 L 915 1195 L 923 1197 L 944 1196 L 987 1186 L 1011 1186 L 1052 1196 L 1079 1197 L 1084 1196 L 1091 1191 L 1095 1178 L 1094 1167 L 1082 1156 L 1063 1147 L 1036 1140 L 1004 1142 L 956 1140 L 933 1146 L 912 1158 Z M 902 1173 L 904 1168 L 913 1159 L 929 1149 L 947 1143 L 957 1141 L 967 1141 L 974 1143 L 1011 1143 L 1032 1141 L 1060 1147 L 1083 1158 L 1092 1166 L 1094 1171 L 1094 1179 L 1090 1190 L 1085 1194 L 1077 1196 L 1047 1194 L 1029 1188 L 1010 1185 L 978 1186 L 938 1196 L 925 1196 L 916 1194 L 910 1190 L 903 1180 Z M 811 1125 L 811 1130 L 818 1134 L 867 1104 L 916 1090 L 950 1089 L 992 1093 L 1063 1090 L 1123 1104 L 1174 1133 L 1184 1130 L 1184 1121 L 1178 1109 L 1154 1086 L 1109 1065 L 1064 1053 L 1037 1053 L 1001 1059 L 925 1053 L 897 1059 L 838 1086 L 822 1101 Z M 813 1122 L 821 1105 L 839 1087 L 869 1071 L 909 1057 L 942 1054 L 1003 1060 L 1029 1055 L 1060 1054 L 1106 1065 L 1155 1088 L 1177 1110 L 1183 1128 L 1175 1132 L 1139 1110 L 1107 1097 L 1055 1088 L 1027 1088 L 1009 1092 L 958 1088 L 914 1089 L 871 1101 L 819 1132 L 813 1130 Z M 1198 1033 L 1162 937 L 1098 843 L 1081 839 L 1092 881 L 1083 902 L 990 929 L 940 904 L 905 902 L 896 888 L 900 841 L 829 925 L 789 1038 L 873 920 L 794 1029 L 831 924 L 897 844 L 902 901 L 1005 930 L 1090 897 L 1084 840 L 1108 853 L 1144 907 L 1195 1033 L 1119 926 L 1080 966 L 997 988 L 951 958 L 895 943 L 875 923 L 892 943 L 952 960 L 1001 990 L 1079 968 L 1116 926 Z M 1096 678 L 1097 688 L 1110 716 L 1096 680 L 1110 670 L 1137 662 L 1156 684 L 1179 694 L 1203 691 L 1216 684 L 1228 670 L 1277 684 L 1304 686 L 1258 653 L 1175 633 L 1118 634 L 1172 634 L 1229 645 L 1267 659 L 1297 683 L 1274 682 L 1229 669 L 1210 686 L 1198 692 L 1182 693 L 1161 686 L 1139 661 L 1111 668 Z M 497 633 L 503 874 L 615 1003 L 667 1301 L 132 1596 L 63 1758 L 48 1989 L 2005 1983 L 1978 1727 L 1915 1590 L 1350 1293 L 1383 999 L 1469 963 L 1520 822 L 1530 673 L 1472 612 L 1528 669 L 1520 816 L 1468 962 L 1382 999 L 1350 1296 L 1908 1584 L 1976 1724 L 1999 1987 L 48 1987 L 67 1744 L 135 1595 L 669 1299 L 617 1006 L 533 948 L 484 661 L 556 615 Z M 553 546 L 553 548 L 549 554 L 549 562 L 553 582 L 553 588 L 555 594 L 555 600 L 558 613 L 559 613 L 556 590 L 553 582 L 553 574 L 551 567 L 551 552 L 553 550 Z M 1029 504 L 1029 542 L 1042 583 L 1030 630 L 1034 673 L 1055 703 L 1121 748 L 1052 698 L 1033 667 L 1031 632 L 1043 591 L 1030 539 L 1033 501 L 1061 529 L 1087 540 L 1248 549 L 1281 573 L 1318 615 L 1233 603 L 1145 608 L 1115 629 L 1144 610 L 1180 604 L 1254 606 L 1321 618 L 1284 574 L 1249 548 L 1098 541 L 1063 529 L 1034 499 Z M 952 495 L 924 528 L 898 539 L 743 543 L 706 565 L 667 616 L 797 604 L 844 610 L 870 625 L 841 608 L 803 603 L 671 612 L 706 567 L 742 545 L 896 541 L 927 527 L 951 499 L 942 589 L 954 666 L 923 759 L 909 689 L 854 661 L 836 682 L 809 692 L 780 685 L 763 668 L 687 682 L 752 645 L 868 632 L 735 649 L 683 685 L 762 669 L 787 690 L 813 693 L 864 664 L 909 692 L 924 760 L 955 664 L 944 595 Z M 633 291 L 625 328 L 617 402 L 611 425 L 597 456 L 567 509 L 554 544 L 565 514 L 599 454 L 613 421 L 619 395 L 625 334 Z M 627 290 L 625 290 L 612 304 L 594 326 L 572 360 L 568 368 L 568 371 L 565 374 L 564 379 L 562 381 L 558 394 L 556 396 L 548 422 L 546 438 L 546 433 L 555 402 L 574 359 L 596 325 Z M 770 164 L 710 211 L 669 305 L 658 506 L 619 690 L 628 806 L 594 799 L 606 882 L 567 846 L 559 762 L 581 733 L 560 673 L 536 659 L 515 696 L 534 854 L 568 933 L 638 958 L 684 1145 L 752 1235 L 895 1337 L 1090 1339 L 1203 1253 L 1249 1185 L 1287 889 L 1371 754 L 1375 670 L 1331 485 L 1320 272 L 1283 204 L 1224 166 L 984 209 Z M 774 164 L 972 210 L 1218 166 L 1281 204 L 1321 281 L 1331 494 L 1371 648 L 1371 749 L 1285 891 L 1248 1184 L 1203 1251 L 1092 1337 L 892 1335 L 745 1227 L 682 1137 L 637 953 L 580 943 L 536 856 L 516 692 L 540 660 L 580 735 L 557 769 L 567 850 L 609 886 L 595 799 L 630 813 L 622 671 L 660 500 L 672 297 L 709 215 Z M 557 325 L 543 455 L 549 361 L 584 264 L 628 202 L 715 125 L 815 73 L 914 45 L 1026 41 L 1108 57 L 1314 145 L 1394 222 L 1436 308 L 1458 392 L 1456 610 L 1460 398 L 1440 316 L 1398 226 L 1313 143 L 1108 56 L 955 39 L 876 52 L 779 87 L 697 136 L 628 200 Z"/>
<path fill="#D27726" fill-rule="evenodd" d="M 1416 1385 L 1380 1367 L 1374 1428 L 1363 1466 L 1338 1512 L 1305 1550 L 1273 1577 L 1253 1586 L 1204 1620 L 1143 1650 L 1122 1656 L 1188 1641 L 1241 1622 L 1288 1597 L 1339 1559 L 1375 1519 L 1401 1472 L 1415 1419 Z M 1118 719 L 1122 724 L 1127 738 L 1128 747 L 1130 749 L 1129 751 L 1127 749 L 1127 752 L 1133 759 L 1145 769 L 1156 776 L 1172 783 L 1189 787 L 1211 787 L 1226 783 L 1228 781 L 1219 781 L 1216 777 L 1205 769 L 1194 764 L 1186 762 L 1184 760 L 1182 760 L 1166 752 L 1139 733 L 1122 718 Z M 886 714 L 881 713 L 877 717 L 875 715 L 880 711 L 880 709 L 878 709 L 851 732 L 827 748 L 825 748 L 820 752 L 783 768 L 774 770 L 765 775 L 764 779 L 760 778 L 759 780 L 774 785 L 800 785 L 822 779 L 837 772 L 854 761 L 872 745 L 883 730 L 887 717 Z M 1480 668 L 1469 668 L 1453 679 L 1446 713 L 1446 729 L 1454 740 L 1459 755 L 1461 782 L 1460 804 L 1451 849 L 1443 868 L 1431 883 L 1415 892 L 1403 891 L 1390 941 L 1394 952 L 1412 950 L 1429 940 L 1438 931 L 1454 903 L 1467 867 L 1483 788 L 1489 724 L 1488 683 Z M 792 402 L 913 405 L 988 415 L 1097 407 L 1200 407 L 1164 394 L 1120 388 L 989 391 L 934 384 L 866 386 Z"/>
<path fill="#96A7AB" fill-rule="evenodd" d="M 629 293 L 606 317 L 586 344 L 568 377 L 553 419 L 554 426 L 552 426 L 552 422 L 544 462 L 546 514 L 549 530 L 547 546 L 546 541 L 547 551 L 563 510 L 607 426 L 615 392 L 619 348 L 627 298 L 626 301 L 623 299 Z"/>
</svg>