<svg xmlns="http://www.w3.org/2000/svg" width="500" height="500"><path fill="none" d="M0 0h500v500H0zm303.598 32.02-2.345.001-4.722.005c-16.635.018-33.27.087-49.904.158-9.51.04-19.02.072-28.531.087q-12.6.019-25.197.084c-4.418.022-8.835.038-13.253.037q-6.19 0-12.377.05-2.265.013-4.532.004c-2.062-.007-4.122.011-6.183.035l-3.49.011c-3.72.617-5.386 1.905-8.064 4.508-1.479 2.957-1.152 5.624-1.177 8.925l-.02 2.159c-.02 2.362-.031 4.725-.041 7.088l-.013 2.446q-.03 6.41-.044 12.82c-.011 4.41-.046 8.818-.085 13.228-.027 3.393-.035 6.787-.038 10.181q-.008 2.438-.035 4.875a497 497 0 0 0-.017 6.836l-.018 3.925c.573 4.13 1.89 6.296 4.488 9.517 3.42 1.71 7.336 1.37 11.105 1.527l2.82.126c11.125.47 22.255.693 33.387.91l6.362.13q7.662.158 15.326.307l-3.446 1.25q-6.489 2.356-12.972 4.72l-5.556 2.018A1981 1981 0 0 0 176 137l-2.828 1.053a905 905 0 0 0-8.219 3.135l-2.508.935c-5.553 2.178-9.197 4.772-12.757 9.69-1.498 4.765-1.177 8.849.5 13.437 4.275 6.487 9.937 8.032 17.062 10.063l3.019.886c3.24.947 6.485 1.875 9.731 2.801l3.457 1.001q5.112 1.48 10.23 2.936l3.238.93 3.024.848 2.667.754C205 186 205 186 209 186v2l-2.928.339c-4.54.652-8.84 1.924-13.224 3.243l-2.603.774q-2.713.81-5.423 1.627a1669 1669 0 0 1-8.242 2.449q-2.648.792-5.295 1.588l-2.46.723c-7.463 2.272-14.377 4.496-18.825 11.257-2.194 4.389-1.714 10.508-.387 15.14 2.846 5.766 8.028 7.676 13.78 9.703 2.625.826 5.261 1.6 7.908 2.356l2.903.85c3.034.887 6.071 1.763 9.108 2.638q3.089.9 6.174 1.8 4.335 1.265 8.67 2.52l2.591.75 2.276.656c1.67.496 3.325 1.036 4.977 1.587-5.62 2.17-11.26 4.057-17.031 5.777l-5.145 1.557q-3.997 1.206-7.997 2.402-3.9 1.169-7.796 2.354l-2.384.704c-7.342 2.241-14.34 4.487-18.647 11.206-1.592 4.777-1.994 9.458-.129 14.227 5.017 8.783 13.655 10.788 22.871 13.375.562.16.562.16 3.403.977q3.551 1.017 7.105 2.022c3.608 1.02 7.213 2.052 10.816 3.087q3.463.99 6.926 1.976l3.24.925c5.892 1.663 11.777 3.146 17.768 4.411l-1 3a88 88 0 0 1-7.824 2.746q-2.483.788-4.963 1.582l-2.608.827c-4.176 1.355-8.306 2.832-12.437 4.318l-2.483.89-4.991 1.796q-3.783 1.363-7.567 2.718a1537 1537 0 0 0-9.711 3.522 294 294 0 0 1-8.296 2.901l-3.444 1.196-2.92.97c-3.9 2.17-6.481 4.676-8.756 8.534-.845 3.706-.801 7.3-.745 11.088l-.022 3.319c-.016 3.607.011 7.213.04 10.82q.002 3.767-.003 7.534 0 7.885.058 15.771c.042 6.071.049 12.141.037 18.212-.012 5.853 0 11.705.022 17.558q.012 3.727.007 7.456c-.001 3.471.024 6.941.057 10.412l-.015 3.115c.065 4.382.141 7.002 2.41 10.83 3.947 3.455 8.03 3.031 12.998 3.025l2.447.01q4.072.01 8.146.011l5.83.015q7.927.019 15.854.024l9.901.012q15.48.02 30.961.027 17.884.007 35.77.05 13.815.033 27.63.034 8.255 0 16.511.025 7.764.023 15.528.01 2.85-.002 5.702.013c2.593.013 5.185.007 7.778-.004l2.284.025c4.449-.042 7.292-.626 10.814-3.392 2.108-3.162 2.252-3.921 2.267-7.534l.026-2.817-.002-3.084.02-3.253c.019-3.558.023-7.117.025-10.675l.02-7.41q.017-7.774.015-15.548c0-6.641.027-13.282.061-19.924.022-5.103.026-10.207.025-15.31q.005-3.673.027-7.346c.02-3.425.014-6.85.002-10.276l.034-3.066c-.053-5.899-.572-9.276-4.52-13.757-3.663-2.442-5.401-2.243-9.766-2.227h-2.07c-2.257 0-4.513.016-6.77.032l-4.695.008c-4.118.008-8.236.028-12.354.05-4.203.02-8.406.03-12.609.04-8.245.02-16.49.055-24.736.097.287-2.88.287-2.88 1-6 2.75-1.547 5.054-2.552 8.004-3.55l2.492-.91q2.647-.96 5.307-1.89c2.765-.964 5.516-1.96 8.267-2.963 6.67-2.425 13.358-4.797 20.063-7.125q3.464-1.204 6.92-2.432 2.901-1.03 5.826-1.989c7.378-2.613 11.485-6.967 15.621-13.516.978-5.134.935-10.133-1.727-14.757-4.981-6.079-9.837-7.737-17.367-9.423l-3.35-.825a898 898 0 0 0-10.556-2.495q-3.55-.855-7.098-1.719a1744 1744 0 0 0-13.037-3.113A223 223 0 0 1 287 266c9.104-3.878 18.485-6.904 27.875-10l4.762-1.578 2.35-.779 4.6-1.525c3.36-1.114 6.72-2.217 10.091-3.296l3.228-1.04 2.752-.874c4.127-1.6 7.112-3.914 9.467-7.732 1.909-4.746 1.668-10.435.258-15.309-2.505-5.12-6.376-6.835-11.383-8.867-3.519-1.097-7.076-1.941-10.668-2.762l-3.024-.715c-3.163-.746-6.33-1.479-9.495-2.21l-6.413-1.51q-5.865-1.382-11.737-2.743l-2.37-.55A295 295 0 0 0 290 203l3.003-1.082 4.204-1.516 2.268-.817a7119 7119 0 0 0 17.275-6.25l2.458-.89a911 911 0 0 1 13.167-4.656l2.61-.914a265 265 0 0 1 4.47-1.518c5.964-2.109 11.041-5.537 14.045-11.17.904-5.763.635-10.944-2.5-16-5.655-6.761-15.373-8.255-23.562-10.167l-3.25-.783c-3.394-.816-6.791-1.621-10.188-2.424q-5.138-1.224-10.273-2.457a1658 1658 0 0 0-6.374-1.516l-2.884-.688c-.841-.2-1.682-.398-2.55-.603C290 139 290 139 289 138l1.849-.612q9.615-3.183 19.226-6.377l7.155-2.37a2503 2503 0 0 0 25.135-8.449 410 410 0 0 0 5.592-1.993l2.831-1.024c2.662-1.414 3.745-2.544 5.212-5.175.908-4.3 1.11-8.365 1.07-12.752l-.015-1.959a67440.575 67440.575 0 0 1-.12-10.8 3859 3859 0 0 0-.122-9.292c-.055-3.964-.092-7.927-.124-11.89-.028-3.057-.069-6.113-.113-9.17q-.03-2.191-.043-4.384a544 544 0 0 0-.085-6.13l-.043-3.519c-.458-3.51-1.186-5.354-3.405-8.104-3.992-2.054-7.327-2.235-11.777-2.198l-2.01.008c-2.198.01-4.396.035-6.594.06q-2.354.016-4.708.027-4.954.027-9.91.068c-4.8.036-9.602.05-14.403.054" id="svg-layer-0" style="pointer-events: all; fill: none;"/><path fill="#002036" d="M320.501 31.913c3.247-.039 6.494-.065 9.742-.09q2.29-.021 4.582-.06c2.101-.035 4.202-.05 6.304-.062l3.596-.044c3.705.388 6.095 1.437 9.275 3.343 2.52 3.286 2.292 6.749 2.366 10.785l.045 2.041c.047 2.222.078 4.444.109 6.666l.08 4.648q.08 4.87.143 9.74c.055 4.151.132 8.302.216 12.454.061 3.2.108 6.4.151 9.6q.034 2.295.083 4.59c.044 2.144.068 4.288.088 6.433l.055 3.69c-.382 3.807-1.27 6.143-3.336 9.353-1.88 1.328-1.88 1.328-4.01 2.138l-2.42.948c-.425.15-.425.15-2.57.914l-2.555.935c-2.753.981-5.518 1.92-8.289 2.85l-3.058 1.038a5370 5370 0 0 1-9.598 3.24l-6.441 2.181A5001 5001 0 0 1 289 138c3.257 1.366 6.43 2.442 9.863 3.265l2.842.689 3.037.726q3.21.782 6.418 1.566 5.038 1.226 10.079 2.435c3.253.782 6.503 1.577 9.753 2.374.998.235 1.996.47 3.025.714 6.84 1.69 12.56 3.488 17.358 8.918 2.729 5.563 3.255 10.089 1.563 16.063-4.835 8.11-12.055 10.06-20.625 12.938a4245 4245 0 0 0-5.583 1.933q-1.923.668-3.849 1.331c-7.085 2.446-14.108 5.055-21.131 7.673l-3.57 1.327q-4.09 1.521-8.18 3.048l3.342.763q6.25 1.427 12.497 2.862 2.683.615 5.367 1.228 8.908 2.03 17.794 4.147l2.262.534c2.05.49 4.096.998 6.14 1.513l3.45.854c4.614 1.61 8.123 3.698 11.023 7.661 2.007 6.133 2.284 11.987-.5 17.875-4.716 5.089-9.96 7.371-16.422 9.368l-2.333.747a1385 1385 0 0 1-7.37 2.323l-4.809 1.527q-3.594 1.145-7.19 2.285a1545 1545 0 0 0-17.392 5.633l-2.35.77c-5.392 1.793-5.392 1.793-6.509 2.91q6.25 1.654 12.5 3.301 5.26 1.388 10.518 2.788c8.125 2.157 16.235 4.233 24.456 5.995 12.683 2.786 12.683 2.786 16.589 8.678 2.044 4.882 2.75 9.282 1.332 14.441-3.05 6.977-8.532 11.258-15.481 14.051q-2.922 1.069-5.86 2.094l-3.172 1.149a1603 1603 0 0 1-10.007 3.565q-3.33 1.195-6.656 2.393l-3.268 1.175q-3.182 1.146-6.363 2.294c-4.321 1.559-8.64 3.107-13.005 4.536l-3.575 1.224-2.941.95L280 336c-.63 3.085-.63 3.085-1 6l2.624-.027q12.248-.12 24.498-.18c4.198-.021 8.396-.05 12.594-.095q6.078-.063 12.157-.078 2.317-.01 4.635-.043a455 455 0 0 1 6.499-.031l3.734-.027c3.917.578 5.502 1.682 8.259 4.481 1.807 2.981 2.253 5.195 2.267 8.661l.026 2.825-.002 3.078.02 3.258c.019 3.558.023 7.116.025 10.674l.02 7.413q.017 7.771.015 15.542c0 6.643.027 13.285.061 19.928.022 5.103.026 10.207.025 15.31q.005 3.675.027 7.348c.02 3.423.014 6.846.002 10.27l.034 3.071c-.04 4.358-.104 6.92-2.363 10.728-3.946 3.465-8.028 3.04-13.001 3.034l-2.447.01q-4.072.01-8.146.011l-5.83.015q-7.927.019-15.854.024l-9.901.012q-15.48.02-30.961.027-17.884.007-35.77.05-13.815.033-27.63.034-8.255 0-16.511.025-7.764.023-15.528.01-2.85-.002-5.702.013c-2.593.013-5.185.007-7.778-.004l-2.284.025c-4.449-.042-7.292-.626-10.814-3.392-2.116-3.174-2.255-3.968-2.28-7.604l-.035-2.863-.007-3.136-.03-3.307c-.03-3.618-.043-7.237-.054-10.856l-.035-7.537q-.027-6.897-.037-13.795-.014-10.138-.102-20.275c-.048-5.861-.064-11.722-.067-17.583q-.009-3.736-.049-7.468a773 773 0 0 1-.017-10.456l-.056-3.111c.07-6.02.954-9.353 5.202-13.713 2.331-1.928 4.595-2.95 7.45-3.929l3.487-1.235 3.755-1.257q1.959-.683 3.916-1.37 4.207-1.477 8.424-2.927c4.81-1.664 9.596-3.397 14.379-5.14.408-.15.408-.15 2.475-.902l4.894-1.783a4438 4438 0 0 1 11.576-4.198l2.035-.74c2.513-.906 4.94-1.768 7.564-2.287L220 316l1-3-2.634-.631c-11.663-2.85-23.215-6.054-34.751-9.378a1163 1163 0 0 0-6.533-1.852c-3.19-.895-6.375-1.81-9.559-2.729l-2.935-.812c-6.848-2.011-11.338-4.298-15.463-10.348-1.672-4.83-2.135-9.34-.434-14.242 2.82-5.496 7.025-8.126 12.658-10.3l3.64-1.11 1.99-.616c2.108-.649 4.22-1.284 6.333-1.92l4.343-1.331c8.256-2.53 16.526-5.027 24.836-7.373 4.407-1.256 4.407-1.256 5.509-2.358l-3.481-1.038q-6.476-1.932-12.95-3.87-2.787-.833-5.574-1.663c-32.071-9.563-32.071-9.563-36.089-16.25-1.756-4.224-1.42-8.699-.906-13.179 2.402-5.284 5.887-7.609 11-10 4.41-1.636 8.884-3.042 13.375-4.437l3.766-1.188Q182.566 194.674 188 193l2.9-.9q3.545-1.094 7.1-2.162l2.025-.617c3.191-.937 5.597-1.321 8.975-1.321v-2l-3.39-.339c-4.93-.62-9.597-1.883-14.368-3.243l-2.747-.774q-2.859-.809-5.713-1.627c-2.902-.828-5.809-1.639-8.716-2.449q-2.787-.792-5.574-1.588l-2.614-.723c-6.536-1.9-12.163-4.196-15.878-10.257-1.786-5.358-1.563-9.49.375-14.687 4.807-7.431 16.768-10.031 24.652-12.922l3.366-1.25q5.27-1.952 10.545-3.891l7.158-2.652q6.519-2.416 13.04-4.82l2.634-.97c1.734-.628 3.48-1.225 5.23-1.808l-3.89-.076q-7.305-.145-14.61-.296-3.131-.065-6.262-.125-9.115-.178-18.229-.43a822 822 0 0 0-9.039-.156l-5.677-.14-2.623-.01c-4.396-.143-6.147-.347-9.688-3.19-3.153-4.1-3.12-6.35-3.159-11.518l-.02-2.163c-.02-2.368-.031-4.735-.041-7.103l-.013-2.45q-.03-6.417-.044-12.835c-.011-4.42-.046-8.837-.085-13.256-.026-3.398-.035-6.796-.038-10.194a582 582 0 0 0-.035-4.886 499 499 0 0 1-.017-6.843l-.018-3.932c.569-3.96 1.694-5.591 4.488-8.397 2.786-1.393 5.075-1.14 8.193-1.158l1.947-.015q3.248-.022 6.495-.032l4.648-.03q6.34-.04 12.682-.068 6.68-.035 13.36-.076 11.272-.067 22.544-.124 15.705-.081 31.41-.174a82950 82950 0 0 1 37.455-.21 5858 5858 0 0 1 16.847-.07l2.337-.007c4.862-.019 9.722-.063 14.583-.123m-86.938 27.4c-4.26 5.694-6.215 11.083-5.977 18.195.92 5.534 4.245 9.638 8.289 13.367C241.298 94.562 246.512 95.559 253 95c6.047-1.356 10.695-3.394 15-8 3.286-5.354 5.165-10.728 4-17-1.91-6.62-5.081-11.386-11-15-9.655-4.372-19.92-4.033-27.437 4.313M157 88v19h75c-1-4-1-4-3.25-5.75-4.287-3.507-7.003-8.01-8.75-13.25zm87 31v57l12-4v-53zm48.638.498c-2.786.53-5.323.615-8.158.6l-3.095-.01-3.197-.025-3.256-.014q-3.966-.018-7.932-.049c-1.312 2.623-.896 4.23-.562 7.125l.308 2.758L267 132c3.982-1.241 7.96-2.495 11.938-3.75l3.384-1.055c6.425-2.035 12.6-4.274 18.678-7.195v-1c-2.88-.067-5.536-.098-8.362.498m-66.908 12.889-6.285 2.428C200.402 142.173 181.225 149.137 162 156v4c6.192 2.574 12.356 4.873 18.813 6.688l2.57.729c9.694 2.69 19.47 5.07 29.242 7.458l2.533.621q3.596.878 7.194 1.746l2.203.54c2.893.69 5.459 1.218 8.445 1.218v-14l-5.871-1.496-5.61-1.44q-1.953-.5-3.908-.998-2.804-.715-5.607-1.437l-3.412-.873C206 158 206 158 205 157q5.593-2.438 11.188-4.875l3.197-1.395 3.095-1.347 2.841-1.238c2.543-1.087 5.11-2.118 7.679-3.145v-15c-2.373 0-5.132 1.557-7.27 2.387M266 147v14l38 9-20.252 6.312-3.87 1.208-2.095.654a481 481 0 0 0-10.756 3.494c-3.503 1.183-7.034 2.195-10.6 3.168-10.567 2.893-20.948 6.28-31.323 9.784-15.901 5.368-31.892 10.448-47.89 15.516l-3.015.957q-2.823.896-5.65 1.788l-2.531.803-2.215.7C162 215 162 215 160 216c.287 1.871.287 1.871 1 4 5.836 3.522 11.917 5.332 18.465 7.094l3.005.828a1756 1756 0 0 0 6.28 1.714q4.723 1.283 9.44 2.587c11.55 3.17 23.124 6.147 34.81 8.777v-14a1084 1084 0 0 0-22.947-5.554l-2.073-.481-1.815-.418c-3.076-.777-6.118-1.666-9.165-2.547q10.785-3.42 21.57-6.833 5.01-1.586 10.02-3.175 5.787-1.834 11.574-3.664l3.56-1.13c8.053-2.544 16.148-4.906 24.276-7.198 12.03-3.442 23.976-7.132 35.885-10.974a1150 1150 0 0 1 5.621-1.791c11.358-3.588 22.05-7.453 32.494-13.235l-1-5c-11.37-3.721-22.801-6.798-34.437-9.562l-4.698-1.131q-4.634-1.115-9.27-2.214-4.687-1.111-9.365-2.26l-4.578-1.11-2.113-.527C272.83 147.304 269.881 147 266 147m-22 66v25c11-3 11-3 12-4a91 91 0 0 0 .098-5.129l-.01-3.135-.026-3.298-.013-3.311q-.018-4.064-.049-8.127c-4.818-.23-7.148.383-12 2m23-2v13c11.633 3.141 23.304 6.103 35 9l-2.492.724c-22.267 6.494-44.405 13.359-66.51 20.386-17.573 5.586-35.176 11.037-52.882 16.187-7.275 2.13-14.283 4.364-21.116 7.703.481 2.316.481 2.316 2 5a56.7 56.7 0 0 0 8.3 2.945l2.554.751c2.71.79 5.426 1.55 8.146 2.304l5.31 1.507c5.284 1.489 10.58 2.931 15.877 4.368l5.522 1.508Q213.354 298.198 220 300v-14l-22-6c11.256-4.502 11.256-4.502 15.531-5.86l2.917-.93 3.052-.96 3.247-1.03c11.047-3.494 22.121-6.901 33.202-10.285q3.1-.95 6.196-1.91a1017 1017 0 0 1 20.55-6.12c12.065-3.464 24.11-6.996 36.118-10.655l3.57-1.067c6.918-2.13 13.265-4.704 19.617-8.183-.75-4.75-.75-4.75-3-7-1.946-.587-1.946-.587-4.36-1.066l-2.747-.557-2.998-.584-3.122-.628a3009 3009 0 0 0-9.96-1.977q-6.46-1.288-12.918-2.583l-3.217-.642c-10.921-2.19-21.802-4.56-32.678-6.963m-35 65c-1.909 11.666-1.73 24.322 0 36 7.927-1.983 15.47-4.55 23.063-7.562l3.123-1.21c7.558-2.972 7.558-2.972 9.814-5.228.227-2.247.227-2.247.195-5.008l-.02-2.988-.05-3.129-.027-3.152A1137 1137 0 0 0 268 276c-8.267-.822-16.445-1.109-24.75-1.125l-2.997-.014-2.8.006-2.526.004C233 275 233 275 232 276m46 2v14l5.18 1.277 6.695 1.66 3.418.842 3.262.81 3.015.747C302 298 302 298 304 299l-2.488.808c-11.777 3.872-23.424 8.084-35.074 12.317l-6.301 2.285q-7.691 2.79-15.38 5.588l-7.49 2.72c-16.18 5.87-32.278 11.91-48.267 18.282v1c25.762 2.22 45.24-1.595 68.916-11.647 9.784-4.137 19.769-7.693 29.771-11.26q4.442-1.587 8.877-3.192l5.608-2.026 2.738-.99a689 689 0 0 1 13.643-4.764l2.72-.923q2.518-.853 5.046-1.677c5.278-1.79 10.33-3.964 14.681-7.521.813-2.625.813-2.625 0-5-3.591-2.587-6.816-3.593-11.137-4.395l-3.653-.698-3.897-.72q-4.047-.77-8.09-1.558l-2.068-.4c-8.134-1.59-16.193-3.484-24.255-5.4l-3.072-.727-2.69-.646C280 278 280 278 278 278m-44.812 105.75c-3.887 5.775-6.056 11.185-5.188 18.25 1.95 6.617 5.144 11.287 11 15 5.802 2.823 11.68 2.741 18 2 5.654-2.101 9.701-6.052 13-11 2.346-5.536 2.565-11.214 1-17-2.701-5.892-6.342-10.28-12.293-13.078-9.558-3.255-18.472-1.063-25.52 5.828" id="svg-layer-1" style="pointer-events: all;"/><path fill="#F1E6D3" d="M266 147c6.328.6 12.364 1.62 18.547 3.074l2.703.625q2.824.656 5.647 1.32c2.802.657 5.607 1.303 8.412 1.948 9.523 2.21 18.984 4.586 28.394 7.24l2.698.754 2.495.718 2.189.627C339 164 339 164 342 166c-.098 2.296-.098 2.296-1 5-2.2 1.405-4.04 2.324-6.437 3.27l-2.118.878c-9.817 3.96-19.922 7.175-29.99 10.424a2294 2294 0 0 0-10.346 3.375c-10.302 3.361-20.539 6.524-31.086 9.022-8.802 2.171-17.401 5.18-26.023 7.969l-5.734 1.841q-4.195 1.346-8.388 2.695A2379 2379 0 0 1 197 218c10.263 2.975 20.398 5.623 30.938 7.422C231 226 231 226 233 227v14c-13.217-2.952-26.271-6.43-39.315-10.063-3.402-.945-6.808-1.875-10.214-2.804l-6.545-1.82-3.059-.828c-5.265-1.487-9.67-2.898-13.867-6.485v-3c18.057-6.087 36.125-12.112 54.334-17.73 7.329-2.262 14.637-4.568 21.908-7.008l2.049-.688q4.813-1.62 9.617-3.264a215 215 0 0 1 19.038-5.517c5.717-1.485 11.28-3.446 16.866-5.356q3.51-1.191 7.02-2.378l3.085-1.053c3.334-1.088 6.71-2.043 10.083-3.006l-38-9z" id="svg-layer-2" style="pointer-events: all;"/><path fill="#F0E6D3" d="m267 211 3.918.839q7.372 1.576 14.746 3.15 4.889 1.043 9.774 2.092c18.474 3.948 18.474 3.948 27.144 5.556l3.518.66q3.06.562 6.13 1.08c6.218 1.145 6.218 1.145 8.942 3.506.828 2.117.828 2.117.764 4.074-1.485 3.241-3.806 3.608-7.077 4.852l-1.994.759c-8.74 3.246-17.68 5.914-26.606 8.591a2256 2256 0 0 0-8.97 2.718c-9.917 3.006-19.854 5.844-29.89 8.429-6.082 1.578-12.027 3.436-17.961 5.507-9.732 3.32-19.517 6.416-29.358 9.397-20.521 6.231-20.521 6.231-22.08 7.79l22 6v14q-9.713-2.661-19.421-5.334-3.297-.907-6.593-1.81a2025 2025 0 0 1-18.413-5.127 665 665 0 0 0-4.767-1.333 293 293 0 0 1-5.197-1.505l-2.641-.765c-2.685-1.536-3.103-3.233-3.968-6.126 7.052-3.403 14.265-5.772 21.754-8.02l5.675-1.727q3.004-.912 6.007-1.819c6.29-1.899 12.574-3.815 18.858-5.729l6.384-1.942c14.792-4.501 29.545-9.124 44.289-13.778 13.29-4.184 26.643-8.13 40.033-11.985l-2.998-.719q-5.496-1.318-10.991-2.644l-4.761-1.144a4280 4280 0 0 1-6.836-1.645l-2.156-.515c-5.03-1.22-5.03-1.22-7.258-2.333z" id="svg-layer-3" style="pointer-events: all;"/><path fill="#EFE5D2" d="M278 278a1282 1282 0 0 1 37.372 7.85c7.09 1.594 14.186 3.12 21.32 4.51C339 291 339 291 341 293c.625 2.313.625 2.313 0 5-6.71 5.162-14.52 7.5-22.445 10.162-4.403 1.48-8.794 3-13.184 4.518l-2.902 1.002c-12.705 4.411-25.319 9.078-37.935 13.738q-2.849 1.052-5.698 2.101-5.4 1.99-10.797 3.987l-3.237 1.195-3.07 1.137-2.936 1.085a135 135 0 0 0-5.446 2.23c-5.675 2.466-10.248 3.404-16.42 3.236l-2.446-.018a663 663 0 0 1-7.609-.123q-2.606-.03-5.21-.055c-4.223-.043-8.444-.112-12.665-.195 5.328-3.552 11.548-5.499 17.5-7.812.754-.295 1.508-.59 2.285-.892 19.15-7.452 38.537-14.263 57.914-21.098l3.769-1.33q3.49-1.231 6.984-2.457c6.64-2.34 13.217-4.801 19.767-7.381 2.261-.837 4.43-1.514 6.781-2.03-8.596-2.772-17.178-5.061-26-7z" id="svg-layer-4" style="pointer-events: all;"/><path fill="#F1E7D4" d="M233 130v15l-5.617 2.371-14.5 6.125-3.27 1.38A88 88 0 0 0 205 157c6.079 2.422 12.143 4.158 18.5 5.688l2.781.681q3.359.82 6.719 1.631v14c-9.692-1.417-19.055-3.641-28.524-6.094-2.508-.648-5.018-1.285-7.529-1.922-8.569-2.19-17.097-4.521-25.568-7.062l-2.462-.704c-5.568-1.719-5.568-1.719-7.44-4.4L161 157c8.08-3.49 16.244-6.571 24.559-9.452 14.914-5.173 29.606-10.816 44.25-16.713C232 130 232 130 233 130" id="svg-layer-5" style="pointer-events: all;"/><path fill="#F1E6D3" d="M157 88h63l4 8c2.532 3.335 4.52 5.68 8 8v3h-75z" id="svg-layer-6" style="pointer-events: all;"/><path fill="#B96B1A" d="M261.875 55.75c5.31 3.934 8.586 7.708 10.125 14.25.637 6.478-.376 11.508-4 17-5.266 5.357-10.915 7.622-18.375 8.313-6.918-.597-11.827-1.964-16.562-7.25-4.117-5.051-5.586-8.82-5.442-15.333.832-5.992 3.714-11.57 8.191-15.668 8.667-5.607 16.946-7.105 26.063-1.312M244 68c-2.345 3.518-2.58 4.858-2 9 2.063 2.938 2.063 2.938 5 5 3.992.07 6.154-.414 9.438-2.687C258.51 76.244 258.594 74.64 258 71c-1.85-3.082-3.098-4.63-6.437-6-3.358 0-4.91.992-7.563 3" id="svg-layer-7" style="pointer-events: all;"/><path fill="#B86C1B" d="M260.438 378.625c5.558 3.298 9.087 8.092 11.12 14.168 1.103 5.512.336 11.03-2.245 16.02-3.288 4.53-7.041 8.065-12.313 10.187-7.6.864-14.784.829-21-4-5.138-4.748-7.566-9.24-8.375-16.25.673-6.73 2.674-12.661 7.813-17.25 6.986-5.576 16.851-6.593 25-2.875m-16.875 12.938c-2.193 3.42-2.193 5.447-1.563 9.437 2.45 3.387 3.864 4.787 8 5.563 3.805-.714 5.451-1.64 8-4.563.625-3.437.625-3.437 0-7-2.062-2.937-2.062-2.937-5-5-3.99-.63-6.017-.63-9.437 1.563" id="svg-layer-8" style="pointer-events: all;"/><path fill="#BB6A15" d="m238.723 274.867 3.572-.004 3.768.012 3.685-.012c6.178.007 12.146.177 18.252 1.137.145 3.604.234 7.207.313 10.813l.126 3.103.05 2.979c.025.906.052 1.811.079 2.745-.568 2.36-.568 2.36-2.724 4.026a135 135 0 0 1-8.844 3.78l-3.437 1.324-3.563 1.355-3.562 1.379c-9.56 3.661-9.56 3.661-14.438 4.496-1.73-11.678-1.909-24.334 0-36 1.77-1.77 4.326-1.13 6.723-1.133" id="svg-layer-9" style="pointer-events: all;"/><path fill="#6BA7AB" d="M244 119h12v53l-12 4zM256 211v23c-10 4-10 4-12 4v-25c6-2 6-2 12-2" id="svg-layer-10" style="pointer-events: all;"/><path fill="#001C2D" d="M253 390c3.725 2.616 4.835 4.06 5.625 8.563C258 402 258 402 255.875 404.438c-3.41 1.853-5.057 2.278-8.875 1.562-2.875-2.062-2.875-2.062-5-5-.63-3.99-.63-6.017 1.563-9.437 3.42-2.193 5.447-2.193 9.437-1.563" id="svg-layer-11" style="pointer-events: all;"/><path fill="#E3DBCC" d="M298.063 118.938 301 119c-3.542 3.1-7.55 4.456-11.937 5.938l-2.264.781c-6.554 2.245-13.156 4.317-19.799 6.281a857 857 0 0 1-.562-5.437l-.317-3.06L266 121c1-1 1-1 3.576-1.098l7.06.059 7.727.078 3.668.023 3.393.036c3.224-.123 3.237-1.091 6.639-1.16" id="svg-layer-12" style="pointer-events: all;"/><path fill="#001D2D" d="M255 67c2.486 2.32 2.945 3.622 3.438 7-.438 3-.438 3-2 5.313-3.284 2.273-5.446 2.757-9.438 2.687-3.428-2.407-4.786-3.858-5.562-8 .69-3.682 1.93-5.368 4.562-8 3.84-1.28 5.34-.601 9 1" id="svg-layer-13" style="pointer-events: all;"/></svg>