<svg xmlns="http://www.w3.org/2000/svg" width="1024" height="1024"><path fill="none" d="M0 0h1024v1024H0z" id="svg-layer-0" style="pointer-events: all; fill: none;"/><path fill="#06273A" d="m518.742 118.974 3.741-.019 3.375-.023c15.058.326 28.438 6.736 39.244 17.08 12.556 13.599 12.341 29.902 12.315 47.394q.01 3.409.026 6.818c.023 6.146.028 12.292.03 18.438.006 6.436.03 12.871.05 19.307q.052 16.194.076 32.39.024 16.663.063 33.325l.005 2.077a55330 55330 0 0 0 .092 34.257q.032 11.498.047 22.997.011 7.134.03 14.268.006 3.317.008 6.634.003 4.513.018 9.027l-.003 2.674c.015 3.376.066 6.157 1.141 9.382l1.75.813C583 397 583 397 584.777 400.02c1.977 2.433 3.032 2.942 6.158 3.564 3.636.232 7.234.299 10.878.291l3.833.063q4.677.07 9.354.062l.5-1.899c2.117-7.908 4.49-15.727 6.938-23.538l.645-2.066c4.02-12.847 8.254-25.618 12.533-38.381 5.16-15.394 10.122-30.848 15.038-46.321 7.506-23.625 15.072-47.23 22.849-70.767q1.175-3.562 2.341-7.127a2305 2305 0 0 1 3.293-9.967l.96-2.958c3.747-11.166 7.892-18.97 18.653-24.351 6.239-1.2 13.113-1.46 19.25.375l.008-2.055c.42-10.126 4.665-17.504 11.996-24.41 7.406-5.696 14.626-7.684 23.792-7.682l2.396-.011q3.978-.015 7.956-.019l5.702-.02c6.247-.02 12.493-.031 18.74-.041l6.459-.013q15.18-.029 30.359-.041 17.498-.015 34.994-.077 13.538-.044 27.076-.048c5.386-.002 10.771-.011 16.157-.036a2297 2297 0 0 1 15.22-.018q2.78.001 5.561-.02c14.6-.102 27.495.896 38.584 11.491l1.742 1.656c7.225 7.62 8.87 16.545 8.754 26.723l.005 3.188q-.003 3.315-.034 6.628c-.03 3.362-.021 6.722-.008 10.084q-.01 3.238-.025 6.475l.008 3.012c-.149 11.158-3.638 20.026-11.294 28.214-8.324 7.778-17.067 10.183-28.266 10.14l-2.463.003q-4.082 0-8.162-.01l-5.855.001q-7.946-.001-15.89-.013c-5.537-.006-11.073-.006-16.609-.008a47617 47617 0 0 1-31.449-.021q-17.901-.015-35.804-.022-36.825-.016-73.65-.05-.955 2.361-1.907 4.724l-1.073 2.657c-1.474 3.785-2.703 7.63-3.903 11.51l-.775 2.467q-.816 2.601-1.627 5.202a4620 4620 0 0 1-5.212 16.573c-2.48 7.839-5.062 15.64-7.69 23.43-3.364 9.98-6.577 20-9.688 30.062-4.624 14.936-9.533 29.767-14.512 44.588-3.036 9.037-6.048 18.082-9.06 27.127q-2.228 6.687-4.463 13.37c-3.018 9.03-6.034 18.057-8.93 27.126l-1.206 3.742q-1.022 3.175-2.004 6.362c-3.73 11.56-9.265 21.756-19.95 28.06-12.153 6.008-26.157 4.442-39.312 4.25q-3.597-.03-7.194-.055-8.748-.066-17.494-.195l-.745 2.771c-1.357 3.492-2.506 4.548-5.33 6.89-6.367 6.87-4.915 15.983-4.737 24.777q.05 5.185.042 10.37l-.001 2.488c-.134 11.794-4.41 21.545-12.229 30.391-7.32 6.925-17.95 11.442-27.948 11.433l-3.688.004-4.037-.01h-4.258q-5.775-.001-11.552-.013c-4.026-.006-8.05-.006-12.076-.008q-11.432-.005-22.864-.021-13.015-.015-26.031-.022-26.773-.016-53.546-.05l1 54c18.063.313 18.063.313 23.723.388q2.25.048 4.5.1l2.312.02c6.441.17 11.122 1.575 16.215 5.742 6.055 7.4 6.406 15.682 6.453 24.805l.017 2.607q.014 2.72.02 5.441c.01 2.756.041 5.512.072 8.268q.01 2.655.016 5.309l.038 2.469c-.023 5.842-.68 11.8-4.712 16.38-5.28 4.646-9.845 5.723-16.74 5.698h-2.1c-2.278 0-4.556-.016-6.834-.032l-4.754-.008c-4.16-.008-8.321-.028-12.482-.05-4.25-.02-8.5-.03-12.75-.04-8.331-.02-16.663-.055-24.994-.097l.217 1.947c.531 4.99.9 9.879.846 14.905l-.026 3.782-.037 3.991c-.083 12.873.178 25.704.732 38.565.3 7.697.12 15.152-.732 22.81l2.643-.048q4.894-.075 9.79-.117 2.11-.022 4.222-.061c2.033-.037 4.065-.054 6.099-.067l3.697-.048c4.838.465 8.952 1.69 12.424 5.279 1.974 3.618 2.254 6.946 2.286 11.027l.03 2.983.012 3.204.017 3.31q.014 3.464.02 6.927c.01 3.532.041 7.062.072 10.593q.01 3.367.016 6.733l.038 3.198c-.021 6.772-.818 10.307-5.471 15.384-4.104 2.414-7.544 2.144-12.207 1.953l-2.534-.055A424 424 0 0 1 384 877l1 2.75c1 3.25 1 3.25 1 7.25q8.51.296 17.023.44 2.89.06 5.781.164c18.088.636 18.088.636 23.731-4.51l1.797-2.166c3.332-3.852 8.032-4.56 12.883-5.237 7.616-.441 14.585 2.343 20.598 6.934 5.057 4.83 7.824 10.104 8.597 17.074.23 10.013-.879 17.258-7.805 24.766-5.778 5.525-11.56 7.611-19.418 7.91-5.902-.138-10.237-1.136-15.187-4.375q-2.16-2.304-4.293-4.629c-5.448-4.975-10.13-5.372-17.264-5.113q-2.066.119-4.13.242c-2.072.08-4.144.148-6.217.212-1.872.065-3.743.161-5.614.259-3.597.03-6.94-.375-10.482-.971l-.227 1.688c-1.352 7.846-4.57 12.926-10.96 17.687-9.08 4.487-19.667 3.864-29.5 3.5l-3.838-.07c-8.22-.275-13.976-1.093-20.463-6.446C317.388 929.956 314 924.936 314 919l-3.07.105q-2.027.043-4.055.082l-2.016.077c-4.734.07-7.862-.739-11.859-3.264-4.12-5.345-5.457-9.261-5-16 1.777-4.676 4.247-7.716 8-11 3.619-1.206 6.925-1.108 10.688-1.062l2.126.013q2.594.02 5.186.049l-1-10-2.126.006q-25.707.066-51.415.098-12.433.014-24.865.047-10.846.03-21.693.037-5.734.003-11.467.023c-52 .192-52 .192-67.88-14.469-12.064-12.702-13.857-25.665-13.845-42.552q-.009-2.385-.02-4.768c-.017-4.296-.022-8.591-.024-12.887q-.001-4.033-.01-8.066-.028-14.092-.026-28.185c.002-8.735-.02-17.47-.051-26.204q-.038-11.28-.036-22.559c0-4.482-.005-8.964-.026-13.446q-.029-6.327-.005-12.652.003-2.31-.015-4.62c-.097-13.185 1.746-22.976 11.152-32.643 10.4-9.552 22.228-10.613 35.911-10.5q2.145 0 4.29-.002c3.85 0 7.698.017 11.546.038 4.035.019 8.07.02 12.104.024 7.624.01 15.249.034 22.874.064 8.687.034 17.373.05 26.06.065 17.856.031 35.711.084 53.567.151l-1-2a88 88 0 0 1-.114-5v-3.155l.016-3.415.005-3.49c.005-3.688.018-7.376.03-11.065q.008-3.744.014-7.488.017-9.194.049-18.387l-1.913.004q-23.128.045-46.256-.032a3811 3811 0 0 0-22.37-.017q-9.757.027-19.515-.027c-3.439-.019-6.877-.026-10.316-.003-29.837.152-29.837.152-42.692-11.362A72 72 0 0 1 150 576l-1.383-1.762c-8.22-11.74-8.196-24.94-8.119-38.64q-.005-2.889-.016-5.779c-.014-5.196-.003-10.392.014-15.588.014-5.455.007-10.91.003-16.365q-.002-13.733.034-27.465c.027-10.567.029-21.134.017-31.702q-.014-15.288.01-30.577.007-6.489 0-12.978-.005-7.645.028-15.29.008-2.797 0-5.594c-.031-13.489.732-25.208 9.412-36.26 3.661-3.414 7.5-6.75 12-9l.01-2.496q.122-30.125.278-60.249.076-14.568.134-29.136.05-12.703.12-25.407.04-6.72.061-13.441.02-6.338.064-12.677.014-2.315.017-4.629c.028-17.387 1.771-33.839 14.316-46.965 12.062-11.308 25.687-14.305 41.719-14.278l3.817-.018q5.213-.022 10.427-.02c3.757-.004 7.514-.02 11.27-.033q9.758-.034 19.516-.048c9.42-.014 18.841-.04 28.262-.068q22.959-.067 45.918-.113 22.245-.045 44.49-.105l2.766-.007 13.743-.037a152824 152824 0 0 1 102.718-.248l3.501-.008q3.276-.007 6.55-.01 3.523-.008 7.045-.033" id="svg-layer-1" style="pointer-events: all;"/><path fill="#DF7F25" d="m178.583 356.508 3.466-.024 3.808.035q2.023-.003 4.045-.01c3.708-.01 7.415.007 11.123.027 3.998.017 7.995.011 11.992.008q10.39-.002 20.78.033c10.015.033 20.03.043 30.044.048q24.371.015 48.743.073a37938 37938 0 0 0 50.301.085l14.64.016c40.491.041 80.983.112 121.475.201a467 467 0 0 1-.322 6.283l-.182 3.534c-.633 4.062-1.906 5.58-5.105 7.98l-1.891 1.265a333 333 0 0 0-3.852 2.993l-1.899 1.483C472.934 391.25 466.247 410.123 463 426l-.68 3.285c-4.827 28.798-2.038 60.804 13.668 86.004a75.9 75.9 0 0 0 19.551 18.395c2.411 2.172 2.389 4.497 2.664 7.613.11 5.711-.262 10.69-3.203 15.703-4.032 3.835-6.567 5.124-12.042 5.131l-3.254.012-3.604-.003-3.806.01q-5.246.011-10.492.01c-3.768.002-7.535.01-11.303.016q-12.366.02-24.731.024l-15.435.012q-21.357.019-42.713.026h-5.532l-8.34.003q-22.334.008-44.667.045-22.914.035-45.83.037-12.87-.001-25.743.025-10.96.023-21.92.012-5.594-.008-11.187.011c-4.04.015-8.08.007-12.12-.004l-3.584.025-3.277-.02-2.826.002c-4.58-.66-7.17-2.94-10.344-6.187-3.69-5.228-3.399-10.72-3.397-16.943l-.011-2.309a2709 2709 0 0 1-.019-7.627l-.02-5.48c-.02-5.987-.031-11.974-.041-17.96l-.013-6.187q-.029-14.523-.041-29.044-.015-16.77-.077-33.538-.044-12.963-.048-25.927c-.002-5.162-.011-10.324-.036-15.486q-.034-7.276-.018-14.553 0-2.672-.02-5.345c-.017-2.43-.01-4.857.003-7.286l-.033-2.145c.042-3.171.242-4.995 2.203-7.538 2.867-2.25 4.288-2.317 7.901-2.311" id="svg-layer-2" style="pointer-events: all;"/><path fill="#F8E7C9" d="m218.342 148.592 3.478-.023q4.765-.024 9.53-.02c3.43-.001 6.86-.02 10.289-.036 7.494-.032 14.987-.042 22.48-.048q7.02-.006 14.04-.022c12.962-.027 25.923-.05 38.885-.052h2.512l5.04-.001h2.528l2.531-.001c13.54-.003 27.078-.04 40.617-.091q20.857-.08 41.715-.079c7.806 0 15.61-.011 23.416-.05 6.645-.034 13.289-.044 19.933-.022 3.39.01 6.778.006 10.168-.022 3.676-.028 7.35-.013 11.027.013l3.239-.056c5.277.085 8.42.47 12.296 4.225 7.497 8.623 7.501 17.616 7.404 28.554q0 2.391.007 4.782c.005 4.306-.014 8.61-.038 12.916-.022 4.51-.021 9.02-.023 13.53q-.011 11.348-.06 22.694c-.04 9.717-.057 19.435-.067 29.153q-.013 12.531-.045 25.064l-.016 8.062q-.014 6.32-.042 12.64-.009 2.322-.013 4.646-.007 3.161-.026 6.322l-.013 3.579C499 327 499 327 498 329H192c-.676-10.14-1.157-20.116-1.177-30.254l-.02-4.371q-.028-7.077-.041-14.152l-.013-4.91q-.029-11.517-.041-23.034-.015-13.242-.077-26.484-.044-10.282-.048-20.566c-.002-4.083-.011-8.165-.036-12.247q-.034-5.749-.018-11.498 0-2.1-.02-4.203c-.076-8.308-.104-15.36 5.868-21.755 6.96-6.216 13.02-6.967 21.965-6.934" id="svg-layer-3" style="pointer-events: all;"/><path fill="#566F81" d="m407.54 672.85 2.85-.055q2.466-.05 4.93-.154c3.648-.064 5.528.263 8.645 2.246C426 677 426 677 426.583 679.075l-.06 2.183-.035 2.394-.113 2.473-.043 2.496c-.148 6.01-.148 6.01-1.332 8.379l-2.464-.008q-29.683-.1-59.366-.147-14.355-.022-28.71-.071-12.512-.046-25.025-.056a3263 3263 0 0 1-13.249-.035q-6.238-.03-12.476-.022-2.287-.001-4.573-.019a564 564 0 0 0-6.259-.003l-3.534-.008c-6.639.733-11.673 3.698-16.344 8.369-4.167 6.661-5.15 12.46-5.145 20.25l-.01 2.515q-.013 4.118-.013 8.235l-.01 5.748q-.009 6.033-.007 12.065c0 5.126-.014 10.252-.031 15.378q-.015 5.943-.013 11.886 0 2.832-.013 5.664c-.11 29.323-.11 29.323 8.242 38.259 4.9 3.862 9.409 6.116 15.713 6.145l2.936.02 3.216.009 3.391.02q3.649.021 7.298.036 5.766.026 11.533.065 16.395.104 32.794.182 10.022.048 20.045.12 3.828.024 7.657.037c3.56.012 7.12.036 10.68.063l3.223.002 2.928.03 2.552.012C382 832 382 832 384 834c.227 1.88.227 1.88.195 4.133l-.02 2.441-.05 2.551-.027 2.574c-.024 2.1-.06 4.2-.098 6.301q-25.284.035-50.567.052-11.741.007-23.483.023-10.242.015-20.484.02-5.415 0-10.83.01c-4.045.009-8.09.009-12.135.009l-3.57.01c-26.31-.032-26.31-.032-35.033-8.058-8.298-9.032-8.023-19.072-8.103-30.816l-.03-2.785q-.046-4.517-.081-9.035l-.063-6.377q-.066-6.68-.124-13.36-.074-8.453-.158-16.907-.079-8.178-.155-16.356l-.03-3.049a4810 4810 0 0 1-.205-33.377l-.013-3.004c-.023-20.013-.023-20.013 6.431-27.418 8.82-8.546 19.43-7.885 30.911-7.9l4.636-.031c4.182-.028 8.365-.043 12.547-.056 4.4-.015 8.8-.042 13.2-.068 8.349-.047 16.697-.083 25.046-.116 9.424-.038 18.848-.088 28.272-.138q17.283-.094 34.566-.172l2.466-.011q5.859-.028 11.718-.04c6.272-.013 12.54-.04 18.811-.2" id="svg-layer-4" style="pointer-events: all;"/><path fill="#DF7F25" d="m762.981 167.86 2.13-.01q3.533-.01 7.065-.011l5.067-.015q6.884-.019 13.767-.024 4.304-.005 8.608-.012 13.474-.02 26.948-.027 15.537-.007 31.074-.05 12.02-.033 24.04-.034 7.172 0 14.346-.025 6.755-.023 13.509-.01 2.47.002 4.94-.013c20.341-.115 20.341-.115 27.525 5.871 3.747 4.683 4.308 7.656 4.3 13.492l.014 2.373q.009 2.484.002 4.968c-.003 2.526.02 5.051.045 7.577q.004 2.416.002 4.832l.028 2.28c-.04 4.52-.622 7.376-3.391 10.978-4.974 4.476-8.69 5.15-15.185 5.167l-2.233.018q-3.713.025-7.427.04-2.658.016-5.317.034c-5.826.037-11.652.062-17.479.085l-3.003.012q-14.019.056-28.038.089-17.934.039-35.868.16-12.609.082-25.218.094c-5.022.007-10.042.025-15.063.072q-7.087.063-14.173.039-2.6 0-5.197.038c-14.72.203-14.72.203-19.298-4.227-6.93-8.868-5.73-21.745-5.313-32.434l.056-3.021c.228-6.005.844-9.543 4.756-14.166l1.5-1.812c3.58-2.835 8.118-2.318 12.481-2.328" id="svg-layer-5" style="pointer-events: all;"/><path fill="#556F81" d="m718 205 .332 2.387.48 3.3.458 3.2c.349 2.413.864 4.501 1.665 6.816 3.416 10.778.226 18.701-3.372 28.922q-.912 2.706-1.813 5.414-1.89 5.654-3.824 11.294a971 971 0 0 0-5.426 16.437l-.859 2.666-1.716 5.33c-5.16 15.982-10.469 31.915-15.798 47.842a4689 4689 0 0 0-13.252 40.267c-5.51 16.97-11.067 33.924-16.768 50.831a1100 1100 0 0 0-4.185 12.7c-.879 2.711-1.772 5.417-2.67 8.121a529 529 0 0 0-1.78 5.556c-2.125 6.354-3.725 10.282-9.472 13.917-5.14-2.094-8.217-5.541-10.812-10.375-2.52-7.692-.472-14.199 1.714-21.695l.945-3.3c3.746-12.924 7.895-25.721 12.067-38.513q1.668-5.13 3.33-10.26 2.973-9.168 5.958-18.333 2.358-7.245 4.71-14.493c7.396-22.792 14.856-45.563 22.316-68.334 3.714-11.342 7.423-22.687 11.112-34.037l1.043-3.207q2.427-7.462 4.847-14.927 2.023-6.227 4.087-12.441a371 371 0 0 0 1.805-5.708l.98-3.018.768-2.47c2.802-4.683 8.266-4.08 13.13-3.889" id="svg-layer-6" style="pointer-events: all;"/><path fill="none" d="M282.022 720.886h3.094l3.333.016 3.418.005c3.607.005 7.214.018 10.82.03q3.666.008 7.33.014 8.992.017 17.983.049c.135 28.685-.166 57.327-1 86q-10.116.074-20.233.11-3.441.015-6.882.04c-3.299.025-6.598.036-9.897.045l-3.103.032h-2.911l-2.55.014c-2.76-.274-4.905-1.107-7.424-2.241-.816-9.67-1.148-19.232-1.133-28.937q0-2.068-.003-4.135-.002-4.286.006-8.571.006-5.474-.004-10.947-.005-4.25 0-8.498 0-2.993-.005-5.986l.01-3.684.002-3.223c.13-3.08.557-5.993 1.127-9.019 2.979-.993 4.915-1.121 8.022-1.114" id="svg-layer-7" style="pointer-events: all; fill: none;"/><path fill="#06283C" d="M337.508 432.508c9.299 6.777 15.156 15.171 17.492 26.492 1.162 11.168-.707 20.727-7.27 29.898-7.373 8.956-16.737 14.185-28.257 15.36-9.795.421-19.089-2.245-26.668-8.582L291 494l-1.867-1.707c-7.269-7.41-10.38-16.59-10.695-26.856.477-11.906 4.09-20.98 12.562-29.437 12.99-11.253 31.889-12.282 46.508-3.492" id="svg-layer-8" style="pointer-events: all;"/><path fill="#DF7F25" d="M529 391c4.328 1.514 8.188 3.459 12 6v2a68 68 0 0 1-4.062 2.5c-11.33 7.393-18.671 23.861-21.504 36.813C513.292 456.526 514.423 473.6 523 490l1.375 2.66c2.99 5.385 6.18 9.129 11.086 12.867L537 507v3c-7.249 3.282-14.333 4.524-22.062 2-14.803-10.078-22.711-21.534-26.349-39.21-3.77-20.303-2.1-45.62 9.786-63.29A133 133 0 0 1 502 405l1.617-1.953c4.631-5.096 10.264-8.023 16.383-11.047 3.139-1.57 5.508-1.277 9-1M325 590h45c1.93 3.86 2.247 5.133 2.227 9.228v3.153l-.032 3.385-.008 3.48c-.011 3.668-.037 7.336-.062 11.004q-.016 3.73-.027 7.46c-.02 6.097-.06 12.193-.098 18.29h-46c-.642-7.703-1.142-15.112-1.098-22.797l.003-2.584c.006-3.123.02-6.246.033-9.369z" id="svg-layer-9" style="pointer-events: all;"/><path fill="#566F81" d="M589.063 429.773c.827.01 1.655.02 2.507.032l2.715.02 2.84.05 2.863.027q3.507.036 7.012.098l-.656 3.55c-2.548 14.168-3.237 24.616 1.656 38.45l1 3c-3.396.087-6.791.14-10.187.188l-2.909.076c-9.048.094-9.048.094-12.904-3.264-1.547-1.937-1.547-1.937-2.75-4l-1.234-2.062c-3.256-6.21-3.014-14.142-1.262-20.805 5.714-14.744 5.714-14.744 11.309-15.36" id="svg-layer-10" style="pointer-events: all;"/><path fill="#DF7F25" d="m563 418 1 3c-1.074 1.953-1.074 1.953-2.687 4.25-7.617 12.269-9.346 27.288-6.618 41.328 1.865 6.611 4.653 12.29 8.328 18.082.977 2.34.977 2.34.25 4.59C562 491 562 491 560.25 491.938c-4.357.12-7.11-1.913-10.273-4.758-10.206-10.585-11.47-23.261-11.254-37.297.419-10.774 4.236-20.798 11.89-28.508 4.282-3.74 6.908-4.708 12.387-3.375" id="svg-layer-11" style="pointer-events: all;"/><path fill="#556F81" d="M339 875h22c.069 5.357.129 10.713.165 16.07q.022 2.735.061 5.468c.037 2.62.054 5.238.067 7.857.015.815.03 1.631.047 2.471 0 2.305 0 2.305-.34 6.134l-3 3h-19z" id="svg-layer-12" style="pointer-events: all;"/><path fill="#325A6E" d="M321 451c4.839 2.33 7.67 5.161 10 10 .806 5.048.576 8.827-1.687 13.438-3.032 3.359-5.054 5.256-9.645 5.878-5.727.267-9.272-.339-13.668-4.316-3.655-4.136-4.65-7.374-4.387-12.754.81-4.705 2.969-7.953 6.512-11.183 4.33-1.6 8.318-1.714 12.875-1.063" id="svg-layer-13" style="pointer-events: all;"/><path fill="#546E80" d="M454 894c3.538 2.538 5.244 4.708 6.063 8.938.304 4.36-1.224 6.75-4.063 10.062-3.737 2.492-5.573 2.458-10 2-3.664-2.036-4.79-3.509-6.437-7.375-.63-4.062-.356-5.957 1.437-9.625 4.248-4.912 6.611-5.516 13-4" id="svg-layer-14" style="pointer-events: all;"/><path fill="#11212A" d="m156 333 2 1-8 8-2-1c4.625-5.75 4.625-5.75 8-8" id="svg-layer-15" style="pointer-events: all;"/><path fill="#132A38" d="m691 181 3 1-6 5c0-3 0-3 1.5-4.687z" id="svg-layer-16" style="pointer-events: all;"/></svg>