<svg xmlns="http://www.w3.org/2000/svg" width="1024" height="1024"><path fill="none" d="M0 0h1024v1024H0zm489.7 76.181c-3.403 1.311-6.824 2.573-10.245 3.84q-2.692.996-5.38 2c-9.36 3.485-18.802 6.715-28.262 9.917l-5.123 1.74q-5.199 1.767-10.4 3.529-12.2 4.135-24.395 8.287l-5.56 1.892c-9.823 3.341-19.637 6.704-29.42 10.157-52.824 18.63-106.193 35.934-159.724 52.414l-3.16.975a3456 3456 0 0 1-14.875 4.554l-5.289 1.623-2.376.712c-6.825 2.11-13.696 4.474-18.366 10.117l-1.68 1.964c-3.384 4.912-3.747 9.48-3.764 15.316l-.03 2.49c-.031 2.74-.048 5.48-.065 8.222l-.059 5.857q-.076 7.901-.128 15.802-.05 6.58-.108 13.159c-.242 28.118-.389 56.236-.413 84.355l-.011 7.252c-.042 27.701.276 55.394 2.508 83.02l.2 2.538c.45 5.698.929 11.393 1.425 17.087l.32 3.71C172.673 530.442 202.855 608.917 248 677l3.14 4.77c9.74 14.754 19.91 28.754 31.265 42.314 2.144 2.575 4.243 5.183 6.345 7.791 3.817 4.676 7.837 9.14 11.922 13.582 1.935 2.114 3.83 4.25 5.703 6.418 9.845 11.297 20.047 22.631 31.422 32.414 5.45 4.726 10.438 9.899 15.492 15.04 4.163 4.205 8.396 8.237 12.884 12.094 2.61 2.253 5.117 4.603 7.64 6.952 4.65 4.303 9.463 8.336 14.402 12.309 3.045 2.532 5.95 5.18 8.848 7.879 4.245 3.947 8.615 7.64 13.18 11.214 4.147 3.343 8.136 6.863 12.148 10.366a407 407 0 0 0 11.421 9.607c4.359 3.528 8.518 7.227 12.66 11.004 2.598 2.308 5.262 4.502 7.966 6.683 4.837 3.916 9.447 8.03 14.027 12.243a269 269 0 0 0 6.285 5.57c3.28 2.842 6.44 5.796 9.596 8.774 3.2 3.012 6.42 6 9.654 8.976l1.626 1.5c8.586 7.815 8.586 7.815 13.562 8.75 10.16-.666 15.38-6.1 22.338-12.836 2.132-2.045 4.332-4.01 6.537-5.976q5.3-4.761 10.562-9.563c7.753-7.05 15.69-13.876 23.652-20.687q3.682-3.15 7.352-6.313c6.114-5.264 12.273-10.452 18.535-15.54 3.882-3.196 7.692-6.473 11.504-9.753q5.892-5.07 11.832-10.082l4.844-4.098 3.375-2.855a628 628 0 0 0 22.406-19.887 248 248 0 0 1 6.75-6.035c9.787-8.492 19.148-17.481 28.206-26.742a145 145 0 0 1 8.88-8.324c4.003-3.463 7.635-7.176 11.226-11.059l1.953-2.097c5.907-6.382 11.609-12.93 17.258-19.54a698 698 0 0 1 4.914-5.644C794.82 663.837 839.416 574.26 862.626 382.75l.063-3.074c.387-19.795.361-39.591.323-59.39q-.012-6.57-.018-13.144c-.014-13.814-.05-27.628-.125-41.442-.035-6.564-.06-13.128-.064-19.692q-.008-9.72-.077-19.442-.02-3.654-.013-7.31c.005-3.38-.021-6.759-.055-10.139l.027-2.978c-.124-7.486-2.1-14.01-7.093-19.76-6.438-5.776-15.625-7.755-23.679-10.266l-3.598-1.132a6792 6792 0 0 0-7.676-2.41c-6.856-2.148-13.707-4.313-20.558-6.477l-2.096-.662c-18.667-5.896-37.271-11.977-55.866-18.093q-7.839-2.577-15.681-5.143c-67.542-22.114-67.542-22.114-98.426-32.782a3130 3130 0 0 0-17.56-5.992 4783 4783 0 0 1-68.589-23.832q-2.797-.994-5.596-1.981a285 285 0 0 1-13.327-5.097c-11.834-4.178-22.11-.62-33.24 3.67" id="svg-layer-0" style="pointer-events: all; fill: none;"/><path fill="#F8EDD5" d="m530.926 136.824 3.163 1.146q3.363 1.218 6.723 2.443a5226 5226 0 0 0 17.95 6.49l3.663 1.319c11.027 3.96 22.1 7.775 33.2 11.528l10.727 3.629 2.653.898c9.108 3.089 18.184 6.268 27.259 9.451a3109 3109 0 0 0 56.722 19.28q5.148 1.696 10.296 3.394 10.374 3.423 20.75 6.835 4.132 1.36 8.261 2.72a8327 8327 0 0 0 13.799 4.536c7.579 2.49 15.174 4.912 22.804 7.24l2.221.681c3.528 1.081 7.057 2.153 10.593 3.207l3.82 1.166 3.355 1.006c5.058 1.96 9.333 4.462 12.115 9.207.372 3.143.372 3.143.367 6.925l.01 2.112c.008 2.337-.006 4.673-.02 7.009q0 2.514.006 5.028c.005 4.559-.009 9.118-.026 13.677-.015 4.79-.014 9.581-.015 14.372q-.006 12.1-.04 24.201c-.03 10.284-.04 20.568-.044 30.852-.004 8.901-.017 17.802-.03 26.704q-.007 4.24-.01 8.48c-.06 52.178-.06 52.178-2.885 75.202l-.259 2.137C789.324 521.266 763.087 589.79 722 649l-1.523 2.206C711.21 664.593 701.447 677.507 691 690l-1.334 1.596c-11.087 13.216-22.869 25.685-35.041 37.904l-2.521 2.536A267 267 0 0 1 637 746a1912 1912 0 0 0-3.5 3.07c-13.376 11.697-27.103 22.87-41.418 33.399a1279 1279 0 0 0-4.23 3.125C576.565 793.96 564.994 801.684 553 809l-3.065 1.87c-7.28 4.431-14.593 8.803-21.935 13.13l-2.264 1.345a393 393 0 0 1-5.361 3.092l-2.727 1.56c-4.927 1.867-8.477 1.486-13.312-.509q-1.995-1.062-3.961-2.176l-2.208-1.212c-33.996-18.932-66.022-42.064-95.386-67.562a742 742 0 0 0-5.527-4.718c-10.79-9.148-10.79-9.148-15.58-14.147-1.661-1.66-3.387-3.17-5.178-4.689-4.917-4.276-9.52-8.857-14.114-13.472a1509 1509 0 0 0-4.337-4.33c-4.705-4.702-9.287-9.464-13.616-14.517-1.793-2.09-3.675-4.09-5.554-6.102-5.737-6.352-10.795-13.207-15.937-20.039-1.889-2.46-3.823-4.88-5.762-7.3-6.03-7.554-11.53-15.382-16.856-23.445a1259 1259 0 0 0-4.158-6.238c-49.006-73.539-73.196-159.608-73.339-247.753l-.02-5.215q-.028-8.438-.041-16.874l-.013-5.848q-.029-13.713-.041-27.425-.016-15.786-.077-31.57-.044-12.25-.048-24.499a3115 3115 0 0 0-.036-14.599q-.034-6.844-.018-13.689 0-2.51-.02-5.02a365398636289907.9 365398636289907.9 0 0 1-.005-10.72c.583-3.913 1.743-5.544 4.496-8.329 2.094-1.205 2.094-1.205 4.389-2.031l2.677-.977L237 224l3.113-1.055a959 959 0 0 1 10.664-3.445l4.046-1.298q4.31-1.383 8.621-2.763a4592 4592 0 0 0 125.49-42.15c12.824-4.516 25.673-8.955 38.528-13.383a6209 6209 0 0 0 64.915-22.74l2.91-1.035a2907 2907 0 0 0 5.346-1.91l2.38-.848 2.054-.735c9.063-2.99 17.22 1.01 25.859 4.186M498.75 215.5l-3.03 1.763A1405 1405 0 0 0 486 223l-6.492 3.828q-5.886 3.474-11.757 6.973c-6.5 3.871-13.02 7.703-19.555 11.515A4236 4236 0 0 0 430 256l-1.939 1.144q-5.836 3.449-11.65 6.936a834 834 0 0 1-3.652 2.175C397.17 275.494 397.17 275.494 395 282a92 92 0 0 0-.147 4.976l-.022 3.114-.008 3.415-.02 3.597q-.028 5.908-.041 11.816l-.013 4.074q-.029 9.572-.041 19.144-.015 11.034-.077 22.067-.044 8.537-.048 17.075c-.002 3.397-.011 6.793-.036 10.189-.025 3.794-.024 7.587-.017 11.381l-.039 3.384c.05 7.378 1.012 13.018 6.237 18.62l1.788 1.218 2.119 1.45c4.64 2.903 9.353 5.657 14.115 8.355l5.191 2.967q2.71 1.545 5.42 3.086c3.568 2.03 7.13 4.071 10.69 6.115 12.283 7.046 24.593 14.042 36.97 20.92 5.011 2.79 9.99 5.617 14.924 8.54l2.872 1.69a455 455 0 0 1 5.286 3.165c5.086 2.99 8.937 4.714 14.897 4.642 2.794-1.054 4.968-2.07 7.5-3.562l2.178-1.217A513 513 0 0 0 532 468l2.723-1.58q5.926-3.434 11.832-6.904c7.408-4.353 14.875-8.587 22.383-12.766 8.184-4.562 16.328-9.171 24.375-13.973a708 708 0 0 1 9.778-5.71q3.719-2.144 7.427-4.304a611 611 0 0 1 3.69-2.12c1.737-.991 3.464-1.998 5.19-3.006l3.053-1.76c2.86-2.106 3.965-3.718 5.549-6.877.378-2.6.378-2.6.381-5.427l.026-3.263-.019-3.548.016-3.761q.014-5.095-.001-10.19c-.008-3.559 0-7.117.004-10.676q.007-8.963-.016-17.925a4353 4353 0 0 1 .006-20.71q.02-8.898.007-17.797-.008-5.31.005-10.622c.01-3.948-.004-7.895-.02-11.843l.018-3.548-.026-3.263-.003-2.827c-.595-4.096-2.377-6.748-5.496-9.404a322 322 0 0 0-18.194-11.321 911 911 0 0 1-22.313-13.437 1375 1375 0 0 0-22.337-13.62 1774 1774 0 0 1-15.237-9.209l-3.785-2.31a2651 2651 0 0 1-5.59-3.419c-22.539-13.83-22.539-13.83-36.676-5.38" id="svg-layer-1" style="pointer-events: all;"/><path fill="#052B42" d="M534.412 76.552c3.67 1.4 7.359 2.751 11.046 4.106q2.902 1.066 5.8 2.14c10.207 3.772 20.497 7.28 30.804 10.764l5.553 1.884q5.51 1.869 11.021 3.735c7.665 2.597 15.322 5.217 22.98 7.836 5.126 1.753 10.254 3.5 15.382 5.25q6.743 2.3 13.481 4.612C701.12 134.25 751.973 150.988 803 167.187l1.999.636c26.835 8.525 26.835 8.525 39.803 12.118 7.339 2.43 11.467 6.66 15.288 13.227 1.577 3.175 2.04 5.756 2.068 9.247l.03 2.742.017 3.007.03 3.177q.047 5.25.081 10.499l.063 7.416q.066 7.837.124 15.674.072 9.794.158 19.587c.222 25.967.38 51.933.39 77.901l.002 3.166c.054 88.252-7.99 175.16-45.053 256.416l-1.338 2.96C809.918 619.777 802.259 633.977 794 648l-1.7 2.891c-8.532 14.436-17.67 28.384-27.3 42.109l-1.7 2.434c-7.917 11.302-16.375 22.044-25.3 32.566l-1.574 1.858c-2.945 3.47-5.91 6.921-8.889 10.362a1810 1810 0 0 0-4.928 5.737q-1.71 1.99-3.422 3.98l-1.56 1.827c-3.14 3.64-6.424 7.053-9.85 10.422-1.834 1.872-3.539 3.815-5.242 5.806-3.455 4-7.198 7.57-11.097 11.133-5.429 5.017-10.742 10.117-15.938 15.375-4.007 4.047-8.03 7.98-12.379 11.664-2.938 2.543-5.774 5.192-8.621 7.836-4.766 4.415-9.568 8.77-14.5 13l-1.47 1.263a7142 7142 0 0 1-10.679 9.152 4978 4978 0 0 0-5.41 4.64c-10.627 9.125-21.29 18.194-32.129 27.07-5.464 4.476-10.801 9.04-16.007 13.816-2.454 2.192-4.987 4.251-7.555 6.309-5.764 4.66-11.138 9.686-16.54 14.754-2.968 2.783-6.005 5.47-9.093 8.121a214 214 0 0 0-5.172 4.75C518.712 933.157 518.712 933.157 509 933c-6.004-2.001-9.717-5.105-14.187-9.5l-3.981-3.809-1.97-1.901c-8.698-8.36-17.798-16.265-26.939-24.133-3.147-2.712-6.284-5.435-9.423-8.157l-3.734-3.234a3333 3333 0 0 1-7.657-6.657c-6.352-5.532-12.743-10.988-19.289-16.293-7.687-6.313-15.184-12.863-22.656-19.43a1335 1335 0 0 0-8.789-7.573l-1.805-1.548a2160 2160 0 0 0-9.34-7.96c-10.81-9.176-10.81-9.176-15.548-14.125-1.705-1.703-3.48-3.256-5.315-4.817-5.502-4.782-10.548-9.996-15.656-15.191-4.136-4.178-8.347-8.164-12.804-11.997-3.12-2.74-6.046-5.665-8.97-8.612-.61-.615-1.222-1.229-1.852-1.861-3.575-3.613-7.038-7.278-10.323-11.159-1.853-2.148-3.77-4.229-5.7-6.307-4.707-5.073-9.219-10.243-13.558-15.638a555 555 0 0 0-5.79-7.04C270.659 710.417 259.179 694.029 248 677l-1.533-2.323C233.994 655.767 223.204 636.229 213 616l-1.44-2.846C183.629 557.504 169.324 495.743 164 434l-.339-3.92c-2.668-32.099-2.838-64.27-2.786-96.455l.007-5.497c.015-11.667.05-23.334.095-35q.024-6.207.042-12.412.054-18.791.19-37.582.045-5.988.061-11.975.024-7.047.098-14.092.022-2.586.024-5.171c.01-9.715.09-17.023 6.25-25.03 6.035-5.431 12.903-7.57 20.546-9.929q2.172-.695 4.343-1.395c4.814-1.544 9.64-3.044 14.469-4.542l5.155-1.606q11.03-3.438 22.066-6.85c19.363-5.99 38.62-12.295 57.874-18.626q9.802-3.218 19.624-6.375c28.085-9.042 55.966-18.64 83.83-28.341q13.388-4.66 26.78-9.309 4.468-1.553 8.935-3.111a1898 1898 0 0 1 29.072-9.864c6.979-2.306 13.906-4.692 20.77-7.324l2.07-.789a679 679 0 0 0 8.063-3.118c16.129-6.36 27.241-5.21 43.173.865m-29.154 56.046-3.415 1.157-3.718 1.308q-1.984.681-3.97 1.36a1773 1773 0 0 0-10.864 3.775q-3.458 1.21-6.918 2.412a8486 8486 0 0 0-27.506 9.626c-34.15 12.006-68.357 23.851-102.586 35.634l-9.36 3.228c-18.816 6.494-37.662 12.883-56.612 18.98l-2.03.653a6355 6355 0 0 1-19.92 6.374q-2.797.89-5.592 1.782-3.417 1.09-6.838 2.171c-2.987.954-5.96 1.935-8.929 2.942l-2.84.96-2.674.977-2.338.84c-2.924 1.665-4.29 3.412-6.148 6.223-.498 3.301-.498 3.301-.494 7.132l-.015 2.144c-.011 2.365.006 4.73.023 7.095q-.003 2.55-.011 5.098c-.01 4.62.005 9.238.026 13.857.017 4.86.014 9.72.013 14.58q.005 12.277.046 24.556c.032 9.392.042 18.784.04 28.176 0 10.063.014 20.126.032 30.19q.005 4.292.006 8.585c.012 21.287.341 42.377 2.334 63.587l.331 3.55C230.698 498.166 247.968 554.876 275 605l1.142 2.144c6.294 11.703 13.628 22.74 20.983 33.793l1.422 2.14C304.44 651.93 310.505 660.576 317 669l1.586 2.063a650 650 0 0 0 3.914 5l1.399 1.77Q325.946 680.42 328 683l2.277 2.875c4.553 5.664 9.33 11.062 14.299 16.36 2.6 2.773 5.134 5.581 7.608 8.468 4.22 4.848 8.751 9.383 13.304 13.915a1509 1509 0 0 1 4.33 4.337c4.674 4.677 9.406 9.233 14.428 13.536 2.588 2.226 5.069 4.557 7.567 6.884 4.65 4.296 9.435 8.365 14.37 12.332 2.456 2 4.857 4.05 7.248 6.125 8.79 7.594 18.147 14.385 27.569 21.168l2.189 1.583c16.08 11.605 32.642 22.502 49.88 32.313a545 545 0 0 1 5.63 3.276l3.426 1.953 2.945 1.695c4.953 1.994 8.49 1.76 13.418-.226q1.927-1.021 3.824-2.094l2.167-1.187a598 598 0 0 0 86.9-58.992q2.227-1.812 4.465-3.61c17.06-13.8 33.116-28.605 48.656-44.086l2.536-2.522A272 272 0 0 0 681 702q1.532-1.736 3.07-3.465c8.102-9.18 15.644-18.697 22.93-28.535l1.641-2.216C756.713 602.594 787.453 529.445 798 449l.343-2.536c3.523-26.347 2.861-53.133 2.93-79.66l.017-5.727q.033-11.899.051-23.798c.017-11.297.05-22.595.107-33.893q.056-11.992.063-23.986c.004-4.758.016-9.517.048-14.275q.044-6.685.025-13.372 0-2.448.025-4.897c.023-2.231.015-4.46-.001-6.69l.01-3.777c-.824-4.52-2.406-6.147-5.618-9.389-2.338-1.28-2.338-1.28-4.824-2.053l-2.927-.95L785 223q-2.72-.894-5.44-1.793c-2.722-.896-5.45-1.772-8.18-2.648q-3.398-1.093-6.796-2.19-4.848-1.566-9.698-3.128c-26.202-8.447-52.354-17-78.371-26.001-7.292-2.518-14.61-4.955-21.932-7.383-31.148-10.329-62.214-20.894-93.145-31.857l-2.952-1.046q-4.245-1.506-8.49-3.017l-2.736-.972q-7.184-2.563-14.338-5.207l-3.02-1.113q-2.85-1.052-5.695-2.12c-6.766-2.497-11.875-4.369-18.95-1.927m-6.633 732.527c-2.418 4.278-2.366 8.074-1.625 12.875 1.305 3.747 3.203 6.354 6.313 8.875 5.947 2.49 10.712 2.56 16.687.125 3.719-3.153 5.765-5.339 6.203-10.305.16-8.752.16-8.752-3.203-12.695-4.725-4.149-7.495-5.36-13.684-5.281-4.64.563-7.341 3.409-10.691 6.406" id="svg-layer-2" style="pointer-events: all;"/><path fill="#E87A0F" d="M517 244c2.87 1.436 2.87 1.436 5.867 3.29 1.12.685 2.24 1.372 3.395 2.08q1.806 1.126 3.613 2.255 1.889 1.164 3.777 2.326c3.791 2.336 7.571 4.69 11.348 7.049l3.204 1.999a4572 4572 0 0 1 11.665 7.305q8.347 5.24 16.78 10.34l1.952 1.182q4.74 2.865 9.489 5.717l3.433 2.07 3.06 1.837C597 293 597 293 599 295c.319 2.763.319 2.763.414 6.398l.06 2.055c.062 2.307.108 4.614.151 6.922l.052 2.422c.117 5.61.202 11.22.277 16.831.05 3.663.108 7.325.165 10.987q.14 9.184.206 18.369c.025 3.412.058 6.823.11 10.234.058 3.868.075 7.735.088 11.602l.069 3.55c-.02 7.96-.02 7.96-2.769 11.181L595 397l-2.725 1.685-2.974 1.678-3.375 1.915-1.783 1.004q-2.799 1.577-5.59 3.165a7848 7848 0 0 1-7.746 4.394c-14.81 8.395-29.577 16.836-43.961 25.949A396 396 0 0 1 520 441l-2.145 1.334c-4.992 2.86-4.992 2.86-8.89 1.982l-3.027-1.753-1.752-.976a219 219 0 0 1-3.948-2.273 423 423 0 0 0-7.484-4.267q-5.886-3.306-11.75-6.652c-5.648-3.21-11.35-6.311-17.067-9.395-11.155-6.036-22.085-12.436-32.937-19l-2.372-1.418-2.198-1.336-1.938-1.17C423 395 423 395 422 393a89 89 0 0 1-.133-5.086l-.006-3.424.014-3.865.005-1.995c.015-5.877.064-11.753.12-17.63l.033-3.515q.119-11.975.286-23.95.057-4.092.102-8.184c.044-3.89.104-7.778.165-11.667l.035-3.56c.206-11.376.206-11.376 2.379-16.124 2.134-1.82 3.882-3.077 6.273-4.434l1.893-1.142A444 444 0 0 1 439 285l3.415-2.051a919 919 0 0 1 10.21-6.012l3.75-2.19c9.973-5.82 19.99-11.562 30.038-17.25 4.873-2.767 9.723-5.54 14.462-8.532l2.102-1.32a421 421 0 0 0 5.14-3.336c3.6-1.634 5.08-1.249 8.883-.309" id="svg-layer-3" style="pointer-events: all;"/><path fill="#052B41" d="M516 210c3.156 1.258 3.156 1.258 6.5 3.125l1.921 1.067c8.924 5.024 17.618 10.454 26.338 15.82 5.14 3.154 10.298 6.279 15.455 9.405q4.455 2.702 8.907 5.407 6.549 3.977 13.102 7.946c9.21 5.583 18.4 11.198 27.527 16.917l2.403 1.496 2.206 1.391 1.921 1.206c3.056 2.168 4.518 3.613 5.72 7.22.096 1.727.135 3.457.14 5.186l.018 3.255.003 3.57.015 3.76q.018 5.108.024 10.215.005 3.192.012 6.383.02 9.987.027 19.973.007 11.526.05 23.051.034 8.912.034 17.822 0 5.322.025 10.643c.02 3.957.015 7.915.008 11.872l.028 3.558-.017 3.272.005 2.834c-.452 3.163-1.515 5.025-3.372 7.606-2.59 1.89-2.59 1.89-5.723 3.68l-1.722.998a698 698 0 0 1-5.617 3.197q-1.974 1.133-3.946 2.27a2001 2001 0 0 1-8.086 4.627c-3.55 2.022-7.09 4.065-10.625 6.115-20.027 11.61-40.136 23.083-60.281 34.488l-2.895 1.641-2.668 1.507-2.316 1.31L519 475l-2.06 1.152c-3.425 1.497-6.483.857-9.94-.152-4.32-1.968-8.394-4.311-12.5-6.687q-1.802-1.025-3.605-2.045c-8.66-4.918-17.255-9.95-25.84-15-7.39-4.336-14.862-8.509-22.368-12.643-8.973-4.962-17.915-9.974-26.77-15.144a930 930 0 0 0-5.25-3.027c-7.473-4.396-12.788-7.975-15.667-16.454-.254-2.522-.254-2.522-.26-5.237l-.022-3.135.007-3.407-.015-3.614q-.017-4.893-.012-9.787 0-4.089-.008-8.178-.016-9.648-.006-19.296c.006-6.63-.006-13.261-.027-19.892q-.026-8.548-.02-17.096c.001-3.401-.001-6.802-.015-10.203-.013-3.792-.006-7.584.006-11.376l-.023-3.407.02-3.135v-2.715c.783-5.268 4.061-8.567 8.073-11.857 5.071-3.668 10.564-6.684 15.99-9.79q2.96-1.712 5.917-3.428 1.965-1.14 3.93-2.276A909 909 0 0 0 444 248c12.322-7.432 24.755-14.677 37.179-21.936l5.43-3.174a21638 21638 0 0 1 13.156-7.688l2.81-1.64 2.455-1.433c3.912-2.242 6.395-2.44 10.97-2.129m-9.656 35.5-2.804 1.663L500.5 249a5947 5947 0 0 1-6.547 3.887l-1.72 1.023c-5.131 3.048-10.316 5.997-15.51 8.936a1274 1274 0 0 0-33.036 19.341l-1.795 1.086A788 788 0 0 0 431 290l-2.306 1.385c-2.967 1.894-4.526 2.904-5.354 6.41a99 99 0 0 0-.545 8.886l-.06 3.329-.051 3.576-.064 3.752a5286 5286 0 0 0-.183 12.037l-.06 4.107q-.147 10.114-.277 20.228-.105 7.897-.258 15.795c-.056 3.005-.095 6.01-.128 9.016a564 564 0 0 1-.117 5.793l-.023 3.405-.044 2.842c.634 3.291 1.89 4.344 4.47 6.439a100 100 0 0 0 5.34 3.25l3.188 1.825 3.41 1.925 3.534 2.015q3.573 2.038 7.152 4.066 4.469 2.542 8.919 5.114c10.278 5.932 20.652 11.659 31.105 17.275 6.153 3.312 12.219 6.71 18.18 10.358 3.87 2.088 3.87 2.088 6.172 2.172a73 73 0 0 0 7.188-4l2.215-1.346q2.455-1.493 4.901-2.999c4.96-3.045 9.955-6.034 14.946-9.03l3.238-1.949c7.52-4.514 15.1-8.907 22.727-13.236 6.69-3.8 13.341-7.663 19.972-11.565l2.884-1.688 2.66-1.57 2.356-1.387C598 395 598 395 600 393c.247-2.53.247-2.53.243-5.778l.01-3.69-.023-4.04v-4.2q-.003-4.442-.024-8.883c-.017-3.69-.02-7.381-.02-11.072 0-8.705-.066-17.408-.164-26.113q-.032-3.408-.05-6.815a929 929 0 0 0-.138-11.212q-.033-2.108-.04-4.215a317 317 0 0 0-.094-5.817l-.044-3.327c-1.105-4.777-4.735-6.253-8.676-8.754l-3.363-1.99-1.839-1.094q-1.942-1.156-3.887-2.307a2893 2893 0 0 1-10.243-6.1l-2.038-1.217A585 585 0 0 1 554.5 267c-7.732-4.932-15.535-9.745-23.378-14.499q-2.047-1.243-4.088-2.496a897 897 0 0 0-5.749-3.49l-3.379-2.053c-4.7-2.364-7.305-1.521-11.562 1.038" id="svg-layer-4" style="pointer-events: all;"/><path fill="#93B8D3" d="M516 859c4.644 2.494 8.314 4.941 10 10 .4 4.529.563 8.637-1.187 12.875-2.883 3.379-5.33 5.663-9.625 7-5.631.22-9.674-.624-14.063-4.25-3.762-4.647-4.683-8.146-4.578-14.082.756-4.245 3.16-6.885 6.453-9.543 4.22-2.546 8.185-2.694 13-2" id="svg-layer-5" style="pointer-events: all;"/></svg>