<svg xmlns="http://www.w3.org/2000/svg" viewBox="0 0 1024 1024" shape-rendering="geometricPrecision">
<path d="M 368 524 L 365 526 L 363 530 L 363 534 L 367 541 L 373 546 L 378 546 L 382 544 L 386 539 L 385 528 L 377 523 Z M 609 500 L 601 506 L 601 510 L 608 518 L 614 519 L 619 515 L 620 509 L 613 500 Z M 734 483 L 731 487 L 730 492 L 733 496 L 739 496 L 743 493 L 744 486 L 739 483 Z M 226 472 L 223 475 L 223 479 L 227 485 L 236 487 L 241 483 L 244 476 L 243 471 L 233 470 Z M 419 358 L 415 356 L 405 356 L 382 362 L 355 401 L 356 412 L 375 433 L 381 434 L 420 427 L 423 423 L 426 423 L 428 421 L 442 388 L 442 381 L 439 376 Z M 418 374 L 420 380 L 424 384 L 424 388 L 415 403 L 407 412 L 383 417 L 371 409 L 369 400 L 389 373 L 397 370 L 412 368 Z M 517 353 L 511 355 L 478 376 L 477 386 L 454 449 L 456 454 L 463 447 L 486 381 L 519 360 L 520 356 Z M 821 348 L 815 355 L 815 362 L 821 364 L 824 363 L 826 359 L 826 349 Z M 231 286 L 225 294 L 226 299 L 229 301 L 230 305 L 237 306 L 241 302 L 242 297 L 236 290 L 231 288 Z M 940 504 L 877 386 L 867 370 L 856 359 L 856 343 L 852 334 L 845 326 L 829 317 L 814 317 L 803 323 L 793 335 L 781 345 L 778 343 L 788 324 L 796 303 L 799 289 L 798 271 L 790 254 L 775 235 L 762 223 L 735 205 L 715 196 L 694 189 L 673 184 L 644 180 L 591 181 L 564 186 L 541 193 L 519 202 L 488 219 L 455 245 L 430 274 L 419 293 L 415 306 L 415 312 L 410 317 L 406 318 L 403 314 L 400 299 L 387 257 L 370 193 L 367 189 L 358 183 L 343 184 L 334 188 L 327 197 L 326 216 L 321 226 L 296 312 L 294 312 L 276 292 L 268 287 L 263 276 L 250 263 L 238 258 L 228 258 L 217 262 L 207 271 L 184 298 L 95 417 L 95 434 L 62 568 L 62 576 L 67 581 L 73 581 L 77 579 L 81 572 L 105 508 L 130 447 L 133 444 L 136 444 L 141 441 L 144 433 L 205 371 L 223 351 L 234 335 L 241 335 L 278 378 L 272 405 L 273 414 L 278 418 L 287 417 L 290 414 L 298 396 L 307 406 L 308 423 L 314 435 L 315 442 L 313 457 L 290 452 L 262 453 L 242 438 L 230 433 L 216 435 L 205 441 L 199 447 L 193 458 L 190 470 L 180 484 L 142 556 L 106 619 L 105 628 L 108 634 L 108 642 L 78 772 L 78 779 L 80 782 L 84 784 L 89 784 L 95 779 L 144 651 L 155 641 L 163 626 L 213 553 L 229 525 L 231 517 L 240 515 L 246 512 L 251 507 L 253 507 L 271 515 L 322 526 L 329 526 L 331 523 L 334 524 L 332 530 L 332 538 L 337 549 L 350 562 L 365 571 L 374 572 L 385 569 L 398 562 L 408 550 L 412 553 L 428 556 L 438 560 L 453 573 L 410 701 L 404 714 L 403 720 L 406 727 L 406 740 L 372 868 L 372 872 L 377 878 L 384 878 L 391 871 L 441 748 L 446 739 L 452 736 L 456 730 L 462 712 L 501 618 L 506 600 L 515 593 L 519 586 L 523 569 L 523 557 L 525 555 L 558 543 L 575 534 L 577 538 L 589 548 L 595 550 L 618 549 L 630 543 L 636 537 L 643 526 L 710 513 L 721 521 L 733 523 L 733 530 L 735 536 L 754 572 L 798 649 L 800 656 L 812 667 L 857 793 L 863 798 L 868 798 L 873 794 L 874 787 L 853 675 L 847 650 L 847 643 L 849 641 L 850 633 L 840 615 L 790 507 L 775 483 L 775 471 L 772 461 L 768 454 L 750 445 L 732 447 L 721 453 L 719 453 L 716 448 L 717 445 L 798 401 L 806 393 L 815 392 L 817 394 L 820 407 L 840 441 L 886 511 L 893 526 L 906 538 L 947 656 L 953 665 L 959 666 L 963 664 L 965 661 L 965 652 L 940 522 Z M 474 586 L 478 591 L 487 593 L 489 595 L 489 599 L 475 630 L 437 723 L 430 724 L 424 720 L 419 719 L 418 715 L 461 591 L 464 587 Z M 504 561 L 507 562 L 511 567 L 511 571 L 508 577 L 502 578 L 498 574 L 498 568 Z M 494 537 L 498 540 L 500 546 L 493 555 L 487 571 L 484 575 L 479 576 L 472 573 L 471 559 L 475 545 L 481 540 L 486 540 L 490 537 Z M 766 507 L 769 506 L 771 508 L 832 637 L 830 641 L 816 647 L 812 645 L 805 630 L 750 531 L 749 522 L 763 512 Z M 365 497 L 367 497 L 369 501 L 380 504 L 390 512 L 395 521 L 397 531 L 397 539 L 393 547 L 386 554 L 375 558 L 362 557 L 356 551 L 347 535 L 347 527 L 350 517 L 357 505 L 361 501 L 366 500 L 364 499 Z M 196 493 L 216 513 L 216 515 L 141 629 L 138 632 L 134 632 L 128 627 L 119 623 L 119 621 L 190 494 Z M 601 483 L 613 484 L 623 488 L 628 493 L 631 502 L 631 521 L 629 525 L 621 532 L 610 537 L 601 537 L 593 534 L 581 521 L 579 509 L 584 498 Z M 581 478 L 580 483 L 574 489 L 567 501 L 566 506 L 563 508 L 559 502 L 559 494 L 563 486 L 571 478 Z M 267 481 L 270 479 L 270 475 L 272 473 L 289 475 L 312 482 L 315 485 L 317 491 L 314 493 L 306 492 L 289 487 L 270 484 Z M 701 472 L 700 484 L 668 489 L 647 497 L 641 495 L 650 488 L 666 481 L 692 473 Z M 736 459 L 743 460 L 759 476 L 762 483 L 762 492 L 756 503 L 745 512 L 738 512 L 725 506 L 717 499 L 714 493 L 714 481 L 719 471 L 722 471 L 727 463 Z M 239 453 L 249 459 L 255 466 L 254 484 L 252 488 L 241 499 L 227 505 L 217 499 L 208 490 L 205 484 L 205 472 L 210 460 L 214 456 L 224 453 Z M 565 453 L 569 457 L 569 463 L 554 471 L 547 478 L 540 503 L 537 507 L 533 507 L 529 503 L 523 492 L 523 483 L 527 470 L 537 459 L 548 453 Z M 325 444 L 328 441 L 332 442 L 373 469 L 386 469 L 410 472 L 454 480 L 454 489 L 449 500 L 444 519 L 438 524 L 431 525 L 416 522 L 411 518 L 406 506 L 393 492 L 378 486 L 362 487 L 350 493 L 341 502 L 335 500 L 331 494 L 327 482 Z M 849 375 L 853 377 L 869 404 L 924 512 L 911 517 L 906 516 L 837 406 L 831 392 L 838 387 Z M 794 365 L 795 371 L 792 374 L 772 383 L 766 388 L 681 432 L 644 447 L 632 454 L 628 454 L 629 450 L 639 443 L 705 409 L 787 363 L 791 362 Z M 812 333 L 828 335 L 834 338 L 838 344 L 841 357 L 839 368 L 824 379 L 819 379 L 813 376 L 805 366 L 802 359 L 802 342 L 808 335 Z M 319 418 L 320 411 L 358 358 L 366 350 L 422 320 L 433 320 L 467 327 L 507 339 L 528 348 L 560 382 L 577 407 L 575 413 L 562 422 L 477 465 L 460 471 L 430 465 L 372 458 L 367 453 L 360 451 L 327 430 L 322 425 Z M 268 317 L 270 316 L 318 373 L 321 381 L 295 357 L 269 328 L 266 321 Z M 201 302 L 204 305 L 206 313 L 209 318 L 217 325 L 215 330 L 125 425 L 114 421 L 111 418 L 111 416 L 187 315 L 199 302 Z M 431 299 L 434 295 L 440 292 L 453 291 L 481 293 L 510 298 L 544 310 L 568 323 L 587 337 L 616 368 L 625 383 L 625 388 L 622 391 L 616 390 L 606 377 L 582 354 L 558 338 L 538 328 L 497 314 L 461 308 L 438 307 L 431 303 Z M 342 275 L 344 277 L 359 329 L 361 341 L 354 347 L 348 356 L 341 363 L 338 363 L 328 355 L 318 343 L 317 338 L 334 291 Z M 229 275 L 240 275 L 248 280 L 254 287 L 253 306 L 246 313 L 235 318 L 227 318 L 223 316 L 216 308 L 212 297 L 212 289 L 214 284 Z M 342 204 L 345 204 L 349 210 L 368 286 L 365 288 L 346 224 L 340 209 L 340 206 Z M 768 248 L 768 255 L 752 286 L 744 297 L 725 316 L 702 333 L 676 347 L 640 358 L 631 358 L 612 339 L 596 325 L 573 309 L 550 297 L 525 288 L 500 282 L 476 279 L 447 278 L 448 274 L 483 238 L 497 227 L 516 215 L 541 204 L 560 198 L 602 190 L 624 189 L 654 191 L 671 194 L 706 204 L 727 214 L 741 223 L 759 238 Z" fill="#1F2A44" fill-rule="evenodd"/>
<path d="M 504 562 L 499 568 L 499 574 L 502 577 L 507 577 L 510 571 L 510 567 L 506 562 Z M 494 538 L 490 538 L 486 541 L 481 541 L 476 545 L 473 552 L 472 572 L 479 575 L 483 575 L 486 571 L 492 555 L 499 546 L 499 543 Z M 361 502 L 351 517 L 348 527 L 349 538 L 357 551 L 364 557 L 375 557 L 384 554 L 392 547 L 396 539 L 394 521 L 389 512 L 380 505 L 372 502 Z M 368 523 L 377 522 L 386 528 L 387 539 L 382 545 L 378 547 L 373 547 L 364 538 L 362 530 L 364 526 Z M 601 484 L 585 498 L 581 506 L 580 513 L 582 521 L 593 533 L 601 536 L 610 536 L 621 531 L 628 525 L 630 521 L 630 502 L 627 493 L 623 489 L 613 485 Z M 609 499 L 615 499 L 620 503 L 619 507 L 621 509 L 621 513 L 614 520 L 608 519 L 600 510 L 600 506 Z M 580 478 L 571 479 L 564 486 L 560 494 L 560 502 L 562 506 L 565 506 L 569 495 L 579 483 Z M 736 460 L 727 464 L 723 471 L 718 475 L 715 481 L 715 493 L 718 499 L 725 505 L 738 511 L 745 511 L 750 508 L 758 498 L 761 492 L 761 483 L 758 476 L 742 460 Z M 734 482 L 742 483 L 745 486 L 744 493 L 739 497 L 733 497 L 729 492 L 730 487 Z M 239 454 L 224 454 L 214 457 L 211 460 L 206 472 L 206 484 L 209 490 L 221 501 L 228 504 L 241 498 L 251 488 L 253 484 L 254 466 L 249 460 Z M 242 469 L 245 473 L 242 483 L 236 488 L 227 486 L 222 479 L 222 475 L 229 470 Z M 565 454 L 548 454 L 537 460 L 528 470 L 524 483 L 524 492 L 526 497 L 533 506 L 538 505 L 546 478 L 554 470 L 567 464 L 568 457 Z M 326 444 L 328 482 L 335 499 L 341 501 L 350 492 L 362 486 L 378 485 L 393 491 L 407 506 L 414 520 L 432 524 L 438 523 L 444 518 L 445 509 L 453 489 L 454 481 L 410 473 L 386 470 L 373 470 L 332 443 L 328 442 Z M 417 374 L 412 369 L 397 371 L 389 374 L 370 400 L 372 409 L 383 416 L 407 411 L 414 403 L 423 388 L 423 384 L 419 380 Z M 812 334 L 808 336 L 803 342 L 803 359 L 806 366 L 813 375 L 819 378 L 824 378 L 838 368 L 839 355 L 837 344 L 834 339 L 828 336 Z M 826 348 L 827 359 L 825 363 L 821 366 L 816 364 L 813 358 L 816 352 L 821 347 Z M 229 276 L 216 283 L 213 289 L 213 297 L 217 308 L 223 315 L 227 317 L 235 317 L 243 314 L 252 306 L 253 287 L 248 281 L 240 276 Z M 230 285 L 234 286 L 234 288 L 239 289 L 237 290 L 238 292 L 242 293 L 242 302 L 237 307 L 230 306 L 228 304 L 228 301 L 224 298 L 224 294 L 228 286 Z" fill="#D9822B" fill-rule="evenodd"/>
<path d="M 472 588 L 465 588 L 464 592 L 462 593 L 460 604 L 457 607 L 458 610 L 455 613 L 455 618 L 452 627 L 449 630 L 450 633 L 447 636 L 448 639 L 441 659 L 438 662 L 433 682 L 430 685 L 431 688 L 428 691 L 427 699 L 423 705 L 422 714 L 420 715 L 424 719 L 435 721 L 446 694 L 450 689 L 450 684 L 454 679 L 454 675 L 462 655 L 466 650 L 466 645 L 470 640 L 471 633 L 481 609 L 488 598 L 486 594 L 475 592 Z M 768 509 L 763 515 L 753 520 L 750 525 L 751 529 L 754 532 L 763 552 L 769 560 L 785 589 L 789 599 L 792 602 L 813 640 L 813 644 L 815 646 L 818 643 L 828 639 L 829 637 L 826 628 L 824 627 L 804 585 L 804 581 L 800 576 L 798 569 L 795 566 L 792 559 L 792 555 L 785 544 L 785 540 L 782 537 L 782 534 L 778 529 L 778 525 L 773 515 Z M 194 495 L 191 497 L 180 515 L 179 519 L 177 520 L 173 530 L 169 534 L 164 546 L 157 556 L 154 564 L 148 572 L 147 576 L 144 579 L 136 596 L 133 598 L 133 601 L 122 621 L 134 629 L 138 629 L 140 625 L 143 623 L 149 612 L 152 610 L 152 608 L 174 577 L 179 567 L 182 565 L 190 550 L 200 535 L 203 533 L 204 529 L 208 525 L 213 515 L 209 508 L 206 505 L 204 505 L 198 497 Z M 272 475 L 272 481 L 276 482 L 277 484 L 282 483 L 283 485 L 287 484 L 288 486 L 303 490 L 315 491 L 313 484 L 296 478 L 292 479 L 291 477 Z M 700 473 L 664 483 L 647 491 L 645 495 L 648 495 L 650 493 L 653 494 L 656 491 L 660 491 L 671 487 L 698 483 L 700 481 Z M 849 376 L 841 387 L 834 391 L 833 394 L 838 402 L 839 407 L 848 418 L 852 427 L 854 428 L 854 430 L 858 434 L 859 438 L 867 449 L 867 452 L 870 454 L 872 460 L 875 462 L 882 472 L 888 484 L 896 494 L 900 503 L 908 514 L 912 514 L 921 510 L 919 502 L 915 498 L 914 493 L 912 492 L 908 484 L 908 481 L 906 480 L 906 477 L 903 475 L 901 468 L 899 467 L 894 457 L 893 452 L 891 451 L 889 445 L 887 444 L 887 441 L 883 437 L 882 432 L 880 431 L 874 420 L 872 412 L 866 405 L 865 400 L 861 395 L 855 382 Z M 793 366 L 789 364 L 786 367 L 779 369 L 772 375 L 755 382 L 753 385 L 750 385 L 735 395 L 728 397 L 726 400 L 714 405 L 710 409 L 704 410 L 695 417 L 679 424 L 678 426 L 671 428 L 670 430 L 660 435 L 656 435 L 649 441 L 641 444 L 636 448 L 646 445 L 647 443 L 654 442 L 667 435 L 673 434 L 679 431 L 680 429 L 688 427 L 691 424 L 696 423 L 729 406 L 730 404 L 765 387 L 769 383 L 784 376 L 785 374 L 791 373 L 793 371 Z M 322 422 L 333 431 L 360 448 L 369 451 L 374 456 L 381 456 L 382 458 L 390 457 L 391 459 L 399 458 L 400 460 L 407 459 L 408 461 L 414 460 L 415 462 L 420 461 L 421 463 L 426 462 L 427 464 L 434 463 L 435 465 L 440 464 L 441 466 L 452 466 L 453 468 L 457 467 L 458 469 L 475 463 L 509 446 L 514 445 L 515 443 L 527 437 L 530 437 L 538 433 L 540 430 L 555 422 L 560 421 L 566 416 L 571 415 L 575 407 L 569 399 L 569 396 L 558 384 L 557 380 L 553 378 L 551 373 L 548 372 L 548 370 L 543 364 L 541 364 L 532 355 L 531 352 L 527 351 L 523 347 L 516 344 L 512 344 L 511 342 L 497 337 L 484 335 L 481 332 L 465 328 L 457 328 L 456 326 L 435 322 L 428 323 L 427 321 L 423 321 L 420 324 L 410 328 L 409 330 L 402 332 L 396 337 L 381 343 L 380 345 L 375 346 L 371 350 L 366 352 L 360 358 L 360 360 L 354 368 L 351 370 L 351 372 L 349 373 L 349 375 L 337 392 L 334 394 L 332 399 L 327 403 L 327 406 L 325 407 L 322 413 Z M 421 357 L 442 376 L 445 387 L 443 388 L 441 397 L 435 406 L 435 411 L 430 422 L 423 425 L 417 430 L 413 429 L 411 431 L 402 431 L 400 433 L 397 432 L 395 434 L 390 433 L 375 436 L 355 415 L 353 410 L 354 405 L 352 404 L 354 398 L 382 359 L 387 359 L 402 354 L 416 355 Z M 520 353 L 520 362 L 516 363 L 511 368 L 502 372 L 497 377 L 493 378 L 490 381 L 487 381 L 486 389 L 484 390 L 482 401 L 479 404 L 477 415 L 474 424 L 471 427 L 470 435 L 467 438 L 465 448 L 460 454 L 453 455 L 451 453 L 459 427 L 462 424 L 465 410 L 468 407 L 469 399 L 472 396 L 472 392 L 474 391 L 476 376 L 479 372 L 483 371 L 484 369 L 491 366 L 493 363 L 504 358 L 512 352 Z M 268 320 L 268 324 L 272 327 L 273 331 L 278 334 L 278 336 L 286 345 L 289 346 L 289 348 L 302 363 L 308 367 L 309 370 L 312 371 L 309 365 L 305 362 L 304 359 L 300 356 L 295 348 L 292 346 L 292 344 L 289 342 L 287 337 L 284 336 L 284 334 L 278 326 L 274 324 L 273 320 Z M 203 306 L 199 305 L 196 308 L 194 308 L 193 312 L 183 322 L 179 330 L 170 339 L 157 356 L 157 359 L 151 364 L 148 371 L 141 378 L 141 380 L 130 392 L 129 396 L 121 405 L 118 411 L 115 413 L 115 420 L 125 422 L 130 417 L 132 417 L 140 408 L 140 406 L 159 388 L 159 386 L 169 376 L 171 376 L 182 364 L 182 362 L 200 345 L 201 342 L 205 340 L 210 334 L 210 332 L 216 327 L 216 325 L 207 317 Z M 434 299 L 434 303 L 441 304 L 442 306 L 457 305 L 458 307 L 467 306 L 468 308 L 473 307 L 474 309 L 485 309 L 486 311 L 503 314 L 520 320 L 525 320 L 532 325 L 538 326 L 544 330 L 549 331 L 557 337 L 566 340 L 569 344 L 573 345 L 575 348 L 583 352 L 603 373 L 607 375 L 607 377 L 613 382 L 613 384 L 618 389 L 623 389 L 624 384 L 621 381 L 618 373 L 612 367 L 610 362 L 607 361 L 603 354 L 599 352 L 590 341 L 585 339 L 583 335 L 572 329 L 564 322 L 558 320 L 557 318 L 541 310 L 522 303 L 515 303 L 514 301 L 508 299 L 504 300 L 503 298 L 499 299 L 498 297 L 493 296 L 486 297 L 485 295 L 476 296 L 475 294 L 464 295 L 463 293 L 442 293 Z M 342 207 L 343 214 L 352 241 L 355 246 L 354 249 L 357 257 L 359 256 L 357 254 L 358 250 L 355 243 L 354 234 L 350 223 L 346 206 Z M 766 247 L 762 243 L 760 243 L 751 233 L 749 233 L 746 229 L 740 226 L 730 217 L 696 202 L 685 201 L 684 199 L 674 196 L 651 192 L 596 192 L 574 196 L 548 203 L 535 208 L 534 210 L 525 212 L 519 217 L 511 220 L 502 227 L 500 227 L 498 230 L 492 232 L 490 236 L 483 240 L 455 268 L 449 277 L 473 276 L 474 278 L 490 278 L 497 281 L 520 284 L 521 286 L 544 293 L 565 303 L 590 318 L 590 320 L 594 321 L 594 323 L 597 323 L 612 338 L 614 338 L 631 356 L 642 356 L 648 353 L 651 354 L 664 350 L 672 345 L 677 345 L 689 339 L 691 336 L 709 327 L 710 324 L 716 321 L 724 313 L 728 312 L 728 310 L 740 299 L 752 283 L 755 275 L 764 261 Z" fill="#F2E9DA" fill-rule="evenodd"/>
</svg>