<svg xmlns="http://www.w3.org/2000/svg" viewBox="0 0 500 500"><path d="M 154,32 L 153,33 L 152,33 L 151,33 L 150,33 L 149,34 L 148,34 L 147,35 L 146,36 L 145,37 L 145,38 L 144,39 L 144,40 L 144,41 L 144,42 L 144,43 L 144,44 L 144,45 L 144,46 L 144,47 L 144,48 L 144,49 L 144,50 L 144,51 L 144,52 L 144,53 L 144,54 L 144,55 L 144,56 L 144,57 L 144,58 L 144,59 L 144,60 L 144,61 L 144,62 L 144,63 L 144,64 L 144,65 L 144,66 L 144,67 L 144,68 L 144,69 L 144,70 L 144,71 L 144,72 L 144,73 L 144,74 L 144,75 L 144,76 L 144,77 L 144,78 L 144,79 L 144,80 L 144,81 L 144,82 L 144,83 L 144,84 L 144,85 L 144,86 L 144,87 L 144,88 L 144,89 L 144,90 L 144,91 L 144,92 L 144,93 L 144,94 L 144,95 L 144,96 L 144,97 L 144,98 L 144,99 L 144,100 L 144,101 L 144,102 L 144,103 L 144,104 L 144,105 L 144,106 L 144,107 L 144,108 L 144,109 L 144,110 L 144,111 L 144,112 L 145,113 L 145,114 L 145,115 L 146,116 L 147,117 L 148,118 L 149,118 L 150,119 L 151,119 L 152,119 L 153,119 L 154,119 L 155,119 L 156,119 L 157,119 L 158,119 L 159,119 L 160,120 L 161,120 L 162,120 L 163,120 L 164,120 L 165,120 L 166,120 L 167,120 L 168,120 L 169,120 L 170,120 L 171,120 L 172,120 L 173,120 L 174,120 L 175,120 L 176,120 L 177,120 L 178,120 L 179,120 L 180,120 L 181,120 L 182,120 L 183,120 L 184,120 L 185,120 L 186,120 L 187,120 L 188,120 L 189,120 L 190,120 L 191,120 L 192,120 L 193,120 L 194,120 L 195,120 L 196,120 L 197,120 L 198,120 L 199,120 L 200,120 L 201,120 L 202,120 L 203,120 L 204,120 L 205,120 L 206,120 L 207,120 L 208,120 L 209,120 L 210,120 L 211,120 L 212,120 L 213,120 L 214,120 L 215,120 L 216,120 L 217,120 L 218,120 L 219,121 L 218,122 L 217,122 L 216,123 L 215,123 L 214,123 L 213,124 L 212,124 L 211,124 L 210,125 L 209,125 L 208,125 L 207,126 L 206,126 L 205,126 L 204,127 L 203,127 L 202,128 L 201,128 L 200,128 L 199,129 L 198,129 L 197,130 L 196,130 L 195,130 L 194,131 L 193,131 L 192,131 L 191,132 L 190,132 L 189,133 L 188,133 L 187,133 L 186,134 L 185,134 L 184,134 L 183,135 L 182,135 L 181,136 L 180,136 L 179,136 L 178,137 L 177,137 L 176,137 L 175,138 L 174,138 L 173,139 L 172,139 L 171,139 L 170,140 L 169,140 L 168,140 L 167,141 L 166,141 L 165,142 L 164,142 L 163,142 L 162,143 L 161,143 L 160,143 L 159,144 L 158,144 L 157,145 L 156,145 L 155,146 L 154,147 L 153,147 L 152,148 L 152,149 L 151,150 L 151,151 L 150,152 L 150,153 L 149,154 L 149,155 L 149,156 L 149,157 L 149,158 L 149,159 L 149,160 L 149,161 L 150,162 L 150,163 L 150,164 L 151,165 L 151,166 L 152,167 L 153,168 L 154,169 L 155,170 L 156,170 L 157,171 L 158,171 L 159,172 L 160,172 L 161,172 L 162,173 L 163,173 L 164,173 L 165,173 L 166,174 L 167,174 L 168,174 L 169,174 L 170,175 L 171,175 L 172,175 L 173,176 L 174,176 L 175,176 L 176,176 L 177,177 L 178,177 L 179,177 L 180,178 L 181,178 L 182,178 L 183,179 L 184,179 L 185,179 L 186,179 L 187,180 L 188,180 L 189,180 L 190,180 L 191,181 L 192,181 L 193,181 L 194,182 L 195,182 L 196,182 L 197,182 L 198,183 L 199,183 L 200,183 L 201,184 L 202,184 L 203,184 L 204,185 L 205,185 L 206,185 L 207,185 L 208,185 L 209,186 L 209,187 L 208,188 L 207,188 L 206,188 L 205,188 L 204,189 L 203,189 L 202,189 L 201,189 L 200,190 L 199,190 L 198,190 L 197,191 L 196,191 L 195,191 L 194,192 L 193,192 L 192,192 L 191,193 L 190,193 L 189,193 L 188,193 L 187,194 L 186,194 L 185,194 L 184,195 L 183,195 L 182,195 L 181,196 L 180,196 L 179,196 L 178,197 L 177,197 L 176,197 L 175,197 L 174,198 L 173,198 L 172,198 L 171,199 L 170,199 L 169,199 L 168,200 L 167,200 L 166,200 L 165,201 L 164,201 L 163,201 L 162,201 L 161,202 L 160,202 L 159,203 L 158,203 L 157,203 L 156,204 L 155,205 L 154,205 L 153,206 L 152,207 L 151,208 L 151,209 L 150,210 L 150,211 L 149,212 L 149,213 L 149,214 L 148,215 L 149,216 L 149,217 L 149,218 L 149,219 L 149,220 L 149,221 L 149,222 L 150,223 L 150,224 L 151,225 L 151,226 L 152,227 L 153,228 L 153,229 L 154,229 L 155,230 L 156,231 L 157,231 L 158,232 L 159,232 L 160,232 L 161,233 L 162,233 L 163,233 L 164,234 L 165,234 L 166,234 L 167,234 L 168,235 L 169,235 L 170,235 L 171,236 L 172,236 L 173,236 L 174,237 L 175,237 L 176,237 L 177,237 L 178,238 L 179,238 L 180,238 L 181,239 L 182,239 L 183,239 L 184,240 L 185,240 L 186,240 L 187,240 L 188,241 L 189,241 L 190,241 L 191,242 L 192,242 L 193,242 L 194,242 L 195,243 L 196,243 L 197,243 L 198,243 L 199,244 L 200,244 L 201,244 L 202,245 L 203,245 L 204,245 L 205,246 L 206,246 L 207,246 L 208,247 L 209,247 L 210,248 L 209,249 L 208,249 L 207,249 L 206,250 L 205,250 L 204,250 L 203,251 L 202,251 L 201,251 L 200,251 L 199,252 L 198,252 L 197,252 L 196,253 L 195,253 L 194,253 L 193,254 L 192,254 L 191,254 L 190,254 L 189,255 L 188,255 L 187,255 L 186,256 L 185,256 L 184,256 L 183,256 L 182,257 L 181,257 L 180,257 L 179,258 L 178,258 L 177,258 L 176,258 L 175,259 L 174,259 L 173,259 L 172,260 L 171,260 L 170,260 L 169,261 L 168,261 L 167,261 L 166,261 L 165,262 L 164,262 L 163,262 L 162,263 L 161,263 L 160,264 L 159,264 L 158,264 L 157,265 L 156,265 L 155,266 L 154,266 L 153,267 L 152,268 L 151,269 L 151,270 L 150,271 L 149,272 L 149,273 L 149,274 L 148,275 L 148,276 L 148,277 L 148,278 L 148,279 L 148,280 L 148,281 L 148,282 L 148,283 L 149,284 L 149,285 L 150,286 L 150,287 L 151,288 L 151,289 L 152,290 L 153,291 L 154,292 L 155,293 L 156,293 L 157,294 L 158,294 L 159,294 L 160,295 L 161,295 L 162,295 L 163,296 L 164,296 L 165,296 L 166,296 L 167,297 L 168,297 L 169,297 L 170,298 L 171,298 L 172,298 L 173,298 L 174,299 L 175,299 L 176,299 L 177,300 L 178,300 L 179,300 L 180,300 L 181,301 L 182,301 L 183,301 L 184,302 L 185,302 L 186,302 L 187,302 L 188,303 L 189,303 L 190,303 L 191,304 L 192,304 L 193,304 L 194,304 L 195,305 L 196,305 L 197,305 L 198,306 L 199,306 L 200,306 L 201,306 L 202,307 L 203,307 L 204,307 L 205,308 L 206,308 L 207,308 L 208,308 L 209,309 L 210,309 L 211,309 L 212,310 L 213,310 L 214,310 L 215,311 L 216,311 L 217,311 L 218,311 L 219,312 L 220,312 L 221,313 L 221,314 L 221,315 L 220,316 L 219,317 L 218,316 L 217,317 L 216,317 L 215,318 L 214,318 L 213,318 L 212,319 L 211,319 L 210,319 L 209,320 L 208,320 L 207,321 L 206,321 L 205,321 L 204,322 L 203,322 L 202,322 L 201,323 L 200,323 L 199,323 L 198,324 L 197,324 L 196,325 L 195,325 L 194,325 L 193,326 L 192,326 L 191,326 L 190,327 L 189,327 L 188,327 L 187,328 L 186,328 L 185,328 L 184,329 L 183,329 L 182,330 L 181,330 L 180,330 L 179,331 L 178,331 L 177,331 L 176,332 L 175,332 L 174,332 L 173,333 L 172,333 L 171,333 L 170,334 L 169,334 L 168,335 L 167,335 L 166,335 L 165,336 L 164,336 L 163,336 L 162,337 L 161,337 L 160,337 L 159,338 L 158,338 L 157,339 L 156,339 L 155,339 L 154,340 L 153,340 L 152,341 L 151,341 L 150,341 L 149,342 L 148,343 L 147,344 L 146,345 L 145,346 L 145,347 L 144,348 L 144,349 L 144,350 L 144,351 L 144,352 L 144,353 L 144,354 L 144,355 L 144,356 L 144,357 L 144,358 L 144,359 L 144,360 L 144,361 L 144,362 L 144,363 L 144,364 L 144,365 L 144,366 L 144,367 L 144,368 L 144,369 L 144,370 L 144,371 L 144,372 L 144,373 L 144,374 L 144,375 L 144,376 L 144,377 L 144,378 L 144,379 L 144,380 L 144,381 L 144,382 L 144,383 L 144,384 L 144,385 L 144,386 L 144,387 L 144,388 L 144,389 L 144,390 L 144,391 L 144,392 L 144,393 L 144,394 L 144,395 L 144,396 L 144,397 L 144,398 L 144,399 L 144,400 L 144,401 L 144,402 L 144,403 L 144,404 L 144,405 L 144,406 L 144,407 L 144,408 L 144,409 L 144,410 L 144,411 L 144,412 L 144,413 L 144,414 L 144,415 L 144,416 L 144,417 L 144,418 L 144,419 L 144,420 L 144,421 L 144,422 L 144,423 L 144,424 L 144,425 L 144,426 L 144,427 L 144,428 L 144,429 L 144,430 L 144,431 L 144,432 L 144,433 L 144,434 L 144,435 L 144,436 L 144,437 L 144,438 L 144,439 L 144,440 L 144,441 L 144,442 L 144,443 L 144,444 L 144,445 L 144,446 L 144,447 L 144,448 L 144,449 L 144,450 L 144,451 L 144,452 L 144,453 L 144,454 L 144,455 L 144,456 L 144,457 L 144,458 L 144,459 L 144,460 L 145,461 L 145,462 L 146,463 L 147,464 L 148,465 L 149,465 L 150,465 L 151,466 L 152,466 L 153,466 L 154,466 L 155,466 L 156,466 L 157,466 L 158,466 L 159,466 L 160,466 L 161,466 L 162,466 L 163,466 L 164,466 L 165,466 L 166,466 L 167,466 L 168,466 L 169,466 L 170,466 L 171,466 L 172,466 L 173,466 L 174,466 L 175,466 L 176,466 L 177,466 L 178,466 L 179,466 L 180,466 L 181,466 L 182,466 L 183,466 L 184,466 L 185,466 L 186,466 L 187,466 L 188,466 L 189,466 L 190,466 L 191,466 L 192,466 L 193,466 L 194,466 L 195,466 L 196,466 L 197,466 L 198,466 L 199,466 L 200,466 L 201,466 L 202,466 L 203,466 L 204,466 L 205,466 L 206,466 L 207,466 L 208,466 L 209,466 L 210,466 L 211,466 L 212,466 L 213,466 L 214,466 L 215,466 L 216,466 L 217,466 L 218,466 L 219,466 L 220,466 L 221,466 L 222,466 L 223,466 L 224,466 L 225,466 L 226,466 L 227,466 L 228,466 L 229,466 L 230,466 L 231,466 L 232,466 L 233,466 L 234,466 L 235,466 L 236,466 L 237,466 L 238,466 L 239,466 L 240,466 L 241,466 L 242,466 L 243,466 L 244,466 L 245,466 L 246,466 L 247,466 L 248,466 L 249,466 L 250,466 L 251,466 L 252,466 L 253,466 L 254,466 L 255,466 L 256,466 L 257,466 L 258,466 L 259,466 L 260,466 L 261,466 L 262,466 L 263,466 L 264,466 L 265,466 L 266,466 L 267,466 L 268,466 L 269,466 L 270,466 L 271,466 L 272,466 L 273,466 L 274,466 L 275,466 L 276,466 L 277,466 L 278,466 L 279,466 L 280,466 L 281,466 L 282,466 L 283,466 L 284,466 L 285,466 L 286,466 L 287,466 L 288,466 L 289,466 L 290,466 L 291,466 L 292,466 L 293,466 L 294,466 L 295,466 L 296,466 L 297,466 L 298,466 L 299,466 L 300,466 L 301,466 L 302,466 L 303,466 L 304,466 L 305,466 L 306,466 L 307,466 L 308,466 L 309,466 L 310,466 L 311,466 L 312,466 L 313,466 L 314,466 L 315,466 L 316,466 L 317,466 L 318,466 L 319,466 L 320,466 L 321,466 L 322,466 L 323,466 L 324,466 L 325,466 L 326,466 L 327,466 L 328,466 L 329,466 L 330,466 L 331,466 L 332,466 L 333,466 L 334,466 L 335,466 L 336,466 L 337,466 L 338,466 L 339,466 L 340,466 L 341,466 L 342,466 L 343,466 L 344,466 L 345,466 L 346,466 L 347,466 L 348,466 L 349,466 L 350,465 L 351,465 L 352,464 L 353,463 L 354,462 L 354,461 L 355,460 L 355,459 L 355,458 L 355,457 L 355,456 L 355,455 L 355,454 L 355,453 L 355,452 L 355,451 L 355,450 L 355,449 L 355,448 L 355,447 L 355,446 L 355,445 L 355,444 L 355,443 L 355,442 L 355,441 L 355,440 L 355,439 L 355,438 L 355,437 L 355,436 L 355,435 L 355,434 L 355,433 L 355,432 L 355,431 L 355,430 L 355,429 L 355,428 L 355,427 L 355,426 L 355,425 L 355,424 L 355,423 L 355,422 L 355,421 L 355,420 L 355,419 L 355,418 L 355,417 L 355,416 L 355,415 L 355,414 L 355,413 L 355,412 L 355,411 L 355,410 L 355,409 L 355,408 L 355,407 L 355,406 L 355,405 L 355,404 L 355,403 L 355,402 L 355,401 L 355,400 L 355,399 L 355,398 L 355,397 L 355,396 L 355,395 L 355,394 L 355,393 L 355,392 L 355,391 L 355,390 L 355,389 L 355,388 L 355,387 L 355,386 L 355,385 L 355,384 L 355,383 L 355,382 L 355,381 L 355,380 L 355,379 L 355,378 L 355,377 L 355,376 L 355,375 L 355,374 L 355,373 L 355,372 L 355,371 L 355,370 L 355,369 L 355,368 L 355,367 L 355,366 L 355,365 L 355,364 L 355,363 L 355,362 L 355,361 L 355,360 L 355,359 L 355,358 L 355,357 L 355,356 L 355,355 L 355,354 L 355,353 L 355,352 L 355,351 L 355,350 L 354,349 L 354,348 L 353,347 L 353,346 L 352,345 L 351,344 L 350,343 L 349,343 L 348,342 L 347,342 L 346,342 L 345,342 L 344,341 L 343,342 L 342,342 L 341,342 L 340,342 L 339,342 L 338,342 L 337,342 L 336,342 L 335,342 L 334,342 L 333,342 L 332,342 L 331,342 L 330,342 L 329,342 L 328,342 L 327,342 L 326,342 L 325,342 L 324,342 L 323,342 L 322,342 L 321,342 L 320,342 L 319,342 L 318,342 L 317,342 L 316,342 L 315,342 L 314,342 L 313,342 L 312,342 L 311,342 L 310,342 L 309,342 L 308,342 L 307,342 L 306,342 L 305,342 L 304,342 L 303,342 L 302,342 L 301,342 L 300,342 L 299,342 L 298,342 L 297,342 L 296,342 L 295,342 L 294,342 L 293,342 L 292,342 L 291,342 L 290,342 L 289,342 L 288,342 L 287,342 L 286,342 L 285,342 L 284,342 L 283,342 L 282,342 L 281,342 L 280,342 L 279,342 L 278,341 L 278,340 L 278,339 L 278,338 L 278,337 L 278,336 L 279,335 L 280,334 L 281,334 L 282,334 L 283,333 L 284,333 L 285,332 L 286,332 L 287,332 L 288,331 L 289,331 L 290,331 L 291,330 L 292,330 L 293,329 L 294,329 L 295,329 L 296,328 L 297,328 L 298,328 L 299,327 L 300,327 L 301,326 L 302,326 L 303,326 L 304,325 L 305,325 L 306,325 L 307,324 L 308,324 L 309,323 L 310,323 L 311,323 L 312,322 L 313,322 L 314,322 L 315,321 L 316,321 L 317,321 L 318,320 L 319,320 L 320,319 L 321,319 L 322,319 L 323,318 L 324,318 L 325,318 L 326,317 L 327,317 L 328,316 L 329,316 L 330,316 L 331,315 L 332,315 L 333,315 L 334,314 L 335,314 L 336,313 L 337,313 L 338,313 L 339,312 L 340,312 L 341,312 L 342,311 L 343,311 L 344,310 L 345,309 L 346,308 L 347,307 L 348,306 L 349,305 L 349,304 L 350,303 L 350,302 L 351,301 L 351,300 L 351,299 L 352,298 L 352,297 L 352,296 L 352,295 L 352,294 L 352,293 L 351,292 L 351,291 L 351,290 L 351,289 L 350,288 L 350,287 L 349,286 L 348,285 L 347,284 L 346,283 L 345,282 L 344,281 L 343,281 L 342,281 L 341,280 L 340,280 L 339,280 L 338,280 L 337,279 L 336,279 L 335,279 L 334,279 L 333,279 L 332,278 L 331,278 L 330,278 L 329,278 L 328,277 L 327,277 L 326,277 L 325,277 L 324,276 L 323,276 L 322,276 L 321,276 L 320,275 L 319,275 L 318,275 L 317,275 L 316,274 L 315,274 L 314,274 L 313,274 L 312,273 L 311,273 L 310,273 L 309,273 L 308,272 L 307,272 L 306,272 L 305,272 L 304,271 L 303,271 L 302,271 L 301,271 L 300,270 L 299,270 L 298,270 L 297,269 L 296,269 L 295,269 L 294,269 L 293,268 L 292,268 L 291,268 L 290,267 L 289,267 L 288,267 L 287,267 L 286,266 L 285,266 L 284,265 L 285,264 L 286,264 L 287,264 L 288,263 L 289,263 L 290,263 L 291,262 L 292,262 L 293,262 L 294,261 L 295,261 L 296,261 L 297,260 L 298,260 L 299,260 L 300,259 L 301,259 L 302,259 L 303,259 L 304,258 L 305,258 L 306,257 L 307,257 L 308,257 L 309,257 L 310,256 L 311,256 L 312,255 L 313,255 L 314,255 L 315,255 L 316,254 L 317,254 L 318,254 L 319,253 L 320,253 L 321,253 L 322,252 L 323,252 L 324,252 L 325,251 L 326,251 L 327,251 L 328,250 L 329,250 L 330,250 L 331,249 L 332,249 L 333,249 L 334,248 L 335,248 L 336,247 L 337,247 L 338,247 L 339,247 L 340,246 L 341,246 L 342,246 L 343,245 L 344,245 L 345,245 L 346,244 L 347,243 L 348,242 L 349,241 L 350,240 L 350,239 L 351,238 L 351,237 L 352,236 L 352,235 L 352,234 L 352,233 L 352,232 L 352,231 L 352,230 L 352,229 L 352,228 L 352,227 L 352,226 L 351,225 L 351,224 L 350,223 L 350,222 L 349,221 L 349,220 L 348,219 L 347,218 L 346,218 L 345,217 L 344,217 L 343,216 L 342,216 L 341,216 L 340,215 L 339,215 L 338,215 L 337,215 L 336,214 L 335,214 L 334,214 L 333,214 L 332,213 L 331,213 L 330,213 L 329,213 L 328,212 L 327,212 L 326,212 L 325,212 L 324,211 L 323,211 L 322,211 L 321,211 L 320,210 L 319,210 L 318,210 L 317,210 L 316,209 L 315,209 L 314,209 L 313,209 L 312,209 L 311,208 L 310,208 L 309,208 L 308,208 L 307,207 L 306,207 L 305,207 L 304,207 L 303,206 L 302,206 L 301,206 L 300,206 L 299,205 L 298,205 L 297,205 L 296,205 L 295,205 L 294,204 L 293,204 L 292,204 L 291,204 L 290,203 L 289,203 L 288,203 L 287,202 L 288,201 L 289,201 L 290,201 L 291,201 L 292,200 L 293,200 L 294,200 L 295,199 L 296,199 L 297,199 L 298,198 L 299,198 L 300,198 L 301,197 L 302,197 L 303,197 L 304,196 L 305,196 L 306,195 L 307,195 L 308,195 L 309,194 L 310,194 L 311,194 L 312,193 L 313,193 L 314,193 L 315,192 L 316,192 L 317,192 L 318,191 L 319,191 L 320,191 L 321,190 L 322,190 L 323,189 L 324,189 L 325,189 L 326,188 L 327,188 L 328,188 L 329,187 L 330,187 L 331,187 L 332,186 L 333,186 L 334,185 L 335,185 L 336,185 L 337,184 L 338,184 L 339,184 L 340,183 L 341,183 L 342,182 L 343,182 L 344,182 L 345,181 L 346,180 L 347,180 L 348,179 L 349,178 L 350,177 L 351,176 L 351,175 L 352,174 L 352,173 L 352,172 L 352,171 L 353,170 L 353,169 L 353,168 L 353,167 L 353,166 L 352,165 L 352,164 L 352,163 L 352,162 L 351,161 L 351,160 L 350,159 L 349,158 L 349,157 L 348,156 L 347,155 L 346,155 L 345,154 L 344,153 L 343,153 L 342,152 L 341,152 L 340,152 L 339,152 L 338,151 L 337,151 L 336,151 L 335,151 L 334,150 L 333,150 L 332,150 L 331,150 L 330,149 L 329,149 L 328,149 L 327,149 L 326,148 L 325,148 L 324,148 L 323,148 L 322,147 L 321,147 L 320,147 L 319,147 L 318,146 L 317,146 L 316,146 L 315,146 L 314,145 L 313,145 L 312,145 L 311,145 L 310,144 L 309,144 L 308,144 L 307,144 L 306,143 L 305,143 L 304,143 L 303,143 L 302,142 L 301,142 L 300,142 L 299,142 L 298,141 L 297,141 L 296,141 L 295,141 L 294,141 L 293,140 L 292,140 L 291,140 L 290,140 L 289,139 L 288,139 L 287,139 L 286,138 L 287,137 L 288,137 L 289,136 L 290,136 L 291,136 L 292,135 L 293,135 L 294,135 L 295,134 L 296,134 L 297,134 L 298,133 L 299,133 L 300,133 L 301,132 L 302,132 L 303,132 L 304,131 L 305,131 L 306,131 L 307,130 L 308,130 L 309,130 L 310,129 L 311,129 L 312,129 L 313,128 L 314,128 L 315,128 L 316,127 L 317,127 L 318,127 L 319,126 L 320,126 L 321,126 L 322,125 L 323,125 L 324,125 L 325,124 L 326,124 L 327,124 L 328,123 L 329,123 L 330,123 L 331,122 L 332,122 L 333,122 L 334,121 L 335,121 L 336,121 L 337,120 L 338,120 L 339,120 L 340,119 L 341,119 L 342,118 L 343,118 L 344,118 L 345,117 L 346,117 L 347,117 L 348,116 L 349,116 L 350,116 L 351,115 L 352,115 L 353,114 L 354,113 L 354,112 L 355,111 L 355,110 L 355,109 L 356,108 L 356,107 L 356,106 L 356,105 L 355,104 L 356,103 L 355,102 L 355,101 L 355,100 L 355,99 L 355,98 L 355,97 L 355,96 L 355,95 L 355,94 L 355,93 L 355,92 L 355,91 L 355,90 L 355,89 L 355,88 L 355,87 L 355,86 L 355,85 L 355,84 L 355,83 L 355,82 L 355,81 L 355,80 L 355,79 L 355,78 L 355,77 L 355,76 L 355,75 L 355,74 L 355,73 L 355,72 L 355,71 L 355,70 L 355,69 L 355,68 L 355,67 L 355,66 L 355,65 L 355,64 L 355,63 L 355,62 L 355,61 L 355,60 L 355,59 L 355,58 L 355,57 L 355,56 L 355,55 L 355,54 L 355,53 L 355,52 L 355,51 L 355,50 L 355,49 L 355,48 L 355,47 L 355,46 L 355,45 L 355,44 L 355,43 L 355,42 L 355,41 L 355,40 L 355,39 L 354,38 L 354,37 L 354,36 L 353,35 L 352,34 L 351,34 L 350,33 L 349,33 L 348,33 L 347,32 L 346,32 L 345,32 L 344,32 L 343,32 L 342,32 L 341,32 L 340,32 L 339,32 L 338,32 L 337,32 L 336,32 L 335,32 L 334,32 L 333,32 L 332,32 L 331,32 L 330,32 L 329,32 L 328,32 L 327,32 L 326,32 L 325,32 L 324,32 L 323,32 L 322,32 L 321,32 L 320,32 L 319,32 L 318,32 L 317,32 L 316,32 L 315,32 L 314,32 L 313,32 L 312,32 L 311,33 L 310,33 L 309,33 L 308,33 L 307,33 L 306,33 L 305,33 L 304,33 L 303,33 L 302,33 L 301,33 L 300,33 L 299,33 L 298,33 L 297,33 L 296,33 L 295,33 L 294,33 L 293,33 L 292,33 L 291,33 L 290,33 L 289,33 L 288,33 L 287,33 L 286,33 L 285,33 L 284,33 L 283,33 L 282,33 L 281,33 L 280,33 L 279,33 L 278,33 L 277,33 L 276,33 L 275,33 L 274,33 L 273,33 L 272,33 L 271,33 L 270,33 L 269,33 L 268,33 L 267,33 L 266,33 L 265,33 L 264,33 L 263,33 L 262,33 L 261,33 L 260,33 L 259,33 L 258,33 L 257,33 L 256,33 L 255,33 L 254,33 L 253,33 L 252,33 L 251,33 L 250,33 L 249,33 L 248,33 L 247,33 L 246,33 L 245,33 L 244,33 L 243,33 L 242,33 L 241,33 L 240,33 L 239,33 L 238,33 L 237,33 L 236,33 L 235,33 L 234,33 L 233,33 L 232,33 L 231,33 L 230,33 L 229,33 L 228,33 L 227,33 L 226,33 L 225,33 L 224,33 L 223,33 L 222,33 L 221,33 L 220,33 L 219,33 L 218,33 L 217,33 L 216,33 L 215,33 L 214,33 L 213,33 L 212,33 L 211,33 L 210,33 L 209,33 L 208,33 L 207,33 L 206,33 L 205,33 L 204,33 L 203,33 L 202,33 L 201,33 L 200,33 L 199,33 L 198,33 L 197,33 L 196,33 L 195,33 L 194,33 L 193,33 L 192,33 L 191,33 L 190,33 L 189,33 L 188,33 L 187,33 L 186,33 L 185,33 L 184,33 L 183,33 L 182,33 L 181,33 L 180,33 L 179,33 L 178,33 L 177,33 L 176,33 L 175,33 L 174,33 L 173,33 L 172,33 L 171,33 L 170,33 L 169,33 L 168,33 L 167,33 L 166,33 L 165,33 L 164,33 L 163,33 L 162,33 L 161,33 L 160,33 L 159,33 L 158,33 L 157,33 L 156,33 L 155,33 Z" fill="#0f2a3a"/><path d="M 152,467 L 153,467 L 154,467 L 155,467 L 156,467 L 157,467 L 158,467 L 159,467 L 160,467 L 161,467 L 162,467 L 163,467 L 164,467 L 165,467 L 166,467 L 167,467 L 168,467 L 169,467 L 170,467 L 171,467 L 172,467 L 173,467 L 174,467 L 175,467 L 176,467 L 177,467 L 178,467 L 179,467 L 180,467 L 181,467 L 182,467 L 183,467 L 184,467 L 185,467 L 186,467 L 187,467 L 188,467 L 189,467 L 190,467 L 191,467 L 192,467 L 193,467 L 194,467 L 195,467 L 196,467 L 197,467 L 198,467 L 199,467 L 200,467 L 201,467 L 202,467 L 203,467 L 204,467 L 205,467 L 206,467 L 207,467 L 208,467 L 209,467 L 210,467 L 211,467 L 212,467 L 213,467 L 214,467 L 215,467 L 216,467 L 217,467 L 218,467 L 219,467 L 220,467 L 221,467 L 222,467 L 223,467 L 224,467 L 225,467 L 226,467 L 227,467 L 228,467 L 229,467 L 230,467 L 231,467 L 232,467 L 233,467 L 234,467 L 235,467 L 236,467 L 237,467 L 238,467 L 239,467 L 240,467 L 241,467 L 242,467 L 243,467 L 244,467 L 245,467 L 246,467 L 247,467 L 248,467 L 249,467 L 250,467 L 251,467 L 252,467 L 253,467 L 254,467 L 255,467 L 256,467 L 257,467 L 258,467 L 259,467 L 260,467 L 261,467 L 262,467 L 263,467 L 264,467 L 265,467 L 266,467 L 267,467 L 268,467 L 269,467 L 270,467 L 271,467 L 272,467 L 273,467 L 274,467 L 275,467 L 276,467 L 277,467 L 278,467 L 279,467 L 280,467 L 281,467 L 282,467 L 283,467 L 284,467 L 285,467 L 286,467 L 287,467 L 288,467 L 289,467 L 290,467 L 291,467 L 292,467 L 293,467 L 294,467 L 295,467 L 296,467 L 297,467 L 298,467 L 299,467 L 300,467 L 301,467 L 302,467 L 303,467 L 304,467 L 305,467 L 306,467 L 307,467 L 308,467 L 309,467 L 310,467 L 311,467 L 312,467 L 313,467 L 314,467 L 315,467 L 316,467 L 317,467 L 318,467 L 319,467 L 320,467 L 321,467 L 322,467 L 323,467 L 324,467 L 325,467 L 326,467 L 327,467 L 328,467 L 329,467 L 330,467 L 331,467 L 332,467 L 333,467 L 334,467 L 335,467 L 336,467 L 337,467 L 338,467 L 339,467 L 340,467 L 341,467 L 342,467 L 343,467 L 344,467 L 345,467 L 346,467 L 347,467 L 346,467 L 345,467 L 344,467 L 343,467 L 342,467 L 341,467 L 340,467 L 339,467 L 338,467 L 337,467 L 336,467 L 335,467 L 334,467 L 333,467 L 332,467 L 331,467 L 330,467 L 329,467 L 328,467 L 327,467 L 326,467 L 325,467 L 324,467 L 323,467 L 322,467 L 321,467 L 320,467 L 319,467 L 318,467 L 317,467 L 316,467 L 315,467 L 314,467 L 313,467 L 312,467 L 311,467 L 310,467 L 309,467 L 308,467 L 307,467 L 306,467 L 305,467 L 304,467 L 303,467 L 302,467 L 301,467 L 300,467 L 299,467 L 298,467 L 297,467 L 296,467 L 295,467 L 294,467 L 293,467 L 292,467 L 291,467 L 290,467 L 289,467 L 288,467 L 287,467 L 286,467 L 285,467 L 284,467 L 283,467 L 282,467 L 281,467 L 280,467 L 279,467 L 278,467 L 277,467 L 276,467 L 275,467 L 274,467 L 273,467 L 272,467 L 271,467 L 270,467 L 269,467 L 268,467 L 267,467 L 266,467 L 265,467 L 264,467 L 263,467 L 262,467 L 261,467 L 260,467 L 259,467 L 258,467 L 257,467 L 256,467 L 255,467 L 254,467 L 253,467 L 252,467 L 251,467 L 250,467 L 249,467 L 248,467 L 247,467 L 246,467 L 245,467 L 244,467 L 243,467 L 242,467 L 241,467 L 240,467 L 239,467 L 238,467 L 237,467 L 236,467 L 235,467 L 234,467 L 233,467 L 232,467 L 231,467 L 230,467 L 229,467 L 228,467 L 227,467 L 226,467 L 225,467 L 224,467 L 223,467 L 222,467 L 221,467 L 220,467 L 219,467 L 218,467 L 217,467 L 216,467 L 215,467 L 214,467 L 213,467 L 212,467 L 211,467 L 210,467 L 209,467 L 208,467 L 207,467 L 206,467 L 205,467 L 204,467 L 203,467 L 202,467 L 201,467 L 200,467 L 199,467 L 198,467 L 197,467 L 196,467 L 195,467 L 194,467 L 193,467 L 192,467 L 191,467 L 190,467 L 189,467 L 188,467 L 187,467 L 186,467 L 185,467 L 184,467 L 183,467 L 182,467 L 181,467 L 180,467 L 179,467 L 178,467 L 177,467 L 176,467 L 175,467 L 174,467 L 173,467 L 172,467 L 171,467 L 170,467 L 169,467 L 168,467 L 167,467 L 166,467 L 165,467 L 164,467 L 163,467 L 162,467 L 161,467 L 160,467 L 159,467 L 158,467 L 157,467 L 156,467 L 155,467 L 154,467 L 153,467 Z" fill="#8a8f98"/><path d="M 143,448 L 143,449 L 143,450 L 143,451 L 143,452 L 143,453 L 143,454 L 143,455 L 143,456 L 143,457 L 143,458 L 143,459 L 143,460 L 143,459 L 143,458 L 143,457 L 143,456 L 143,455 L 143,454 L 143,453 L 143,452 L 143,451 L 143,450 L 143,449 Z" fill="#8a8f98"/><path d="M 356,392 L 356,393 L 356,394 L 356,395 L 356,396 L 356,397 L 356,398 L 356,399 L 356,400 L 356,401 L 356,402 L 356,403 L 356,404 L 356,405 L 356,406 L 356,407 L 356,408 L 356,409 L 356,410 L 356,411 L 356,412 L 356,413 L 356,414 L 356,415 L 356,416 L 356,417 L 356,418 L 356,419 L 356,420 L 356,421 L 356,422 L 356,423 L 356,424 L 356,425 L 356,426 L 356,427 L 356,428 L 356,429 L 356,430 L 356,431 L 356,432 L 356,433 L 356,434 L 356,435 L 356,436 L 356,437 L 356,438 L 356,439 L 356,440 L 356,441 L 356,442 L 356,443 L 356,444 L 356,445 L 356,446 L 356,447 L 356,448 L 356,449 L 356,450 L 356,451 L 356,452 L 356,453 L 356,454 L 356,455 L 356,456 L 356,457 L 356,458 L 356,459 L 357,458 L 358,457 L 358,456 L 357,456 L 356,455 L 356,454 L 356,453 L 356,452 L 356,451 L 356,450 L 356,449 L 356,448 L 356,447 L 356,446 L 356,445 L 356,444 L 356,443 L 356,442 L 356,441 L 356,440 L 356,439 L 356,438 L 356,437 L 356,436 L 356,435 L 356,434 L 356,433 L 356,432 L 356,431 L 356,430 L 356,429 L 356,428 L 356,427 L 356,426 L 356,425 L 356,424 L 356,423 L 356,422 L 356,421 L 356,420 L 356,419 L 356,418 L 356,417 L 356,416 L 356,415 L 356,414 L 356,413 L 356,412 L 356,411 L 356,410 L 356,409 L 356,408 L 356,407 L 356,406 L 356,405 L 356,404 L 356,403 L 356,402 L 356,401 L 356,400 L 356,399 L 356,398 L 356,397 L 356,396 L 356,395 L 356,394 L 356,393 Z" fill="#8a8f98"/><path d="M 279,341 L 280,341 L 281,341 L 282,341 L 283,341 L 284,341 L 285,341 L 286,341 L 287,341 L 288,341 L 289,341 L 290,341 L 291,341 L 292,341 L 293,341 L 294,341 L 295,341 L 296,341 L 297,341 L 298,341 L 299,341 L 300,341 L 301,341 L 302,341 L 303,341 L 304,341 L 305,341 L 306,341 L 307,341 L 308,341 L 309,341 L 310,341 L 311,341 L 312,341 L 313,341 L 314,341 L 315,341 L 316,341 L 317,341 L 318,341 L 319,341 L 320,341 L 321,341 L 322,341 L 323,341 L 324,341 L 325,341 L 326,341 L 327,341 L 328,341 L 329,341 L 330,341 L 331,341 L 332,341 L 333,341 L 334,341 L 335,341 L 336,341 L 337,341 L 338,341 L 339,341 L 340,341 L 341,341 L 342,341 L 343,341 L 342,341 L 341,341 L 340,341 L 339,341 L 338,341 L 337,341 L 336,341 L 335,341 L 334,341 L 333,341 L 332,341 L 331,341 L 330,341 L 329,341 L 328,341 L 327,341 L 326,341 L 325,341 L 324,341 L 323,341 L 322,341 L 321,341 L 320,341 L 319,341 L 318,341 L 317,341 L 316,341 L 315,341 L 314,341 L 313,341 L 312,341 L 311,341 L 310,341 L 309,341 L 308,341 L 307,341 L 306,341 L 305,341 L 304,341 L 303,341 L 302,341 L 301,341 L 300,341 L 299,341 L 298,341 L 297,341 L 296,341 L 295,341 L 294,341 L 293,341 L 292,341 L 291,341 L 290,341 L 289,341 L 288,341 L 287,341 L 286,341 L 285,341 L 284,341 L 283,341 L 282,341 L 281,341 L 280,341 Z" fill="#8a8f98"/><path d="M 214,311 L 214,312 L 215,312 L 216,313 L 216,314 L 215,315 L 214,315 L 213,315 L 214,315 L 215,316 L 214,317 L 215,317 L 216,316 L 217,316 L 218,315 L 219,316 L 220,315 L 220,314 L 220,313 L 219,313 L 218,312 L 217,312 L 216,312 L 215,312 Z" fill="#8a8f98"/><path d="M 179,301 L 178,302 L 179,302 L 180,302 L 181,302 L 182,303 L 183,303 L 184,303 L 185,304 L 186,304 L 187,304 L 188,304 L 189,304 L 190,304 L 189,304 L 188,304 L 187,303 L 186,303 L 185,303 L 184,303 L 183,302 L 182,302 L 181,302 L 180,301 Z" fill="#8a8f98"/><path d="M 148,285 L 148,286 L 148,287 L 148,288 L 149,289 L 149,290 L 150,291 L 151,292 L 152,293 L 153,294 L 154,294 L 155,294 L 156,294 L 155,294 L 154,293 L 153,292 L 152,291 L 151,290 L 150,289 L 150,288 L 149,287 L 148,286 Z" fill="#8a8f98"/><path d="M 279,278 L 278,279 L 278,280 L 278,281 L 278,282 L 278,283 L 278,284 L 278,285 L 278,286 L 278,287 L 278,288 L 278,289 L 278,290 L 278,291 L 279,291 L 280,291 L 281,291 L 282,291 L 283,292 L 284,292 L 285,292 L 286,292 L 287,293 L 288,293 L 289,293 L 290,293 L 291,294 L 292,294 L 293,294 L 294,294 L 295,295 L 296,295 L 297,295 L 298,295 L 299,296 L 300,296 L 301,296 L 302,297 L 303,297 L 304,297 L 305,297 L 306,298 L 305,299 L 304,299 L 303,300 L 302,300 L 301,300 L 300,301 L 299,301 L 298,301 L 297,302 L 296,302 L 295,302 L 294,303 L 293,303 L 292,303 L 291,304 L 290,304 L 289,305 L 288,305 L 287,305 L 286,306 L 285,306 L 284,306 L 283,307 L 282,307 L 281,307 L 280,308 L 279,308 L 278,309 L 277,309 L 276,309 L 275,310 L 274,310 L 273,310 L 272,311 L 271,311 L 270,311 L 269,312 L 268,312 L 267,313 L 266,313 L 265,313 L 264,314 L 263,314 L 262,314 L 261,315 L 260,315 L 259,315 L 258,316 L 257,316 L 256,316 L 255,317 L 254,317 L 253,317 L 252,318 L 251,318 L 250,319 L 249,319 L 248,319 L 247,320 L 246,320 L 245,320 L 244,321 L 243,321 L 242,321 L 241,322 L 240,322 L 239,323 L 238,323 L 237,323 L 236,324 L 235,324 L 234,324 L 233,325 L 232,325 L 231,325 L 230,326 L 229,326 L 228,327 L 227,327 L 226,327 L 225,328 L 224,328 L 223,328 L 222,329 L 221,329 L 220,329 L 219,330 L 218,330 L 217,331 L 216,331 L 215,331 L 214,332 L 213,332 L 212,333 L 211,333 L 210,333 L 209,334 L 208,334 L 207,334 L 206,335 L 205,335 L 204,336 L 203,336 L 202,337 L 201,337 L 200,337 L 199,338 L 198,338 L 197,338 L 196,339 L 195,339 L 194,340 L 193,340 L 192,340 L 191,341 L 190,341 L 189,341 L 190,341 L 191,341 L 192,341 L 193,341 L 194,341 L 195,341 L 196,341 L 197,341 L 198,341 L 199,341 L 200,341 L 201,341 L 202,341 L 203,341 L 204,341 L 205,341 L 206,341 L 207,341 L 208,341 L 209,341 L 210,341 L 211,341 L 212,341 L 213,341 L 214,341 L 215,341 L 216,341 L 217,341 L 218,341 L 219,341 L 220,341 L 221,341 L 222,341 L 223,341 L 224,341 L 225,341 L 226,340 L 227,340 L 228,339 L 229,339 L 230,339 L 231,338 L 232,338 L 233,337 L 234,337 L 235,337 L 236,336 L 237,336 L 238,336 L 239,335 L 240,335 L 241,334 L 242,334 L 243,334 L 244,333 L 245,333 L 246,333 L 247,332 L 248,332 L 249,331 L 250,331 L 251,331 L 252,330 L 253,330 L 254,330 L 255,329 L 256,329 L 257,329 L 258,328 L 259,328 L 260,327 L 261,327 L 262,327 L 263,326 L 264,326 L 265,326 L 266,325 L 267,325 L 268,324 L 269,324 L 270,324 L 271,323 L 272,323 L 273,323 L 274,322 L 275,322 L 276,321 L 277,321 L 278,321 L 279,320 L 280,320 L 281,320 L 282,319 L 283,319 L 284,319 L 285,318 L 286,318 L 287,318 L 288,317 L 289,317 L 290,316 L 291,316 L 292,316 L 293,315 L 294,315 L 295,315 L 296,314 L 297,314 L 298,314 L 299,313 L 300,313 L 301,312 L 302,312 L 303,312 L 304,311 L 305,311 L 306,311 L 307,310 L 308,310 L 309,310 L 310,309 L 311,309 L 312,309 L 313,308 L 314,308 L 315,308 L 316,307 L 317,307 L 318,306 L 319,306 L 320,306 L 321,305 L 322,305 L 323,305 L 324,304 L 325,304 L 326,304 L 327,303 L 328,303 L 329,303 L 330,302 L 331,302 L 332,301 L 333,301 L 334,301 L 335,300 L 336,300 L 337,299 L 338,299 L 339,298 L 340,297 L 340,296 L 340,295 L 340,294 L 340,293 L 339,292 L 338,291 L 337,291 L 336,291 L 335,290 L 334,290 L 333,290 L 332,290 L 331,290 L 330,290 L 329,289 L 328,289 L 327,289 L 326,289 L 325,289 L 324,289 L 323,288 L 322,288 L 321,288 L 320,288 L 319,288 L 318,287 L 317,287 L 316,287 L 315,287 L 314,287 L 313,286 L 312,286 L 311,286 L 310,286 L 309,285 L 308,285 L 307,285 L 306,285 L 305,284 L 304,284 L 303,284 L 302,284 L 301,284 L 300,283 L 299,283 L 298,283 L 297,283 L 296,282 L 295,282 L 294,282 L 293,282 L 292,282 L 291,281 L 290,281 L 289,281 L 288,281 L 287,280 L 286,280 L 285,280 L 284,280 L 283,280 L 282,279 L 281,279 L 280,279 Z" fill="#8a8f98"/><path d="M 325,276 L 326,276 L 327,276 L 328,276 L 329,277 L 330,277 L 331,277 L 332,277 L 333,277 L 334,278 L 335,278 L 336,278 L 337,278 L 338,279 L 339,279 L 340,279 L 340,278 L 339,278 L 338,278 L 337,278 L 336,278 L 335,277 L 334,277 L 333,277 L 332,277 L 331,276 L 330,276 L 329,276 L 328,276 L 327,276 L 326,276 Z" fill="#8a8f98"/><path d="M 200,245 L 200,246 L 201,246 L 202,247 L 203,247 L 204,248 L 203,249 L 202,249 L 201,249 L 200,249 L 199,250 L 198,250 L 197,251 L 196,250 L 195,251 L 195,252 L 196,252 L 197,251 L 198,251 L 199,251 L 200,250 L 201,250 L 202,250 L 203,249 L 204,249 L 205,249 L 206,249 L 207,248 L 208,248 L 209,248 L 208,248 L 207,247 L 206,247 L 205,247 L 204,246 L 203,246 L 202,246 L 201,245 Z" fill="#8a8f98"/><path d="M 267,211 L 267,212 L 267,213 L 267,214 L 267,215 L 267,216 L 267,217 L 267,218 L 267,219 L 267,220 L 267,221 L 267,222 L 267,223 L 268,223 L 269,223 L 270,224 L 271,224 L 272,224 L 273,224 L 274,225 L 275,225 L 276,225 L 277,225 L 278,226 L 279,226 L 280,226 L 281,226 L 282,227 L 283,227 L 284,227 L 285,227 L 286,228 L 287,228 L 288,228 L 289,228 L 290,228 L 291,229 L 292,229 L 293,229 L 294,229 L 295,230 L 296,230 L 297,230 L 298,230 L 299,231 L 300,231 L 301,231 L 302,231 L 303,231 L 304,232 L 303,233 L 302,233 L 301,234 L 300,234 L 299,234 L 298,235 L 297,235 L 296,235 L 295,236 L 294,236 L 293,236 L 292,236 L 291,237 L 290,237 L 289,237 L 288,238 L 287,238 L 286,238 L 285,239 L 284,239 L 283,239 L 282,239 L 281,240 L 280,240 L 279,240 L 278,240 L 277,241 L 276,241 L 275,241 L 274,242 L 273,242 L 272,242 L 271,243 L 270,243 L 269,243 L 268,244 L 267,244 L 266,244 L 265,244 L 264,245 L 263,245 L 262,245 L 261,246 L 260,246 L 259,246 L 258,247 L 257,247 L 256,247 L 255,248 L 254,248 L 253,248 L 252,249 L 251,249 L 250,249 L 249,250 L 248,250 L 247,250 L 246,250 L 245,251 L 244,251 L 243,251 L 242,252 L 241,252 L 240,252 L 239,253 L 238,253 L 237,253 L 236,254 L 235,254 L 234,254 L 233,255 L 232,255 L 231,255 L 230,255 L 229,256 L 228,256 L 227,256 L 226,257 L 225,257 L 224,257 L 223,258 L 222,258 L 221,258 L 220,259 L 219,259 L 218,259 L 217,260 L 216,260 L 215,260 L 214,260 L 213,261 L 212,261 L 211,261 L 210,262 L 209,262 L 208,262 L 207,263 L 206,263 L 205,263 L 204,263 L 203,264 L 202,264 L 201,264 L 200,265 L 199,265 L 198,265 L 197,266 L 196,266 L 195,266 L 194,266 L 193,267 L 192,267 L 191,267 L 190,268 L 189,268 L 188,268 L 187,269 L 186,269 L 185,269 L 184,270 L 183,270 L 182,270 L 181,270 L 180,271 L 179,271 L 178,271 L 177,272 L 176,272 L 175,272 L 174,273 L 173,273 L 172,273 L 171,274 L 170,274 L 169,274 L 168,274 L 167,275 L 166,275 L 165,275 L 164,276 L 163,276 L 162,276 L 161,277 L 160,278 L 159,279 L 160,280 L 160,281 L 161,282 L 162,282 L 163,282 L 164,283 L 165,283 L 166,283 L 167,284 L 168,284 L 169,284 L 170,285 L 171,285 L 172,285 L 173,285 L 174,286 L 175,286 L 176,286 L 177,287 L 178,287 L 179,287 L 180,287 L 181,288 L 182,288 L 183,288 L 184,289 L 185,289 L 186,289 L 187,289 L 188,290 L 189,290 L 190,290 L 191,291 L 192,291 L 193,291 L 194,291 L 195,292 L 196,292 L 197,292 L 198,293 L 199,293 L 200,293 L 201,293 L 202,294 L 203,294 L 204,294 L 205,295 L 206,295 L 207,295 L 208,295 L 209,296 L 210,296 L 211,296 L 212,296 L 213,297 L 214,297 L 215,297 L 216,298 L 217,298 L 218,298 L 219,299 L 219,298 L 219,297 L 219,296 L 219,295 L 219,294 L 219,293 L 219,292 L 219,291 L 219,290 L 219,289 L 219,288 L 219,287 L 219,286 L 218,286 L 217,286 L 216,286 L 215,285 L 214,285 L 213,285 L 212,284 L 211,284 L 210,284 L 209,284 L 208,284 L 207,283 L 206,283 L 205,283 L 204,282 L 203,282 L 202,282 L 201,282 L 200,281 L 199,281 L 198,281 L 197,281 L 196,280 L 195,280 L 194,279 L 195,278 L 196,278 L 197,278 L 198,278 L 199,277 L 200,277 L 201,277 L 202,276 L 203,276 L 204,275 L 205,275 L 206,275 L 207,274 L 208,274 L 209,274 L 210,273 L 211,273 L 212,273 L 213,272 L 214,272 L 215,272 L 216,272 L 217,271 L 218,271 L 219,271 L 220,270 L 221,270 L 222,270 L 223,269 L 224,269 L 225,269 L 226,268 L 227,268 L 228,268 L 229,267 L 230,267 L 231,267 L 232,267 L 233,266 L 234,266 L 235,266 L 236,265 L 237,265 L 238,265 L 239,265 L 240,264 L 241,264 L 242,264 L 243,264 L 244,263 L 245,263 L 246,263 L 247,262 L 248,262 L 249,262 L 250,261 L 251,261 L 252,261 L 253,260 L 254,260 L 255,260 L 256,259 L 257,259 L 258,258 L 259,258 L 260,258 L 261,257 L 262,257 L 263,257 L 264,256 L 265,256 L 266,256 L 267,255 L 268,255 L 269,255 L 270,255 L 271,254 L 272,254 L 273,254 L 274,254 L 275,253 L 276,253 L 277,253 L 278,253 L 279,252 L 280,252 L 281,252 L 282,252 L 283,251 L 284,251 L 285,251 L 286,250 L 287,250 L 288,250 L 289,249 L 290,249 L 291,249 L 292,249 L 293,248 L 294,248 L 295,248 L 296,247 L 297,247 L 298,247 L 299,246 L 300,246 L 301,246 L 302,246 L 303,245 L 304,245 L 305,245 L 306,244 L 307,244 L 308,244 L 309,243 L 310,243 L 311,243 L 312,242 L 313,242 L 314,242 L 315,242 L 316,241 L 317,241 L 318,241 L 319,240 L 320,240 L 321,240 L 322,240 L 323,239 L 324,239 L 325,239 L 326,238 L 327,238 L 328,238 L 329,237 L 330,237 L 331,236 L 332,236 L 333,236 L 334,235 L 335,235 L 336,234 L 337,234 L 338,233 L 339,233 L 340,233 L 340,232 L 341,231 L 341,230 L 340,229 L 340,228 L 339,227 L 338,227 L 337,226 L 336,226 L 335,226 L 334,226 L 333,225 L 332,225 L 331,225 L 330,225 L 329,225 L 328,224 L 327,224 L 326,224 L 325,224 L 324,224 L 323,223 L 322,223 L 321,223 L 320,223 L 319,223 L 318,222 L 317,222 L 316,222 L 315,222 L 314,222 L 313,221 L 312,221 L 311,221 L 310,221 L 309,221 L 308,221 L 307,220 L 306,220 L 305,220 L 304,220 L 303,219 L 302,219 L 301,219 L 300,219 L 299,219 L 298,218 L 297,218 L 296,218 L 295,218 L 294,218 L 293,217 L 292,217 L 291,217 L 290,217 L 289,216 L 288,216 L 287,216 L 286,216 L 285,215 L 284,215 L 283,215 L 282,215 L 281,215 L 280,214 L 279,214 L 278,214 L 277,214 L 276,214 L 275,213 L 274,213 L 273,213 L 272,213 L 271,212 L 270,212 L 269,212 L 268,212 Z" fill="#8a8f98"/><path d="M 156,171 L 155,172 L 154,172 L 155,173 L 155,174 L 156,174 L 157,175 L 157,174 L 158,173 L 159,174 L 160,174 L 161,174 L 162,174 L 163,174 L 164,174 L 165,174 L 164,174 L 163,174 L 162,174 L 161,173 L 160,173 L 159,173 L 158,172 L 157,172 Z" fill="#8a8f98"/><path d="M 267,147 L 267,148 L 267,149 L 267,150 L 267,151 L 267,152 L 267,153 L 267,154 L 267,155 L 267,156 L 267,157 L 267,158 L 267,159 L 267,160 L 268,160 L 269,160 L 270,161 L 271,161 L 272,161 L 273,161 L 274,162 L 275,162 L 276,162 L 277,162 L 278,162 L 279,163 L 280,163 L 281,163 L 282,163 L 283,164 L 284,164 L 285,164 L 286,164 L 287,164 L 288,165 L 289,165 L 290,165 L 291,165 L 292,165 L 293,166 L 294,166 L 295,166 L 296,166 L 297,167 L 298,167 L 299,167 L 300,167 L 301,168 L 302,168 L 303,168 L 304,168 L 305,168 L 306,168 L 307,169 L 306,170 L 305,170 L 304,170 L 303,171 L 302,171 L 301,171 L 300,172 L 299,172 L 298,172 L 297,173 L 296,173 L 295,173 L 294,173 L 293,174 L 292,174 L 291,175 L 290,175 L 289,175 L 288,176 L 287,176 L 286,176 L 285,177 L 284,177 L 283,177 L 282,177 L 281,178 L 280,178 L 279,178 L 278,179 L 277,179 L 276,179 L 275,180 L 274,180 L 273,180 L 272,181 L 271,181 L 270,181 L 269,182 L 268,182 L 267,183 L 266,183 L 265,183 L 264,183 L 263,183 L 262,184 L 261,184 L 260,184 L 259,184 L 258,185 L 257,185 L 256,185 L 255,185 L 254,186 L 253,186 L 252,186 L 251,187 L 250,187 L 249,187 L 248,188 L 247,188 L 246,188 L 245,189 L 244,189 L 243,189 L 242,189 L 241,190 L 240,190 L 239,190 L 238,191 L 237,191 L 236,191 L 235,192 L 234,192 L 233,193 L 232,193 L 231,193 L 230,194 L 229,194 L 228,194 L 227,195 L 226,195 L 225,195 L 224,196 L 223,196 L 222,196 L 221,197 L 220,197 L 219,197 L 218,197 L 217,198 L 216,198 L 215,198 L 214,199 L 213,199 L 212,199 L 211,200 L 210,200 L 209,200 L 208,201 L 207,201 L 206,201 L 205,202 L 204,202 L 203,202 L 202,203 L 201,203 L 200,203 L 199,203 L 198,204 L 197,204 L 196,204 L 195,205 L 194,205 L 193,205 L 192,206 L 191,206 L 190,206 L 189,207 L 188,207 L 187,207 L 186,208 L 185,208 L 184,208 L 183,209 L 182,209 L 181,209 L 180,210 L 179,210 L 178,210 L 177,210 L 176,211 L 175,211 L 174,211 L 173,212 L 172,212 L 171,212 L 170,213 L 169,213 L 168,213 L 167,214 L 166,214 L 165,214 L 164,215 L 163,215 L 162,215 L 161,216 L 160,217 L 160,218 L 161,219 L 162,220 L 163,220 L 164,221 L 165,221 L 166,222 L 167,222 L 168,222 L 169,222 L 170,223 L 171,223 L 172,223 L 173,224 L 174,224 L 175,224 L 176,224 L 177,225 L 178,225 L 179,225 L 180,225 L 181,226 L 182,226 L 183,226 L 184,227 L 185,227 L 186,227 L 187,227 L 188,228 L 189,228 L 190,228 L 191,229 L 192,229 L 193,229 L 194,229 L 195,230 L 196,230 L 197,230 L 198,231 L 199,231 L 200,231 L 201,231 L 202,232 L 203,232 L 204,232 L 205,232 L 206,233 L 207,233 L 208,233 L 209,234 L 210,234 L 211,234 L 212,234 L 213,235 L 214,235 L 215,235 L 216,236 L 217,236 L 218,236 L 219,236 L 220,237 L 221,237 L 222,237 L 223,237 L 224,238 L 225,238 L 226,238 L 227,238 L 228,239 L 229,239 L 230,239 L 231,240 L 232,240 L 232,239 L 232,238 L 232,237 L 232,236 L 232,235 L 232,234 L 232,233 L 232,232 L 232,231 L 232,230 L 232,229 L 232,228 L 232,227 L 231,227 L 230,227 L 229,226 L 228,226 L 227,226 L 226,226 L 225,225 L 224,225 L 223,225 L 222,225 L 221,225 L 220,225 L 219,224 L 218,224 L 217,224 L 216,224 L 215,224 L 214,223 L 213,223 L 212,223 L 211,223 L 210,222 L 209,222 L 208,222 L 207,222 L 206,221 L 205,221 L 204,221 L 203,220 L 202,220 L 201,220 L 200,220 L 199,219 L 198,219 L 197,219 L 196,219 L 195,219 L 194,218 L 195,217 L 196,216 L 197,216 L 198,216 L 199,215 L 200,215 L 201,215 L 202,214 L 203,214 L 204,214 L 205,214 L 206,213 L 207,213 L 208,213 L 209,212 L 210,212 L 211,212 L 212,211 L 213,211 L 214,211 L 215,211 L 216,210 L 217,210 L 218,210 L 219,209 L 220,209 L 221,209 L 222,209 L 223,208 L 224,208 L 225,208 L 226,207 L 227,207 L 228,207 L 229,206 L 230,206 L 231,206 L 232,205 L 233,205 L 234,205 L 235,204 L 236,204 L 237,204 L 238,203 L 239,203 L 240,203 L 241,202 L 242,202 L 243,202 L 244,201 L 245,201 L 246,201 L 247,201 L 248,200 L 249,200 L 250,200 L 251,199 L 252,199 L 253,199 L 254,198 L 255,198 L 256,198 L 257,197 L 258,197 L 259,197 L 260,196 L 261,196 L 262,196 L 263,195 L 264,195 L 265,195 L 266,195 L 267,194 L 268,194 L 269,194 L 270,194 L 271,194 L 272,193 L 273,193 L 274,193 L 275,193 L 276,192 L 277,192 L 278,192 L 279,191 L 280,191 L 281,191 L 282,190 L 283,190 L 284,190 L 285,189 L 286,189 L 287,189 L 288,188 L 289,188 L 290,188 L 291,187 L 292,187 L 293,187 L 294,186 L 295,186 L 296,186 L 297,185 L 298,185 L 299,185 L 300,184 L 301,184 L 302,184 L 303,183 L 304,183 L 305,183 L 306,182 L 307,182 L 308,181 L 309,181 L 310,181 L 311,181 L 312,180 L 313,180 L 314,180 L 315,179 L 316,179 L 317,179 L 318,178 L 319,178 L 320,178 L 321,177 L 322,177 L 323,177 L 324,177 L 325,176 L 326,176 L 327,176 L 328,175 L 329,175 L 330,174 L 331,174 L 332,173 L 333,173 L 334,173 L 335,172 L 336,172 L 337,171 L 338,171 L 339,170 L 340,170 L 341,169 L 341,168 L 341,167 L 341,166 L 340,165 L 339,165 L 338,164 L 337,164 L 336,164 L 335,163 L 334,163 L 333,163 L 332,163 L 331,162 L 330,162 L 329,162 L 328,162 L 327,161 L 326,161 L 325,161 L 324,160 L 323,160 L 322,160 L 321,160 L 320,159 L 319,159 L 318,159 L 317,159 L 316,158 L 315,158 L 314,158 L 313,158 L 312,157 L 311,157 L 310,157 L 309,157 L 308,156 L 307,156 L 306,156 L 305,156 L 304,156 L 303,155 L 302,155 L 301,155 L 300,155 L 299,154 L 298,154 L 297,154 L 296,154 L 295,153 L 294,153 L 293,153 L 292,153 L 291,152 L 290,152 L 289,152 L 288,152 L 287,151 L 286,151 L 285,151 L 284,151 L 283,151 L 282,150 L 281,150 L 280,150 L 279,150 L 278,149 L 277,149 L 276,149 L 275,149 L 274,149 L 273,148 L 272,148 L 271,148 L 270,148 L 269,147 L 268,147 Z" fill="#8a8f98"/><path d="M 232,130 L 231,131 L 230,131 L 229,132 L 228,132 L 227,132 L 226,133 L 225,133 L 224,134 L 223,134 L 222,134 L 221,135 L 220,135 L 219,136 L 218,136 L 217,136 L 216,137 L 215,137 L 214,138 L 213,138 L 212,138 L 211,139 L 210,139 L 209,139 L 208,140 L 207,140 L 206,141 L 205,141 L 204,141 L 203,142 L 202,142 L 201,142 L 200,143 L 199,143 L 198,143 L 197,144 L 196,144 L 195,145 L 194,145 L 193,145 L 192,146 L 191,146 L 190,146 L 189,147 L 188,147 L 187,148 L 186,148 L 185,148 L 184,149 L 183,149 L 182,149 L 181,150 L 180,150 L 179,151 L 178,151 L 177,151 L 176,152 L 175,152 L 174,152 L 173,153 L 172,153 L 171,153 L 170,154 L 169,154 L 168,154 L 167,155 L 166,155 L 165,156 L 164,156 L 163,156 L 162,156 L 161,157 L 161,158 L 162,159 L 163,160 L 164,160 L 165,160 L 166,161 L 167,161 L 168,161 L 169,162 L 170,162 L 171,162 L 172,163 L 173,163 L 174,163 L 175,164 L 176,164 L 177,164 L 178,164 L 179,165 L 180,165 L 181,165 L 182,165 L 183,166 L 184,166 L 185,166 L 186,167 L 187,167 L 188,167 L 189,167 L 190,168 L 191,168 L 192,168 L 193,168 L 194,169 L 195,169 L 196,169 L 197,169 L 198,170 L 199,170 L 200,170 L 201,170 L 202,171 L 203,171 L 204,171 L 205,171 L 206,172 L 207,172 L 208,172 L 209,172 L 210,173 L 211,173 L 212,173 L 213,174 L 214,174 L 215,174 L 216,174 L 217,175 L 218,175 L 219,175 L 220,175 L 221,176 L 222,176 L 223,176 L 224,176 L 225,176 L 226,177 L 227,177 L 228,177 L 229,177 L 230,178 L 231,178 L 232,178 L 232,177 L 232,176 L 232,175 L 232,174 L 232,173 L 232,172 L 232,171 L 232,170 L 232,169 L 232,168 L 232,167 L 232,166 L 232,165 L 231,165 L 230,165 L 229,165 L 228,164 L 227,164 L 226,164 L 225,164 L 224,163 L 223,163 L 222,163 L 221,163 L 220,162 L 219,162 L 218,162 L 217,162 L 216,161 L 215,161 L 214,161 L 213,161 L 212,160 L 211,160 L 210,160 L 209,160 L 208,159 L 207,159 L 206,159 L 205,158 L 204,158 L 203,158 L 202,157 L 203,156 L 204,155 L 205,155 L 206,155 L 207,154 L 208,154 L 209,153 L 210,153 L 211,152 L 212,152 L 213,151 L 214,151 L 215,151 L 216,150 L 217,150 L 218,149 L 219,149 L 220,149 L 221,148 L 222,148 L 223,147 L 224,147 L 225,147 L 226,146 L 227,146 L 228,145 L 229,145 L 230,144 L 231,144 L 232,143 L 232,142 L 232,141 L 232,140 L 232,139 L 232,138 L 232,137 L 232,136 L 232,135 L 232,134 L 232,133 L 232,132 L 232,131 Z" fill="#8a8f98"/><path d="M 295,119 L 295,120 L 294,121 L 293,121 L 292,121 L 291,121 L 290,121 L 289,121 L 288,121 L 287,121 L 286,121 L 285,121 L 284,121 L 283,121 L 282,121 L 281,121 L 280,121 L 279,121 L 278,121 L 277,121 L 276,121 L 275,121 L 274,121 L 273,121 L 272,121 L 271,121 L 270,121 L 269,121 L 268,121 L 267,120 L 267,121 L 267,122 L 267,123 L 267,124 L 267,125 L 267,126 L 267,127 L 267,128 L 267,129 L 267,130 L 267,131 L 268,130 L 269,130 L 270,129 L 271,129 L 272,129 L 273,128 L 274,128 L 275,128 L 276,127 L 277,127 L 278,127 L 279,126 L 280,126 L 281,126 L 282,125 L 283,125 L 284,125 L 285,125 L 286,124 L 287,124 L 288,124 L 289,123 L 290,123 L 291,123 L 292,122 L 293,122 L 294,121 L 295,121 L 296,120 L 297,120 L 298,120 L 299,119 L 300,119 L 299,119 L 298,119 L 297,119 L 296,119 Z" fill="#8a8f98"/><path d="M 157,88 L 157,89 L 157,90 L 157,91 L 157,92 L 157,93 L 157,94 L 157,95 L 157,96 L 157,97 L 157,98 L 157,99 L 157,100 L 157,101 L 157,102 L 157,103 L 157,104 L 157,105 L 157,106 L 158,106 L 159,106 L 160,106 L 161,106 L 162,106 L 163,106 L 164,106 L 165,106 L 166,106 L 167,106 L 168,106 L 169,106 L 170,106 L 171,106 L 172,106 L 173,106 L 174,106 L 175,106 L 176,106 L 177,106 L 178,106 L 179,106 L 180,106 L 181,106 L 182,106 L 183,106 L 184,106 L 185,106 L 186,106 L 187,106 L 188,106 L 189,106 L 190,106 L 191,106 L 192,106 L 193,106 L 194,106 L 195,106 L 196,106 L 197,106 L 198,106 L 199,106 L 200,106 L 201,106 L 202,106 L 203,106 L 204,106 L 205,106 L 206,106 L 207,106 L 208,106 L 209,106 L 210,106 L 211,106 L 212,106 L 213,106 L 214,106 L 215,106 L 216,106 L 217,106 L 218,106 L 219,106 L 220,106 L 221,106 L 222,106 L 223,106 L 224,106 L 225,106 L 226,106 L 227,106 L 228,106 L 229,106 L 230,106 L 231,106 L 231,105 L 230,104 L 229,103 L 228,102 L 227,101 L 226,100 L 225,99 L 224,98 L 223,97 L 223,96 L 222,95 L 221,94 L 221,93 L 220,92 L 220,91 L 219,90 L 219,89 L 219,88 L 218,88 L 217,88 L 216,88 L 215,88 L 214,88 L 213,88 L 212,88 L 211,88 L 210,88 L 209,88 L 208,88 L 207,88 L 206,88 L 205,88 L 204,88 L 203,88 L 202,88 L 201,88 L 200,88 L 199,88 L 198,88 L 197,88 L 196,88 L 195,88 L 194,88 L 193,88 L 192,88 L 191,88 L 190,88 L 189,88 L 188,88 L 187,88 L 186,88 L 185,88 L 184,88 L 183,88 L 182,88 L 181,88 L 180,88 L 179,88 L 178,88 L 177,88 L 176,88 L 175,88 L 174,88 L 173,88 L 172,88 L 171,88 L 170,88 L 169,88 L 168,88 L 167,88 L 166,88 L 165,88 L 164,88 L 163,88 L 162,88 L 161,88 L 160,88 L 159,88 L 158,88 Z" fill="#8a8f98"/><path d="M 356,40 L 356,41 L 356,42 L 356,43 L 356,44 L 356,45 L 356,46 L 356,47 L 356,48 L 356,49 L 356,50 L 356,51 L 356,52 L 356,53 L 356,54 L 356,55 L 356,56 L 356,57 L 356,58 L 356,59 L 356,60 L 356,61 L 356,62 L 356,63 L 356,64 L 356,65 L 356,66 L 356,67 L 356,68 L 356,69 L 356,70 L 356,71 L 356,72 L 356,73 L 356,74 L 356,75 L 356,76 L 356,77 L 356,78 L 356,79 L 356,80 L 356,81 L 356,82 L 356,83 L 356,84 L 356,85 L 356,86 L 356,87 L 356,88 L 356,89 L 356,90 L 356,91 L 356,92 L 356,93 L 356,94 L 356,95 L 356,96 L 356,97 L 356,98 L 356,99 L 356,98 L 356,97 L 356,96 L 356,95 L 356,94 L 356,93 L 356,92 L 356,91 L 356,90 L 356,89 L 356,88 L 356,87 L 356,86 L 356,85 L 356,84 L 356,83 L 356,82 L 356,81 L 356,80 L 356,79 L 356,78 L 356,77 L 356,76 L 356,75 L 356,74 L 356,73 L 356,72 L 356,71 L 356,70 L 356,69 L 356,68 L 356,67 L 356,66 L 356,65 L 356,64 L 356,63 L 356,62 L 356,61 L 356,60 L 356,59 L 356,58 L 356,57 L 356,56 L 356,55 L 356,54 L 356,53 L 356,52 L 356,51 L 356,50 L 356,49 L 356,48 L 356,47 L 356,46 L 356,45 L 356,44 L 356,43 L 356,42 L 356,41 Z" fill="#8a8f98"/><path d="M 143,40 L 143,41 L 143,42 L 143,43 L 143,44 L 143,45 L 143,46 L 143,47 L 143,48 L 143,49 L 143,50 L 143,51 L 143,52 L 143,53 L 143,54 L 143,55 L 143,56 L 143,57 L 143,58 L 143,59 L 143,60 L 143,61 L 143,62 L 143,63 L 143,64 L 143,65 L 143,66 L 143,67 L 143,68 L 143,69 L 143,70 L 143,71 L 143,72 L 143,73 L 143,74 L 143,75 L 143,76 L 143,77 L 143,78 L 143,79 L 143,80 L 143,81 L 143,82 L 143,83 L 143,84 L 143,85 L 143,86 L 143,87 L 143,88 L 143,89 L 143,90 L 143,91 L 143,92 L 143,93 L 143,94 L 143,95 L 143,96 L 143,97 L 143,98 L 143,99 L 143,100 L 143,101 L 143,102 L 143,103 L 143,104 L 143,105 L 143,106 L 143,107 L 143,108 L 143,109 L 143,110 L 143,111 L 143,110 L 143,109 L 143,108 L 143,107 L 143,106 L 143,105 L 143,104 L 143,103 L 143,102 L 143,101 L 143,100 L 143,99 L 143,98 L 143,97 L 143,96 L 143,95 L 143,94 L 143,93 L 143,92 L 143,91 L 143,90 L 143,89 L 143,88 L 143,87 L 143,86 L 143,85 L 143,84 L 143,83 L 143,82 L 143,81 L 143,80 L 143,79 L 143,78 L 143,77 L 143,76 L 143,75 L 143,74 L 143,73 L 143,72 L 143,71 L 143,70 L 143,69 L 143,68 L 143,67 L 143,66 L 143,65 L 143,64 L 143,63 L 143,62 L 143,61 L 143,60 L 143,59 L 143,58 L 143,57 L 143,56 L 143,55 L 143,54 L 143,53 L 143,52 L 143,51 L 143,50 L 143,49 L 143,48 L 143,47 L 143,46 L 143,45 L 143,44 L 143,43 L 143,42 L 143,41 Z" fill="#8a8f98"/><path d="M 156,32 L 157,32 L 158,32 L 159,32 L 160,32 L 161,32 L 162,32 L 163,32 L 164,32 L 165,32 L 166,32 L 167,32 L 168,32 L 169,32 L 170,32 L 171,32 L 172,32 L 173,32 L 174,32 L 175,32 L 176,32 L 177,32 L 178,32 L 179,32 L 180,32 L 181,32 L 182,32 L 183,32 L 184,32 L 185,32 L 186,32 L 187,32 L 188,32 L 189,32 L 190,32 L 191,32 L 192,32 L 193,32 L 194,32 L 195,32 L 196,32 L 197,32 L 198,32 L 199,32 L 200,32 L 201,32 L 202,32 L 203,32 L 204,32 L 205,32 L 206,32 L 207,32 L 208,32 L 209,32 L 210,32 L 211,32 L 212,32 L 213,32 L 214,32 L 215,32 L 216,32 L 217,32 L 218,32 L 219,32 L 220,32 L 221,32 L 222,32 L 223,32 L 224,32 L 225,32 L 226,32 L 227,32 L 228,32 L 229,32 L 230,32 L 231,32 L 232,32 L 233,32 L 234,32 L 235,32 L 236,32 L 237,32 L 238,32 L 239,32 L 240,32 L 241,32 L 242,32 L 243,32 L 244,32 L 245,32 L 246,32 L 247,32 L 248,32 L 249,32 L 250,32 L 251,32 L 252,32 L 253,32 L 254,32 L 255,32 L 256,32 L 257,32 L 258,32 L 259,32 L 260,32 L 261,32 L 262,32 L 263,32 L 264,32 L 265,32 L 266,32 L 267,32 L 268,32 L 269,32 L 270,32 L 271,32 L 272,32 L 273,32 L 274,32 L 275,32 L 276,32 L 277,32 L 278,32 L 279,32 L 280,32 L 281,32 L 282,32 L 283,32 L 284,32 L 285,32 L 286,32 L 287,32 L 288,32 L 289,32 L 290,32 L 291,32 L 292,32 L 293,32 L 294,32 L 295,32 L 296,32 L 297,32 L 298,32 L 299,32 L 300,32 L 301,32 L 302,32 L 303,32 L 304,32 L 305,32 L 306,32 L 307,32 L 308,32 L 307,32 L 306,32 L 305,32 L 304,32 L 303,32 L 302,32 L 301,32 L 300,32 L 299,32 L 298,32 L 297,32 L 296,32 L 295,32 L 294,32 L 293,32 L 292,32 L 291,32 L 290,32 L 289,32 L 288,32 L 287,32 L 286,32 L 285,32 L 284,32 L 283,32 L 282,32 L 281,32 L 280,32 L 279,32 L 278,32 L 277,32 L 276,32 L 275,32 L 274,32 L 273,32 L 272,32 L 271,32 L 270,32 L 269,32 L 268,32 L 267,32 L 266,32 L 265,32 L 264,32 L 263,32 L 262,32 L 261,32 L 260,32 L 259,32 L 258,32 L 257,32 L 256,32 L 255,32 L 254,32 L 253,32 L 252,32 L 251,32 L 250,32 L 249,32 L 248,32 L 247,32 L 246,32 L 245,32 L 244,32 L 243,32 L 242,32 L 241,32 L 240,32 L 239,32 L 238,32 L 237,32 L 236,32 L 235,32 L 234,32 L 233,32 L 232,32 L 231,32 L 230,32 L 229,32 L 228,32 L 227,32 L 226,32 L 225,32 L 224,32 L 223,32 L 222,32 L 221,32 L 220,32 L 219,32 L 218,32 L 217,32 L 216,32 L 215,32 L 214,32 L 213,32 L 212,32 L 211,32 L 210,32 L 209,32 L 208,32 L 207,32 L 206,32 L 205,32 L 204,32 L 203,32 L 202,32 L 201,32 L 200,32 L 199,32 L 198,32 L 197,32 L 196,32 L 195,32 L 194,32 L 193,32 L 192,32 L 191,32 L 190,32 L 189,32 L 188,32 L 187,32 L 186,32 L 185,32 L 184,32 L 183,32 L 182,32 L 181,32 L 180,32 L 179,32 L 178,32 L 177,32 L 176,32 L 175,32 L 174,32 L 173,32 L 172,32 L 171,32 L 170,32 L 169,32 L 168,32 L 167,32 L 166,32 L 165,32 L 164,32 L 163,32 L 162,32 L 161,32 L 160,32 L 159,32 L 158,32 L 157,32 Z" fill="#8a8f98"/><path d="M 243,378 L 242,379 L 241,379 L 240,379 L 240,380 L 239,381 L 238,382 L 238,383 L 237,384 L 236,384 L 236,385 L 236,386 L 235,387 L 234,386 L 234,385 L 234,384 L 233,385 L 233,386 L 232,387 L 233,388 L 232,389 L 231,389 L 230,390 L 231,391 L 230,392 L 230,393 L 230,394 L 229,395 L 229,396 L 229,397 L 229,398 L 229,399 L 229,400 L 230,400 L 231,401 L 231,402 L 230,403 L 230,404 L 230,405 L 231,406 L 231,407 L 232,408 L 233,408 L 234,409 L 233,410 L 234,411 L 235,411 L 236,410 L 237,411 L 238,412 L 238,413 L 239,414 L 238,415 L 239,415 L 240,414 L 241,413 L 242,414 L 243,415 L 242,416 L 241,416 L 242,416 L 243,417 L 244,417 L 245,417 L 246,417 L 247,416 L 248,417 L 249,417 L 250,417 L 251,416 L 252,416 L 253,417 L 254,417 L 255,417 L 256,417 L 257,416 L 258,416 L 259,416 L 260,415 L 261,415 L 261,414 L 262,413 L 263,413 L 264,412 L 265,411 L 266,410 L 267,409 L 267,408 L 268,407 L 268,406 L 269,405 L 269,404 L 269,403 L 269,402 L 268,401 L 268,400 L 268,399 L 268,398 L 269,397 L 270,398 L 270,399 L 270,400 L 270,399 L 270,398 L 270,397 L 270,396 L 270,395 L 270,394 L 269,393 L 269,392 L 269,391 L 268,390 L 268,389 L 268,388 L 267,387 L 266,386 L 266,385 L 265,384 L 264,383 L 263,382 L 262,381 L 261,381 L 260,380 L 259,380 L 258,379 L 257,379 L 256,378 L 255,378 L 254,378 L 253,378 L 252,378 L 251,378 L 250,378 L 249,378 L 248,378 L 247,378 L 246,378 L 245,378 L 244,378 Z" fill="#e08a2e"/><path d="M 233,276 L 233,277 L 232,278 L 232,279 L 232,280 L 232,281 L 232,282 L 232,283 L 232,284 L 232,285 L 232,286 L 232,287 L 232,288 L 232,289 L 232,290 L 232,291 L 232,292 L 232,293 L 232,294 L 232,295 L 232,296 L 232,297 L 232,298 L 232,299 L 232,300 L 232,301 L 232,302 L 232,303 L 232,304 L 232,305 L 232,306 L 232,307 L 232,308 L 232,309 L 233,310 L 234,310 L 235,309 L 236,309 L 237,308 L 238,308 L 239,308 L 240,307 L 241,307 L 242,307 L 243,307 L 244,306 L 245,306 L 246,305 L 247,305 L 248,305 L 249,304 L 250,304 L 251,303 L 252,303 L 253,303 L 254,302 L 255,302 L 256,301 L 257,301 L 258,301 L 259,300 L 260,300 L 261,300 L 262,299 L 261,298 L 262,297 L 263,297 L 264,298 L 265,298 L 266,297 L 266,296 L 266,295 L 266,294 L 266,293 L 266,292 L 266,291 L 266,290 L 266,289 L 266,288 L 266,287 L 266,286 L 266,285 L 266,284 L 266,283 L 266,282 L 266,281 L 266,280 L 266,279 L 266,278 L 266,277 L 265,276 L 264,276 L 263,276 L 262,276 L 261,276 L 260,276 L 259,276 L 258,276 L 257,276 L 256,276 L 255,276 L 254,276 L 253,276 L 252,276 L 251,276 L 250,276 L 249,276 L 248,276 L 247,276 L 246,276 L 245,276 L 244,276 L 243,276 L 242,276 L 241,276 L 240,276 L 239,276 L 238,276 L 237,276 L 236,276 L 235,276 L 234,276 Z" fill="#e08a2e"/><path d="M 245,53 L 244,54 L 243,54 L 242,54 L 241,55 L 240,55 L 239,56 L 238,57 L 237,57 L 236,58 L 235,59 L 234,60 L 235,61 L 234,62 L 233,62 L 232,63 L 231,64 L 231,65 L 230,66 L 230,67 L 230,68 L 229,69 L 229,70 L 229,71 L 229,72 L 228,73 L 228,74 L 228,75 L 228,76 L 229,77 L 229,78 L 229,79 L 229,78 L 230,77 L 230,76 L 231,75 L 232,76 L 232,77 L 232,78 L 232,79 L 232,80 L 232,81 L 232,82 L 231,83 L 231,84 L 232,85 L 233,86 L 234,87 L 235,88 L 236,89 L 237,90 L 238,90 L 239,91 L 240,92 L 241,92 L 242,92 L 243,93 L 244,93 L 245,93 L 246,93 L 247,93 L 248,93 L 249,93 L 250,93 L 251,93 L 252,93 L 253,93 L 254,93 L 255,93 L 256,92 L 257,92 L 258,91 L 259,91 L 260,91 L 261,90 L 262,89 L 263,89 L 264,88 L 265,87 L 266,86 L 267,85 L 267,84 L 266,83 L 267,82 L 268,82 L 267,81 L 267,80 L 268,79 L 269,80 L 268,79 L 269,78 L 270,78 L 270,77 L 270,76 L 270,75 L 270,74 L 270,73 L 270,72 L 270,71 L 270,70 L 269,69 L 269,68 L 269,67 L 269,66 L 268,65 L 268,64 L 267,63 L 266,63 L 265,63 L 264,62 L 264,61 L 265,60 L 264,59 L 263,58 L 262,58 L 261,57 L 260,56 L 259,56 L 258,55 L 257,55 L 256,54 L 255,54 L 254,54 L 253,54 L 252,53 L 251,53 L 250,53 L 249,53 L 248,53 L 247,53 L 246,53 Z" fill="#e08a2e"/><path d="M 247,417 L 246,418 L 245,418 L 246,418 L 247,418 L 248,418 L 249,418 L 250,418 L 251,418 L 252,418 L 253,418 L 254,418 L 255,418 L 254,418 L 253,418 L 252,417 L 251,417 L 250,418 L 249,418 L 248,418 Z" fill="#eadfcf"/><path d="M 232,407 L 231,408 L 232,409 L 232,410 L 233,411 L 234,412 L 235,413 L 236,414 L 237,414 L 238,414 L 237,413 L 237,412 L 236,411 L 235,412 L 234,412 L 233,411 L 232,410 L 233,409 L 234,408 L 235,409 L 236,409 L 237,408 L 238,409 L 239,410 L 240,409 L 241,408 L 240,407 L 240,408 L 239,409 L 238,409 L 237,408 L 236,409 L 235,409 L 234,408 L 233,409 L 232,409 L 231,408 Z" fill="#eadfcf"/><path d="M 253,388 L 254,388 L 255,389 L 254,390 L 253,390 L 254,390 L 255,391 L 256,392 L 257,393 L 258,392 L 259,393 L 259,394 L 258,395 L 258,396 L 258,397 L 258,396 L 258,395 L 259,394 L 260,393 L 259,393 L 258,392 L 259,391 L 259,390 L 259,391 L 258,392 L 257,393 L 256,392 L 255,391 L 254,390 L 255,389 L 255,388 L 254,388 Z" fill="#eadfcf"/><path d="M 239,379 L 238,380 L 237,381 L 236,381 L 235,382 L 234,383 L 233,384 L 232,385 L 232,386 L 231,387 L 231,388 L 230,389 L 231,390 L 230,391 L 229,392 L 229,393 L 229,394 L 229,393 L 229,392 L 230,391 L 231,390 L 230,389 L 231,388 L 232,388 L 231,387 L 232,386 L 232,385 L 233,384 L 234,383 L 235,384 L 235,385 L 235,386 L 234,387 L 235,386 L 235,385 L 235,384 L 236,383 L 237,383 L 237,382 L 238,381 L 239,380 L 240,381 L 239,380 Z" fill="#eadfcf"/><path d="M 236,304 L 237,305 L 237,306 L 238,307 L 239,307 L 240,308 L 239,309 L 238,309 L 237,309 L 236,308 L 237,309 L 238,309 L 239,309 L 240,308 L 241,308 L 240,308 L 239,307 L 238,307 L 237,306 L 237,305 L 237,304 Z" fill="#eadfcf"/><path d="M 231,287 L 231,288 L 231,289 L 231,290 L 231,291 L 231,292 L 231,293 L 231,294 L 231,295 L 231,296 L 231,297 L 231,298 L 231,299 L 231,300 L 231,301 L 231,300 L 231,299 L 231,298 L 231,297 L 231,296 L 231,295 L 231,294 L 231,293 L 231,292 L 231,291 L 231,290 L 231,289 L 231,288 Z" fill="#eadfcf"/><path d="M 266,276 L 265,277 L 264,277 L 265,277 L 266,276 L 267,277 L 267,278 L 267,279 L 267,280 L 267,281 L 267,282 L 267,283 L 267,284 L 267,285 L 267,286 L 267,287 L 267,288 L 267,289 L 267,290 L 267,291 L 267,292 L 267,293 L 267,294 L 267,295 L 267,294 L 267,293 L 267,292 L 267,291 L 267,290 L 267,289 L 267,288 L 267,287 L 267,286 L 267,285 L 267,284 L 267,283 L 267,282 L 267,281 L 267,280 L 267,279 L 267,278 L 267,277 L 267,276 Z" fill="#eadfcf"/><path d="M 250,211 L 249,212 L 248,212 L 247,212 L 246,212 L 245,213 L 244,214 L 244,215 L 244,216 L 244,217 L 244,218 L 244,219 L 244,220 L 244,221 L 244,222 L 244,223 L 244,224 L 244,225 L 244,226 L 244,227 L 244,228 L 244,229 L 244,230 L 244,231 L 244,232 L 244,233 L 244,234 L 244,235 L 244,236 L 244,237 L 245,236 L 246,236 L 247,236 L 248,235 L 249,235 L 250,235 L 251,234 L 252,234 L 253,234 L 254,234 L 255,233 L 255,232 L 255,231 L 255,230 L 255,229 L 255,228 L 255,227 L 255,226 L 255,225 L 255,224 L 255,223 L 255,222 L 255,221 L 255,220 L 255,219 L 255,218 L 255,217 L 255,216 L 255,215 L 255,214 L 255,213 L 255,212 L 254,211 L 253,211 L 252,211 L 251,211 Z" fill="#eadfcf"/><path d="M 246,119 L 245,120 L 244,120 L 244,121 L 244,122 L 244,123 L 244,124 L 244,125 L 245,126 L 244,127 L 244,128 L 244,129 L 244,130 L 244,131 L 244,132 L 244,133 L 244,134 L 244,135 L 244,136 L 244,137 L 244,138 L 244,139 L 244,140 L 244,141 L 244,142 L 244,143 L 244,144 L 244,145 L 244,146 L 244,147 L 244,148 L 244,149 L 244,150 L 244,151 L 244,152 L 244,153 L 244,154 L 244,155 L 244,156 L 244,157 L 244,158 L 244,159 L 244,160 L 244,161 L 244,162 L 244,163 L 244,164 L 244,165 L 244,166 L 244,167 L 244,168 L 244,169 L 244,170 L 244,171 L 244,172 L 244,173 L 244,174 L 244,175 L 245,174 L 246,174 L 247,174 L 248,173 L 249,173 L 250,173 L 251,172 L 251,171 L 252,170 L 253,170 L 254,171 L 255,171 L 255,170 L 255,169 L 255,168 L 255,167 L 255,166 L 255,165 L 255,164 L 255,163 L 255,162 L 255,161 L 255,160 L 255,159 L 255,158 L 255,157 L 255,156 L 255,155 L 255,154 L 255,153 L 255,152 L 255,151 L 255,150 L 255,149 L 255,148 L 255,147 L 255,146 L 255,145 L 255,144 L 255,143 L 255,142 L 255,141 L 255,140 L 255,139 L 255,138 L 255,137 L 255,136 L 255,135 L 255,134 L 255,133 L 255,132 L 255,131 L 255,130 L 255,129 L 255,128 L 255,127 L 255,126 L 255,125 L 255,124 L 255,123 L 255,122 L 255,121 L 255,120 L 254,119 L 253,119 L 252,119 L 251,119 L 250,119 L 249,119 L 248,119 L 247,119 Z" fill="#eadfcf"/><path d="M 231,85 L 232,86 L 233,87 L 234,88 L 235,89 L 236,90 L 237,91 L 238,91 L 239,92 L 238,91 L 237,91 L 236,90 L 237,89 L 238,89 L 237,89 L 236,90 L 235,89 L 234,88 L 235,87 L 234,88 L 233,87 L 232,86 Z" fill="#eadfcf"/></svg>