<svg xmlns="http://www.w3.org/2000/svg" width="1024" height="1024"><path fill="none" d="M0 0h1024v1024H0zm347 105-2.275 1.138c-49.45 24.81-49.45 24.81-57.163 44.362-1.547 4.833-2.23 9.445-2.562 14.5l-2.625-2.062C279 161 279 161 276.137 161.137c-3.633 1-5.735 2.421-8.7 4.738l-1.555 1.208c-5.517 4.327-10.856 8.87-16.167 13.445a916 916 0 0 1-5.403 4.593c-10.773 9.127-10.773 9.127-15.627 14.194-1.723 1.723-3.517 3.301-5.369 4.884-4.336 3.772-8.439 7.74-12.504 11.801l-2.076 2.04c-10.476 10.445-10.476 10.445-11.111 16.585.375 3.375.375 3.375 1.11 5.86.265 2.515.265 2.515-1.07 4.367l-2.04 1.773c-5.09 4.728-9.313 9.939-13.625 15.375l-2.477 2.996c-17.093 20.979-23.335 43.383-21.074 70.32 2.831 26.665 16.57 50.051 37.212 67.052C207.282 411.492 223.725 423 239 423c-1.57 6.596-3.591 12.614-6.48 18.742-17.976 38.539-28.07 84.011-13.145 125.258a239 239 0 0 0 2.625 6l1.336 3.035c8.991 19.25 24.186 33.77 42.785 43.617 8.722 4.755 12.022 11.589 15.879 20.348l1.185 2.62c6.397 14.222 11.946 28.767 17.377 43.38l.932 2.49c3.148 8.431 6.128 16.575 7.506 25.51q-8.21-1.78-16.418-3.57-2.778-.606-5.556-1.208-4.053-.878-8.104-1.765l-2.729-.596a373 373 0 0 1-13.699-3.278l-2.695-.7q-2.505-.66-5.003-1.35C249.588 700.16 244.391 699.24 239 700c-2.062 1.875-2.062 1.875-3 4v2c-12.386-1.784-22.813-6.642-34-12-10.985-5.248-21.641-8.136-33.66-10.043l-3.244-.525q-3.369-.542-6.739-1.076c-3.416-.543-6.829-1.1-10.242-1.659q-3.294-.528-6.588-1.052l-3.053-.502c-16.066-2.506-16.066-2.506-21.786.732-14.493 14.615-16.719 46.126-17.063 65.625l-.113 2.434c-.083 5.664 1.183 8.691 4.406 13.301C105 763 105 763 105.227 765.695l-.602 2.43-.687 2.813c-2.252 7.356-4.724 14.594-8 21.562-7.096 15.667-7.92 29.847-1.907 45.828C100.421 854.09 110.572 872.577 126 881c13.587 4.546 28.642 4.227 42.835 4.352q2.334.023 4.667.065c17.36.282 17.36.282 23.498-4.417 4.812-6.482 5.038-14.218 4-22-4.007-14.448-14.753-25.835-27-34 .57-3.72 1.564-6.32 3.563-9.5l1.62-2.621 3.852-6.102C193 790.852 193 790.852 193 786c3.44.614 6.876 1.243 10.313 1.875l2.958.527 2.842.528 2.619.476C214 790 214 790 217 792c.914 3.482 1.464 6.97 2.059 10.52 1.345 4.973 3.5 7.574 7.862 10.317a177 177 0 0 0 24.185 9.707c2.09.666 4.173 1.348 6.257 2.033a2347 2347 0 0 0 21.077 6.79c3.29 1.048 6.573 2.111 9.857 3.177 2.346.754 4.697 1.487 7.05 2.22q2.176.705 4.352 1.412l1.975.596c5.15 1.714 7.692 4.384 11.326 8.228h2v2c14.41 8.372 29.087 14.63 46 15l3.215.152c16.744.471 33.872-2.874 46.785-14.152l1.727-1.375c30.156-26.439 29.16-83.552 31.613-120.297q.253-3.89.499-7.78.237-3.73.482-7.46c1.93-30.022 1.907-60.014 1.679-90.088a130 130 0 0 1 18.375-5.562l2.881-.656c8.86-1.94 17.714-3.035 26.744-3.782-3.347 12.75-6.713 25.464-10.795 38-2.248 6.967-4.17 14.01-6.026 21.09-1.512 5.705-3.281 11.275-5.175 16.863-2.702 8.2-4.878 16.57-7.145 24.897a1094 1094 0 0 1-1.664 6.035C458.25 741.262 458.25 741.262 460 750c1.168 1.805 1.168 1.805 2.563 3.25C465 756 465 756 464.809 759.898c-2.74 19.128-8.243 37.483-14.61 55.67-11.423 32.68-11.423 32.68-13.199 44.432-.18 1.183-.36 2.367-.547 3.586-.674 5.603-.676 11.215-.703 16.851l-.062 3.276c-.037 7.556.173 15.066 5.687 20.725 5.629 3.35 9.985 3.85 16.406 3.792h2.576q2.698-.006 5.396-.024c2.71-.018 5.42-.02 8.13-.02 28.845-.057 28.845-.057 34.117-5.186a88 88 0 0 0 2-5l1.594.471c2.53.745 5.062 1.48 7.594 2.216.412.123.412.123 2.501.74 3.094.896 6.201 1.735 9.311 2.573l2.176.605c13.299 3.651 25.577 5.126 39.336 4.989q2.811-.003 5.622 0 5.823-.003 11.644-.052c4.95-.04 9.9-.044 14.85-.037 3.851.004 7.702-.009 11.553-.026q2.739-.01 5.477-.009c13.606-.01 25.11-.883 36.342-9.47 3.98-5.032 3.688-10.858 3-17-2.054-10.016-4.485-19.317-13.312-25.187-10.812-5.883-23.308-8.371-35.242-10.938-13.263-2.961-23.57-10.114-34.495-17.861-9.71-6.883-19.576-13.182-29.951-19.014.588-5.863 1.759-11.21 3.469-16.84l.728-2.447q.758-2.535 1.523-5.07c.785-2.595 1.558-5.194 2.33-7.793l1.481-4.94.704-2.36c1.649-5.434 1.649-5.434 2.765-6.55l2.75.188c4.192-.242 5.278-1.248 8.25-4.188a87 87 0 0 0 3.688-8.187q1.154-2.81 2.316-5.618l1.371-3.327c3.072-7.367 6.332-14.655 9.55-21.958q2.329-5.284 4.65-10.57 1.112-2.529 2.23-5.054c1.766-3.996 3.5-7.999 5.167-12.037l.94-2.248a272 272 0 0 0 1.7-4.164c1.189-2.827 1.975-4.569 4.588-6.266L610 680l.297 2.605c1.691 13.372 4.23 25.923 14.078 35.77 6.743 4.174 13.9 5.418 21.625 6.625l.688 2.625c1.524 3.92 2.908 6.882 6.312 9.375 9.95 4 9.95 4 15 4l.445 1.871c1.711 6.46 4.092 12.066 8.555 17.129 2.191 1.25 2.191 1.25 4 2v2c5.156 2.555 9.273 3.426 15.063 3.25l2.064-.016A67 67 0 0 0 710 766c.594.788 1.189 1.575 1.8 2.387 4.384 5.772 8.843 11.435 13.575 16.926a419 419 0 0 1 12.188 14.937l1.554 1.93c3.624 4.744 4.962 8.963 5.883 14.82 1.664 8.025 4.468 13.803 11 19 6.39 3.518 12.877 5.826 20 7.313 4.306 1.054 5.961 2.343 8.375 6.062A668 668 0 0 1 787 854c10.64 12.768 29.967 19.131 45.219 24.578 2.772 1.006 5.443 2.154 8.125 3.379 4.785 2.158 9.668 3.854 14.656 5.48l2.762.903q2.785.905 5.574 1.8c2.456.793 4.904 1.607 7.351 2.423 8.675 2.812 18.702 6.039 27.606 2.535C900 894 900 894 901 892c0-7.954-2.665-13.098-8-19h-2l-.812-1.766c-1.203-2.262-2.526-4.04-4.188-5.984l-1.562-1.86C883 862 883 862 881 862l-.706-1.692c-1.627-2.902-3.64-4.885-6.003-7.228l-1.445-1.44c-1.57-1.565-3.148-3.122-4.725-4.68l-3.28-3.263q-4.312-4.29-8.635-8.57a8987 8987 0 0 1-13.832-13.736 2930 2930 0 0 0-4.841-4.796l-2.953-2.933-2.613-2.588C830 809 830 809 829 807h-2l-.836-1.734c-1.159-2.256-2.444-4.367-3.789-6.516-4.252-7.01-7.777-14.39-11.375-21.75h-2l-.562-1.687c-3.955-6.362-9.774-7.887-16.625-9.5l-4.168-.918c-2.904-.713-5.142-1.31-7.645-2.895-1.063-1.813-1.063-1.813-2-4-1.5-2.75-1.5-2.75-3-5h-2l-.687-1.562c-1.795-3.333-3.813-6.585-6.313-9.438h-2l-3-6h-2l-3-6h-2l-3-6h-2l-3-6h-2l-2-5h-2l-.75-1.687c-1.48-2.737-3.185-4.99-5.25-7.313h-2c-1.328-3.983-1.063-7.764-.992-11.91l.05-5.44q.045-4.271.113-8.543c.043-2.756.066-5.511.087-8.267l.056-2.533c.063-14.614-7.395-26.91-16.126-38.12l-1.456-1.87c-1.192-1.482-2.456-2.906-3.732-4.317h-2l-.812-1.75c-1.217-2.306-2.491-4.27-4.188-6.25h-2l-.812-1.766c-1.203-2.262-2.526-4.04-4.188-5.984l-1.562-1.86C693 604 693 604 691 604l-.723-1.715c-1.552-2.777-3.424-4.624-5.707-6.84l-2.66-2.613-5.547-5.39c-8.198-8.054-11.917-14.235-14.8-25.317q-.914-3.378-1.833-6.754l-.893-3.309C648.195 513.147 648.195 513.147 632 502c-5.723-3.087-10.2-3.329-16.625-3.062-10.21.37-10.21.37-14.375-1.938a180 180 0 0 1-4-4h-2l-.812-1.75c-1.217-2.306-2.491-4.27-4.188-6.25h-2l-.875-1.812C586 481 586 481 584 478h-2l-.88-1.766q-1.505-2.997-3.03-5.984l-2.153-4.25-1.103-2.156-1.057-2.094-.96-1.89c-.849-1.932-1.364-3.803-1.817-5.86 11.704-9.898 24.659-17.559 38-25 4.657 8.7 9.245 17.427 13.617 26.273l.942 1.906.952 1.926c6.03 12.2 12.23 24.21 19.269 35.87a564 564 0 0 1 3.544 5.982C662.882 527.419 662.882 527.419 671 533h2v2c4.47 4 4.47 4 7 4v2a103 103 0 0 0 5.125 4.313l3.035 2.421L691 550a560 560 0 0 1 3.563 3.063C697 555 697 555 699 555v2a115 115 0 0 0 5.875 4.625q1.788 1.342 3.574 2.688l1.81 1.359c3.345 2.552 6.575 5.247 9.815 7.93C722 575 722 575 724 575v2a94 94 0 0 0 5.375 4.125l3.023 2.195C735 585 735 585 737 585v2a94 94 0 0 0 5.375 4.125l3.023 2.195C748 595 748 595 750 595v2l4 1v2c2.03 1.583 4.064 3.05 6.188 4.5 4.985 3.476 9.885 7.025 14.687 10.75l1.643 1.262c2.276 1.753 4.525 3.524 6.72 5.379 4.495 3.71 7.972 4.675 13.7 5.574 2.062.535 2.062.535 3.437 2.66L801 633l1.813 3.25c4.612 9.14 6.768 19.681 9 29.625 1.758 7.741 3.865 15.373 6.062 23l.956 3.421c5.59 19.07 5.59 19.07 13.169 23.704 3 .438 3 .438 6 0 3.151-2.385 4.27-4.193 5-8 .095-2.802.14-5.574.125-8.375l.012-2.25c-.008-4.25-.393-8.18-1.137-12.375a144 144 0 0 1-.375-7.125l-.148-3.633C842 671 842 671 844.16 668.586c3.22-1.798 5.002-2.012 8.653-1.836l2.957.11 2.23.14.825 1.745c1.177 2.258 2.507 4.254 3.968 6.337 3.354 4.983 5.97 10.176 8.52 15.606l1.426 2.996c3.693 7.856 7.031 15.834 10.092 23.957 2.837 7.294 6.44 14.003 13.169 18.359 3.438.563 3.438.563 7 0 2.12-1.829 3.392-3.661 5-6l1.875 2.438C912 735 912 735 914 736c6.47.353 6.47.353 10-2 5.574-16.722-4.049-37.754-9.225-53.602-1.072-3.317-2.098-6.649-3.128-9.98A893 893 0 0 0 908 659l-.984-3.027C900.356 637.485 882.132 622.678 867 611c-18.064-14.596-18.064-14.596-21-19h-2l.25-3c-.105-8.826-6.897-15.681-12.105-22.242C830 564 830 564 829 562h-2l-2-5h-2l-.687-1.562c-1.795-3.333-3.813-6.585-6.313-9.438h-2l-3-6h-2l-.812-1.75c-1.217-2.306-2.491-4.27-4.188-6.25h-2l-.875-1.812C800 528 800 528 798 525h-2l-.687-1.625c-1.769-3.2-3.85-5.665-6.313-8.375h-2l-.656-1.61c-1.842-3.277-4.305-5.898-6.844-8.64l-1.512-1.68c-1.285-1.399-2.632-2.74-3.988-4.07h-2l-.827-1.812c-1.14-2.126-2.238-3.501-3.935-5.193l-1.68-1.69-1.816-1.793-1.884-1.883a1570 1570 0 0 0-3.96-3.936q-2.999-2.976-5.984-5.964c-11.573-11.54-11.573-11.54-17.382-16.342-7.483-6.775-9.865-16.49-12.73-25.798-.833-2.69-1.693-5.37-2.56-8.05-2.69-8.336-5.315-16.684-7.742-25.101-2.546-8.797-5.457-17.46-8.386-26.136q-3.075-9.111-6.127-18.228-1.08-3.22-2.167-6.44C688 330.335 688 330.335 688 324l1.817.87q4.123 1.974 8.245 3.942l2.858 1.37c20.09 9.59 20.09 9.59 29.58 6.755 20.902-8.161 31.076-26.73 39.833-46.188C771 289 771 289 771 287l3.188-.312c3.918-.5 7.761-1.238 11.625-2.063 1.1-.235 2.199-.47 3.332-.71 2.882-.924 4.068-1.528 5.855-3.915 3.668-9.267 1.922-19.563 1.36-29.292-.344-6.383-.472-12.753-.485-19.145l-.014-2.709.006-2.538.004-2.236c.132-2.135.545-4.026 1.129-6.08l3.488.656c8.6 1.538 17.078 2.671 25.824 2.781l2.367.067c5.217-.018 8.195-1.053 12.321-4.504 2-3 2-3 1.938-6.187-3.146-12.793-14.93-20.03-25.375-26.875l-1.754-1.158c-3.238-2.052-5.992-3.316-9.809-3.78-1.792-5.092-3.345-10.202-4.745-15.412-6.309-23.405-15.937-41.83-37.255-54.588-11.666-6.465-24.131-11.495-37-15l-2.101-.591c-7.856-1.899-15.824-1.746-23.857-1.725-2.471.003-4.94-.02-7.411-.045C675.62 91.565 662.965 96.486 649 108l-3 2.188c-19.342 16.563-25.366 44.946-30.64 68.531-.28 1.243-.558 2.485-.844 3.765l-.742 3.367c-.767 3.119-1.716 6.118-2.774 9.149-10.887.913-19.108-1.601-29.062-5.437a2216 2216 0 0 0-6.249-2.324 785 785 0 0 1-5.595-2.116c-4.339-1.575-7.73-2.246-12.344-2.185l-2.703.027L553 183l.14-2.937c.625-18.86-4.495-35.077-16.863-49.723-14.482-14.88-34.032-20.59-53.215-26.84q-3.298-1.09-6.595-2.184a1680 1680 0 0 0-31.97-10.222l-2.766-.862c-9.137-2.784-17.847-4.593-27.418-4.482l-2.63.023C387.517 86.17 368.263 94.216 347 105" id="svg-layer-0" style="pointer-events: all; fill: none;"/><path fill="#002334" d="m413.875 85.625 2.281-.08c18.6-.054 37.401 8.337 54.863 14.115 2.89.953 5.784 1.897 8.678 2.84q4.25 1.39 8.497 2.79 1.995.658 3.993 1.309C506.005 111.112 518.555 115.82 530 125l1.918 1.352c11.113 8.29 17.677 23.879 20.555 37.007.946 6.535.755 13.057.527 19.641l1.827-.112c6.765-.233 12.099.999 18.423 3.3l2.771.957c4.03 1.4 8.03 2.856 11.995 4.433 7.966 3.108 14.461 3.939 22.984 3.422 1.663-5.862 3.197-11.736 4.543-17.68 7.19-31.65 16.486-59.917 45.277-78.101 11.32-6.58 22.056-7.734 34.884-7.665 2.397.008 4.79-.02 7.187-.052 14.03-.065 27.2 2.404 40.234 7.748l2.241.901c21.585 8.893 39.44 21.202 49.634 42.849 3.244 7.825 5.358 16.03 7.309 24.258 1.008 3.999 2.329 7.85 3.691 11.742l2.176.309c8.971 2.196 16.864 9.907 23.824 15.691l2.04 1.559c4.381 3.44 7.357 7.023 8.96 12.441.063 3.75.063 3.75-1 7-6.196 6.037-12.432 5.314-20.578 5.234-8.254-.233-16.324-1.71-24.422-3.234-.807 2.84-1.128 5.366-1.133 8.316l-.006 2.538.014 2.708.006 2.81c.038 6.264.26 12.5.619 18.753l.135 2.386.13 2.298c.91 16.095.91 16.095-2.765 23.191-3.792 2.817-7.47 3.76-12.062 4.688-1.208.25-2.416.502-3.66.761C775 287 775 287 771 287l-1 3.563c-5.836 17.29-17.704 35.37-33.875 44.375-9.152 4.179-16.902 3.495-26.125.062-3.396-1.565-6.666-3.316-9.937-5.125q-2.482-1.35-4.965-2.695l-2.172-1.196C691 325 691 325 688 324c.552 5.611 1.621 10.536 3.477 15.848l.746 2.2a1196 1196 0 0 0 1.582 4.63c1.385 4.029 2.747 8.066 4.11 12.103l.815 2.413c2.507 7.448 4.827 14.947 7.038 22.488 1.282 4.342 2.677 8.6 4.252 12.845 1.823 4.935 3.293 9.899 4.668 14.973 2.422 8.642 5.043 17.212 7.812 25.75l1.077 3.424c3.536 10.744 8.536 18.03 16.923 25.514a674 674 0 0 1 20.061 19.193q1.5 1.492 3.006 2.98a96611999462427.75 96611999462427.75 0 0 0 6.683 6.647C772 497 772 497 772 499l1.64.625c3.281 1.912 5.598 4.58 8.11 7.375l1.535 1.656C787 512.742 787 512.742 787 515l3 1c1.605 1.559 1.605 1.559 3.188 3.438l1.605 1.87C796 523 796 523 796 525h2c4 4.47 4 4.47 4 7l3 1c4 4.457 4 4.457 4 7h2c3 3.462 3 3.462 3 6h2c1.727 1.898 1.727 1.898 3.625 4.375l1.914 2.46C823 555 823 555 823 557h2l2 5h2a131 131 0 0 1 4.875 6.625l1.316 1.871A645 645 0 0 1 839 576l2.258 3.273c2.795 4.375 2.838 7.623 2.742 12.727l3 1 2.313 2.875c2.98 3.613 6.424 6.414 10.125 9.25a338 338 0 0 1 31.125 27.125l1.983 1.93C911.64 653.3 916.207 683.795 923 709l.673 2.397c1.18 4.35 1.597 8.35 1.577 12.853l.016 3.578c-.252 3.008-.592 4.696-2.266 7.172-3.139 1.57-5.539 1.352-9 1-2.875-2.437-2.875-2.437-5-5l-1-1-2.062 3c-2.21 2.613-2.78 2.965-6.313 3.75-5.015-1.038-7.439-2.763-10.625-6.75-4.73-7.721-7.904-16.181-11.25-24.562a251 251 0 0 0-10.562-23.063c-.457-.882-.913-1.765-1.382-2.674-2.226-4.181-4.283-7.466-7.806-10.701v-2a200 200 0 0 0-5.187-.25l-2.918-.14c-3.804.513-5.341 1.536-7.895 4.39-.523 3.242-.523 3.242-.375 6.875l.102 3.617c.273 3.508.273 3.508.78 6.426.617 3.86.715 7.616.743 11.52l.063 2.197c.037 5.183-.87 8.771-3.313 13.365-2.853 1.427-4.835 1.31-8 1-9.913-6.57-12.503-21.098-15.505-32a854 854 0 0 0-1.882-6.7c-2.29-8.124-4.391-16.272-6.214-24.516-1.835-8.141-4.306-16.097-9.399-22.784v-2l-1.871-.191-2.567-.371-2.496-.317c-4.741-1.734-8.184-4.953-12.066-8.121a947 947 0 0 0-5.297-4.078l-2.715-2.078-2.738-2.094-2.785-2.14-2.7-2.063-2.412-1.849C759 603 759 603 756.203 601.403L754 600v-2l-4-1v-2l-1.703-.812c-2.453-1.268-4.736-2.678-7.047-4.188l-2.422-1.562L737 587v-2l-1.703-.812c-2.453-1.268-4.736-2.678-7.047-4.188l-2.422-1.562L724 577v-2l-1.574-.668c-3.378-1.855-6.243-4.232-9.239-6.644q-1.788-1.434-3.582-2.864l-1.78-1.42c-1.882-1.448-3.816-2.791-5.774-4.134L699 557v-2l-1.586-.652c-3.382-1.888-6.127-4.373-9.039-6.91-6.135-5.318-6.135-5.318-8.375-6.438v-2l-1.812-.875C676 537 676 537 673 535v-2l-2.062-.5c-7.926-4.047-12.254-12.903-16.621-20.296a597 597 0 0 0-4.633-7.583C639.964 488.798 631.329 472.582 623 456l-1.92-3.815A4338 4338 0 0 1 610 430c-3.28 0-4.286.523-7.062 2.125l-2.4 1.38L598 435l-2.59 1.514C586.713 441.66 578.646 447.386 571 454c2.21 6.837 4.847 12.85 8.73 18.906C581 475 581 475 582 478h2c4 4.47 4 4.47 4 7h2c5 5.476 5 5.476 5 8l1.813.813C599 495 599 495 600.363 496.53c2.068 1.856 3.263 1.951 6.012 2.156l2.68.215c3.164.105 6.282-.029 9.445-.152 7.866-.018 13.005 2.152 18.871 7.352 12.965 13.424 17.7 31.197 22.254 48.773l.635 2.425c.882 3.374 1.75 6.746 2.553 10.141 2.394 8.83 7.815 14.337 14.187 20.559q2.89 2.859 5.772 5.727a458 458 0 0 0 3.808 3.73c1.51 1.478 2.97 3.006 4.42 4.543v2l1.797.781c2.38 1.317 3.713 2.645 5.453 4.719l1.578 1.844C701 613 701 613 701 615l3 1c4 4.457 4 4.457 4 7h2c2.309 2.387 4.245 5.106 6.25 7.75l1.78 2.344c8.485 11.39 13.358 22.2 13.13 36.55l-.016 2.702c-.017 2.823-.048 5.644-.082 8.466q-.042 4.26-.07 8.52-.019 2.641-.054 5.282c-.028 3.39-.018 6.147 1.062 9.386l1.813.875c2.91 1.497 4.327 3.468 6.187 6.125v2h2l2 5h2c3 3.462 3 3.462 3 6h2c3 3.462 3 3.462 3 6h2c3 3.462 3 3.462 3 6h2c3 3.462 3 3.462 3 6h2c1.727 1.898 1.727 1.898 3.625 4.375l1.914 2.46C773 751 773 751 773 753h2c1.29 1.46 1.29 1.46 2.625 3.375l1.352 1.898C780 760 780 760 780 762c3.081 1.81 6.161 2.55 9.636 3.293 7.026 1.519 13.42 3.073 18.364 8.707l1 3h2l1.504 3.113c3.68 7.533 7.46 14.777 12.148 21.75C826 804 826 804 827 807h2c1.356 1.379 1.356 1.379 2.967 3.34 4.126 4.848 8.58 9.307 13.107 13.779q2.229 2.203 4.45 4.414 6.31 6.273 12.634 12.53 3.889 3.85 7.766 7.71 1.476 1.467 2.956 2.926 2.055 2.03 4.1 4.07l2.359 2.336C881 860 881 860 881 862l1.797.781c2.38 1.317 3.713 2.645 5.453 4.719l1.578 1.844C891 871 891 871 891 873h2c4.646 5.14 7.705 10.137 8.223 17.09C901 892 901 892 899 895c-17.584 5.861-39.796-5.585-55.933-12.172-2.71-1.086-5.448-2.092-8.19-3.095-43.237-15.834-43.237-15.834-51.553-31.561-1.768-2.9-3.552-3.974-6.82-4.813l-2.942-.609c-9.357-2.277-18.15-5.798-24.234-13.55-2.668-4.419-3.972-9.276-4.594-14.38-1.131-8.129-6.653-13.729-11.734-19.82l-2.238-2.75q-2.152-2.643-4.32-5.273a1250 1250 0 0 1-8.88-10.977l-1.577-1.962-1.481-1.85-1.318-1.645c-1.127-1.467-2.16-3.004-3.186-4.543l-2.504.484c-3.826.565-7.575.737-11.433.766l-2.053.063c-5.138.039-8.503-1.08-13.01-3.313v-2l-1.809-.75c-5.576-3.18-8.294-9.908-10.066-15.812-.39-1.476-.772-2.954-1.125-4.438l-1.977-.332c-6.337-1.15-11.63-2.208-16.273-6.98-1.847-2.837-2.74-5.474-3.75-8.688l-2.965-.445c-10.151-1.672-17.946-3.982-24.347-12.617-5.86-9.708-7.426-20.862-8.688-31.938-4.884 2.026-5.982 5.602-7.937 10.25l-1.15 2.64a1111 1111 0 0 0-2.527 5.868 1912 1912 0 0 1-4.476 10.363 9302 9302 0 0 0-6.613 15.262 5895 5895 0 0 1-9.422 21.68l-1.36 3.133-1.273 2.902-1.098 2.516c-1.951 4.07-3.334 6.846-7.144 9.386-3.188.125-3.188.125-6 0-2.72 6.877-4.89 13.904-7.017 20.981a1263 1263 0 0 1-1.842 6.042c-1.913 6.307-3.653 12.384-4.141 18.977l1.566.911c9.327 5.45 18.53 10.972 27.309 17.277l2.1 1.502 4.073 2.917c11.237 8.019 21.4 12.679 34.905 15.748 30.618 7.006 30.618 7.006 37.117 17.348 4.94 9.002 7.99 20.167 5.414 30.332-2.658 5.93-8.75 8.59-14.484 10.965-5.576 1.607-10.557 2.308-16.343 2.338l-2.404.035c-2.609.034-5.218.053-7.827.068l-2.743.021q-7.218.054-14.437.073-5.877.02-11.755.103c-23.606.324-44.844-.446-67.491-7.638q-3.642-1.118-7.284-2.232L510 898l-.855 2.36c-1.228 2.83-2.444 4.288-5.104 5.869-9.485 3.585-22.627 2.021-32.672 2.066q-2.695.018-5.39.062c-2.635.042-5.27.059-7.905.069l-2.402.053c-5.627-.022-9.999-1.268-14.672-4.479-8.192-9.873-5.733-26.55-4.798-38.606 1.885-17.034 7.967-33.212 13.798-49.207 4.453-12.242 8.062-24.5 11-37.187l.649-2.75a704 704 0 0 0 1.788-7.875l.535-2.352c.836-3.962 1.452-7.177.028-11.023l-2.023-2.48c-3.26-4.155-2.793-8.172-2.295-13.289 1.96-13.76 6.525-27.284 10.643-40.52 2.169-6.974 4.174-13.982 6.113-21.024A783 783 0 0 1 484 652.063c4.04-12.922 7.579-25.963 11-39.062-10.84.812-21.28 2.549-31.875 5l-3.439.792c-4.51 1.073-8.562 2.071-12.686 4.208l.02 1.673c.415 36.22-.55 72.19-3.02 108.327l-.19 2.791c-6.172 89.519-6.172 89.519-33.17 115.139-8.387 6.576-18.247 10.11-28.64 12.07l-3.375.688C355.169 865.71 335.209 860.45 315 849v-2l-1.625-.687C311 845 311 845 308.274 842.573c-3.123-2.629-6.107-3.838-10.032-5.046l-1.966-.62q-2.1-.658-4.205-1.3a688 688 0 0 1-6.696-2.086q-4.737-1.496-9.478-2.98a1653 1653 0 0 1-21.995-7.087c-2.283-.748-4.57-1.483-6.858-2.218-22.797-7.43-22.797-7.43-27.044-15.236-.873-3.596-1.38-7.158-1.898-10.82C217 792 217 792 214.484 790.176c-4.259-1.438-8.42-2.216-12.859-2.864l-2.52-.392A857 857 0 0 0 193 786l-1 3.625c-3.168 9.52-9.074 18.325-14.773 26.508-3.279 4.99-3.279 4.99-3.106 7.914 1.167 2.594 2.626 3.566 4.941 5.203 10.335 7.747 18.45 17.002 21.938 29.75.842 7.801.815 15.506-4 22-7.33 5.612-17.097 4.532-25.812 4.375l-4.723-.046c-8.38-.104-16.744-.348-25.09-1.141l-2.25-.212c-12.228-1.429-20.292-6.178-28-15.726-11.29-14.969-22.59-34.336-21.648-53.68 1.479-10.09 4.822-19.454 9.25-28.605 1.67-3.89 2.929-7.851 4.148-11.903l.69-2.226c1.075-3.693 1.692-6.19.435-9.836l-2.035-3.21c-2.431-4.145-2.54-7.692-2.403-12.415l.04-2.478c.426-14.955 3.038-29.606 7.398-43.897l.934-3.305c2.304-7.668 5.248-14.15 12.066-18.695 7.104-.856 14.347.45 21.352 1.574l3.205.502q3.34.528 6.68 1.067c3.356.54 6.713 1.057 10.072 1.574 16.107 2.535 30.818 5.876 45.441 13.346 9.433 4.646 18.642 8.973 29.25 9.937l.938-1.875L239 700c6.883-.257 12.756.614 19.414 2.3a1930.476 1930.476 0 0 1 12.21 3.012q6.082 1.5 12.165 2.989l2.941.722A428 428 0 0 0 309 714c-1.516-9.907-5.063-18.971-8.562-28.312l-.954-2.565C292.605 664.63 285.268 646.445 276 629l-1.191-2.605c-2.761-3.656-6.433-5.467-10.372-7.707-6.939-4.102-13.43-8.271-19.437-13.688l-2.504-2.223C235.603 596.305 230.69 589.131 226 581l-1.719-2.965c-8.805-16.375-11.65-34.572-11.597-52.96.003-2.242-.02-4.483-.045-6.725-.067-15.362 2.731-29.697 7.361-44.35l1.121-3.605a277 277 0 0 1 7.441-20.332l.851-2.078a138 138 0 0 1 4.692-10.114c1.639-3.224 2.765-6.35 3.645-9.871l.734-2.875L239 423l-1.766-.262c-23.182-3.973-46.013-20.506-59.96-39.308C160.641 359.909 155.19 333.52 159 305c3.181-16.195 12.527-30.556 23-43l1.531-1.834c9.319-11.132 9.319-11.132 13.332-14.74C199 243 199 243 199.243 240.386a787 787 0 0 0-.75-5.374c1.211-7.188 9.648-13.274 14.718-18.25l4.02-3.983a4527 4527 0 0 1 6.26-6.175q3.053-3.009 6.095-6.03l1.906-1.865 1.752-1.741c.254-.252.254-.252 1.544-1.522C236 194 236 194 237 191a91 91 0 0 1 4.938-4.125c3.733-2.971 7.326-5.993 10.812-9.25 4.166-3.78 8.506-7.25 13-10.625l1.897-1.458c3.707-2.733 6.594-4.427 11.353-4.542 3.375 1.938 3.375 1.938 6 4l.25-3.812c1.422-11.939 6.374-20.374 15.767-27.778C323.443 116.512 349.29 100.987 376 92l3.145-1.11c11.389-3.8 22.793-5.039 34.73-5.265M310 153c-5.343 6.685-4.835 14.818-4 23 1.415 6.713 6.034 10.227 11.531 13.945 12.124 7.418 25.727 12.506 38.806 17.942 7.744 3.235 15.334 6.703 22.79 10.56 5.154 2.57 5.154 2.57 8.62 2.487 2.59-1.073 4.357-2.311 6.503-4.121l2.633-2.184 1.481-1.25c3.237-2.73 6.499-5.43 9.761-8.129l2.21-1.83c5.443-4.482 11.02-8.743 16.69-12.933 6.958-5.164 13.66-10.631 20.337-16.153a150 150 0 0 1 4.333-3.37c2.625-2.237 4.484-4.6 6.493-7.401l2.042-2.81c4.325-6.73 5.558-14.332 4.407-22.253-2.633-9.302-9.499-15.044-17.524-19.895C405.438 97.115 342.41 124.51 310 153m344 42c-4.14 7.858-6.433 16.608-4.457 25.422 2.49 7.527 7.348 11.751 13.457 16.578-9.405 3.847-9.405 3.847-14 3-3.219-1.743-6.092-3.94-8.95-6.216-3.533-2.81-6.502-4.916-11.05-5.784-2.875.875-2.875.875-5 2 .23.877.461 1.753.7 2.656 7.165 27.872 10.579 54.621 11.3 83.344 3.78-1.173 7.113-2.466 10.504-4.504l2.476-1.483 2.582-1.575 2.675-1.613a243 243 0 0 0 18.134-12.18c4.314-2.699 4.314-2.699 7.629-2.645 2.808 1.331 5.277 3.088 7.813 4.875q2.257 1.53 4.523 3.047l2.327 1.56c3.666 2.381 7.452 4.525 11.274 6.643l2.06 1.144c5.339 2.946 8.836 4.326 15.003 3.731 12.022-3.65 17.923-13.744 24-24l1.749-2.94a2046 2046 0 0 0 9.407-16.01l1.588-2.728C761 265 761 265 762 262l12-2q.37-10.513.55-21.033.075-3.577.204-7.152c.122-3.431.178-6.859.223-10.292l.156-3.22c.002-3.07-.106-5.406-1.133-8.303-3.015-2.78-6.272-4.358-10-6a509 509 0 0 1-4.844-2.555 966 966 0 0 0-4.656-2.32l-2.414-1.219-2.305-1.148-2.06-1.027C746 195 746 195 744 195v-2a92 92 0 0 0-5.5-3.625l-3.094-1.914L733 186c-3.569 2.986-7.018 5.963-10.25 9.313-4.57 4.642-9.628 8.673-14.75 12.687l-1.863 1.46c-3.11 2.267-5.295 2.992-9.137 2.54-2.118-5.555-2.633-10.857-3.123-16.723-.464-4.676-1.367-8.19-3.877-12.277-4.768-3.545-9.718-4.5-15.574-4.395-8.6 1.4-15.545 9.734-20.426 16.395m-375.437-6.187-1.876 1.495c-5.118 4.127-9.982 8.488-14.773 12.989a200 200 0 0 1-6.394 5.672c-5.785 5.04-11.17 10.495-16.592 15.918a1738 1738 0 0 1-5.574 5.535C226.432 237.31 220.063 244.337 214 252a268 268 0 0 1-2.934 3.39c-19.88 22.703-32.402 47.497-31.24 78.233.384 5.24 1.952 9.661 4.174 14.377l1.438 3.191c4.25 8.655 9.786 15.1 16.562 21.809l2.215 2.281c7.298 7.067 17.974 13.735 28.426 13.957 6.169-.623 10.421-2.19 14.754-6.77a178 178 0 0 0 6.226-8.483 333 333 0 0 1 4.441-6.208 2312 2312 0 0 0 13.165-18.297c13.612-19.022 28.05-37.457 43.336-55.168.469-.544.938-1.09 1.422-1.65 7.994-9.182 16.29-18.036 24.968-26.572l2.055-2.024c2.796-2.75 5.595-5.499 8.407-8.234a1241 1241 0 0 0 6.226-6.117l1.94-1.869 1.764-1.752 1.559-1.524C364 243 364 243 364 239l-3.36-1.648c-5.04-2.52-9.959-5.25-14.89-7.977-6.538-3.605-13.103-7.082-19.826-10.33-16.96-8.202-29.429-17.83-37.924-35.045-4.195 0-6.312 2.285-9.437 4.813M565 217c1.527 3.383 3.537 6.077 5.813 9 11.917 16.3 13.418 36.06 13.437 55.625l.003 2.226c-.01 11.624-.791 22.841-2.77 34.312-.758 4.448-1.438 8.907-2.125 13.367q-.534 3.455-1.087 6.907l-.501 3.16-.45 2.798c-.315 2.564-.377 5.024-.32 7.605 4.558-3.513 7.8-7.004 10.938-11.812l1.295-1.975c16.415-25.777 19.795-57.558 13.259-87.148-2.316-9.727-5.362-16.945-12.601-24.077C588 225 588 225 587 222c-1.82-.844-1.82-.844-4.125-1.5-3.02-.909-5.88-1.881-8.75-3.187-3.753-1.577-5.281-1.594-9.125-.313m-143 27-2.883 2.117C412.234 251.205 405.57 256.515 399 262l-1.526 1.266c-8.951 7.446-17.346 15.317-25.536 23.59a1640 1640 0 0 1-5.698 5.718C360.283 298.55 354.455 304.557 349 311a1303 1303 0 0 1-4.437 4.875c-33.786 37.546-33.786 37.546-33.5 47.25 1.529 3.058 3.928 4.518 7.11 5.643 2.627.61 5.255 1.216 7.89 1.795l2.642.63c15.573 3.506 31.452 4.183 47.358 4.12l2.527-.001c14.646-.02 28.923-1.055 43.41-3.312l-.656-3.8c-1.986-12.553-2.654-24.892-2.656-37.575l-.01-2.297c-.021-8.01.138-15.557 2.322-23.328l1-4h12c1.946 9.562 2.964 19.166 4.001 28.858 1.635 15.19 3.478 30.28 6.046 45.344a798 798 0 0 1 3.531 22.825l.406 2.891q.992 7.098 1.961 14.2.36 2.6.723 5.198l.318 2.392c.603 4.297 1.488 8.203 3.014 12.292l3.48.297c18.195 1.69 33.229 6.01 46.55 19.008 2.337 2.277 3.824 3.646 6.97 4.695 2.433-.59 2.433-.59 5.297-1.582l3.156-1.076 3.297-1.154q3.21-1.106 6.422-2.208c.95-.33 1.9-.662 2.878-1.003 3.295-1.091 6.607-2.043 9.95-2.977l.15-2.165c2.449-35.288 5.217-70.365 10.48-105.367.62-4.139 1.223-8.28 1.827-12.421.652-4.46 1.305-8.919 1.982-13.375 3.668-24.276 5.956-51.684-9.439-72.672-2.844-3.487-5.718-6.915-9-10h-2v-2c-2.379-1.621-2.379-1.621-5.562-3.437l-3.13-1.81C492.969 207.55 451.012 222.029 422 244M279 397l-.29 1.7c-.88 2.85-2.302 4.724-4.085 7.113-2.835 3.947-4.841 7.647-6.625 12.187a447 447 0 0 1-6.121 12.148c-1.232 2.595-1.433 4.013-.879 6.852 4.034 3.857 7.985 6.227 13.25 8.125l2.11.762c29.113 10.01 63.12 6.38 91.64-3.887q2.072-.675 4.148-1.336C386.317 436.056 402.092 429.462 413 419c.708-1.65 1.38-3.315 2-5l-1.93.02c-60.497.603-60.497.603-83.07-3.02l-2.64-.39c-15.607-2.361-30.452-7.573-45.36-12.61zm176.438 67.438C447.082 474.46 445.395 486.383 446 499c.912 9.151 5.166 17.768 11.938 24 5.847 4.61 11.197 6.629 18.644 6.336 6.061-.842 9.342-3.956 13.106-8.461C497.65 510.03 498.923 498.068 498 485c-1.644-9.902-6.455-17.068-13.937-23.555-9.244-6.477-21-4.845-28.625 2.993m-99.946 9.097c-16.895 2.797-33.332 5.046-50.492 4.965l-2.268-.006c-15.55-.093-30.529-2.267-45.732-5.494q-2.969-.599-5.937-1.187L247 471l-1 3-1.75 3.563c-2.08 4.655-3.543 9.417-4.937 14.312-.215.73-.43 1.46-.65 2.213C231.78 519.006 234.62 547.37 247 570c12.13 19.165 27.645 29.612 49.436 34.552 30.022 5.993 60.692 2.155 90.564-2.552l3.591-.565q7.375-1.18 14.733-2.466c5.263-.914 10.539-1.725 15.822-2.514q3.372-.51 6.737-1.06c4.63-.757 9.151-1.462 13.844-1.61 4.179-.3 6.712-.56 10.273-2.785 3.358-5.202 4.678-11.364 6.223-17.29 1.221-4.26 2.95-8.275 4.714-12.335C466 554.247 466 554.247 466 552l-3.402-1.723c-19.58-10.043-32.631-21.57-39.85-43.069-2.386-7.588-2.992-15.25-3.56-23.146q-.18-2.21-.366-4.42c-.293-3.546-.564-7.093-.822-10.642-21.042-.558-41.756 1.08-62.508 4.535m185.242-1.742-2.449 1.162-2.535 1.233-2.488 1.173q-2.46 1.18-4.886 2.425a84 84 0 0 1-4.76 2.248c-2.301 1.132-3.898 2.056-5.616 3.966-.887 3.672-.557 7.135-.25 10.875.645 16.361-3.697 28.11-11.75 42.125-4.041 7.13-4.041 7.13-3.883 10.457 1.166 3.358 2.747 4.466 5.57 6.606l3.024 2.355 1.624 1.26c2.904 2.307 5.68 4.761 8.477 7.197 5.74 4.959 11.629 9.687 17.618 14.34 3.743 2.91 7.438 5.877 11.133 8.847 6.2 4.976 12.469 9.851 18.787 14.676 2.993 2.289 5.977 4.589 8.962 6.887L583 614c3.026-1.342 4.986-2.786 7.207-5.23.587-.64 1.174-1.278 1.78-1.936l1.826-2.021a2673 2673 0 0 1 5.389-5.893 185 185 0 0 1 5.31-5.408c2.42-2.391 4.69-4.853 6.906-7.434 4.4-5.1 9.23-9.742 14.06-14.43l2.073-2.039 1.864-1.813c1.62-1.836 2.599-3.566 3.585-5.796-4.567-5.458-9.448-10.497-14.5-15.5-4.517-4.473-8.926-8.953-13.031-13.812-2.087-2.398-4.36-4.59-6.627-6.815-1.778-1.808-3.44-3.67-5.092-5.592-3.647-4.194-7.428-8.246-11.25-12.281-6.553-6.918-12.838-14.033-19.027-21.277a1434 1434 0 0 0-3.04-3.544c-2.235-2.599-4.453-5.203-6.62-7.859L552 473.125l-1.5-1.867c-3.176-2.663-6.484-1.03-9.766.535m92.883 125.43a1122 1122 0 0 0-5.742 5.84 2584 2584 0 0 1-5.758 5.847l-2.688 2.731a62 62 0 0 1-6.109 5.23C611 619 611 619 610.23 621.445c1.176 3.903 4.038 5.926 7.082 8.43 7.209 5.951 9.778 11.688 11.188 21l.37 2.295c1.231 7.93 2.128 15.905 2.952 23.886 1.95 17.717 1.95 17.717 6.178 21.944 2.58.145 5.05.187 7.625.125l2.14-.027c1.746-.024 3.49-.06 5.235-.098l.805 2.555 1.07 3.32 1.055 3.305C657 711 657 711 659 713c2.898.773 2.898.773 6.375 1.375l3.46.648C672 715 672 715 674.368 713.336c1.791-2.562 2.201-3.998 2.383-7.086l.172-2.422L677 702c6.75-.125 6.75-.125 9 1 .173 15.812.173 15.812-.5 20.313-1.9 14.01-1.9 14.01 1.5 18.687 3.954 1.421 7.86 1.38 11.813.063 5.456-5.145 7.018-12.434 8.375-19.563l.498-2.434C712.68 695.11 712.444 669.235 699 647c-6.373-9.29-13.934-17.668-21.356-26.123-2.65-3.026-5.275-6.074-7.894-9.127l-1.5-1.748c-3.805-4.45-7.513-8.972-11.207-13.514-6.11-7.442-6.11-7.442-9.043-10.488-4.813 0-11.307 8.164-14.383 11.223M513 656c-6.606 15.75-12.848 31.63-18.912 47.596q-1.146 3.015-2.298 6.03-1.64 4.297-3.263 8.6l-.99 2.583C485.534 726.156 484.122 731.4 483 737c5.938 2.838 11.527 4.858 18 6.063l2.555.49c7.115 1.313 14.266 2.306 21.445 3.197l3.07.387c7.001.813 13.885 1.004 20.93.863 4.56-10.444 9.062-20.876 12.965-31.586 1.72-4.687 3.678-9.202 5.86-13.691 1.65-3.823 2.903-7.76 4.175-11.723a9279 9279 0 0 0-13.121-9.477 1269 1269 0 0 1-8.664-6.296c-5.886-4.3-11.862-8.373-18.09-12.164l-1.802-1.109C524.807 658.67 519.498 656 513 656m213 79a471 471 0 0 0-1.437 4.5l-.81 2.531L723 745l-.492 1.905c-.835 4.155-.805 5.607 1.484 9.368a100 100 0 0 0 2.883 3.102l1.524 1.68a271 271 0 0 0 3.11 3.36c2.125 2.259 4.178 4.581 6.241 6.898l2.191 2.402c1.966 2.182 3.856 4.414 5.746 6.66 2.813 3.195 5.437 5.728 9.313 7.625 3.268.136 5.064-.287 7.676-2.277 5.178-4.857 5.178-4.857 5.324-8.723-3.155-5.523-7.454-9.745-11.941-14.207l-2.316-2.321q-2.413-2.415-4.834-4.823a2200 2200 0 0 1-7.4-7.413q-2.35-2.348-4.7-4.693l-2.235-2.247-2.084-2.065-1.827-1.822C729 736 729 736 726 735m48.727 60.969c-4.538 4.978-6.696 9.458-7.102 16.218C768 816 768 816 769.668 817.72c4.452 2.446 9.398 1.61 14.332 1.281l2.645-.176c3.404-.468 5.57-.834 7.761-3.597 3.205-6.157 4.297-12.329 3.594-19.227-1.46-3.198-3.229-5.806-6-8-6.243 0-12.64 3.957-17.273 7.969" id="svg-layer-1" style="pointer-events: all;"/><path fill="none" d="M536 231v2l1.762.766c9.64 5.317 15.014 17.455 18.304 27.484A111 111 0 0 1 558 270l.395 2.184c1.873 13.211.428 26.577-1.366 39.697-.34 2.484-.665 4.969-.988 7.455-1.043 7.934-2.206 15.835-3.557 23.723-1.567 9.18-2.811 18.383-3.922 27.628l-.316 2.61c-3.015 25.149-4.592 50.435-6.246 75.703l-3.212.988c-12.847 3.972-12.847 3.972-17.456 5.7l-3.52 1.312-3.605 1.375c-3.207.625-3.207.625-5.863-.488-2.373-1.91-4.507-3.917-6.656-6.074C488.225 439.568 471.754 436.07 454 435c-1.819-4.875-2.65-9.56-3.332-14.684l-.354-2.54q-.375-2.7-.743-5.4c-.654-4.793-1.324-9.585-1.997-14.376l-.406-2.898c-1.09-7.705-2.355-15.37-3.668-23.04-2.813-16.634-4.636-33.395-6.533-50.154l-.375-3.293a2292 2292 0 0 1-.692-6.178l-.315-2.793-.27-2.435C435 305 435 305 434 301h-12c-2.751 10.146-3.48 19.43-3.375 29.875l.008 2.3c.054 13.113 1.134 25.891 3.367 38.825-15.347 2.39-30.428 3.31-45.937 3.313l-2.442.01c-15.994.038-31.886-1.033-47.496-4.698l-2.793-.594c-5.035-1.151-8.541-2.304-12.332-6.031.555-3.897 1.611-6.279 3.938-9.437l1.91-2.625L319 349a950 950 0 0 0 2.371-3.375c5.242-7.477 10.725-14.65 16.629-21.625l1.318-1.576c11.342-13.552 23.482-26.304 35.926-38.843q1.479-1.491 2.953-2.987c6.596-6.681 13.469-12.741 20.803-18.594q1.774-1.49 3.531-3.004C438.871 227.676 490.91 200.94 536 231" id="svg-layer-2" style="pointer-events: all; fill: none;"/><path fill="none" d="m407.875 468.875 3.023.027A846 846 0 0 1 418 469l.196 2.7c.255 3.384.528 6.766.811 10.148q.178 2.173.334 4.349c1.47 20.255 8.096 38.863 23.659 52.803 7.2 5.137 15.005 9.246 23 13q-.614 2.222-1.25 4.438l-.703 2.496c-.87 2.547-1.856 4.84-2.996 7.27-1.497 3.277-2.515 6.395-3.305 9.91-1.254 5.282-2.633 10.37-5.746 14.886-5.089 2.962-9.927 3.287-15.731 3.715-3.748.327-7.453.85-11.171 1.41l-4.316.647-2.22.334c-3.79.559-7.584 1.075-11.378 1.597-8.102 1.123-16.18 2.37-24.256 3.658-4.562.725-9.127 1.428-13.691 2.134q-2.87.446-5.736.916c-29.603 4.853-70.485 5.5-95.99-12.388C254.58 582.605 245.342 569.786 240 554l-1.187-3.39c-3.819-12.675-3.382-25.488-2.813-38.61l.101-2.393c.633-11.66 3.937-24.022 8.899-34.607l2-1v-3c4.993.991 9.983 1.992 14.965 3.035l2.486.514q2.482.513 4.961 1.039c29.528 6.044 59.986 2.389 89.367-2.395 16.267-2.64 32.587-4.621 49.096-4.318" id="svg-layer-3" style="pointer-events: all; fill: none;"/><path fill="#6C808F" d="m288 184 .96 2.02c9.68 19.118 25.615 27.475 44.052 36.519a363 363 0 0 1 21.746 11.621c3.036 1.723 6.106 3.31 9.242 4.84-.515 4.117-1.545 6.037-4.49 8.929l-2.237 2.226c-.805.78-1.609 1.56-2.437 2.365l-2.501 2.477a1993 1993 0 0 1-7.96 7.815 5337 5337 0 0 0-7.895 7.784 1465 1465 0 0 1-4.919 4.832A222 222 0 0 0 318 290q-1.424 1.642-2.852 3.281A714 714 0 0 0 281 336l-3.512 4.738c-4.85 6.554-9.694 13.11-14.413 19.76q-1.784 2.508-3.583 5.006a426 426 0 0 0-5.422 7.773c-9.442 13.533-9.442 13.533-16.656 15.434-10.44 1.25-19.796-2.705-28.082-8.973-3.67-3.03-7.008-6.336-10.332-9.738l-2.242-2.18c-11.73-12.094-17.276-27.406-17.18-44.009 1.18-41.646 35.201-74.825 62.92-102.44q2.551-2.545 5.094-5.1c5.633-5.636 11.306-11.137 17.408-16.271q1.69-1.456 3.379-2.914C283.699 184 283.699 184 288 184" id="svg-layer-4" style="pointer-events: all;"/><path fill="none" d="M683 180c3.958 1.32 6.49 2.623 9 6 1.972 5.634 2.259 11.563 2.715 17.469.341 3.028 1.142 5.71 2.285 8.531 10.56 0 18.132-9.908 25.358-16.698 3.446-3.238 6.983-6.306 10.642-9.302a769 769 0 0 1 5.5 3.375l3.094 1.898L744 193v2l2.355.695c4.829 1.729 9.36 3.919 13.957 6.18l2.784 1.316 2.642 1.301c.795.385 1.59.77 2.408 1.168C770 207 770 207 770.766 209.157L771 211h-2l-1 2 4 1-.625 1.938c-.375 3.062-.375 3.062.594 6.75 1.644 7.02 1.243 14.212 1.156 21.375q-.016 2.178-.027 4.357-.035 5.29-.098 10.58c-6.71 1.96-6.71 1.96-9.312 2.313L762 262a306 306 0 0 0-2 5c-2.09 3.824-4.322 7.563-6.547 11.309-1.06 1.786-2.11 3.578-3.16 5.37-14.79 25.079-14.79 25.079-27.293 29.321-3.437.188-3.437.188-6 0v-2l-2.516-.738c-4.012-1.453-7.539-3.338-11.234-5.45l-2.128-1.2a124 124 0 0 1-14.009-9.3c-3.133-1.946-5.752-2.37-9.41-2.214-4.133 1.38-7.402 3.855-10.953 6.34-6.267 4.28-12.587 8.394-19.125 12.25l-2.142 1.277c-3.137 1.832-5.935 3.272-9.483 4.035l-.044-2.297c-.525-24.587-3.028-47.797-8.956-71.703l-.988-4.043A720 720 0 0 0 624 230c2.644-1.265 4.124-1.908 7-2 4.462 1.837 8.422 4.542 11.96 7.813 3.25 2.96 4.897 4.21 9.427 4.117 3.257-.5 6.419-1.122 9.613-1.93v-2a110 110 0 0 0-4.25-3.5c-6.013-5.227-8.226-10.501-9.25-18.312.33-6.418 2.638-13.464 5.5-19.188l3-1 2-2h3l.75-2.937L664 186c1.938-.812 1.938-.812 4-1l3-1c2.28-.223 4.558-.379 6.844-.523 2.564-.567 3.498-1.49 5.156-3.477" id="svg-layer-5" style="pointer-events: all; fill: none;"/><path fill="#6C808F" d="M454.004 123.246c5.997 5.177 10.094 9.895 10.808 18.067.596 9.57-1.783 16.229-7.812 23.687-9.532 9.857-19.983 18.183-30.903 26.413-7.83 5.926-15.5 12.028-22.972 18.4l-3.215 2.722q-2.656 2.249-5.289 4.524l-2.058 1.691-1.684 1.422c-2.967 1.308-4.766.672-7.879-.172-3.007-1.26-5.901-2.723-8.812-4.187-10.936-5.373-22.114-10.086-33.375-14.726-29.46-12.223-29.46-12.223-34.118-22.517-1.874-6.93-2.077-15.455.805-22.132 4.658-7.166 13.244-11.232 20.5-15.313l2.796-1.581c35.577-19.965 85.548-44.457 123.208-16.298" id="svg-layer-6" style="pointer-events: all;"/><path fill="none" d="M550 471c2.36 2.117 2.36 2.117 4.75 4.875l1.318 1.501c2.79 3.204 5.46 6.499 8.12 9.812 4.502 5.586 9.376 10.783 14.32 15.979 3.684 3.874 7.251 7.82 10.755 11.857 2.858 3.25 5.828 6.392 8.8 9.539l5.967 6.338q2.827 3.016 5.634 6.048c6.094 6.576 12.224 13.074 18.694 19.284 2.321 2.263 3.598 3.636 4.642 6.767-5.315 6.122-10.866 11.923-16.625 17.625-4.41 4.367-8.702 8.741-12.707 13.488-2.912 3.294-6.096 6.322-9.223 9.41-3.312 3.355-6.406 6.874-9.445 10.477-2.677-1.27-5.033-2.651-7.398-4.434l-1.932-1.45-2.045-1.553-2.135-1.613c-6.9-5.227-13.714-10.563-20.49-15.95l-2.531-2.008A1592 1592 0 0 1 541 581l-1.773-1.43c-7.663-6.182-15.288-12.399-22.758-18.814-3.81-3.255-7.75-6.259-11.86-9.123-2.166-2.198-2.482-3.562-2.609-6.633.969-2.621.969-2.621 2.5-5.437l1.676-3.184c.3-.558.3-.558 1.824-3.379 7.541-14.114 10.502-25.084 9.802-41.168l-.087-2.93-.121-2.64C518 484 518 484 519.69 482.364c4.457-2.633 9.09-4.86 13.747-7.115l3.143-1.574 3.041-1.473 2.764-1.354c3.041-.987 4.603-.852 7.615.151" id="svg-layer-7" style="pointer-events: all; fill: none;"/><path fill="none" d="M647 586c3.542 2.674 6.317 5.395 9.063 8.875a484 484 0 0 0 10.75 12.938l1.53 1.782q3.842 4.467 7.704 8.917c18.82 21.732 34.37 41.535 34.328 71.613l-.005 3.68c-.11 8.244-.78 16.25-2.12 24.383l-.475 2.908c-1.297 7.027-3.359 13.571-7.587 19.404-3.59 2.462-7.237 2.658-11.5 2.313-2.38-1.146-2.72-2.38-3.688-4.813-.509-5.554-.045-11.042.777-16.543.555-6.118.29-12.32.223-18.457-2.957-1.478-5.742-1.06-9-1l-.078 1.828-.172 2.422-.14 2.39c-.83 3.215-1.904 4.446-4.61 6.36-3.129.094-3.129.094-6.562-.5l-3.442-.531c-3.435-1.11-4.308-1.834-5.996-4.969-.95-2.578-.95-2.578-1.687-5.25l-.762-2.703L653 699l-3.176.14q-2.069.057-4.136.11l-2.092.102c-3.006.058-5.036.087-7.451-1.805-2.85-6.342-3.524-13.573-4.364-20.422l-.313-2.453c-.437-3.416-.863-6.834-1.29-10.252q-.476-3.773-.96-7.545l-.28-2.292c-1.98-15.479-1.98-15.479-6.625-20.27l-2.137-2.247a77 77 0 0 0-7.926-6.582C611 624 611 624 610.406 621.723c.934-4.284 3.858-6.244 7.094-9.035q2.062-1.844 4.117-3.696l2.175-1.954c4.441-4.1 8.633-8.456 12.839-12.795 3.246-3.304 6.195-6.108 10.369-8.243" id="svg-layer-8" style="pointer-events: all; fill: none;"/><path fill="none" d="M513 656c20.035 2.072 38.663 20.096 54.17 31.662 1.58 1.155 3.201 2.252 4.83 3.338-1.511 4.851-3.152 9.462-5.312 14.063-2.095 4.496-3.91 9.038-5.625 13.687-2.025 5.483-4.089 10.945-6.25 16.375l-1.418 3.57c-1.341 3.177-2.816 6.24-4.395 9.305-9.194.27-18.083-.525-27.187-1.75l-2.057-.27c-26.592-3.52-26.592-3.52-36.756-8.98 1.31-6.533 3.145-12.558 5.527-18.773l1.046-2.771c1.115-2.946 2.24-5.889 3.365-8.831l2.306-6.071c5.692-14.946 11.57-29.805 17.756-44.554" id="svg-layer-9" style="pointer-events: all; fill: none;"/><path fill="none" d="m279 397 3.563 1.188 2.519.832q3.067 1.032 6.117 2.117c26.21 9.14 53.603 13.084 81.32 12.96 1.225 0 2.45-.002 3.711-.004 3.861-.005 7.722-.018 11.582-.03q3.96-.009 7.917-.014 9.635-.017 19.271-.049c-3.9 10.609-18.04 16.267-27.774 20.983-5.577 2.548-11.352 4.493-17.188 6.354-1.93.628-3.84 1.312-5.749 1.999-28.147 9.736-61.735 12.015-90.039 1.789l-1.951-.704c-4.6-1.809-7.882-3.91-11.299-7.421-1.214-4.677 1.535-8.633 3.688-12.687l2.218-4.286 1.094-2.09c1.287-2.493 2.484-5.027 3.688-7.562 1.449-2.933 2.976-5.345 5.125-7.812C279 400 279 400 279 397" id="svg-layer-10" style="pointer-events: all; fill: none;"/><path fill="#6D808F" d="M481.313 459.563c8.796 5.256 13.723 12.928 16.304 22.796 1.954 13.478.53 26.454-7.617 37.641l-1.875 2.75c-4.141 4.385-7.966 6.475-13.937 6.813-7.614-.36-13.793-3.71-19-9.188-8.509-10.62-10.287-22.507-8.95-35.73 1.74-9.643 6.32-18.269 13.93-24.438 5.786-3.812 14.983-3.472 21.144-.644" id="svg-layer-11" style="pointer-events: all;"/><path fill="#6C808F" d="M580.313 219.563 583 221l2.188.375c2.805.967 3.347 3.074 4.812 5.625a379 379 0 0 0 3.375 3.438c13.832 15.7 12.757 44.14 11.625 63.562-.49 5.14-1.569 10.04-3 15l-1.066 3.777C596.749 326.76 589.216 343.196 577 352a366 366 0 0 1 2.375-19.75l.39-2.753c.644-4.541 1.323-9.07 2.098-13.59 4.848-29.495 5.878-64.777-11.117-90.602C569 223 569 223 566.786 220.82 565 219 565 219 565 217c5.273-1.758 10.416.253 15.313 2.563" id="svg-layer-12" style="pointer-events: all;"/><path fill="#F39620" d="M726 735c5.223 2.655 8.981 6.675 13.074 10.773l2.319 2.306q2.418 2.41 4.828 4.826c2.46 2.463 4.932 4.912 7.406 7.36q2.35 2.347 4.697 4.696c.74.73 1.48 1.46 2.241 2.213.685.69 1.37 1.381 2.074 2.093l1.825 1.823c1.784 2.219 2.719 4.187 3.536 6.91-1.828 4.571-4.988 7.326-9 10-7.324-.316-11.143-4.988-16-10-2.302-2.667-4.51-5.387-6.691-8.152-3.233-3.988-6.726-7.7-10.243-11.438-3.324-3.877-3.324-3.877-4.066-6.41a69 69 0 0 1 1.313-7.625l.435-2.062c1.072-4.952 1.072-4.952 2.252-7.313" id="svg-layer-13" style="pointer-events: all;"/><path fill="#F29621" d="M793 789c3.155 2.705 4.712 4.692 5.238 8.91.247 7.169-2.071 12.757-5.238 19.09-6.818 2.012-13.91 2.954-21 2-2.324-1.293-2.324-1.293-4-3-.887-6.427.512-11.537 4-17 4.756-5.454 13.348-12.908 21-10" id="svg-layer-14" style="pointer-events: all;"/><path fill="#000D14" d="m235 193 2 1a2690.137 2690.137 0 0 0-15.326 14.996 1149 1149 0 0 1-5.218 5.095 1117 1117 0 0 0-7.483 7.35l-2.37 2.277c-4.305 4.302-6.474 6.925-6.603 13.282l-1 3c-1.557-3.114-1.842-5.668-1-9 4.824-7.338 11.271-13.554 17.5-19.687l2.434-2.432c4.355-4.323 8.793-8.49 13.455-12.482A71 71 0 0 0 235 193" id="svg-layer-15" style="pointer-events: all;"/><path fill="#F3ECDE" d="m676.625 178.75 2.352-.016C681 179 681 179 683 181h-2l-1 3-2.3.148-3.013.227-2.988.21C669 185 669 185 666 187l-2 1c-.625 2.063-.625 2.063-1 4h-3l-1 2c-2.062.625-2.062.625-4 1 4.47-7.774 12.091-16.314 21.625-16.25" id="svg-layer-16" style="pointer-events: all;"/><path fill="#F7F0E5" d="m771 209 3 1v50h-7v-1h6q-.141-6.857-.317-13.715-.057-2.328-.105-4.658a1076 1076 0 0 0-.164-6.725l-.035-2.078c-.137-4.561-1.08-8.468-2.379-12.824.375-2.937.375-2.937 1-5l-3-1 1-3 2 1z" id="svg-layer-17" style="pointer-events: all;"/><path fill="#DDDBD5" d="M681 291c3.512 1.308 6.57 2.854 9.73 4.863l2.686 1.69q2.743 1.74 5.484 3.484A174 174 0 0 0 717 311v2c-4.893-1.45-9.09-3.496-13.5-6l-2.086-1.178A170.6 170.6 0 0 1 681 292z" id="svg-layer-18" style="pointer-events: all;"/></svg>