<?xml version="1.0" encoding="utf-8" ?>
<svg baseProfile="full" height="1024" version="1.1" viewBox="0 0 1024 1024" width="1024" xmlns="http://www.w3.org/2000/svg" xmlns:ev="http://www.w3.org/2001/xml-events" xmlns:xlink="http://www.w3.org/1999/xlink"><defs /><rect fill="rgb(255,227,193)" height="1024" width="1024" x="0" y="0" /><path d="M 612,950 L 608,951 L 582,968 L 571,977 L 553,995 L 553,997 L 570,990 L 590,977 L 606,960 Z M 331,909 L 333,913 L 369,944 L 388,957 L 393,958 L 393,955 L 382,940 L 368,927 L 343,913 Z M 632,883 L 601,897 L 568,917 L 481,977 L 481,979 L 495,976 L 525,965 L 565,944 L 600,918 L 631,887 Z M 411,765 L 425,810 L 443,850 L 445,850 L 441,837 L 435,827 L 428,799 L 430,792 L 436,792 L 445,796 L 445,794 L 436,786 L 427,788 L 422,780 L 422,773 L 416,767 Z M 1023,810 L 890,760 L 828,740 L 807,765 L 777,820 L 722,884 L 717,892 L 720,892 L 760,862 L 839,810 L 885,783 L 887,783 L 888,786 L 856,822 L 814,877 L 764,951 L 720,1023 L 744,1023 L 840,935 L 908,879 L 915,876 L 915,882 L 902,907 L 875,978 L 877,978 L 908,931 L 946,880 L 976,856 L 1023,830 Z M 815,726 L 758,628 L 737,622 L 688,618 L 689,622 L 747,629 L 751,631 L 751,635 L 742,649 L 714,678 L 657,726 L 655,726 L 627,749 L 590,774 L 560,798 L 531,808 L 530,805 L 549,761 L 570,725 L 599,666 L 614,642 L 627,627 L 627,625 L 625,625 L 563,676 L 531,698 L 498,715 L 485,727 L 481,735 L 481,760 L 498,793 L 499,823 L 491,831 L 485,831 L 469,822 L 469,825 L 473,830 L 485,832 L 488,836 L 467,868 L 460,872 L 461,877 L 427,927 L 423,926 L 415,905 L 400,875 L 381,844 L 360,830 L 344,827 L 332,821 L 324,812 L 322,802 L 325,801 L 327,803 L 331,803 L 332,792 L 325,777 L 325,763 L 321,761 L 315,767 L 307,766 L 295,750 L 290,751 L 264,790 L 259,802 L 259,859 L 256,885 L 258,885 L 262,872 L 266,849 L 264,810 L 267,801 L 271,797 L 281,796 L 298,802 L 303,802 L 325,826 L 340,834 L 358,838 L 370,843 L 380,853 L 386,862 L 401,893 L 398,894 L 381,884 L 364,879 L 365,883 L 405,924 L 414,931 L 418,931 L 422,934 L 397,983 L 384,1023 L 410,1023 L 411,1017 L 419,1023 L 435,1023 L 444,1015 L 446,1010 L 446,1002 L 439,993 L 433,990 L 422,990 L 413,997 L 403,997 L 403,992 L 408,978 L 420,956 L 434,940 L 445,932 L 513,891 L 542,864 L 551,852 L 551,850 L 542,852 L 515,863 L 485,885 L 454,903 L 453,900 L 478,864 L 495,836 L 501,830 L 523,820 L 558,809 L 576,798 L 583,798 L 595,802 L 611,812 L 669,870 L 683,881 L 692,883 L 706,870 L 721,851 L 763,806 L 796,755 L 815,730 Z M 426,588 L 427,591 L 448,609 L 459,623 L 472,631 L 485,634 L 529,636 L 529,634 L 520,631 L 505,622 L 481,619 L 476,616 L 466,605 L 463,598 L 463,588 L 465,583 L 477,570 L 490,564 L 490,562 L 467,564 L 448,570 L 435,578 Z M 531,538 L 516,540 L 516,542 L 526,546 L 529,551 L 521,558 L 510,561 L 510,563 L 517,564 L 526,558 L 538,556 L 537,549 L 531,544 Z M 477,536 L 479,540 L 504,540 L 507,538 L 507,536 Z M 471,537 L 470,533 L 463,528 L 463,522 L 466,519 L 471,518 L 471,516 L 459,516 L 433,522 L 433,524 L 457,536 L 466,539 Z M 563,507 L 563,509 L 571,509 L 577,513 L 579,519 L 571,520 L 571,522 L 585,531 L 586,522 L 583,513 L 571,506 Z M 491,499 L 493,504 L 500,508 L 538,507 L 553,510 L 553,508 L 516,495 L 508,495 L 497,499 Z M 690,492 L 688,492 L 682,520 L 673,545 L 658,568 L 639,586 L 639,588 L 641,588 L 653,579 L 663,569 L 673,554 L 677,554 L 667,580 L 648,603 L 648,605 L 650,605 L 664,590 L 681,561 L 683,554 L 683,530 L 687,516 Z M 505,450 L 505,453 L 515,452 L 522,456 L 528,456 L 528,452 L 515,448 Z M 745,429 L 743,429 L 738,438 L 728,449 L 727,454 L 732,453 L 733,456 L 725,476 L 718,483 L 709,487 L 702,487 L 694,481 L 693,477 L 691,477 L 690,486 L 692,486 L 700,494 L 713,494 L 721,490 L 726,485 L 746,444 L 748,436 L 744,435 Z M 455,413 L 450,415 L 444,424 L 444,431 L 454,429 Z M 726,393 L 727,399 L 735,408 L 736,418 L 738,418 L 742,411 L 741,402 L 733,392 Z M 705,382 L 703,394 L 705,398 L 708,398 L 716,384 L 708,385 L 707,382 Z M 694,371 L 692,371 L 678,384 L 659,406 L 652,417 L 651,429 L 659,443 L 660,451 L 665,448 L 677,433 L 697,404 L 698,398 L 695,391 Z M 266,346 L 266,348 L 270,350 L 282,350 L 282,348 L 274,342 L 270,342 Z M 451,336 L 449,336 L 449,343 L 425,341 L 401,345 L 396,344 L 390,338 L 388,331 L 386,331 L 382,335 L 382,340 L 375,341 L 375,343 L 389,348 L 388,351 L 382,352 L 382,354 L 391,357 L 391,361 L 365,363 L 357,359 L 341,359 L 324,354 L 322,359 L 320,377 L 324,387 L 360,430 L 384,471 L 389,492 L 392,493 L 390,507 L 392,529 L 396,529 L 401,524 L 408,512 L 420,501 L 426,501 L 433,506 L 438,506 L 469,494 L 475,475 L 485,465 L 488,465 L 491,469 L 495,482 L 494,490 L 500,489 L 504,484 L 499,458 L 493,461 L 486,461 L 471,469 L 451,475 L 433,474 L 427,471 L 421,464 L 420,457 L 422,451 L 431,435 L 439,415 L 440,393 L 447,369 L 456,350 L 457,343 Z M 624,285 L 618,282 L 612,282 L 573,290 L 573,292 L 610,287 L 612,284 L 624,287 Z M 475,280 L 470,295 L 465,300 L 458,301 L 460,305 L 476,314 L 475,319 L 478,326 L 478,339 L 475,349 L 477,382 L 466,406 L 468,420 L 481,434 L 498,436 L 502,442 L 505,442 L 516,435 L 528,436 L 532,441 L 530,451 L 541,448 L 545,442 L 548,441 L 566,458 L 568,458 L 558,436 L 546,422 L 544,422 L 545,434 L 541,439 L 536,439 L 529,434 L 521,433 L 517,429 L 512,429 L 503,434 L 498,431 L 488,431 L 478,424 L 475,414 L 483,390 L 482,333 L 483,321 L 486,316 L 483,308 L 477,306 L 477,280 Z M 509,279 L 510,305 L 517,315 L 515,335 L 521,348 L 544,356 L 560,368 L 564,368 L 568,362 L 605,364 L 605,362 L 597,362 L 586,358 L 587,355 L 597,354 L 603,352 L 603,350 L 588,350 L 585,348 L 585,345 L 564,341 L 563,338 L 570,333 L 570,330 L 564,332 L 557,341 L 549,339 L 548,343 L 542,342 L 547,332 L 539,334 L 531,333 L 521,324 L 521,321 L 527,315 L 526,310 L 537,299 L 537,297 L 527,300 L 523,299 L 517,293 L 511,279 Z M 474,162 L 447,160 L 418,160 L 402,162 L 375,169 L 352,180 L 348,186 L 343,204 L 343,224 L 347,247 L 347,267 L 335,301 L 367,283 L 381,283 L 425,291 L 425,289 L 403,284 L 395,280 L 391,276 L 389,268 L 399,257 L 413,248 L 422,226 L 424,201 L 428,190 L 433,183 L 447,172 L 474,164 Z" fill="rgb(235,158,51)" fill-rule="evenodd" stroke="none" /><path d="M 1023,831 L 976,857 L 947,880 L 909,931 L 877,979 L 874,978 L 901,907 L 914,882 L 915,877 L 911,878 L 840,936 L 745,1023 L 1023,1023 Z M 421,934 L 414,932 L 405,925 L 364,883 L 363,879 L 367,878 L 381,883 L 400,893 L 379,853 L 366,842 L 340,835 L 325,827 L 303,803 L 298,803 L 286,798 L 271,798 L 266,805 L 266,858 L 259,885 L 256,886 L 255,879 L 258,859 L 257,806 L 262,792 L 259,792 L 166,838 L 40,906 L 31,920 L 12,958 L 2,986 L 0,987 L 0,1023 L 383,1023 L 396,983 Z M 330,909 L 333,908 L 343,912 L 368,926 L 383,940 L 394,955 L 394,958 L 388,958 L 369,945 L 333,914 Z M 887,784 L 862,797 L 814,827 L 750,870 L 720,893 L 717,893 L 716,890 L 776,820 L 806,765 L 826,741 L 826,739 L 817,732 L 814,732 L 797,755 L 778,786 L 760,811 L 722,851 L 707,870 L 692,884 L 683,882 L 669,871 L 611,813 L 590,801 L 576,799 L 558,810 L 515,824 L 501,831 L 496,836 L 479,864 L 457,895 L 454,902 L 485,884 L 515,862 L 551,849 L 552,852 L 543,864 L 513,892 L 434,941 L 421,956 L 414,968 L 406,986 L 404,997 L 414,995 L 422,989 L 433,989 L 439,992 L 447,1002 L 447,1010 L 445,1015 L 436,1023 L 719,1023 L 763,951 L 813,877 L 839,842 L 875,798 L 887,786 Z M 613,950 L 607,960 L 590,978 L 570,991 L 555,998 L 552,997 L 552,995 L 582,967 L 608,950 Z M 633,883 L 632,887 L 600,919 L 565,945 L 525,966 L 485,980 L 480,979 L 480,977 L 568,916 L 601,896 L 630,882 Z M 750,631 L 714,625 L 688,623 L 691,639 L 704,667 L 704,672 L 675,706 L 675,709 L 677,709 L 704,686 L 734,657 L 748,639 Z M 717,389 L 714,389 L 707,400 L 712,410 L 712,426 L 702,442 L 702,449 L 709,448 L 718,438 L 724,437 L 735,418 L 734,408 L 727,401 L 725,395 Z M 744,348 L 738,351 L 727,363 L 719,382 L 723,382 L 731,369 L 736,364 L 740,364 L 743,369 L 744,377 L 749,379 L 751,391 L 753,391 L 756,372 L 756,358 L 751,349 Z M 652,305 L 644,295 L 612,285 L 610,288 L 597,289 L 581,293 L 566,293 L 560,296 L 555,295 L 547,299 L 539,298 L 527,310 L 528,315 L 522,321 L 522,324 L 533,333 L 547,331 L 548,334 L 544,338 L 543,342 L 546,342 L 548,338 L 557,339 L 564,331 L 570,329 L 574,340 L 580,344 L 597,344 L 603,339 L 606,331 L 611,333 L 616,339 L 619,339 L 623,343 L 631,343 L 632,339 L 638,340 L 638,338 L 621,323 L 609,319 L 580,315 L 579,312 L 587,308 L 614,302 L 634,302 L 652,308 Z M 498,28 L 500,31 L 499,34 L 474,33 L 469,35 L 421,35 L 385,46 L 386,49 L 391,50 L 390,53 L 348,64 L 348,66 L 354,67 L 355,70 L 319,85 L 319,87 L 331,87 L 332,90 L 307,104 L 291,118 L 291,120 L 300,119 L 301,122 L 285,138 L 271,157 L 271,160 L 277,158 L 281,159 L 272,178 L 269,196 L 277,249 L 282,302 L 290,343 L 287,344 L 278,339 L 267,340 L 263,344 L 263,348 L 259,351 L 257,379 L 258,412 L 267,441 L 283,471 L 287,482 L 296,492 L 302,494 L 314,493 L 316,495 L 319,521 L 326,547 L 340,571 L 362,592 L 372,671 L 369,676 L 346,693 L 320,716 L 294,746 L 294,749 L 298,752 L 307,765 L 316,765 L 321,760 L 326,763 L 326,777 L 333,792 L 333,799 L 331,804 L 323,802 L 325,812 L 332,820 L 344,826 L 360,829 L 374,837 L 382,844 L 401,875 L 416,905 L 424,926 L 428,925 L 458,881 L 460,875 L 445,855 L 435,836 L 418,793 L 410,765 L 413,764 L 442,790 L 470,821 L 485,830 L 491,830 L 498,823 L 498,800 L 494,785 L 480,760 L 480,735 L 486,724 L 498,714 L 516,706 L 552,683 L 621,628 L 660,589 L 671,570 L 676,554 L 674,554 L 664,569 L 641,589 L 564,633 L 553,636 L 514,637 L 505,635 L 485,635 L 472,632 L 459,624 L 447,609 L 425,590 L 428,584 L 435,577 L 453,567 L 473,562 L 507,561 L 519,558 L 528,551 L 526,547 L 513,541 L 466,540 L 433,525 L 433,521 L 459,515 L 481,515 L 495,517 L 511,513 L 527,513 L 550,518 L 564,516 L 569,519 L 578,519 L 578,516 L 571,510 L 549,511 L 538,508 L 500,509 L 494,506 L 490,501 L 475,495 L 468,495 L 438,507 L 433,507 L 426,502 L 420,502 L 409,512 L 402,524 L 396,530 L 391,529 L 389,520 L 391,494 L 388,492 L 383,471 L 359,430 L 327,393 L 320,380 L 319,368 L 324,353 L 332,354 L 341,358 L 357,358 L 365,362 L 380,362 L 391,360 L 391,358 L 381,354 L 382,351 L 388,350 L 388,348 L 380,347 L 374,343 L 375,340 L 380,340 L 381,335 L 386,330 L 389,331 L 391,338 L 396,343 L 401,344 L 417,342 L 421,336 L 423,327 L 437,337 L 437,342 L 449,342 L 448,336 L 451,335 L 458,343 L 457,350 L 449,366 L 442,389 L 440,415 L 421,457 L 423,466 L 433,473 L 451,474 L 471,468 L 486,460 L 493,460 L 502,454 L 504,449 L 511,447 L 524,449 L 529,451 L 530,454 L 534,454 L 536,451 L 529,451 L 531,441 L 528,437 L 516,436 L 505,443 L 502,443 L 498,437 L 481,435 L 467,420 L 465,406 L 476,382 L 474,349 L 477,339 L 477,326 L 474,319 L 475,314 L 442,295 L 381,284 L 367,284 L 351,292 L 337,302 L 334,301 L 346,267 L 346,247 L 342,224 L 342,204 L 347,186 L 352,179 L 365,172 L 396,162 L 418,159 L 490,161 L 503,159 L 504,154 L 512,154 L 513,157 L 519,156 L 519,154 L 483,142 L 483,138 L 512,140 L 547,147 L 588,149 L 587,146 L 566,136 L 565,133 L 568,132 L 634,152 L 643,157 L 650,157 L 652,164 L 663,182 L 668,199 L 670,218 L 672,221 L 672,225 L 669,226 L 669,232 L 673,249 L 669,250 L 672,259 L 668,260 L 663,258 L 663,260 L 680,284 L 686,297 L 689,314 L 690,345 L 693,357 L 697,393 L 701,392 L 704,386 L 707,351 L 711,346 L 716,346 L 723,341 L 726,319 L 726,296 L 732,295 L 731,255 L 736,254 L 734,219 L 737,218 L 740,220 L 738,201 L 731,186 L 723,175 L 724,172 L 733,173 L 733,171 L 717,156 L 721,145 L 710,138 L 701,137 L 701,123 L 699,119 L 686,107 L 684,107 L 682,124 L 679,125 L 675,107 L 665,91 L 655,79 L 636,62 L 634,62 L 636,72 L 633,73 L 600,54 L 552,35 L 555,42 L 552,43 L 534,36 Z M 455,412 L 455,429 L 444,432 L 443,424 L 450,414 Z M 274,382 L 275,393 L 272,401 L 269,402 L 268,395 L 271,383 Z M 265,346 L 270,341 L 274,341 L 280,345 L 283,350 L 270,351 L 266,349 Z M 372,314 L 387,311 L 393,312 L 394,316 L 387,318 L 373,317 Z" fill="rgb(45,45,65)" fill-rule="evenodd" stroke="none" /></svg>