<svg xmlns="http://www.w3.org/2000/svg" viewBox="0 0 512 768">
<rect width="512" height="768" fill="#f1cd94"/>
<path d="M 191 80 L 180 86 L 161 101 L 166 104 L 141 135 L 142 138 L 145 137 L 146 139 L 137 151 L 136 173 L 134 177 L 136 199 L 131 222 L 129 256 L 124 262 L 120 272 L 121 294 L 127 293 L 126 263 L 131 259 L 138 259 L 140 266 L 140 292 L 135 296 L 122 298 L 116 304 L 117 314 L 126 322 L 128 335 L 133 350 L 139 361 L 151 371 L 164 375 L 174 389 L 180 433 L 164 447 L 148 469 L 148 471 L 158 478 L 163 484 L 164 506 L 169 518 L 168 519 L 151 504 L 146 503 L 156 517 L 154 518 L 143 505 L 141 499 L 142 490 L 107 501 L 77 515 L 58 536 L 17 553 L 18 751 L 295 751 L 296 739 L 267 737 L 265 735 L 265 723 L 262 718 L 255 718 L 253 737 L 251 718 L 208 718 L 204 736 L 204 718 L 161 717 L 160 735 L 157 748 L 157 717 L 107 717 L 103 733 L 101 717 L 70 718 L 68 716 L 71 714 L 180 712 L 264 712 L 270 720 L 272 716 L 299 716 L 303 673 L 264 674 L 267 642 L 262 660 L 261 674 L 217 675 L 216 670 L 220 655 L 221 642 L 223 640 L 273 638 L 284 650 L 297 651 L 299 655 L 301 651 L 312 651 L 315 655 L 311 685 L 310 710 L 337 710 L 355 707 L 368 708 L 372 644 L 366 644 L 360 691 L 363 700 L 362 702 L 348 700 L 346 698 L 342 670 L 337 697 L 330 698 L 321 696 L 320 686 L 322 666 L 316 697 L 315 685 L 319 649 L 323 645 L 332 644 L 323 642 L 317 643 L 315 641 L 315 632 L 295 631 L 292 627 L 286 608 L 273 612 L 273 635 L 141 637 L 94 636 L 105 613 L 104 607 L 97 603 L 99 600 L 266 599 L 290 576 L 324 553 L 325 555 L 319 567 L 306 581 L 288 591 L 279 594 L 276 599 L 308 598 L 320 600 L 324 604 L 323 606 L 318 607 L 318 610 L 334 611 L 364 617 L 385 617 L 388 613 L 387 608 L 392 607 L 409 583 L 413 584 L 414 586 L 394 628 L 388 648 L 381 691 L 381 713 L 402 734 L 432 739 L 435 742 L 436 751 L 492 751 L 492 562 L 477 554 L 458 549 L 456 547 L 470 526 L 481 515 L 492 518 L 492 501 L 487 497 L 484 491 L 475 487 L 469 488 L 452 502 L 445 511 L 411 501 L 386 496 L 385 500 L 445 515 L 447 515 L 472 492 L 476 492 L 482 497 L 458 521 L 430 558 L 420 576 L 416 580 L 412 578 L 426 553 L 428 544 L 437 531 L 424 528 L 418 524 L 398 517 L 373 512 L 371 516 L 394 520 L 418 529 L 419 532 L 417 535 L 424 539 L 423 542 L 421 543 L 414 538 L 399 533 L 377 528 L 409 541 L 404 550 L 399 554 L 373 544 L 346 539 L 358 526 L 355 524 L 374 500 L 402 473 L 397 470 L 372 490 L 340 522 L 339 520 L 371 471 L 319 509 L 270 560 L 268 559 L 274 549 L 314 505 L 304 509 L 266 532 L 264 531 L 283 512 L 257 524 L 221 536 L 217 533 L 211 522 L 201 487 L 202 486 L 231 516 L 243 525 L 249 504 L 242 494 L 238 468 L 273 446 L 307 420 L 336 392 L 341 382 L 337 388 L 303 411 L 287 420 L 247 422 L 232 407 L 221 401 L 225 391 L 233 387 L 241 385 L 279 385 L 271 374 L 238 374 L 226 364 L 228 362 L 236 360 L 273 359 L 289 362 L 297 366 L 299 365 L 295 359 L 293 361 L 289 361 L 265 351 L 249 352 L 245 350 L 215 359 L 208 367 L 206 365 L 181 309 L 162 285 L 164 263 L 171 267 L 183 269 L 193 275 L 197 273 L 192 263 L 197 259 L 202 263 L 211 263 L 218 255 L 225 260 L 230 261 L 234 265 L 229 299 L 219 327 L 222 332 L 232 338 L 239 338 L 269 322 L 272 322 L 272 326 L 274 326 L 279 320 L 270 315 L 250 317 L 243 313 L 233 315 L 230 314 L 230 308 L 244 299 L 246 294 L 247 250 L 242 241 L 232 236 L 212 233 L 193 227 L 176 237 L 175 236 L 175 182 L 181 168 L 191 159 L 209 155 L 230 155 L 251 160 L 249 157 L 250 156 L 267 159 L 299 159 L 287 149 L 288 147 L 302 152 L 310 159 L 320 161 L 331 167 L 338 173 L 340 188 L 339 201 L 347 221 L 349 218 L 355 241 L 357 251 L 357 288 L 359 285 L 362 258 L 370 250 L 368 236 L 375 213 L 378 192 L 376 188 L 375 167 L 370 160 L 373 155 L 367 148 L 361 129 L 355 122 L 356 127 L 355 128 L 353 126 L 348 112 L 332 90 L 332 94 L 330 96 L 317 84 L 304 78 L 304 81 L 298 76 L 275 67 L 277 70 L 273 71 L 248 65 L 232 64 L 235 68 L 222 70 Z M 65 716 L 66 720 L 63 730 L 62 717 Z M 481 682 L 481 687 L 468 711 L 458 701 Z M 284 680 L 298 682 L 296 700 L 285 695 L 283 686 Z M 70 665 L 73 666 L 71 674 L 69 669 Z M 438 655 L 439 658 L 434 683 L 425 690 L 424 687 Z M 40 652 L 42 657 L 35 690 L 31 728 L 28 740 L 27 730 L 32 685 L 37 656 Z M 79 646 L 76 659 L 74 661 L 46 660 L 47 649 L 74 644 Z M 411 641 L 411 653 L 403 665 L 402 661 L 406 644 Z M 173 642 L 168 664 L 168 673 L 166 675 L 83 675 L 88 650 L 93 643 L 130 643 L 127 654 L 97 650 L 94 652 L 89 674 L 116 674 L 147 672 L 131 666 L 134 663 L 147 661 L 135 656 L 132 653 L 134 642 Z M 219 641 L 212 675 L 170 674 L 174 657 L 175 643 L 177 641 Z M 43 622 L 47 623 L 47 627 L 45 629 L 42 628 Z M 97 613 L 87 634 L 84 637 L 65 638 L 45 643 L 40 642 L 53 629 L 94 612 Z M 320 594 L 326 584 L 379 604 L 385 609 L 380 616 L 374 611 L 328 594 L 325 598 L 322 598 Z M 134 590 L 136 578 L 138 576 L 148 586 L 155 589 L 247 588 L 264 577 L 268 577 L 266 584 L 250 596 L 146 596 L 143 593 L 145 591 Z M 215 567 L 218 568 L 219 571 L 214 578 L 213 583 L 208 585 L 204 574 L 205 573 L 211 577 L 207 568 Z M 96 565 L 94 573 L 87 576 L 84 580 L 83 589 L 90 589 L 89 597 L 45 611 L 42 610 L 54 589 L 44 588 L 48 578 L 72 568 L 89 564 Z M 107 562 L 108 567 L 103 591 L 100 594 L 94 595 L 93 587 L 97 582 L 98 565 Z M 486 566 L 481 572 L 469 565 L 448 593 L 429 602 L 421 613 L 418 610 L 432 576 L 432 572 L 452 552 L 468 555 Z M 329 579 L 333 571 L 344 564 L 344 560 L 341 556 L 345 551 L 369 553 L 400 566 L 404 561 L 407 564 L 400 576 L 390 574 L 387 575 L 382 585 L 388 588 L 388 594 L 383 600 L 366 592 Z M 343 547 L 345 544 L 349 545 L 346 550 Z M 413 543 L 417 545 L 419 549 L 414 557 L 409 559 L 405 555 Z M 129 552 L 139 543 L 158 548 L 180 567 L 178 568 L 150 554 Z M 192 535 L 193 534 L 200 538 L 230 548 L 227 552 L 210 556 L 194 544 Z M 119 529 L 114 540 L 119 542 L 114 559 L 112 557 L 99 557 L 69 564 L 55 570 L 53 569 L 55 562 L 64 556 L 78 551 L 108 545 L 118 528 Z M 116 523 L 104 541 L 93 543 L 66 553 L 63 552 L 76 533 L 109 523 Z M 136 333 L 137 332 L 138 334 L 137 335 Z M 147 307 L 152 308 L 156 342 L 159 344 L 163 366 L 169 367 L 173 364 L 191 366 L 197 369 L 200 373 L 200 379 L 197 383 L 192 381 L 195 376 L 192 370 L 182 367 L 173 367 L 168 372 L 163 371 L 160 366 L 151 362 L 142 351 L 137 335 L 138 334 L 143 339 L 151 342 L 147 322 Z M 211 254 L 215 253 L 216 256 L 212 257 Z M 146 237 L 150 241 L 149 269 L 151 299 L 149 301 L 145 300 L 143 280 L 144 239 Z M 139 218 L 146 234 L 137 244 L 136 236 Z M 339 244 L 318 227 L 295 234 L 276 237 L 273 239 L 268 248 L 273 251 L 283 252 L 278 258 L 277 262 L 285 260 L 291 256 L 298 263 L 306 263 L 313 255 L 319 259 L 330 262 L 322 252 L 300 246 L 319 237 L 326 238 Z M 308 253 L 311 255 L 309 258 L 305 256 Z M 371 721 L 370 720 L 366 726 L 361 723 L 351 723 L 343 727 L 338 739 L 338 748 L 337 749 L 335 745 L 334 734 L 331 751 L 336 751 L 337 749 L 338 751 L 369 751 Z M 352 412 L 353 448 L 370 433 L 375 424 L 375 420 Z M 383 258 L 379 258 L 375 261 L 363 278 L 363 283 L 369 295 L 369 299 L 364 304 L 363 310 L 365 310 L 376 300 L 375 286 L 373 282 L 368 281 L 365 277 L 371 274 L 377 263 L 380 265 L 384 284 Z M 379 735 L 379 751 L 396 751 L 396 747 L 394 745 L 383 741 Z M 408 744 L 408 751 L 429 750 L 429 746 Z M 316 721 L 312 722 L 310 751 L 314 751 L 315 749 Z M 355 330 L 355 337 L 362 338 L 367 335 L 361 336 Z M 303 740 L 302 751 L 304 751 Z" fill="#201f26" fill-rule="evenodd"/>
<path d="M 0 0 L 0 767 L 511 767 L 511 0 Z M 496 765 L 497 764 L 498 766 L 497 767 Z M 507 760 L 508 759 L 509 761 L 508 762 Z M 487 757 L 488 756 L 489 758 L 488 759 Z M 17 15 L 492 15 L 494 17 L 493 752 L 16 751 Z M 288 148 L 301 159 L 263 160 L 251 157 L 254 160 L 254 163 L 221 165 L 216 170 L 212 183 L 214 218 L 196 218 L 193 221 L 199 226 L 197 227 L 235 235 L 242 240 L 244 239 L 248 227 L 250 229 L 252 247 L 249 251 L 247 311 L 251 314 L 262 314 L 269 312 L 281 316 L 280 322 L 275 327 L 261 329 L 263 348 L 295 357 L 299 361 L 300 366 L 295 367 L 287 363 L 274 361 L 239 361 L 228 364 L 238 372 L 271 373 L 281 385 L 280 386 L 246 389 L 242 397 L 242 402 L 244 406 L 254 414 L 287 418 L 302 410 L 338 385 L 348 366 L 350 357 L 352 356 L 351 350 L 354 338 L 354 328 L 355 327 L 358 331 L 366 334 L 371 332 L 377 325 L 375 324 L 387 292 L 388 265 L 385 253 L 380 248 L 372 248 L 373 249 L 363 259 L 361 284 L 357 290 L 356 316 L 337 332 L 337 311 L 356 279 L 356 253 L 348 221 L 348 223 L 346 223 L 337 200 L 337 175 L 327 166 L 309 160 L 301 153 Z M 276 302 L 280 304 L 288 316 L 289 321 L 279 312 L 275 304 Z M 382 298 L 382 304 L 373 320 L 371 317 L 372 309 Z M 383 256 L 386 263 L 385 286 L 383 286 L 380 271 L 379 276 L 383 285 L 382 291 L 377 301 L 363 312 L 361 310 L 361 306 L 367 299 L 367 293 L 361 282 L 362 276 L 367 268 L 378 257 Z M 262 219 L 265 219 L 272 237 L 320 226 L 342 245 L 339 246 L 322 238 L 317 245 L 330 249 L 334 253 L 340 265 L 338 266 L 324 262 L 308 275 L 290 277 L 279 270 L 272 268 L 267 264 L 268 250 L 263 245 Z M 350 367 L 347 380 L 343 386 L 315 414 L 306 427 L 279 482 L 277 492 L 281 499 L 297 498 L 352 449 L 350 412 L 352 411 L 351 404 L 353 401 L 354 402 L 351 399 L 353 397 L 350 394 L 350 389 L 354 387 L 350 385 Z M 229 268 L 216 275 L 180 278 L 187 293 L 199 303 L 223 281 Z M 248 335 L 245 349 L 251 351 L 261 349 Z M 316 262 L 312 259 L 305 265 L 289 263 L 307 266 L 313 265 Z" fill="#f9e1b8" fill-rule="evenodd"/>
<path d="M 412 586 L 410 584 L 407 587 L 408 588 L 400 598 L 401 600 L 398 601 L 401 603 L 398 605 L 396 603 L 398 605 L 396 607 L 395 606 L 395 608 L 388 609 L 390 612 L 385 619 L 367 619 L 331 612 L 317 612 L 316 606 L 323 604 L 321 602 L 311 600 L 99 601 L 99 603 L 102 603 L 106 607 L 107 611 L 96 636 L 108 634 L 264 634 L 266 630 L 269 629 L 268 627 L 271 624 L 272 611 L 285 602 L 302 601 L 311 612 L 319 613 L 319 628 L 316 631 L 316 641 L 327 641 L 335 644 L 372 643 L 374 646 L 372 671 L 373 690 L 371 693 L 372 703 L 370 708 L 366 710 L 363 709 L 361 711 L 359 709 L 343 710 L 339 713 L 337 712 L 338 711 L 320 713 L 322 714 L 321 717 L 323 720 L 337 719 L 344 717 L 345 715 L 362 715 L 363 716 L 361 717 L 366 719 L 371 717 L 372 724 L 380 730 L 383 730 L 384 732 L 386 729 L 386 733 L 389 733 L 390 735 L 391 733 L 389 732 L 392 730 L 389 729 L 391 728 L 390 724 L 388 724 L 388 722 L 381 715 L 370 715 L 374 712 L 376 713 L 376 711 L 379 711 L 380 685 L 379 682 L 378 684 L 375 682 L 378 680 L 375 677 L 379 675 L 378 672 L 382 669 L 379 669 L 378 665 L 379 664 L 382 666 L 378 663 L 387 640 L 392 632 L 392 626 L 390 625 L 392 624 L 391 621 L 393 618 L 392 619 L 390 617 L 398 616 L 395 615 L 399 614 L 400 612 L 398 611 L 402 608 L 399 606 L 404 604 Z M 378 727 L 379 726 L 380 728 L 379 729 Z M 365 713 L 360 714 L 362 711 Z M 371 712 L 372 710 L 376 711 L 373 713 Z M 343 710 L 344 712 L 342 713 L 341 712 Z M 374 684 L 375 683 L 376 685 L 375 686 Z M 377 671 L 379 673 L 378 676 L 375 675 Z M 390 613 L 392 608 L 396 609 L 393 610 L 395 610 L 395 612 Z M 398 607 L 400 609 L 397 613 L 396 609 Z M 404 593 L 405 592 L 406 594 L 405 595 Z M 379 423 L 377 421 L 374 429 L 364 441 L 338 462 L 298 499 L 287 501 L 280 500 L 276 494 L 277 483 L 310 418 L 285 439 L 240 468 L 243 492 L 251 505 L 247 519 L 243 526 L 235 521 L 203 488 L 205 500 L 216 529 L 220 534 L 248 526 L 285 510 L 286 511 L 267 530 L 305 507 L 316 503 L 317 504 L 296 526 L 310 517 L 321 506 L 345 490 L 373 468 L 374 470 L 340 521 L 364 496 L 396 469 L 387 449 Z M 357 524 L 377 526 L 416 537 L 414 534 L 414 529 L 389 520 L 371 517 L 370 514 L 374 510 L 406 518 L 436 529 L 438 532 L 434 538 L 439 536 L 443 540 L 463 513 L 481 498 L 475 493 L 472 493 L 447 517 L 386 502 L 384 500 L 384 496 L 387 494 L 445 509 L 455 498 L 471 486 L 429 470 L 412 467 L 404 472 L 377 498 Z M 165 265 L 163 284 L 183 310 L 208 366 L 216 357 L 243 349 L 245 336 L 238 340 L 233 340 L 220 332 L 218 329 L 218 325 L 227 301 L 233 266 L 221 258 L 219 258 L 220 260 L 225 263 L 216 266 L 201 267 L 194 264 L 200 263 L 198 261 L 194 263 L 199 273 L 198 275 L 212 274 L 228 266 L 230 267 L 224 282 L 200 304 L 198 304 L 185 293 L 178 277 L 180 275 L 191 275 L 182 270 L 173 269 Z M 253 161 L 234 157 L 213 156 L 188 162 L 180 172 L 176 184 L 176 235 L 194 225 L 190 222 L 196 216 L 212 218 L 211 179 L 215 169 L 221 163 Z M 331 579 L 383 598 L 387 591 L 387 588 L 380 585 L 384 577 L 389 572 L 399 575 L 402 572 L 405 563 L 401 567 L 398 567 L 368 554 L 345 553 L 343 555 L 346 561 L 345 564 L 334 572 Z M 146 472 L 143 487 L 144 504 L 153 515 L 145 504 L 146 502 L 150 502 L 167 516 L 163 508 L 161 482 Z M 223 400 L 231 405 L 246 420 L 286 419 L 255 416 L 241 404 L 240 399 L 245 388 L 260 387 L 239 387 L 228 390 Z M 356 281 L 354 287 L 338 312 L 338 330 L 355 316 Z M 113 524 L 100 529 L 98 528 L 97 531 L 95 529 L 88 531 L 87 533 L 84 532 L 77 534 L 65 552 L 87 544 L 102 536 L 102 534 L 104 537 L 105 533 L 106 535 L 106 532 L 109 530 L 106 528 L 110 528 Z M 138 260 L 128 262 L 127 275 L 129 293 L 118 297 L 116 301 L 123 296 L 138 293 Z M 321 595 L 324 597 L 328 592 L 332 594 L 334 593 L 337 596 L 375 610 L 380 614 L 384 608 L 328 586 L 325 587 Z M 323 261 L 312 267 L 298 267 L 292 265 L 279 265 L 275 267 L 288 275 L 304 274 L 312 271 Z M 311 652 L 307 653 L 303 691 L 308 691 L 310 688 L 313 654 Z M 131 552 L 152 553 L 177 566 L 156 549 L 139 545 Z M 302 246 L 321 250 L 332 262 L 331 263 L 337 264 L 332 252 L 324 248 L 317 247 L 315 245 L 316 240 Z M 271 323 L 250 334 L 260 347 L 262 347 L 259 330 L 263 327 L 270 327 Z M 257 316 L 252 316 L 245 311 L 246 298 L 231 310 L 231 313 L 246 312 L 250 316 Z M 264 221 L 265 245 L 267 246 L 272 239 L 268 233 Z M 248 230 L 244 241 L 248 250 L 251 246 Z M 323 647 L 320 651 L 317 689 L 323 656 Z M 423 561 L 422 565 L 417 571 L 419 572 L 416 574 L 414 579 L 419 575 L 425 564 Z M 281 253 L 274 252 L 272 260 L 275 261 Z M 277 304 L 281 313 L 287 318 L 280 306 Z M 295 262 L 291 258 L 283 261 Z M 264 350 L 291 360 L 294 359 Z M 171 367 L 184 366 L 191 368 L 195 372 L 196 371 L 190 367 L 174 365 Z M 199 377 L 195 378 L 194 381 L 196 382 Z M 344 376 L 342 379 L 344 381 L 342 382 L 341 386 L 346 379 Z M 145 593 L 146 595 L 151 595 L 150 593 Z M 269 314 L 278 319 L 280 318 Z" fill="#d8923c" fill-rule="evenodd"/>
<path d="M 371 720 L 371 718 L 369 720 L 360 717 L 362 716 L 345 716 L 344 718 L 337 720 L 323 721 L 320 717 L 320 712 L 335 711 L 310 711 L 310 689 L 308 692 L 303 692 L 301 711 L 303 712 L 299 717 L 272 717 L 270 721 L 264 713 L 110 714 L 69 716 L 101 716 L 103 718 L 103 732 L 104 722 L 107 716 L 157 716 L 157 747 L 161 716 L 204 717 L 204 735 L 208 717 L 251 717 L 253 719 L 253 736 L 254 718 L 262 717 L 266 723 L 266 735 L 296 738 L 296 751 L 301 751 L 303 739 L 305 751 L 309 751 L 311 722 L 314 720 L 317 721 L 315 751 L 330 751 L 334 733 L 336 734 L 337 748 L 338 736 L 342 727 L 351 722 L 361 722 L 366 725 L 370 719 Z M 287 720 L 288 718 L 290 719 L 288 721 Z M 305 709 L 309 709 L 307 711 Z M 222 642 L 217 674 L 261 673 L 261 660 L 264 646 L 267 641 L 268 654 L 264 673 L 303 672 L 304 679 L 304 666 L 307 652 L 301 652 L 299 656 L 297 652 L 284 651 L 273 639 L 232 640 Z M 323 646 L 325 648 L 322 663 L 323 673 L 321 695 L 336 697 L 342 669 L 344 672 L 347 698 L 362 701 L 359 691 L 365 644 L 335 645 L 331 643 L 333 644 Z M 172 642 L 134 643 L 133 653 L 148 661 L 146 663 L 134 664 L 132 666 L 148 672 L 141 674 L 89 675 L 88 673 L 93 652 L 97 649 L 127 653 L 129 643 L 93 644 L 89 650 L 84 675 L 166 674 Z M 218 641 L 177 642 L 171 674 L 212 674 Z M 485 566 L 468 556 L 452 553 L 433 572 L 433 576 L 419 610 L 421 612 L 429 601 L 448 592 L 469 564 L 481 571 Z M 95 565 L 72 569 L 48 579 L 45 588 L 55 589 L 43 610 L 89 596 L 89 589 L 83 590 L 82 585 L 84 578 L 93 573 Z M 481 516 L 471 526 L 457 547 L 472 551 L 492 561 L 492 519 Z M 347 539 L 373 543 L 399 553 L 403 550 L 408 541 L 376 528 L 377 527 L 359 526 L 356 524 L 358 522 L 356 524 L 359 526 Z M 135 590 L 145 590 L 146 592 L 150 592 L 152 595 L 250 595 L 265 584 L 267 577 L 247 589 L 155 590 L 148 587 L 138 577 Z M 380 697 L 380 711 L 372 711 L 374 713 L 372 715 L 370 714 L 381 714 L 389 722 L 388 723 L 391 724 L 392 728 L 390 729 L 393 730 L 388 732 L 389 731 L 392 733 L 390 736 L 389 734 L 387 735 L 385 733 L 386 730 L 384 733 L 383 731 L 379 730 L 381 729 L 379 727 L 377 729 L 372 725 L 370 751 L 378 751 L 379 734 L 383 740 L 394 744 L 397 747 L 397 751 L 407 751 L 407 744 L 409 742 L 429 745 L 429 751 L 435 751 L 434 742 L 432 740 L 402 735 L 380 713 Z M 275 609 L 284 607 L 287 608 L 295 630 L 315 631 L 318 628 L 318 613 L 311 613 L 302 602 L 285 603 Z M 96 613 L 53 630 L 41 642 L 65 637 L 84 636 Z M 118 529 L 108 546 L 94 548 L 64 557 L 56 562 L 54 569 L 87 558 L 99 556 L 112 556 L 114 558 L 118 542 L 113 540 Z M 324 554 L 290 577 L 267 599 L 275 599 L 279 593 L 288 590 L 306 580 L 316 570 Z M 78 646 L 65 646 L 47 650 L 47 660 L 74 660 Z M 193 535 L 195 544 L 210 555 L 227 551 L 229 548 L 200 539 Z M 146 238 L 144 251 L 145 296 L 146 300 L 149 300 L 149 241 Z M 107 563 L 99 565 L 98 582 L 94 587 L 94 594 L 102 591 Z M 481 683 L 459 701 L 468 710 Z M 441 538 L 439 537 L 432 539 L 423 560 L 424 562 L 427 562 L 442 542 Z M 284 681 L 286 695 L 296 699 L 297 682 Z M 309 518 L 300 524 L 298 523 L 275 549 L 269 559 Z M 392 633 L 379 663 L 381 664 L 379 666 L 382 670 L 378 673 L 377 672 L 376 675 L 379 676 L 376 677 L 379 679 L 378 681 L 376 680 L 378 681 L 376 682 L 380 682 L 381 690 L 384 662 Z M 381 668 L 382 667 L 383 669 L 382 670 Z M 147 308 L 151 341 L 156 343 L 151 308 Z M 40 653 L 38 656 L 33 685 L 28 739 L 33 696 L 41 657 Z M 218 569 L 208 568 L 212 577 L 210 578 L 205 574 L 208 584 L 212 583 Z M 438 656 L 424 690 L 433 683 Z M 413 544 L 406 555 L 409 558 L 412 558 L 418 549 L 418 547 Z M 411 642 L 407 644 L 402 665 L 410 653 Z M 400 613 L 399 615 L 391 617 L 393 619 L 393 624 L 391 625 L 393 626 L 393 630 Z M 272 617 L 272 624 L 269 627 L 270 629 L 267 630 L 265 634 L 273 634 Z M 109 531 L 107 532 L 108 533 L 106 536 L 105 534 L 104 538 L 102 535 L 102 537 L 88 544 L 104 540 Z M 413 528 L 415 529 L 415 534 L 417 536 L 415 538 L 422 542 L 423 539 L 416 535 L 418 530 L 416 531 L 416 529 Z M 43 623 L 43 628 L 45 628 L 46 623 Z M 65 717 L 63 717 L 63 729 Z M 407 588 L 396 602 L 398 604 L 395 604 L 393 607 L 400 603 L 397 601 L 400 600 L 399 598 L 405 590 L 408 592 L 405 590 Z M 285 511 L 283 513 L 282 512 L 283 513 L 265 531 L 267 529 L 268 530 L 267 529 Z" fill="#9d5c28" fill-rule="evenodd"/>
</svg>