<svg xmlns="http://www.w3.org/2000/svg" width="1024" height="1024"><path fill="none" d="M0 0h1024v1024H0zm849.145 75.578-2.87.844q-3.101.915-6.196 1.846c-5.742 1.726-11.498 3.406-17.25 5.095l-3.766 1.11c-15.528 4.571-31.114 8.94-46.698 13.317q-4.504 1.266-9.01 2.536l-12.932 3.64a2106 2106 0 0 1-22.681 6.269l-3.989 1.08q-3.69.998-7.385 1.976c-17.44 4.72-26.852 14.042-39.369 26.59l-3.945 3.942q-5.4 5.399-10.794 10.8-5.827 5.834-11.658 11.661-10.097 10.095-20.187 20.196-14.6 14.61-29.203 29.215a290988 290988 0 0 0-47.405 47.423 404034 404034 0 0 1-46.005 46.025l-1.432 1.433-14.242 14.245q-55.602 55.618-111.197 111.243l-1.735 1.736-3.136 3.138L367 450l-1.853 1.853L353 464l-2.135-2.166c-2.318-2.318-4.707-4.545-7.134-6.748-7.639-6.94-14.941-14.19-22.206-21.517a4115 4115 0 0 0-6.446-6.481q-9.154-9.192-18.293-18.398a7670 7670 0 0 0-11.269-11.323 2252 2252 0 0 1-4.268-4.3 2231 2231 0 0 0-5.943-5.972l-1.764-1.791c-4.341-4.33-7.255-6.583-13.417-6.679l-2.492-.086c-5.905 1.034-10.137 5.717-14.223 9.82l-1.538 1.54q-1.6 1.605-3.194 3.217a1197 1197 0 0 1-4.824 4.845c-4.875 4.892-9.62 9.838-14.108 15.09-4.405 4.918-9.299 9.412-14.07 13.97-5.194 5.083-9.282 9.102-9.89 16.64.09.792.182 1.585.276 2.401l.223 2.41c1.516 5.36 5.313 9.376 9.182 13.236.89.891 1.778 1.783 2.694 2.702l2.932 2.91 3.105 3.106q4.2 4.199 8.41 8.385 4.402 4.386 8.797 8.78 8.319 8.309 16.648 16.606 9.483 9.453 18.958 18.914Q286.497 542.565 306 562l-4 8h-2c-1.414 1.573-2.756 3.211-4.062 4.875-3.048 3.813-6.143 7.523-9.438 11.125a234 234 0 0 0-9 10.5c-3.611 4.464-7.387 8.73-11.254 12.973-2.308 2.597-4.502 5.261-6.683 7.965-3.861 4.773-7.937 9.296-12.094 13.812-2.413 2.687-4.702 5.44-6.969 8.25a223 223 0 0 1-9.5 11c-4.11 4.465-7.962 9.08-11.773 13.8-2.89 3.505-5.922 6.866-8.989 10.216C208 677 208 677 206.788 678.747c-3.567 4.875-3.567 4.875-6.813 5.88-2.37.211-4.653.213-7.03.135l-2.607.008c-2.739.005-5.474-.035-8.213-.082-2.73-.032-5.46-.053-8.192-.051q-2.541 0-5.082-.063c-7.32-.027-12.727 2.277-18.081 7.266a208 208 0 0 0-2.958 3.097l-1.498 1.553q-1.394 1.445-2.772 2.904c-3.784 3.94-7.7 7.748-11.606 11.567a2612 2612 0 0 0-7.966 7.85q-2.095 2.064-4.201 4.118c-2.04 1.99-4.065 3.994-6.09 6l-1.893 1.832c-6.763 6.76-8.123 12.154-8.203 21.569l.019 3.611-.01 3.761c-.002 3.284.01 6.568.027 9.852.006 2.008 0 4.016-.01 6.025-.019 3.87-.016 7.741-.007 11.612l-.019 3.618.036 6.353c.793 5.905 3.86 9.693 7.973 13.802l2.811 2.83 3.03 3.003 3.12 3.121q3.261 3.26 6.534 6.505c2.794 2.771 5.577 5.554 8.356 8.34a2963 2963 0 0 0 6.442 6.428q1.541 1.536 3.08 3.077 2.151 2.148 4.314 4.286l2.476 2.462c7.455 6.59 18.29 5.134 27.66 4.968l3.194-.05q3.321-.055 6.641-.121c3.372-.063 6.745-.104 10.117-.145l6.485-.121 3.027-.029c12.636-.307 18.14-4.792 26.894-13.733q1.522-1.527 3.046-3.052 3.175-3.186 6.328-6.393c2.691-2.737 5.398-5.458 8.11-8.174q3.139-3.146 6.264-6.303 1.495-1.508 2.993-3.013 2.087-2.105 4.163-4.22l2.39-2.423c5.418-6.186 5.134-13.891 4.766-21.785l-.263-3.7c-1.396-21.417-1.396-21.417 3.38-27.245 3.065-2.897 6.462-5.154 10.092-7.285 2.903-1.767 5.325-3.907 7.896-6.13a208 208 0 0 1 11.699-8.87L308 732v-2l1.684-.746c2.76-1.494 4.97-3.305 7.378-5.317l2.965-2.46L323 719q2.56-2.097 5.125-4.187l4.233-3.469 3.541-2.895c8.39-6.854 16.698-13.779 24.858-20.905 4.375-3.814 8.837-7.501 13.348-11.153 4.263-3.521 8.429-7.152 12.594-10.787A563 563 0 0 1 398 656c3.474 1.491 5.709 3.466 8.364 6.137l2.626 2.626 2.856 2.887q1.512 1.519 3.026 3.036a3657 3657 0 0 1 6.504 6.54 5695 5695 0 0 0 10.287 10.335c7.905 7.929 15.8 15.867 23.694 23.806q10.851 10.915 21.719 21.816 5.118 5.133 10.223 10.28 3.177 3.197 6.362 6.388 1.476 1.482 2.946 2.968 2.009 2.027 4.029 4.044l2.274 2.288c3.513 3.109 6.299 4.151 10.965 4.224l2.492.086c5.78-1.012 10.001-5.566 14.056-9.546l1.53-1.495q2.475-2.427 4.938-4.87l1.714-1.693q4.485-4.432 8.955-8.881c3.067-3.05 6.154-6.08 9.247-9.104a1192 1192 0 0 0 7.123-7.06 450 450 0 0 1 3.412-3.353C578.376 706.712 578.376 706.712 579 698c-.338-8.614-6.76-14.046-12.522-19.75l-2.278-2.278a3625 3625 0 0 0-7.434-7.402l-5.162-5.153q-6.781-6.767-13.573-13.523c-4.622-4.602-9.238-9.21-13.855-13.816A32915 32915 0 0 0 497 609c2.654-4.226 5.368-7.532 9-11a1394 1394 0 0 0 3.857-3.85l4.586-4.577q12.82-12.795 25.635-25.6 7.747-7.738 15.498-15.474 6.784-6.769 13.563-13.544 3.579-3.577 7.162-7.15a7773 7773 0 0 0 7.997-7.99l2.365-2.354c3.305-3.311 6.532-6.635 9.57-10.194 5.254-6.092 11.054-11.676 16.751-17.349l3.93-3.925q4.213-4.207 8.428-8.41 6.675-6.655 13.34-13.317a87636 87636 0 0 1 30.724-30.667q14.089-14.057 28.17-28.121 6.621-6.614 13.248-13.22 4.129-4.119 8.255-8.242 1.904-1.902 3.812-3.802c11.643-11.593 11.643-11.593 16.75-17.628 2.239-2.612 4.672-5.023 7.117-7.441l1.548-1.544q2.406-2.398 4.819-4.788l3.246-3.233q2.982-2.97 5.97-5.936 2.462-2.447 4.917-4.904c3.084-3.082 6.178-6.153 9.273-9.223q9.701-9.63 19.385-19.277 5.846-5.826 11.708-11.637 5.688-5.64 11.357-11.3 2.154-2.145 4.315-4.281c18.648-18.446 18.648-18.446 21.016-31.147q.612-2.947 1.231-5.89l.685-3.335c1.35-6.381 2.848-12.729 4.328-19.081.981-4.215 1.952-8.431 2.924-12.647L856 196l.657-2.848c5.164-22.397 10.297-44.8 15.303-67.234l1.32-5.904q.914-4.087 1.822-8.174l.54-2.411c2.125-9.616 4.484-20.559 1.045-30.054C874.27 75.971 873.01 74.337 869 73c-7.05-.622-13.148.515-19.855 2.578" id="svg-layer-0" style="pointer-events: all; fill: none;"/><path fill="#09273A" d="M871.938 74.25c3.872 3.286 5.259 5.762 6.062 10.75.477 7.376-.328 14.24-1.875 21.438l-.649 3.132c-3.338 15.86-7.022 31.649-10.647 47.445a5418 5418 0 0 0-5.391 23.798 4978 4978 0 0 1-5.692 24.984l-.59 2.557q-1.469 6.377-2.959 12.75c-1.62 6.944-3.226 13.878-4.6 20.876l-.612 3.026a182 182 0 0 0-.962 5.19c-2.766 13.634-15.606 23.788-25.066 33.14l-4.369 4.356a5575 5575 0 0 1-11.441 11.367c-3.885 3.854-7.76 7.716-11.637 11.578q-9.386 9.346-18.788 18.675A3129 3129 0 0 0 763 339l-3.027 3.011q-4.467 4.441-8.929 8.89l-3.828 3.807a3717 3717 0 0 0-5.583 5.562l-1.7 1.683c-2.727 2.727-5.337 5.496-7.827 8.442-5.394 6.185-11.278 11.9-17.09 17.687l-3.93 3.925q-4.213 4.207-8.428 8.41-6.675 6.655-13.34 13.317a87636 87636 0 0 1-30.724 30.667 72780 72780 0 0 0-28.17 28.121q-6.621 6.614-13.248 13.22-4.129 4.119-8.255 8.242-1.904 1.902-3.812 3.802c-5.672 5.648-11.296 11.281-16.496 17.375-3.136 3.575-6.542 6.89-9.916 10.24l-2.422 2.417q-2.584 2.58-5.172 5.155a7890 7890 0 0 0-8.2 8.174q-9.435 9.416-18.88 18.824-9.355 9.32-18.7 18.65-4.025 4.014-8.055 8.023l-4.965 4.956-2.243 2.226A241 241 0 0 0 497 608c4.22 5.05 8.637 9.748 13.335 14.353l4.398 4.34 2.329 2.291c4.099 4.038 8.182 8.09 12.268 12.141a5676 5676 0 0 0 15.584 15.392 3037 3037 0 0 1 12.626 12.492q2.395 2.376 4.807 4.734a911 911 0 0 1 6.706 6.645l2.008 1.937c4.808 4.863 7.604 9.922 8.092 16.849-.15 10.064-12.578 18.414-19.196 25.037l-3.17 3.18q-3.3 3.307-6.603 6.61a3913 3913 0 0 0-8.443 8.474q-3.26 3.275-6.53 6.542-1.559 1.56-3.113 3.127a1127 1127 0 0 1-4.349 4.35l-2.493 2.497c-3.598 3.204-6.335 4.31-11.131 4.384l-2.492.086c-7.791-1.364-13.468-9.028-18.77-14.37q-1.521-1.524-3.046-3.046a4392 4392 0 0 1-8.224-8.25q-4.302-4.317-8.612-8.628-8.149-8.159-16.288-16.33-9.271-9.301-18.551-18.594A57987 57987 0 0 1 400 656c-4.025 1.883-7.12 4.524-10.437 7.438l-3.774 3.273-1.92 1.67c-2.791 2.418-5.61 4.801-8.432 7.182l-3.222 2.722-1.606 1.356a8326 8326 0 0 0-9.73 8.23q-4.103 3.47-8.2 6.95A1273 1273 0 0 1 332 712l-5.5 4.5-2.715 2.215a779 779 0 0 0-5.851 4.851l-2.997 2.496-2.722 2.286C310 730 310 730 308 730v2c-1.8 1.629-1.8 1.629-4.312 3.563l-2.782 2.171L298 740a419 419 0 0 0-7.896 6.501c-2.154 1.734-4.18 3.233-6.479 4.724-8.672 5.93-8.672 5.93-10.294 10.773-.88 5.39-.43 10.773-.019 16.19.124 2.41.228 4.822.324 7.234q.098 2.235.257 4.465c.433 7.04-.236 12.531-4.946 18.024Q266.996 809.977 265 812l-2.116 2.216c-4.958 5.165-10.017 10.233-15.062 15.313a1360 1360 0 0 0-5.513 5.594 1530 1530 0 0 1-8.024 8.115l-2.46 2.529c-8.32 8.29-14.677 9.672-26.227 9.78l-3.264.061q-3.403.06-6.805.1c-3.452.042-6.904.105-10.355.17q-3.32.056-6.639.106l-3.097.054c-4.435.047-8.859.029-13.284-.287l-2.005-.141c-5.27-1.496-9.224-5.432-13.021-9.207l-2.77-2.741-2.936-2.94-3.054-3.04a3002 3002 0 0 1-6.364-6.362c-2.71-2.717-5.433-5.422-8.158-8.124a2084 2084 0 0 1-6.29-6.277q-1.5-1.5-3.009-2.994a754 754 0 0 1-4.193-4.198l-2.408-2.406c-3.48-4.15-4.196-7.71-4.205-13.042l-.019-3.408.012-3.652-.005-3.777q-.001-4.959.017-9.917.005-3.034-.007-6.07c-.012-3.891-.01-7.782-.005-11.674l-.012-3.652.02-3.408c0-.987.002-1.973.004-2.99.355-3.82 1.175-6.6 3.853-9.407l1.91-1.526c5.078-4.24 9.693-8.874 14.354-13.564l2.77-2.773q3.608-3.616 7.211-7.236 3.675-3.69 7.353-7.373A18292 18292 0 0 0 156 689l1.567-1.693c3.643-3.323 8.542-2.335 13.124-2.237q2.652.016 5.303.024c2.778.008 5.55.03 8.327.108 16.254.425 16.254.425 21.065-3.59 2.506-2.752 4.573-5.507 6.614-8.612a134 134 0 0 1 3.438-3.875c3.43-3.942 6.797-7.937 10.168-11.93 10.239-12.123 20.637-24.108 31.04-36.09a4277 4277 0 0 0 20.374-23.625q3.05-3.565 6.117-7.117l3.113-3.613 1.51-1.75c3.712-4.329 7.26-8.768 10.717-13.305L300 570h2l.875-1.75L306 562l-1.663-1.649a25630 25630 0 0 1-40.035-39.79 11154 11154 0 0 0-19.36-19.242 6889 6889 0 0 1-16.873-16.78 2499 2499 0 0 0-8.936-8.877q-4.22-4.171-8.409-8.372a498 498 0 0 0-3.087-3.057c-11.102-10.905-11.102-10.905-11.852-19.772l.278-2.086.222-2.102c1.743-5.543 5.83-9.624 9.89-13.609l1.48-1.464q2.323-2.293 4.657-4.575c5.82-5.715 11.601-11.392 16.902-17.601 3.804-4.31 7.912-8.334 11.974-12.399l2.693-2.73 2.6-2.606 2.34-2.353c3.557-3.16 6.319-4.237 11.054-4.311l2.492-.086c6.566 1.15 11.307 6.862 15.797 11.413l2.091 2.096c2.271 2.278 4.535 4.562 6.8 6.847q2.379 2.388 4.76 4.775 6.258 6.282 12.507 12.573a18878 18878 0 0 0 19.996 20.092 6020 6020 0 0 1 6.952 6.997l4.308 4.327 1.924 1.945c3.803 3.812 7.729 7.42 11.814 10.928A74 74 0 0 1 353 464l2.781-2.816 3.719-3.747 1.82-1.845 1.836-1.846 1.65-1.666c1.797-1.703 3.623-3.292 5.51-4.891 6.239-5.454 11.996-11.408 17.825-17.29q1.995-2.009 3.992-4.015 4.326-4.352 8.648-8.707 7.035-7.088 14.076-14.169l15.168-15.26a41260 41260 0 0 1 37.627-37.815l2.753-2.763 22.44-22.524 21.651-21.732a37933 37933 0 0 0 46.606-46.877 25380 25380 0 0 1 49.363-49.59 9998 9998 0 0 0 29.51-29.688 4925 4925 0 0 1 20.257-20.334c3.902-3.896 7.794-7.802 11.66-11.734 3.547-3.607 7.12-7.185 10.716-10.742a327 327 0 0 0 3.836-3.886C695.696 120.546 704.195 116.27 717 113q2.31-.642 4.62-1.297a420 420 0 0 1 8.102-2.22 3024 3024 0 0 0 14.191-3.771l2.514-.672c9.12-2.443 18.212-4.987 27.3-7.548l2.478-.698q6.215-1.752 12.428-3.508 6.28-1.775 12.56-3.543 4.983-1.404 9.964-2.81l4.863-1.372c8.035-2.265 16.056-4.558 24.034-7.021l3.726-1.142q3.354-1.034 6.695-2.107c7.062-2.18 14.408-4.043 21.462-1.041M841.7 107.155l-2.731.774-3.001.86-3.146.894-6.77 1.928c-6.029 1.72-12.06 3.43-18.092 5.143l-3.758 1.067a11124 11124 0 0 1-34.922 9.856q-3.099.87-6.198 1.742-4.38 1.233-8.763 2.46l-2.82.792a545 545 0 0 1-14.7 3.887l-3.105.78q-2.904.725-5.816 1.417c-13.959 3.487-22.042 10.691-31.913 20.678q-2.103 2.1-4.209 4.196c-3.842 3.83-7.669 7.677-11.493 11.527-4.131 4.153-8.277 8.291-12.421 12.431a14190 14190 0 0 0-21.497 21.538 26525 26525 0 0 1-31.08 31.14 65167 65167 0 0 0-50.43 50.521 91549 91549 0 0 1-48.976 49.08l-1.526 1.528-15.175 15.194-30.91 30.952-1.436 1.438A221513 221513 0 0 0 372 484q1.415 1.935 2.84 3.863l1.597 2.173c1.922 2.415 4.093 4.127 6.563 5.964a433 433 0 0 1 5 5q1.752 1.755 3.505 3.505L420 533c6.497-5.348 12.388-11.26 18.316-17.219l3.393-3.397q3.636-3.641 7.27-7.287 5.752-5.773 11.513-11.538 13.264-13.285 26.52-26.577 12.152-12.184 24.312-24.36 5.717-5.724 11.426-11.454 3.564-3.574 7.13-7.143 1.644-1.647 3.285-3.296c5.195-5.22 10.418-10.342 16.014-15.135 3.132-2.742 6.05-5.692 8.984-8.643l2.018-2.018a5592 5592 0 0 0 6.518-6.535l4.571-4.575q5.99-5.996 11.974-11.998 6.088-6.101 12.18-12.2a45769 45769 0 0 0 19.664-19.702c9.726-9.75 9.726-9.75 13.682-13.622l4.043-3.988 2.1-2.05 1.982-1.962 1.807-1.776C640 315 640 315 640 313l1.716-.732c2.742-1.522 4.607-3.339 6.827-5.557l2.745-2.728 2.988-3 3.165-3.154q4.29-4.28 8.571-8.572 4.479-4.484 8.965-8.962a16215 16215 0 0 0 15.04-15.051q8.7-8.715 17.416-17.413 7.477-7.464 14.943-14.938 4.461-4.467 8.93-8.927 4.198-4.189 8.382-8.391 1.54-1.545 3.087-3.084a1168 1168 0 0 0 4.19-4.202l2.375-2.377C751 204 751 204 751 202h2c1.445-1.478 1.445-1.478 3.125-3.516 3.716-4.364 7.691-8.32 11.875-12.234l2.242-2.098c14.074-13.034 29.45-24.09 45.758-34.152l-1.766 2.43c-4.32 5.982-8.542 12-12.572 18.184-5.132 7.87-10.573 15.266-16.65 22.436C781 197.811 781 197.811 781 200l-3 1c-1.345 1.364-1.345 1.364-2.835 3.203-5.56 6.542-11.727 12.493-17.8 18.553l-4.189 4.19q-5.737 5.74-11.48 11.474-6.196 6.192-12.39 12.388-10.726 10.726-21.457 21.449a131839 131839 0 0 0-31.024 31.012 323903 323903 0 0 1-50.335 50.316 455026 455026 0 0 0-48.893 48.873l-1.523 1.522-45.985 45.973-1.432 1.432Q481.33 498.695 434 546a3969 3969 0 0 0 4.484 5.253c1.76 2.029 3.6 3.95 5.502 5.846l2.183 2.183 2.292 2.277 9.914 9.879 5.121 5.107Q469.744 582.776 476 589c3.352-2.616 6.272-5.215 9.007-8.473 4.835-5.586 10.091-10.75 15.325-15.957l3.398-3.393q3.637-3.633 7.279-7.261 5.766-5.747 11.525-11.501 13.268-13.248 26.544-26.488 12.174-12.141 24.34-24.292 5.718-5.71 11.442-11.414a9011 9011 0 0 0 7.134-7.12q1.644-1.64 3.29-3.28c5.298-5.272 10.523-10.554 15.339-16.278 1.902-2.131 4.15-3.76 6.377-5.543a168 168 0 0 0 3.198-3.66c3.55-4.099 7.283-7.956 11.126-11.778l2.132-2.132q3.506-3.503 7.017-7l5.052-5.049q5.425-5.42 10.855-10.836 7.862-7.843 15.716-15.693 12.765-12.754 25.534-25.502l1.541-1.54 23.2-23.16 1.538-1.536q12.724-12.704 25.443-25.413 8.528-8.52 17.062-17.034 5.313-5.301 10.621-10.607 2.457-2.454 4.916-4.905 3.365-3.356 6.725-6.717l1.951-1.94a211 211 0 0 0 10.836-11.747c2.832-3.226 5.991-6.117 9.107-9.063 6.015-6.654 8.44-13.162 10.262-21.868l.72-3.25c.767-3.48 1.514-6.962 2.26-10.445q.795-3.624 1.595-7.248 1.198-5.42 2.384-10.84c2.054-9.392 4.222-18.75 6.459-28.1 3.183-13.359 6.19-26.754 9.138-40.168l.485-2.205q.647-2.945 1.293-5.89a282 282 0 0 1 1.93-7.953c.758-3.119 1.102-5.547.904-8.721-2.31 0-4.074.52-6.299 1.155M257.14 413.617l-2.245 2.258-2.483 2.488-2.6 2.637-2.54 2.543C240.463 430.399 234.172 437.577 228 445l1.396 1.389q7.231 7.2 14.455 14.407 2.692 2.685 5.386 5.365 3.887 3.87 7.767 7.745l2.41 2.394c4.194 4.194 8.23 8.464 12.086 12.972 2.266 2.611 4.677 5.037 7.125 7.478l2.727 2.734C284 502 284 502 286.398 503.828c2.17 1.81 3.778 3.478 5.584 5.616 4.723 5.449 9.819 10.52 14.913 15.618l3.116 3.127q3.242 3.25 6.488 6.495 4.164 4.166 8.315 8.346a3349 3349 0 0 0 6.416 6.429 1364 1364 0 0 1 3.068 3.081c1.42 1.43 2.845 2.851 4.272 4.273l2.452 2.457C343 561 343 561 345 561l.668 1.691c1.756 3.044 4.008 4.93 6.644 7.246 3.14 2.77 6.209 5.558 9.16 8.527a1493 1493 0 0 0 5.381 5.373q5.977 5.951 11.948 11.909 2.567 2.56 5.137 5.117a6696 6696 0 0 1 7.46 7.438l2.296 2.28a233 233 0 0 1 11.82 12.703c2.785 3.217 5.793 6.207 8.798 9.216.62.632 1.24 1.263 1.877 1.914l1.8 1.805 1.61 1.623C421 639 421 639 423 639c.26.598.52 1.196.79 1.813 1.3 2.35 2.508 3.505 4.585 5.187 3.731 3.16 7.231 6.484 10.688 9.938l1.46 1.447a131 131 0 0 1 7.294 7.93c5.73 6.568 11.981 12.648 18.14 18.81l4.059 4.069q4.23 4.238 8.464 8.472 5.436 5.437 10.858 10.888 4.176 4.191 8.362 8.374 2.005 2.007 4.006 4.02c1.854 1.864 3.716 3.723 5.578 5.58.277.278.277.278 1.674 1.69C512.772 731 512.772 731 515 731c3.502-3.266 6.675-6.816 9.875-10.375 6.773-7.472 13.948-14.543 21.125-21.625-1.642-4.187-4.716-6.994-7.846-10.1l-1.832-1.841q-3.046-3.055-6.103-6.099l-4.366-4.376q-5.932-5.943-11.875-11.875c-4.14-4.134-8.274-8.274-12.41-12.412q-10.415-10.42-20.841-20.831a25051 25051 0 0 1-24.12-24.124q-10.337-10.35-20.683-20.688-6.186-6.18-12.365-12.367-5.805-5.813-11.622-11.613a2445 2445 0 0 1-4.274-4.276 2062 2062 0 0 0-5.817-5.806l-1.724-1.737C396.228 547 396.228 547 394 547l-.781-1.766c-1.317-2.414-2.77-4.051-4.719-5.984l-1.844-1.86C385 536 385 536 383 536l-1-3c-1.542-1.521-1.542-1.521-3.52-3.148-4.632-3.932-8.898-8.158-13.168-12.477l-2.22-2.234a3157 3157 0 0 1-4.09-4.124c-3.92-3.95-7.864-7.876-11.81-11.8q-3.79-3.77-7.575-7.545l-3.973-3.953q-2.9-2.881-5.792-5.77l-1.766-1.75c-2.858-2.857-5.598-5.76-8.224-8.833-5.202-6.01-10.891-11.56-16.507-17.178l-3.654-3.666a8364 8364 0 0 0-7.618-7.624q-4.89-4.893-9.768-9.8-3.76-3.773-7.528-7.54-1.804-1.806-3.604-3.617a1504 1504 0 0 0-5.018-5.02l-1.504-1.52c-4.474-4.433-4.474-4.433-7.521-1.784M324 585q-2.1 2.275-4.187 4.563l-2.356 2.566a88 88 0 0 0-5.11 6.55l-1.34 1.89L310 602q5.97 6.007 11.95 12.006 2.03 2.036 4.056 4.076c13.685 13.77 13.685 13.77 19.478 18.564 1.695 1.514 3.09 3.15 4.516 4.917 3.16 3.858 6.945 6.584 11 9.437q3.443-2.9 6.875-5.812l1.973-1.659 1.894-1.611 1.746-1.476C375 639 375 639 377 636q-8.805-8.876-17.63-17.734a5147 5147 0 0 1-8.189-8.235 3557 3557 0 0 0-7.916-7.956 1194 1194 0 0 1-3.006-3.027C335.116 593.85 330.14 588.995 324 585m-28 32c-1.48 1.61-2.885 3.291-4.25 5l-2.266 2.813c-2.895 3.678-5.69 7.432-8.484 11.187a4946 4946 0 0 0 8.5 8.563l2.398 2.423c3.598 3.613 7.2 7.161 11.07 10.483 4.93 4.235 9.462 8.853 14.032 13.468a4216.009 4216.009 0 0 1 9 9.063c4.322-2.017 7.633-4.81 11.25-7.875l1.969-1.605 1.86-1.575 1.7-1.421C344 666 344 666 344 662c-1.275-1.763-1.275-1.763-3.086-3.556l-2.045-2.054-2.244-2.19-2.297-2.287c-2.433-2.418-4.88-4.822-7.328-7.226q-2.43-2.41-4.855-4.826a6654 6654 0 0 0-6.902-6.834 249 249 0 0 0-12.497-11.491C301 620 301 620 299.396 618.302 298 617 298 617 296 617m-31.172 36.125L262.25 656l-2.547 2.813c-3.056 3.603-5.868 7.407-8.703 11.187l39 39c4.392-1.757 6.113-2.733 9.375-5.812 3.705-3.407 7.467-6.357 11.625-9.188-1.343-2.99-2.829-5.078-5.145-7.388l-1.933-1.943-2.09-2.067-2.16-2.16q-2.266-2.26-4.537-4.513a2424 2424 0 0 1-6.887-6.866l-4.416-4.399-2.059-2.055c-13.239-13.11-13.239-13.11-16.945-9.484M238 685a1451 1451 0 0 0-5.437 5.813l-1.565 1.658c-2.309 2.49-3.912 4.27-4.998 7.529l2.507 2.491q4.622 4.595 9.236 9.197 1.995 1.988 3.992 3.972 2.879 2.86 5.75 5.727l1.793 1.777c3.137 3.137 5.958 6.358 8.722 9.836 1.898 1.074 1.898 1.074 4 1 2.727-1.73 2.727-1.73 5.625-4.187l2.914-2.418c2.238-2.178 3.197-3.63 4.461-6.395q-6.693-6.731-13.397-13.452l-4.554-4.574q-3.277-3.294-6.56-6.583l-2.044-2.059c-3.336-3.337-6.673-6.477-10.445-9.332m-87.206 45.576c-3.93 5.31-8.429 10.203-13.107 14.861l-1.988 1.997C134 749 134 749 132 750c-2.806 16.675-5.174 35.171 4.43 50.036 9.6 13.2 22.596 26.15 39.17 29.118 4.817.592 9.551.75 14.4.659l2.786-.048c9.234-.334 16.621-1.345 23.652-7.628A162 162 0 0 0 221 817c3.107-3.245 6.245-6.014 9.863-8.668 9.272-7.374 16.766-15.62 18.775-27.662 1.377-12.513-2.255-21.606-9.812-31.561-12.349-15.206-29.707-35.844-49.914-38.91-17.058-1.431-29.259 6.985-39.118 20.377" id="svg-layer-1" style="pointer-events: all;"/><path fill="#F0E5CA" d="M848 106c-.718 7.143-2.262 14.01-3.875 21l-.92 4.036a6915 6915 0 0 1-2.623 11.434q-1.889 8.212-3.772 16.428a8909 8909 0 0 1-3.468 15.073 2118 2118 0 0 0-7.283 32.69l-2.174 10.032q-.69 3.213-1.36 6.43a976 976 0 0 1-1.92 8.967l-.529 2.645c-2.242 10.044-8.22 16.875-15.514 23.827-3.755 3.626-7.444 7.235-10.838 11.206-3.532 4.063-7.248 7.893-11.062 11.69l-2.136 2.139a6538 6538 0 0 1-7.03 7.02l-5.063 5.064q-6.141 6.141-12.288 12.278-7.164 7.155-14.324 14.314-12.778 12.774-25.56 25.542-12.393 12.38-24.782 24.76l-1.543 1.543-7.664 7.66a292072 292072 0 0 1-52.812 52.773l-2.25 2.248-4.095 4.091-1.833 1.83-1.702 1.7-4.412 4.414a578 578 0 0 1-3.941 3.904c-2.878 2.829-5.636 5.698-8.244 8.777-4.848 5.567-10.102 10.728-15.33 15.93l-3.403 3.399a9025 9025 0 0 1-7.29 7.27q-5.771 5.754-11.537 11.514a60303 60303 0 0 1-24.485 24.435 58476 58476 0 0 0-26.45 26.396q-5.726 5.718-11.458 11.43-3.57 3.558-7.137 7.123l-3.296 3.286C487.177 577.69 481.863 583.092 477 589c-5.473-4.561-10.54-9.407-15.559-14.46l-2.391-2.397a7364 7364 0 0 1-7.488-7.518l-5.107-5.121Q440.224 553.256 434 547c3.822-4.567 7.774-8.917 11.996-13.116l1.743-1.746q2.879-2.88 5.763-5.753l4.181-4.182q5.735-5.734 11.475-11.462 6.192-6.185 12.38-12.373 10.72-10.716 21.446-21.427 15.51-15.493 31.014-30.991l14.452-14.445 1.46-1.46q17.207-17.197 34.415-34.39l1.52-1.52 47.352-47.311 1.521-1.52 34.38-34.356 1.458-1.458 14.413-14.406q16.184-16.178 32.374-32.349 10.596-10.583 21.186-21.17 6.117-6.116 12.238-12.226 5.597-5.587 11.187-11.18 2.03-2.029 4.062-4.055 2.748-2.743 5.492-5.491l1.617-1.609c2.239-2.248 4.107-4.352 5.875-7.004h2l.688-1.621c1.37-2.483 3.019-4.531 4.842-6.694 6.638-7.89 12.401-16.294 18.095-24.873l1.215-1.825c7.258-10.928 7.258-10.928 9.16-14.987q-5.008 3.488-10 7l-1.687 1.184C791.952 166.175 781.243 174.597 771 184q-1.671 1.515-3.344 3.027l-3.468 3.16-1.635 1.476c-2.655 2.435-5.06 4.886-7.315 7.7L753 202h-2l-.732 1.716c-1.522 2.742-3.339 4.607-5.557 6.827l-2.728 2.745-3 2.988-3.154 3.165a4481 4481 0 0 1-8.572 8.571q-4.484 4.479-8.962 8.965a16215 16215 0 0 1-15.051 15.04q-8.715 8.7-17.413 17.416-7.464 7.478-14.938 14.943-4.466 4.461-8.927 8.93-4.189 4.198-8.391 8.382-1.545 1.54-3.084 3.087a1168 1168 0 0 1-4.202 4.19l-2.377 2.375C642 313 642 313 640 313l-.8 1.786c-1.246 2.298-2.546 3.803-4.395 5.64l-1.922 1.916-2.008 1.97-1.937 1.936c-3.124 3.095-6.3 6.072-9.631 8.943-3.978 3.476-7.747 7.113-11.47 10.858l-2.018 2.018a5592 5592 0 0 0-6.518 6.535l-4.571 4.575q-5.99 5.996-11.974 11.998-6.088 6.101-12.18 12.2a45769 45769 0 0 0-19.664 19.702l-1.745 1.75-1.497 1.5q-3.333 3.339-6.67 6.673l-2.49 2.49L421 533q-1.656-1.406-3.31-2.815l-1.86-1.584c-2.766-2.42-5.343-5.01-7.92-7.628l-1.661-1.673q-3.465-3.492-6.922-6.993c-5.769-5.831-11.5-11.607-17.751-16.927-2.045-1.79-3.826-3.74-5.576-5.817l-1.75-2.06L373 486c1.615-4.032 4.463-6.75 7.486-9.757l1.723-1.739c1.918-1.932 3.844-3.858 5.77-5.783l4.157-4.182q5.727-5.759 11.466-11.505 6.18-6.198 12.353-12.404c9.947-9.99 19.904-19.972 29.862-29.953q5.625-5.636 11.247-11.274a101999 101999 0 0 1 61.727-61.84l1.524-1.525a41644 41644 0 0 0 48.847-48.996q25.096-25.212 50.242-50.374c9.872-9.877 19.737-19.76 29.58-29.665q11.97-12.046 23.991-24.039c4.089-4.078 8.169-8.164 12.23-12.269a1592 1592 0 0 1 11.223-11.227 482 482 0 0 0 4.034-4.066c8.268-8.424 14.856-13.48 26.538-16.402l3.29-.915c3.018-.834 6.048-1.591 9.089-2.339a1171 1171 0 0 0 30.273-8.086l2.013-.566q6.113-1.723 12.225-3.452 4.089-1.156 8.179-2.308c11.373-3.204 22.745-6.412 34.1-9.682l3.932-1.13q3.7-1.067 7.4-2.139l3.306-.952 2.904-.84C846 106 846 106 848 106" id="svg-layer-2" style="pointer-events: all;"/><path fill="#CF7615" d="M259 412c4.042 1.615 6.754 4.48 9.759 7.516l1.712 1.706c1.865 1.861 3.722 3.73 5.58 5.598l3.9 3.903a5326 5326 0 0 1 8.174 8.196q5.208 5.231 10.43 10.45 4.031 4.033 8.058 8.071 1.92 1.925 3.843 3.849c11.707 11.721 11.707 11.721 17.087 18.03 2.352 2.713 4.884 5.232 7.434 7.755l1.615 1.612a3233 3233 0 0 0 5.033 5.002l3.39 3.376q3.115 3.103 6.234 6.2c4.258 4.234 8.498 8.486 12.728 12.748l4.208 4.228q1.446 1.455 2.891 2.912 2.104 2.12 4.213 4.235l2.522 2.538C380 532 380 532 383 534v2l1.766.781c2.414 1.317 4.051 2.77 5.984 4.719l1.86 1.844C394 545 394 545 394 547l1.619.634c3.32 1.904 5.81 4.526 8.48 7.225l1.842 1.837c2.038 2.034 4.069 4.076 6.099 6.117l4.376 4.375q5.944 5.944 11.875 11.9c4.134 4.147 8.273 8.287 12.412 12.428a37696 37696 0 0 1 23.502 23.545q13.374 13.405 26.756 26.8Q518.49 669.42 546 697c-1.707 3.64-3.739 5.97-6.613 8.809l-2.783 2.763-2.917 2.865-2.88 2.854q-2.67 2.641-5.343 5.277L523 722l-2.7 2.664A49 49 0 0 0 515 731c-4.282-1.655-7.146-4.873-10.31-8.067l-1.889-1.883c-2.06-2.056-4.112-4.12-6.164-6.183l-4.305-4.306q-4.514-4.517-9.02-9.043a7088 7088 0 0 0-11.52-11.54q-4.449-4.45-8.892-8.905l-4.244-4.25c-13.383-13.398-13.383-13.398-18.334-19.276-2.358-2.76-4.934-5.304-7.51-7.86l-1.537-1.548c-2.124-2.12-4.215-4.095-6.638-5.87L423 641v-2l-1.745-.76c-2.561-1.409-4.277-3.02-6.337-5.092l-2.326-2.332c-.794-.805-1.587-1.61-2.404-2.441l-2.37-2.371c-3.487-3.514-6.88-7.058-10.115-10.806-3.642-4.185-7.493-8.116-11.43-12.022l-2.153-2.15q-3.37-3.36-6.745-6.713l-4.547-4.534q-5.075-5.061-10.16-10.116a1382 1382 0 0 1-4.453-4.464c-3.517-3.491-7.268-6.717-10.985-9.992L345 563v-2l-1.683-.698c-2.954-1.66-4.994-3.732-7.39-6.131a1488.836 1488.836 0 0 1-6.334-6.346l-3.384-3.387a3996 3996 0 0 1-7.08-7.104 4375 4375 0 0 0-9.059-9.078q-3.495-3.496-6.985-6.998-1.668-1.674-3.34-3.345-2.34-2.345-4.673-4.695l-2.682-2.694c-2.283-2.411-4.337-4.917-6.39-7.524a79 79 0 0 0-3.562-3.125c-3.47-2.972-6.767-6.087-10-9.312l-2.63-2.622c-2.09-2.143-4.054-4.367-6.003-6.639-3.666-4.201-7.532-8.157-11.489-12.083l-2.122-2.118q-3.313-3.303-6.631-6.601l-4.53-4.516A11762 11762 0 0 0 228 445c6.254-7.347 6.254-7.347 9.516-10.832l1.84-1.967 1.894-2.014 1.975-2.103A557 557 0 0 1 259 412M196.789 711.856c18.988 6.74 41.65 30.934 50.51 48.758 3.65 9.256 3.444 18.41.383 27.785-4.521 9.68-11.914 16.38-20.34 22.803-3.437 2.639-6.405 5.66-9.157 9.003-7.267 7.862-15.049 9.067-25.323 9.485-17.909.384-30.39-2.864-43.75-15.296-11.825-11.667-19.256-22.579-19.87-39.535.02-20.949.02-20.949 4.585-27.469 1.973-1.746 3.9-3.07 6.173-4.39 3.94-3.711 7.675-7.569 11.188-11.687l1.804-1.95c1.615-1.9 2.831-3.66 4.14-5.758 8.707-12.56 25.522-15.54 39.657-11.749" id="svg-layer-3" style="pointer-events: all;"/><path fill="#908E8D" d="M296 617c3.007 1.34 4.998 2.798 7.25 5.188 2.358 2.491 4.828 4.76 7.427 6.993 4.053 3.536 7.88 7.247 11.667 11.065l1.983 1.988a4969 4969 0 0 1 6.173 6.203q2.113 2.121 4.227 4.24Q339.867 657.837 345 663c-1.716 3.705-3.725 5.797-6.812 8.5l-2.583 2.281A267 267 0 0 1 328 680c-3.85-1.58-6.246-4.031-9.14-6.98l-1.473-1.489q-2.324-2.354-4.637-4.718-3.034-3.09-6.078-6.168l-1.49-1.508c-3.344-3.356-6.8-6.515-10.404-9.588-2.897-2.524-5.584-5.248-8.278-7.986l-1.625-1.64A1839 1839 0 0 1 281 636c4.768-6.526 9.85-12.774 15-19M324 585c6.928 4.76 12.731 10.47 18.625 16.43l2.992 3q3.902 3.916 7.793 7.842 3.988 4.017 7.985 8.025Q369.205 628.14 377 636c-3.372 4.13-6.609 7.532-10.812 10.875l-2.958 2.367L361 651a234 234 0 0 1-3.562-2.5l-2.004-1.406c-2.17-1.866-3.906-3.726-5.762-5.89-3.386-3.948-7.019-7.457-10.86-10.954-9.89-9.128-19.344-18.687-28.812-28.25 3.303-4.487 6.63-8.867 10.375-13l2.086-2.312zM267 651c3.955 1.627 6.79 4.35 9.855 7.242l1.712 1.599c6.09 5.72 12.042 11.582 17.95 17.49a1740 1740 0 0 0 5.52 5.481l3.514 3.508 1.666 1.645C311 691.77 311 691.77 311 694a151 151 0 0 1-6.687 5.375l-3.762 2.898-1.826 1.398A382 382 0 0 0 292 709c-3.227-1.419-5.373-3.129-7.85-5.624-.741-.74-1.482-1.48-2.244-2.244l-2.39-2.421-2.472-2.48a4051 4051 0 0 1-7.794-7.856l-5.293-5.32A7936 7936 0 0 1 251 670q1.435-1.934 2.874-3.864l1.617-2.174a47.6 47.6 0 0 1 5.196-5.712c2.36-2.281 4.46-4.524 6.313-7.25M238 685c4.986 4.178 9.667 8.531 14.246 13.148l1.988 1.993q3.105 3.114 6.203 6.234l4.24 4.254Q269.843 715.81 275 721c-1.82 4.025-4.148 6.001-7.625 8.75l-3.04 2.422L262 734c-4.44-1.394-6.551-3.373-9.562-6.875-5.462-6.208-11.265-12.045-17.125-17.875l-2.759-2.746A4889 4889 0 0 0 226 700c2.245-3.854 4.663-7.025 7.688-10.312l2.449-2.676z" id="svg-layer-4" style="pointer-events: all;"/><path fill="#05141E" d="m155 688 2 1-49 49c0-3 0-3 1.105-4.466l1.57-1.55 1.77-1.77 1.942-1.894 1.982-1.969c2.099-2.082 4.209-4.154 6.319-6.226l4.208-4.168q3.885-3.848 7.782-7.683 4.18-4.118 8.322-8.274z" id="svg-layer-5" style="pointer-events: all;"/></svg>