<svg id="svg" version="1.1" width="400" height="400" viewBox="0 0 400 400" xmlns="http://www.w3.org/2000/svg" xmlns:xlink="http://www.w3.org/1999/xlink"><g id="svgg"><path id="path0" d="M140.966 35.412 C 140.551 35.912,140.430 37.806,140.430 43.751 C 140.430 49.696,140.551 51.589,140.966 52.089 C 141.747 53.029,149.197 53.022,150.793 52.079 C 152.496 51.073,153.192 51.864,153.045 54.636 L 152.930 56.803 148.047 57.888 C 137.056 60.332,130.623 62.805,127.516 65.782 L 125.781 67.444 125.781 73.698 C 125.781 77.138,125.890 83.716,126.022 88.316 L 126.263 96.680 128.854 99.161 L 131.445 101.642 131.550 109.553 L 131.654 117.464 128.879 117.696 C 124.809 118.038,125.000 117.591,125.000 126.758 C 125.000 135.889,124.818 135.456,128.727 135.625 L 131.445 135.742 131.544 198.405 C 131.638 257.650,131.606 261.111,130.958 261.851 C 130.307 262.594,130.307 262.620,130.957 262.383 C 131.866 262.052,131.835 262.743,130.842 264.988 C 123.466 281.663,200.667 291.695,248.011 280.215 C 264.434 276.233,271.120 271.466,269.536 264.865 C 268.838 261.953,269.151 261.819,271.547 264.010 C 277.517 269.466,274.532 276.213,263.829 281.454 C 231.063 297.499,146.669 294.343,128.731 276.401 C 125.377 273.046,124.488 269.650,126.220 266.808 C 126.851 265.774,126.890 265.582,126.386 266.000 C 124.275 267.752,123.063 272.815,123.054 279.920 C 123.045 286.342,123.128 286.240,117.388 286.887 C 111.803 287.517,112.028 287.185,112.088 294.683 C 112.155 302.905,111.994 302.713,118.847 302.768 L 122.633 302.799 122.882 304.127 C 123.558 307.730,128.584 310.921,138.818 314.245 L 145.117 316.291 145.234 319.176 C 145.390 323.029,145.796 323.422,151.061 324.818 C 156.732 326.321,156.641 326.196,156.641 332.465 L 156.641 337.587 155.308 337.337 C 153.450 336.988,142.600 333.745,142.305 333.451 C 142.172 333.318,142.033 330.351,141.997 326.858 L 141.932 320.508 140.204 320.227 C 139.254 320.073,136.404 319.698,133.872 319.395 C 127.148 318.588,122.016 315.692,120.659 311.939 L 120.214 310.708 114.111 312.124 C 101.828 314.974,102.734 313.914,102.734 325.430 C 102.734 335.955,101.663 334.558,111.523 336.889 C 115.820 337.905,120.830 339.128,122.656 339.607 L 125.977 340.479 126.172 349.713 C 126.285 355.082,126.531 359.106,126.758 359.327 C 127.148 359.707,130.927 360.424,146.977 363.165 L 155.478 364.616 158.110 363.319 C 159.558 362.606,163.422 360.551,166.697 358.754 L 172.653 355.486 184.080 355.902 C 190.849 356.148,202.063 356.208,211.588 356.051 L 227.668 355.785 234.049 359.218 C 242.969 364.017,243.821 364.427,244.903 364.441 C 245.828 364.453,262.544 361.610,269.727 360.220 L 273.242 359.539 273.506 357.797 C 273.651 356.839,273.783 352.510,273.799 348.178 L 273.828 340.301 280.566 338.688 C 284.272 337.802,289.238 336.620,291.602 336.063 C 297.670 334.632,297.333 335.303,297.189 324.971 C 297.039 314.206,297.578 314.848,286.523 312.289 C 279.514 310.667,279.889 310.679,279.320 312.054 C 277.486 316.480,271.559 319.239,262.727 319.775 C 257.604 320.087,257.812 319.765,257.813 327.372 L 257.813 333.502 254.395 334.578 C 249.882 335.999,244.464 337.500,243.850 337.500 C 243.233 337.500,243.151 328.072,243.759 326.936 C 244.000 326.486,245.050 325.942,246.396 325.570 C 255.027 323.185,254.418 323.642,254.688 319.354 L 254.883 316.246 260.547 314.549 C 270.160 311.669,275.565 308.558,277.344 304.882 C 277.812 303.916,278.399 303.113,278.648 303.097 C 287.740 302.541,287.550 302.701,287.731 295.449 C 287.927 287.627,287.963 287.676,281.316 286.778 C 276.964 286.191,277.042 286.341,276.871 278.190 C 276.686 269.393,276.182 267.854,272.244 264.063 L 269.607 261.523 269.504 249.805 C 269.447 243.359,269.435 207.148,269.476 169.336 L 269.551 100.586 271.518 99.252 C 274.566 97.184,274.478 97.654,274.798 81.717 L 275.083 67.536 273.456 65.989 C 267.594 60.412,249.354 56.035,222.852 53.846 C 214.658 53.169,184.271 53.192,174.805 53.882 C 170.723 54.180,167.295 54.399,167.188 54.368 C 167.080 54.338,166.887 52.947,166.757 51.278 C 166.113 42.947,162.642 38.946,155.147 37.896 C 152.633 37.543,152.130 37.329,150.999 36.130 L 149.712 34.766 145.607 34.766 C 142.263 34.766,141.403 34.885,140.966 35.412 M153.711 67.625 C 156.498 68.637,163.078 68.611,166.016 67.578 C 169.384 66.393,171.484 67.131,171.484 69.499 C 171.484 74.468,151.423 75.417,148.265 70.597 C 147.158 68.907,149.362 65.933,151.172 66.676 C 151.494 66.808,152.637 67.235,153.711 67.625 M102.153 67.478 C 99.710 67.727,99.609 67.939,99.609 72.877 C 99.609 78.802,99.143 78.516,108.789 78.516 C 118.390 78.516,117.971 78.762,117.963 73.122 C 117.956 68.195,117.843 67.952,115.372 67.546 C 113.451 67.230,105.009 67.187,102.153 67.478 M250.616 70.655 C 248.795 73.601,197.969 78.605,194.188 76.210 C 192.680 75.254,194.420 75.000,202.471 75.000 C 217.434 75.000,230.300 73.776,243.041 71.140 C 249.748 69.752,251.233 69.657,250.616 70.655 M150.123 81.203 C 161.344 83.441,177.951 85.026,193.945 85.384 C 199.102 85.500,203.716 85.675,204.199 85.773 L 205.078 85.952 205.078 96.094 L 205.078 106.235 204.038 106.496 C 200.694 107.336,172.548 106.092,162.500 104.661 C 151.174 103.048,136.048 98.849,135.453 97.154 C 135.180 96.376,135.077 78.764,135.341 78.087 C 135.556 77.536,136.095 77.614,139.888 78.741 C 142.255 79.444,146.861 80.552,150.123 81.203 M264.365 89.376 L 264.472 96.135 263.384 97.223 C 260.673 99.934,243.175 103.981,230.002 104.944 L 226.606 105.192 226.330 104.094 C 225.993 102.749,226.472 88.997,226.870 88.598 C 227.028 88.441,229.615 88.123,232.621 87.891 C 243.477 87.054,255.469 85.054,260.547 83.235 C 264.396 81.855,264.242 81.607,264.365 89.376 M258.008 88.702 C 256.860 89.049,248.890 90.702,245.996 91.193 L 244.531 91.442 244.531 94.744 C 244.531 97.910,244.568 98.047,245.410 98.044 C 246.486 98.040,254.476 96.056,257.422 95.061 L 259.570 94.336 259.684 91.309 C 259.747 89.644,259.659 88.296,259.489 88.315 C 259.319 88.333,258.652 88.508,258.008 88.702 M231.934 92.457 C 231.248 92.636,231.128 93.500,231.072 98.633 L 231.055 100.195 233.008 100.069 C 234.082 100.000,235.576 99.818,236.328 99.664 L 237.695 99.384 237.808 95.786 L 237.920 92.188 235.269 92.233 C 233.810 92.258,232.310 92.359,231.934 92.457 M260.060 188.787 C 260.170 274.207,260.434 266.504,257.310 268.807 C 239.424 281.993,153.220 281.168,141.392 267.698 L 140.234 266.379 140.234 211.315 C 140.234 181.029,140.326 156.250,140.438 156.250 C 140.550 156.250,141.303 156.688,142.111 157.222 C 145.111 159.207,154.533 162.071,160.254 162.737 L 162.500 162.998 162.500 152.398 C 162.500 146.567,162.411 141.797,162.303 141.797 C 158.120 141.797,143.359 146.588,140.918 148.738 C 140.268 149.310,140.234 148.478,140.234 131.896 C 140.234 122.303,140.334 114.453,140.456 114.453 C 140.578 114.453,141.237 114.877,141.921 115.396 C 144.978 117.714,157.403 121.479,162.012 121.484 C 162.371 121.484,162.500 120.404,162.500 117.383 L 162.500 113.281 165.723 113.286 C 167.495 113.288,169.604 113.399,170.410 113.532 L 171.875 113.774 171.875 118.197 L 171.875 122.621 173.145 122.827 C 191.402 125.791,234.299 123.773,246.802 119.362 L 248.438 118.785 248.438 131.895 C 248.438 142.847,248.349 144.972,247.901 144.800 C 242.632 142.778,233.919 141.138,222.266 139.974 C 211.000 138.849,174.308 139.233,172.168 140.498 C 172.007 140.593,171.875 146.003,171.875 152.520 L 171.875 164.368 172.754 164.586 C 185.043 167.624,233.902 165.199,246.291 160.937 L 248.438 160.198 248.466 205.978 C 248.482 231.157,248.469 253.065,248.438 254.662 C 248.408 256.259,248.506 259.898,248.657 262.748 L 248.931 267.930 250.735 267.011 C 252.907 265.906,254.056 264.734,254.864 262.800 C 255.403 261.511,255.469 253.199,255.469 186.712 L 255.469 112.070 257.715 112.188 L 259.961 112.305 260.060 188.787 M180.087 181.713 C 174.617 185.430,176.871 193.359,183.398 193.359 C 189.503 193.359,192.232 185.594,187.387 182.009 C 185.506 180.616,181.916 180.471,180.087 181.713 M209.509 195.320 C 197.145 197.830,198.289 215.250,210.864 215.946 C 224.695 216.710,226.439 196.947,212.695 195.191 C 211.836 195.081,210.402 195.139,209.509 195.320 M189.535 224.497 C 183.851 225.585,184.861 234.615,190.714 235.047 C 197.143 235.523,198.804 226.333,192.600 224.609 C 191.169 224.211,191.047 224.207,189.535 224.497 M127.296 289.200 C 128.017 290.070,128.058 298.278,127.344 298.985 C 126.271 300.047,122.877 300.221,121.919 299.263 C 120.776 298.120,120.528 291.192,121.584 289.919 C 122.610 288.682,126.464 288.198,127.296 289.200 M277.945 289.622 C 279.362 290.551,279.437 298.412,278.038 299.392 C 276.560 300.427,273.465 300.020,272.565 298.672 C 271.653 297.306,272.429 289.729,273.560 288.957 C 274.233 288.496,276.827 288.890,277.945 289.622 M160.547 296.915 C 170.200 297.493,169.533 296.936,169.525 304.404 C 169.518 311.259,169.766 310.630,166.121 313.033 C 162.471 315.438,161.722 315.625,155.764 315.625 C 148.823 315.625,149.219 316.188,149.219 306.325 C 149.219 298.266,149.296 297.855,150.977 296.935 C 151.962 296.396,151.897 296.397,160.547 296.915 M249.240 296.887 C 250.896 297.773,251.172 299.166,251.172 306.639 C 251.172 315.888,251.368 315.626,244.451 315.623 C 238.593 315.620,237.744 315.394,233.789 312.789 L 230.664 310.730 230.552 305.267 C 230.383 297.045,229.759 297.691,238.477 297.055 C 246.910 296.439,248.362 296.416,249.240 296.887 M155.038 301.270 C 153.238 302.463,151.822 305.351,152.159 307.145 C 153.565 314.641,164.648 314.020,164.648 306.445 C 164.648 301.631,159.047 298.614,155.038 301.270 M238.277 301.270 C 233.069 304.814,235.344 312.500,241.602 312.500 C 247.927 312.500,250.101 304.070,244.537 301.114 C 242.631 300.101,239.895 300.169,238.277 301.270 M160.214 303.546 C 163.144 305.115,161.632 309.766,158.192 309.766 C 157.011 309.766,155.078 307.705,155.078 306.445 C 155.078 304.178,158.152 302.443,160.214 303.546 M244.043 304.514 C 246.649 307.475,242.523 311.312,239.483 308.754 C 237.870 307.397,237.866 305.824,239.469 304.221 C 240.898 302.792,242.625 302.903,244.043 304.514 M185.156 321.512 C 198.539 322.200,219.422 321.727,230.379 320.487 L 232.813 320.212 232.813 324.304 L 232.813 328.396 227.832 328.856 C 211.334 330.380,183.715 330.111,169.043 328.283 L 167.188 328.052 167.188 324.247 C 167.188 319.614,166.713 319.995,171.759 320.564 C 174.079 320.826,180.107 321.252,185.156 321.512 M112.682 323.705 L 114.063 324.363 114.063 327.416 C 114.063 330.802,113.903 330.964,111.816 329.692 C 110.565 328.929,110.547 328.875,110.547 325.982 C 110.547 322.800,110.620 322.722,112.682 323.705 M289.063 326.162 C 289.063 329.216,289.040 329.288,287.910 329.873 C 286.049 330.835,285.938 330.696,285.938 327.415 L 285.938 324.360 287.207 323.729 C 289.073 322.800,289.063 322.785,289.063 326.162 M174.219 337.324 C 174.219 340.841,164.375 346.777,162.042 344.666 C 160.278 343.069,161.168 342.177,167.600 339.091 C 172.614 336.685,174.219 336.256,174.219 337.324 M232.117 339.058 C 237.717 341.618,238.672 342.273,238.672 343.553 C 238.672 347.078,228.889 343.659,226.718 339.375 C 224.996 335.975,225.332 335.956,232.117 339.058 M142.263 342.201 C 146.411 343.068,150.464 343.953,151.270 344.169 L 152.734 344.561 152.734 352.171 L 152.734 359.781 151.855 359.577 C 151.372 359.466,147.576 358.660,143.419 357.788 C 133.402 355.686,133.984 355.957,133.984 353.392 C 133.984 350.539,134.469 340.625,134.608 340.625 C 134.670 340.625,138.114 341.334,142.263 342.201 M265.625 348.197 C 265.625 355.714,265.619 355.770,264.746 356.020 C 263.812 356.287,250.159 359.161,248.332 359.475 L 247.249 359.660 247.355 351.998 L 247.461 344.336 256.055 342.513 C 260.781 341.511,264.868 340.676,265.137 340.658 C 265.512 340.633,265.625 342.382,265.625 348.197 " stroke="none" fill="#0a2d45" fill-rule="evenodd"></path><path id="path1" d="M119.922 39.200 C 109.767 42.238,103.920 50.128,103.595 61.230 L 103.421 67.188 108.693 67.188 L 113.966 67.188 114.131 62.563 C 114.323 57.174,115.353 54.486,118.152 52.072 C 121.575 49.118,121.889 49.044,131.543 48.896 L 140.234 48.763 140.234 43.522 L 140.234 38.281 131.543 38.302 C 123.704 38.321,122.564 38.409,119.922 39.200 M149.494 67.029 C 141.744 71.238,159.516 76.263,168.653 72.445 C 174.070 70.182,171.596 65.615,166.016 67.578 C 161.998 68.991,155.915 68.622,151.172 66.676 C 150.850 66.544,150.094 66.702,149.494 67.029 M135.341 78.087 C 135.077 78.764,135.180 96.376,135.453 97.154 C 136.048 98.849,151.174 103.048,162.500 104.661 C 172.548 106.092,200.694 107.336,204.038 106.496 L 205.078 106.235 205.078 96.094 L 205.078 85.952 204.199 85.773 C 203.716 85.675,199.102 85.500,193.945 85.384 C 172.397 84.901,152.311 82.433,139.888 78.741 C 136.095 77.614,135.556 77.536,135.341 78.087 M103.128 95.996 C 103.131 114.688,103.323 117.277,104.963 120.703 C 107.741 126.510,116.177 131.641,122.948 131.641 L 125.000 131.641 125.000 126.418 L 125.000 121.194 122.949 120.923 C 118.590 120.346,115.370 118.054,114.082 114.610 C 113.320 112.574,113.281 111.650,113.281 95.493 L 113.281 78.516 108.203 78.516 L 103.125 78.516 103.128 95.996 M239.941 91.694 L 237.891 91.838 237.891 95.750 C 237.891 99.291,237.955 99.643,238.574 99.463 C 238.950 99.353,240.137 99.151,241.211 99.013 C 244.720 98.563,244.531 98.797,244.531 94.896 L 244.531 91.406 243.262 91.479 C 242.563 91.518,241.069 91.615,239.941 91.694 M130.844 262.455 C 128.295 263.474,125.391 267.237,125.391 269.520 C 125.391 290.017,209.803 299.760,256.009 284.597 C 272.559 279.165,278.916 270.744,271.547 264.010 C 269.151 261.819,268.838 261.953,269.536 264.865 C 274.093 283.858,189.060 292.519,143.277 277.726 C 133.750 274.648,128.860 269.578,130.883 264.875 C 131.791 262.764,131.780 262.080,130.844 262.455 M120.182 302.995 C 119.581 303.596,119.936 310.346,120.652 311.914 C 122.527 316.025,127.033 318.575,133.872 319.395 C 136.404 319.698,139.254 320.073,140.204 320.227 L 141.932 320.508 141.997 326.858 C 142.033 330.351,142.172 333.318,142.305 333.451 C 142.600 333.745,153.450 336.988,155.308 337.337 L 156.641 337.587 156.641 332.465 C 156.641 326.196,156.732 326.321,151.061 324.818 C 145.796 323.422,145.390 323.029,145.234 319.176 L 145.117 316.291 138.818 314.245 C 128.551 310.910,123.558 307.732,122.876 304.094 C 122.627 302.769,121.051 302.126,120.182 302.995 M279.223 303.051 C 278.417 303.144,277.976 303.578,277.333 304.905 C 275.565 308.557,270.137 311.675,260.547 314.549 L 254.883 316.246 254.688 319.354 C 254.418 323.642,255.027 323.185,246.396 325.570 C 245.050 325.942,244.000 326.486,243.759 326.936 C 243.151 328.072,243.233 337.500,243.850 337.500 C 244.464 337.500,249.882 335.999,254.395 334.578 L 257.813 333.502 257.813 327.372 C 257.813 319.765,257.604 320.087,262.727 319.775 C 274.862 319.038,280.659 314.625,280.386 306.332 L 280.273 302.930 279.223 303.051 M167.364 320.266 C 167.267 320.363,167.188 322.155,167.188 324.247 L 167.188 328.052 169.043 328.283 C 183.715 330.111,211.334 330.380,227.832 328.856 L 232.813 328.396 232.813 324.304 L 232.813 320.212 230.379 320.487 C 215.132 322.212,186.706 322.249,171.759 320.564 C 169.439 320.303,167.462 320.168,167.364 320.266 M110.547 325.982 C 110.547 328.875,110.565 328.929,111.816 329.692 C 113.903 330.964,114.063 330.802,114.063 327.416 L 114.063 324.363 112.682 323.705 C 110.620 322.722,110.547 322.800,110.547 325.982 M287.207 323.729 L 285.938 324.360 285.938 327.415 C 285.938 330.696,286.049 330.835,287.910 329.873 C 289.040 329.288,289.063 329.216,289.063 326.162 C 289.063 322.785,289.073 322.800,287.207 323.729 M134.240 345.960 C 133.808 354.981,133.839 355.433,134.923 355.845 C 135.439 356.041,139.262 356.915,143.419 357.788 C 147.576 358.660,151.372 359.466,151.855 359.577 L 152.734 359.781 152.734 352.171 L 152.734 344.561 151.270 344.169 C 150.021 343.835,134.931 340.625,134.608 340.625 C 134.547 340.625,134.381 343.026,134.240 345.960 M256.055 342.513 L 247.461 344.336 247.355 351.998 L 247.249 359.660 248.332 359.475 C 250.159 359.161,263.812 356.287,264.746 356.020 C 265.797 355.719,266.182 340.587,265.137 340.658 C 264.868 340.676,260.781 341.511,256.055 342.513 " stroke="none" fill="#df7e17" fill-rule="evenodd"></path><path id="path2" d="M143.462 34.655 C 144.056 34.745,144.935 34.743,145.416 34.650 C 145.896 34.557,145.410 34.484,144.336 34.487 C 143.262 34.490,142.869 34.566,143.462 34.655 M109.556 45.410 L 107.617 47.461 109.668 45.522 C 110.796 44.456,111.719 43.534,111.719 43.472 C 111.719 43.180,111.357 43.505,109.556 45.410 M128.244 49.120 C 130.565 49.189,134.257 49.189,136.447 49.119 C 138.637 49.050,136.738 48.993,132.227 48.993 C 127.715 48.994,125.923 49.051,128.244 49.120 M117.358 52.832 L 116.211 54.102 117.480 52.954 C 118.664 51.885,118.930 51.563,118.628 51.563 C 118.561 51.563,117.989 52.134,117.358 52.832 M194.215 53.026 C 196.942 53.093,201.512 53.093,204.371 53.026 C 207.231 52.960,205.000 52.905,199.414 52.905 C 193.828 52.904,191.489 52.959,194.215 53.026 M180.376 53.401 C 180.862 53.495,181.565 53.491,181.938 53.393 C 182.312 53.296,181.914 53.219,181.055 53.224 C 180.195 53.228,179.890 53.308,180.376 53.401 M216.313 53.401 C 216.799 53.495,217.502 53.491,217.876 53.393 C 218.249 53.296,217.852 53.219,216.992 53.224 C 216.133 53.228,215.827 53.308,216.313 53.401 M103.277 62.305 C 103.277 65.098,103.340 66.189,103.415 64.730 C 103.490 63.271,103.490 60.986,103.414 59.652 C 103.338 58.318,103.276 59.512,103.277 62.305 M125.529 76.367 C 125.528 78.301,125.594 79.141,125.676 78.234 C 125.758 77.328,125.759 75.746,125.678 74.719 C 125.597 73.692,125.530 74.434,125.529 76.367 M275.121 77.930 C 275.123 79.219,275.196 79.699,275.283 78.997 C 275.370 78.295,275.368 77.240,275.279 76.653 C 275.190 76.066,275.119 76.641,275.121 77.930 M113.461 95.898 C 113.461 105.352,113.512 109.163,113.574 104.368 C 113.636 99.573,113.636 91.839,113.574 87.180 C 113.511 82.522,113.461 86.445,113.461 95.898 M260.547 83.433 C 254.129 85.510,242.042 87.506,232.227 88.110 C 226.053 88.490,226.563 87.703,226.563 96.866 C 226.563 101.254,226.721 104.739,226.927 104.867 C 227.127 104.990,229.632 104.826,232.493 104.500 C 247.777 102.762,260.934 99.568,263.335 97.013 C 264.588 95.680,264.980 82.318,263.762 82.454 C 263.605 82.471,262.158 82.912,260.547 83.433 M260.156 90.978 C 260.156 94.144,259.887 94.465,256.250 95.644 C 251.362 97.229,235.170 100.391,231.941 100.391 L 230.859 100.391 230.859 96.328 L 230.859 92.265 235.449 92.034 C 240.684 91.770,250.862 90.234,256.055 88.923 C 260.346 87.840,260.156 87.746,260.156 90.978 M274.700 89.453 C 274.700 90.205,274.780 90.513,274.879 90.137 C 274.977 89.761,274.977 89.146,274.879 88.770 C 274.780 88.394,274.700 88.701,274.700 89.453 M255.762 112.335 C 255.601 112.498,255.468 146.307,255.467 187.467 L 255.465 262.305 254.588 263.740 C 253.545 265.446,249.782 268.359,248.621 268.359 C 248.520 268.359,248.438 244.102,248.438 214.453 C 248.438 178.776,248.305 160.547,248.047 160.547 C 247.832 160.547,247.656 160.733,247.656 160.961 C 247.656 161.188,247.510 161.284,247.332 161.174 C 247.154 161.064,246.147 161.233,245.094 161.550 C 231.400 165.671,197.258 167.328,174.316 164.985 L 171.875 164.736 171.875 152.523 L 171.875 140.311 174.121 140.068 C 198.263 137.450,239.058 139.930,247.670 144.539 C 248.441 144.951,248.447 144.831,248.345 132.146 C 248.256 120.992,248.166 119.354,247.656 119.476 C 247.334 119.553,245.137 120.104,242.773 120.701 C 240.410 121.297,236.191 122.090,233.398 122.463 C 230.605 122.836,228.057 123.243,227.734 123.368 C 226.893 123.695,225.306 123.752,208.820 124.049 C 195.127 124.295,191.744 124.214,174.414 123.228 L 172.070 123.094 171.875 118.481 L 171.680 113.867 170.117 113.825 C 169.258 113.802,167.236 113.728,165.625 113.661 L 162.695 113.539 162.585 117.695 L 162.474 121.850 161.217 121.636 C 157.245 120.959,153.476 120.185,151.807 119.703 C 150.760 119.401,149.765 119.240,149.595 119.345 C 149.425 119.450,149.221 119.343,149.142 119.107 C 149.064 118.871,148.522 118.650,147.937 118.616 C 147.353 118.582,146.875 118.412,146.875 118.239 C 146.875 118.065,146.699 118.031,146.484 118.164 C 146.270 118.297,146.094 118.201,146.094 117.950 C 146.094 117.700,145.830 117.596,145.508 117.719 C 145.186 117.843,144.922 117.764,144.922 117.543 C 144.922 117.322,144.746 117.250,144.531 117.383 C 144.316 117.516,144.141 117.466,144.141 117.273 C 144.141 116.927,142.451 115.976,141.504 115.790 C 140.938 115.679,140.630 147.334,141.191 147.953 C 141.242 148.008,142.828 147.330,144.716 146.445 C 148.050 144.883,156.442 142.500,160.509 141.960 L 162.500 141.696 162.500 152.523 L 162.500 163.350 160.840 163.087 C 159.927 162.943,157.969 162.580,156.490 162.281 C 155.010 161.983,153.660 161.825,153.489 161.930 C 153.319 162.036,153.061 161.931,152.917 161.698 C 152.773 161.465,152.409 161.369,152.109 161.485 C 151.808 161.600,151.563 161.503,151.563 161.270 C 151.563 161.037,151.211 160.938,150.781 161.051 C 150.352 161.163,150.000 161.129,150.000 160.975 C 150.000 160.675,145.314 159.150,144.824 159.291 C 144.663 159.337,144.531 159.189,144.531 158.961 C 144.531 158.734,144.370 158.647,144.174 158.768 C 143.977 158.890,143.755 158.803,143.679 158.575 C 143.603 158.347,143.222 158.114,142.833 158.057 C 142.444 158.000,141.973 157.706,141.787 157.405 C 141.499 156.941,141.416 156.945,141.231 157.433 C 140.898 158.318,140.780 266.797,141.113 266.797 C 141.274 266.797,141.406 267.042,141.406 267.342 C 141.406 269.750,153.955 274.103,165.677 275.762 C 205.562 281.405,254.234 276.334,259.590 265.977 C 260.549 264.124,260.432 112.502,259.473 112.496 C 259.097 112.493,258.174 112.390,257.422 112.266 C 256.670 112.142,255.923 112.173,255.762 112.335 M114.844 116.528 C 114.844 116.596,115.415 117.167,116.113 117.798 L 117.383 118.945 116.236 117.676 C 115.166 116.492,114.844 116.227,114.844 116.528 M123.633 120.703 L 122.461 121.001 123.512 121.048 C 124.090 121.073,124.672 120.918,124.805 120.703 C 124.937 120.488,124.992 120.333,124.925 120.359 C 124.859 120.384,124.277 120.539,123.633 120.703 M107.031 124.341 C 107.031 124.408,107.603 124.979,108.301 125.611 L 109.570 126.758 108.423 125.488 C 107.354 124.305,107.031 124.039,107.031 124.341 M121.782 131.917 C 122.268 132.010,122.971 132.007,123.344 131.909 C 123.718 131.811,123.320 131.735,122.461 131.739 C 121.602 131.743,121.296 131.823,121.782 131.917 M186.054 180.997 C 193.480 184.099,189.365 195.720,181.657 193.411 C 180.170 192.965,177.294 190.945,177.312 190.358 C 177.317 190.183,177.134 189.343,176.905 188.492 C 175.561 183.500,181.129 178.939,186.054 180.997 M216.770 196.312 C 217.895 196.924,219.252 197.960,219.786 198.615 C 220.320 199.269,220.994 200.097,221.284 200.455 C 221.574 200.813,221.708 201.209,221.582 201.334 C 221.457 201.460,221.522 201.563,221.726 201.563 C 222.141 201.563,222.182 201.850,222.278 205.469 C 222.394 209.831,220.370 213.193,216.386 215.259 C 214.561 216.206,207.813 216.744,207.813 215.943 C 207.813 215.743,207.637 215.688,207.422 215.820 C 207.207 215.953,207.031 215.918,207.031 215.743 C 207.031 215.568,206.466 215.175,205.775 214.869 C 205.085 214.563,204.086 213.798,203.556 213.168 C 203.026 212.539,202.369 211.800,202.096 211.527 C 201.823 211.254,201.709 210.922,201.842 210.789 C 201.975 210.656,201.868 210.547,201.605 210.547 C 201.341 210.547,201.234 210.371,201.367 210.156 C 201.500 209.941,201.428 209.766,201.207 209.766 C 200.986 209.766,200.907 209.502,201.031 209.180 C 201.154 208.857,201.058 208.594,200.816 208.594 C 200.547 208.594,200.467 208.230,200.610 207.660 C 200.739 207.146,200.655 206.608,200.422 206.465 C 199.919 206.154,199.852 204.688,200.341 204.688 C 200.528 204.688,200.787 204.026,200.916 203.218 C 201.963 196.671,210.555 192.929,216.770 196.312 M193.735 224.797 C 195.091 225.498,196.484 227.195,196.484 228.145 C 196.484 228.528,196.704 228.915,196.973 229.005 C 197.356 229.134,197.361 229.373,196.997 230.112 C 196.742 230.630,196.435 231.410,196.316 231.844 C 196.114 232.575,193.750 235.472,193.750 234.988 C 193.750 234.869,193.014 235.067,192.114 235.427 C 190.917 235.905,190.436 235.957,190.323 235.619 C 190.239 235.364,189.845 235.156,189.448 235.156 C 188.803 235.156,186.774 233.422,185.742 231.988 C 183.029 228.218,189.351 222.530,193.735 224.797 M277.098 280.859 C 277.098 283.115,277.162 284.038,277.241 282.910 C 277.320 281.782,277.320 279.937,277.241 278.809 C 277.162 277.681,277.098 278.604,277.098 280.859 M156.318 304.420 C 154.508 306.347,155.865 309.375,158.539 309.375 C 160.095 309.375,161.719 307.879,161.719 306.445 C 161.719 303.923,158.070 302.555,156.318 304.420 M239.453 304.297 C 237.708 306.042,238.955 309.375,241.354 309.375 C 243.062 309.375,244.531 308.020,244.531 306.445 C 244.531 303.979,241.186 302.564,239.453 304.297 M102.504 326.563 C 102.504 330.322,102.563 331.860,102.635 329.980 C 102.706 328.101,102.706 325.024,102.635 323.145 C 102.563 321.265,102.504 322.803,102.504 326.563 M181.938 356.136 C 182.424 356.229,183.127 356.226,183.501 356.128 C 183.874 356.030,183.477 355.954,182.617 355.958 C 181.758 355.962,181.452 356.042,181.938 356.136 M222.168 356.135 C 222.651 356.228,223.442 356.228,223.926 356.135 C 224.409 356.042,224.014 355.966,223.047 355.966 C 222.080 355.966,221.685 356.042,222.168 356.135 M244.238 364.722 C 244.614 364.821,245.229 364.821,245.605 364.722 C 245.981 364.624,245.674 364.544,244.922 364.544 C 244.170 364.544,243.862 364.624,244.238 364.722 " stroke="none" fill="#fbedcb" fill-rule="evenodd"></path><path id="path3" d="M146.582 34.644 C 146.958 34.743,147.573 34.743,147.949 34.644 C 148.325 34.546,148.018 34.466,147.266 34.466 C 146.514 34.466,146.206 34.546,146.582 34.644 M140.703 35.234 C 140.445 35.492,140.255 36.063,140.280 36.504 C 140.324 37.288,140.329 37.289,140.517 36.523 C 140.623 36.094,140.887 35.522,141.105 35.254 C 141.611 34.631,141.321 34.617,140.703 35.234 M154.004 37.769 C 154.380 37.868,154.995 37.868,155.371 37.769 C 155.747 37.671,155.439 37.591,154.688 37.591 C 153.936 37.591,153.628 37.671,154.004 37.769 M140.333 50.195 C 140.337 51.055,140.417 51.360,140.511 50.874 C 140.604 50.388,140.601 49.685,140.503 49.312 C 140.405 48.938,140.329 49.336,140.333 50.195 M166.828 52.614 C 166.811 53.514,166.936 54.337,167.106 54.442 C 167.276 54.547,167.351 53.986,167.273 53.195 C 167.059 51.033,166.862 50.776,166.828 52.614 M152.805 54.362 C 152.762 55.709,152.543 56.653,152.246 56.773 C 151.864 56.927,151.866 56.976,152.258 57.000 C 152.978 57.045,153.192 56.221,153.023 54.052 L 152.875 52.148 152.805 54.362 M143.652 53.022 C 144.780 53.101,146.626 53.101,147.754 53.022 C 148.882 52.943,147.959 52.879,145.703 52.879 C 143.447 52.879,142.524 52.943,143.652 53.022 M183.887 53.411 C 184.800 53.493,186.294 53.493,187.207 53.411 C 188.120 53.329,187.373 53.261,185.547 53.261 C 183.721 53.261,182.974 53.329,183.887 53.411 M211.426 53.410 C 212.231 53.494,213.550 53.494,214.355 53.410 C 215.161 53.325,214.502 53.256,212.891 53.256 C 211.279 53.256,210.620 53.325,211.426 53.410 M175.688 53.792 C 176.174 53.885,176.877 53.882,177.251 53.784 C 177.624 53.686,177.227 53.610,176.367 53.614 C 175.508 53.618,175.202 53.698,175.688 53.792 M220.996 53.791 C 221.479 53.884,222.271 53.884,222.754 53.791 C 223.237 53.698,222.842 53.622,221.875 53.622 C 220.908 53.622,220.513 53.698,220.996 53.791 M226.469 54.183 C 226.955 54.276,227.658 54.272,228.032 54.175 C 228.405 54.077,228.008 54.000,227.148 54.005 C 226.289 54.009,225.983 54.089,226.469 54.183 M233.691 54.957 C 234.067 55.055,234.683 55.055,235.059 54.957 C 235.435 54.859,235.127 54.778,234.375 54.778 C 233.623 54.778,233.315 54.859,233.691 54.957 M101.660 67.457 C 102.036 67.555,102.651 67.555,103.027 67.457 C 103.403 67.359,103.096 67.278,102.344 67.278 C 101.592 67.278,101.284 67.359,101.660 67.457 M114.551 67.457 C 114.927 67.555,115.542 67.555,115.918 67.457 C 116.294 67.359,115.986 67.278,115.234 67.278 C 114.482 67.278,114.175 67.359,114.551 67.457 M125.519 70.508 C 125.521 72.012,125.591 72.579,125.676 71.769 C 125.760 70.958,125.759 69.728,125.673 69.034 C 125.586 68.341,125.517 69.004,125.519 70.508 M275.143 72.070 C 275.144 74.219,275.209 75.048,275.288 73.913 C 275.368 72.778,275.367 71.020,275.287 70.006 C 275.206 68.993,275.142 69.922,275.143 72.070 M99.365 72.852 C 99.366 75.215,99.430 76.131,99.508 74.888 C 99.586 73.645,99.585 71.711,99.506 70.591 C 99.428 69.471,99.364 70.488,99.365 72.852 M118.113 73.047 C 118.113 75.303,118.178 76.226,118.257 75.098 C 118.336 73.970,118.336 72.124,118.257 70.996 C 118.178 69.868,118.113 70.791,118.113 73.047 M243.041 71.140 C 230.300 73.776,217.434 75.000,202.471 75.000 C 194.420 75.000,192.680 75.254,194.188 76.210 C 197.969 78.605,248.795 73.601,250.616 70.655 C 251.233 69.657,249.748 69.752,243.041 71.140 M274.752 84.570 C 274.753 86.719,274.819 87.548,274.898 86.413 C 274.977 85.278,274.976 83.520,274.896 82.506 C 274.816 81.493,274.751 82.422,274.752 84.570 M125.872 86.719 C 125.872 87.471,125.952 87.778,126.051 87.402 C 126.149 87.026,126.149 86.411,126.051 86.035 C 125.952 85.659,125.872 85.967,125.872 86.719 M235.844 87.776 C 236.330 87.870,237.033 87.866,237.407 87.768 C 237.780 87.671,237.383 87.594,236.523 87.599 C 235.664 87.603,235.358 87.683,235.844 87.776 M230.376 88.167 C 230.862 88.260,231.565 88.257,231.938 88.159 C 232.312 88.061,231.914 87.985,231.055 87.989 C 230.195 87.993,229.890 88.073,230.376 88.167 M259.762 90.936 L 259.953 93.945 260.074 91.250 C 260.140 89.767,260.054 88.413,259.882 88.240 C 259.711 88.067,259.656 89.280,259.762 90.936 M235.844 92.073 C 236.330 92.167,237.033 92.163,237.407 92.065 C 237.780 91.967,237.383 91.891,236.523 91.895 C 235.664 91.900,235.358 91.980,235.844 92.073 M230.933 94.629 L 231.007 97.070 231.147 94.849 C 231.254 93.163,231.448 92.586,231.952 92.453 C 232.430 92.327,232.370 92.265,231.738 92.233 C 230.908 92.190,230.863 92.324,230.933 94.629 M226.325 99.219 C 226.325 102.119,226.386 103.306,226.462 101.855 C 226.537 100.405,226.537 98.032,226.462 96.582 C 226.386 95.132,226.325 96.318,226.325 99.219 M126.563 97.388 C 126.563 97.455,127.134 98.026,127.832 98.657 L 129.102 99.805 127.954 98.535 C 126.885 97.352,126.563 97.086,126.563 97.388 M131.410 109.961 C 131.409 113.613,131.468 115.160,131.540 113.398 C 131.613 111.636,131.613 108.648,131.541 106.757 C 131.469 104.867,131.410 106.309,131.410 109.961 M229.395 104.957 C 229.771 105.055,230.386 105.055,230.762 104.957 C 231.138 104.859,230.830 104.778,230.078 104.778 C 229.326 104.778,229.019 104.859,229.395 104.957 M164.953 113.569 C 165.980 113.650,167.562 113.649,168.469 113.567 C 169.375 113.485,168.535 113.419,166.602 113.420 C 164.668 113.421,163.926 113.488,164.953 113.569 M140.328 131.934 L 140.421 149.414 140.527 132.084 C 140.628 115.685,140.670 114.783,141.313 115.288 C 141.928 115.770,141.941 115.755,141.456 115.137 C 141.161 114.761,140.766 114.453,140.577 114.453 C 140.384 114.453,140.275 122.095,140.328 131.934 M176.074 123.323 C 176.558 123.416,177.349 123.416,177.832 123.323 C 178.315 123.229,177.920 123.153,176.953 123.153 C 175.986 123.153,175.591 123.229,176.074 123.323 M182.331 123.721 C 183.033 123.808,184.088 123.806,184.675 123.717 C 185.262 123.627,184.688 123.556,183.398 123.559 C 182.109 123.561,181.629 123.634,182.331 123.721 M221.782 123.714 C 222.268 123.807,222.971 123.804,223.344 123.706 C 223.718 123.608,223.320 123.532,222.461 123.536 C 221.602 123.540,221.296 123.620,221.782 123.714 M189.941 124.113 C 190.747 124.197,192.065 124.197,192.871 124.113 C 193.677 124.028,193.018 123.959,191.406 123.959 C 189.795 123.959,189.136 124.028,189.941 124.113 M213.781 124.116 C 214.808 124.196,216.390 124.195,217.297 124.114 C 218.204 124.032,217.363 123.966,215.430 123.967 C 213.496 123.968,212.754 124.035,213.781 124.116 M128.807 135.831 L 131.248 135.973 131.348 198.553 L 131.449 261.133 131.447 198.438 L 131.445 135.742 128.906 135.715 L 126.367 135.689 128.807 135.831 M186.631 139.349 C 187.550 139.432,188.956 139.430,189.756 139.346 C 190.556 139.263,189.805 139.195,188.086 139.196 C 186.367 139.198,185.713 139.267,186.631 139.349 M211.426 139.342 C 212.017 139.432,212.983 139.432,213.574 139.342 C 214.165 139.253,213.682 139.180,212.500 139.180 C 211.318 139.180,210.835 139.253,211.426 139.342 M179.590 139.729 C 180.073 139.822,180.864 139.822,181.348 139.729 C 181.831 139.636,181.436 139.560,180.469 139.560 C 179.502 139.560,179.106 139.636,179.590 139.729 M218.657 139.729 C 219.143 139.823,219.846 139.819,220.219 139.722 C 220.593 139.624,220.195 139.547,219.336 139.552 C 218.477 139.556,218.171 139.636,218.657 139.729 M174.707 140.113 C 175.083 140.211,175.698 140.211,176.074 140.113 C 176.450 140.015,176.143 139.934,175.391 139.934 C 174.639 139.934,174.331 140.015,174.707 140.113 M223.145 140.113 C 223.521 140.211,224.136 140.211,224.512 140.113 C 224.888 140.015,224.580 139.934,223.828 139.934 C 223.076 139.934,222.769 140.015,223.145 140.113 M140.331 211.426 L 140.427 266.602 140.527 211.599 C 140.603 170.240,140.739 156.665,141.077 156.874 C 141.355 157.046,141.421 156.980,141.248 156.701 C 141.095 156.453,140.804 156.250,140.602 156.250 C 140.374 156.250,140.271 177.141,140.331 211.426 M226.270 164.722 C 226.646 164.821,227.261 164.821,227.637 164.722 C 228.013 164.624,227.705 164.544,226.953 164.544 C 226.201 164.544,225.894 164.624,226.270 164.722 M222.173 165.120 C 222.658 165.213,223.362 165.210,223.735 165.112 C 224.108 165.014,223.711 164.938,222.852 164.942 C 221.992 164.947,221.687 165.027,222.173 165.120 M180.566 165.514 C 181.157 165.604,182.124 165.604,182.715 165.514 C 183.306 165.425,182.822 165.351,181.641 165.351 C 180.459 165.351,179.976 165.425,180.566 165.514 M216.316 165.517 C 217.018 165.604,218.072 165.603,218.659 165.513 C 219.246 165.424,218.672 165.353,217.383 165.355 C 216.094 165.358,215.613 165.431,216.316 165.517 M189.172 165.913 C 190.199 165.993,191.781 165.992,192.688 165.910 C 193.594 165.829,192.754 165.762,190.820 165.764 C 188.887 165.765,188.145 165.832,189.172 165.913 M205.581 165.914 C 206.824 165.992,208.757 165.991,209.878 165.912 C 210.998 165.834,209.980 165.770,207.617 165.771 C 205.254 165.772,204.337 165.836,205.581 165.914 M182.525 180.749 C 183.119 180.839,183.998 180.836,184.478 180.744 C 184.958 180.651,184.473 180.578,183.398 180.580 C 182.324 180.583,181.931 180.659,182.525 180.749 M189.934 187.109 C 189.934 187.861,190.015 188.169,190.113 187.793 C 190.211 187.417,190.211 186.802,190.113 186.426 C 190.015 186.050,189.934 186.357,189.934 187.109 M182.719 193.636 C 183.205 193.729,183.908 193.726,184.282 193.628 C 184.655 193.530,184.258 193.454,183.398 193.458 C 182.539 193.462,182.233 193.542,182.719 193.636 M210.254 216.295 C 210.845 216.385,211.812 216.385,212.402 216.295 C 212.993 216.206,212.510 216.133,211.328 216.133 C 210.146 216.133,209.663 216.206,210.254 216.295 M269.258 242.578 C 269.258 243.760,269.331 244.243,269.420 243.652 C 269.510 243.062,269.510 242.095,269.420 241.504 C 269.331 240.913,269.258 241.396,269.258 242.578 M248.516 265.137 C 248.443 268.124,248.752 269.040,249.451 267.908 C 249.620 267.635,249.559 267.563,249.296 267.726 C 248.995 267.912,248.820 267.058,248.728 264.954 L 248.595 261.914 248.516 265.137 M127.344 264.648 C 126.395 265.615,125.706 266.406,125.814 266.406 C 125.921 266.406,126.786 265.615,127.734 264.648 C 128.683 263.682,129.372 262.891,129.264 262.891 C 129.157 262.891,128.293 263.682,127.344 264.648 M277.044 275.781 C 277.044 276.533,277.124 276.841,277.222 276.465 C 277.321 276.089,277.321 275.474,277.222 275.098 C 277.124 274.722,277.044 275.029,277.044 275.781 M227.832 276.832 C 228.208 276.930,228.823 276.930,229.199 276.832 C 229.575 276.734,229.268 276.653,228.516 276.653 C 227.764 276.653,227.456 276.734,227.832 276.832 M224.126 277.229 C 224.612 277.323,225.315 277.319,225.688 277.222 C 226.062 277.124,225.664 277.047,224.805 277.052 C 223.945 277.056,223.640 277.136,224.126 277.229 M180.762 277.619 C 181.245 277.713,182.036 277.713,182.520 277.619 C 183.003 277.526,182.607 277.450,181.641 277.450 C 180.674 277.450,180.278 277.526,180.762 277.619 M218.462 277.624 C 219.056 277.714,219.935 277.711,220.416 277.619 C 220.896 277.526,220.410 277.453,219.336 277.455 C 218.262 277.458,217.869 277.534,218.462 277.624 M188.379 278.023 C 189.614 278.101,191.636 278.101,192.871 278.023 C 194.106 277.946,193.096 277.882,190.625 277.882 C 188.154 277.882,187.144 277.946,188.379 278.023 M208.496 278.022 C 209.624 278.101,211.470 278.101,212.598 278.022 C 213.726 277.943,212.803 277.879,210.547 277.879 C 208.291 277.879,207.368 277.943,208.496 278.022 M122.838 289.044 C 121.133 289.735,120.849 290.817,121.015 295.996 C 121.123 299.358,121.939 300.194,124.751 299.827 C 127.788 299.430,127.946 299.135,127.832 294.067 C 127.711 288.696,126.558 287.536,122.838 289.044 M273.560 288.957 C 272.429 289.729,271.653 297.306,272.565 298.672 C 273.465 300.020,276.560 300.427,278.038 299.392 C 279.437 298.412,279.362 290.551,277.945 289.622 C 276.827 288.890,274.233 288.496,273.560 288.957 M111.874 295.313 C 111.874 298.428,111.935 299.702,112.009 298.145 C 112.083 296.587,112.083 294.038,112.009 292.480 C 111.935 290.923,111.874 292.197,111.874 295.313 M287.591 293.750 C 287.591 294.502,287.671 294.810,287.769 294.434 C 287.868 294.058,287.868 293.442,287.769 293.066 C 287.671 292.690,287.591 292.998,287.591 293.750 M150.977 296.935 C 149.296 297.855,149.219 298.266,149.219 306.325 C 149.219 316.188,148.823 315.625,155.764 315.625 C 161.722 315.625,162.471 315.438,166.121 313.033 C 169.766 310.630,169.518 311.259,169.525 304.404 C 169.533 296.936,170.200 297.493,160.547 296.915 C 151.897 296.397,151.962 296.396,150.977 296.935 M238.477 297.055 C 229.759 297.691,230.383 297.045,230.552 305.267 L 230.664 310.730 233.789 312.789 C 237.744 315.394,238.593 315.620,244.451 315.623 C 251.368 315.626,251.172 315.888,251.172 306.639 C 251.172 295.629,251.774 296.084,238.477 297.055 M161.723 301.270 C 168.427 305.832,162.668 315.392,155.438 311.703 C 149.776 308.814,151.980 300.391,158.398 300.391 C 159.864 300.391,160.792 300.636,161.723 301.270 M244.537 301.114 C 250.101 304.070,247.927 312.500,241.602 312.500 C 237.965 312.500,235.390 309.831,235.435 306.110 C 235.489 301.690,240.473 298.954,244.537 301.114 M286.897 301.590 C 286.755 301.820,286.261 302.160,285.800 302.346 C 285.227 302.577,285.159 302.693,285.584 302.710 C 285.927 302.723,286.525 302.383,286.914 301.953 C 287.303 301.523,287.516 301.172,287.388 301.172 C 287.260 301.172,287.039 301.360,286.897 301.590 M158.671 303.496 C 159.465 303.650,160.353 303.938,160.642 304.134 C 160.932 304.331,160.834 304.185,160.424 303.809 C 160.012 303.430,159.132 303.145,158.453 303.170 C 157.242 303.214,157.245 303.218,158.671 303.496 M238.281 306.618 C 238.281 307.249,238.420 307.852,238.590 307.957 C 238.760 308.062,238.829 307.545,238.743 306.809 C 238.551 305.167,238.281 305.055,238.281 306.618 M243.682 308.439 C 243.337 308.783,242.464 309.205,241.742 309.376 C 240.543 309.659,240.520 309.689,241.482 309.726 C 242.322 309.758,245.332 307.873,244.517 307.825 C 244.402 307.818,244.026 308.094,243.682 308.439 M102.450 318.359 C 102.450 319.326,102.526 319.722,102.619 319.238 C 102.713 318.755,102.713 317.964,102.619 317.480 C 102.526 316.997,102.450 317.393,102.450 318.359 M167.600 339.091 C 161.168 342.177,160.278 343.069,162.042 344.666 C 164.375 346.777,174.219 340.841,174.219 337.324 C 174.219 336.256,172.614 336.685,167.600 339.091 M225.781 337.122 C 225.781 340.710,234.433 346.337,237.677 344.859 C 240.312 343.659,238.855 342.138,232.117 339.058 C 227.030 336.732,225.781 336.351,225.781 337.122 M171.969 355.793 C 171.699 355.965,172.578 356.037,173.922 355.954 C 177.237 355.749,177.656 355.536,174.805 355.506 C 173.516 355.492,172.240 355.621,171.969 355.793 M185.460 356.146 C 186.378 356.228,187.785 356.227,188.585 356.143 C 189.385 356.059,188.633 355.992,186.914 355.993 C 185.195 355.995,184.541 356.063,185.460 356.146 M214.941 356.148 C 216.177 356.226,218.198 356.226,219.434 356.148 C 220.669 356.071,219.658 356.007,217.188 356.007 C 214.717 356.007,213.706 356.071,214.941 356.148 M273.418 358.095 C 273.311 359.003,273.372 359.596,273.554 359.414 C 273.736 359.233,273.824 358.490,273.749 357.765 C 273.617 356.478,273.609 356.486,273.418 358.095 " stroke="none" fill="#8494a3" fill-rule="evenodd"></path></g></svg>