<svg xmlns="http://www.w3.org/2000/svg" width="1024" height="1024"><path fill="none" d="M0 0h1024v1024H0zm358.625 97.625-1.996 1.315c-14.263 9.687-23.624 22.69-27.168 39.64-.586 4.347-.585 8.593-.559 12.975l.005 2.732c.005 2.862.018 5.725.03 8.588q.008 2.922.014 5.844.017 7.14.049 14.281l-3.003-.008q-36.248-.1-72.494-.147a21603 21603 0 0 1-35.058-.071q-15.287-.046-30.572-.056-8.088-.004-16.174-.035-7.628-.03-15.254-.022-2.785-.001-5.569-.019c-13.808-.082-27.387.586-40.126 6.546l-2.01.916C93.005 197.548 81.204 209.79 73 225l-1.46 2.672c-7.714 15.427-8.12 31.547-8.041 48.417q-.006 3.452-.017 6.905c-.015 6.283-.005 12.566.01 18.85.01 6.093 0 12.186-.007 18.28-.018 13.22-.012 26.442.003 39.663q.02 17.354.016 34.707v2.33l-.003 9.364c-.007 29.25.009 58.5.035 87.75q.034 38.943.018 77.888l-.008 19.951v2.482a76875 76875 0 0 0 .015 76.838q.007 17.341 0 34.683-.01 19.722.02 39.446.017 10.058.008 20.117-.01 9.215.017 18.43a1389 1389 0 0 1-.003 6.651c-.041 15.033.515 29.307 6.584 43.326l.913 2.15c2.814 6.365 6.425 11.767 10.9 17.1l2.016 2.54c12.718 15.214 31.4 24.765 50.984 27.46 9.378.697 18.802.55 28.201.514 3.86-.01 7.719.003 11.578.013q10.127.02 20.254.004c10.04-.016 20.08-.008 30.12.004 17.934.022 35.868.02 53.803.008q23.543-.015 47.084-.008l3.157.001 12.69.004c39.66.012 79.32.001 118.98-.02q52.83-.029 105.661.001a139174 139174 0 0 0 131.432.014h3.15q23.524-.006 47.05.01 26.754.019 53.508-.013 14.966-.019 29.931.003 10.005.013 20.01-.014c3.797-.01 7.593-.013 11.39.001 28.946.102 28.946.102 42.001-4.522l3.35-1.177c19.551-7.236 34.406-22.322 43.962-40.51l.95-1.739c7.289-14.645 7.315-30.71 7.24-46.663q.005-3.452.016-6.905c.015-6.283.005-12.566-.01-18.85-.01-6.093 0-12.186.007-18.28.018-13.22.012-26.442-.003-39.663q-.02-17.354-.016-34.707v-2.33l.003-9.364c.007-29.25-.009-58.5-.035-87.75q-.034-38.943-.018-77.888l.008-19.951v-2.482a76875 76875 0 0 0-.015-76.838q-.007-17.341 0-34.683.01-19.722-.02-39.446-.017-10.058-.008-20.117.01-9.215-.017-18.43a1389 1389 0 0 1 .003-6.651c.073-26.85-5.08-49.086-24.073-69.271-6.032-5.982-12.382-10.613-19.886-14.555l-1.762-.961c-13.716-6.827-28.713-7.367-43.69-7.243q-2.915.001-5.83-.002c-5.22-.001-10.44.022-15.66.05-5.476.026-10.951.028-16.427.033-10.345.012-20.69.045-31.034.085-11.787.045-23.574.067-35.362.087-24.224.041-48.449.112-72.673.201.01-1.017.02-2.034.032-3.083q.052-5.764.078-11.529.015-2.475.04-4.951c.222-21.425-1.942-39.732-17.537-55.914-10.998-10.325-25.729-18.621-41.197-18.657l-2.713-.014h-2.953l-3.16-.01q-5.247-.015-10.496-.019l-7.52-.02c-7.528-.02-15.056-.03-22.584-.039l-10.652-.015a42878 42878 0 0 0-44.639-.044l-2.307-.002c-12.318-.008-24.635-.033-36.952-.066q-18.999-.049-37.996-.054c-7.104-.002-14.207-.01-21.31-.036-6.69-.025-13.38-.028-20.07-.018q-3.67.001-7.339-.02c-32.571-.172-32.571-.172-46.1 9.116" id="svg-layer-0" style="pointer-events: all; fill: none;"/><path fill="#002139" d="m407.959 88.596 7.534-.02q9.126-.023 18.252-.014 7.425.006 14.849-.002l2.143-.003 4.313-.004c13.444-.014 26.889-.009 40.333.003 12.273.01 24.546-.003 36.819-.027q18.954-.037 37.909-.027c7.08.003 14.16.001 21.241-.017a3789 3789 0 0 1 19.975.008q3.654.005 7.307-.01c24.275-.097 42.13 4.362 60.362 21.38 15.498 16.12 15.197 37.73 15.067 58.575q-.008 2.137-.014 4.275-.017 5.144-.049 10.287l3.03-.011q36.572-.135 73.146-.196c11.791-.02 23.583-.049 35.374-.095q15.425-.06 30.851-.074c5.44-.006 10.879-.018 16.318-.047q7.698-.039 15.397-.03a730 730 0 0 0 5.615-.024c14.646-.115 29.497 1.03 42.644 8.165l1.979 1.035c18.868 10.238 31.666 27.602 38.673 47.57 3.335 12.71 3.26 25.136 3.24 38.182l.014 6.887c.012 6.29.012 12.581.01 18.872q.002 9.14.017 18.28c.02 13.998.025 27.995.026 41.992a64483 64483 0 0 0 .018 44.13q.02 32.67.02 65.34v2.487l-.001 12.477v7.513q-.002 38.974.04 77.948a78518 78518 0 0 1 .046 96.988v2.326c0 12.33.013 24.658.03 36.988q.026 18.6.006 37.198c-.007 6.712-.007 13.424.01 20.136q.023 9.228-.004 18.455-.005 3.327.012 6.654c.074 15.653-.614 31.293-8.323 45.354l-1.043 1.99c-2.85 5.294-6.19 9.98-10.145 14.51l-1.418 1.813C927.4 871.1 908.05 880.198 889 883c-4.322.272-8.631.272-12.961.257l-3.878.01c-3.543.01-7.086.007-10.629.002-3.858-.003-7.716.005-11.574.012q-10.137.014-20.276.011c-10.05-.003-20.101.006-30.152.016-18.996.02-37.993.025-56.989.026a118567 118567 0 0 0-56.682.017l-3.182.001q-44.299.02-88.597.02h-3.374l-27.126-.002q-52.89 0-105.779.042a144497 144497 0 0 1-134.68.045c-16.735 0-33.47.013-50.205.03q-25.234.026-50.467.006-14.985-.012-29.971.016-10.02.018-20.038-.005a1806 1806 0 0 0-11.405.007c-25.08.1-46.876-2.012-67.035-18.511l-2.55-2.02c-9.616-8.06-16.516-17.904-21.388-29.418l-.819-1.91c-5.684-14.462-5.676-29.2-5.63-44.487q-.007-3.448-.017-6.895c-.014-6.284-.01-12.568-.003-18.852.004-6.091-.005-12.183-.015-18.274-.02-13.22-.022-26.44-.017-39.66a38790 38790 0 0 0-.007-46.402c-.01-21.768-.016-43.536-.008-65.305l.001-2.484.008-19.97q.014-38.945-.022-77.888a77042 77042 0 0 1-.03-96.94l.001-2.325q.002-17.34-.019-34.677-.023-19.726.002-39.453.017-10.058-.004-20.117-.02-9.22.01-18.439.005-3.323-.01-6.647c-.068-15.612.593-31.267 8.33-45.274l1.053-1.991C83.153 206.51 98.326 192.976 119 186c11.565-3.11 22.699-3.415 34.603-3.34q2.886 0 5.77-.002c5.175 0 10.35.017 15.524.038 5.425.019 10.85.02 16.276.024 10.252.01 20.504.034 30.757.064 11.68.034 23.362.05 35.043.065q36.014.048 72.027.151l-.048-3.557c-.054-4.416-.089-8.83-.117-13.246q-.022-2.85-.061-5.7c-.265-19.676 1.719-36.262 15.84-51.263 4.67-4.736 9.798-8.631 15.386-12.234l2.2-1.492c13.539-8.46 30.467-6.944 45.759-6.912M386.75 148.25c-3.54 5.564-4.053 11.353-4.016 17.809l-.005 2.266q-.002 2.36.01 4.717c.011 2.386 0 4.77-.012 7.155q0 2.305.007 4.612l-.012 2.128c.067 7.168 1.002 13.787 6.278 19.063 5.655 3.9 13.601 3.145 20.21 3.127l2.745.005c3.025.004 6.05 0 9.076-.003l6.52.006q8.846.005 17.69 0c6.176-.003 12.35 0 18.526 0q15.558.004 31.115-.005 17.975-.007 35.948.002 15.442.007 30.883.003 9.217-.003 18.436.001 8.67.004 17.34-.005 3.178 0 6.355.002 4.346.002 8.693-.006l2.523.007c15.812-.053 15.812-.053 21.94-5.134 3.43-5.144 3.18-10.379 3.238-16.414l.025-2.455q.02-2.57.032-5.14.017-2.6.062-5.2c.354-20.76.354-20.76-4.357-27.791-5.633-3.94-10.476-4.147-17.166-4.14l-2.878-.01q-4.795-.01-9.59-.011l-6.859-.015q-9.33-.019-18.663-.024-5.827-.005-11.653-.012a39762 39762 0 0 0-32.265-.026h-4.176l-4.195-.002h-2.102q-16.857-.009-33.713-.046-17.306-.035-34.613-.037-9.717 0-19.434-.025-9.138-.023-18.278-.01-3.355.002-6.712-.013c-3.052-.013-6.104-.007-9.156.004l-2.688-.025c-6.214.05-10.56 1.092-15.109 5.642M133 256c-3.458 5.077-4.588 8.865-4.518 15.043l-.02 2.339a619 619 0 0 0 .007 7.59q-.005 2.656-.012 5.308-.008 5.55.022 11.098c.022 4.734.01 9.466-.015 14.2-.014 3.65-.01 7.3 0 10.95q.005 2.618-.01 5.236c-.01 2.441.006 4.881.028 7.322l-.024 2.168c.084 5.023 1.38 7.884 4.542 11.746 4.148 2.687 7.347 3.377 12.246 3.363l3.537-.002 3.655-.048 3.642.01c11.565-.07 11.565-.07 16.92-2.323 3.649-5.473 3.154-11.946 3.177-18.35l.02-2.437q.028-3.957.041-7.912l.013-2.74q.03-7.166.044-14.33c.011-4.934.046-9.867.085-14.8.026-3.797.035-7.595.038-11.393q.008-2.73.035-5.458c.025-2.54.024-5.078.017-7.618l.039-2.275c-.035-3.446-.245-5.338-2.35-8.122-5.132-3.72-11.313-2.824-17.39-2.86a443 443 0 0 1-5.992-.105c-12.534-.083-12.534-.083-17.777 4.4m107.88-3.976c-1.932.03-3.863.1-5.793.172l-3.226.102c-3.992.98-5.458 2.381-7.861 5.702-.48 3.023-.656 5.475-.6 8.49l-.011 2.555c-.007 2.778.022 5.555.052 8.334q.007 2.901.007 5.801.012 6.075.065 12.148c.045 5.19.06 10.381.064 15.572.004 3.992.02 7.984.039 11.975q.012 2.872.02 5.743c.009 2.674.031 5.347.058 8.02 0 .792 0 1.583.002 2.399.051 3.791.17 6.748 2.304 9.963q14.878.07 29.756.104 6.909.014 13.818.047 6.672.032 13.344.039 2.541.005 5.082.021c2.379.015 4.758.017 7.137.016l2.106.022c7.302-.03 13.72-1.657 19.171-6.597 2.598-4.345 2.393-8.929 2.287-13.902-.087-6.865 1.812-11.62 6.08-16.992l1.719-1.633 1.719-1.68c9.263-7.516 25.623-5.082 36.781-4.445 22.354 2.517 46.384 12.787 60.625 30.5A308 308 0 0 1 429 339l6-1c-2.148-22.908-22.929-45.901-39.895-60.06-25.38-20.39-54.457-26.114-86.183-26.073l-5.574-.003q-5.824-.002-11.65.006-7.409.006-14.818-.004-5.752-.005-11.506 0-2.728 0-5.458-.002c-6.347-.007-12.69.088-19.037.16m541.034 7.167c-3.346 6.25-5.892 12.795-8.351 19.434l-.714 1.908C759.359 316.668 748.119 357.325 762 395c3.969-.12 5.698-1.485 8.313-4.25 8.68-9.109 19.32-12.84 31.775-13.225 14.545-.125 27.208 2.621 38.31 12.64A157 157 0 0 1 846 396l3-1c15.934-36.065-.285-82.192-13.365-116.59-7.245-18.63-7.245-18.63-9.635-23.41q-3.469-.04-6.937-.062l-3.903-.036C812 255 812 255 811 256a111 111 0 0 0-.272 5.694l-.098 3.693q-.152 7.29-.23 14.584c-.041 3.69-.101 7.378-.21 11.067a455 455 0 0 0-.178 10.702 241 241 0 0 1-.17 6.04c.017 9.036.017 9.036 3.363 12.508 2.698 1.838 2.698 1.838 5.393 3.271 4.32 2.59 5.643 6.791 6.976 11.445 1.579 7.4.09 13.546-3.722 19.914-4.048 5.487-9.305 7.627-15.852 9.082-6.095 0-12.023-2.263-16.547-6.422-5.41-6.174-6.028-12.028-5.887-19.996.668-5.516 2.59-9.58 6.434-13.582l2.15-1.04c2.782-1.398 4.716-2.679 6.85-4.96 1.283-4.678 1.076-9.305.914-14.113q-.021-2.069-.031-4.138a596 596 0 0 0-.207-10.844c-.085-3.69-.113-7.38-.149-11.071-.063-5.375-.143-10.75-.27-16.124l-.076-3.276C799 256 799 256 798 255c-2.73-.45-2.73-.45-6.187-.687l-3.418-.325c-3.935 1.173-4.36 1.845-6.48 5.203M452 271c1.912 6.43 4.461 12.132 7.688 18 23.568 43.962 45.645 104.608 30.74 154.846-4.16 12.87-11.277 22.6-20.066 32.586-2.096 2.413-4.101 4.896-6.112 7.38-2.531 3.12-5.107 6.157-7.812 9.125-13.727 15.647-15.59 29.872-15.583 49.93l-.01 4.822q-.014 6.52-.012 13.04-.001 4.078-.006 8.154-.014 14.23-.012 28.46-.001 13.254-.026 26.509-.019 11.394-.018 22.787.002 6.8-.013 13.599-.014 6.39-.003 12.78.003 2.343-.007 4.685c-.008 2.134-.003 4.269.005 6.403l-.002 3.617c.395 5.204 1.52 9.137 5.444 12.652l1.909 1.773 2.021 1.852c14.305 13.782 20.946 30.824 22.078 50.535.21 15.835-3.59 28.3-9.71 42.722C458.27 807.284 458.27 807.284 458 813c1 1 1 1 3.056 1.12l2.74-.006h3.093l3.365-.016 3.426-.005c3.627-.005 7.255-.018 10.882-.03q3.679-.008 7.358-.014 9.04-.017 18.08-.049c-.807-3.678-2.24-6.067-4.375-9.187-10.922-16.998-8.971-38.783-9.031-58.254l-.072-21.847c-.008-6.11-.032-12.219-.084-18.328-.266-32.025.649-63.195 5.462-94.89 1.282-8.472 2.222-16.972 3.1-25.494l-2.824-1.34c-3.702-1.935-6.248-3.959-8.176-7.66-1.455-7.174-1.183-14.775-1.187-22.062l-.038-3.104c-.028-14.664-.028-14.664 3.913-20.209 6.647-4.671 12.37-5.06 20.398-5.414C520 526 520 526 521 525a94 94 0 0 0 .201-5.225l.057-3.435.046-3.804.059-3.982c.174-12.192.267-24.386.34-36.579.057-8.997.15-17.991.297-26.987.099-6.34.15-12.68.17-19.02.012-3.777.045-7.551.13-11.327.38-17.774-.665-31.545-12.104-45.974-2.589-3.608-2.647-7.414-2.196-11.667.94-4.474 2.147-8.867 3.36-13.273l1.047-3.874q1.096-4.05 2.21-8.094c.943-3.432 1.872-6.868 2.796-10.305q1.08-3.999 2.173-7.994.764-2.812 1.521-5.624c4.727-17.103 4.727-17.103 9.393-20.836 6.353-2.541 12.546-2.184 19.313-2.187l3.525-.038c11.829-.02 11.829-.02 16.662 2.225 4.564 9.538 6.736 20.538 9.313 30.75 1.807 7.125 3.652 14.226 5.73 21.277l.993 3.394a532 532 0 0 0 1.918 6.357c2.597 8.838 2.298 14.615-2.143 22.822l-1.249 2.212-1.236 2.272c-1.678 3.063-3.387 6.007-5.326 8.916-.246 2.556-.246 2.556-.24 5.676l-.009 3.582.022 3.934v4.14c-.002 3.747.01 7.495.024 11.242.013 3.916.014 7.832.016 11.748q.011 11.124.043 22.248c.022 8.442.033 16.885.043 25.327q.033 26.052.101 52.103l3.114.16q2.044.116 4.09.235l2.046.101c5.657.34 9.141 1.225 13.75 4.504 7.17 9.56 5.936 26.663 4.652 38.098-.84 4.682-1.967 8.92-4.652 12.902q-1.826 1.094-3.687 2.125c-2.26 1.551-3.195 2.305-3.758 5.031.061 7.561 1.159 14.772 2.42 22.203 5.729 33.925 5.984 67.301 5.699 101.581-.05 6.242-.062 12.484-.064 18.726-.003 7.595-.029 15.189-.063 22.783q-.011 3.22-.016 6.439c-.008 3.989-.042 7.978-.08 11.967v3.513c-.126 9.74-1.536 19.228-6.514 27.757l-1.535 2.695C592 808 592 808 590 810v4q19.676.07 39.35.104 9.137.014 18.272.047 8.812.032 17.623.039 3.367.005 6.733.021c3.137.015 6.273.017 9.41.016l2.83.022 2.587-.008 2.249.005C691 814 691 814 694 812c-.577-5.311-1.47-10.279-2.855-15.453l-1.128-4.27-.596-2.236C682.493 763.957 676.936 737.71 673 711l-.505-3.306c-4.908-33.356-5.574-70.486.505-103.694l.602-3.414c7.206-39.987 21.584-77.29 38.359-114.098C735.748 434 735.748 434 725.953 406.491c-1.221-3.457-2.342-6.946-3.46-10.436l-.674-2.096c-12.062-38.202-4.515-77.56 7.646-114.727.605-2.525.762-4.645.535-7.232-3.094-3.094-6.871-2.474-11.04-2.616l-2.833-.114c-11.493-.42-22.989-.418-34.489-.415l-7.408-.01q-8.928-.011-17.857-.012-7.253 0-14.507-.006-20.618-.014-41.237-.012h-4.468q-18.011-.002-36.022-.023-18.544-.023-37.09-.02-10.392.001-20.784-.014-9.745-.014-19.49-.003-3.58.003-7.16-.007c-3.249-.008-6.497-.003-9.746.005l-2.881-.016-2.635.014h-2.271c-2.38.285-4.012 1.07-6.082 2.249m-258.937 1.313c-1.96 3.112-2.195 5.809-2.224 9.386l-.03 2.882-.012 3.106-.017 3.195q-.014 3.343-.02 6.687c-.01 3.418-.041 6.834-.072 10.251a5238 5238 0 0 0-.016 6.493l-.038 3.106.01 2.882-.011 2.536c.455 2.679 1.2 3.564 3.367 5.163 2.918.293 2.918.293 6.188.188l3.292-.083L206 328c2.417-9.158 2.305-18.166 2.26-27.57-.01-2.753 0-5.506.013-8.26q0-2.642-.007-5.283l.012-2.478c-.035-4.2-.157-7.66-2.278-11.409-3.98-2.654-8.762-3.516-12.937-.687m348.412 30.529c-2.142 4.585-3.458 9.326-4.83 14.19l-.93 3.238q-.966 3.382-1.923 6.768c-.977 3.452-1.969 6.9-2.962 10.349q-.938 3.29-1.873 6.582l-.9 3.122c-.27.964-.54 1.929-.82 2.923l-.726 2.558c-.888 4.216-.959 7.339 1.352 11.022l1.19 1.933 1.26 1.973 1.224 1.973q1.14 1.836 2.296 3.662L535 375l1.55 2.235c1.694 3.23 1.82 5.24 1.81 8.871l.013 3.718-.032 4.054v4.288c.002 3.874-.016 7.747-.037 11.62-.019 4.051-.02 8.102-.024 12.152-.01 7.668-.034 15.335-.064 23.003-.033 8.73-.05 17.46-.065 26.19-.031 17.957-.085 35.913-.151 53.869h24l-.092-9.498q-.15-15.74-.3-31.48l-.18-19.038a18567 18567 0 0 1-.347-39.536c-.045-5.797-.106-11.592-.194-17.388q-.063-4.495-.102-8.99a604 604 0 0 0-.102-5.723c-.079-11.013 2.951-18.898 9.11-27.995 2.958-8.215-.198-18.253-2.27-26.48l-.752-3.022a1232 1232 0 0 0-1.589-6.244 746 746 0 0 1-2.35-9.577q-.775-3.048-1.559-6.095l-.676-2.888c-1.71-6.38-1.71-6.38-4.279-8.308-4.404-1.946-11.333-4.136-14.843.104m-188.663 68.783c-13.115 13.949-19.444 32.48-19.12 51.375 1.104 18.667 10.078 33.805 23.745 46.25C372.7 481.592 390.775 485.323 410 484c18.37-2.232 33.457-11.898 45.344-25.727 10.417-13.487 15.059-30.187 13.375-47.097C466.243 392.96 457.3 378.368 443 367l-1.754-1.473c-2.68-2.064-4.077-2.534-7.496-2.402C431 364 431 364 429 366c-.319 2.936-.319 2.936-.414 6.719l-.059 2.067c-.06 2.238-.107 4.476-.152 6.714l-.115 4.609c-.318 13.296-.374 26.591-.26 39.891l-2.214.382c-2.662.59-4.88 1.401-7.368 2.5l-2.576 1.098q-2.644 1.14-5.274 2.313c-7.804 3.286-12.953 2.78-20.724-.14a534 534 0 0 1-5.344-2.216l-2.781-1.142A952 952 0 0 1 375 426a917 917 0 0 1-1.219-32.52l-.055-2.787c-.075-3.757-.15-7.513-.205-11.27-.039-2.678-.09-5.355-.142-8.032l-.025-2.476c-.127-5.688-.127-5.688-2.354-7.915-6.728 0-13.426 6.184-18.187 10.625M238 368c-1.022 3.067-1.126 5.142-1.127 8.353l-.009 3.37.007 3.702-.006 3.9q-.005 5.31 0 10.623c.003 3.734 0 7.468 0 11.203q-.004 9.452.005 18.905.007 10.803-.002 21.605-.007 9.343-.003 18.687.003 5.547-.001 11.094c-.016 19.878.41 39.692 1.136 59.558h55c1.455-2.91 1.123-5.443 1.12-8.694l.003-2.11q0-3.513-.01-7.029l.001-5.025q-.001-6.837-.013-13.673-.007-7.138-.008-14.278-.005-13.524-.021-27.05-.016-15.396-.022-30.79-.016-31.676-.05-63.351-9.311-.037-18.622-.055-3.161-.008-6.322-.02c-3.046-.013-6.092-.018-9.138-.023l-2.81-.015c-6.419 0-12.727.434-19.108 1.113m543 36c-6.298 8.336-8.781 15.907-7.535 26.262 1.728 8.841 6.394 15.425 13.347 20.988 9.299 5.105 18.778 6.338 29.25 4.094 8.706-2.805 15.428-8.14 19.965-16.121 3.488-7.97 3.65-16 .973-24.223-3.852-8.857-10.125-15.277-19.125-18.937-12.9-3.644-27.25-1.728-36.875 7.937m-650.675-6.819c-1.83 2.512-1.704 4.22-1.71 7.313l-.028 3.483.014 3.845q-.008 2.037-.02 4.073c-.018 3.741-.017 7.482-.014 11.222 0 4.034-.016 8.068-.03 12.102q-.034 10.507-.04 21.013c-.006 10.188-.029 20.375-.056 30.562q-.063 24.91-.095 49.82-.03 23.997-.084 47.992l-.006 2.963-.027 11.802q-.088 37.97-.153 75.941l-.005 2.619a35944 35944 0 0 0-.047 39.412q-.012 14.184-.081 28.368c-.026 5.16-.043 10.321-.06 15.482q-.015 3.507-.04 7.014c-.023 3.157-.034 6.315-.042 9.472l-.03 2.71c.002 9.105.538 17.827 6.584 25.021 4.877 4.715 10.896 5.696 17.432 5.751l2.791.03 2.98.012 3.097.017q3.237.014 6.473.02c3.294.01 6.588.041 9.882.072q3.15.01 6.299.016l2.974.038c5.311-.018 9.156-.31 13.717-3.366 1.574-3.148 1.358-6.563 1.523-10.028l.125-2.444c.417-8.358.713-16.72.985-25.083l.168-5.016q.225-6.744.446-13.49.238-7.18.478-14.36.454-13.66.906-27.32.353-10.697.71-21.395l.1-3.015.498-14.96q.443-13.278.879-26.556c1.125-34.39 1.125-34.39 1.808-51.193 1.534-38.21 1.717-76.388 1.688-114.624-.004-7.068.01-14.137.03-21.205q.025-10.385.02-20.768-.005-6.134.014-12.267.019-5.692-.002-11.386-.004-2.079.009-4.159c.01-1.891 0-3.782-.01-5.674v-3.199c-.436-3.326-1.324-5.215-3.375-7.858-3.188-.621-3.188-.621-7.178-.615l-2.203-.017c-2.405-.012-4.808.012-7.213.038q-2.505.003-5.01 0-5.25.004-10.501.052c-4.49.04-8.978.044-13.468.037-3.448-.004-6.897.009-10.346.026q-2.482.01-4.966.009c-2.313.002-4.625.023-6.937.05l-3.99.026C132 396 132 396 130.325 397.18M762 453l-.743 1.822c-7.126 17.414-14.696 34.58-22.824 51.55C720.814 543.167 706.046 582.112 702 623l-.336 3.363c-4.252 51.655 6.484 103.197 19.086 153.012l.559 2.238c3.02 12.024 5.838 22.152 16.691 29.387 5.13 1.71 10.061 1.646 15.188-.062 4.104-2.828 7.567-6.448 9.812-10.938.74-9.864-.4-18.613-2.962-28.176-.754-2.82-1.465-5.653-2.178-8.484a1905 1905 0 0 0-1.137-4.486C750.868 735.815 745.801 712.623 743 689l-.35-2.878c-8.322-70.932 15.677-135.757 49.7-197.054 2.732-4.967 5.65-10.31 5.65-16.068l-2.238-.445c-12.721-2.813-21.228-8.457-30.426-17.36C763 453 763 453 762 453m86 1-1.398 1.54c-9.171 9.677-20.05 14.496-32.602 18.46 1.842 5.098 3.845 9.914 6.313 14.75l1.02 2.026q2.56 5.077 5.165 10.13c9.811 19.049 18.601 38.398 26.732 58.219q1.04 2.529 2.091 5.053c17.81 43.32 20.273 91.884 12.511 137.674l-.656 3.896c-2.422 14.193-5.369 28.274-8.37 42.353a3450 3450 0 0 0-1.734 8.216q-1.052 5.003-2.111 10.003l-.767 3.637c-1.399 6.557-2.919 13.058-4.636 19.539-1.264 5.67.159 9.389 3.067 14.192 3.665 5.147 7.222 7.284 13.25 9.25 5.396.107 9.864-1.125 14.117-4.536 8.932-9.334 10.819-23.752 13.82-35.902l.658-2.644c9.448-38.14 16.695-76.314 16.77-115.73.01-3.027.041-6.054.072-9.081.102-18.539-1.896-36.673-6.125-54.732l-.794-3.443A795 795 0 0 0 902 577l-.65-2.625c-7.354-28.763-21.154-55.84-34.005-82.44a2496 2496 0 0 1-7.743-16.158l-.978-2.044c-2.528-5.351-4.598-10.788-6.519-16.39L851 455zm-516 25-1.937 3.188-1.09 1.792c-5.82 12.084-3.11 30.718-3.087 43.814v6.834q.001 9.218.013 18.437.007 9.656.008 19.31.004 16.188.018 32.375a74664 74664 0 0 1 .025 45.736q.016 42.757.05 85.514l4 2c3.362-3.851 5.501-7.897 7.625-12.5 3.863-8.045 8.768-14.607 14.375-21.5a402 402 0 0 0 4.5-5.875c.63-.822 1.258-1.645 1.906-2.492 3.251-5.37 3.845-10.783 3.855-16.962l.011-2.133c.01-2.341.007-4.682.003-7.023l.015-5.058c.014-4.568.014-9.137.012-13.705q0-5.733.008-11.465.016-13.534.006-27.07c-.006-9.286.006-18.573.027-27.86q.026-11.985.02-23.97c-.001-4.764.001-9.529.015-14.293q.018-6.73-.002-13.457-.004-2.458.009-4.915c.068-14.568-1.195-26.566-11.385-37.722-11.887-11-11.887-11-19-11m48 21v189l13-1c3.593-.086 7.16-.141 10.75-.125l2.629-.012c5.687.009 10.876.499 16.621 1.137V501h-29zm424 27c-30.579 58.736-46.986 116.748-35.844 182.91l.654 3.902c2.717 15.913 6.334 31.633 9.91 47.371a1690 1690 0 0 1 1.774 7.9q.81 3.65 1.652 7.292c1.938 8.759 2.72 16.803.854 25.625a77 77 0 0 0-.125 4.625l-.008 2.29C783 811 783 811 784 814q8.675.185 17.352.275 2.953.037 5.905.102c2.827.06 5.653.09 8.481.111l2.671.078c2.305.002 4.348-.036 6.591-.566 2.493-2.908 3.404-5.19 3.25-9l-.047-1.937C828 801 828 801 827.507 798.658c-1.98-10.38.647-20.282 2.94-30.38 1.058-4.666 2.074-9.34 3.096-14.012l.63-2.868C851.722 671.385 851.189 599.513 808 527zm-295 20c-.6 2.258-.6 2.258-.559 4.695l.022 2.668.1 2.762.017 2.785c.125 6.795.125 6.795 2.42 9.09 2.971.26 2.971.26 6.833.275l2.13.015c2.33.014 4.66.013 6.99.01l4.858.014q5.1.01 10.2.002c4.348-.006 8.697.01 13.046.034 3.347.015 6.695.016 10.042.013q2.405 0 4.808.015c2.248.013 4.495.006 6.742-.006l3.872.002c3.77-.405 6.222-1.481 9.479-3.374.029-3.27.047-6.542.063-9.812l.025-2.815.01-2.705.016-2.491C590 546 590 546 589 543a5723 5723 0 0 0-29.077-.207c-4.501-.021-9.002-.05-13.502-.095q-6.517-.063-13.033-.078a579 579 0 0 1-4.97-.043c-2.322-.029-4.643-.033-6.966-.031l-2.07-.044c-4.704.04-7.1 1.151-10.382 4.498m-270 9c-2.244 3.366-2.297 4.676-2.44 8.634-.049 1.179-.096 2.358-.145 3.572l-.13 3.938-.161 4.161q-.175 4.521-.335 9.042c-.173 4.877-.36 9.754-.548 14.63l-.098 2.531-.2 5.149q-.153 3.979-.303 7.957c-.662 17.318-1.426 34.631-2.2 51.944-.497 11.143-.978 22.287-1.459 33.431q-.675 15.683-1.381 31.364-.58 12.792-1.121 25.585c-.189 4.454-.383 8.908-.592 13.36q-.288 6.188-.536 12.377-.096 2.257-.207 4.516a507 507 0 0 0-.26 6.163l-.152 3.472c.414 4.9 2.115 8.11 5.706 11.424 3.96 2.705 6.67 3.993 11.507 4.104l2.976.078 3.204.045 3.327.048q3.49.042 6.98.065 3.547.034 7.093.123c3.43.086 6.857.118 10.288.139l3.154.106c7.346-.043 12.501-2.03 18.515-6.23 3.961-4.291 3.837-8.562 3.616-14.144q-.147-2.229-.296-4.457-.088-2.346-.16-4.692a516 516 0 0 0-.414-9.688c-.224-4.416-.346-8.828-.423-13.248-.102-5.584-.227-11.166-.39-16.748l-.062-2.154-.128-4.38q-.168-5.833-.327-11.665-.306-11.028-.623-22.056c-.374-13.05-.738-26.098-1.103-39.148q-.165-5.92-.332-11.84c-.575-20.32-1.118-40.64-1.502-60.966q-.109-5.625-.275-11.248-.066-2.43-.115-4.861a656 656 0 0 0-.225-7.843l-.038-2.429c-.14-3.48-.411-5.761-2.4-8.667-2.754-1.801-4.296-1.995-7.573-1.996l-3.195-.028-3.431.034-3.533-.005a954 954 0 0 0-7.389.034c-3.782.03-7.562.021-11.344.008q-3.584.01-7.172.025l-3.443-.008-3.176.038-2.803.016zm284 30c-10.053 40.212-10.088 80.882-9.843 122.023.035 6.497.021 12.994-.004 19.49a3116 3116 0 0 0 .005 21.408q.014 4.49-.006 8.98c-.016 4.155.017 8.308.056 12.463l-.032 3.665c.204 12.676 5.74 21.743 14.293 30.682 8.566 7.747 18.507 7.948 29.489 7.464 8.144-.697 14.728-5.177 20.042-11.175 7.04-9.731 8.3-17.879 8.306-29.648l.026-3.827c.022-3.459.03-6.917.035-10.376q.006-3.267.017-6.534.037-11.476.042-22.954c.003-7.039.033-14.078.075-21.117q.051-9.155.05-18.31c.002-3.618.01-7.234.039-10.852.156-20.543-1.774-40.143-5.245-60.369q-.536-3.135-1.06-6.272A2922 2922 0 0 0 575 586zM361.14 722.215C351.062 735.329 347.729 749.719 349 766c2.184 14.624 9.503 27.291 21.25 36.313 12.804 8.809 26.988 11.856 42.266 9.039 16.093-4.549 27.356-13.554 35.718-27.875 6.528-12.854 8.046-27.383 4.204-41.29C446.54 725.633 436.625 715.446 421 708c-21.107-8.293-44.44-1.953-59.86 14.215" id="svg-layer-1" style="pointer-events: all;"/><path fill="#F7E6C0" d="m460.353 268.751 2.635-.014 2.88.016 3.072-.008c3.407-.005 6.815.003 10.222.012q3.66-.001 7.318-.006 8.923-.005 17.847.01c6.943.01 13.886.01 20.83.01q18.615.001 37.23.023 18.004.021 36.01.02h4.462q20.548 0 41.097.015 7.23.004 14.462.004 9.787.001 19.573.017 3.57.004 7.138.004c11.284-.002 22.556.077 33.831.53l2.69.092c6.113.287 6.113.287 8.35 2.524-.28 7.771-2.567 14.85-4.812 22.25-9.918 33.626-13.591 67.869-2.696 101.805l.679 2.116c1.113 3.44 2.263 6.86 3.475 10.265 4.352 12.572 5.089 24.72.979 37.502l-.804 2.638c-5.203 16.5-12.257 32.311-19.384 48.049-20.54 45.379-37.28 94.223-37.675 144.559l-.03 3.154c-.185 24.848.47 49.094 4.268 73.662l.323 2.131c4.125 27.167 10.303 53.898 17.95 80.288 2.31 8.107 2.31 8.107 1.727 11.581-3.089 2.06-3.71 2.25-7.195 2.24l-2.588.009-2.83-.022h-2.986a2239 2239 0 0 1-9.788-.032l-6.78-.008c-5.953-.008-11.906-.028-17.859-.05-6.073-.02-12.145-.03-18.218-.04-11.919-.02-23.837-.055-35.756-.097.693-3.899 1.694-6.43 3.875-9.75 4.766-7.669 7.214-15.668 7.292-24.716l.035-3.295.023-3.59.034-3.807c.037-4.18.062-8.36.085-12.541l.012-2.18q.056-10.264.089-20.529c.025-7.854.062-15.708.138-23.562.337-35.595-.516-69.823-6.514-105.037-2.214-13.42-2.214-13.42-1.069-18.993 1.63-1.682 3.129-2.621 5.18-3.738 3.45-2.392 4.672-6.35 5.82-10.262 2.204-12.372 2.316-27.04-2-39-4.041-4.913-7.485-6.724-13.77-7.414a322 322 0 0 0-4.043-.211l-2.1-.117A693 693 0 0 0 578 525q-.354-26.914-.518-53.829c-.051-8.333-.121-16.666-.236-24.999q-.152-10.906-.187-21.814a730 730 0 0 0-.116-11.527c-.305-16.567-.193-30.363 9.97-44.27 3.14-4.51 3.278-7.905 2.539-13.132-.767-4.124-1.866-8.125-3.034-12.152l-.774-2.738c-.812-2.87-1.634-5.735-2.457-8.601q-1.607-5.642-3.207-11.286l-.786-2.758c-1.94-6.851-3.659-13.735-5.244-20.677-.932-3.155-2.201-5.455-3.95-8.217v-2c-6.617-2.414-13.012-2.332-20-2.312l-3.484-.05c-6.863-.003-12.631.043-18.073 4.693-5.475 6.335-7.011 16.772-9.115 24.65l-.992 3.673q-1.288 4.79-2.564 9.584c-.697 2.602-1.404 5.201-2.112 7.8-.848 3.125-1.683 6.253-2.52 9.38-.315 1.157-.63 2.315-.956 3.507-3.434 13.007-3.434 13.007-1.082 18.778l1.523 2.547L514 375l1.477 2.233c4.734 7.668 5.332 13.8 5.112 22.684q-.016 2.04-.027 4.083c-.024 3.661-.086 7.321-.156 10.982-.066 3.838-.097 7.676-.132 11.515-.071 7.253-.174 14.505-.287 21.758a5433 5433 0 0 0-.312 24.791c-.186 16.985-.417 33.97-.675 50.954h-11v2l-2.555 1.137-3.32 1.55c-1.09.5-2.181.998-3.305 1.512-4.024 2.57-4.37 4.918-5.437 9.38-.566 5.058-.527 10.085-.508 15.171l-.012 3.133c.024 18.888.024 18.888 5.371 24.742 2.12 1.65 4.244 2.483 6.766 3.375q-.398 3.554-.802 7.107-.385 3.394-.76 6.79c-.684 6.062-1.41 12.102-2.367 18.128-4.734 29.87-4.75 59.61-4.544 89.786.036 5.492.046 10.983.049 16.474q.006 9.073.04 18.146.012 3.793.02 7.585c.118 45.428.118 45.428 12.227 59.398C510 811 510 811 510 814q-10.868.037-21.735.055-3.7.008-7.4.02c-3.537.013-7.074.018-10.611.023l-3.365.015h-3.094l-2.739.007C459 814 459 814 458 813c.325-6.88 3.215-12.732 5.875-19 9.03-22.005 11-43.154 2.875-65.812-4.637-11.052-10.97-18.882-19.683-26.975l-1.934-1.83-1.754-1.613c-2.986-3.832-2.506-8.857-2.513-13.517l-.007-2.016q-.007-3.335-.004-6.669l-.01-4.79q-.014-6.504-.012-13.006-.001-4.068-.006-8.137-.014-14.211-.012-28.421-.001-13.217-.026-26.432-.019-11.368-.018-22.735.002-6.78-.013-13.559-.014-6.386-.003-12.772.003-2.332-.007-4.663c-.088-24.07 6.726-39.2 23.066-56.511 20.98-22.344 31.103-45.375 30.28-76.204-1.868-46.807-18.042-88.729-39.391-129.836C452 273.222 452 273.222 452 271c2.92-1.663 5.003-2.25 8.353-2.249M139.178 395.58l2.203-.026a704 704 0 0 1 7.213-.023l5.01-.023q5.25-.019 10.501-.009c4.49.006 8.978-.025 13.468-.065 3.448-.026 6.897-.029 10.346-.025a512 512 0 0 0 4.966-.03c2.313-.021 4.624-.012 6.937.006l3.99-.006c3.188.621 3.188.621 4.863 2.818 1.437 3.04 1.706 4.934 1.72 8.275.01 1.093.022 2.186.034 3.311l-.01 3.62a1579.147 1579.147 0 0 1 .048 14.44c.002 3.017.013 6.034.023 9.051.03 9.055.028 18.11.016 27.164q-.008 6.49-.007 12.98c-.006 66.263-1.86 132.388-4.534 198.59a6191 6191 0 0 0-1.93 53.25l-.106 3.34q-.298 9.396-.588 18.791-.338 10.903-.687 21.805-.108 3.41-.211 6.82c-.106 3.41-.233 6.818-.367 10.227-.083 2.345-.138 4.691-.194 7.038q-.082 2.45-.168 4.9l-.036 2.304c-.143 3.485-.402 5.533-2.535 8.347-3.208 2.32-5.808 2.678-9.655 2.711l-2.763.03-2.983.012-3.084.017q-3.236.014-6.47.02c-3.28.01-6.558.04-9.836.072q-3.15.01-6.297.016l-2.946.038c-7.354-.024-13.569-1.242-19.922-5.053-7.826-8.274-7.34-18.726-7.289-29.456l.004-3.346q.01-5.55.028-11.099l.014-8.017q.014-8.658.035-17.315c.023-9.106.034-18.212.043-27.318a93638 93638 0 0 1 .24-128.397l.007-2.912c.036-15.737.06-31.474.081-47.21q.033-24.407.099-48.813.04-14.979.05-29.958.01-10.2.047-20.397.023-5.88.019-11.759-.004-5.373.028-10.746c.008-1.916.001-3.831-.006-5.747l.028-3.42.006-2.964C129 399 129 399 130.325 397.187c2.778-1.968 5.506-1.586 8.853-1.607" id="svg-layer-2" style="pointer-events: all;"/><path fill="#D6710E" d="M239 556c2.226-.388 2.226-.388 5.029-.404l3.176-.038 3.443.008 3.528-.015q3.7-.01 7.4.003c3.777.008 7.553-.02 11.33-.052q3.59-.003 7.18.002l3.431-.034 3.195.028h2.808c3.392.686 4.496 1.673 6.48 4.502.46 2.651.653 4.914.691 7.578l.083 2.471q.09 2.846.153 5.69c.08 3.587.187 7.173.295 10.759.245 8.258.45 16.517.654 24.777q.158 6.317.32 12.635.303 11.98.601 23.96a104459 104459 0 0 0 1.073 42.64q.188 7.433.374 14.865a14796 14796 0 0 0 1.343 50.966c.205 7.412.434 14.82.82 22.226.145 2.861.242 5.724.328 8.588q.081 2.106.225 4.21c.385 5.9.628 11.26-2.784 16.363-9.03 7.623-21.28 6.373-32.431 6.15-3.501-.066-6.997-.061-10.499-.048a1802 1802 0 0 1-6.73-.06l-3.142.002c-6.702-.174-11.165-1.467-16.374-5.772-3.386-3.604-3.998-6.526-4.004-11.427q.078-2.097.174-4.192l.092-2.34q.157-3.887.327-7.773l.226-5.576q.31-7.598.633-15.194.335-8.012.662-16.024.555-13.523 1.123-27.044.787-18.82 1.56-37.64c1.85-44.87 1.85-44.87 2.475-59.491l.122-2.856.243-5.695c.26-6.117.504-12.234.74-18.352q.246-6.312.505-12.624.12-3.008.23-6.014c.101-2.76.214-5.519.329-8.278l.082-2.482c.17-3.804.324-5.763 2.481-8.998" id="svg-layer-3" style="pointer-events: all;"/><path fill="#F8E7C1" d="M804 527h4c17.392 31.013 30.901 63.802 37 99l.385 2.047c8.133 44.065-4.04 91.236-13.639 134.12l-.723 3.23a3328 3328 0 0 1-1.36 6.04c-1.435 6.383-2.807 12.553-2.788 19.125l-.008 2.754c.132 2.662.585 5.081 1.133 7.684.203 2.063.203 2.063.25 4l.078 1.938c-.497 3.125-1.245 4.632-3.328 7.062-3.08.727-6.113.58-9.262.488l-2.745-.021c-2.894-.028-5.787-.09-8.68-.154q-2.943-.038-5.885-.069c-4.81-.055-9.619-.141-14.428-.244-.928-2.783-1.135-4.499-1.125-7.375l-.008-2.273c.133-2.352.133-2.352.626-4.692 1.826-9.58-.28-18.723-2.415-28.074q-.458-2.072-.913-4.145c-.797-3.626-1.608-7.249-2.422-10.87-11.542-51.372-11.542-51.372-12.993-74.009l-.226-3.264C760.984 624.593 779.038 574.95 804 527" id="svg-layer-4" style="pointer-events: all;"/><path fill="none" d="m404.16 142.86 2.875-.01q4.792-.01 9.583-.011l6.854-.015q9.325-.019 18.651-.024 5.824-.005 11.647-.012 16.126-.019 32.252-.026h4.175l4.193-.002h2.101q16.845-.009 33.692-.046 17.298-.035 34.596-.037 9.711 0 19.422-.025 9.135-.023 18.27-.01 3.354.002 6.706-.013c3.052-.013 6.104-.007 9.156.004l2.68-.025c5.408.043 9.192.833 13.987 3.392 1.523 1.902 1.523 1.902 2.375 3.938l.898 2.027c1.73 4.843 1.888 9.38 1.895 14.492l.01 2.488q.007 2.604.007 5.208c.002 2.64.02 5.28.04 7.92q.005 2.534.005 5.072l.022 2.37c-.02 4.808-.567 8.918-2.252 13.485-7.222 6.861-16.006 6.151-25.45 6.134l-2.75.007q-4.53.007-9.058.004l-6.521.01q-8.833.014-17.665.012-5.523.002-11.044.006-19.272.013-38.545.012-17.952.001-35.904.026-15.429.019-30.857.018-9.208-.002-18.416.013-8.658.014-17.316.003-3.173-.003-6.345.007c-2.893.008-5.786.003-8.68-.005l-2.519.016c-6.631-.039-13.182-.51-18.868-4.138-5.43-5.595-5.22-12.596-5.265-20.05l-.017-2.264q-.014-2.362-.02-4.723c-.01-2.383-.041-4.765-.072-7.149-.128-18.057-.128-18.057 4.729-23.538 5.263-4.658 10.06-4.548 16.742-4.541" id="svg-layer-5" style="pointer-events: all; fill: none;"/><path fill="#D6710E" d="M523 586h52q1.907 11.122 3.79 22.247.64 3.776 1.29 7.55c.625 3.64 1.24 7.283 1.854 10.926l.58 3.344c2.999 17.978 2.68 36.06 2.724 54.23l.013 4.23q.029 9.924.041 19.85.015 11.388.077 22.774.044 8.86.048 17.719c.002 3.512.011 7.023.036 10.535.028 3.914.024 7.828.017 11.742l.039 3.464c-.074 11.483-3.32 21.136-11.509 29.389-9.898 8.036-19.69 8.849-32 8-8.143-1.061-13.612-6.06-19-12-4.958-6.697-9.22-13.114-9.294-21.629l-.044-3.405-.016-3.712-.04-3.936c-.042-4.324-.063-8.647-.083-12.97l-.024-4.53q-.058-10.716-.083-21.432c-.018-7.306-.056-14.612-.13-21.918-.98-99.08-.98-99.08 9.714-120.468M848 454c3 1 3 1 3.973 2.73l.875 2.317 1.056 2.692 1.159 3.011c4.435 11.105 9.516 21.787 14.812 32.5 21.548 43.736 41.232 90.618 41.293 140.234l.01 2.96q.007 3.092.007 6.182c.002 3.074.02 6.148.04 9.222.056 19.223-1.543 38.085-4.788 57.027l-.378 2.247C902.818 734.248 898.56 753.15 894 772l-.512 2.122A839 839 0 0 1 890.25 787l-.78 3.088c-2.34 8.687-5.851 15.833-13.47 20.912-4.478 2.068-7.962 2.304-12.687.875-6.579-2.618-9.828-6.254-13.493-12.168-2.107-6.955.862-15.364 2.438-22.258l1.387-6.192.732-3.249C867.872 708.066 877.87 652.881 864 592l-.895-4.191c-7.597-32.298-24.658-63.413-39.574-92.852l-.93-1.838q-2.062-4.066-4.144-8.121l-1.363-2.674-1.166-2.267c-.906-2.009-1.469-3.906-1.928-6.057l3.148-1.102C829.414 468.518 839.095 463.8 848 454M762 453l2.813 2.5c9.968 8.467 19.942 15.641 33.187 17.5-.56 4.763-1.917 8.256-4.125 12.5l-2.176 4.254-1.268 2.461c-19.588 38.114-37.71 76.781-46.306 119.035l-.616 3.027c-9.464 49.143 2.609 100.612 13.968 148.254l.676 2.837a676 676 0 0 0 3.656 14.546c1.112 4.422 1.624 8.398 1.629 12.961l.058 3.68c-.754 5.234-3.457 8.987-7.558 12.258-4.817 3.587-9.13 3.735-14.938 3.187-6.738-2.462-11.775-7.635-15-14-1.493-4.333-2.62-8.747-3.75-13.187l-1.035-3.996c-1.097-4.266-2.16-8.54-3.215-12.817l-.527-2.124c-4.302-17.367-7.993-34.773-10.848-52.438l-.368-2.27C695.263 642.721 704.13 578.818 734 516q3.501-7.399 6.995-14.801l2.13-4.51C748.38 485.576 753.42 474.414 758 463l1.36-3.355q1.337-3.317 2.64-6.645" id="svg-layer-6" style="pointer-events: all;"/><path fill="#F6E6C1" d="M245.175 251.958c5.741-.107 11.481-.124 17.223-.126l5.543-.01q5.775-.009 11.552-.007c4.89 0 9.78-.014 14.67-.031q5.715-.015 11.429-.013 2.7 0 5.403-.013c36.264-.143 66.001 9.965 93.005 34.242l1.98 1.727C419.23 300 429.282 318.01 435 335v3l-6 1-1.398-1.906c-14.427-18.931-36.628-28.842-59.72-32.741-5.189-.636-10.35-.64-15.57-.603l-3.26-.023c-9.38.023-16.245.711-23.29 7.328-2.525 2.788-4.108 5.57-5.762 8.945l-1 2a704 704 0 0 0-.036 6.223c-.112 10.35-.112 10.35-2.562 14.453-6.09 5.48-13.263 6.634-21.265 6.551h-2.279c-2.462 0-4.923-.016-7.385-.032l-5.15-.008q-6.748-.014-13.498-.05c-4.599-.02-9.197-.03-13.796-.04-9.01-.02-18.02-.055-27.029-.097-2.562-3.86-2.303-7.901-2.306-12.361l-.026-2.549c-.024-2.779-.032-5.557-.04-8.336l-.026-5.799q-.024-6.076-.028-12.153c-.005-5.19-.043-10.379-.088-15.568-.03-3.992-.037-7.984-.038-11.976a660 660 0 0 0-.038-5.74 546 546 0 0 1-.01-8.028l-.044-2.391c.052-3.892.499-5.898 2.8-9.08 3.28-2.328 4.957-2.697 8.944-2.821l3.76-.14c2.105-.034 4.21-.06 6.315-.1" id="svg-layer-7" style="pointer-events: all;"/><path fill="#F7E7C1" d="M370.375 361.188C372 362 372 362 373 363c.149 2.77.236 5.52.281 8.293l.055 2.577q.058 2.738.11 5.477c.09 4.7.194 9.399.3 14.098l.062 2.788c.229 9.93.652 19.848 1.192 29.767 3.677 1.548 7.368 3.058 11.063 4.563l3.146 1.326c10.261 4.137 16.18 2.222 26.041-1.952a1070 1070 0 0 1 5.328-2.222l2.357-.996C425 426 425 426 428 426l-.016-1.847c-.059-8.052-.044-16.102.016-24.153l.016-2.227q.054-6.96.193-13.92.04-2.289.062-4.576c.02-2.155.067-4.307.12-6.46l.063-3.768C429 366 429 366 430.856 364.07c3.129-1.562 4.835-1.078 8.144-.07 15.15 9.848 24.822 24.574 29 42 .561 2.735.816 5.186 1 8l.156 2.215c.697 17.917-6.624 33.69-18.062 47.004-12.377 13.188-30.106 20.557-48.02 21.186-18.108.243-34.361-5.39-48.074-17.405l-2.05-1.73c-11.408-10.389-18.09-26.354-19.188-41.575-.389-18.68 5.319-36.784 18.238-50.695 12.354-12.288 12.354-12.288 18.375-11.812" id="svg-layer-8" style="pointer-events: all;"/><path fill="#F8E8C1" d="m259.918 366.902 2.98.005c3.096.005 6.193.018 9.29.03q3.176.009 6.353.014 7.73.017 15.459.049.035 33.418.052 66.835.007 15.516.023 31.03.015 13.518.02 27.036 0 7.162.01 14.325.01 6.733.008 13.466 0 2.479.006 4.958.007 3.369.001 6.738l.003 3.818C294 538 294 538 293 539a91 91 0 0 1-5.162.114H284.5l-3.63-.016-3.695-.005c-3.913-.005-7.826-.018-11.738-.03q-3.968-.009-7.936-.014c-6.5-.01-13.001-.03-19.502-.049-.794-20.575-1.153-41.119-1.134-61.709q.002-5.62-.002-11.242-.003-9.378.006-18.756.007-10.828-.002-21.655-.007-9.38-.003-18.759.003-5.57-.001-11.137-.004-6.16.007-12.317l-.007-3.702.009-3.37.001-2.93C237 371 237 371 238 368c7.33-.78 14.549-1.139 21.918-1.098" id="svg-layer-9" style="pointer-events: all;"/><path fill="#F7E7C1" d="M332 479c9.098.867 16.151 7.576 21.96 14.254 8.4 11.04 8.483 23.513 8.428 36.846q.007 2.538.016 5.075c.014 4.56.009 9.12-.001 13.68-.008 4.787 0 9.576.004 14.364.006 8.035-.002 16.07-.016 24.105a7856 7856 0 0 0 .006 27.822q.02 11.976.007 23.953-.008 7.139.005 14.277.012 6.709-.015 13.418-.006 2.454.004 4.909c.074 20.034.074 20.034-6.898 27.922-8.231 9.805-15.641 19.514-20.863 31.272-2.198 4.817-2.198 4.817-4.86 6.552L328 738c-2.658-2.658-2.242-4.624-2.263-8.239l.016-2.677-.008-2.834c-.005-3.153.003-6.306.012-9.46q-.001-3.38-.006-6.76c-.005-6.14.003-12.278.013-18.417.009-6.425.007-12.85.007-19.275q.002-16.208.023-32.414.021-16.642.02-33.284v-4.127q.001-19.928.016-39.857l.003-11.457q.002-9.037.017-18.073.004-3.306.004-6.61c-.006-36.288-.006-36.288 6.146-45.516M380 500l14 1h29v188l-9-1c-3.418-.161-6.829-.14-10.25-.125l-2.582-.012c-7.14.01-13.992.585-21.168 1.137z" id="svg-layer-10" style="pointer-events: all;"/><path fill="#D6710E" d="M432 714c11.322 8.516 19.806 20.793 22 35 1.146 17.86-2.49 32.296-14.187 46.188-8.934 9.548-21.202 16.163-34.344 17.05-16.036.3-29.544-4.107-41.524-15.14-11.949-12.885-15.716-28.053-15.072-45.149.857-13.107 8.01-26.083 17.533-34.832C385.397 701.615 411.59 700.323 432 714m-49.812 26.75c-5.607 6.977-6.76 13.138-6.543 22.059.517 4.644 1.964 8.212 4.355 12.191l1.625 2.75c4.856 4.6 10.634 7.515 17.375 7.813 7.843-.492 13.95-3.02 19.438-8.688 4.588-5.635 6.097-11.218 7-18.312-1.11-9.027-4.53-16.553-11.438-22.563-10.524-6.735-23.577-3.948-31.812 4.75" id="svg-layer-11" style="pointer-events: all;"/><path fill="#A8A59C" d="M548.637 300.637c3.52.541 6.506 1.21 9.363 3.363 1.718 3.147 2.46 6.459 3.273 9.934l.77 2.994a504 504 0 0 1 1.557 6.292c.766 3.182 1.573 6.35 2.388 9.52q.771 3.065 1.535 6.131l.714 2.833c2.68 11.215 4.052 20-1.612 30.358l-2.523 4.91-1.146 2.134c-1.782 3.53-2.08 6.306-2.071 10.2l.002 3.459.02 3.891.01 4.188c.072 22.628.327 45.255.547 67.882q.09 9.545.18 19.09.176 18.593.356 37.184h-24l.08-5.37q.367-25.155.542-50.31c.061-8.621.145-17.24.283-25.86.12-7.523.198-15.045.224-22.568.016-3.976.051-7.95.14-11.924.368-17.174.2-30.689-10.783-44.898-2.242-3.103-2.825-4.94-2.438-8.761.28-1.444.594-2.882.952-4.309l.638-2.891.729-2.505.83-2.89.893-3.023.923-3.175q.961-3.298 1.934-6.593a2135 2135 0 0 0 2.95-10.124q.938-3.21 1.88-6.42l.888-3.065.839-2.824.73-2.488c1.685-4.405 4.046-4.252 8.403-4.365" id="svg-layer-12" style="pointer-events: all;"/><path fill="#F7E7C2" d="m146.754 251.602 3.838-.012 3.97.035 3.983-.035 3.834.012 3.486.01c4.433.549 7.019 2.272 10.135 5.388a93 93 0 0 1 .259 7.703l.01 2.41c.01 2.641.003 5.282-.003 7.922l.005 5.51q.005 5.786-.01 11.573c-.012 4.927-.005 9.854.007 14.78q.009 5.698 0 11.395-.003 2.722.005 5.445c.005 2.551-.003 5.102-.014 7.653l.012 2.244c-.041 5.168-.388 10.507-2.271 15.365-6.36 4.24-14.051 3.219-21.437 3.25l-3.682.063-3.565.015-3.236.028c-5.002-.578-8.024-2.066-11.225-5.978-2.14-3.896-2.428-6.948-2.388-11.276-.01-.768-.018-1.537-.027-2.328a604 604 0 0 1-.006-7.579q-.008-2.649-.02-5.297-.014-5.546.01-11.09c.017-4.724-.007-9.446-.042-14.17-.022-3.646-.02-7.292-.012-10.938q0-2.61-.02-5.222c-.121-16.753-.121-16.753 4.187-22.134 4.37-4.014 8.433-4.725 14.217-4.742M788.395 253.988l3.418.325 3.457.238C798 255 798 255 799 256c.146 1.894.223 3.794.272 5.694l.098 3.693q.152 7.29.23 14.584c.041 3.69.101 7.378.21 11.067.103 3.567.158 7.132.178 10.702.023 2.014.097 4.027.17 6.04-.017 9.023-.017 9.023-3.343 12.512-2.683 1.842-2.683 1.842-5.358 3.28-4.22 2.453-6.11 5.823-7.457 10.428-.903 7.09-1.082 14.138 2.746 20.395 4.431 5.673 9.731 7.937 16.254 10.605l-1 11-2.93.7c-11.992 2.957-20.821 6.5-29.746 15.41-2.52 2.05-4.132 2.551-7.324 2.89q-1.227-4.029-2.437-8.062l-.698-2.28c-6.037-20.21-3.288-42.381 1.135-62.658l.569-2.622c2.917-12.882 7.394-25.247 11.931-37.628l.833-2.296c8.59-23.537 8.59-23.537 15.062-25.466M815.16 254.902l3.903.036 3.91.027L826 255c17.624 41.715 38.22 90.915 24.5 136.5L849 395l-3 1-1.398-1.54c-8.339-8.8-17.1-13.003-28.602-16.46a998 998 0 0 1-6-2c-.273-11.656-.273-11.656 2.672-14.766a69 69 0 0 1 4.258-2.207c4.444-2.205 6.606-5.834 8.383-10.402 1.644-8.67.637-15.817-4-23.375C819 323 819 323 817.053 322.18c-2.55-1.122-4.154-2.126-6.053-4.18-1.166-4.642-.956-9.265-.816-14.016q.018-2.07.027-4.141c.025-3.624.098-7.246.181-10.869.06-2.966.087-5.933.111-8.9.05-6.116.128-12.233.257-18.348l.066-3.286c.263-3.688.543-3.42 4.334-3.538" id="svg-layer-13" style="pointer-events: all;"/><path fill="#F7E7C1" d="M824 399c7.846 4.907 12.252 12.586 14.66 21.422 1.24 8.032-.495 16.03-5.129 22.7-6.42 7.878-13.794 12.134-23.96 13.257-9.814.333-18.18-1.336-25.946-7.567-6.514-6.247-10.46-14.367-10.691-23.406.384-8.286 3.094-14.887 8.441-21.219 12.33-10.274 27.88-13.129 42.625-5.187" id="svg-layer-14" style="pointer-events: all;"/><path fill="#00223B" d="M411.438 734.563C419.28 739.318 422.717 746.318 425 755c.85 6.92-.827 13.666-4.629 19.5-5.232 6.427-10.72 9.584-18.879 10.906-6.69.42-12.067-1.525-17.492-5.406-5.776-5.812-8.275-12.107-8.375-20.312.155-8.535 2.86-14.95 8.7-21.18 7.345-6.61 18.01-7.982 27.113-3.946" id="svg-layer-15" style="pointer-events: all;"/><path fill="#D6710E" d="m521.452 542.546 2.22-.002c2.408.003 4.815.034 7.223.065q2.51.012 5.023.018c4.398.015 8.795.054 13.192.098 4.492.041 8.983.06 13.474.08q13.208.066 26.416.195c.96 2.883 1.117 4.677 1.098 7.668l-.01 2.705-.025 2.814-.014 2.85A1834 1834 0 0 1 590 566c-4.644 2.7-8.003 3.375-13.35 3.372l-2.151.011c-2.328.008-4.655-.005-6.983-.02q-2.436 0-4.87.002-5.089 0-10.178-.029c-4.353-.023-8.707-.023-13.06-.016-3.348.003-6.695-.004-10.043-.013q-2.409-.006-4.818-.004-3.357-.002-6.714-.028l-3.862-.014C511 569 511 569 509 567c-.5-3.27-.417-6.572-.437-9.875l-.1-2.762-.022-2.668-.04-2.437c1.664-6.27 7.465-6.83 13.051-6.712" id="svg-layer-16" style="pointer-events: all;"/><path fill="#A9A69D" d="M198.813 270.75c2.798.04 4.085.198 6.625 1.5 3.548 3.975 2.723 9.494 2.73 14.54l.01 2.6q.007 2.727.007 5.452c.002 2.752.02 5.504.04 8.256.026 8.546-.018 16.58-2.225 24.902-1.937.081-3.875.14-5.812.188l-3.27.105C194 328 194 328 192.342 326.773c-1.728-2.283-1.722-3.594-1.73-6.44l-.029-2.863.019-3.087-.01-3.18q-.002-3.331.017-6.662c.016-3.396 0-6.79-.02-10.186q.004-3.236.013-6.472l-.019-3.075c.067-6.714.34-13.54 8.23-14.058" id="svg-layer-17" style="pointer-events: all;"/><path fill="#CFCBC2" d="m519 386 2 1q.035 26.963.052 53.927.007 12.519.023 25.038.015 10.907.02 21.814 0 5.78.01 11.558.01 5.433.008 10.866.002 2.957.011 5.915l-.004 3.523.003 3.08C521 525 521 525 520 526c-2.02.072-4.042.084-6.062.063l-3.348-.028L508 526v-2h11z" id="svg-layer-18" style="pointer-events: all;"/><path fill="#A6A49C" d="M811 363v14h-12l3-1v-10c5.625-3 5.625-3 9-3" id="svg-layer-19" style="pointer-events: all;"/></svg>