<svg xmlns="http://www.w3.org/2000/svg" viewBox="0 0 2048 2048">
<path fill="#013152" fill-rule="evenodd" d="M1349,1801L1376,1803Z M1329,1801L1303,1803Z M1243,1801L1298,1803Z M720,1801L701,1803Z M653,1801L673,1803Z M834,1801L761,1803Z M732,1796L733,1803L757,1803Z M838,1801L1235,1803L1204,1798L1031,1801L1029,1793L1024,1801L982,1801L981,1795L977,1801L948,1796Z M794,1580L798,1588Z M1182,1580L1170,1583Z M894,1577L883,1581L894,1583Z M1505,1570L1502,1577L1507,1578Z M1331,1554L1328,1562L1333,1563Z M1337,1538L1328,1541L1328,1549Z M595,1527L594,1534L601,1534Z M1279,1513L1272,1517L1274,1531Z M594,1485L597,1501Z M1518,1436L1524,1446L1526,1437Z M1343,1426L1346,1438Z M1529,1409L1523,1416L1523,1432L1529,1427Z M1346,1392L1348,1416Z M718,1370L722,1381Z M574,1366L581,1373Z M697,1363L695,1371L701,1371Z M751,1353L745,1372L762,1375L760,1361Z M1288,1350L1299,1361Z M756,1327L739,1341L758,1339Z M897,1321L892,1330Z M540,1312L548,1318Z M1491,1305L1492,1311L1504,1315Z M732,1302L724,1305L727,1315Z M513,1300L504,1311L513,1310Z M1537,1297L1540,1309L1547,1310L1546,1296Z M1154,1292L1151,1301L1159,1311L1160,1292Z M569,1291L555,1296Z M1364,1265L1361,1276Z M884,1265L897,1269Z M1483,1253L1482,1262L1487,1262Z M1165,1250L1155,1251L1151,1264Z M514,1250L517,1263Z M1358,1249L1359,1260L1364,1261L1365,1249Z M518,1245L527,1268L525,1252L535,1250Z M1330,1242L1339,1246Z M688,1238L681,1245L687,1245Z M545,1238L539,1240L540,1246Z M945,1233L950,1242L951,1235Z M523,1221L522,1228L527,1229Z M686,1219L680,1232L687,1230Z M1363,1218L1360,1225L1367,1237L1368,1218Z M1556,1213L1551,1225L1557,1222Z M920,1211L922,1219L928,1217Z M515,1211L514,1218L520,1218Z M736,1209L739,1215L741,1210Z M491,1202L494,1215L496,1204Z M1552,1201L1557,1208Z M942,1198L946,1222L950,1210Z M735,1192L742,1198Z M1305,1189L1303,1198L1310,1200L1312,1194Z M944,1188L953,1199Z M1554,1187L1558,1197L1561,1188Z M546,1164L545,1182L554,1182Z M1500,1163L1493,1181L1502,1184Z M1306,1161L1310,1169L1311,1162Z M738,1157L734,1168L741,1165Z M493,1145L502,1149L501,1142Z M944,1140L946,1146L954,1144L954,1139Z M505,1134L512,1142Z M1529,1127L1523,1133Z M1559,1108L1563,1121Z M521,1108L516,1108L516,1115Z M669,1092L665,1101L673,1111Z M671,1080L666,1087L673,1085Z M1378,1075L1382,1086L1383,1077Z M1573,1068L1568,1081L1575,1076Z M1577,1059L1567,1056L1562,1068Z M682,1040L687,1049Z M1545,1024L1548,1030L1557,1027Z M722,1018L724,1028Z M1170,950L1173,966Z M491,945L479,952L480,960Z M1585,944L1590,959Z M463,943L452,953L456,960L464,958Z M520,937L515,945L522,942Z M1398,934L1393,949Z M680,936L674,934L671,945Z M1562,929L1569,933Z M487,918L478,932L486,932L482,926Z M1569,913L1563,923L1570,922Z M651,912L648,946L654,949L654,931L663,920Z M492,912L501,921Z M1344,873L1337,881L1338,895L1344,889Z M1599,848L1601,857Z M676,848L666,854L666,865L676,857Z M935,832L929,836L934,838Z M1610,816L1604,827L1590,831L1604,832Z M486,802L486,811L501,819L501,812Z M1547,793L1544,804Z M655,790L660,799L670,800L668,793L659,793L661,787Z M1524,773L1435,773L1426,782L1415,926L1399,1035L1402,1047L1388,1132L1391,1160L1378,1228L1368,1377L1355,1453L1348,1566L1425,1565L1431,1557L1423,1546L1426,1537L1432,1539L1437,1486L1444,1469L1441,1455L1462,1331L1460,1309L1477,1218L1474,1207L1479,1203L1471,1194L1480,1190L1487,1110L1495,1086L1492,1070L1506,1011L1504,989L1523,881L1520,843L1528,837L1535,777Z M1335,773L1193,776L1181,1013L1184,1046L1179,1066L1180,1171L1174,1195L1181,1204L1174,1215L1173,1318L1163,1418L1164,1567L1254,1565L1248,1540L1256,1540L1272,1403L1263,1381L1271,1381L1277,1352L1281,1254L1287,1253L1297,1110L1303,1095L1297,1082L1303,1077L1315,980L1312,955L1320,939L1327,826L1332,819L1333,801L1327,797L1333,794Z M955,773L945,779L953,1030L958,1037L955,1081L966,1361L974,1420L976,1564L1064,1567L1069,1562L1074,1493L1072,1386L1080,1358L1074,1331L1079,1330L1090,1074L1086,1049L1092,1042L1089,1000L1095,985L1093,976L1087,975L1095,961L1095,938L1090,936L1095,929L1087,907L1094,910L1103,781L1101,774Z M716,774L714,821L729,915L726,929L742,1076L749,1095L746,1129L758,1230L763,1233L760,1255L790,1535L800,1564L883,1566L853,773Z M511,773L529,921L536,939L542,1020L555,1075L566,1181L574,1186L568,1196L576,1200L569,1208L575,1218L571,1229L588,1318L588,1358L618,1558L624,1565L696,1565L700,1533L690,1496L696,1483L686,1448L690,1427L684,1380L678,1374L677,1331L672,1328L677,1311L670,1308L675,1292L663,1179L655,1177L658,1122L651,1071L642,1049L648,1044L641,1020L645,1009L638,989L642,979L632,890L625,891L632,883L624,861L622,784L616,773Z M495,770L499,784Z M933,767L929,776Z M480,758L469,763Z M736,722L729,733Z M1624,705L1617,705L1616,718Z M488,676L479,686L489,686Z M1610,668L1605,674L1612,679Z M989,655L983,661Z M1613,641L1614,650L1619,650Z M480,629L483,641Z M943,624L937,626L939,632Z M920,617L929,622Z M1064,681L1538,681L1549,678L1555,608L1145,606L1112,650Z M493,609L502,679L976,679L930,649L913,633L906,615L894,614L895,604L573,604Z M1237,593L1251,596L1245,590Z M716,584L718,591L721,585Z M593,580L580,584L580,589L587,583L593,586Z M829,577L831,586L834,579Z M1355,574L1358,579L1365,576Z M1613,573L1624,575L1619,570Z M1450,570L1461,576Z M1383,569L1387,576L1400,574L1399,569Z M1242,569L1235,575Z M553,569L558,577Z M883,567L873,576Z M1302,566L1307,587L1311,567Z M1350,564L1343,569L1343,578L1353,571Z M788,564L781,573Z M1579,562L1595,569Z M734,561L742,571Z M1607,560L1608,566L1615,564Z M534,560L542,570Z M943,558L949,569Z M827,558L827,570L832,571Z M646,558L646,564L656,567L658,562Z M1636,555L1640,562Z M1260,555L1256,563L1265,573L1267,558Z M1207,556L1216,562Z M1131,554L1124,554L1119,564Z M1604,553L1598,563Z M1419,553L1411,553L1407,561L1410,573L1410,563Z M1311,553L1333,558L1335,572L1347,556Z M661,553L669,566L669,554Z M1674,552L1678,560L1680,554Z M1166,551L1159,563L1168,567L1172,558Z M480,549L485,557Z M1715,548L1712,558Z M1274,563L1283,558L1282,551L1291,559L1296,555L1279,545Z M1393,543L1381,547L1384,560Z M611,543L598,550L609,554Z M1358,543L1365,548Z M733,542L739,553L739,543Z M1664,540L1656,549Z M784,539L771,545L780,548Z M693,538L698,546L717,542L713,538L698,543Z M1403,537L1405,549L1409,540Z M1338,538L1323,545Z M885,537L887,547L895,549L894,541Z M754,538L763,540Z M583,535L589,546L588,535Z M494,535L484,540Z M1237,533L1230,545L1236,543Z M824,533L831,537L831,547L836,539L843,540L844,547L853,539Z M868,532L872,547L874,538Z M648,530L640,539L648,538Z M1627,529L1623,542L1632,543Z M1581,528L1571,530L1566,548L1575,544L1575,534L1585,543Z M1275,528L1266,533L1274,535L1272,542L1280,537Z M681,528L674,539L684,534Z M1602,527L1613,533Z M1589,526L1595,543Z M1501,526L1511,540L1503,543L1502,552L1493,545L1494,551L1501,554L1516,543L1520,560L1528,563L1527,546L1533,538L1521,542L1516,538L1521,527L1512,532Z M1418,526L1423,537L1424,528Z M935,523L923,540L934,540Z M1303,528L1312,530L1322,522L1304,522Z M1554,521L1548,520L1544,530Z M661,520L669,531Z M822,519L812,520L809,542L819,541L812,530L819,529Z M618,519L610,523L617,524Z M513,519L520,527Z M740,520L736,517L726,526L735,528Z M1166,517L1159,521L1154,516L1150,522L1153,554L1157,540L1162,547L1174,542L1161,535L1165,527L1173,528Z M1111,527L1123,532L1125,525L1135,532L1130,521L1122,522L1122,514Z M440,514L437,530L443,531L447,515Z M865,513L870,525L871,514Z M1627,505L1630,513Z M812,506L820,512L819,505Z M1350,501L1347,514L1360,512L1351,509Z M1177,498L1137,507L1158,511L1176,506Z M1408,494L1399,499Z M814,488L805,494Z M1284,486L1285,494L1295,495Z M1108,484L1101,484L1098,496L1109,491Z M1438,476L1449,485Z M1624,474L1626,480L1632,479Z M1458,474L1455,485L1465,487L1467,483L1460,484L1463,474Z M1407,475L1414,478L1413,473Z M1597,468L1605,474Z M1249,464L1241,464L1240,472Z M1148,465L1155,471L1149,479L1163,477Z M813,464L808,479L815,471Z M1581,461L1576,462L1576,473Z M711,461L706,469Z M982,460L970,470Z M1111,457L1104,466L1113,470Z M1321,456L1314,459L1321,468L1311,469L1312,474L1326,466Z M1612,454L1624,460Z M1077,454L1084,465Z M545,455L555,458Z M894,453L892,461L897,462Z M501,453L501,460L510,461Z M1058,450L1048,458L1053,460Z M1111,441L1106,440L1103,449Z M1514,439L1522,448Z M819,438L811,446Z M1537,437L1524,441L1530,444Z M948,428L954,434L955,429Z M1123,426L1128,432L1135,429Z M1183,418L1175,435L1183,433Z M941,414L952,418Z M1099,413L1098,419L1106,423L1110,414Z M873,413L879,419L887,415Z M1203,241L1213,249L1212,241Z M1250,327L1227,274L1205,254L1163,235L1077,235L1074,228L1081,224L1056,235L1053,228L1031,235L1030,228L979,238L932,230L938,235L905,233L867,241L840,256L820,277L804,307L795,364L800,370L795,375L800,376L801,405L1250,405ZM812,297L815,304L810,306Z M896,202L895,196L885,198Z M1056,177L1058,186Z M1007,155L1022,159Z M975,155L984,158Z M1080,153L1066,159Z M1085,159L1107,154L1091,152Z M915,152L915,158L957,159Z M1121,150L1120,155L1129,157Z"/>
<path fill="#f6e8ce" fill-rule="evenodd" d="M1471,680L1489,682Z M1152,680L1173,682Z M1535,680L1524,682Z M735,680L717,683Z M605,680L634,682Z M554,680L541,682Z M559,681L576,682L570,677Z M1696,419L1670,409L1334,410L1332,317L1324,282L1309,248L1260,190L1216,163L1185,153L1132,147L1126,158L1118,156L1118,147L874,151L824,167L787,191L751,229L723,280L715,325L712,409L374,409L343,428L329,452L329,562L341,585L353,592L406,602L449,952L460,942L465,945L464,959L449,958L536,1588L500,1643L493,1702L511,1750L529,1769L564,1792L603,1802L625,1797L730,1801L736,1794L758,1801L877,1800L881,1795L974,1800L978,1794L982,1800L998,1800L992,1796L998,1793L1003,1800L1017,1800L1027,1792L1032,1800L1147,1800L1155,1792L1161,1800L1198,1800L1203,1795L1213,1800L1334,1801L1342,1795L1345,1801L1449,1801L1495,1787L1536,1752L1552,1718L1556,1674L1542,1628L1511,1588L1541,1371L1535,1374L1534,1369L1542,1366L1554,1249L1560,1238L1643,602L1695,592L1716,569L1721,550L1720,454ZM806,1767L809,1774ZM688,1767L683,1777ZM823,1760L827,1770L821,1769ZM1261,1751L1263,1759ZM1537,1726L1539,1737ZM1297,1715L1306,1713L1305,1718ZM722,1714L731,1716ZM1316,1713L1327,1711L1331,1717ZM1225,1712L1233,1715ZM1205,1715L1214,1712ZM1172,1712L1181,1715ZM1081,1712L1069,1716ZM1032,1715L1039,1712ZM1000,1713L1028,1716L1016,1719ZM932,1712L940,1717ZM862,1712L877,1715L869,1718ZM802,1712L809,1711L809,1718L802,1719ZM773,1712L785,1711L789,1717ZM982,1711L972,1717L960,1715ZM716,1705L718,1714ZM1123,1661L1130,1663ZM947,1660L957,1663ZM1231,1659L1241,1662ZM739,1659L749,1662ZM1481,1650L1487,1655ZM560,1649L567,1652L562,1655ZM507,1646L510,1655ZM1432,1638L1466,1644L1488,1672L1490,1691L1483,1710L1473,1722L1450,1733L1418,1728L1394,1697L1397,1665L1414,1646ZM588,1639L628,1640L651,1662L656,1679L653,1701L627,1728L594,1731L575,1721L562,1704L562,1664ZM1117,1624L1112,1631ZM1236,1580L1242,1585ZM1189,1580L1195,1585ZM794,1579L800,1580L798,1589ZM1256,1579L1263,1582ZM1183,1580L1169,1583ZM1010,1579L999,1584ZM851,1579L861,1582ZM820,1579L827,1581ZM895,1577L894,1584L882,1581ZM959,1575L965,1579ZM1505,1569L1507,1579L1501,1577ZM1304,1569L1310,1565ZM562,1561L570,1564L565,1567ZM1331,1553L1336,1557L1333,1564L1327,1562ZM747,1554L753,1557ZM611,1542L612,1551ZM1337,1537L1328,1550L1327,1541ZM1299,1534L1306,1539ZM712,1527L716,1537L710,1533ZM1083,1526L1087,1535ZM594,1527L602,1534L594,1535ZM1279,1510L1275,1526L1271,1516ZM594,1484L597,1502ZM768,1480L775,1486ZM771,1467L772,1474ZM1514,1461L1508,1469ZM1152,1457L1155,1464ZM1522,1452L1524,1461ZM1123,1445L1125,1452ZM1518,1435L1527,1437L1524,1447ZM729,1434L723,1441ZM524,1431L529,1432L527,1439ZM1343,1425L1348,1433L1345,1443ZM574,1416L563,1423ZM965,1413L967,1423ZM518,1416L524,1413L526,1418ZM1529,1407L1530,1427L1523,1433L1520,1424ZM731,1406L738,1409ZM523,1405L529,1410ZM578,1402L585,1407ZM1346,1400L1351,1407L1348,1418L1343,1415ZM1357,1393L1360,1400ZM1349,1391L1345,1399ZM965,1389L967,1397ZM1335,1387L1327,1391ZM574,1381L584,1389L574,1387ZM1276,1379L1278,1387ZM1317,1371L1325,1374ZM718,1369L722,1382ZM1467,1369L1474,1372ZM539,1367L549,1371ZM519,1365L520,1372ZM1344,1365L1352,1368ZM575,1364L581,1374L573,1370ZM729,1363L733,1376ZM1488,1363L1496,1363L1494,1371ZM697,1362L701,1372L694,1371ZM1293,1356L1300,1361ZM751,1352L761,1361L762,1376L744,1372ZM1535,1349L1540,1350L1538,1358ZM1287,1350L1294,1355ZM556,1335L559,1344ZM732,1329L738,1330L735,1338ZM757,1327L757,1341L738,1341ZM1289,1322L1298,1325L1291,1327ZM893,1320L899,1322L895,1331L890,1329ZM714,1320L718,1328L712,1327ZM1328,1315L1324,1322ZM539,1312L549,1318L542,1319ZM532,1311L534,1316L525,1320ZM518,1306L524,1310ZM502,1306L512,1305L514,1310L504,1312ZM1490,1305L1502,1308L1505,1316L1496,1315ZM732,1301L727,1316L723,1305ZM1537,1296L1547,1296L1547,1311L1538,1309ZM1336,1293L1345,1296L1338,1298ZM1160,1291L1161,1302L1153,1306L1152,1293ZM1130,1289L1133,1296ZM570,1291L554,1296ZM1360,1285L1365,1288L1362,1295ZM1306,1278L1312,1283ZM1123,1276L1124,1286ZM515,1273L525,1276ZM1362,1264L1363,1277L1358,1274ZM883,1265L896,1264L898,1269ZM1314,1264L1319,1262L1320,1267ZM715,1262L722,1264L717,1267ZM524,1255L527,1269L522,1267ZM1483,1252L1487,1263L1481,1262ZM1161,1252L1162,1259L1151,1265L1154,1251ZM564,1250L559,1258ZM726,1250L737,1252ZM1361,1247L1366,1249L1364,1262L1358,1260ZM1499,1245L1502,1253ZM909,1245L912,1256L907,1254ZM527,1244L530,1251L523,1254L521,1246ZM512,1242L521,1245L517,1264ZM1329,1242L1337,1240L1340,1246ZM685,1237L689,1244L681,1246ZM545,1237L540,1247L538,1240ZM519,1239L530,1241ZM945,1232L952,1235L950,1243ZM1100,1220L1102,1229ZM523,1220L530,1225L527,1230L521,1228ZM686,1218L688,1230L680,1233ZM1363,1217L1369,1218L1367,1238L1359,1225ZM1554,1212L1558,1222L1551,1226ZM919,1211L929,1217L922,1220ZM514,1211L522,1217L515,1220ZM734,1210L742,1213L737,1216ZM1306,1206L1300,1221ZM682,1206L689,1212ZM1551,1201L1559,1207L1553,1209ZM492,1200L497,1204L494,1216L489,1211ZM1508,1198L1513,1199L1511,1207ZM523,1198L528,1208ZM942,1197L951,1210L946,1223L941,1222ZM734,1192L743,1198ZM727,1189L729,1196ZM1502,1189L1511,1193L1503,1194ZM1305,1188L1313,1194L1310,1201L1302,1198ZM944,1187L953,1200ZM696,1187L688,1196L687,1191ZM1560,1185L1562,1192L1555,1198L1552,1188ZM907,1183L914,1189L909,1190ZM529,1182L532,1189ZM685,1180L690,1181L687,1189ZM1515,1178L1517,1186ZM943,1177L949,1181ZM921,1169L915,1177ZM1533,1166L1534,1175ZM1381,1163L1383,1171ZM546,1163L554,1184L544,1182L541,1168ZM1500,1162L1502,1185L1492,1181ZM1330,1162L1339,1164ZM1306,1160L1312,1162L1311,1170L1306,1169ZM1508,1160L1516,1159L1516,1165ZM736,1156L742,1163L738,1169L733,1168ZM517,1152L530,1156ZM1121,1149L1127,1153ZM714,1144L709,1151ZM1497,1148L1503,1144ZM523,1144L530,1149L524,1150ZM1518,1140L1526,1144L1521,1146ZM670,1135L672,1143ZM1375,1133L1377,1145ZM512,1137L502,1150L492,1147L497,1140L506,1141L505,1133ZM520,1132L521,1142ZM1529,1126L1523,1134ZM664,1115L673,1120L668,1122ZM1559,1107L1565,1111L1563,1122L1558,1119ZM516,1107L522,1108L520,1120ZM1569,1106L1572,1117ZM669,1091L673,1112L664,1101ZM1567,1088L1576,1090L1569,1094ZM731,1082L733,1089ZM664,1082L671,1079L674,1085L666,1088ZM1378,1074L1384,1077L1382,1088L1376,1085ZM1344,1063L1346,1072L1341,1071ZM722,1063L724,1071L719,1068ZM1567,1055L1578,1059L1568,1065L1577,1070L1574,1082L1566,1080L1567,1070L1561,1068ZM921,1050L927,1055ZM529,1043L536,1049ZM682,1039L688,1041L687,1050ZM1549,1040L1554,1036L1557,1042ZM1167,1030L1169,1041ZM650,1028L652,1035ZM508,1029L516,1036ZM528,1025L532,1033ZM1544,1024L1558,1027L1548,1031ZM1341,1022L1350,1028ZM722,1017L724,1029ZM1514,1016L1520,1020ZM1326,1011L1322,1020ZM1353,1009L1360,1009L1359,1017ZM521,1008L530,1012ZM711,1003L717,1007ZM1129,1002L1137,1008ZM697,1001L699,1011L694,1007ZM669,1000L677,1002ZM487,993L485,1001ZM1353,989L1360,993L1354,996ZM1121,986L1126,998L1120,995ZM678,983L686,985ZM1566,970L1561,978ZM1390,969L1397,966ZM1096,964L1098,973ZM501,955L506,953L507,958ZM485,950L481,963L478,952ZM1170,949L1175,953L1173,967L1168,965ZM484,945L492,947ZM1585,943L1590,960ZM516,936L523,940L516,946L518,953L512,948ZM1398,933L1398,948L1393,950ZM677,933L681,938L671,946L669,940ZM1561,928L1569,927L1570,933L1563,934ZM477,929L487,932ZM683,928L686,920L693,921ZM1593,921L1600,923ZM487,917L490,922L482,926ZM1570,913L1568,925L1551,924ZM675,912L683,916L678,919ZM651,911L664,920L655,931L654,950L647,946ZM491,912L502,921ZM707,904L714,909ZM659,902L662,909L657,908ZM1557,899L1565,905ZM697,897L701,905L695,903ZM508,897L514,894L516,899ZM1534,892L1541,894ZM658,886L660,893ZM488,880L483,887ZM1555,883L1562,880ZM1344,872L1346,885L1338,896L1336,881ZM1569,872L1575,876ZM476,867L484,864ZM678,861L686,867L684,872ZM1597,858L1590,866ZM1570,850L1576,853L1573,860ZM1599,847L1604,850L1601,858ZM674,846L677,857L666,866L665,854ZM1603,838L1607,847ZM930,832L937,833L934,839ZM1607,827L1599,834L1586,831ZM499,825L505,830ZM928,818L931,825ZM443,817L446,831ZM1610,815L1605,826L1603,819ZM634,812L641,814ZM441,809L448,813ZM457,806L462,808L459,814ZM931,804L934,811ZM486,801L502,812L501,820L485,811ZM497,795L503,800ZM1545,792L1551,795L1546,805ZM927,794L934,796ZM638,788L641,798L635,796ZM1104,787L1106,803ZM654,790L661,786L660,793L668,792L671,800L660,800ZM1365,787L1372,789ZM458,773L460,780ZM495,769L501,773L499,785ZM1339,768L1339,790L1328,797L1337,806L1332,810L1337,820L1334,828L1328,826L1335,838L1329,838L1333,846L1328,853L1333,856L1325,862L1329,898L1323,901L1327,907L1322,908L1320,920L1325,925L1320,929L1325,937L1318,945L1323,956L1313,955L1315,970L1321,972L1316,975L1319,987L1314,988L1319,992L1317,1006L1311,1006L1310,1028L1316,1033L1307,1037L1313,1041L1305,1053L1311,1063L1298,1082L1309,1093L1298,1110L1305,1117L1296,1130L1303,1136L1295,1159L1301,1170L1299,1189L1294,1191L1297,1202L1292,1203L1297,1210L1291,1211L1295,1220L1290,1221L1286,1238L1293,1249L1282,1254L1283,1273L1289,1276L1281,1285L1289,1288L1286,1298L1279,1292L1285,1314L1280,1317L1285,1324L1279,1328L1281,1356L1276,1357L1281,1365L1274,1366L1279,1374L1271,1382L1264,1381L1277,1405L1270,1415L1275,1420L1273,1432L1268,1433L1273,1443L1264,1448L1271,1464L1263,1466L1263,1477L1269,1480L1261,1491L1258,1523L1263,1530L1255,1542L1249,1540L1249,1550L1261,1555L1260,1562L1252,1558L1259,1572L1157,1574L1161,1551L1156,1550L1155,1537L1162,1535L1158,1512L1163,1511L1157,1496L1163,1475L1159,1430L1164,1424L1162,1409L1167,1408L1161,1405L1167,1401L1161,1389L1164,1354L1169,1353L1163,1330L1170,1330L1171,1306L1163,1300L1171,1302L1165,1288L1171,1277L1168,1251L1175,1238L1167,1240L1168,1226L1174,1229L1167,1204L1170,1198L1174,1209L1180,1204L1173,1198L1177,1185L1171,1191L1169,1178L1177,1181L1178,1163L1172,1166L1172,1154L1178,1152L1172,1128L1177,1127L1174,1104L1180,1107L1179,1086L1173,1085L1178,1069L1174,1050L1181,1053L1175,1023L1184,1009L1178,1008L1175,996L1181,992L1178,970L1184,965L1180,944L1185,936L1179,927L1185,913L1182,892L1189,884L1188,875L1181,877L1188,852L1184,838L1189,837L1183,820L1190,809L1186,792L1193,793L1193,773L1187,780L1186,769ZM1115,768L1117,775ZM942,768L1109,771L1101,788L1105,823L1100,824L1100,840L1106,841L1106,853L1099,855L1103,872L1098,873L1098,891L1104,892L1102,907L1097,902L1094,911L1088,907L1093,926L1097,928L1100,914L1106,927L1091,933L1102,944L1101,955L1095,953L1095,964L1088,968L1096,980L1092,990L1100,989L1100,1001L1096,1004L1091,998L1097,1019L1089,1023L1098,1050L1087,1049L1087,1066L1095,1064L1098,1081L1090,1075L1089,1086L1096,1094L1092,1104L1088,1093L1087,1116L1095,1114L1096,1124L1087,1122L1087,1140L1094,1139L1088,1156L1093,1175L1086,1172L1085,1186L1092,1186L1091,1198L1086,1199L1090,1224L1084,1220L1084,1236L1090,1241L1082,1251L1090,1272L1081,1277L1088,1298L1078,1304L1079,1309L1085,1307L1085,1318L1079,1316L1080,1330L1075,1331L1078,1341L1086,1337L1081,1353L1084,1372L1075,1367L1078,1381L1073,1386L1079,1390L1084,1385L1083,1398L1077,1394L1075,1402L1083,1418L1076,1427L1081,1448L1072,1451L1080,1470L1073,1478L1080,1485L1074,1503L1080,1517L1077,1524L1072,1518L1071,1530L1077,1534L1077,1545L1070,1540L1069,1548L1078,1561L1073,1574L974,1574L969,1563L978,1568L975,1553L963,1552L958,1529L963,1529L966,1546L972,1534L965,1498L971,1485L965,1466L972,1459L961,1450L966,1434L972,1438L970,1389L963,1382L969,1372L963,1375L961,1367L968,1351L962,1345L965,1323L959,1322L965,1296L957,1293L963,1280L957,1260L964,1252L964,1243L956,1247L963,1236L956,1210L962,1212L961,1196L956,1195L961,1173L953,1172L959,1155L943,1143L946,1137L954,1138L951,1111L957,1110L957,1103L949,1099L958,1094L952,1092L955,1082L949,1071L949,1059L955,1057L950,1047L957,1037L950,1040L947,1008L954,1004L945,999L952,968L946,970L945,954L951,953L952,933L947,941L950,914L944,917L943,904L949,889L944,888L947,870L941,864L942,849L947,848L947,841L941,842L946,816L939,812L946,790L938,785L947,772L941,774ZM705,768L859,770L862,798L855,793L856,813L865,812L858,836L864,851L859,845L866,888L860,913L868,918L861,934L868,952L861,947L862,964L870,965L863,978L863,993L869,992L870,1001L863,998L863,1005L872,1018L864,1041L871,1037L872,1050L866,1054L871,1061L867,1089L873,1086L869,1138L876,1146L870,1149L867,1164L878,1157L872,1182L878,1202L871,1209L872,1215L881,1213L875,1231L880,1252L874,1253L874,1264L882,1269L876,1321L883,1319L878,1341L884,1344L884,1355L878,1360L885,1373L878,1387L886,1394L880,1416L888,1413L880,1444L888,1443L882,1469L887,1470L884,1494L889,1495L890,1506L884,1520L889,1521L892,1554L884,1551L883,1559L890,1574L788,1571L813,1567L798,1563L799,1553L784,1535L791,1529L784,1524L790,1513L782,1509L786,1496L780,1497L784,1476L774,1440L779,1430L772,1421L779,1410L773,1411L770,1403L775,1380L768,1372L770,1337L762,1326L765,1309L760,1301L765,1297L758,1296L764,1291L758,1286L763,1276L756,1269L762,1263L756,1257L762,1233L752,1228L758,1220L750,1213L755,1201L748,1192L746,1170L751,1164L746,1163L749,1155L744,1151L749,1146L742,1136L746,1113L740,1101L748,1095L743,1077L736,1075L741,1067L736,1066L739,1048L732,1035L738,1036L738,1030L732,1027L735,1021L730,1016L735,1012L728,1000L735,992L726,980L731,976L726,969L731,955L724,951L729,943L720,923L727,923L728,915L718,906L716,880L722,878L716,870L721,864L712,848L717,836L710,827L708,804L713,799L706,789L713,789L715,772L706,773ZM505,768L625,769L627,789L622,792L627,798L621,801L629,802L624,822L632,844L624,841L633,851L625,861L637,878L631,906L641,917L636,920L641,926L636,936L643,935L638,953L645,954L640,964L647,973L642,976L647,985L639,989L649,992L642,995L641,1004L648,1002L651,1011L642,1016L646,1037L640,1042L653,1041L643,1049L650,1057L652,1087L659,1087L654,1092L659,1096L656,1107L661,1108L656,1115L663,1123L663,1137L656,1144L656,1177L664,1179L664,1199L671,1200L664,1212L670,1210L674,1220L668,1223L673,1226L670,1239L675,1242L670,1247L676,1255L672,1287L679,1291L671,1308L681,1307L673,1324L682,1364L679,1374L689,1380L691,1392L685,1392L691,1401L687,1420L695,1428L687,1448L697,1457L691,1465L699,1466L693,1480L701,1490L691,1496L706,1525L700,1528L705,1533L700,1540L701,1563L685,1569L708,1568L708,1574L611,1570L670,1567L624,1566L617,1558L610,1509L604,1508L602,1492L608,1491L600,1480L605,1473L600,1472L603,1457L596,1451L601,1445L596,1441L599,1428L594,1427L597,1413L590,1407L595,1403L590,1400L592,1377L586,1376L590,1361L584,1362L582,1337L588,1337L587,1318L578,1310L583,1298L574,1290L580,1280L574,1281L572,1271L578,1264L570,1253L575,1240L566,1229L566,1221L574,1218L572,1213L564,1215L564,1208L575,1200L567,1197L573,1186L566,1186L564,1173L558,1171L563,1159L556,1155L554,1139L559,1133L553,1126L559,1122L550,1112L555,1098L548,1098L554,1075L546,1037L540,1039L534,995L538,979L532,979L530,965L537,955L532,934L526,935L524,917L529,913L522,906L524,875L518,875L515,847L521,842L518,813L508,801L513,795L508,794L511,778ZM1542,767L1540,776L1528,772L1536,776L1539,792L1533,798L1538,796L1537,816L1529,818L1533,837L1521,843L1522,867L1529,875L1519,898L1525,902L1518,912L1521,924L1516,925L1521,933L1511,949L1517,952L1511,956L1515,978L1508,976L1513,986L1505,989L1511,997L1506,1000L1511,1008L1503,1017L1499,1042L1505,1053L1498,1054L1493,1070L1501,1082L1499,1096L1493,1097L1488,1110L1491,1155L1484,1163L1487,1178L1482,1179L1487,1187L1484,1193L1473,1193L1483,1200L1482,1207L1475,1207L1483,1216L1481,1226L1476,1222L1474,1232L1479,1236L1471,1247L1473,1283L1468,1284L1461,1309L1467,1335L1461,1335L1465,1340L1457,1352L1463,1363L1455,1375L1461,1377L1457,1409L1449,1415L1453,1430L1446,1432L1451,1444L1444,1446L1442,1455L1449,1468L1438,1486L1439,1496L1445,1493L1441,1527L1424,1546L1437,1556L1434,1563L1411,1567L1435,1571L1341,1574L1339,1570L1347,1568L1340,1565L1346,1557L1342,1541L1347,1540L1352,1520L1346,1503L1354,1494L1346,1492L1353,1482L1350,1464L1356,1466L1350,1454L1358,1443L1352,1437L1354,1425L1361,1420L1356,1406L1361,1405L1363,1392L1358,1386L1367,1377L1360,1367L1367,1366L1368,1347L1362,1336L1370,1332L1364,1319L1372,1308L1366,1298L1377,1263L1372,1241L1377,1240L1374,1225L1380,1222L1376,1216L1383,1203L1378,1195L1383,1194L1390,1160L1382,1146L1391,1120L1386,1107L1392,1108L1388,1101L1394,1095L1390,1079L1395,1078L1400,1055L1392,1048L1401,1047L1394,1030L1402,1019L1396,1010L1403,1011L1401,965L1409,963L1409,958L1402,959L1404,944L1409,943L1404,934L1407,926L1414,926L1414,912L1408,906L1414,903L1410,889L1418,883L1410,877L1418,867L1418,859L1412,861L1414,850L1421,854L1416,834L1421,825L1416,821L1424,806L1420,793L1425,786L1420,781L1429,775L1423,776L1422,769ZM932,765L935,774L929,777ZM481,758L468,763ZM1619,739L1620,747L1611,752ZM1047,736L1055,741ZM1123,731L1125,739ZM1304,731L1315,734ZM1260,730L1262,737L1257,735ZM819,730L828,733L821,735ZM1340,727L1343,735ZM1324,727L1329,725L1331,731ZM731,723L736,721L738,727ZM593,715L596,726ZM821,715L829,719ZM1057,714L1067,716ZM649,713L655,723ZM484,714L492,718L487,721ZM1344,706L1351,711L1345,712ZM1624,703L1624,712L1616,719L1616,705ZM1356,701L1359,709ZM1602,699L1604,706ZM1623,690L1626,694L1621,696ZM488,675L490,686L479,691L478,684ZM988,675L1002,679L996,682ZM1059,678L1054,687L1004,686L1014,678L1029,678L1030,683L1044,683L1049,674ZM1623,671L1630,675L1625,677ZM1610,667L1615,670L1612,680L1604,674ZM1560,667L1568,671ZM989,654L983,662ZM1605,652L1615,654ZM443,646L448,647L445,653ZM1612,641L1624,645L1614,651ZM480,628L483,642L478,638ZM939,623L944,624L941,633L936,629ZM976,621L987,619L988,624ZM919,617L930,622ZM1018,606L1017,614L993,611L997,606ZM1062,674L1088,658L1094,663L1093,656L1106,645L1113,648L1134,610L1151,603L1541,603L1558,609L1554,626L1561,629L1553,638L1559,644L1551,657L1555,677L1539,680L1552,682L1551,688L1066,688ZM486,619L492,619L496,605L895,603L896,615L907,610L919,625L915,634L926,634L933,649L938,646L953,658L951,664L970,667L967,675L975,675L975,683L991,687L497,688L495,681L512,681L497,677L497,658L490,653L495,646L488,638L493,628ZM1591,602L1596,604L1593,613ZM983,601L989,600L991,606ZM1414,592L1422,595ZM1299,593L1306,595ZM995,590L1001,592L998,601L993,599ZM1354,591L1364,589L1366,594L1355,596ZM985,589L988,594L978,599L977,593ZM1236,593L1245,588L1252,596ZM765,589L774,595L768,596ZM1603,585L1604,594ZM716,583L724,585L718,595ZM816,584L823,582L824,587ZM613,580L619,584L613,586ZM536,580L544,579L545,584ZM594,580L593,587L579,589L580,583ZM411,583L421,579ZM829,576L835,579L831,587ZM1172,575L1182,579ZM746,573L751,577L746,579ZM1545,572L1556,576ZM769,571L777,574ZM690,571L696,576ZM1610,577L1617,569L1625,573ZM1475,569L1470,575ZM1277,569L1282,570L1279,577ZM513,570L520,573ZM1561,573L1570,569ZM1448,569L1460,570L1462,576ZM1417,570L1425,568L1426,573ZM1382,569L1399,568L1401,574L1387,577ZM1369,569L1378,575L1372,576ZM1235,569L1242,568L1244,575L1238,578ZM553,568L559,578L550,574ZM1640,568L1649,572ZM1512,571L1522,567ZM972,566L979,577ZM883,566L873,577L872,572ZM427,568L434,570ZM1302,565L1312,567L1307,588ZM449,565L452,572L446,571ZM1341,571L1350,563L1367,577L1358,580L1350,573L1347,581L1352,585L1347,587ZM788,563L790,568L781,574L780,568ZM1578,562L1596,569L1582,568ZM494,561L499,562L496,568ZM734,560L742,572ZM571,560L573,569ZM1606,560L1616,564L1608,567ZM1357,559L1362,560L1361,571ZM904,564L911,561ZM1246,558L1240,565ZM534,559L539,559L542,571ZM1548,558L1558,562ZM943,557L947,565L941,562ZM827,557L832,559L832,572L826,570ZM1430,557L1438,562ZM641,566L646,556L659,562L656,568ZM1659,554L1666,558L1664,565ZM1636,554L1640,563L1634,560ZM1260,554L1268,558L1265,574L1255,563ZM1206,556L1217,562L1209,563ZM1111,553L1116,554L1114,563ZM627,554L635,557ZM1604,552L1604,561L1598,564ZM1419,552L1410,574L1405,562L1411,552ZM1310,553L1348,556L1335,574L1333,559ZM1132,554L1118,564L1123,552ZM661,552L670,554L671,566L678,568L675,575L668,575ZM1674,551L1681,554L1678,561ZM1626,551L1621,561L1620,552ZM926,552L934,554ZM682,551L689,557L687,567ZM1286,551L1297,551L1298,556L1291,560ZM1166,550L1175,553L1168,568L1158,563ZM1586,549L1581,558ZM1076,549L1079,558ZM1055,549L1061,550L1060,562L1053,555ZM1086,548L1089,558L1084,556ZM860,548L865,554L862,562ZM480,548L487,553L485,558L479,556ZM1713,547L1714,559ZM1282,544L1284,558L1274,564L1272,558ZM1264,547L1270,544L1272,549ZM1181,544L1183,552ZM639,544L641,552ZM485,545L495,550ZM1060,544L1066,548ZM799,543L803,552L797,549ZM576,543L578,549L571,555ZM1202,543L1210,547L1203,548ZM612,543L609,555L598,553L598,547ZM1394,541L1396,553L1384,561L1380,547ZM1247,543L1254,546L1248,548ZM1664,539L1656,550ZM561,541L569,543ZM419,544L428,541ZM1169,543L1176,539ZM1491,537L1497,552ZM1357,537L1366,544L1363,555L1358,554ZM1123,538L1134,541ZM1074,539L1081,537L1083,542ZM785,539L780,549L770,546ZM710,540L715,537L718,542ZM691,539L710,544L698,547ZM519,537L525,549ZM437,540L442,537L444,542ZM1403,536L1410,540L1405,550ZM1339,538L1331,546L1322,545ZM885,536L895,541L895,550L883,544ZM737,536L742,540L739,554L732,544ZM1115,535L1116,543ZM752,537L762,535L764,540L755,542ZM1363,536L1370,534L1372,539L1364,541ZM583,534L589,535L589,547ZM483,540L496,535ZM447,535L455,534L458,542ZM1483,538L1490,535ZM1620,532L1621,542ZM1237,532L1240,537L1230,546ZM823,533L841,532L844,539L854,539L842,555L837,551L843,541L836,540L830,549L830,537ZM868,531L875,538L872,548L867,545ZM809,532L819,535L820,541L809,543ZM648,529L649,538L640,540ZM1625,528L1633,532L1632,544L1622,542ZM1290,529L1298,531ZM766,529L773,533ZM1652,527L1653,537ZM1273,527L1281,535L1274,543L1273,535L1265,535ZM966,527L968,536ZM678,527L685,534L674,540ZM483,528L481,534L474,533ZM395,528L402,533L396,535ZM1601,527L1611,527L1614,533L1602,532ZM1562,528L1581,527L1587,544L1576,535L1576,544L1566,549ZM1535,527L1532,533L1525,531ZM1589,525L1598,538L1595,544L1586,531ZM1501,525L1512,531L1521,526L1521,541L1534,538L1528,546L1529,564L1519,560L1516,544L1502,552L1502,543L1510,536L1503,537ZM1418,525L1425,528L1423,538L1418,537ZM1078,525L1079,536ZM492,525L495,532ZM701,523L706,524L705,531ZM935,522L935,540L923,542ZM1301,527L1303,521L1323,522L1314,532ZM416,521L425,526ZM1435,519L1438,527ZM661,519L669,532L660,526ZM1553,518L1555,523L1544,531L1543,524ZM824,520L819,530L810,529L812,519ZM609,520L618,518L619,523ZM512,519L521,527ZM496,519L505,521ZM741,520L735,529L724,526L725,521L734,523L736,516ZM1577,516L1584,515L1585,521ZM1259,516L1266,522ZM1167,516L1174,523L1172,530L1162,532L1168,545L1162,549L1157,541L1153,555L1149,522L1154,515L1159,520ZM440,513L448,519L442,523L445,530L436,532ZM1569,512L1574,513L1571,519ZM1131,513L1135,533L1125,526L1123,533L1110,530L1119,513L1123,522ZM865,512L872,514L870,526L864,522ZM745,513L750,517ZM806,513L813,512L811,517ZM1299,510L1302,521ZM472,508L479,514L474,515ZM1575,507L1583,511ZM723,508L729,510ZM1233,505L1229,512ZM1203,505L1205,510L1197,517ZM792,506L798,511ZM1627,504L1632,506L1630,514ZM1555,504L1558,511ZM838,504L833,516ZM811,506L819,504L821,512ZM593,503L601,505ZM1348,502L1352,500L1352,509L1361,512L1347,515ZM962,500L963,507ZM1326,500L1333,504ZM1613,498L1608,510ZM1178,498L1176,507L1158,512L1136,507L1150,499L1162,503L1163,498ZM625,498L631,503ZM1574,499L1582,495ZM1407,492L1409,496L1400,501L1398,497ZM539,493L549,491L547,497ZM412,489L414,497ZM720,489L726,494ZM1338,488L1344,492ZM1547,486L1543,494L1541,489ZM818,487L804,494L808,487ZM1651,486L1660,491ZM1631,486L1638,492ZM1285,484L1296,492L1294,503L1282,491ZM1108,483L1110,491L1098,497L1100,484ZM677,490L676,483L684,482ZM988,482L996,486L991,488ZM609,480L614,481L613,488ZM1258,485L1261,479L1266,481ZM1579,479L1585,483ZM752,479L760,481ZM1437,476L1450,485ZM1303,474L1299,486L1297,478ZM1623,474L1633,479L1626,481ZM1458,473L1464,474L1465,488L1454,485ZM871,474L877,477L872,479ZM402,474L409,478ZM1406,475L1413,472L1415,478ZM1101,472L1108,474ZM523,472L530,477L524,479ZM1350,470L1357,476L1352,477ZM1266,472L1271,469L1274,474ZM1505,468L1498,478ZM1310,469L1321,471L1312,475ZM1126,468L1129,475L1124,474ZM1596,468L1605,467L1606,474ZM765,466L767,474ZM641,464L642,473ZM1239,472L1241,463L1250,464ZM1147,465L1153,463L1164,478L1149,480L1154,471ZM813,463L816,471L808,480ZM1258,462L1268,465ZM924,464L929,461L932,466ZM1581,460L1576,474L1575,462ZM1133,460L1137,468L1132,467ZM715,463L705,469L706,461ZM982,459L972,473L972,462ZM680,460L687,466ZM841,462L857,459ZM412,458L417,459L414,467ZM1640,457L1643,465L1637,463ZM990,457L992,465ZM1111,456L1114,470L1108,471L1103,464ZM939,456L941,464L936,461ZM1312,456L1321,455L1327,466L1321,469ZM532,456L539,461L533,462ZM1061,455L1068,461L1063,462ZM1611,454L1622,454L1625,460L1612,459ZM1077,453L1084,457L1084,466ZM544,455L555,453L556,458L548,461ZM894,452L897,463L891,461ZM723,451L728,452L725,460L720,457ZM1354,450L1360,452L1359,462L1351,460ZM502,450L510,462L499,459ZM1490,448L1495,449L1492,455ZM1057,448L1061,453L1051,461L1047,454ZM1278,445L1282,453L1276,450ZM1553,449L1555,443L1566,444ZM1129,444L1136,447L1130,449ZM937,440L939,448ZM1439,439L1442,449ZM1106,439L1112,444L1103,450ZM912,440L918,444L913,446ZM901,440L907,444ZM1584,440L1593,442ZM1513,439L1518,438L1523,448ZM1187,437L1183,445ZM1094,437L1097,445ZM971,437L977,439L976,446L970,445ZM819,437L811,447ZM628,437L630,444ZM464,438L472,443L466,445ZM1538,437L1530,445L1523,441ZM1055,437L1063,444ZM774,436L777,444L772,446ZM1354,443L1358,435L1365,437ZM1613,434L1621,441ZM1497,433L1490,441ZM1153,434L1160,432L1162,438ZM1469,431L1476,434ZM1116,428L1118,433L1112,436ZM1606,428L1615,431ZM1073,427L1069,434ZM947,428L955,428L955,434ZM731,427L733,434ZM1122,426L1135,424L1136,429L1128,433ZM920,424L922,432L917,429ZM1585,424L1594,427ZM1054,424L1062,431ZM746,422L751,431ZM1547,423L1555,426ZM762,421L764,431ZM993,419L1000,421ZM1183,417L1184,433L1175,436ZM1192,418L1201,414ZM1162,414L1169,417ZM1119,414L1130,416L1123,419ZM1011,415L1018,417ZM940,414L952,413L953,418L944,420ZM862,414L868,419ZM1553,413L1561,416ZM1099,412L1111,414L1106,424L1097,419ZM975,413L990,416L979,418ZM872,413L888,415L879,420ZM745,413L752,419ZM753,357L748,369ZM1316,287L1322,291ZM1276,281L1281,282L1278,289ZM728,282L733,281L736,289ZM1202,241L1209,238L1214,249ZM761,236L767,241ZM800,227L803,237ZM1254,334L1251,410L796,407L794,342L806,293L820,272L853,244L888,232L978,232L983,227L1059,231L1081,223L1075,231L1169,234L1209,254L1233,278ZM1088,222L1092,230ZM1158,221L1164,226ZM847,215L839,219ZM884,198L895,195L897,202ZM863,189L867,193L861,197ZM1165,187L1170,197L1163,193ZM1082,185L1094,188ZM915,183L922,185ZM948,182L955,187ZM1189,181L1196,178ZM1056,176L1058,187L1053,182ZM1201,171L1207,173ZM1049,156L1057,158ZM1005,155L1021,154L1023,159L1006,160ZM974,155L985,158L975,160ZM1081,153L1065,159ZM1084,159L1086,152L1108,154L1101,160ZM913,152L952,158L925,162L914,159Z"/>
<path fill="#ed8418" fill-rule="evenodd" d="M674,1803L700,1805Z M1408,1803L1442,1805Z M618,1803L652,1805Z M1317,1713L1330,1716Z M1080,1712L1070,1716Z M1001,1713L1016,1715Z M863,1712L876,1715Z M803,1712L802,1718L808,1718L809,1712Z M774,1712L787,1717Z M981,1711L961,1715Z M1157,1571L1258,1569Z M1434,1568L1340,1572L1432,1573Z M789,1568L791,1573L891,1571Z M612,1568L615,1573L708,1573Z M970,1563L974,1573L1074,1572L983,1570Z M1157,1534L1159,1547Z M886,1521L891,1554Z M968,1514L971,1529Z M1074,1507L1077,1523Z M603,1492L607,1508Z M969,1486L971,1500Z M1076,1485L1078,1499Z M1159,1481L1161,1496Z M1160,1455L1163,1472Z M884,1442L887,1458Z M1078,1434L1080,1448Z M1161,1428L1163,1443Z M882,1393L884,1406Z M880,1344L882,1356Z M1165,1328L1167,1343Z M1084,1287L1086,1300Z M1167,1278L1169,1293Z M958,1260L961,1273Z M876,1238L879,1252Z M1169,1226L1171,1240Z M956,1211L959,1223Z M751,1207L755,1219Z M1170,1199L1173,1215Z M874,1189L877,1202Z M1088,1185L1090,1198Z M954,1160L957,1174Z M875,1159L872,1180Z M955,1135L958,1148Z M1092,1090L1094,1103Z M870,1086L873,1101Z M1175,1071L1177,1085Z M950,1059L953,1074Z M1094,1036L1096,1052Z M1177,1021L1179,1035Z M949,1007L951,1021Z M1096,989L1098,1003Z M1182,969L1178,985Z M946,954L949,970Z M1181,944L1183,959Z M864,941L866,953Z M1181,920L1183,935Z M1098,915L1101,931Z M944,904L947,917Z M1100,892L1102,906Z M862,886L865,900Z M1183,862L1185,877Z M942,852L945,866Z M713,842L717,855Z M1102,841L1104,854Z M941,799L943,815Z M1104,788L1106,802Z M858,784L861,798Z M1186,777L1192,771L1340,770L1187,769Z M942,769L1106,773Z M705,769L854,771L858,776L857,769Z M505,769L620,771Z M1542,768L1423,769L1423,775L1540,775Z M1065,684L1552,686Z M495,682L497,687L990,687Z M1054,684L1047,676L1044,684L1016,679L1005,686Z M1081,665L1065,673Z M1017,606L994,611L1012,614Z M995,591L998,600L1000,592Z M987,592L978,593L978,598Z M1055,550L1060,561L1060,550Z M1078,526L1076,542L1082,542Z M1721,512L1723,529Z M1721,456L1723,478Z M629,407L672,409Z M797,376L798,408L1252,408L801,406Z M1251,374L1254,387Z M1332,341L1334,409L1380,409L1334,406Z M911,233L937,235Z M987,147L1048,149Z M898,146L907,151L918,148Z M1107,144L1133,146Z"/>
<path fill="#909ea5" fill-rule="evenodd" d="M1430,1640L1400,1663L1396,1699L1416,1725L1452,1731L1481,1711L1487,1673L1465,1645Z M590,1640L574,1650L562,1668L562,1700L588,1727L621,1729L650,1704L653,1671L643,1653L624,1640Z"/>
</svg>