<svg xmlns="http://www.w3.org/2000/svg" width="1024" height="1024"><path fill="none" d="M0 0h1024v1024H0z" id="svg-layer-0" style="pointer-events: all; fill: none;"/><path fill="#003151" d="M530.862 73.769a3219 3219 0 0 0 11.08-.053q6.644-.041 13.292-.04 2.454-.004 4.909-.024C586.844 73.448 612.505 78.71 633 97l2.23 1.98c19.768 18.648 30.534 43.083 31.688 70.078.315 11.306.148 22.634.082 33.942 17.038 1.077 34.061 1.15 51.126 1.169q7.485.01 14.97.041l7.769.029c11.581.041 23.162.075 34.744.087q11.8.011 23.6.07c4.145.019 8.291.031 12.437.026q5.83-.005 11.66.037 2.13.011 4.262 0c10.737-.049 17.771 1.539 25.893 8.826 4.516 5.032 6.647 11.312 6.716 17.977l.039 3.258.022 3.523.025 3.629q.02 3.807.032 7.613c.017 3.87.061 7.738.105 11.608q.015 3.7.026 7.4l.053 3.492c-.022 8.063-1.186 13.37-6.557 19.64-10.4 9.036-18.61 8.983-31.922 8.575l-.131 2.59c-.624 10.76-1.92 21.372-3.353 32.05l-.762 5.772q-1.03 7.788-2.07 15.575-1.106 8.322-2.206 16.646-1.374 10.38-2.75 20.76a15201 15201 0 0 0-5.501 41.89c-6.503 50.083-13.276 100.124-20.224 150.147l-2.702 19.465-.54 3.892c-4.675 33.7-9.224 67.415-13.764 101.132l-.44 3.265q-1.059 7.86-2.115 15.723a7490 7490 0 0 1-4.198 30.8l-.851 6.16a5521 5521 0 0 1-1.607 11.537l-.713 5.163-.332 2.335c-.555 4.058-.992 8.002-.741 12.098 1.469 1.879 1.469 1.879 3.5 3.563 10.54 9.792 16.91 23.79 17.703 38.101.203 17.135-3.815 31.511-16 44.16L760 885l-1.64 1.707c-13.35 12.777-31.434 14.75-48.964 14.674q-2.65.005-5.3.014c-4.827.013-9.655.006-14.483-.003-5.216-.007-10.433.004-15.65.012-10.21.013-20.42.01-30.63.002q-12.45-.01-24.9-.005l-3.582.002q-3.604 0-7.208.003c-22.514.008-45.029-.002-67.543-.018q-28.96-.018-57.917.003a59744 59744 0 0 1-74.483.01l-3.569-.001q-12.43-.003-24.86.009-15.155.013-30.31-.01-7.728-.014-15.456-.001-7.083.013-14.166-.012a817 817 0 0 0-5.107.006c-18.857.074-35.203-3.615-49.982-16.158-6.037-5.995-11.115-13.3-14.25-21.234l-.902-2.234c-4.898-14.536-3.28-31.773 3.187-45.493C256.127 809.36 261.43 803.571 267 798c-.175-10.405-1.796-20.775-3.218-31.068l-.681-5.011a9676 9676 0 0 0-1.855-13.565q-.995-7.26-1.982-14.52-1.89-13.882-3.792-27.762a72340 72340 0 0 1-5.4-39.545l-3.71-27.194C237.75 576.245 229.19 513.147 221 450l-.525-4.046a63880 63880 0 0 1-7.51-58.12q-1.137-8.83-2.278-17.66-1.128-8.724-2.25-17.449-.66-5.12-1.322-10.24c-1.828-14.15-3.618-28.297-5.115-42.485l-3.567.093c-11.146.272-19.242-.202-27.706-8.195-5.063-5.567-6.815-11.352-6.904-18.79l-.039-2.863-.022-3.065-.025-3.196q-.02-3.345-.032-6.692a852 852 0 0 0-.062-6.802 993 993 0 0 1-.069-9.873l-.053-3.028c.028-9.245 2.207-18.201 8.698-25.089 5.49-4.623 11.605-7.607 18.801-7.658l3.148-.03 3.456-.017 3.644-.03q4.968-.04 9.937-.068c3.507-.022 7.014-.05 10.52-.076q8.895-.066 17.791-.124 11.213-.073 22.426-.158c31.686-.236 63.371-.42 95.058-.339l-.041-2.961c-.444-33.352-.057-63.975 22.041-91.039l2.273-2.812C396.921 88.889 419.092 77.376 443 75c2.933-.178 5.864-.254 8.8-.316l2.646-.064q4.432-.099 8.866-.183l3.141-.06c21.468-.402 42.939-.546 64.41-.608" id="svg-layer-1" style="pointer-events: all;"/><path fill="#F6E6CA" d="M470 384h84c0 15.75 0 15.75-.213 21.061l-.144 3.694-.161 3.909-.169 4.27q-.23 5.805-.467 11.61-.254 6.287-.503 12.574-.492 12.304-.99 24.608-.578 14.387-1.155 28.775-1.032 25.733-2.07 51.467-1.001 24.837-1.996 49.675a287681 287681 0 0 1-2.412 60.096l-.116 2.893-.8 19.933C539.711 755.794 539.711 755.794 538 787q-11.081.037-22.162.055-3.772.008-7.546.02c-3.606.013-7.213.018-10.82.023l-3.43.015h-3.155l-2.793.007C486 787 486 787 485 786a94 94 0 0 1-.32-5.132l-.14-3.392-.14-3.774-.16-3.975a5785 5785 0 0 1-.426-10.98q-.228-5.914-.464-11.83-.405-10.273-.802-20.548-.578-14.94-1.166-29.88-.956-24.35-1.902-48.7-.911-23.464-1.83-46.93l-.113-2.897-.452-11.54a363203 363203 0 0 1-3.002-76.803 94940 94940 0 0 1-1.406-36.246l-.088-2.256q-.521-13.507-1.068-27.013-.29-7.194-.576-14.387a4589 4589 0 0 0-.263-6.414q-.18-4.345-.35-8.69l-.104-2.39c-.361-9.417-.228-18.776-.228-28.223M593 384h78c-1.125 18-1.125 18-1.796 24.484l-.224 2.19q-.364 3.537-.736 7.076l-.534 5.19q-.576 5.587-1.157 11.173-.94 9.054-1.873 18.108-1.35 13.073-2.705 26.144-2.129 20.546-4.25 41.093l-.358 3.474-3.636 35.21A81199 81199 0 0 0 643 662.656q-2.865 28.04-5.72 56.083l-2.214 21.696-1.509 14.819q-.455 4.476-.913 8.953-.307 3.01-.612 6.02l-.37 3.621-.317 3.11c-.382 3.356-.868 6.698-1.346 10.041h-52c0-19.656 0-19.656.393-29.297l.086-2.16.09-2.241.186-4.82q.253-6.545.513-13.089.28-7.086.552-14.173.476-12.251.958-24.503.696-17.713 1.385-35.427 1.12-28.744 2.246-57.49 1.093-27.908 2.182-55.817l.136-3.48.674-17.287Q590.195 455.608 593 384M352 384h78c1.125 12.375 1.125 12.375 1.357 18.236l.08 1.966q.13 3.21.253 6.422l.188 4.69q.256 6.407.506 12.814.274 6.925.55 13.849.54 13.551 1.073 27.102a84336 84336 0 0 0 1.25 31.586q1.184 29.892 2.361 59.782 1.011 25.626 2.028 51.25a271686 271686 0 0 1 2.61 65.92l.125 3.16q.435 10.998.872 21.995.532 13.413 1.06 26.825.267 6.84.54 13.676.25 6.27.494 12.54l.18 4.515c.358 8.894.55 17.77.473 26.672q-10.868.037-21.735.055-3.7.008-7.4.02c-3.537.013-7.074.018-10.611.023l-3.365.015h-3.094l-2.739.007C395 787 395 787 394 786c-.385-2.834-.71-5.655-1-8.499l-.29-2.742q-.483-4.597-.956-9.194l-.692-6.59q-.949-9.046-1.888-18.096-1.003-9.624-2.012-19.247a65143 65143 0 0 1-3.439-32.935q-1.78-17.085-3.565-34.168l-.223-2.13-.891-8.524a260412 260412 0 0 1-11.784-112.982c-3.636-34.902-7.269-69.804-10.89-104.707l-.218-2.115Q354.074 404.036 352 384" id="svg-layer-2" style="pointer-events: all;"/><path fill="#F5E6CA" d="M252 384h61l5.235 49.397.276 2.606a617141 617141 0 0 1 9.637 91.053l.346 3.269q2.798 26.44 5.6 52.88 3.57 33.7 7.133 67.4 1.943 18.387 3.893 36.776 1.674 15.793 3.342 31.587a25502 25502 0 0 0 1.72 16.25q.798 7.498 1.586 14.995.286 2.71.576 5.42.395 3.716.784 7.431l.225 2.087c.755 7.28 1.159 14.527 1.647 21.849h-48c-3.445-19.524-3.445-19.524-4.612-28.33l-.418-3.089q-.682-5.055-1.357-10.112l-1-7.414q-1.083-8.033-2.16-16.065a40578 40578 0 0 0-4.416-32.8l-2.554-18.95a65200 65200 0 0 0-10.263-75.827l-1.985-14.619c-4.185-30.816-4.185-30.816-6.25-45.992q-2.198-16.168-4.391-32.337l-.356-2.62C262.05 460.578 257.006 422.292 252 384M711 384h60c-1.149 18.378-1.149 18.378-2.2 25.919l-.356 2.655q-.582 4.318-1.178 8.634l-.85 6.295q-1.155 8.541-2.322 17.082c-.83 6.084-1.652 12.168-2.475 18.253a47473 47473 0 0 1-4.232 31.179 90054 90054 0 0 0-6.312 46.498l-2.196 16.202-4.112 30.326a45800 45800 0 0 0-14.033 104.21 59869 59869 0 0 0-6.247 46.851q-1.165 8.766-2.337 17.532-.66 4.938-1.314 9.878-.692 5.228-1.394 10.456l-.404 3.084-.374 2.764-.318 2.394C718 786 718 786 717 787a67 67 0 0 1-4.428.114h-2.851l-3.1-.016-3.157-.005c-3.342-.005-6.684-.018-10.027-.03q-3.39-.008-6.779-.014-8.329-.017-16.658-.049c-1.685-3.37-.629-7.114-.234-10.77l.287-2.792c.322-3.115.652-6.23.982-9.345l.696-6.702q.956-9.189 1.925-18.378c.684-6.508 1.36-13.016 2.039-19.523q1.738-16.675 3.488-33.35 1.813-17.279 3.618-34.559l.225-2.153 1.124-10.768q4.102-39.28 8.22-78.557 2.664-25.42 5.322-50.84c.05-.489.05-.489.309-2.957l1.189-11.372q2.434-23.28 4.872-46.559l.236-2.244a81787 81787 0 0 1 4.624-44.063l.29-2.777.273-2.582.23-2.19c.397-3.51.847-7.014 1.285-10.519M242 300h211l7 13c10.183 13.975 23.711 21.1 40.438 24.75 18.76 1.316 36.636-1.006 51.401-13.613C559.574 317.15 565.346 309.308 570 300h212c-.676 10.146-1.498 19.87-2.937 29.875l-.514 3.816-.514 3.614-.457 3.25L777 343c-3.27 1.635-6.881 1.136-10.474 1.126l-2.702.004c-3.022.004-6.043 0-9.065-.003l-6.524.005q-9.003.005-18.007-.001-9.694-.003-19.388.004-17.906.006-35.813 0-16.539-.003-33.078-.001h-2.213l-8.893.001q-41.74.004-83.483-.005-37.117-.007-74.236 0a274164 274164 0 0 1-92.207.004h-2.208q-16.533-.002-33.066.002-18.79.005-37.58-.003-9.597-.005-19.194 0-8.77.004-17.54-.004-3.187-.001-6.375.002-4.304.004-8.606-.005l-2.553.007c-5.68-.019-5.68-.019-6.795-1.133a280 280 0 0 1-1.191-8.742l-.332-2.665q-.348-2.796-.689-5.593-.523-4.284-1.06-8.566l-.991-8.021-.294-2.416-.26-2.124C242 303 242 303 242 300" id="svg-layer-3" style="pointer-events: all;"/><path fill="#F5EEE2" d="m450.594 115.853 3.376-.022 3.676-.008 3.895-.02q6.384-.028 12.768-.041l4.413-.013q10.376-.029 20.753-.041a6174 6174 0 0 0 23.86-.077q9.25-.044 18.5-.048c3.674-.002 7.348-.011 11.021-.036 4.111-.028 8.222-.024 12.333-.017l3.62-.039c17.294.106 30.432 6.448 42.902 18.126C630.624 153.305 627 177.247 627 204H398c0-55.391 0-55.391 15.75-71.375 10.331-10.002 22.22-16.707 36.844-16.772" id="svg-layer-4" style="pointer-events: all;"/><path fill="#ED8417" d="M355 827h315l-2 14c.324 7.126 1.114 13.915 2 21H354l2-10c.153-3.103.238-6.094.188-9.187l-.002-2.288c-.037-4.68-.511-8.8-1.186-13.525M535 252c2.625 2.438 2.625 2.438 5 5l2.125 2.25c5.362 7.864 5.79 16.445 4.875 25.75-1.98 9.134-6.719 16.303-13.75 22.375-9.765 4.883-20.787 6.507-31.457 3.816-9.466-3.511-17.185-9.455-21.856-18.503-3.838-8.484-4.61-18.173-1.312-27 4.291-9.258 10.655-16.21 20-20.5 12.37-4.353 26.103-1.259 36.375 6.812" id="svg-layer-5" style="pointer-events: all;"/><path fill="#93A5B0" d="M315.438 821.125c5.733 3.258 9.748 7.373 11.562 13.875 1.706 7.58.854 14.356-3.258 21.047-4.634 5.925-10.296 8.803-17.68 9.89-7.512.485-14.32-2.108-20.062-6.937-5.312-7.112-6.83-13.151-6-22 1.746-6.763 5.23-11.17 11-15 7.634-4.49 16.459-4.567 24.438-.875" id="svg-layer-6" style="pointer-events: all;"/><path fill="#94A5B1" d="M729.863 820.84c6.714 3.026 11.09 7.343 13.977 14.137 1.716 5.63 1.588 11.496-.63 16.972-3.192 5.984-7.637 10.474-13.773 13.32-6.375 1.911-13.744 1.886-19.875-.832-6.232-3.76-10.162-9.07-12.156-16.046-1.105-6.506.037-12.806 3.223-18.57 7.09-9.415 18.117-12.242 29.234-8.981" id="svg-layer-7" style="pointer-events: all;"/><path fill="#C6CBCA" d="M242 300q37.774-.035 75.55-.052 17.54-.007 35.08-.023 15.297-.015 30.591-.02 8.092 0 16.186-.01 7.63-.011 15.261-.008 2.787 0 5.575-.006c10.307-.02 20.484.191 30.757 1.119v1H244l-1 4z" id="svg-layer-8" style="pointer-events: all;"/><path fill="#C7CCCB" d="M629 777h1v10h-52v-2l50-1z" id="svg-layer-9" style="pointer-events: all;"/><path fill="#C5CACA" d="m537 783 1 4h-52v-2l1.891-.031q9.709-.163 19.416-.341 3.628-.066 7.255-.125 5.201-.088 10.403-.187l3.298-.05 3.034-.06 2.685-.048C536 784 536 784 537 783M395 782l1 3 49-1 1 3h-51z" id="svg-layer-10" style="pointer-events: all;"/><path fill="#C6CBCA" d="m307 781 1 4 46-1 1 3h-48z" id="svg-layer-11" style="pointer-events: all;"/><path fill="#DDDBD2" d="M778 300h4l-1 15c-1.99-3.98-2.224-4.677-1.625-8.75l.336-2.422L780 302h-2z" id="svg-layer-12" style="pointer-events: all;"/></svg>