<svg xmlns="http://www.w3.org/2000/svg" width="1024" height="1024"><path fill="none" d="M0 0h1024v1024H0zm295.438 68.125c-5.562 6.56-9.397 13.186-12 21.375l-.885 2.739c-9.538 30.702-12.778 64.295-12.803 96.324l-.002 2.43c.036 27.28 3.53 53.52 11.315 79.695l.734 2.522c1.08 3.592 2.189 6.763 3.93 10.103 1.636 3.22 2.428 5.062 2.273 8.687-2.681 5.52-7.075 10.058-11.054 14.666-3.23 3.874-6.083 7.997-8.946 12.147l-1.765 2.541C217.524 391.842 217.524 391.842 220 410c1 1 1 1 4.125 1.25 5.359-.058 10.484-1.27 15.703-2.398 5.356-1.14 10.767-1.978 16.172-2.852l-1.05 2.237c-5.874 12.526-11.742 25.05-17.2 37.763l-1.12 2.6c-2.85 6.704-5.047 13.03-3.63 20.4 1.49 1.807 1.49 1.807 3.477 3.414l2.203 1.8a369 369 0 0 0 11.257 8.349l2.264 1.63c5.19 3.721 10.478 7.277 15.799 10.807q-9.623.219-19.244.427-3.256.072-6.513.146c-5.291.12-10.582.227-15.873.307a469 469 0 0 0-12.837.389l-6.17.184-2.842.166c-5.012.108-7.823-.336-11.609-3.763-2.262-2.437-4.348-4.933-6.123-7.75-2.571-3.876-5.453-7.191-8.664-10.543a346 346 0 0 1-8.45-9.407c-3.703-4.247-7.618-8.247-11.613-12.219l-2.013-2.025a228 228 0 0 0-12.203-11.302c-2.56-2.233-5.007-4.583-7.471-6.923-4.37-4.06-8.915-7.756-13.75-11.25l-1.729-1.264c-5.691-4.011-10.91-5.922-17.896-5.173-7.936 3.725-11.46 11.073-14.353 18.944-2.589 7.52-4.446 15.116-5.897 22.931l-.458 2.458c-2.708 15.847-3.646 31.765-3.608 47.821.003 2.78-.02 5.557-.045 8.336-.061 16.98 1.917 33.506 6.236 49.947l.745 3.066c1.098 4.361 2.18 8.425 4.337 12.388 1.922 3.661 2.934 5.958 3.043 10.109-2.122 5.516-5.69 10.27-9.035 15.098-4.307 6.231-7.784 12.782-11.215 19.527l-1.79 3.509A2071 2071 0 0 0 66 639l-1.312 2.584c-9.216 18.195-17.147 37.645-22 57.479l-.646 2.593c-.95 4.259-1.257 6.583.958 10.344 5.563-.71 10.971-1.816 16.438-3.062l2.505-.565q3.03-.684 6.057-1.373l-.335 2.42a2724 2724 0 0 0-3.156 23.663q-.475 3.66-.975 7.318c-.393 2.885-.75 5.771-1.096 8.662l-.37 2.551c-.448 4.066-.549 5.717 1.905 9.132C67.538 763.4 71.17 765.748 75 768l4.855 2.918 2.557 1.529C103.898 785.34 124.97 798.925 145 814l2.218 1.669c15.958 12.14 23.038 23.818 28.595 43.019C184.828 888.72 205.295 913.76 233 929c17.652 8.805 33.723 13.115 53.309 7.254 14.866-5.05 26.781-12.226 38.234-22.957a163 163 0 0 1 5.133-4.594c16.088-13.926 26.782-31.376 33.234-51.586l1.018-3.175a390 390 0 0 0 1.917-6.24C373.455 823.469 398.81 810.089 419 797l2.355-1.533c12.277-7.968 24.737-15.578 37.37-22.962C476.436 762.13 476.436 762.13 478 759c.93-13.686 1.238-32.524-5-45l2.254 1.328A789 789 0 0 0 487 722l2.808 1.573a901 901 0 0 0 9.13 4.99l2.976 1.663 2.863 1.528 2.54 1.385c4.649 1.492 8.38.425 12.77-1.474l3.073-1.685c1.124-.61 2.247-1.22 3.404-1.85l1.743-.967c1.75-.972 3.507-1.928 5.265-2.884 5.303-2.902 10.433-5.878 15.428-9.279l-.275 1.655c-1.768 10.904-3.098 21.795-3.413 32.845l-.167 2.908c-.074 6.463-.074 6.463 2.329 9.383 2.09 1.642 4.196 2.931 6.526 4.209l2.365 1.354c2.565 1.426 5.158 2.788 7.76 4.146 83.479 44.604 83.479 44.604 92.832 73.452.978 3.384 1.92 6.777 2.856 10.173 7.46 25.999 22.11 44.345 42.187 61.875l2.488 2.184c15.41 12.938 33.844 21.095 54.193 20.034 17.533-1.646 34.318-9.535 47.319-21.218l2.336-2.012c2.605-2.28 5.139-4.62 7.664-6.988l1.643-1.523c6.676-6.237 12.826-12.55 17.92-20.164.38-.57.761-1.138 1.154-1.724 6.837-10.732 10.52-22.816 14.357-34.85 5.36-16.147 14.008-26.561 27.676-36.364l2.48-1.8c2.583-1.868 5.175-3.723 7.77-5.575l2.521-1.809c11.13-7.965 22.47-15.492 34.098-22.706a835 835 0 0 0 7.303-4.618c9.224-5.884 18.508-11.56 28.078-16.867a318 318 0 0 0-3.674-40.772c-.643-4.393-1.002-8.803-1.326-13.228l1.757.475c2.64.707 5.285 1.397 7.93 2.087l2.764.749 2.686.693c.811.215 1.623.43 2.46.65 2.766.398 4.735.156 7.403-.654 2.034-3.05 2.024-4.793 1.602-8.434q-.46-2.009-.977-4.004l-.552-2.218c-4.277-16.37-10.9-32.06-18.073-47.344l-1.458-3.132c-10.616-22.723-10.616-22.723-16.73-33.18l-1.179-2.03c-2.002-3.328-4.122-6.314-6.684-9.236-2.906-3.37-5.18-6.302-6.949-10.422.701-5.074 2.765-9.099 4.979-13.671 18.58-42.376 14.529-107.342-.956-149.97-2.317-5.344-5.834-8.712-11.023-11.359-8.415-1.428-15.016.334-22 5-14.291 10.155-26.664 22.609-39.062 34.938l-2.092 2.076a230 230 0 0 0-11.263 12.158c-2.102 2.427-4.28 4.782-6.458 7.14-4.252 4.656-8.274 9.455-12.215 14.375L828 494l-1.12 1.63c-3.015 2.196-6.288 1.696-9.868 1.589l-2.506-.038a769 769 0 0 1-5.51-.111c-3.143-.073-6.285-.126-9.427-.175-6.92-.113-13.838-.253-20.756-.395l-7.256-.145q-8.78-.174-17.557-.355l2.923-1.928c7.543-4.992 15-10.055 22.265-15.447l2.439-1.785A339 339 0 0 0 788 472l2.55-1.914c2.24-3.224 1.957-6.353 1.45-10.086-.708-2.725-1.456-5.197-2.437-7.812l-.802-2.198c-4.808-12.805-11.18-25.002-17.374-37.18C769 408.103 769 408.103 769 407c8.216.322 15.862 1.715 23.767 3.892 3.751.945 5.55 1.383 9.23-.099C804 409 804 409 804.624 406.063 802.49 380.81 777.634 351.195 764 331l-1.451-2.152a1016 1016 0 0 0-16.424-23.473l-1.622-2.26-1.558-2.154-1.487-2.06c-1.378-1.796-2.853-3.403-4.403-5.05C735 291 735 291 735.02 288.036c1.063-3.292 2.291-6.423 3.668-9.598C745.513 261.956 749.399 244.605 752 227l.36-2.382C758.881 178.87 758.44 110.73 733 71c-3.878-4.971-8.25-7.03-14.457-7.941-14.964-.345-28.751 15.32-38.872 24.57-2.563 2.275-5.191 4.42-7.871 6.554-5.523 4.501-10.585 9.327-15.597 14.383l-2.66 2.662q-2.757 2.76-5.505 5.529-4.186 4.21-8.386 8.405l-5.386 5.404-2.504 2.507c-4.254 4.29-8.357 8.652-12.3 13.23a163 163 0 0 1-5.146 5.662l-1.858 1.973a1760 1760 0 0 1-3.894 4.095c-4.114 4.336-7.934 8.75-11.365 13.658-3.872 2.304-7.905 1.013-12.199.309l-3.395-.532c-3.156-.508-6.308-1.034-9.46-1.567-30.797-5.163-61.191-6.42-92.332-3.714l-2.084.176c-8.096.702-15.994 1.812-23.956 3.442-21.796 4.354-21.796 4.354-27.397 2.174-4.133-2.873-6.686-6.485-9.082-10.852-1.336-2.196-2.8-3.997-4.51-5.914l-1.882-2.113a727 727 0 0 0-8.78-9.534l-1.943-2.07c-6.859-7.27-13.893-14.361-20.97-21.418q-3.258-3.252-6.508-6.514l-4.228-4.224-1.92-1.926a220 220 0 0 0-11.835-10.913c-2.124-1.856-4.082-3.838-6.03-5.876C343.776 85.663 338.493 81.301 333 77l-3.086-2.426c-10.702-8.235-21.971-16.82-34.476-6.449" id="svg-layer-0" style="pointer-events: all; fill: none;"/><path fill="#00223A" d="M331.29 75.614c8.794 7.126 17.193 14.603 25.05 22.753a117 117 0 0 0 6.3 5.78c4.439 3.869 8.614 7.962 12.77 12.13l2.337 2.334q2.428 2.427 4.853 4.858c2.456 2.462 4.917 4.917 7.379 7.373l4.744 4.748 2.2 2.194c3.987 4.005 7.809 8.097 11.488 12.386 3.383 3.897 6.971 7.61 10.515 11.361l1.77 1.883 1.562 1.655C424 167 424 167 426.143 170.265 429 173 429 173 430.932 173.303c2.411-.155 4.708-.516 7.084-.96l2.664-.413a389 389 0 0 0 5.642-.928c3.935-.675 7.88-1.272 11.827-1.874q2.93-.447 5.86-.905c41.25-6.446 82.501-3.652 123.297 4.366 2.695.411 4.982.722 7.694.411 1.894-1.402 1.894-1.402 3.672-3.367l1.998-2.169 2.08-2.339 2.17-2.375A905 905 0 0 0 611 156l2.555-2.828a1247 1247 0 0 0 3.997-4.456c10.022-11.12 20.414-21.869 30.999-32.452 2.15-2.153 4.293-4.314 6.435-6.475 6.675-6.701 13.34-13.15 20.772-19.013 2.86-2.266 5.473-4.699 8.117-7.213 21.136-19.697 21.136-19.697 33.117-20.66 6.476.314 11.503 3.604 16.008 8.097 28.834 42.542 25.66 120.217 16.969 168.984-2.941 15.222-7.191 30.877-13.774 44.953C735 288 735 288 735.047 290.09c1.396 2.797 3.238 5.041 5.203 7.473 6.177 7.795 11.694 16.013 17.262 24.25a422 422 0 0 0 3.894 5.625c13.227 18.785 24.933 38.568 35.657 58.875l1.41 2.66c6.52 12.502 6.52 12.502 5.527 20.027-2.72 2.206-4.254 3.032-7.783 2.882l-2.998-.683-3.301-.713-3.418-.798q-3.358-.75-6.719-1.489l-2.998-.692c-2.666-.486-5.08-.602-7.783-.507 3.471 8.157 7.036 16.225 11.063 24.125C794.506 459.549 794.506 459.549 792 468c-2.486 3.296-5.699 5.557-9 8l-2.016 1.507C772.21 484.044 763.277 490.195 754 496q10.587.217 21.173.427l7.177.146c5.744.118 11.487.226 17.232.312 4.05.062 8.09.173 12.137.34l5.09.15 2.27.134c4.028.087 6.392-.503 9.399-3.074 1.954-1.962 3.77-3.963 5.315-6.267a80 80 0 0 1 5.77-7.356l1.572-1.803c1.87-2.014 3.823-3.776 5.9-5.575 7.734-6.906 14.988-14.308 22.308-21.646q3.816-3.823 7.641-7.636l4.883-4.886 2.295-2.29c3.51-3.525 6.735-7.082 9.838-10.976 1.692-1.378 1.692-1.378 3.348-2.422l1.834-1.168 1.88-1.16 1.893-1.207c6.642-4.183 12.274-5.057 20.045-4.043 6.545 2.856 9.307 7.666 12 14 .99 2.757 1.773 5.538 2.5 8.375l.628 2.416c2.781 11.235 4.415 22.736 5.872 34.209l.321 2.517c3.479 31.951 3.878 72.507-10.395 101.987-1.879 3.893-3.318 7.182-3.926 11.496 2.022 4.74 5.083 8.15 8.42 12.025 2.841 3.551 5.037 7.46 7.268 11.413l1.49 2.638C980.292 676.767 980.292 676.767 983 707c-1.437 2.938-1.437 2.938-3 5-5.656-.605-11.002-1.622-16.5-3.062l-2.203-.565q-2.65-.681-5.297-1.373l.61 4.874q.27 2.163.536 4.327c.44 3.555.897 7.104 1.397 10.65 1.564 11.36 2.067 22.698 2.457 34.149l-2.691 1.441c-10.61 5.78-20.674 12.268-30.754 18.918a506 506 0 0 1-13.93 8.828C900.912 798.034 888.844 806.909 877 816l-2.676 2.016c-15.804 12.183-21.522 26.684-27.535 45.295-9.298 27.997-32.236 53.331-58.414 67.001-16.957 8.3-35.497 12.018-53.805 6.075-14.91-5.791-27.352-13.673-38.492-25.274-1.946-1.979-3.955-3.766-6.078-5.55-15.505-13.483-24.06-29.698-29.605-49.2C654.442 835.64 654.442 835.64 648 829l-2.066-2.156c-6.931-6.661-14.963-11.952-22.851-17.395a416 416 0 0 1-7.248-5.19c-15.901-11.55-32.632-21.987-49.769-31.595a1356.073 1356.073 0 0 0-9.388-5.236l-2.881-1.608-2.583-1.429c-2.13-1.338-3.691-2.392-5.214-4.391-.388-2.103-.388-2.103-.398-4.55l-.018-2.778.041-2.985.018-3.06C545.82 735.96 547.25 725.509 549 715l-2.613 1.617A536 536 0 0 1 524 729.625l-2.388 1.363-2.3 1.239-2.011 1.111c-5.863 1.686-10.986-.886-16.117-3.576l-1.878-.976q-1.95-1.018-3.895-2.05a756 756 0 0 0-5.917-3.101c-5.686-2.977-11.201-6.002-16.494-9.635l.586 2.133c2.966 11.246 4.581 22.308 4.851 33.93l.105 2.453c.005.77.01 1.539.017 2.332l.04 2.062c-1.54 5.373-7.09 8.205-11.658 10.805l-1.748 1.007q-1.851 1.065-3.707 2.12c-3.282 1.87-6.548 3.767-9.814 5.666l-1.986 1.153C440.27 783.148 431.122 789.044 422 795l-2.375 1.54c-47.916 31.132-47.916 31.132-55.893 57.18C358.642 870.23 352.694 883.93 341 897l-2.29 2.652c-4.002 4.575-8.112 8.802-12.769 12.711a98 98 0 0 0-3.726 3.305c-15.67 14.54-36.882 24.22-58.434 23.672-24.37-2.19-43.274-17.515-60.167-33.798a193 193 0 0 0-3.993-3.69c-12.263-11.346-18.677-26.348-23.55-42.004l-1.04-3.323a479 479 0 0 1-1.965-6.519c-4.171-13.69-11.387-23.68-22.816-32.131l-2.252-1.688A1541 1541 0 0 0 141 811l-2.143-1.603c-15.594-11.666-31.998-22.193-48.732-32.147A5329 5329 0 0 1 83 773l-2.433-1.453a1006 1006 0 0 1-7.88-4.797l-2.52-1.503-2.343-1.45-2.09-1.27c-2.39-2.105-2.984-3.4-3.734-6.527.037-3.345.444-6.621.863-9.937l.338-2.903c.359-3.055.735-6.107 1.111-9.16q.365-3.083.725-6.164C66.95 711.689 66.95 711.689 68 707l-3.691.84-4.871 1.097-2.424.553c-4.66 1.046-9.276 1.906-14.014 2.51-1.815-3.05-2.214-4.687-1.418-8.14l.562-2.458.669-2.652.688-2.79C48.249 677.62 55.841 660.054 64 643l1.47-3.071c6.41-13.3 13.197-26.229 20.971-38.784l1.302-2.147C89 597 89 597 90.329 595.218c1.673-2.385 2.786-4.326 2.404-7.282-.756-2.407-1.675-4.68-2.67-6.999-2.844-7.314-5.16-14.525-6.876-22.187l-.587-2.535c-3.324-15.179-3.972-30.115-3.912-45.59l.004-2.929c.043-15.42.745-30.461 3.308-45.696l.438-2.743c2.458-15.061 5.594-33.078 18-43.257 4.835-1.887 8.929-1.464 13.687.375 11.983 5.83 21.666 15.967 31.205 25.052 2.18 2.053 4.42 4.033 6.67 6.01 8.938 7.995 17.663 16.523 25.406 25.688 2.68 3.153 5.495 6.183 8.328 9.2C188 485 188 485 189.766 488.081c2.165 3.544 3.822 5.508 7.234 7.918 3.431.626 6.772.478 10.246.336l3.051-.064q3.214-.07 6.427-.172c3.217-.098 6.434-.162 9.653-.213a2881 2881 0 0 0 19.06-.387l6.624-.145q7.97-.173 15.939-.355l-3.17-2.158c-7.53-5.14-15.003-10.308-22.205-15.904l-2.187-1.678c-7.316-5.637-7.316-5.637-7.81-8.15-.36-12.816 6.498-24.995 11.872-36.298l3.344-7.105 1.605-3.4A1034 1034 0 0 0 256 406q-3.937.685-7.875 1.375l-2.36.411a308 308 0 0 0-12.327 2.401c-4.234.87-8.12 1.049-12.438.813-1-1-1-1-1.23-4.098.248-4.213 1.27-7.515 2.917-11.34l.924-2.182c13.833-31.646 34.167-60.518 54.389-88.337l1.43-2.019C281 301 281 301 283.063 298.954c2.167-2.267 3.668-4.079 4.938-6.954-.332-4.735-2.003-8.805-3.75-13.187a1037 1037 0 0 1-2.012-5.626 935 935 0 0 0-2.018-5.634c-8.385-24.422-10.45-51.23-10.47-76.865l-.002-2.43C269.872 94.328 269.872 94.328 296 67c12.547-9.337 25.102.52 35.29 8.614M308 104c-11.34 55.546-13.6 107.517 5 162 4.286-1.394 6.723-3.369 9.863-6.57l2.686-2.715 2.764-2.84q1.41-1.433 2.822-2.863 3.442-3.495 6.865-7.012c-1.546-5.27-3.142-10.477-5.062-15.625-4.363-13.139-5.997-29.913-1.938-43.375q9.216 11.697 18.375 23.438l1.764 2.255A340 340 0 0 1 361 224c2.98-1.43 5.757-3.048 8.547-4.82l2.558-1.621 2.645-1.684 2.691-1.707q3.282-2.082 6.559-4.168c-1.596-5.916-4.621-10.794-7.75-16l-1.731-2.902c-16.286-27.136-16.286-27.136-25.609-39.547-1.867-2.494-3.667-5.025-5.46-7.573-7.4-10.492-15.138-20.636-23.825-30.103l-1.478-1.614c-2.851-3.05-5.787-5.78-9.147-8.261zm396.72 9.242c-23.534 24.055-41.956 55.358-58.283 84.57l-1.266 2.265c-1.97 3.572-3.773 7.078-5.171 10.923l1.481.779 6.707 3.534 2.33 1.224 2.275 1.201 2.212 1.167c1.661.912 3.268 1.92 4.858 2.95L662 223c3.298-1.1 3.682-1.572 5.574-4.297l1.501-2.127 1.612-2.326c5.232-7.406 10.614-14.675 16.125-21.875.712-.93 1.424-1.86 2.157-2.82q2.512-3.279 5.031-6.555c.826 34.94.826 34.94-4 48l-.934 2.543-.816 2.144c-1.224 3.244-1.646 4.923-1.25 8.313 1.465 2.049 1.465 2.049 3.508 4.031l2.242 2.207 2.375 2.262 2.305 2.262C708.966 266 708.966 266 712 266c17.72-51.905 19.19-109.19 4-162-3.555 0-8.657 6.689-11.28 9.242M594.586 375.254c-3.158 3.477-4.922 5.71-5.274 10.496l-.199 2.422L589 390c2.688.082 5.374.14 8.063.188l2.279.076c6.701.087 11.333-1.197 16.47-5.764 3.171-4.176 3.875-9.373 4.188-14.5-.46-2.84-.46-2.84-1-5-9.133-.56-17.93 4.123-24.414 10.254M559 340c-3.23 4.282-5.116 8.52-6.625 13.625l-.644 2.126c-15.285 52.022-2.96 125.232 11.582 176.562 3.57 13.088 1.157 23.25-5 35.187-6.784 11.728-14.393 19.784-25.313 27.5a727 727 0 0 0-4.687 3.438l-1.825 1.308c-2.44 2.056-3.423 3.895-3.988 7.004.733 4.763 2.827 7.21 6.5 10.25 10.2 6.184 23.22 9.701 35.023 7.414 10.404-2.643 17.416-8.03 23.227-17.039q1.432-2.658 2.75-5.375l1.52-3.055c4.137-9.237 5.881-18.578 7.658-28.511 2.272-12.449 5.81-26.444 15.822-34.996 3.075-1.474 5.648-1.95 9-2.438-1 21.723-1 21.723-2 31l1.875-1.937c2.465-2.472 5.045-4.787 7.656-7.102 5.534-4.968 10.834-10.143 16.094-15.399l2.754-2.716 2.598-2.592 2.346-2.334C657 530 657 530 657 528c1.914-1.777 1.914-1.777 4.625-3.937l3.055-2.454c2.199-1.738 4.414-3.453 6.64-5.156 9.072-6.967 17.477-14.483 25.68-22.453l1.82-1.765c17.714-17.415 27.527-38.853 27.742-63.86-.12-8.86-1.854-15.862-6.437-23.5C718 403 718 403 715.25 401.75c-4.473.344-6.091 2.54-9.027 5.781C704 409 704 409 700.55 409.246c-4.462-1.566-5.206-3.144-7.263-7.226l-1.163-2.457C683.951 383.775 671.129 371.807 654 366c-4.119-1.202-7.719-1.207-12-1-2.758 2.758-3.276 5.97-4.312 9.625-3.798 12.622-9.552 20.234-21.304 26.56-8.656 4.45-17.435 7.91-27.322 7.752-4.255.087-5.925 1.205-9.062 4.063-3.54 6.105-4.985 12.62-6.187 19.5q-.485 2.673-.981 5.344l-.415 2.35C572 442 572 442 571 443c-7.39-17.058-11.48-35.956-5-54 6.998-16.607 20.292-28.035 36.613-35.055 12.03-4.882 24.482-8.509 36.95-12.086 4.545-1.31 9.09-2.62 13.625-3.968l3.23-.953C659 336 659 336 661 334c-32.79-22.123-73.149-25.445-102 6m-196-7v2l3.538 1.066c4.439 1.34 8.874 2.693 13.308 4.049q2.85.869 5.7 1.727c10.245 3.088 20.365 6.349 30.313 10.299l2.414.953c9.406 3.831 18.545 8.658 25.727 15.906h2l.824 1.777c1.153 2.18 2.43 3.882 3.988 5.786 6.693 8.77 10.588 19.332 10.563 30.375l-.003 2.216c-.228 10.794-3.456 20.86-7.372 30.846v3h-2l-.25-3.5c-.525-4.648-1.479-9.144-2.562-13.687l-.464-2.051c-1.358-5.483-3.572-9.487-7.443-13.578-3.436-1.783-6.986-1.853-10.781-2.122-13.976-1.293-28.601-5.718-38.586-16.175-3.257-4.912-5.208-10.395-7.214-15.917l-.938-2.583-.814-2.337c-1.046-2.262-1.989-3.516-3.948-5.05-11.099-2.07-22.136 5.85-31 11.813-8.368 6.441-13.389 15.426-18.3 24.592-1.685 3.096-2.699 4.594-5.7 6.595-3.375 0-3.375 0-7-1-1.355-1.445-1.355-1.445-2.562-3.125C312 402 312 402 308.938 401.688c-4.762 2.127-6.005 5.947-7.813 10.53-4.215 11.834-3.715 23.603-1.375 35.782l.553 2.92C303.873 469.035 312.366 481 325 494l3.172 3.328c6.37 6.603 13.056 12.424 20.348 17.985 4.055 3.098 7.93 6.393 11.803 9.714 3.272 2.8 6.604 5.497 9.99 8.16 11 8.968 21.307 19.345 29.687 30.813l2-1-.437-2.027c-1.75-9.05-1.759-17.803-1.563-26.973 2.658-1.329 4.383-.784 7.137.117 6.876 3.258 9.292 10.552 11.75 17.28 2.522 7.343 4.078 14.86 5.654 22.45 3.531 16.565 8.382 36.057 22.709 46.653 11.425 6.828 23.545 6.287 36.055 3.469 8.032-2.106 14.292-5.345 19.535-11.914C504 610 504 610 504.25 606.25c-2.034-5.287-6.454-7.454-11.16-10.343-15.552-9.573-26.65-21.12-32.09-38.907-.812-3.75-.812-3.75-1-7l-.312-3.937c.105-7.85 2.785-15.67 4.912-23.18 10.516-37.167 12.644-77.205 12.712-115.633l.012-2.98c.097-49.773.097-49.773-15.824-67.395-14.354-13.533-35.301-19.532-54.625-20.312-15.192.457-31.932 7.103-43.875 16.437m43 33c-1.722 5.166-1.655 10.206.188 15.25 3.211 4.873 6.596 7.185 12.343 8.445 5.134.634 10.307.447 15.469.305-.341-6.37-1.35-11.386-6-16-6.804-4.351-13.787-7.836-22-8m-296 83c-3.805 11.493-5.554 23.008-7 35l-.441 3.32c-3.11 28.885 1.446 62.126 13.441 88.68 4.486-3.688 8.793-7.56 13-11.562l1.53-1.39c1.407-1.364 1.407-1.364 3.47-4.048-.062-2.5-.062-2.5-1-5l-.937-2.684-2.125-5.5c-2.15-6.458-2.09-12.77-2.063-19.504l-.012-2.876.004-2.76.004-2.503C128 516 128 516 129 513l6.148 7.504c2.078 2.542 4.143 5.093 6.204 7.648l1.735 2.149q1.7 2.104 3.394 4.215c2.697 3.336 5.397 6.528 8.519 9.484l2.23-1.46 2.958-1.915 2.917-1.898c2.593-1.547 5.064-2.702 7.895-3.727-.579-3.885-1.718-6.588-3.773-9.922l-1.733-2.83-1.869-2.998-1.924-3.116Q158.865 511.557 156 507l-1.513-2.414C128.93 463.992 128.93 463.992 112 449zm796.155 6.407C898.895 462.91 892.99 471.48 887 480l-1.497 2.111C873.693 498.805 863.095 516.226 853 534c3.097 2.38 6.286 4.561 9.563 6.688l2.878 1.886C868 544 868 544 871 544c5.909-5.92 10.686-13.197 15.461-20.051 2.67-3.82 5.513-7.402 8.539-10.949 2.528 16.117.748 31.766-5 47q3.621 3.41 7.25 6.813l2.066 1.947 2.012 1.885c.608.57 1.215 1.141 1.84 1.73 1.87 1.66 3.812 3.153 5.832 4.625 7.766-20.282 13.096-41.974 13.203-63.773l.017-2.796q.014-2.922.02-5.845c.01-2.918.04-5.836.072-8.754.093-16.246-1.416-31.568-7.312-46.832-3.702 0-6.334 3.897-8.845 6.407m-426.03 70.468c-3.463 5.092-3.617 10.06-3.125 16.125.523 2.413 1.217 4.652 2 7l2.668-1.059 3.52-1.379 3.48-1.37c7.583-2.712 15.172-2.513 23.144-2.567l2.112-.018c9.733-.045 18.272.698 27.373 4.397C544 548 544 548 547 547c1.902-7.606 1.634-14.982-2-22-8.979-8.53-24.895-8.38-36.559-8.223-9.452.326-21.67 1.778-28.316 9.098m24.75 109.375C492.7 641.31 478.414 643.512 465 645c3.86 10.726 13.456 17.238 23.25 22.313 13.586 6.37 28.553 5.921 42.75 1.687 11.296-4.677 22.758-12.191 29-23v-2l-1.997-.212c-29.362-3.19-29.362-3.19-39.94-9.913-5.184-2.72-8.164-1.138-13.188 1.375M337 673c-1.88 3.352-3.31 6.395-2.566 10.25L335 685c6.462.351 11.33.29 17-3 3.897-4.002 5.914-7.709 6.125-13.312L358 666c-7.467-.266-15.397 1.944-21 7m-186-31v2q3.218.816 6.438 1.625l2.117.54a395 395 0 0 0 13.511 3.155c18.267 4.009 35.778 8.76 46.747 25.055 9.101 15.114 8.18 30.575 4.343 47.219-1.19 4.782-2.852 9.044-5.156 13.406h-2l-.396-1.893c-.606-2.871-1.23-5.739-1.854-8.607l-.621-2.977c-1.554-7.063-3.287-14.721-9.129-19.523-3.223-.187-3.223-.187-7.062 0-9.928.261-18.043-1.818-25.938-8-5.33-5.208-7.444-11.34-9.773-18.316-.994-2.902-1.924-5.325-3.915-7.684-5.196-2.247-9.924-1.358-15.062.5-15.115 6.646-31.647 19.953-39.187 35-3.444 11.342 1.58 20.13 6.75 30.063 4.35 8.137 9.482 15.06 16.187 21.437l1.7 1.797c7.027 7.356 15.1 12.84 23.681 18.224C165.196 783.11 173.103 791.523 180 805l1.844 3.496C187.052 818.924 189.979 829.78 193 841c4.62 16.988 9.576 34.422 24.938 44.938 9.423 5.267 19.941 4.836 30.23 2.273 5.264-1.748 9.58-3.502 12.832-8.211.625-3 .625-3 0-6-2.83-3.805-6.209-5.762-10.25-8.187-10.634-6.638-20.418-18.486-24.25-30.625-.312-1.915-.312-1.915-.5-4.188l-.312-3.023c-.54-10.554 1.654-20.323 3.892-30.6 2.764-12.727 4.802-25.455 6.42-38.377l.272-2.155c10.963-87.381 10.963-87.381-7.604-112.825-7.078-8.57-17.72-14.726-28.668-17.02-18.215-.939-35.134 2.12-49 15m156.492 3.066c-21.213 27.488-11.259 75.845-7.168 107.641 2.402 18.208 5.288 36.056 10.047 53.815 4.176 16.442 1.964 28.629-5.808 43.857-2.908 4.877-5.851 8.132-10.688 11.121-.96.594-1.92 1.189-2.91 1.8-3.564 2.043-7.21 3.808-10.969 5.462-2.383 1.478-3.055 2.624-3.996 5.238 0 3.513.876 4.85 3.125 7.563 7.772 5.922 21.349 7.784 30.875 7.437 8.333-1.442 15.06-5.042 20.371-11.684C339.494 864.343 343.047 850.19 347 835c4.61-17.52 11.933-36.223 24-50l1.813-2.14c4.646-5.073 10.002-8.378 15.89-11.872C409.571 758.403 425.228 741.315 433 718c1.28-8.54-1.355-14.906-6-22-9.14-11.768-22.694-24.231-37-29-2.34-.273-2.34-.273-4.937-.375l-2.59-.148C380 667 380 667 377.887 669.035c-2.208 3.47-3.645 6.962-5.137 10.778C368.185 690.74 361.995 696.45 351 701c-2.697.9-4.285 1.122-7.055 1.14l-2.363.06q-2.445.05-4.89.054c-4.182.13-6.16.348-9.594 2.918-6.208 8.37-7.985 18.677-9.098 28.828-8.032-17.906-11.056-34.079-4-53 3.641-7.42 8.296-13.185 15-18l2.402-1.77c13.564-8.931 31.076-11.3 46.717-14.582l2.647-.57 2.337-.487C385 645 385 645 387 643c-11.093-10.83-24.914-15.455-40.158-15.434-14.877.327-29.132 6.524-39.35 17.5M636 642l1 3c2.322.828 2.322.828 5.406 1.465l3.42.729c1.213.245 2.425.49 3.674.744q3.715.79 7.43 1.582l3.67.768c22.169 4.645 22.169 4.645 29.4 8.712l2.254 1.234c9.412 5.67 15.776 14.214 18.746 24.766 2.65 11.624 2.214 21.523-.25 33.125l-.621 3.168c-1.243 5.96-2.759 10.623-6.129 15.707l-.304-1.785c-.47-2.72-.958-5.436-1.446-8.153l-.477-2.806c-1.293-7.09-2.855-15.5-8.773-20.256a73 73 0 0 0-7.562-.5c-11.056-.441-19.772-2.593-27.813-10.687-4.022-4.7-6.359-10.186-8.785-15.822-3.373-7.716-3.373-7.716-6.84-9.991-6.306-.794-10.428.605-15.937 3.563l-2.122 1.108c-5.467 2.925-10.354 6.135-14.941 10.329l-2.738 2.46c-7.2 6.8-16.048 15.873-16.461 26.438C591.62 730.091 602.468 747.725 617 760c6.447 4.856 13.233 9.257 20.05 13.57l1.98 1.272q1.816 1.163 3.658 2.283c9.809 6.282 15.875 15.655 21 25.875l1.695 3.334c5.432 10.912 9.006 21.837 12.242 33.545 10.208 36.637 10.208 36.637 26.945 46.922 9.452 4.665 18.614 3.122 28.43.199 10.634-4.025 10.634-4.025 13.953-8.824C748 875 748 875 747.668 871.87c-2.345-4.037-5.165-5.033-9.356-6.808-6.228-2.895-11.125-5.458-15.312-11.063l-2.043-2.648c-8-11.106-10.951-21.754-9.957-35.352.821-4.978 1.897-9.877 3.02-14.795 3.83-16.889 6.574-33.865 8.918-51.018l.45-3.288c2.121-15.528 3.85-30.707 3.862-46.399l.002-2.29c-.03-20.991-1.697-44.04-16.975-60.01-3.976-3.651-8.282-6.19-13.277-8.2l-2.215-.91C674.55 622.217 651.557 627.705 636 642m30 25c-1.42 4.259.059 6.598 1.758 10.617 1.883 3.612 4.157 5.703 8.039 6.969 2.69.505 5.218.51 7.953.476l2.984-.027L689 685c.35-3.678.113-5.764-1.5-9.125-4.306-4.952-10.22-7.2-16.5-8.875-2.875-.125-2.875-.125-5 0m129.227-23.992c-12.012 15.356-11.63 38.226-11.54 56.93l.007 2.482c.14 33.77 4.067 68.088 12.181 100.893 3.845 15.708 3.47 29.453-4.625 43.875-5.773 8.953-11.966 14.718-21.297 19.792-3.368 2.304-5.018 4.448-6.953 8.02.217 3.478 1.148 5.14 3.59 7.605 7.82 6.08 19.038 7.903 28.785 7.395 8.533-1.375 15.24-5.53 20.684-12.172 8.288-12.074 12.597-25.643 16.191-39.695 7.279-27.859 19.478-52.202 44.446-67.48C896.772 758.225 913.548 739.732 921 717c1.381-8.339-1.062-15.576-5.66-22.5-8.595-11.296-23.03-25.698-37.875-27.871l-2.528-.067-2.535-.12c-3.516.817-4.452 2.592-6.402 5.558a134 134 0 0 0-2.687 5.688C857.445 689.54 849.36 696.498 837 701c-4.564.978-8.892 1.143-13.54.828l-2.398-.14c-.69-.08-1.379-.158-2.09-.239-1.972.551-1.972.551-4.097 3.16-1.846 3.34-2.953 6.277-3.937 9.953l-.989 3.668A559 559 0 0 0 806 735c-5.155-11.356-7.257-22.361-7.375-34.75l-.042-2.615c.081-11.187 3.798-20.977 11.022-29.537 11.405-11.103 27.798-15.006 42.77-18.535q3.982-.97 7.961-1.948 2.45-.6 4.902-1.182c5.551-1.328 5.551-1.328 7.762-2.433-4.207-9.802-16.686-14.27-26-18-17.812-4.628-39.741 3.385-51.773 17.008M177 668c-.418 6.058-.123 9.19 4 14 3.405 2.211 6.625 2.412 10.625 2.688l3.477.261C198 685 198 685 200 684c-.414-5.277-.964-8.444-5-12-5.921-2.872-11.42-4.585-18-4m651.008 4.355c-3.128 3.452-3.737 7.122-4.008 11.645 6.424 1.285 11.073.93 17-2 4.073-3.206 5.821-5.964 7-11v-4c-6.67 0-14.398 1.55-19.992 5.355M243 806c-4.034 5.475-3.283 11.517-3 18 3.326 1.129 5.122.87 8.375-.375 13.021-4.923 28.58-3.647 41.625.375 1.663.352 3.329.691 5 1 2.983-4.474 2.6-8.755 2-14-2.326-5.01-4.892-7.02-10-9-13.293-3.146-31.905-3-44 4m486.5-.125c-3.847 5.45-3.996 10.606-3.5 17.125l1 2 2.012-.621 2.676-.817 2.636-.808c14.202-4.002 30.024-3.016 43.676 2.246 1.66.368 3.325.713 5 1 1.573-5.606 1.783-10.885-.25-16.375-3.821-5.732-9.253-7.29-15.75-8.625-4.177-.397-8.306-.42-12.5-.375l-3.223-.035c-7.641.028-15.48.563-21.777 5.285m-468.04 96.219-1.941.336q-3.072.534-6.144 1.07l-4.164.723q-5.106.885-10.211 1.777v2c3.058 1.488 6.122 2.964 9.188 4.438l2.619 1.275 2.548 1.22 2.333 1.127c9.042 3.676 18.347 1.98 27.312-1.06 4.323-2.107 7.314-3.971 10-8l-1.73-.297c-6.364-1.173-12.427-2.91-18.582-4.898-4.046-1.212-7.086-.431-11.227.289m479.103 1.843-3.374.592q-4.096.721-8.189 1.471l-1 3c3.3 1.743 6.631 3.397 10 5l2.07 1c9 3.67 20.88 3.404 30.055.375 4.772-2.033 8.218-4.718 11.875-8.375v-1l-1.908-.26-8.654-1.178-3.002-.408-2.94-.4-2.904-.383c-2.022-.29-4.03-.672-6.03-1.09-5.476-.432-10.62.67-16 1.657" id="svg-layer-1" style="pointer-events: all;"/><path fill="none" d="M454 331c13.861 10.627 18.91 22.776 21.605 39.758L476 374l.263 2.049c1.131 10.21.981 20.504.987 30.764l.002 3.138c-.04 38.386-2.751 77.972-13.252 115.049-4.883 17.838-4.883 17.838-4 25l.285 2.34c2.681 16.478 11.958 28.883 25.024 38.824 4.173 2.847 8.512 5.391 12.906 7.879 2.972 2.088 4.267 3.686 5.785 6.957.188 2.875.188 2.875-1 6-8.889 10.12-20.49 12.693-33.324 14.29-9.408.433-18.3-2.78-25.692-8.407-2.793-2.65-3.793-5.248-4.984-8.883a168 168 0 0 0-2.312-3.812c-6.01-10.739-8.78-22.991-11.25-34.938-5.735-27.67-5.735-27.67-16.438-36.812-3.308-1.585-5.378-1.86-9-1.438-1 1-1 1-1.114 3.5l.016 3.285.01 3.545.026 3.732.013 3.745q.018 4.597.049 9.193c-3.971-2.298-6.829-4.665-10-8-8.984-9.286-18.009-17.904-28.316-25.697-3.436-2.66-6.715-5.507-10.012-8.335-3.226-2.763-6.513-5.414-9.86-8.03-11.79-9.623-23.898-20.836-31.812-33.938l-1.656-2.629c-5.184-9.135-6.638-19.143-8.344-29.371l-.59-3.29c-1.827-12.075.155-25.253 6.59-35.71 3-2 3-2 5.438-1.937C313 403 313 403 314.875 405.5c2.125 2.5 2.125 2.5 5.563 3.625C324 409 324 409 326.449 406.98c2.909-3.398 4.864-6.848 6.926-10.793C339.247 385.449 345.223 379.062 356 373l1.72-.983c13.356-7.55 13.356-7.55 21.28-6.017 4.061 3.976 5.45 8.58 7.25 13.813 4.734 12.678 11.644 17.952 23.723 23.492 7.55 3.28 14.702 4.69 22.902 5.07 6.787.454 6.787.454 9.688 2.5C449.138 419.305 452 432.462 452 443h2l.344-2.531c.845-4.467 2.33-8.631 3.84-12.903 5.018-14.52 4.125-29.257-2.352-43.054-2.37-4.564-5.18-8.356-8.695-12.102C446 371 446 371 446 369l-1.734-.805c-2.375-1.253-4.37-2.707-6.516-4.32-12.141-8.536-25.665-13.57-39.687-18.062q-2.277-.748-4.553-1.499C383.4 341 373.22 337.948 363 335c1.797-5.39 7.938-7.502 12.812-9.983 25.98-12.069 54.08-9.79 78.188 5.983M610.613 315.8c18.523-.726 35.726 7.449 50.387 18.2-3.418 3.022-7.06 4.092-11.379 5.234l-4.455 1.23-2.342.636C597.427 353.466 597.427 353.466 581 368l-2.117 1.727c-9.423 8.322-15.196 21.753-16.09 34.14-.457 13.856 2.741 26.516 8.207 39.133 1.1-3.713 2.12-7.412 2.965-11.191l.486-2.174q.487-2.202.961-4.406c1.264-5.597 2.746-10.435 6.963-14.541 4.5-2.095 8.279-2.113 13.188-2.364 13.692-1.291 27.474-9.032 36.437-19.324 3.784-6.125 5.695-12.819 7.324-19.785C640 367 640 367 642 365c13.641-1.488 25.243 7.202 35.645 14.977 6.709 5.554 11.074 12.35 14.875 20.136 3.69 7.506 3.69 7.506 7.855 9.512 4.65-.802 6.396-2.876 9.707-6.078C712 402 712 402 715.25 401.75c4.976 2.262 6.834 5.989 9 10.813 5.876 17.487 1.1 38.905-6.562 55.125-3.283 6.004-7.154 11.204-11.688 16.312l-2.191 2.52C695.523 495.9 686.784 504.2 677 512a1139 1139 0 0 0-24 20l-2.59 2.207c-8.183 7.148-16.015 15.106-22.668 23.715L626 560h-2l.219-1.879c2.225-21.233 2.225-21.233-.219-26.121-3.935.231-6.38.532-9.562 2.938-9.35 11.746-13.212 24.143-15.75 38.687-1.48 8.363-3.298 16.169-6.625 24l-.945 2.237c-4.167 9.2-10.727 18.426-20.24 22.462-9.08 2.992-16.65 3.37-25.816.989l-2.108-.544c-8.246-2.243-15.261-5.352-19.954-12.769-.625-3-.625-3 0-6 3.324-4.512 6.65-7.402 11.375-10.5q1.743-1.18 3.48-2.367 2.596-1.762 5.196-3.516C553.749 579.497 562.468 562.89 565 550c.655-8.412-.928-15.629-3.187-23.687-12.73-48.55-31.467-136.735-5.258-183.188C565.838 329.476 584.31 320.621 600 317c3.556-.603 7.022-.925 10.613-1.2" id="svg-layer-2" style="pointer-events: all; fill: none;"/><path fill="none" d="M865 635c2.868 2.137 5.642 4.3 8 7v2a278 278 0 0 1-23.288 6.434c-17.198 3.983-34.917 8.69-45.024 24.379-4.707 7.834-6.23 16.23-6.125 25.25l.016 2.734c.252 11.347 2.76 21.867 7.421 32.203l.516-2.352c1.359-6.059 2.806-12.09 4.422-18.086l.902-3.37c1.328-3.655 2.564-6.276 5.16-9.192 3.32-.48 3.32-.48 7.125-.187 11.696.533 21.133-2.902 30-10.676 5.397-5.597 8.76-12.092 12.21-18.977C868 669 868 669 870 667c8.366-1.733 15.055 1.66 22 6 12.575 8.59 24.725 18.775 29 34 2.134 13.521-6.52 25.499-14 36-9.45 12.829-20.629 21.707-34 30-23.68 15.351-34.489 41.066-41.37 67.59-4.181 16.008-9.616 35.25-24.005 45.023C796.67 891.69 785.65 890.305 774 887c-4.858-2.182-8.048-4.425-10.812-9-.264-4.217 1.218-5.715 3.812-9a82 82 0 0 1 6.75-4.312c12.15-7.451 18.902-17.679 23.414-31.168 3.009-12.668.153-24.771-2.671-37.186-9.284-41.07-23.851-109.434-2.802-148.47C798.976 637.931 807.63 632.472 819 628l2.46-.973c15.866-5.52 29.888-.51 43.54 7.973" id="svg-layer-3" style="pointer-events: all; fill: none;"/><path fill="none" d="m213 632 2.738 1.352C226.373 639.129 232.506 647.507 236 659c11.64 46.997 2.577 103.595-8.656 149.984-2.803 11.833-2.808 24.178 3.32 34.938 6.984 10.962 14.32 19.06 25.613 25.387C259 871 259 871 261 874c.58 3.805.392 5.432-1.812 8.625-8.917 6.644-19.873 7.968-30.762 7.191-8.878-1.502-15.86-7.357-21.516-14.093-8.247-11.755-11.683-25.94-15.164-39.66-2.572-9.879-5.804-19.078-10.184-28.313l-1.34-2.848c-6.36-12.928-15.152-22.447-27.472-29.777-7.455-4.568-14.167-9.355-20.75-15.125l-1.934-1.535c-11.96-9.562-25.24-29.062-27.34-44.473-.432-9.027 3.667-15.417 9.462-22.054A287 287 0 0 1 117 687l2.277-2.312c8.227-7.885 20.901-17.819 32.786-18.063 4.576.436 5.75 1.156 8.937 4.375 1.047 2.513 1.854 4.776 2.563 7.375 2.213 7.852 5.463 14.047 12.437 18.625 7.384 3.888 13.133 5.114 21.5 4.688 4.375-.074 6.96-.07 10.688 2.562.972 1.676.972 1.676 1.812 3.75l1.059 2.543c2.922 7.932 4.445 16.162 5.941 24.457h2c7.961-15.07 10.236-33.435 6.043-49.89-1.64-4.892-4.05-8.932-7.043-13.11l-1.266-1.89c-10.563-14.128-30.101-17.645-46.234-21.298q-3.48-.797-6.961-1.6-2.148-.495-4.297-.982c-2.801-.639-5.514-1.32-8.242-2.23 2.624-6.7 10.214-9.763 16.441-12.527 15.291-6.002 30.638-7.085 45.559.527M378.941 636.34c2.406 1.94 3.622 3.946 5.059 6.66-4.346 1.514-8.688 2.706-13.164 3.77l-4.152 1.005q-3.217.778-6.436 1.54C348.446 652.109 336.48 655.027 327 663v2c-1.32 1.156-1.32 1.156-3.125 2.5-9.519 8.019-12.962 20.036-14.258 32.047-.414 12.202 3.04 23.575 8.383 34.453l.48-3.078c3.363-20.303 3.363-20.303 9.137-26.719 3.61-1.822 7.082-1.603 11.07-1.64 6.896-.222 12.345-.83 18.313-4.563l3.125-1.75c7.395-5.787 11.048-12.101 14.478-20.702 2.723-6.772 2.723-6.772 5.397-8.548 7.56-1.664 13.722 1 20 5 12.848 8.857 28.61 20.156 33 36 1.427 8.222-1.416 14.708-5 22l-1.387 2.855c-8.553 16.614-22.563 29.689-38.8 38.707-13.014 7.331-21.639 18.331-28.375 31.438l-1.439 2.79c-5.7 11.296-9.36 22.616-12.494 34.85-4.015 15.617-9.13 34.893-23.505 44.36-11.642 6.045-23.9 3.825-35.957.082-4.443-1.805-7.701-3.718-10.043-8.082 0-3.17.596-4.52 2.629-6.937 3.344-2.909 7.152-4.528 11.15-6.33 4.224-1.992 7.098-4.28 10.221-7.733l2-2.187c6.97-9.801 12.124-22.652 11-34.813-.594-3.293-1.405-6.513-2.25-9.75-4.522-17.605-7.537-35.362-9.875-53.375l-.39-2.973c-10.795-82.504-10.795-82.504 5.452-105.664 18.626-22.25 48.851-25.136 73.004-10.898M710 640c3.496 3.963 6.406 7.9 8 13h2c.807 2.37 1.595 4.745 2.375 7.125l.672 1.957c3.801 11.74 4.394 24.038 4.39 36.293l.004 2.174c-.04 19.008-2.594 37.69-5.441 56.451l-.373 2.464c-2.374 15.59-4.962 31.1-8.502 46.473-3.218 14.16-3.596 26.466 3.828 39.489 7.09 11.1 15.24 17.685 27.203 22.836C747 870 747 870 748.094 872.332c-.127 3.62-1.116 5.641-3.094 8.668-8.375 6.375-20.496 9.15-30.926 8.941-9.194-1.387-16.356-7.267-22.172-14.246-8.168-11.573-11.316-25.379-15.088-38.817-7.62-26.934-18.351-50.09-42.689-65.316-7.038-4.495-13.877-8.99-20.125-14.562l-2.05-1.77C599.535 743.782 591.257 726.85 590 710c1.616-12.402 12.724-23.398 22-31 8.71-6.242 18.965-13.266 30-12 4.202 3.18 5.692 7.427 7.688 12.125 4.436 9.855 9.69 18.197 20.171 22.254 5.73 1.662 11.324 1.847 17.258 1.787 2.833.088 5.175.27 7.44 2.074 7.482 8.615 7.777 21.915 9.443 32.76 8.301-7.687 9.745-21.652 10.293-32.547.423-14.987-2.124-28.139-12.328-39.773-9.885-9.436-21.948-12.887-34.965-15.68l-3.453-.752A3635 3635 0 0 0 639 644v-3c18.74-15.848 52.653-19.273 71-1" id="svg-layer-4" style="pointer-events: all; fill: none;"/><path fill="none" d="M309 107c3.28 1.426 5.355 3.167 7.813 5.75a84 84 0 0 0 7.593 7.059c3.683 3.127 6.463 6.6 9.281 10.504l1.541 2.095q2.401 3.286 4.772 6.592l1.554 2.158c13.905 19.365 26.996 39.284 38.759 60.03l1.148 2.015C384 207.75 384 207.75 384 210c-1.39 1.082-1.39 1.082-3.324 2.242l-2.12 1.293-2.243 1.34c-7.72 4.65-7.72 4.65-11.208 7.445C363 224 363 224 361 224a165 165 0 0 1-5.375-7.062 523 523 0 0 0-14.703-19.063c-6.71-8.307-6.71-8.307-7.922-11.562L332 184l-3-1c-2.359 19.045-2.128 38.442 6.363 56.055.82 2.504.553 3.474-.363 5.945-1.826 2.198-1.826 2.198-4.184 4.547l-2.56 2.558-2.693 2.645-2.682 2.691C316.267 264 316.267 264 314 264c-15.899-51.724-18.813-104.12-5-157M714 107c2.419 2.419 2.538 3.716 3.184 7.04l.618 3.161.635 3.424.664 3.523c2.12 11.564 3.715 23.157 4.899 34.852l.234 2.256c3.383 34.508-3.007 68.65-12.234 101.744-3.932 0-5.164-1.394-8-4v-2l-1.61-.617c-3.419-1.978-5.903-4.686-8.64-7.508l-1.68-1.707A1078 1078 0 0 1 688 243l.516-1.695c.836-2.766 1.66-5.535 2.484-8.305l1.055-3.5 1.07-3.625 1.008-3.383c1.865-7.511 2.023-14.794 1.992-22.492l.012-2.867c-.008-5.471-.333-10.72-1.137-16.133h-2a120 120 0 0 0-4.5 6.188c-3.407 4.889-6.888 9.683-10.562 14.375-4.916 6.3-9.456 12.823-13.938 19.437-3.12-.644-5.559-1.722-8.328-3.285l-2.422-1.358-2.5-1.42-2.547-1.431Q645.098 211.759 642 210c7.992-17.101 17.79-33.355 28.645-48.793C672 159 672 159 672.423 157.12c.674-2.476 1.724-4.126 3.167-6.245l1.612-2.373 1.736-2.502 1.776-2.578c4.074-5.845 8.342-11.376 13.005-16.766 2.941-3.425 5.67-6.999 8.394-10.597 2.095-2.286 4.188-3.559 6.887-5.059a207 207 0 0 0 5-4" id="svg-layer-5" style="pointer-events: all; fill: none;"/><path fill="none" d="M913 451c2.698 2.698 3.13 5.65 4 9.25l.5 1.93c3.096 12.53 3.876 24.982 3.813 37.82l-.006 2.319c-.099 24.692-4.526 48.25-12.307 71.681-2.877-1.29-4.77-2.601-6.875-4.937-2.75-2.876-5.546-4.313-9.125-6.063-1.816-1.64-1.816-1.64-3-4a45 45 0 0 1 2.25-7.125c2.212-6.031 3.62-11.404 3.75-17.875l.082-3.219A118 118 0 0 0 895 513c-6.511 7.988-12.908 15.987-18.7 24.518-2.135 3.088-4.134 5.439-7.3 7.482l-1.977-1.426-2.648-1.886-2.602-1.864c-2.832-1.863-5.715-3.367-8.773-4.824 11.114-24.512 27.912-46.676 43.752-68.294a418 418 0 0 0 2.975-4.128C901 461 901 461 903.25 459.688c3.819-2.344 6.677-5.456 9.75-8.688M110 449c12.699 5.259 21.606 21.191 29 32l1.335 1.934c7.08 10.279 13.615 20.904 20.124 31.55q2.176 3.548 4.37 7.086l2.483 4.055 1.15 1.846c1.67 2.755 2.538 4.24 2.538 7.529l-2.45 1.207-3.238 1.606-3.199 1.582A120 120 0 0 0 154 544l-1.05-1.294-4.887-6.019-1.787-2.2a3112 3112 0 0 0-12.471-15.253A182 182 0 0 1 129 513c-4.04 12.119-1.403 28.649 3.75 40 1.35 3.242 1.451 3.858.25 7-1.399 1.74-1.399 1.74-3.16 3.453l-1.904 1.875-1.999 1.922-2.01 1.969A837 837 0 0 1 119 574l-3-1a58 58 0 0 1-2.375-6.75l-.636-2.141A427 427 0 0 1 111 557l-.682-2.508c-8.253-30.994-9.25-64.149-1.76-95.46.722-3.32 1.074-6.657 1.442-10.032" id="svg-layer-6" style="pointer-events: all; fill: none;"/><path fill="none" d="M524.117 637.074C534.7 642.63 548.242 642.777 560 644c-3.818 10.251-12.167 15.363-21 21l-2.059 1.355c-11.168 6.493-27.19 7.103-39.504 4.332-11.578-3.265-24.01-11.01-30.937-21C465 647 465 647 465 645l3.523-.48c8.443-1.208 16.746-2.636 24.977-4.895l2.282-.62c4.38-1.265 7.966-2.916 11.906-5.255 6.271-3.102 10.836.322 16.43 3.324" id="svg-layer-7" style="pointer-events: all; fill: none;"/><path fill="#D4640D" d="M544 524c4.193 5.276 4.55 11.44 4 18-1 3.5-1 3.5-2 6l-1.906-.586-2.594-.789-2.531-.773L536 545l-3.395-1.078c-5.821-1.426-11.777-1.294-17.739-1.293-2.032-.004-4.063-.04-6.095-.078-10.843-.093-19.802 2.395-29.771 6.449-2.509-7.526-3.19-14.512 0-22 5.384-6.867 13.147-8.19 21.344-9.559 14.24-1.719 31.316-1.51 43.656 6.559M779 805c3.179 3.031 4.853 5.649 5.133 10.121l-.008 2.317.008 2.308c-.13 2.207-.524 4.134-1.133 6.254-2.639-.453-5.02-1.008-7.523-1.973-7.438-2.842-14.187-3.433-22.102-3.465l-2.888-.029c-6.899.081-12.918 1.443-19.487 3.467-1.331.343-2.664.68-4 1-2.085-4.17-1.455-9.586-.61-14.074 1.278-3.774 3.092-5.509 6.485-7.301 12.241-5.52 34.432-5.516 46.125 1.375M270.25 800.75l3.027-.062c7.828-.041 14.623.664 20.723 5.875 2.898 3.532 3.158 5.365 3.188 9.875l.042 2.933C297 822 297 822 295 825c-2.535-.468-4.98-.994-7.445-1.754-13.747-4.148-27.885-3.115-41.555.754-2.79.66-2.79.66-5 1-1.777-1.777-1.215-4.283-1.25-6.687.156-8.777.156-8.777 3.25-12.313 8.913-4.351 17.494-5.2 27.25-5.25M619 365c1.475 5.604.873 10.585-1 16-2.285 3.855-4.528 6.344-8.648 8.18-4.16 1.018-7.966 1.039-12.227.945l-2.375-.027c-1.917-.024-3.833-.06-5.75-.098.05-6.653 1.273-10.392 5.98-15.215 6.452-5.703 15.121-10.646 24.02-9.785M406 366c8.48.17 17.897 3.929 23.977 9.96 3.009 4.453 3.739 8.736 4.023 14.04-18.523.784-18.523.784-24.691-4.43-4.255-4.872-4.635-9.343-4.309-15.57.5-2.5.5-2.5 1-4" id="svg-layer-8" style="pointer-events: all;"/><path fill="#FAE9CB" d="m273 904 2.123.465c2.278.507 4.546 1.047 6.815 1.597l2.36.565q2.852.684 5.702 1.373l-2 1v2q-2.374.973-4.75 1.938l-2.672 1.09c-9.314 3.513-18.915 2.88-28.055-.872-3.561-1.632-7.058-3.326-10.523-5.156v-1a1584 1584 0 0 1 11.563-2.062l3.29-.604c5.687-.985 10.443-1.638 16.147-.334M761.125 904.313c5.603 1.38 11.209 2.6 16.875 3.687-5.087 5.653-12.605 7.567-19.945 8.156-9.699.417-18.664-2.476-27.055-7.156l1-2c1.794-.487 1.794-.487 4.113-.816.836-.125 1.672-.25 2.533-.377l2.667-.37q2.588-.374 5.175-.753l2.33-.327c2.182-.357 2.182-.357 4.284-.93 2.887-.65 5.179.162 8.023.885" id="svg-layer-9" style="pointer-events: all;"/><path fill="#D4640D" d="M358 666c-.269 6.048-.918 10.238-5 15-4.368 3.09-7.88 4.131-13.187 4.063l-2.731-.028L335 685c-1.256-3.945-.746-6.268.797-10.035 2.927-4.781 8.168-6.843 13.39-8.278 3.072-.553 5.714-.88 8.813-.687M666 667c7.708.413 14.137 2.495 20 7.625 3.078 3.655 3.103 5.656 3 10.375-6.711.328-12.162.574-18-3-3.73-4.334-4.974-8.494-6-14zM177 668c6.58-.585 12.079 1.128 18 4 4.036 3.556 4.586 6.723 5 12-4.373 2.186-10.314.74-15 0-3.23-1.25-5.222-3.01-7.375-5.75-.958-3.45-.744-6.677-.625-10.25M848 667c-.465 5.7-1.658 9.303-5 14-4.548 3.173-9.532 3.96-15 4-2.273-.484-2.273-.484-4-1 .271-4.523.88-8.193 4.008-11.645C833.602 668.55 841.33 667 848 667" id="svg-layer-10" style="pointer-events: all;"/><path fill="#FAF1E2" d="M308 104c3.824 2.214 6.727 4.51 9.813 7.688l2.394 2.449L322 116l-1 2-2.117-2.152-2.758-2.785-2.742-2.778C311 108 311 108 309 107l1 3a293 293 0 0 1-2 6c-9.896 43.696-9.41 88.1 1.816 131.344 1.172 4.53 2.192 9.084 3.184 13.656-2-1-2-1-2.806-3.151l-.78-2.86-.876-3.206-.913-3.47-.94-3.535C294.457 197.727 297.461 151.068 308 104M915 449c6.487 16.793 7.555 33.8 7.438 51.625l-.009 2.923c-.063 14.837-.867 28.988-4.429 43.452l-.632 2.647A366 366 0 0 1 913 566l-.984 3.395A504 504 0 0 1 910 576c-3 0-3 0-5.48-2.187L901.813 571l-2.731-2.812L897 566c3 0 3 0 4.754 1.496.597.64 1.194 1.281 1.808 1.942 3.267 3.476 3.267 3.476 5.438 4.562l.688-3.812c1.019-5.154 2.371-10.185 3.75-15.25 4.816-17.88 6.793-35.388 6.812-53.875l.004-2.354c-.006-15.771-1.459-30.575-6.254-45.709-2 0-2 0-3.945 1.75l-2.18 2.25-2.195 2.25L904 461l-2-1a1250 1250 0 0 1 5.375-5.5l1.54-1.59C912.772 449 912.772 449 915 449" id="svg-layer-11" style="pointer-events: all;"/><path fill="#FAF1E1" d="M725 176h1c.522 28.616-.94 63.878-14 90-3.873-1.61-6.67-4.23-9.687-7.062l-1.584-1.469c-4.69-4.375-9.245-8.883-13.729-13.469 3 0 3 0 5.637 2.379a357 357 0 0 1 3.05 3.184q1.607 1.653 3.22 3.3l1.59 1.628c2.998 3.01 6.148 5.899 9.503 8.509h1c7.056-25.751 11.823-50.468 12.605-77.158l.114-3.408.092-3.092C724 177 724 177 725 176M279 904c3.186.58 6.36 1.035 9.566 1.473C291 906 291 906 293 908c-7.678 7.274-17.262 10.426-27.82 10.207-9.489-.901-17.895-5.85-26.18-10.207v-2q5.883-1.197 11.786-2.301a466 466 0 0 0 5.939-1.185c8.436-1.56 14.23-1.332 22.275 1.486m-25.437.938-3.374.591q-4.096.721-8.189 1.471c3.052 2.355 5.974 4.046 9.5 5.625.938.425 1.877.85 2.844 1.29 9.548 3.902 20.218 2.874 29.656-.915 1.342-.65 2.678-1.31 4-2v-2l2-1q-4.03-.974-8.062-1.937l-2.28-.553A378 378 0 0 0 273 904l-3.281-.75c-5.54-.372-10.718.69-16.156 1.688" id="svg-layer-12" style="pointer-events: all;"/><path fill="#FAF1E2" d="m329 182 4 2v3l-2-2c-3.595 18.749-1.961 37.655 6.46 54.984.54 2.016.54 2.016-.163 3.86-2.746 4.565-6.92 8.105-10.672 11.844l-2.617 2.666-2.531 2.533-2.31 2.319c-2.152 1.781-3.438 2.409-6.167 2.794l-1-5h2v3c2.729-2.267 5.37-4.619 8-7l1.67-1.51a380 380 0 0 0 5.392-5.053l1.808-1.64c1.583-1.534 2.934-2.945 4.13-4.797.036-4.526-1.824-8.49-3.437-12.687-5.612-15.601-5.865-31.95-3.563-48.313z" id="svg-layer-13" style="pointer-events: all;"/><path fill="#FAF1E1" d="M715 104c1.927 2.89 2.482 4.458 3.184 7.77l.618 2.91.635 3.132.664 3.23c3.617 18.086 6.226 36.485 5.899 54.958-2.285-3.428-2.389-5.17-2.71-9.23-.11-1.267-.218-2.534-.33-3.84l-.164-2.036c-1.436-17.509-3.87-34.758-7.796-51.894-3 0-3 0-5.687 2.5L707 114l-2-1zM672 157c0 3.236-.4 4.015-2.055 6.668l-1.348 2.182-1.472 2.338-1.505 2.43a928 928 0 0 1-7.296 11.566c-5.748 9-10.733 18.172-15.324 27.816l1.529.779c2.286 1.17 4.566 2.351 6.846 3.534l2.406 1.224 2.305 1.201 2.126 1.095C660 219 660 219 662 222c-4.84-1.765-9.284-4.195-13.812-6.625l-2.39-1.273A2809 2809 0 0 1 640 211c7.386-19.133 19.612-37.747 32-54" id="svg-layer-14" style="pointer-events: all;"/><path fill="#FAF0E0" d="M103 497h1l.136 2.452c3.167 55.604 3.167 55.604 13.864 75.548h-3c-8.575-24.723-13.715-50.733-13-77z" id="svg-layer-15" style="pointer-events: all;"/><path fill="#00101B" d="m889 430 2 1-45 45c0-3 0-3 1.285-4.543l1.778-1.644c2.524-2.353 4.817-4.807 7.062-7.422 4.378-5.046 9.08-9.743 13.813-14.454l2.591-2.603A275 275 0 0 1 888 431z" id="svg-layer-16" style="pointer-events: all;"/><path fill="#FAF0E1" d="M419 550h2c2.652 8.588 5.108 17.134 6.938 25.938 2.68 12.596 5.706 25.928 14.062 36.062l-1 2c-11.514-12.793-15.077-32.06-18.121-48.45-.986-5.27-2.325-10.418-3.879-15.55" id="svg-layer-17" style="pointer-events: all;"/><path fill="#FAF1E1" d="m699 631 2.504 1.063c7.635 3.72 13.69 10.373 17.496 17.937l-1 3-1.285-2.195c-3.602-5.937-6.921-10.892-12.715-14.805l-1.656-1.14c-13.326-7.832-30.785-6.49-45.344-3.86 1-2 1-2 3.93-3.102 12.178-3.157 26.627-1.889 38.07 3.102M381 639c3.161 1.37 3.993 1.99 6 5q-2.874.786-5.75 1.563l-1.943.527c-4.687 1.257-9.392 2.412-14.116 3.523l-3.674.879a740 740 0 0 1-7.264 1.694C344.68 654.488 335.79 657.84 328 664l-2-1c10.541-9.022 23.26-12.104 36.438-15.25q2.166-.53 4.333-1.062C377.64 644.03 377.64 644.03 383 643zM706 673c3 1 3 1 4.098 2.75 6.206 14.474 6.308 29.071 3.152 44.375l-.475 2.33c-1.442 6.345-3.187 12.82-8.775 16.545 1.073-2.724 2.183-5.387 3.438-8.035 1.983-4.627 2.844-9.409 3.75-14.34l.537-2.71c2.712-14.413.854-27.757-5.725-40.915" id="svg-layer-18" style="pointer-events: all;"/><path fill="#FAF0E1" d="M402.75 530.625c4.872.562 7.704 2.58 10.89 6.281 4.88 6.348 4.88 6.348 6.36 10.094l-1 3-1.102-2.23C414.923 541.995 412.57 537.48 407 534c-3.312-.875-3.312-.875-6-1-1.77 1.77-1.166 4.117-1.19 6.475l.002 2.275-.001 2.304c.062 6.794.889 13.271 2.189 19.946-4.142-1.38-5.322-3.598-8-7l1-2 3 3c-.01-.747-.02-1.494-.032-2.263-.041-3.37-.067-6.741-.093-10.112l-.05-3.562-.02-3.399-.032-3.142c.332-3.685 1.367-4.405 4.977-4.897" id="svg-layer-19" style="pointer-events: all;"/><path fill="#FAF1E1" d="M695 189h2c.526 19.51-1.551 35.872-9 54-1.05-3.19-.953-4.973.18-8.117l.816-2.34.879-2.418q.846-2.37 1.68-4.742l.765-2.113c1.436-4.794 1.824-9.562 1.996-14.543l.127-3.497.12-3.605.13-3.676q.159-4.475.307-8.949" id="svg-layer-20" style="pointer-events: all;"/><path fill="#FAF1E1" d="m693 180 3 1v8h-1l-1-6c-13.462 17.092-13.462 17.092-19.5 25.625l-1.214 1.716L670 215a529 529 0 0 1-3.5 4.875l-1.344 1.867L664 223h-2v-2h2l.773-2.21c1.296-2.946 2.788-4.956 4.852-7.415 3.546-4.323 6.879-8.744 10.145-13.281 2.722-3.776 5.475-7.53 8.23-11.281l1.495-2.038zM760 903q2.09.382 4.184.754 2.127.402 4.254.808c.731.14 1.463.278 2.216.42q2.673.508 5.346 1.018v1c-5.143.303-9.103-.255-14.062-1.687-7.906-1.977-14.222-.211-21.938 1.687-2.668.424-5.312.726-8 1l4 4c-2.929-.628-5.361-1.586-8-3l1-3a1584 1584 0 0 1 11.563-2.062l3.29-.604c5.696-.987 10.428-1.599 16.147-.334M664 649c15.899 1.555 29.872 6.663 40.563 18.938L707 671l-1 2-1.582-1.977C694.037 658.697 679.735 653.27 664 651z" id="svg-layer-21" style="pointer-events: all;"/><path fill="#FAF1E1" d="M776 906h6c-3.654 5.813-9.48 8.448-15.809 10.621-10.364 1.792-20.706.968-30.191-3.621 3.638-1.213 4.99-.62 8.625.438 10.305 2.68 20.71 2.304 30.234-3.043L777 909zM657 630v2l-2.922 1.39-3.828 1.86-1.922.91c-3.784 1.853-6.446 3.803-9.328 6.84l2.08.427c3.1.642 6.197 1.295 9.295 1.948l3.273.672 3.125.664 2.889.603C662 648 662 648 664 650c-9.274-.589-18.015-2.759-27-5v-4c4.58-4.28 13.499-11 20-11" id="svg-layer-22" style="pointer-events: all;"/><path fill="#FAF0DF" d="M625 532c3.309 6.617 1.516 21.92 0 29-1.543 1.828-1.543 1.828-3 3l.184-1.703c.971-9.744 1.366-19.518 1.816-29.297l-10 2c3.87-3.87 5.845-4.492 11-3" id="svg-layer-23" style="pointer-events: all;"/><path fill="#001421" d="m655 529 2 1-27 27c0-3.59.546-3.955 2.93-6.477l1.898-2.021 2.047-2.127 2.057-2.166C644.057 538.86 649.345 533.79 655 529" id="svg-layer-24" style="pointer-events: all;"/><path fill="#FAF0E0" d="M109 453c1.166 3.993.63 6.66-.25 10.75-2.252 10.986-3.45 22.12-4.75 33.25h-1c-.403-8.044.196-15.729 1.313-23.687l.356-2.624c.903-6.092 2.418-11.84 4.331-17.689" id="svg-layer-25" style="pointer-events: all;"/></svg>